 <svg version="1.0" xmlns="http://www.w3.org/2000/svg" viewBox="0 0 700.000000 423.000000" preserveAspectRatio="xMidYMid meet" id="mask">
<g transform="translate(0.000000,423.000000) scale(0.100000,-0.100000)">
<path d="M5210 4007 c-624 -216 -566 -195 -552 -209 7 -7 12 -21 12 -31 0 -15
-5 -18 -24 -15 l-24 5 2 -326 c0 -187 5 -332 11 -341 5 -8 11 -61 13 -117 2
-86 0 -104 -12 -109 -14 -5 -16 -56 -16 -425 0 -327 3 -420 13 -424 6 -2 172
-7 367 -12 l355 -9 62 -28 c35 -16 67 -34 72 -40 6 -7 0 -55 -15 -130 -13 -65
-22 -122 -19 -126 2 -4 31 -10 62 -14 88 -10 107 -23 113 -76 l5 -45 156 -9
156 -9 69 69 c38 38 87 78 109 89 22 11 54 31 72 43 32 24 53 23 53 -3 0 -8
11 -40 25 -71 14 -31 25 -70 25 -86 0 -57 22 -22 61 100 22 67 51 135 64 151
14 16 25 32 25 35 0 3 -37 6 -82 7 -136 1 -516 24 -523 31 -38 38 139 43 624
19 227 -12 440 -21 472 -21 55 0 59 1 59 24 0 23 -3 23 -112 30 -62 3 -259 11
-438 16 -179 6 -345 13 -369 16 l-44 6 8 76 c4 42 9 288 11 545 l3 468 -32 -6
c-41 -7 -250 -26 -251 -22 -1 1 -8 13 -16 27 -11 19 -14 51 -12 128 2 79 -1
108 -13 125 -19 27 -19 80 0 204 18 118 26 673 10 672 -5 0 -246 -82 -535
-182z m-260 -1135 c3 -188 4 -347 2 -352 -2 -6 -28 -10 -57 -10 l-53 0 -7 293
c-4 160 -5 314 -3 341 3 48 4 50 43 62 75 23 69 47 75 -334z m635 -34 c3 -139
5 -316 3 -393 l-3 -140 -71 -3 -71 -3 -6 218 c-11 347 -9 541 5 549 15 9 73
21 109 23 l27 1 7 -252z"></path>
<path d="M3708 3497 l-48 -21 0 -570 c0 -314 3 -696 7 -848 l6 -277 71 6 c39
3 73 8 76 10 3 3 5 35 6 71 0 75 -9 70 94 52 99 -18 119 -14 135 22 7 18 11
36 9 40 -3 5 -45 8 -94 8 -92 0 -124 6 -114 21 3 5 54 9 114 9 66 0 120 5 137
13 26 12 25 12 -32 17 l-60 5 -5 44 c-5 44 -9 49 -62 70 -23 9 -28 17 -28 45
0 34 5 38 72 60 16 5 17 26 15 253 -2 215 -4 248 -17 245 -8 -2 -56 -6 -107
-9 -92 -6 -92 -6 -102 20 -5 14 -7 51 -4 82 4 39 2 59 -6 64 -9 6 -9 38 -1
136 17 210 12 457 -9 454 -3 -1 -27 -10 -53 -22z"></path>
<path d="M6825 1774 c-3 -25 -13 -64 -21 -87 -41 -116 -67 -291 -75 -507 -4
-118 -10 -259 -12 -312 -4 -67 -1 -100 6 -106 7 -5 64 -22 127 -36 63 -15 123
-29 133 -32 16 -5 17 26 17 554 l0 559 -37 7 c-21 3 -59 6 -84 6 l-47 0 -7
-46z"></path>
</g>
</svg>