 <svg version="1.0" xmlns="http://www.w3.org/2000/svg" id="mask" viewBox="0 0 700.000000 423.000000" preserveAspectRatio="xMidYMid meet">
<g transform="translate(0.000000,423.000000) scale(0.100000,-0.100000)">
<path d="M5535 4113 c-22 -387 -69 -1117 -146 -2248 -6 -88 -16 -240 -22 -337
l-12 -177 30 -5 c57 -10 720 -94 790 -100 42 -4 62 -3 50 2 -20 9 -20 9 2 16
12 4 22 15 22 24 1 37 5 52 12 52 4 0 5 19 3 42 -2 22 1 60 7 82 6 23 13 75
16 116 3 57 9 80 23 95 20 19 20 19 21 0 3 -57 37 210 43 331 l6 141 -152 6
c-122 4 -156 3 -168 -8 -57 -52 -150 -27 -150 40 0 9 11 27 25 40 34 34 88 34
120 0 l23 -26 159 6 c87 4 294 7 461 8 l302 1 0 120 0 119 -536 -5 c-630 -6
-579 -15 -569 105 20 244 27 313 34 322 11 13 11 15 15 185 3 161 13 417 22
584 8 155 -8 145 306 195 265 42 712 111 722 111 3 0 6 63 6 140 l0 140 -729
0 -729 0 -7 -117z"></path>
<path d="M6750 3784 c-209 -30 -210 -30 -210 -54 0 -11 -9 -25 -19 -32 -18
-11 -18 -12 3 -29 11 -9 18 -21 13 -25 -4 -4 -13 -2 -19 4 -7 7 -26 12 -43 12
-30 0 -31 -1 -27 -36 l4 -37 -33 7 c-58 12 -82 11 -86 -1 -3 -7 2 -13 10 -13
8 0 25 -9 38 -20 21 -17 22 -21 9 -30 -8 -5 -27 -10 -42 -10 -24 0 -28 -4 -28
-30 0 -39 10 -42 94 -33 63 7 70 10 71 31 1 13 9 30 18 39 24 24 51 -1 43 -39
-4 -18 -1 -30 7 -32 60 -17 115 -43 142 -67 37 -33 45 -35 45 -15 0 8 -13 19
-30 25 -20 7 -30 17 -30 30 0 18 6 21 48 21 43 0 50 3 60 25 16 35 15 87 -1
109 -11 15 -17 16 -35 7 -25 -13 -79 -15 -87 -2 -3 5 6 18 20 29 32 25 32 36
0 28 -18 -5 -25 -2 -25 9 0 10 10 15 30 15 17 0 30 4 30 8 0 5 14 18 31 31 24
18 33 20 45 11 17 -15 19 -51 3 -67 -9 -9 -6 -19 10 -39 11 -15 21 -33 21 -40
0 -23 17 -16 41 17 18 26 20 35 11 50 -15 24 -15 41 1 63 10 14 18 15 40 7 34
-13 37 6 7 34 -14 13 -17 22 -10 29 7 7 18 2 34 -19 23 -29 23 -29 35 -8 6 12
11 31 11 42 0 18 -6 21 -42 20 -24 0 -117 -12 -208 -25z"></path>
<path d="M6202 3708 c-41 -6 -65 -16 -71 -26 -5 -10 -11 -52 -13 -95 -4 -60
-2 -77 8 -73 6 2 20 -4 30 -15 21 -23 31 -24 51 -4 8 9 28 19 44 22 34 7 37
23 9 48 -27 25 -24 70 5 69 11 -1 27 -4 36 -8 9 -4 25 1 38 11 17 15 20 24 15
51 -6 30 -9 32 -48 31 -22 -1 -69 -6 -104 -11z"></path>
<path d="M6923 3593 c-24 -9 -13 -23 18 -23 17 0 28 -4 24 -10 -3 -5 -21 -10
-40 -10 -38 0 -55 -16 -26 -25 10 -3 22 -17 25 -30 6 -24 7 -24 41 -8 33 16
35 20 35 65 0 48 0 48 -32 47 -18 0 -39 -3 -45 -6z"></path>
<path d="M6120 3480 c0 -5 7 -10 16 -10 8 0 12 5 9 10 -3 6 -10 10 -16 10 -5
0 -9 -4 -9 -10z"></path>
<path d="M6261 3470 l-23 -20 30 0 c25 0 29 3 25 20 -3 11 -6 20 -7 20 0 -1
-12 -10 -25 -20z"></path>
<path d="M6825 3464 c-17 -26 -47 -105 -42 -110 1 -1 24 17 52 40 l49 43 -21
26 -21 27 -17 -26z"></path>
<path d="M6940 3445 c-19 -13 -48 -35 -65 -49 l-30 -25 55 2 c30 1 65 -2 78
-6 21 -8 22 -6 22 47 0 64 -7 67 -60 31z"></path>
<path d="M6380 3431 c-52 -6 -100 -30 -129 -64 -9 -11 -8 -17 4 -27 19 -16 19
-31 1 -55 -12 -17 -16 -17 -30 -6 -14 11 -19 12 -29 2 -9 -10 -7 -16 11 -28
12 -9 22 -26 22 -39 0 -19 -5 -24 -25 -24 -14 0 -25 -6 -25 -13 0 -24 13 -28
33 -10 18 17 19 17 33 -2 8 -10 14 -25 14 -32 0 -7 6 -13 13 -13 6 0 21 -8 32
-16 20 -15 20 -15 0 -30 -12 -9 -37 -14 -64 -12 -48 2 -71 -17 -71 -58 0 -31
16 -38 42 -20 30 22 72 21 64 0 -3 -9 -6 -18 -6 -20 0 -3 -15 -11 -32 -19
l-33 -13 28 -11 c16 -6 39 -11 52 -11 21 0 23 3 18 33 -7 46 18 68 48 41 13
-12 18 -26 15 -40 l-6 -21 73 17 c39 10 80 21 90 25 25 11 17 36 -18 55 -20
11 -31 26 -33 45 -3 26 -2 27 25 20 32 -8 43 -21 43 -52 0 -38 23 -51 82 -46
79 6 118 13 118 21 0 14 -23 32 -40 32 -20 0 -53 34 -43 43 3 4 17 7 29 7 35
0 37 15 9 60 -36 57 -66 69 -101 41 -26 -21 -84 -29 -84 -12 0 5 7 14 15 21 8
7 12 17 9 22 -4 6 -1 14 6 18 8 5 15 19 17 31 5 34 16 41 46 30 19 -8 27 -18
27 -35 0 -17 10 -30 36 -45 20 -12 38 -20 41 -18 2 2 6 28 10 56 6 51 5 53
-37 96 -26 26 -62 51 -89 60 -57 19 -58 19 -66 -5 -8 -24 -61 -55 -70 -40 -4
6 -5 22 -3 37 4 31 0 32 -72 24z"></path>
<path d="M6148 3412 c-28 -13 -38 -23 -38 -41 0 -20 3 -23 28 -17 15 4 41 10
57 13 17 3 40 15 53 26 21 20 22 22 5 28 -29 12 -65 8 -105 -9z"></path>
<path d="M6857 3348 c-26 -7 -45 -20 -58 -42 -29 -47 -25 -60 11 -41 39 20 40
20 40 -15 0 -22 -6 -33 -23 -41 -34 -15 -70 -84 -62 -120 8 -35 16 -36 54 -8
16 12 34 18 40 15 18 -11 13 -44 -9 -59 -19 -13 -40 -56 -40 -80 0 -7 17 6 38
29 20 23 56 55 79 73 39 30 41 32 30 62 -11 28 -10 33 16 54 25 22 27 30 27
98 l0 74 -37 7 c-47 7 -58 7 -106 -6z"></path>
<path d="M5962 3285 c0 -16 2 -22 5 -12 2 9 2 23 0 30 -3 6 -5 -1 -5 -18z"></path>
<path d="M6103 3294 c-7 -18 11 -39 26 -30 17 11 13 46 -4 46 -9 0 -18 -7 -22
-16z"></path>
<path d="M6760 3183 c0 -22 2 -25 10 -13 13 20 13 40 0 40 -5 0 -10 -12 -10
-27z"></path>
<path d="M6095 3181 c-3 -6 -9 -42 -12 -81 l-6 -70 34 1 c44 0 90 51 71 78 -7
9 -15 23 -18 31 -13 34 -22 45 -42 48 -11 2 -23 -2 -27 -7z"></path>
<path d="M5952 3130 c0 -14 2 -19 5 -12 2 6 2 18 0 25 -3 6 -5 1 -5 -13z"></path>
<path d="M6939 3036 c-39 -27 -129 -132 -129 -151 0 -29 13 -75 22 -75 5 0 16
16 23 35 21 50 85 78 85 37 0 -23 -19 -42 -41 -42 -25 0 -89 -64 -89 -89 0
-19 5 -21 64 -21 59 0 66 2 85 28 12 15 25 32 31 39 6 7 10 68 10 138 0 139
-1 141 -61 101z"></path>
<path d="M6791 3010 c0 -33 1 -34 10 -11 6 16 6 28 -1 35 -7 7 -10 -1 -9 -24z"></path>
<path d="M6084 2972 c-6 -4 -14 -35 -17 -69 l-7 -63 28 0 c19 0 39 11 61 34
l32 33 -21 37 c-22 35 -50 46 -76 28z"></path>
<path d="M6582 2958 c-47 -10 -72 -44 -72 -99 0 -29 2 -31 27 -26 29 5 83 -10
83 -24 0 -5 -14 -12 -31 -16 l-30 -6 27 -28 c19 -19 38 -29 58 -29 17 0 40 -7
50 -15 32 -24 65 -19 72 11 11 42 -7 78 -45 90 -51 16 -68 64 -23 64 25 0 43
-14 46 -35 2 -11 8 -21 14 -23 24 -8 5 123 -20 139 -17 11 -101 10 -156 -3z"></path>
<path d="M6465 2906 c-16 -7 -41 -25 -53 -39 -21 -23 -22 -26 -7 -34 11 -7 16
-19 13 -39 -2 -23 -7 -28 -23 -25 -43 9 -59 6 -63 -11 -2 -13 3 -18 18 -18 12
0 24 -9 29 -22 13 -33 -2 -43 -44 -31 -31 10 -37 9 -50 -10 -15 -21 -15 -21
-15 5 0 23 -5 27 -32 30 -17 2 -33 8 -35 14 -4 13 40 34 72 34 17 0 29 9 40
30 l15 30 -37 15 c-37 16 -37 17 -18 31 14 11 32 13 61 9 33 -5 44 -2 60 16
19 22 19 22 -1 14 -11 -4 -60 -9 -108 -10 -68 -2 -92 -7 -107 -20 -26 -24 -25
-35 3 -35 26 0 47 -17 47 -38 0 -12 -10 -14 -50 -9 -40 5 -50 3 -50 -8 0 -18
-17 -20 -22 -4 -6 19 -48 0 -52 -24 -3 -12 -8 -64 -11 -116 l-7 -94 174 6 c95
4 237 7 315 7 133 0 143 1 163 22 25 27 26 50 3 70 -37 32 -62 32 -92 -1 -27
-29 -60 -44 -46 -21 3 6 -3 10 -14 10 -30 0 -26 24 9 53 36 31 37 41 8 61 -21
15 -24 14 -49 -10 -24 -23 -28 -24 -43 -9 -20 21 -20 21 5 61 11 19 18 38 14
44 -3 5 -2 26 4 45 5 19 9 35 8 35 -1 -1 -15 -7 -32 -14z"></path>
<path d="M6962 2740 l-23 -19 31 -16 30 -16 0 36 c0 40 -6 42 -38 15z"></path>
<path d="M6789 2668 c-12 -24 -31 -56 -41 -71 -11 -16 -18 -31 -15 -34 8 -8
267 8 267 16 0 4 -12 6 -27 4 -16 -3 -36 2 -47 10 -16 12 -17 17 -6 37 19 35
-14 74 -68 78 -39 3 -42 1 -63 -40z"></path>
<path d="M6930 2691 c0 -5 16 -21 35 -35 31 -24 35 -25 35 -8 0 11 -13 25 -35
35 -19 9 -35 13 -35 8z"></path>
<path d="M6322 1620 c0 -14 2 -19 5 -12 2 6 2 18 0 25 -3 6 -5 1 -5 -13z"></path>
<path d="M6312 1560 c0 -14 2 -19 5 -12 2 6 2 18 0 25 -3 6 -5 1 -5 -13z"></path>
<path d="M6302 1480 c0 -19 2 -27 5 -17 2 9 2 25 0 35 -3 9 -5 1 -5 -18z"></path>
<path d="M6282 1290 c0 -14 2 -19 5 -12 2 6 2 18 0 25 -3 6 -5 1 -5 -13z"></path>
</g>
</svg>