 <svg version="1.0" xmlns="http://www.w3.org/2000/svg" id="mask" viewBox="0 0 700.000000 423.000000" preserveAspectRatio="xMidYMid meet">

<g transform="translate(0.000000,423.000000) scale(0.100000,-0.100000)">
<path d="M1701 4226 c12 -11 1244 -566 1257 -566 9 0 175 45 370 100 l353 100
211 -136 c115 -74 224 -142 242 -151 32 -15 52 -12 492 76 252 50 553 108 668
130 115 22 210 42 211 43 2 2 6 41 10 87 7 78 6 83 -11 77 -11 -3 -201 -44
-424 -91 -223 -48 -511 -109 -640 -136 -194 -42 -238 -48 -255 -38 -11 7 -120
86 -243 177 l-223 164 -372 -116 c-205 -64 -378 -116 -386 -116 -8 0 -191 90
-407 200 l-394 200 -231 0 c-128 0 -230 -2 -228 -4z"></path>
<path d="M3766 2858 c-9 -336 -36 -1839 -36 -2025 0 -152 0 -152 -26 -177 -55
-50 -66 -52 -159 -24 -94 28 -95 28 -95 -42 0 -22 -9 -62 -20 -90 l-20 -50 33
-13 c17 -7 68 -26 113 -42 l81 -28 49 35 c94 69 104 85 104 158 0 36 11 535
25 1110 14 575 25 1098 25 1163 0 86 3 117 12 117 7 0 61 -14 120 -32 l108
-31 0 -98 c0 -95 0 -97 25 -103 27 -7 34 -26 10 -26 -11 0 -15 -11 -15 -40 0
-25 -5 -43 -14 -46 -10 -4 -15 -49 -20 -202 -3 -108 -9 -268 -12 -354 -6 -146
-5 -158 11 -158 15 0 16 -6 10 -47 -4 -27 -11 -51 -16 -54 -16 -9 -27 -672
-12 -682 13 -8 7 -97 -7 -107 -9 -7 -27 -291 -18 -296 4 -2 9 0 13 6 3 5 15
10 25 10 10 0 20 4 22 9 2 5 46 -3 99 -18 53 -16 118 -32 143 -35 45 -7 46 -7
47 21 0 24 1 25 9 8 6 -17 8 -15 13 15 3 19 22 478 42 1020 19 542 38 1027 41
1078 6 91 6 92 32 92 15 0 178 13 362 29 184 16 337 27 339 25 2 -2 -1 -92 -8
-201 -70 -1203 -110 -1991 -106 -2090 2 -79 1 -105 -5 -78 -7 34 -8 29 -6 -32
1 -44 -3 -73 -9 -73 -5 -1 12 -10 39 -20 27 -11 52 -17 56 -15 4 2 10 53 14
112 3 59 8 122 10 138 2 17 9 113 15 215 42 678 56 894 91 1410 51 749 53 790
49 794 -2 2 -123 -9 -269 -25 -146 -15 -370 -40 -499 -53 -128 -14 -235 -27
-237 -29 -4 -4 -18 -397 -49 -1356 -14 -420 -27 -766 -30 -769 -3 -3 -44 4
-92 15 l-88 20 3 144 c7 343 38 1200 63 1702 6 121 9 220 7 222 -13 12 -342
135 -361 135 l-25 0 -6 -242z"></path>
<path d="M5209 623 c0 -5 -2 -36 -3 -69 l-1 -61 31 61 c28 54 30 62 15 68 -22
9 -41 9 -42 1z"></path>
</g>
</svg>