 <svg version="1.0" xmlns="http://www.w3.org/2000/svg" viewBox="0 0 700.000000 423.000000" preserveAspectRatio="xMidYMid meet" id="mask">

<g transform="translate(0.000000,423.000000) scale(0.100000,-0.100000)">
<path d="M4748 3078 c-3 -8 3 -25 14 -39 l19 -24 -7 25 c-11 42 -20 55 -26 38z"></path>
<path d="M2975 2936 c-311 -69 -292 -59 -294 -148 -1 -44 2 -45 94 -23 33 8
63 15 68 15 4 0 7 -63 7 -141 l0 -141 23 5 c12 3 51 11 87 17 36 6 77 13 93
16 l27 6 0 138 c0 160 -6 150 100 169 106 20 100 14 100 87 0 45 -4 64 -12 63
-7 -1 -139 -29 -293 -63z"></path>
<path d="M3340 2810 c0 -113 4 -180 10 -180 9 0 210 244 210 255 0 7 -197 105
-210 105 -6 0 -10 -65 -10 -180z"></path>
<path d="M4841 2820 c0 -14 6 -34 14 -44 18 -24 18 -13 0 34 -12 31 -14 32
-14 10z"></path>
<path d="M4907 2533 c2 -70 6 -138 9 -150 4 -19 48 -53 69 -53 8 0 -4 61 -15
75 -4 6 -15 52 -24 103 -9 50 -23 106 -30 123 -11 27 -12 15 -9 -98z"></path>
</g>
</svg>