 <svg version="1.0" xmlns="http://www.w3.org/2000/svg" id="mask" viewBox="0 0 700.000000 423.000000" preserveAspectRatio="xMidYMid meet">

<g transform="translate(0.000000,423.000000) scale(0.100000,-0.100000)">
<path d="M5460 4221 c-14 -8 -337 -108 -685 -211 l-140 -42 -166 17 -166 17
-234 -78 -233 -77 -129 11 c-110 9 -134 8 -161 -4 -29 -14 -124 -5 -1296 125
l-1265 140 -285 -24 c-402 -34 -400 -34 -554 -45 -76 -5 -141 -12 -144 -15
-13 -13 12 -14 119 -4 172 15 249 19 249 14 0 -2 -14 -12 -31 -20 -22 -12 -68
-17 -165 -20 -177 -5 -174 -4 -174 -70 l0 -54 37 4 c21 2 132 8 248 15 116 6
333 20 483 31 253 17 284 18 405 4 165 -19 419 -43 1512 -146 537 -50 874 -86
880 -93 7 -7 8 -223 4 -631 -4 -341 -7 -818 -8 -1060 l-2 -440 138 -42 c75
-23 138 -41 139 -40 1 1 7 297 13 657 7 360 16 779 21 930 5 151 10 358 10
460 l0 185 226 64 226 64 157 -20 156 -21 465 129 c256 71 598 167 760 213
l295 84 -345 1 c-190 0 -352 -3 -360 -8z"></path>
<path d="M625 3510 c-314 -20 -315 -20 -302 -41 19 -30 68 -38 292 -48 l160
-6 7 -165 c3 -91 11 -334 17 -540 11 -378 36 -1066 46 -1260 2 -58 7 -181 10
-275 8 -261 17 -505 20 -555 2 -25 4 -73 4 -108 1 -48 5 -64 17 -69 9 -3 19
-1 23 5 5 9 34 7 106 -4 92 -15 111 -15 240 0 213 26 205 23 205 57 0 25 -3
29 -22 25 -103 -22 -296 -38 -397 -33 -63 4 -116 9 -119 12 -5 5 -10 117 -36
860 -26 723 -45 1288 -56 1670 -6 198 -13 388 -16 423 l-6 62 -41 -2 c-23 0
-91 -4 -152 -8z"></path>
<path d="M3 3425 c0 -27 2 -38 4 -22 2 15 2 37 0 50 -2 12 -4 0 -4 -28z"></path>
</g>
</svg>