 <svg version="1.0" xmlns="http://www.w3.org/2000/svg" id="mask" viewBox="0 0 700.000000 423.000000" preserveAspectRatio="xMidYMid meet">

<g transform="translate(0.000000,423.000000) scale(0.100000,-0.100000)">
<path d="M6037 4118 c-9 -158 -9 -376 1 -382 5 -3 2 -44 -5 -93 -11 -71 -11
-111 -2 -206 7 -64 15 -115 18 -111 3 3 15 49 26 102 l20 97 40 13 c42 14 267
14 280 0 4 -4 18 -58 32 -120 24 -108 26 -167 8 -225 l-7 -23 197 0 197 0 -7
-712 c-4 -392 -10 -981 -14 -1308 l-6 -595 -87 -3 -88 -3 0 -37 c1 -37 2 -38
174 -155 96 -64 177 -117 180 -117 3 0 6 898 6 1995 l0 1995 -478 0 -479 0 -6
-112z"></path>
</g>
</svg>