 <svg version="1.0" xmlns="http://www.w3.org/2000/svg" id="mask" viewBox="0 0 700.000000 423.000000" preserveAspectRatio="xMidYMid meet">

<g transform="translate(0.000000,423.000000) scale(0.100000,-0.100000)">
<path d="M2504 3578 c4 -359 9 -718 12 -797 l6 -144 61 7 c33 3 130 6 215 6
l154 0 -6 143 c-7 174 -10 199 -21 217 -6 10 -2 9 12 -2 30 -27 53 -23 53 10
0 29 -45 82 -52 61 -2 -7 -11 -10 -18 -7 -11 3 -9 8 9 17 21 12 26 10 47 -14
l23 -27 25 51 c14 28 26 64 26 81 0 24 4 30 21 30 16 0 19 4 14 23 -4 12 -19
35 -34 52 -22 25 -22 27 -3 10 l24 -20 -5 58 c-3 36 -11 65 -22 77 -16 18 -17
20 -2 20 10 0 17 -6 17 -13 0 -29 22 -37 48 -17 30 24 61 28 43 6 -6 -8 -25
-19 -41 -26 -26 -11 -30 -17 -30 -53 0 -22 5 -57 12 -78 11 -38 12 -39 59 -39
37 0 51 4 59 19 5 11 24 22 41 26 19 4 33 15 36 26 8 30 34 18 39 -18 5 -33
32 -42 130 -45 l99 -3 3 -235 2 -235 33 -22 c41 -28 57 -29 91 -2 l26 20 0
-25 c0 -14 -4 -28 -10 -31 -35 -22 13 -25 308 -23 l317 3 -3 700 c-1 385 -5
737 -8 783 l-6 82 -905 0 -905 0 6 -652z m596 16 c4 -5 -19 -24 -30 -24 -3 0
-11 10 -18 21 -13 21 -12 21 15 14 15 -3 30 -9 33 -11z m-80 -40 c0 -16 -16
-19 -25 -4 -8 13 4 32 16 25 5 -4 9 -13 9 -21z m30 10 c0 -8 -4 -12 -10 -9 -5
3 -10 10 -10 16 0 5 5 9 10 9 6 0 10 -7 10 -16z m156 -86 c-3 -13 -5 -26 -5
-30 -1 -5 -5 -8 -10 -8 -4 0 -8 13 -7 30 1 17 7 30 13 30 8 0 11 -9 9 -22z
m-220 -25 c-7 -7 -26 7 -26 19 0 6 6 6 15 -2 9 -7 13 -15 11 -17z m29 -12 c3
-5 1 -12 -5 -16 -5 -3 -10 1 -10 9 0 18 6 21 15 7z m215 -131 c0 -5 -2 -10 -4
-10 -3 0 -8 5 -11 10 -3 6 -1 10 4 10 6 0 11 -4 11 -10z m-481 -89 c2 -1 -6
-10 -19 -21 -22 -19 -24 -19 -36 -3 -21 30 -6 36 55 24z m161 -25 c0 -3 -4 -8
-10 -11 -5 -3 -10 -1 -10 4 0 6 5 11 10 11 6 0 10 -2 10 -4z m-67 -63 c4 -3 2
-12 -4 -19 -7 -9 -4 -14 11 -19 l22 -7 -21 -15 c-12 -8 -21 -21 -21 -29 0 -8
-4 -14 -10 -14 -5 0 -9 3 -8 8 1 4 -1 24 -5 45 -5 20 -5 42 -2 47 7 11 28 13
38 3z m-43 -82 c0 -6 -4 -13 -10 -16 -5 -3 -10 1 -10 9 0 9 5 16 10 16 6 0 10
-4 10 -9z m160 -11 c0 -5 -5 -10 -11 -10 -5 0 -7 5 -4 10 3 6 8 10 11 10 2 0
4 -4 4 -10z"></path>
<path d="M3230 3225 c0 -8 7 -15 15 -15 8 0 15 4 15 9 0 5 -7 11 -15 15 -9 3
-15 0 -15 -9z"></path>
<path d="M3025 3061 c-11 -23 -12 -31 -2 -34 9 -4 9 -8 -2 -15 -10 -7 -10 -11
-1 -17 9 -5 10 -29 5 -86 -8 -91 3 -262 16 -253 13 8 12 394 -1 394 -7 0 -7 6
0 20 6 11 8 20 6 20 -3 0 -12 -13 -21 -29z"></path>
<path d="M3560 2687 c0 -18 5 -27 15 -27 13 0 14 4 4 23 -17 33 -19 33 -19 4z"></path>
<path d="M4371 1418 c5 -18 9 -34 9 -35 0 -2 4 -3 9 -3 5 0 18 16 30 35 l20
35 -39 0 -39 0 10 -32z"></path>
<path d="M5205 1418 c-16 -39 -14 -43 52 -102 36 -33 58 -45 75 -43 22 4 23 8
26 90 l3 87 -71 0 c-71 0 -71 0 -85 -32z"></path>
<path d="M2461 1355 c1 -36 5 -65 8 -65 19 0 31 30 31 77 0 46 -2 53 -20 53
-18 0 -20 -6 -19 -65z"></path>
<path d="M5184 1333 c17 -62 17 -62 47 -60 16 1 29 4 29 8 0 8 -65 69 -74 69
-4 0 -5 -8 -2 -17z"></path>
<path d="M6043 547 c-3 -5 -3 -9 -2 -11 2 -1 114 -95 249 -207 135 -113 250
-208 256 -212 8 -5 10 52 6 206 -2 116 -7 214 -9 217 -8 9 -495 15 -500 7z"></path>
<path d="M6636 332 c-4 -75 -11 -166 -17 -201 l-10 -65 36 -33 36 -33 160 0
160 0 -3 117 -3 118 -160 108 c-88 60 -167 112 -176 117 -14 8 -17 -6 -23
-128z"></path>
</g>
</svg>