 <svg version="1.0" xmlns="http://www.w3.org/2000/svg" viewBox="0 0 700.000000 423.000000" preserveAspectRatio="xMidYMid meet" id="mask">

<g transform="translate(0.000000,423.000000) scale(0.100000,-0.100000)">
<path d="M4674 4044 c-8 -20 -23 -57 -32 -82 l-18 -47 -67 -3 -67 -3 0 81 0
80 -457 -2 -458 -3 -3 -83 -3 -83 -61 3 -62 3 -19 78 -19 77 -449 0 -449 0 0
-80 0 -80 -58 0 -58 0 -73 80 -73 80 -386 -2 -387 -3 -5 -80 -5 -80 -50 -3
c-48 -3 -57 1 -185 82 l-135 86 -282 0 -282 0 -3 -82 -3 -83 -56 -3 c-51 -3
-68 3 -239 83 -100 47 -192 85 -204 83 -20 -3 -21 -9 -24 -152 l-3 -149 1748
7 c962 3 2044 9 2406 12 l657 7 0 148 0 149 -61 0 c-60 0 -60 0 -75 -36z"></path>
<path d="M4830 4028 c0 -29 -3 -97 -7 -150 l-6 -98 175 0 176 0 116 145 c64
79 116 147 116 150 0 3 -128 5 -285 5 l-285 0 0 -52z"></path>
<path d="M2880 2344 c0 -814 1 -856 18 -843 69 55 132 116 132 129 0 9 14 38
32 66 l31 49 -6 650 -7 649 -77 78 c-51 52 -85 78 -100 78 l-23 0 0 -856z"></path>
<path d="M3375 2429 c-4 -313 -5 -572 -2 -575 2 -3 34 -2 71 2 l66 7 0 148 0
149 85 0 84 0 4 -112 3 -113 2 113 c1 75 6 112 13 112 8 0 8 4 0 14 -8 9 -11
65 -9 177 l3 164 85 0 85 0 3 -172 c2 -160 1 -173 -15 -173 -17 -1 -17 -1 0
-11 15 -9 17 -27 17 -139 0 -71 4 -131 8 -134 5 -3 18 -3 30 1 20 5 22 12 24
137 l3 131 80 0 80 0 5 -150 6 -150 4 150 5 150 85 0 85 0 3 -128 3 -127 25 6
c18 5 34 0 54 -15 16 -11 33 -21 37 -21 5 0 9 254 10 565 l1 565 -518 0 -517
0 -8 -571z m943 294 c-5 -157 -8 -188 -22 -198 -14 -11 -16 -37 -16 -184 l0
-171 -86 0 -85 0 3 178 3 177 -89 -4 c-98 -3 -106 1 -106 57 0 27 -3 32 -25
32 -22 0 -25 -4 -25 -40 l0 -40 -90 0 -90 0 -2 33 -1 32 -4 -32 -4 -33 -85 0
-84 0 0 44 c0 35 -4 45 -20 49 -19 5 -20 14 -20 139 0 74 3 138 7 141 3 4 195
7 426 7 l420 0 -5 -187z m-638 -383 l0 -170 -85 0 -85 0 0 170 0 170 85 0 85
0 0 -170z m420 0 l0 -170 -85 0 -85 0 0 170 0 170 85 0 85 0 0 -170z"></path>
<path d="M1633 2393 l-533 -3 -1 -148 c-2 -364 1 -404 24 -428 28 -29 90 -171
108 -248 l14 -59 95 2 c52 1 130 4 173 7 l79 7 -3 236 -4 236 338 3 337 2 0
-435 0 -435 -280 0 c-154 0 -280 -4 -280 -9 0 -20 46 -65 84 -82 38 -17 73
-19 418 -19 l376 0 32 26 c24 21 81 115 118 197 2 4 -7 7 -21 7 l-24 0 -6 197
c-4 108 -7 364 -7 568 l0 373 -31 6 c-17 3 -131 5 -253 4 -121 -2 -461 -4
-753 -5z m923 -1158 c13 -32 -7 -127 -31 -151 -22 -22 -33 -24 -118 -24 -87 0
-95 2 -100 20 -7 29 9 138 24 156 17 21 217 20 225 -1z"></path>
<path d="M1264 1434 c3 -9 6 -18 6 -20 0 -8 84 -4 114 6 17 5 45 14 61 19 23
7 5 10 -79 10 -95 1 -107 -1 -102 -15z"></path>
<path d="M0 1165 l0 -85 73 0 c39 0 88 3 109 6 39 7 38 4 54 117 l6 47 -121 0
-121 0 0 -85z"></path>
<path d="M260 1236 c0 -8 -3 -21 -6 -30 -5 -13 1 -16 32 -16 63 0 84 9 84 36
0 22 -4 24 -55 24 -41 0 -55 -4 -55 -14z"></path>
<path d="M440 1231 c0 -18 6 -21 41 -21 33 0 40 3 37 18 -2 12 -14 18 -41 20
-32 3 -37 0 -37 -17z"></path>
<path d="M440 1149 l0 -41 48 7 c26 4 48 8 50 10 2 1 0 14 -3 28 -5 18 -15 27
-37 31 -55 11 -58 9 -58 -35z"></path>
<path d="M275 1171 c-25 -5 -31 -12 -36 -44 -3 -21 -2 -40 3 -43 5 -3 36 -3
69 1 l59 7 0 44 c0 43 -1 44 -32 43 -18 -1 -46 -4 -63 -8z"></path>
<path d="M1330 1099 c-102 -15 -188 -28 -192 -29 -5 0 -8 -11 -8 -25 l0 -25
161 0 162 0 33 36 c19 19 34 44 34 55 0 10 -1 19 -2 18 -2 -1 -86 -14 -188
-30z"></path>
<path d="M1027 1053 c-17 -16 -5 -33 23 -33 23 0 30 4 30 20 0 14 -7 20 -23
20 -13 0 -27 -3 -30 -7z"></path>
<path d="M6300 313 l0 -178 75 -60 c41 -33 75 -63 75 -67 0 -5 124 -8 275 -8
151 0 275 3 275 8 0 6 -566 399 -671 465 l-29 19 0 -179z"></path>
</g>
</svg>