 <svg version="1.0" xmlns="http://www.w3.org/2000/svg" viewBox="0 0 700.000000 423.000000" preserveAspectRatio="xMidYMid meet" id="mask">

<g transform="translate(0.000000,423.000000) scale(0.100000,-0.100000)">
<path d="M5463 4156 c-29 -41 -107 -143 -174 -227 l-121 -154 6 -464 c3 -255
6 -614 6 -798 l0 -333 46 0 c40 0 45 -2 39 -19 -6 -20 -7 -20 118 -37 l47 -6
27 61 c29 68 48 79 92 57 21 -11 59 -16 123 -16 51 0 98 -4 105 -8 6 -4 14
-19 18 -34 9 -35 41 -42 148 -33 81 7 83 6 134 -27 48 -30 53 -36 53 -70 0
-22 -13 -64 -32 -102 -18 -36 -29 -68 -25 -72 3 -4 25 -2 49 4 23 6 44 9 47 7
2 -3 -3 -20 -12 -37 -9 -18 -18 -65 -20 -104 -3 -55 -12 -86 -36 -134 -43 -87
-39 -182 10 -252 19 -26 19 -27 -2 -42 -22 -15 -22 -33 -4 -108 6 -21 3 -27
-13 -32 -15 -5 -21 -16 -21 -39 0 -18 0 -70 -1 -117 0 -47 5 -138 12 -204 l13
-119 53 -13 c66 -17 128 -48 136 -69 3 -9 6 -35 6 -58 0 -23 4 -47 8 -53 5 -8
635 -444 690 -478 9 -6 12 417 12 2098 l0 2106 -742 -1 -743 0 -52 -73z"></path>
<path d="M4873 3391 l-43 -60 0 -155 0 -154 28 -10 c26 -9 30 -16 35 -65 6
-57 29 -115 34 -87 2 8 -1 145 -5 303 l-7 289 -42 -61z"></path>
<path d="M2830 2434 l0 -997 25 23 26 24 -1 401 c0 220 -1 606 0 858 l0 457
23 0 c15 0 50 -28 105 -83 l82 -82 0 -647 0 -647 83 38 c45 21 108 44 140 50
l57 12 0 277 c0 152 3 415 7 585 l6 307 516 -2 516 -3 3 -568 2 -569 47 64
c53 73 184 204 212 213 11 3 37 -2 58 -13 21 -11 62 -22 92 -26 47 -6 56 -4
77 15 24 22 24 23 24 264 l0 242 -107 0 c-126 0 -172 15 -203 65 -31 51 -23
77 30 97 55 20 89 74 97 157 5 50 9 57 33 66 20 6 30 18 34 40 9 44 7 248 -1
247 -5 0 -32 -34 -61 -75 l-53 -74 -663 0 c-365 0 -731 3 -814 7 l-151 6 -112
129 c-61 71 -116 131 -120 134 -5 3 -9 -431 -9 -992z"></path>
<path d="M4852 2960 c0 -19 2 -27 5 -17 2 9 2 25 0 35 -3 9 -5 1 -5 -18z"></path>
<path d="M4833 2888 c2 -46 8 -72 18 -80 8 -7 21 -22 29 -33 12 -16 9 -15 -12
3 l-26 24 5 -62 c3 -34 2 -60 -3 -59 -25 4 -45 -2 -38 -12 4 -7 1 -10 -7 -7
-10 4 -14 25 -14 81 0 43 -1 73 -3 67 -5 -14 -29 -12 -35 3 -2 6 -4 0 -4 -16
0 -24 2 -26 16 -15 10 8 8 4 -4 -10 -19 -22 -19 -25 -3 -70 11 -30 12 -41 4
-30 -7 10 -16 14 -21 10 -4 -4 -6 14 -3 41 3 39 1 46 -12 42 -12 -5 -13 -4 -2
6 16 17 16 34 -1 20 -8 -6 -16 -9 -19 -6 -7 8 -3 -56 6 -82 7 -21 54 -59 63
-50 2 3 18 1 34 -3 17 -5 31 -5 35 1 3 5 10 7 15 3 5 -3 16 0 24 6 11 9 15 9
15 1 0 -9 5 -9 20 -1 34 18 27 82 -15 137 -19 25 -36 40 -36 32 -1 -8 -8 18
-15 56 l-13 70 2 -67z m64 -190 c-2 -13 -4 -5 -4 17 -1 22 1 32 4 23 2 -10 2
-28 0 -40z"></path>
<path d="M4792 2865 c0 -16 2 -22 5 -12 2 9 2 23 0 30 -3 6 -5 -1 -5 -18z"></path>
<path d="M4658 2736 c2 -17 13 -43 24 -56 12 -15 18 -18 15 -8 -3 9 -9 32 -12
52 -9 45 -32 56 -27 12z"></path>
<path d="M4620 2750 c0 -20 29 -80 38 -80 5 0 3 20 -6 45 -13 41 -32 61 -32
35z"></path>
</g>
</svg>