 <svg version="1.0" xmlns="http://www.w3.org/2000/svg" viewBox="0 0 700.000000 423.000000" preserveAspectRatio="xMidYMid meet" id="mask">

<g transform="translate(0.000000,423.000000) scale(0.100000,-0.100000)">
<path d="M3375 3769 c-627 -3 -1615 -7 -2196 -8 -581 0 -1084 -4 -1118 -7
l-61 -7 0 -1249 0 -1249 122 3 123 3 18 95 c18 95 120 697 131 777 l6 42 -107
3 -108 3 -3 161 -2 161 31 7 c41 8 421 6 479 -2 l45 -7 3 -156 2 -157 -104 -4
c-58 -2 -108 -7 -112 -11 -4 -4 3 -79 16 -167 l23 -160 264 0 263 0 0 275 0
275 125 0 c140 0 135 -3 109 74 -23 67 -14 124 30 195 20 33 36 68 36 80 0 14
6 21 20 21 14 0 21 -9 26 -36 4 -20 20 -52 37 -71 32 -36 35 -46 36 -130 1
-51 2 -53 30 -53 l28 0 7 313 c3 171 9 367 13 435 l6 122 365 0 365 0 -6 -470
-7 -470 157 0 c87 0 168 -3 179 -6 l22 -6 7 -564 7 -565 30 3 c25 2 33 10 46
43 8 22 28 58 44 79 l28 40 0 1013 0 1013 293 0 c160 0 606 3 990 7 l697 6 0
159 0 158 -147 -2 c-82 -1 -661 -5 -1288 -9z"></path>
<path d="M4827 3773 c-3 -5 -5 -77 -6 -160 l-2 -153 49 0 49 0 6 -157 c4 -87
7 -228 7 -314 0 -174 -1 -171 71 -192 30 -9 45 -19 47 -32 3 -17 1 -18 -8 -5
-9 12 -10 10 -6 -11 8 -37 -30 -91 -72 -103 l-33 -9 1 -244 c1 -243 1 -243 23
-243 12 0 69 6 126 12 l104 13 -6 440 c-4 242 -7 603 -7 803 l0 362 -169 0
c-94 0 -172 -3 -174 -7z"></path>
<path d="M4930 2790 c0 -5 7 -10 16 -10 8 0 12 5 9 10 -3 6 -10 10 -16 10 -5
0 -9 -4 -9 -10z"></path>
<path d="M4971 2740 c-15 -51 -32 -61 -24 -15 4 23 2 35 -6 35 -6 0 -11 -17
-11 -39 0 -39 13 -61 25 -42 3 6 12 8 20 5 8 -4 20 6 29 25 18 34 21 61 6 61
-5 0 -10 -13 -10 -29 0 -17 -4 -32 -9 -35 -5 -4 -7 11 -4 34 7 51 0 51 -16 0z"></path>
<path d="M1493 2430 c-12 -28 -6 -47 9 -32 5 5 8 20 6 33 l-5 24 -10 -25z"></path>
<path d="M416 2149 c-3 -13 -15 -87 -27 -164 -11 -77 -43 -265 -70 -419 -27
-153 -49 -287 -49 -297 0 -16 8 -19 50 -19 l50 0 0 220 c0 183 2 220 14 220
16 0 20 32 36 299 10 162 8 216 -4 160z"></path>
<path d="M446 2133 c-3 -21 -8 -99 -11 -173 -3 -74 -8 -147 -11 -162 -5 -25
-3 -28 20 -28 20 0 26 5 26 23 0 13 4 27 9 32 6 6 6 60 1 140 -5 72 -9 147
-10 168 0 20 -4 37 -9 37 -5 0 -12 -17 -15 -37z"></path>
<path d="M491 2125 c-1 -65 16 -286 23 -292 3 -3 11 -3 19 0 11 4 10 31 -10
159 -28 186 -30 197 -32 133z"></path>
<path d="M440 1378 l0 -118 35 0 c19 0 35 3 35 8 -1 19 -40 161 -54 192 -15
34 -15 32 -16 -82z"></path>
</g>
</svg>