 <svg version="1.0" xmlns="http://www.w3.org/2000/svg" viewBox="0 0 700.000000 423.000000" preserveAspectRatio="xMidYMid meet" id="mask">
<g transform="translate(0.000000,423.000000) scale(0.100000,-0.100000)">
<path d="M4 4135 c0 -55 1 -76 3 -47 2 29 2 74 0 100 -2 26 -3 2 -3 -53z"></path>
<path d="M110 4106 l0 -123 53 -39 52 -39 5 -203 5 -202 63 -30 62 -29 -2
-978 -3 -978 -169 -32 c-93 -18 -171 -34 -173 -37 -2 -2 -3 -26 -1 -53 l3 -49
162 35 c89 20 168 42 175 49 7 7 11 28 9 47 -2 30 1 35 18 35 17 0 21 -6 21
-34 0 -19 4 -37 8 -40 11 -6 531 110 555 124 10 6 22 8 28 4 6 -3 13 4 16 16
5 20 8 21 18 7 10 -14 30 -12 196 23 218 45 277 59 304 70 47 19 61 24 85 25
14 1 40 2 58 3 25 2 32 6 32 22 0 11 5 20 10 20 6 0 10 -7 10 -15 0 -8 2 -15
5 -15 8 0 187 40 208 46 17 5 42 42 34 50 -2 3 -77 -10 -166 -27 -91 -18 -165
-28 -169 -23 -12 15 -3 1154 9 1154 6 0 58 -20 116 -45 58 -25 107 -45 109
-45 12 0 1 45 -17 69 -23 31 -29 95 -11 113 8 8 17 7 36 -6 14 -9 28 -16 31
-16 3 0 5 26 5 58 0 64 6 78 27 61 8 -7 13 -33 13 -69 0 -49 3 -58 21 -66 20
-9 22 -17 20 -107 -2 -91 1 -104 26 -94 3 1 5 30 4 65 -2 55 0 64 16 68 15 4
20 16 22 52 2 51 8 65 22 57 5 -4 9 0 9 7 -1 7 -36 34 -78 59 -42 25 -477 301
-966 613 -489 311 -898 566 -908 566 -16 0 -18 -10 -18 -124z m1108 -661 c2
-77 5 -92 22 -100 10 -6 60 -34 111 -62 50 -29 96 -53 100 -53 5 0 9 27 9 59
0 63 11 81 35 61 11 -9 15 -34 15 -85 0 -67 2 -73 25 -83 25 -12 25 -12 25
-157 0 -122 -2 -145 -15 -145 -13 0 -15 -72 -15 -585 l0 -585 -22 -4 c-168
-37 -817 -156 -845 -156 l-23 0 0 880 c0 623 3 880 11 880 6 0 106 -40 222
-90 117 -49 216 -90 220 -90 13 0 7 87 -8 116 -20 38 -19 98 1 115 9 7 29 12
45 11 l29 -2 0 86 0 85 28 -3 c27 -3 27 -3 30 -93z"></path>
<path d="M1286 3270 c-3 -18 -6 -75 -6 -126 l0 -94 60 -30 c44 -22 62 -27 65
-18 3 7 6 53 7 103 3 86 4 89 28 95 22 5 19 8 -33 38 -31 18 -66 32 -76 32
-11 0 -24 7 -29 16 -7 13 -10 10 -16 -16z"></path>
<path d="M2055 2648 c-3 -7 -4 -198 -3 -423 3 -357 5 -410 18 -410 13 0 15 53
15 419 0 327 -3 420 -12 423 -7 3 -15 -1 -18 -9z"></path>
<path d="M2372 2296 c2 -102 7 -166 13 -166 16 0 13 322 -3 328 -10 3 -12 -31
-10 -162z"></path>
<path d="M2560 2290 c0 -93 4 -150 10 -150 6 0 10 57 10 150 0 93 -4 150 -10
150 -6 0 -10 -57 -10 -150z"></path>
<path d="M2000 1775 c-7 -9 -10 -18 -7 -21 9 -9 60 10 65 24 6 18 -43 15 -58
-3z"></path>
</g>
</svg>