<svg version="1.0" xmlns="http://www.w3.org/2000/svg" viewBox="0 0 700.000000 423.000000" preserveAspectRatio="xMidYMid meet" id="mask">
<g transform="translate(0.000000,423.000000) scale(0.100000,-0.100000)">
<path d="M6545 4205 c-16 -14 -304 -216 -640 -450 l-609 -425 -673 0 -672 0
-7 -22 c-3 -13 -29 -87 -56 -165 l-50 -143 -877 -2 -876 -3 -3 -58 c-2 -44 0
-59 12 -63 23 -9 23 -209 1 -218 -13 -5 -15 -61 -15 -422 l0 -416 35 -42 c20
-25 35 -54 35 -70 l0 -26 224 0 c204 0 257 -6 226 -25 -6 -4 -10 -128 -10
-351 l0 -344 618 2 617 3 5 925 5 925 50 112 c28 62 53 113 58 113 4 0 7 -323
7 -718 0 -395 2 -721 4 -723 2 -2 116 -2 253 1 l248 5 3 232 2 232 -27 -2
c-18 -1 -28 3 -31 14 -2 13 10 16 78 19 191 7 484 -1 497 -13 3 -4 -6 -11 -21
-16 l-26 -11 0 -230 0 -230 185 0 186 0 832 -226 c458 -124 840 -227 850 -230
16 -5 17 37 17 780 0 742 -1 786 -17 786 -10 -1 -362 -63 -783 -139 -421 -76
-768 -136 -773 -132 -4 4 -6 158 -5 342 l3 334 315 170 c174 94 528 285 788
425 l472 255 0 132 0 133 -212 -1 c-210 0 -213 0 -243 -24z m-2130 -1186 c-4
-6 -14 -8 -22 -5 -13 5 -15 -6 -11 -84 4 -76 9 -94 27 -111 11 -11 21 -27 20
-37 0 -14 -2 -14 -6 -2 -3 8 -13 23 -21 33 -16 18 -17 18 -23 0 -4 -10 -8 32
-8 93 -1 61 2 114 6 117 11 11 45 8 38 -4z m35 7 c0 -3 -4 -8 -10 -11 -5 -3
-10 -1 -10 4 0 6 5 11 10 11 6 0 10 -2 10 -4z m518 -373 c1 -239 -1 -373 -8
-373 -5 0 -7 6 -4 13 7 20 -25 45 -35 28 -6 -9 -18 -3 -43 23 -42 44 -58 45
-58 7 0 -20 8 -36 28 -50 l27 -20 -25 2 c-14 0 -38 9 -55 19 -80 48 -124 58
-94 21 12 -14 12 -16 0 -8 -11 6 -13 3 -9 -13 4 -12 4 -22 1 -22 -7 0 -29 24
-31 35 -1 6 -10 10 -20 10 -10 0 -18 8 -18 20 -1 11 -2 24 -3 29 -2 16 -42
-27 -40 -43 3 -36 -2 -47 -22 -48 -20 -2 -20 -1 -3 18 28 31 8 34 -31 5 -34
-26 -34 -26 -26 -4 4 13 12 23 18 23 13 0 93 65 93 76 0 4 -6 6 -14 3 -8 -3
-24 0 -36 6 -17 9 -29 9 -50 0 -25 -10 -32 -9 -51 9 -13 12 -28 21 -35 21 -7
0 -19 3 -28 6 -12 5 -16 0 -16 -20 0 -14 5 -26 10 -26 6 0 10 -5 10 -11 0 -5
-4 -8 -9 -4 -6 3 -12 -19 -14 -52 -2 -32 -3 43 -4 167 0 124 2 210 4 191 3
-26 7 -31 14 -20 8 12 11 11 19 -3 14 -23 77 -61 90 -53 5 3 10 2 10 -4 0 -10
38 -27 53 -23 4 1 7 -5 7 -13 0 -7 7 -18 16 -23 8 -5 26 -31 39 -58 25 -53 33
-38 14 31 -22 84 -59 146 -59 100 0 -8 -4 -15 -10 -15 -13 0 -13 13 1 27 14
14 -29 143 -48 143 -7 0 -13 7 -13 15 0 33 26 12 47 -38 12 -28 27 -51 33 -49
6 1 9 -2 5 -8 -7 -11 43 -130 55 -130 22 0 21 172 0 185 -5 3 -6 13 -3 24 3
13 -5 25 -26 40 -17 12 -31 29 -31 37 0 13 3 13 22 0 12 -9 25 -16 29 -16 15
0 6 116 -12 146 -18 29 -21 30 -79 29 -34 -1 -63 2 -66 7 -3 5 104 7 238 6
l243 -3 3 -372z m-414 323 l26 -23 -24 4 c-13 3 -26 14 -29 24 -7 24 -3 24 27
-5z m-137 -38 c-3 -7 -5 -2 -5 12 0 14 2 19 5 13 2 -7 2 -19 0 -25z m107 -27
c-7 -8 -34 29 -34 46 0 13 5 10 19 -12 10 -16 17 -32 15 -34z m85 17 c-10 -4
-19 -16 -19 -27 0 -10 -7 -21 -15 -25 -17 -6 -21 9 -5 19 6 3 10 14 10 24 0
26 20 42 35 28 10 -10 9 -13 -6 -19z m-169 -21 c0 -6 16 -25 35 -41 19 -16 35
-34 35 -40 0 -12 -68 51 -81 77 -6 11 -6 17 1 17 5 0 10 -6 10 -13z m-901
-664 c0 -307 -4 -578 -7 -603 l-7 -45 -340 0 -340 0 -7 45 c-3 25 -7 296 -7
603 l-1 557 355 0 355 0 -1 -557z m838 500 c-3 -10 -5 -4 -5 12 0 17 2 24 5
18 2 -7 2 -21 0 -30z m34 -10 c-8 -15 -10 -15 -11 -2 0 17 10 32 18 25 2 -3
-1 -13 -7 -23z m86 -15 c-3 -8 -6 -5 -6 6 -1 11 2 17 5 13 3 -3 4 -12 1 -19z
m3 -38 c0 -5 -4 -10 -10 -10 -5 0 -10 5 -10 10 0 6 5 10 10 10 6 0 10 -4 10
-10z m-2210 -130 c0 -5 9 -19 21 -31 17 -17 18 -20 3 -17 -11 2 -20 -5 -23
-19 -5 -18 -9 -20 -21 -12 -11 8 -12 12 -2 16 15 6 16 40 0 45 -6 2 -8 10 -4
16 9 15 26 16 26 2z m223 3 c-35 -2 -91 -2 -125 0 -35 2 -7 3 62 3 69 0 97 -1
63 -3z m156 -35 c0 -31 -3 -37 -8 -23 -7 16 -9 15 -14 -11 -3 -17 -4 -42 -1
-55 l5 -24 -12 25 c-7 14 -11 37 -10 53 2 19 -2 27 -13 27 -9 0 -16 4 -16 9 0
5 9 7 20 4 15 -4 20 0 20 16 0 12 6 21 15 21 11 0 15 -11 14 -42z m-189 -57
c0 -6 -15 -11 -32 -13 l-33 -3 0 -160 0 -160 40 -6 c31 -5 25 -6 -25 -5 l-65
1 -3 165 c-1 90 0 170 2 177 6 15 116 19 116 4z m98 -165 c1 -106 -1 -173 -8
-180 -7 -7 -10 38 -10 141 0 91 -4 154 -10 158 -5 3 -10 17 -10 31 0 19 5 25
18 22 15 -3 17 -21 20 -172z m90 22 c-2 -96 -3 -106 -5 -43 -2 44 -8 82 -13
85 -7 4 9 80 17 80 2 0 2 -55 1 -122z m-401 20 c-3 -8 -6 -5 -6 6 -1 11 2 17
5 13 3 -3 4 -12 1 -19z m24 -151 c-10 -9 -11 -8 -5 6 3 10 9 15 12 12 3 -3 0
-11 -7 -18z m19 -42 c0 -8 -4 -17 -10 -20 -6 -4 -10 5 -10 20 0 15 4 24 10 20
6 -3 10 -12 10 -20z m360 -56 l0 -82 -21 27 c-14 17 -31 26 -52 27 -19 1 -24
3 -14 6 11 3 16 11 13 19 -3 7 -1 16 4 19 6 4 10 -1 10 -10 0 -9 9 -19 20 -22
11 -3 20 -10 20 -16 0 -6 2 -8 5 -5 3 2 -1 25 -9 51 -11 39 -11 45 0 40 8 -3
14 1 14 11 0 9 2 16 5 16 3 0 5 -37 5 -81z m-127 24 c-7 -2 -19 -2 -25 0 -7 3
-2 5 12 5 14 0 19 -2 13 -5z m-232 -17 c6 3 7 -5 3 -20 -4 -18 -2 -26 7 -27 8
0 4 -4 -9 -10 -13 -5 -20 -13 -17 -19 3 -5 -1 -10 -9 -10 -22 0 -28 16 -11 30
8 7 15 27 16 44 0 17 3 25 6 18 2 -6 9 -9 14 -6z m69 -46 c0 -5 -8 -10 -17
-10 -15 0 -16 2 -3 10 19 12 20 12 20 0z m83 -37 c-7 -2 -21 -2 -30 0 -10 3
-4 5 12 5 17 0 24 -2 18 -5z"></path>
<path d="M4676 3012 c-14 -14 -5 -63 14 -74 11 -7 20 -18 20 -24 0 -7 8 -22
18 -35 l19 -22 8 34 c8 33 8 34 12 7 4 -23 9 -27 31 -25 27 2 40 10 89 55 13
12 35 30 49 39 14 9 24 23 22 32 -5 23 -126 26 -150 4 -25 -22 -22 -33 7 -33
16 0 25 -6 25 -16 0 -10 6 -14 15 -10 8 3 15 1 15 -3 0 -16 -28 -20 -34 -5 -6
16 -52 19 -61 4 -3 -5 -13 -6 -22 -3 -14 5 -14 8 -1 17 20 15 40 54 31 59 -12
6 -101 6 -107 -1z m52 -37 c-3 -3 -9 2 -12 12 -6 14 -5 15 5 6 7 -7 10 -15 7
-18z m182 4 c0 -14 -17 -10 -23 5 -4 10 -1 13 9 9 7 -3 14 -9 14 -14z"></path>
<path d="M4635 3000 c3 -5 8 -10 11 -10 2 0 4 5 4 10 0 6 -5 10 -11 10 -5 0
-7 -4 -4 -10z"></path>
</g>
</svg>