 <svg version="1.0" xmlns="http://www.w3.org/2000/svg" id="mask" viewBox="0 0 700.000000 423.000000" preserveAspectRatio="xMidYMid meet">

<g transform="translate(0.000000,423.000000) scale(0.100000,-0.100000)">
<path d="M127 4208 c-3 -13 -8 -33 -12 -44 -8 -24 29 -56 78 -68 24 -6 27 -4
27 19 0 34 20 33 167 -14 67 -21 125 -36 128 -33 3 3 5 18 5 34 0 36 25 98 40
98 6 0 24 -7 39 -15 33 -16 47 -71 32 -123 -9 -30 -9 -31 39 -47 47 -16 60
-29 60 -64 0 -15 61 -38 203 -78 13 -4 17 1 17 24 0 41 27 128 45 143 23 19
69 -8 75 -45 6 -29 0 -72 -14 -106 -7 -16 31 -69 48 -69 16 0 94 -40 106 -55
12 -14 11 -18 -1 -26 -8 -5 -21 -6 -29 -3 -28 10 -35 9 -31 -6 20 -87 46 -160
63 -184 20 -28 20 -30 3 -43 -23 -16 -28 -16 -150 2 -125 19 -215 44 -222 62
-3 8 2 22 12 33 9 10 26 54 37 97 11 43 24 83 30 90 7 9 -16 20 -88 42 -54 17
-100 28 -103 26 -9 -10 40 -180 60 -208 26 -36 18 -57 -20 -57 -93 0 -322 48
-373 78 -31 18 -37 46 -13 56 16 6 45 64 45 89 0 9 -24 21 -62 31 -35 10 -71
20 -80 22 -16 5 -16 2 -2 -39 8 -25 24 -53 35 -63 31 -28 24 -52 -17 -60 -43
-8 -154 1 -241 19 l-63 14 0 -81 0 -81 168 -34 c92 -18 336 -69 542 -113 206
-43 415 -87 463 -97 48 -10 91 -22 95 -26 4 -3 14 -157 22 -341 12 -275 18
-336 30 -344 20 -13 67 -13 75 0 5 8 11 8 19 1 14 -12 76 26 76 46 0 7 14 19
30 28 17 9 30 22 30 29 0 25 34 29 49 7 7 -12 24 -21 37 -21 35 0 58 -41 51
-91 -5 -38 -1 -47 51 -115 31 -40 65 -83 75 -96 l17 -23 -6 37 c-3 20 -2 44 3
53 8 14 14 8 31 -32 11 -27 30 -57 41 -67 20 -18 21 -18 21 -1 0 10 -10 29
-22 42 -12 13 -16 23 -10 23 6 0 -7 29 -29 65 -26 40 -48 65 -59 65 -27 0 -72
65 -68 98 3 24 6 27 39 24 34 -2 36 -1 31 24 -4 24 -2 26 29 23 19 -2 40 0 46
4 7 5 35 1 63 -7 47 -14 51 -14 60 3 10 20 50 35 50 20 0 -5 16 -9 35 -9 19 0
35 5 35 10 0 6 5 10 11 10 7 0 9 -11 6 -30 -4 -16 -2 -32 4 -35 5 -4 7 -16 3
-28 -6 -19 -5 -20 9 -9 9 8 25 11 36 7 10 -3 22 -1 25 4 4 6 12 8 19 5 7 -2
19 7 27 20 10 20 12 63 6 201 -5 146 -4 176 7 181 8 3 165 -28 348 -69 l334
-75 5 -483 c3 -266 4 -491 2 -499 -3 -13 -51 -20 -280 -38 -152 -13 -305 -26
-339 -29 l-63 -6 0 84 c0 122 -3 128 -51 119 -22 -4 -43 -10 -46 -14 -4 -3 8
-3 25 0 51 10 37 -10 -24 -35 -34 -14 -59 -32 -64 -45 -59 -153 -71 -193 -68
-223 2 -18 0 -34 -5 -36 -14 -4 48 -162 64 -160 110 16 562 97 587 106 17 6
32 17 32 24 0 7 5 13 10 13 6 0 10 -7 10 -15 0 -19 30 -19 122 1 40 9 93 16
118 15 45 -1 45 0 47 34 1 25 -3 35 -13 35 -11 0 -14 15 -14 64 0 63 1 65 28
68 26 3 27 6 33 75 4 39 12 93 18 120 6 26 13 65 16 85 4 25 14 44 31 55 14
10 35 26 46 36 10 10 29 17 41 15 18 -2 23 -12 29 -48 14 -92 20 -116 31 -139
18 -36 11 -362 -8 -413 -8 -19 6 -24 95 -33 125 -12 120 -9 121 -73 0 -31 4
-66 9 -77 6 -15 3 -24 -11 -35 -18 -14 -19 -39 -26 -420 l-6 -405 88 -27 89
-26 43 29 43 30 0 127 c1 70 3 150 5 177 2 28 12 514 21 1080 10 624 21 1035
27 1043 5 6 16 12 23 12 14 0 325 -115 357 -132 17 -9 18 -19 13 -121 -18
-318 -66 -1658 -66 -1848 l0 -107 79 -19 78 -20 7 91 c3 50 17 444 31 876 14
432 29 871 33 975 l7 190 100 12 c55 6 271 30 480 52 209 23 394 43 411 46 23
4 33 1 38 -10 3 -8 -8 -201 -24 -428 -54 -762 -92 -1429 -86 -1512 4 -40 2
-53 -4 -40 -7 16 -9 12 -9 -20 0 -31 2 -36 9 -20 7 17 9 14 9 -13 1 -24 -2
-31 -11 -26 -10 6 -10 5 -1 -7 7 -8 11 -28 9 -44 -2 -17 -1 -34 3 -40 7 -12 8
-18 10 -46 0 -11 6 -17 11 -14 6 4 11 -14 12 -47 2 -59 13 99 23 327 4 93 11
161 20 180 8 17 18 97 24 190 11 170 10 175 -37 175 -23 0 -23 2 -17 73 9 97
10 100 45 95 28 -4 29 -3 35 46 8 73 88 1321 118 1834 2 32 -1 42 -13 42 -19
0 -656 -120 -1048 -198 l-293 -58 -147 99 c-81 53 -187 123 -235 154 l-88 56
-362 -103 -362 -102 -640 291 -640 291 -771 0 -772 0 -5 -22z m2447 -711 c14
-10 17 -23 14 -55 -3 -41 -3 -42 40 -56 39 -14 43 -14 49 2 17 48 67 68 93 37
12 -15 10 -64 -5 -98 -6 -13 0 -20 29 -32 45 -19 56 -19 56 0 0 25 28 72 46
79 23 9 64 -20 64 -45 0 -11 -5 -29 -11 -40 -11 -21 -7 -32 37 -109 7 -14 14
-33 14 -43 0 -11 7 -34 16 -53 9 -19 13 -38 10 -42 -4 -4 -48 -7 -98 -7 -77 0
-92 3 -104 19 -8 12 -29 21 -51 23 -76 6 -118 14 -138 27 -11 7 -50 16 -87 19
-62 6 -128 28 -128 44 0 4 6 14 14 22 8 9 19 34 25 56 9 32 8 41 -4 48 -19 10
-19 27 0 27 8 0 15 6 15 13 0 8 -24 20 -57 30 -67 18 -99 39 -89 56 8 13 44
10 102 -9 39 -13 54 -5 54 31 0 24 39 69 59 69 9 0 25 -6 35 -13z"></path>
<path d="M2534 3472 c-19 -13 -24 -40 -7 -46 22 -9 33 2 33 30 0 25 -7 29 -26
16z"></path>
<path d="M2722 3398 c-16 -16 -15 -35 2 -41 19 -7 26 1 26 30 0 25 -10 29 -28
11z"></path>
<path d="M2902 3338 c-7 -7 -12 -18 -12 -25 0 -18 29 -16 37 3 8 21 -10 37
-25 22z"></path>
<path d="M2887 3269 c7 -7 15 -10 18 -7 3 3 -2 9 -12 12 -14 6 -15 5 -6 -5z"></path>
<path d="M2812 3233 c2 -9 9 -18 16 -21 18 -6 15 25 -4 32 -11 4 -14 1 -12
-11z"></path>
<path d="M2640 3211 c0 -5 5 -13 10 -16 6 -3 10 -2 10 4 0 5 -4 13 -10 16 -5
3 -10 2 -10 -4z"></path>
<path d="M2828 3183 c-3 -4 -2 -19 2 -33 l6 -25 7 25 c6 24 -6 51 -15 33z"></path>
<path d="M2370 2783 l0 -176 24 22 c24 22 25 22 35 4 5 -11 8 -29 5 -40 -4
-15 0 -22 16 -26 17 -4 21 -12 19 -34 -2 -15 3 -39 10 -52 18 -32 1 -49 -37
-35 -63 23 -62 25 -62 -217 l0 -219 78 0 c42 0 94 3 115 6 34 6 37 9 37 40 0
18 5 45 11 61 6 15 12 49 13 75 3 59 28 98 62 98 13 0 27 7 30 15 8 20 38 19
55 -1 10 -12 10 -23 1 -47 -14 -41 -11 -89 8 -112 8 -9 17 -38 20 -64 4 -40 8
-46 31 -49 l26 -3 6 287 c8 350 9 544 2 544 -5 0 -425 83 -482 96 l-23 4 0
-177z"></path>
<path d="M1903 2648 c-4 -7 -7 -35 -6 -63 1 -59 56 -217 66 -191 11 28 27 8
27 -34 0 -21 5 -42 12 -46 8 -5 9 12 4 66 -10 110 -13 117 -52 124 -19 4 -35
12 -35 19 -1 7 -3 24 -5 40 -3 31 -1 32 26 15 24 -15 38 -3 22 20 -7 9 -16 27
-22 40 -11 25 -25 28 -37 10z"></path>
<path d="M2065 2600 c-3 -5 -7 -37 -9 -70 -1 -33 -5 -63 -9 -66 -4 -4 -7 -21
-7 -37 0 -29 1 -29 19 -13 19 17 61 120 61 148 0 20 -47 52 -55 38z"></path>
<path d="M1650 2561 c0 -5 17 -21 37 -37 l37 -28 -29 37 c-29 36 -45 46 -45
28z"></path>
<path d="M1850 2553 c0 -5 9 -21 20 -38 24 -36 26 -26 5 15 -15 29 -25 38 -25
23z"></path>
<path d="M2131 2524 c-17 -38 -6 -42 14 -5 8 17 12 31 7 31 -5 0 -14 -12 -21
-26z"></path>
<path d="M1613 2529 c-17 -17 -3 -47 28 -58 16 -5 54 -33 84 -62 38 -36 55
-47 55 -35 0 10 5 14 11 10 8 -4 8 -1 1 12 -18 32 -143 144 -161 144 -4 0 -12
-5 -18 -11z"></path>
<path d="M2175 2529 c-4 -6 -5 -13 -2 -16 7 -7 27 6 27 18 0 12 -17 12 -25 -2z"></path>
<path d="M1460 2492 c0 -16 -55 -49 -104 -63 l-39 -10 8 -182 c4 -100 10 -227
14 -282 6 -96 7 -100 30 -103 13 -2 27 2 32 10 11 17 249 26 249 8 0 -7 13
-10 31 -8 l31 3 2 -70 c1 -62 3 -71 24 -80 27 -12 23 -31 -7 -28 -20 3 -21 -1
-21 -87 0 -104 -10 -98 119 -72 l85 18 23 83 c25 93 23 145 -8 221 -10 25 -23
63 -28 86 -8 31 -29 58 -86 113 -41 40 -75 75 -75 76 0 7 76 -8 88 -18 19 -15
15 1 -15 53 -18 32 -37 51 -59 59 -18 6 -38 19 -46 28 -12 14 -10 16 14 11 36
-7 27 9 -52 90 l-61 63 -26 -21 c-33 -25 -53 -26 -53 0 0 10 -9 24 -20 30 -11
6 -20 19 -20 28 0 21 -29 64 -30 44z"></path>
<path d="M2010 2464 c0 -8 5 -12 10 -9 6 3 10 10 10 16 0 5 -4 9 -10 9 -5 0
-10 -7 -10 -16z"></path>
<path d="M1610 2445 c0 -9 16 -29 34 -46 19 -17 58 -59 87 -95 29 -35 59 -64
66 -64 8 0 11 5 8 11 -4 5 -8 22 -10 35 -4 40 -143 174 -180 174 -3 0 -5 -7
-5 -15z"></path>
<path d="M2110 2419 c-6 -11 -10 -25 -8 -30 2 -5 8 4 15 21 13 34 9 40 -7 9z"></path>
<path d="M2218 2395 c-32 -22 -86 -91 -77 -99 2 -2 31 2 64 8 l60 12 3 52 c2
29 -1 52 -5 52 -5 0 -25 -11 -45 -25z"></path>
<path d="M2126 2384 c-4 -9 -4 -19 -1 -22 2 -3 7 3 11 12 4 9 4 19 1 22 -2 3
-7 -3 -11 -12z"></path>
<path d="M2136 2344 c-5 -14 -4 -15 9 -4 17 14 19 20 6 20 -5 0 -12 -7 -15
-16z"></path>
<path d="M2235 2289 c-39 -12 -87 -48 -64 -49 9 0 28 9 43 21 39 31 31 10 -11
-30 l-38 -34 33 -8 c42 -9 48 -15 32 -35 -12 -13 -11 -17 1 -25 34 -21 39 -11
39 81 0 50 -1 90 -2 89 -2 0 -16 -5 -33 -10z"></path>
<path d="M2670 2256 c-6 -9 -13 -30 -13 -48 -2 -33 -1 -33 43 -33 41 0 45 2
48 25 5 46 -52 87 -78 56z"></path>
<path d="M3136 2228 c-21 -30 -20 -61 2 -74 28 -17 101 -17 108 0 9 24 -10 69
-31 72 -11 2 -21 8 -23 13 -6 19 -40 12 -56 -11z"></path>
<path d="M1650 1801 c0 -49 8 -71 26 -71 10 0 14 15 14 55 0 48 -2 55 -20 55
-17 0 -20 -7 -20 -39z"></path>
<path d="M1372 1821 c-9 -5 -12 -26 -10 -67 3 -53 5 -59 27 -62 17 -3 21 0 15
10 -5 7 -11 39 -14 70 -4 44 -8 56 -18 49z"></path>
<path d="M1180 1773 c-19 -2 -278 -26 -575 -53 -297 -28 -555 -53 -572 -56
l-33 -5 0 -225 0 -226 27 6 c16 3 166 31 336 61 243 43 312 59 329 74 16 16
18 23 10 34 -14 16 -6 27 20 27 14 0 18 -6 16 -21 -6 -44 16 -43 317 8 l290
49 -4 110 c-2 60 -5 123 -7 139 -1 17 -3 42 -3 58 -1 26 -2 27 -58 25 -32 0
-74 -3 -93 -5z"></path>
<path d="M1366 1652 c-2 -4 -2 -51 1 -104 l6 -96 36 5 c20 3 37 6 37 7 1 1 -8
45 -19 99 -17 76 -25 97 -39 97 -9 0 -19 -4 -22 -8z"></path>
<path d="M2041 1605 c1 -19 18 -51 18 -35 0 8 -4 22 -9 30 -5 8 -9 11 -9 5z"></path>
<path d="M2012 1580 c0 -14 2 -19 5 -12 2 6 2 18 0 25 -3 6 -5 1 -5 -13z"></path>
<path d="M5280 709 c0 -22 -5 -50 -11 -62 -10 -21 -10 -21 5 -3 14 18 23 106
11 106 -3 0 -5 -18 -5 -41z"></path>
</g>
</svg>