 <svg version="1.0" xmlns="http://www.w3.org/2000/svg" viewBox="0 0 700.000000 423.000000" preserveAspectRatio="xMidYMid meet" id="mask">
<g transform="translate(0.000000,423.000000) scale(0.100000,-0.100000)">
<path d="M558 4188 c16 -24 152 -216 301 -428 l272 -385 42 -6 c23 -4 371 -9
772 -13 402 -4 819 -9 928 -12 l197 -6 0 35 0 34 -57 6 c-32 4 -177 7 -323 7
-369 1 -1501 18 -1506 23 -8 7 -476 761 -481 774 -4 9 -29 13 -90 13 l-84 0
29 -42z"></path>
<path d="M1490 4221 c0 -4 18 -86 40 -182 22 -96 42 -184 45 -195 5 -21 9 -22
332 -28 181 -3 516 -9 746 -12 l417 -6 0 45 0 44 -47 6 c-27 4 -167 7 -313 8
-146 1 -445 4 -665 8 l-399 6 -12 60 c-6 33 -20 104 -29 158 l-17 97 -49 0
c-27 0 -49 -4 -49 -9z"></path>
<path d="M4140 4057 l-205 -172 -315 0 -315 0 -3 -41 -3 -41 47 -7 c26 -3 179
-6 340 -6 l293 0 281 216 c154 118 280 217 280 220 0 2 -44 4 -97 4 l-98 -1
-205 -172z"></path>
<path d="M5785 4211 c-16 -10 -376 -197 -799 -416 l-769 -397 -459 7 -458 8 0
-35 0 -35 278 -6 c152 -4 367 -7 478 -7 l201 0 934 446 c514 245 936 448 938
450 2 2 -67 4 -155 4 -137 0 -163 -3 -189 -19z"></path>
<path d="M195 3015 c4 -561 11 -1024 15 -1029 5 -5 25 -4 47 1 l38 9 -4 693
-4 694 139 -8 c77 -4 140 -8 141 -9 1 0 5 -412 9 -914 4 -540 11 -912 16 -912
5 0 8 -12 6 -27 -3 -25 -24 -39 -195 -133 l-193 -105 0 -67 c0 -51 3 -68 14
-68 7 0 16 9 19 20 3 13 10 18 21 14 27 -10 18 -33 -16 -42 -32 -8 -33 -11
-36 -63 -2 -30 -1 -91 3 -136 5 -64 10 -81 21 -76 8 3 11 9 8 14 -8 14 5 29
21 22 25 -9 17 -33 -15 -44 l-30 -11 0 -84 c0 -65 3 -84 14 -84 21 0 40 27 24
33 -22 7 -1 19 21 12 17 -5 19 -10 10 -26 -5 -11 -23 -22 -40 -26 l-29 -5 0
-301 c0 -261 2 -299 14 -287 8 8 80 98 160 199 104 131 146 191 146 210 0 14
11 40 25 56 l24 30 1 -52 c0 -55 10 -72 30 -48 10 11 10 250 1 1112 -12 1231
-14 1753 -5 1753 8 0 122 -96 152 -127 22 -24 22 -29 22 -269 0 -221 2 -244
17 -244 15 0 16 21 10 240 -4 148 -2 242 3 245 6 4 10 23 10 44 0 23 6 44 16
51 47 40 53 33 -263 358 -165 169 -320 330 -347 357 l-47 50 6 -1020z m336
-1700 c0 -5 -14 -13 -31 -16 -16 -4 -30 -3 -30 2 0 5 7 9 15 9 8 0 15 5 15 11
0 6 7 9 16 7 8 -2 15 -7 15 -13z m-1 -225 c18 -11 11 -18 -29 -30 -19 -5 -31
-5 -31 1 0 5 9 9 20 9 13 0 18 5 14 15 -7 17 4 19 26 5z m9 -149 c10 -7 8 -12
-10 -25 -26 -18 -49 -21 -49 -7 0 5 8 8 18 7 11 -1 16 5 14 17 -3 19 6 21 27
8z"></path>
<path d="M3080 3845 l0 -45 105 0 105 0 0 45 0 45 -105 0 -105 0 0 -45z"></path>
<path d="M5975 3585 l-390 -133 -5 32 c-4 20 -11 30 -20 28 -8 -2 -162 -55
-341 -119 l-326 -116 -6 -495 c-4 -272 -7 -580 -7 -683 0 -168 -2 -189 -17
-198 -17 -10 -17 -12 0 -25 9 -7 17 -21 17 -30 0 -11 9 -16 29 -16 24 0 31 6
45 45 20 52 48 75 91 75 53 -1 85 -41 85 -109 0 -37 2 -40 33 -46 72 -12 334
-45 365 -45 37 0 36 -5 32 151 -1 53 2 99 7 101 4 3 136 -3 293 -13 157 -10
433 -23 615 -28 281 -9 332 -8 344 4 12 11 16 136 23 747 5 433 13 740 18 750
6 10 10 42 10 71 0 43 6 63 35 107 19 30 35 61 35 68 0 9 -64 12 -287 11
l-288 -1 -390 -133z m-635 -477 c0 -35 -3 -93 -6 -130 l-7 -66 -36 -7 c-20 -3
-46 -9 -58 -12 -23 -5 -23 -5 -23 121 l0 125 43 11 c23 6 47 13 52 15 31 11
35 4 35 -57z m-152 -98 c1 -62 -1 -117 -6 -122 -4 -4 -29 -11 -55 -14 l-48 -7
3 118 3 118 40 13 c22 6 45 11 50 10 6 -2 11 -51 13 -116z m-118 -30 c0 -73
-4 -120 -10 -120 -6 0 -10 47 -10 120 0 73 4 120 10 120 6 0 10 -47 10 -120z
m260 -235 l0 -145 -29 0 c-16 0 -43 -3 -60 -6 l-31 -6 0 140 0 141 43 9 c83
19 77 29 77 -133z m-149 -20 c-1 -71 -5 -133 -7 -137 -3 -4 -25 -8 -50 -8
l-45 0 3 132 3 133 30 6 c70 16 69 18 66 -126z m-111 -14 c0 -76 -4 -132 -10
-136 -6 -4 -10 42 -10 129 0 84 4 136 10 136 6 0 10 -50 10 -129z m260 -271
l0 -140 -65 0 -65 0 0 98 c0 172 3 179 88 181 l42 1 0 -140z m-152 -7 l-3
-138 -47 -3 -48 -3 0 135 0 135 38 4 c20 2 43 4 50 5 10 2 12 -28 10 -135z
m-109 -9 c0 -68 -5 -127 -10 -130 -5 -3 -9 54 -9 131 0 92 3 134 10 130 7 -4
10 -54 9 -131z m-9 -280 c0 -87 -4 -133 -10 -129 -17 10 -11 265 6 265 2 0 4
-61 4 -136z m120 1 l0 -135 -34 0 c-66 0 -66 -1 -66 141 l0 129 50 0 50 0 0
-135z m150 33 c0 -57 3 -120 6 -140 7 -38 6 -38 -27 -38 -19 0 -51 3 -71 6
l-38 7 0 127 c0 70 3 130 7 133 3 4 33 7 65 7 l58 0 0 -102z m242 -66 c19 -19
-1 -30 -52 -29 -44 1 -50 3 -50 22 0 19 5 21 46 20 25 -1 50 -7 56 -13z m436
2 c15 -4 22 -14 22 -30 0 -20 -5 -24 -30 -24 -27 0 -30 3 -30 30 0 32 2 33 38
24z m76 -4 c14 -5 26 -16 26 -24 0 -19 -36 -39 -56 -32 -14 5 -20 47 -7 59 8
9 7 9 37 -3z m-615 -106 c2 -2 2 -7 -2 -10 -9 -9 -108 7 -102 17 5 8 94 2 104
-7z"></path>
<path d="M3080 3375 l0 -35 105 0 105 0 0 35 0 35 -105 0 -105 0 0 -35z"></path>
<path d="M935 2117 c4 -645 5 -1183 1 -1195 -6 -18 -15 -22 -52 -22 l-44 0 0
-59 c0 -33 -5 -63 -10 -66 -21 -13 3 -25 49 -25 70 0 81 16 81 123 l0 87 60 0
c39 0 62 5 67 14 20 34 48 36 469 36 l417 0 -8 73 c-4 39 -9 143 -10 230 -3
152 -2 157 18 157 11 0 26 -8 33 -17 12 -16 13 -15 14 15 0 22 -5 32 -15 32
-8 0 -15 7 -15 16 0 10 6 14 15 10 8 -3 21 4 29 15 8 12 22 19 33 17 15 -3 20
-18 28 -93 l10 -90 88 -3 c48 -1 87 1 87 6 0 4 -20 58 -45 120 -25 61 -45 123
-45 137 0 21 5 25 30 25 25 0 30 4 30 25 l0 25 -582 2 -583 3 -5 715 -5 716
-65 72 c-35 40 -68 72 -73 72 -6 0 -6 -472 -2 -1173z m432 -483 c-3 -3 -12 -4
-19 -1 -8 3 -5 6 6 6 11 1 17 -2 13 -5z m50 0 c-3 -3 -12 -4 -19 -1 -8 3 -5 6
6 6 11 1 17 -2 13 -5z m40 0 c-3 -3 -12 -4 -19 -1 -8 3 -5 6 6 6 11 1 17 -2
13 -5z m363 -4 c0 -5 -4 -10 -10 -10 -5 0 -10 5 -10 10 0 6 5 10 10 10 6 0 10
-4 10 -10z m45 0 c3 -5 -3 -10 -15 -10 -12 0 -18 5 -15 10 3 6 10 10 15 10 5
0 12 -4 15 -10z m45 0 c0 -5 -4 -10 -9 -10 -6 0 -13 5 -16 10 -3 6 1 10 9 10
9 0 16 -4 16 -10z m230 -2 c0 -5 -25 -8 -55 -8 -30 0 -55 3 -55 8 0 4 25 7 55
7 30 0 55 -3 55 -7z m-182 -115 c-4 -22 -22 -20 -26 1 -2 10 3 16 13 16 10 0
15 -7 13 -17z m-503 -33 c-3 -5 -10 -10 -16 -10 -5 0 -9 5 -9 10 0 6 7 10 16
10 8 0 12 -4 9 -10z m-42 -7 c-7 -2 -19 -2 -25 0 -7 3 -2 5 12 5 14 0 19 -2
13 -5z m-43 -87 c0 -3 -4 -8 -10 -11 -5 -3 -10 -1 -10 4 0 6 5 11 10 11 6 0
10 -2 10 -4z m85 -6 c-3 -5 -10 -10 -16 -10 -5 0 -9 5 -9 10 0 6 7 10 16 10 8
0 12 -4 9 -10z m-42 -7 c-7 -2 -19 -2 -25 0 -7 3 -2 5 12 5 14 0 19 -2 13 -5z"></path>
<path d="M2176 3195 c-6 -30 -3 -41 13 -59 15 -16 22 -42 27 -95 l7 -74 -561
6 -561 6 4 -47 c3 -26 8 -298 11 -604 l6 -557 42 -6 c22 -3 151 -5 286 -3
l245 3 3 158 3 157 244 0 244 0 3 -157 c3 -141 5 -158 20 -161 17 -3 18 23 20
395 l3 398 145 3 c80 2 277 0 438 -3 l292 -7 0 -388 0 -388 31 -11 c17 -6 35
-8 40 -5 5 3 9 75 9 160 l0 154 228 -2 227 -3 5 -150 c5 -149 5 -149 30 -156
14 -4 163 -7 331 -8 l306 -1 7 53 c3 28 6 102 6 163 l0 112 214 -6 214 -5 4
469 c3 374 6 475 17 497 8 15 12 29 10 32 -3 2 -72 7 -155 10 l-149 7 -195
-66 -194 -66 -321 0 c-300 0 -322 -1 -352 -20 -19 -11 -35 -31 -39 -47 -10
-38 -19 -43 -94 -43 -36 0 -71 -4 -78 -9 -17 -10 140 -21 311 -21 l127 0 0
-115 0 -115 -230 0 -230 0 0 120 c0 118 0 120 -20 110 -12 -6 -23 -24 -27 -41
-5 -28 -7 -29 -69 -29 -66 0 -104 -20 -104 -55 0 -12 -13 -15 -55 -15 -49 0
-57 3 -65 24 -8 23 -100 83 -100 65 0 -5 -4 -9 -10 -9 -5 0 -10 7 -10 15 0 8
4 15 9 15 5 0 9 13 9 29 -1 17 6 41 15 54 15 24 72 57 99 57 7 0 21 18 31 39
14 30 28 43 67 60 27 12 55 21 64 21 29 0 46 41 46 112 l0 67 -267 0 c-148 1
-347 4 -444 7 l-176 7 -7 -38z m9 -485 l0 -115 -190 -3 c-104 -2 -213 0 -241
3 l-52 6 -4 107 c-3 59 -3 110 -1 115 3 4 113 6 246 5 l242 -3 0 -115z m505
55 c0 -8 -4 -15 -9 -15 -13 0 -22 16 -14 24 11 11 23 6 23 -9z m-500 -310 c0
-60 -4 -106 -10 -110 -6 -4 -116 -3 -245 1 l-235 7 0 102 c0 56 2 104 4 106 2
2 113 3 245 1 l241 -3 0 -104z m1460 -15 l0 -110 -227 2 -228 3 -3 108 -3 107
231 0 230 0 0 -110z m-1598 -120 l138 0 0 -110 0 -110 -245 0 -245 0 0 117 0
116 107 -6 c58 -4 168 -7 245 -7z m1602 -88 c3 -43 3 -93 0 -110 l-6 -32 -229
0 -229 0 0 110 0 110 229 0 228 0 7 -78z m-2254 -63 c0 -5 -4 -9 -10 -9 -5 0
-10 7 -10 16 0 8 5 12 10 9 6 -3 10 -10 10 -16z m50 1 c0 -11 -4 -20 -10 -20
-5 0 -10 9 -10 20 0 11 5 20 10 20 6 0 10 -9 10 -20z m2758 -23 c3 -12 -4 -17
-22 -17 -24 0 -35 18 -20 32 11 11 39 1 42 -15z m192 -6 c0 -13 -7 -18 -25
-18 -18 0 -25 5 -25 18 0 14 7 19 25 19 18 0 25 -5 25 -19z m-640 -185 c-14
-14 -24 0 -16 21 6 15 8 15 16 3 6 -9 5 -19 0 -24z m-2302 7 c-10 -2 -28 -2
-40 0 -13 2 -5 4 17 4 22 1 32 -1 23 -4z m2422 -67 c0 -3 -4 -8 -10 -11 -5 -3
-10 -1 -10 4 0 6 5 11 10 11 6 0 10 -2 10 -4z m47 -2 c-3 -3 -12 -4 -19 -1 -8
3 -5 6 6 6 11 1 17 -2 13 -5z m33 -4 c0 -5 -4 -10 -10 -10 -5 0 -10 5 -10 10
0 6 5 10 10 10 6 0 10 -4 10 -10z m210 -95 c0 -8 -7 -15 -15 -15 -8 0 -15 7
-15 15 0 8 7 15 15 15 8 0 15 -7 15 -15z m-2737 -12 c-7 -2 -19 -2 -25 0 -7 3
-2 5 12 5 14 0 19 -2 13 -5z"></path>
<path d="M3080 3169 l0 -51 30 25 c16 14 50 33 75 42 25 10 45 22 45 26 0 5
-34 9 -75 9 l-75 0 0 -51z"></path>
<path d="M5014 1912 c-16 -10 -34 -48 -34 -71 0 -15 9 -21 38 -26 20 -3 47 -8
60 -11 20 -4 22 0 22 34 0 63 -45 102 -86 74z"></path>
<path d="M3430 1691 c0 -5 10 -11 22 -13 14 -2 24 -12 28 -27 4 -18 21 -30 75
-51 39 -14 207 -80 375 -144 168 -65 315 -124 326 -131 25 -16 22 -61 -4 -67
-10 -1 -440 0 -957 3 -517 4 -942 5 -944 3 -2 -2 4 -23 13 -47 9 -23 16 -63
16 -88 0 -25 7 -55 16 -67 14 -20 14 -25 2 -35 -12 -10 -12 -74 -5 -402 6
-274 5 -395 -2 -407 -6 -10 -11 -63 -11 -118 l0 -100 65 0 65 0 0 89 c0 49 -4
100 -9 113 -4 13 -5 199 -2 413 5 314 4 393 -6 406 -11 13 -11 18 2 29 8 7 15
25 15 41 0 45 22 35 53 -25 28 -53 28 -54 18 -156 -22 -214 -21 -225 70 -452
44 -112 87 -207 95 -211 10 -6 14 -29 14 -82 l0 -75 640 0 640 0 0 -45 0 -45
80 0 80 0 0 89 c0 51 -4 93 -10 96 -12 7 -3 684 9 697 5 5 454 -258 1320 -772
l185 -110 596 0 597 0 6 308 c4 169 7 429 7 579 l0 272 -457 3 -458 3 -579
153 c-318 83 -582 152 -587 152 -5 0 -10 -51 -11 -112 -3 -111 -3 -113 -26
-111 -39 5 -383 125 -398 140 -10 10 -14 41 -14 108 l0 94 -37 10 c-21 5 -117
30 -214 55 l-177 46 -261 0 c-154 0 -261 -4 -261 -9z m620 -51 c11 -6 12 -12
4 -20 -13 -13 -44 -2 -44 16 0 16 18 18 40 4z m-490 -14 c0 -11 -19 -15 -25
-6 -3 5 1 10 9 10 9 0 16 -2 16 -4z m50 0 c0 -11 -19 -15 -25 -6 -3 5 1 10 9
10 9 0 16 -2 16 -4z m40 0 c0 -11 -19 -15 -25 -6 -3 5 1 10 9 10 9 0 16 -2 16
-4z m555 -76 c3 -5 -1 -10 -9 -10 -9 0 -16 5 -16 10 0 6 4 10 9 10 6 0 13 -4
16 -10z m35 -10 c0 -5 -2 -10 -4 -10 -3 0 -8 5 -11 10 -3 6 -1 10 4 10 6 0 11
-4 11 -10z m65 -20 c3 -5 -1 -10 -9 -10 -9 0 -16 5 -16 10 0 6 4 10 9 10 6 0
13 -4 16 -10z m45 -10 c0 -5 -4 -10 -10 -10 -5 0 -10 5 -10 10 0 6 5 10 10 10
6 0 10 -4 10 -10z m-145 -130 c3 -5 -1 -10 -9 -10 -9 0 -16 5 -16 10 0 6 4 10
9 10 6 0 13 -4 16 -10z m35 -10 c0 -5 -2 -10 -4 -10 -3 0 -8 5 -11 10 -3 6 -1
10 4 10 6 0 11 -4 11 -10z m93 -30 c10 0 16 -4 12 -10 -3 -5 -12 -7 -20 -5 -8
3 -22 7 -31 10 -8 3 -12 10 -9 16 5 8 10 8 18 0 6 -6 19 -11 30 -11z m641 -15
c19 -14 19 -15 -6 -15 -27 0 -43 12 -31 24 9 9 16 7 37 -9z m56 -15 c0 -5 -7
-10 -16 -10 -8 0 -12 5 -9 10 3 6 10 10 16 10 5 0 9 -4 9 -10z m-420 -72 c0
-11 -7 -18 -20 -18 -11 0 -20 4 -20 10 0 5 -7 7 -15 4 -11 -5 -15 1 -15 19 0
24 1 25 35 14 23 -7 35 -16 35 -29z m-307 -12 c4 -10 0 -12 -14 -9 -10 3 -16
9 -13 14 8 13 21 11 27 -5z m1043 -11 c9 -8 31 -15 50 -15 19 0 34 -5 34 -10
0 -6 -16 -8 -42 -4 -59 9 -90 22 -83 34 9 14 24 12 41 -5z m294 -86 c19 -15
36 -20 53 -15 17 4 29 0 38 -10 12 -15 9 -16 -31 -10 -89 14 -122 30 -103 49
9 10 11 9 43 -14z m-676 -24 c3 -9 18 -15 36 -15 16 0 30 -5 30 -11 0 -6 -8
-8 -17 -5 -10 2 -33 7 -50 11 -32 6 -40 15 -26 28 10 11 20 8 27 -8z m521
-114 c3 -5 19 -12 35 -16 36 -8 41 -40 8 -49 -34 -9 -38 -8 -38 9 0 11 -8 15
-27 13 -24 -3 -28 1 -31 25 -3 23 0 27 22 27 14 0 27 -4 31 -9z m-525 -36 c7
-8 23 -15 36 -15 13 0 24 -5 24 -10 0 -6 -11 -8 -27 -4 -49 12 -73 23 -73 34
0 15 26 12 40 -5z"></path>
<path d="M1982 1150 c0 -19 3 -60 8 -90 6 -48 7 -50 8 -15 0 22 -3 63 -8 90
-6 40 -7 43 -8 15z"></path>
<path d="M2020 1063 c0 -29 5 -53 10 -53 13 0 13 70 0 90 -7 11 -10 0 -10 -37z"></path>
<path d="M2236 909 c-3 -17 -6 -60 -6 -95 l0 -64 40 0 40 0 0 64 c0 102 -8
126 -40 126 -23 0 -29 -5 -34 -31z"></path>
<path d="M2525 830 c-6 -107 -3 -136 16 -125 11 8 12 235 0 235 -5 0 -12 -49
-16 -110z"></path>
</g>
</svg>