 <svg version="1.0" xmlns="http://www.w3.org/2000/svg" id="mask" viewBox="0 0 700.000000 423.000000" preserveAspectRatio="xMidYMid meet">

<g transform="translate(0.000000,423.000000) scale(0.100000,-0.100000)">
<path d="M1284 3209 c-23 -26 -35 -54 -28 -62 3 -3 6 -40 8 -84 1 -43 7 -90
14 -105 11 -28 13 -28 101 -28 89 0 89 0 96 28 11 43 16 236 6 251 -5 8 -38
15 -92 18 -79 5 -85 4 -105 -18z"></path>
<path d="M3677 2986 c-4 -10 -18 -16 -41 -16 -19 0 -37 -4 -40 -9 -3 -4 -28
-11 -56 -15 -29 -4 -53 -13 -56 -21 -3 -8 -13 -11 -22 -8 -12 4 -14 3 -7 -5 9
-9 148 -72 740 -332 434 -191 450 -199 448 -212 -2 -8 23 -25 57 -40 59 -26
60 -27 60 -66 l0 -40 153 -6 c83 -3 225 -9 315 -12 l162 -6 0 -29 c0 -25 -4
-29 -29 -29 l-29 0 4 -292 c2 -161 5 -306 7 -323 l2 -30 -525 -2 c-289 -2
-535 0 -546 2 -28 6 -40 36 -21 50 12 9 15 44 13 190 l-1 180 -37 3 c-21 2
-46 -1 -55 -7 -16 -9 -16 -10 4 -11 12 0 25 -4 28 -10 4 -6 -5 -10 -20 -10
-43 0 -17 -20 28 -22 l42 -1 -44 -6 c-51 -7 -66 -28 -24 -34 l28 -4 -27 -2
c-16 0 -28 -5 -28 -10 0 -5 12 -12 28 -14 l27 -4 -27 -2 c-31 -1 -39 -27 -10
-34 13 -4 14 -5 1 -6 -12 -1 -15 -12 -15 -46 1 -40 4 -45 24 -45 18 0 22 -6
22 -30 l0 -30 -130 0 -130 0 0 -29 c0 -35 -16 -41 -111 -41 -66 0 -67 0 -73
-31 -3 -17 -6 -92 -6 -165 l0 -134 100 0 c81 0 100 3 100 15 0 22 -27 121 -40
145 -15 27 -8 34 35 34 19 0 35 3 35 7 0 4 7 10 16 13 10 4 15 0 13 -12 -4
-48 -1 -52 51 -52 55 0 54 1 40 -70 -7 -36 -5 -49 7 -63 20 -21 37 -22 53 -2
10 12 10 19 2 27 -17 17 -15 45 3 52 8 3 15 13 15 22 0 10 -3 14 -6 11 -8 -8
-44 10 -44 22 0 5 9 11 20 14 13 3 20 14 20 29 0 13 7 34 16 47 14 19 14 25 3
33 -11 8 -10 9 3 4 10 -3 20 -1 23 5 4 5 11 6 17 3 6 -4 23 -8 37 -9 14 -1 34
-5 44 -9 10 -5 17 -4 17 3 0 13 88 13 96 0 2 -5 11 -6 19 -2 8 3 15 1 15 -4 0
-6 12 -10 28 -10 63 -1 126 -11 130 -22 2 -6 10 -11 18 -11 17 0 18 -20 2 -55
-13 -30 -8 -37 27 -37 18 0 25 -6 25 -19 0 -11 -5 -19 -11 -19 -8 0 -7 -5 2
-16 10 -12 10 -17 1 -23 -7 -4 -10 -15 -6 -25 4 -10 2 -21 -5 -25 -7 -5 -14
-31 -16 -59 -3 -47 -2 -51 16 -49 33 5 44 23 31 52 -7 14 -12 35 -12 45 0 19
8 20 145 20 l145 0 0 -25 c0 -14 -4 -25 -10 -25 -5 0 -10 -22 -10 -50 l0 -50
365 0 c285 0 365 3 365 13 0 6 0 208 0 447 0 514 -7 681 -26 693 -8 4 -14 14
-14 21 0 8 -16 15 -42 18 -24 3 -86 25 -138 50 -81 39 -128 60 -210 92 -8 3
-42 22 -75 41 -33 19 -67 34 -76 35 -9 0 -22 7 -29 15 -7 8 -21 15 -30 15 -10
0 -20 3 -22 8 -1 4 -23 17 -48 29 -106 50 -181 83 -191 83 -12 0 -71 31 -79
42 -3 3 -41 20 -85 36 -104 39 -173 70 -180 82 -3 6 -13 10 -20 10 -8 0 -66
25 -129 55 -63 30 -120 55 -128 55 -7 0 -25 6 -39 14 -33 17 -150 52 -204 61
-22 4 -43 12 -47 18 -4 7 -48 13 -106 15 -84 4 -100 2 -105 -12z m196 -1493
c-18 -2 -48 -2 -65 0 -18 2 -4 4 32 4 36 0 50 -2 33 -4z"></path>
<path d="M2953 2793 c9 -2 25 -2 35 0 9 3 1 5 -18 5 -19 0 -27 -2 -17 -5z"></path>
<path d="M2805 2709 c-33 -3 -52 -6 -42 -7 39 -4 13 -20 -42 -26 -33 -4 -61
-12 -63 -18 -2 -6 -27 -13 -55 -15 -36 -4 -50 -9 -47 -18 3 -8 -8 -15 -32 -19
-20 -4 -43 -14 -51 -22 -8 -8 -24 -14 -36 -14 -12 0 -35 -9 -52 -20 -16 -11
-37 -20 -46 -20 -9 0 -19 -6 -22 -13 -2 -7 -49 -30 -103 -52 -55 -22 -101 -42
-104 -46 -3 -4 -30 -12 -60 -18 -30 -7 -79 -22 -108 -35 l-53 -23 587 -6 c323
-4 813 -7 1090 -7 448 0 503 2 508 16 11 28 6 44 -13 44 -10 0 -33 5 -50 11
-23 8 -29 14 -20 20 16 9 7 13 -56 25 -36 6 -38 8 -15 14 20 6 14 8 -32 15
-57 7 -79 24 -35 26 12 1 -7 7 -43 14 -60 11 -63 13 -40 23 24 10 23 11 -15
12 -22 1 -58 5 -80 9 l-40 9 35 1 c57 2 14 21 -50 22 -60 0 -119 17 -67 18 39
1 33 21 -7 21 -18 0 -55 3 -82 7 -45 7 -47 8 -19 13 21 5 4 9 -60 15 -111 10
-152 23 -80 26 l50 2 -61 8 c-81 10 -413 16 -489 8z"></path>
<path d="M1250 2385 c0 -8 4 -15 10 -15 5 0 7 7 4 15 -4 8 -8 15 -10 15 -2 0
-4 -7 -4 -15z"></path>
<path d="M4400 2285 c0 -25 0 -25 -36 -10 -51 21 -54 20 -54 -20 l0 -35 139 0
c77 0 146 -3 155 -6 9 -3 16 -2 16 3 0 9 -190 93 -210 93 -5 0 -10 -11 -10
-25z"></path>
<path d="M1369 2228 l-126 -50 -7 -132 c-3 -72 -9 -229 -13 -348 l-6 -218 120
0 c136 0 153 -8 156 -74 2 -30 6 -36 22 -34 16 3 21 -5 27 -41 5 -28 4 -49 -3
-57 -6 -7 -8 -36 -4 -71 7 -71 7 -73 3 -98 -2 -15 2 -20 17 -18 10 1 27 -7 36
-18 19 -22 45 -25 52 -6 4 9 8 9 15 -2 14 -20 55 -7 90 29 31 30 52 38 52 20
0 -5 5 -10 10 -10 6 0 10 9 10 21 0 16 4 19 17 15 9 -4 20 -1 25 6 6 10 8 8 8
-4 0 -20 20 -24 36 -8 12 12 44 3 44 -13 0 -6 7 -2 16 9 15 18 15 18 9 -3 -7
-26 12 -31 34 -11 11 11 12 9 6 -9 -4 -14 -2 -23 4 -23 17 0 13 -42 -6 -55
-14 -11 -1 -14 82 -20 110 -9 732 2 749 12 5 4 30 6 54 4 37 -2 44 1 49 18 5
19 13 21 94 21 l89 0 0 30 0 30 -130 0 -130 0 0 24 c0 20 6 24 41 29 22 3 43
8 46 10 2 3 -5 37 -17 76 -11 39 -18 76 -15 81 3 5 1 19 -5 30 -6 12 -9 26 -7
33 3 7 9 1 15 -13 9 -22 11 -22 11 -5 1 25 32 45 59 38 17 -4 20 -1 15 15 -7
29 11 35 33 11 18 -21 18 -21 -4 -39 -12 -10 -22 -23 -22 -29 0 -6 9 -2 20 9
24 24 29 24 59 1 l23 -18 -27 -21 -28 -22 27 0 c21 0 26 -4 22 -17 -2 -10 -8
-37 -11 -61 l-7 -43 54 3 53 3 3 151 3 151 -41 7 c-47 7 -60 2 -60 -23 0 -18
-25 -19 -472 -26 -260 -3 -520 -5 -578 -3 l-105 3 -3 49 -3 49 -162 -6 c-89
-4 -179 -9 -199 -13 l-38 -7 0 56 0 56 -31 -11 c-16 -6 -31 -9 -32 -7 -1 2 -1
125 1 272 l3 268 34 22 c26 16 35 29 35 50 0 24 -3 27 -32 26 -18 -1 -90 -24
-159 -51z m71 -168 c0 -12 -8 -12 -35 0 -18 8 -17 9 8 9 15 1 27 -3 27 -9z
m217 -601 c-14 -8 -22 -8 -30 0 -8 8 -3 11 19 11 25 -1 27 -2 11 -11z"></path>
<path d="M4238 2043 c7 -3 16 -2 19 1 4 3 -2 6 -13 5 -11 0 -14 -3 -6 -6z"></path>
<path d="M1105 2030 c-8 -13 -24 -267 -25 -392 0 -60 2 -68 19 -68 15 0 19 11
24 68 4 37 7 137 7 222 0 149 -8 198 -25 170z"></path>
<path d="M4220 2010 c0 -5 12 -10 26 -10 14 0 23 4 19 10 -3 6 -15 10 -26 10
-10 0 -19 -4 -19 -10z"></path>
<path d="M4205 1981 c-17 -7 -14 -9 15 -13 38 -6 53 -2 45 13 -7 11 -32 11
-60 0z"></path>
<path d="M4195 1940 c3 -5 22 -10 41 -10 19 0 34 5 34 10 0 6 -18 10 -41 10
-24 0 -38 -4 -34 -10z"></path>
<path d="M1492 1185 c0 -16 2 -22 5 -12 2 9 2 23 0 30 -3 6 -5 -1 -5 -18z"></path>
<path d="M3945 1108 c-8 -11 -13 -23 -10 -28 7 -11 198 -14 208 -4 14 14 -6
30 -33 26 -19 -3 -30 0 -30 7 0 7 -3 10 -7 8 -5 -3 -31 -1 -60 2 -43 6 -54 4
-68 -11z"></path>
</g>
</svg>