 <svg version="1.0" xmlns="http://www.w3.org/2000/svg" id="mask" viewBox="0 0 700.000000 423.000000" preserveAspectRatio="xMidYMid meet">

<g transform="translate(0.000000,423.000000) scale(0.100000,-0.100000)">
<path d="M3755 3308 c-79 -30 -114 -44 -425 -167 -199 -79 -203 -81 -198 -86
4 -4 379 141 493 190 17 7 72 29 124 48 88 34 96 35 120 21 15 -9 17 -12 6 -8
-32 10 -32 10 -210 -60 -394 -156 -505 -201 -505 -207 0 -3 18 -14 40 -24 22
-10 39 -20 36 -22 -2 -2 -46 15 -99 37 -90 39 -96 41 -124 27 -16 -8 -134 -59
-263 -113 -129 -53 -293 -121 -365 -151 -71 -30 -164 -67 -205 -83 -41 -16
-131 -52 -200 -80 -69 -29 -197 -81 -285 -117 -182 -73 -297 -124 -291 -130 2
-2 30 8 62 23 33 14 122 50 199 79 77 29 185 73 240 98 55 24 154 65 220 90
191 73 648 260 788 322 l128 57 140 -63 c77 -34 138 -63 136 -65 -2 -2 -57 19
-123 47 -110 47 -122 50 -159 41 -22 -6 -400 -155 -839 -332 -559 -224 -802
-317 -807 -309 -5 9 -17 8 -48 -4 -39 -16 -41 -16 -56 5 -12 19 -15 19 -15 5
0 -13 -9 -17 -35 -17 -34 0 -35 -1 -35 -41 0 -27 4 -38 11 -33 15 9 29 -14 29
-48 0 -33 -4 -35 -150 -83 -153 -51 -200 -78 -200 -116 0 -16 2 -29 5 -29 24
0 338 126 342 137 12 31 10 31 -272 -73 -15 -5 -17 -4 -10 4 12 14 272 112
278 105 3 -2 126 46 275 107 148 60 275 110 281 110 5 0 8 -7 5 -15 -5 -12 3
-15 39 -15 46 0 46 0 49 37 l3 38 395 162 c469 193 716 293 724 293 3 0 6 -11
6 -25 0 -23 4 -25 46 -25 38 0 47 4 51 21 3 11 11 18 17 16 9 -4 256 -113
1018 -449 44 -20 46 -22 41 -54 l-6 -34 51 0 c30 0 52 5 54 12 5 13 50 -5 303
-117 83 -37 156 -69 163 -72 9 -4 12 12 12 60 l0 64 -61 27 c-33 14 -64 24
-69 21 -9 -6 -293 115 -287 121 2 3 66 -23 141 -56 150 -66 146 -64 146 -50 0
5 -15 16 -32 24 -18 8 -94 41 -168 74 -74 33 -229 101 -345 151 -115 51 -228
100 -250 110 -22 10 -159 71 -305 136 -262 116 -300 135 -267 135 9 0 97 32
194 71 192 77 332 129 345 129 4 0 8 -8 8 -18 0 -14 9 -19 40 -20 30 -2 40 1
40 13 0 8 4 15 9 15 5 0 108 -44 228 -99 251 -113 858 -389 1013 -461 58 -26
173 -78 255 -115 83 -38 206 -94 274 -126 l123 -59 -6 -34 -6 -33 50 -2 c36 0
52 4 56 14 6 15 -8 21 252 -98 l142 -66 0 64 c0 69 -4 74 -70 80 -24 3 -127
47 -315 135 -49 23 -259 118 -465 212 -206 94 -427 194 -490 223 -538 246
-672 308 -963 442 -42 20 -76 38 -74 39 4 4 230 -94 362 -156 50 -23 187 -86
305 -140 118 -53 258 -118 310 -143 166 -80 522 -238 526 -234 2 2 -35 22 -83
45 -175 82 -655 302 -659 302 -2 0 -72 32 -156 71 -310 145 -652 299 -663 299
-5 -1 -46 -15 -90 -32z m-385 -403 c14 -8 21 -14 15 -14 -5 0 -21 6 -35 14
-14 8 -20 14 -15 14 6 0 21 -6 35 -14z m80 -35 c8 -5 11 -10 5 -10 -5 0 -17 5
-25 10 -8 5 -10 10 -5 10 6 0 17 -5 25 -10z m70 -30 c8 -5 11 -10 5 -10 -5 0
-17 5 -25 10 -8 5 -10 10 -5 10 6 0 17 -5 25 -10z m100 -45 c14 -8 21 -14 15
-14 -5 0 -21 6 -35 14 -14 8 -20 14 -15 14 6 0 21 -6 35 -14z m90 -40 c14 -8
21 -14 15 -14 -5 0 -21 6 -35 14 -14 8 -20 14 -15 14 6 0 21 -6 35 -14z m257
-115 c105 -47 190 -87 188 -89 -4 -4 -362 154 -385 170 -23 16 -8 10 197 -81z
m228 -108 c-3 -3 -11 0 -18 7 -9 10 -8 11 6 5 10 -3 15 -9 12 -12z m105 -42
c8 -5 11 -10 5 -10 -5 0 -17 5 -25 10 -8 5 -10 10 -5 10 6 0 17 -5 25 -10z"></path>
<path d="M1060 3083 c3 -67 0 -83 -15 -83 -10 0 -15 -10 -15 -29 0 -27 3 -29
45 -33 25 -2 45 1 45 6 0 18 -51 176 -56 176 -3 0 -5 -17 -4 -37z"></path>
<path d="M1181 2702 c-1 -18 52 -208 56 -196 1 5 -11 54 -27 109 -15 55 -29
94 -29 87z"></path>
<path d="M5515 2571 c176 -84 206 -98 394 -181 101 -44 185 -79 188 -77 3 4
-95 50 -454 212 -224 100 -297 127 -128 46z"></path>
<path d="M6150 2280 c19 -11 40 -19 45 -19 6 0 -6 8 -25 19 -19 11 -39 19 -45
19 -5 0 6 -8 25 -19z"></path>
<path d="M952 2230 c0 -14 2 -19 5 -12 2 6 2 18 0 25 -3 6 -5 1 -5 -13z"></path>
<path d="M787 1973 c-10 -9 -9 -53 1 -53 20 0 43 27 36 43 -6 17 -25 23 -37
10z"></path>
<path d="M909 1932 c-78 -46 -159 -122 -159 -148 0 -27 17 -31 45 -10 14 10
46 12 127 9 61 -2 108 0 108 5 0 13 -59 155 -68 164 -4 4 -28 -5 -53 -20z"></path>
<path d="M698 1913 c-13 -3 -18 -15 -18 -44 0 -38 0 -38 28 -27 41 18 44 22
33 51 -11 27 -12 28 -43 20z"></path>
</g>
</svg>