<svg version="1.0" xmlns="http://www.w3.org/2000/svg" viewBox="0 0 700.000000 423.000000" preserveAspectRatio="xMidYMid meet" id="mask">
<g transform="translate(0.000000,423.000000) scale(0.100000,-0.100000)">
<path d="M6855 3420 c-104 -19 -848 -149 -1949 -340 -352 -61 -644 -113 -648
-116 -9 -6 -11 -1104 -2 -1104 3 0 25 5 50 11 39 10 44 14 38 33 -4 11 -12 27
-18 35 -8 11 -8 15 2 18 14 5 17 84 3 98 -6 6 -6 43 -1 90 5 44 9 215 9 379 1
246 -2 302 -13 315 -12 14 -12 19 0 35 11 16 60 26 291 62 153 23 280 41 282
38 3 -3 4 -128 2 -279 l-3 -275 124 1 c67 0 391 8 718 18 327 10 598 16 603
14 4 -2 7 -192 7 -422 0 -230 2 -420 5 -423 3 -2 32 1 66 8 49 10 84 10 178 0
103 -12 119 -11 144 3 54 31 41 35 -153 52 -80 7 -151 16 -157 22 -7 5 -13 20
-13 32 0 13 -7 25 -15 29 -8 3 -15 12 -15 21 0 9 7 18 15 21 13 5 15 88 15
660 0 360 -3 654 -8 654 -4 0 -13 9 -20 21 -11 17 -11 26 0 50 7 16 15 29 18
29 10 0 535 80 563 86 26 5 27 7 27 75 0 81 11 77 -145 49z m-725 -689 c0 -99
-4 -182 -8 -185 -5 -3 -88 -8 -185 -12 l-177 -7 2 174 3 174 145 16 c80 9 162
17 183 18 l37 1 0 -179z m-440 -40 l0 -168 -150 -7 c-82 -4 -154 -5 -160 -1
-15 10 -13 302 3 312 13 8 185 29 260 32 l47 1 0 -169z m-370 -25 c0 -85 -4
-157 -8 -160 -4 -2 -66 -6 -137 -7 l-130 -2 0 149 0 149 90 11 c50 6 111 12
138 13 l47 1 0 -154z"></path>
<path d="M6871 1633 c1 -17 56 -50 92 -56 35 -5 37 -5 37 22 0 24 -5 30 -31
35 -43 8 -99 8 -98 -1z"></path>
</g>
</svg>