 <svg version="1.0" xmlns="http://www.w3.org/2000/svg" id="mask" viewBox="0 0 700.000000 423.000000" preserveAspectRatio="xMidYMid meet">

<g transform="translate(0.000000,423.000000) scale(0.100000,-0.100000)">
<path d="M5469 4226 c-2 -2 -83 -18 -179 -36 -225 -40 -227 -41 -174 -68 35
-18 63 -48 52 -57 -2 -1 -203 -37 -448 -80 -245 -43 -449 -80 -454 -83 -4 -2
6 -13 23 -24 17 -11 31 -24 31 -28 0 -5 11 -21 24 -37 l24 -28 8 -595 9 -595
433 -3 432 -2 0 240 c0 184 3 242 13 245 6 2 154 11 327 20 173 9 459 25 634
35 176 11 322 17 325 14 10 -9 18 -167 20 -384 1 -113 6 -504 11 -870 5 -366
10 -783 10 -927 0 -259 11 -340 25 -189 6 65 9 73 26 69 14 -4 18 -13 16 -41
l-2 -37 130 -27 c72 -14 149 -29 173 -33 l42 -6 0 1765 0 1765 -763 1 c-420 0
-765 -2 -768 -4z m1181 -1007 c0 -14 -7 -19 -25 -19 -18 0 -25 5 -25 19 0 11
6 21 13 24 20 7 37 -4 37 -24z m-741 -33 c17 -20 -13 -43 -34 -26 -12 10 -13
16 -4 26 6 8 15 14 19 14 4 0 13 -6 19 -14z m-64 -16 c0 -22 -39 -19 -43 3 -3
15 1 18 20 15 12 -2 23 -10 23 -18z m-1022 -525 c8 -18 -11 -31 -25 -17 -11
11 -3 32 12 32 4 0 10 -7 13 -15z m53 4 c8 -14 -18 -31 -30 -19 -9 9 0 30 14
30 5 0 12 -5 16 -11z m1778 -635 c26 -10 20 -44 -8 -44 -27 0 -40 22 -23 39
13 13 11 13 31 5z"></path>
<path d="M3255 3737 c-192 -33 -352 -62 -355 -64 -2 -2 8 -14 23 -26 15 -12
38 -37 52 -56 25 -35 25 -35 25 -265 0 -127 3 -342 7 -478 l6 -248 389 0 388
0 0 38 c0 20 -3 67 -7 105 l-6 67 -108 0 c-106 0 -109 1 -109 23 0 12 19 63
42 113 l43 92 73 7 73 7 -3 56 -3 57 -85 6 c-47 3 -95 9 -107 13 -24 8 -30 21
-13 31 6 3 10 16 10 28 1 40 47 131 95 185 31 35 49 65 51 85 12 111 22 150
44 167 18 14 21 23 15 48 -6 29 -13 33 -74 52 -38 11 -79 19 -92 19 -13 -1
-181 -29 -374 -62z m73 -1098 c-2 -6 -7 -10 -11 -10 -4 1 -16 1 -27 1 -11 0
-20 5 -20 10 0 6 14 10 31 10 17 0 29 -5 27 -11z"></path>
<path d="M1902 1695 l3 -127 94 -29 c51 -16 134 -34 183 -41 49 -6 95 -17 103
-22 23 -19 22 -50 -2 -61 -13 -5 -23 -17 -23 -25 -1 -32 44 -299 49 -295 3 3
10 44 16 91 12 86 12 86 -12 95 -13 5 -26 15 -29 24 -7 17 32 85 49 85 7 0 6
-4 -3 -10 -24 -15 -2 -12 95 15 111 31 131 31 225 1 64 -20 168 -41 318 -62
20 -3 38 -14 48 -29 9 -14 24 -25 33 -25 34 -1 54 -27 48 -64 -7 -46 -37 -87
-59 -80 -9 3 -20 -1 -24 -7 -5 -9 -10 -7 -15 7 -7 18 -8 18 -8 -1 -1 -20 20
-168 40 -282 6 -35 15 -63 20 -63 5 0 9 7 9 15 0 8 4 15 9 15 11 0 23 -50 21
-87 -3 -49 0 -107 5 -101 9 8 76 429 70 438 -2 4 -18 10 -35 13 -25 5 -30 11
-30 35 0 16 8 36 18 44 25 21 199 88 229 88 14 0 78 -15 142 -34 141 -41 191
-52 301 -66 133 -17 156 -26 169 -61 7 -19 21 -33 40 -40 22 -8 31 -18 36 -45
7 -38 -9 -69 -31 -60 -7 3 -16 1 -19 -5 -4 -5 -24 -8 -46 -5 -37 4 -39 3 -39
-24 0 -33 48 -378 56 -400 5 -13 8 -12 19 4 14 18 15 18 25 -8 5 -15 10 -33
10 -40 0 -14 -23 -38 -31 -33 -2 1 1 -2 7 -8 6 -5 13 -27 17 -49 3 -21 14 -44
23 -51 13 -9 14 -14 4 -20 -8 -5 -20 1 -32 16 l-19 24 6 -50 c13 -102 6 -96
155 -146 l85 -29 263 262 263 263 -6 555 c-4 305 -9 557 -11 559 -2 2 -11 0
-21 -4 -10 -5 -20 -9 -23 -9 -3 -1 -11 -5 -19 -10 -10 -6 -12 -5 -7 2 5 8 2
10 -8 6 -9 -3 -16 -10 -16 -15 0 -4 -7 -5 -17 -2 -11 4 -14 3 -9 -6 5 -8 3
-11 -5 -10 -19 4 -109 -31 -109 -42 0 -5 -3 -8 -7 -8 -24 4 -43 -2 -38 -12 4
-6 1 -10 -6 -8 -29 3 -50 -1 -44 -11 3 -5 0 -11 -7 -12 -7 0 -17 -2 -23 -3 -5
-2 -16 -3 -23 -4 -7 0 -10 -6 -6 -12 4 -7 1 -10 -7 -7 -22 7 -49 -37 -50 -84
l-2 -43 -6 43 c-4 23 -12 47 -17 52 -6 6 -47 -6 -114 -35 -58 -24 -115 -45
-127 -45 -11 0 -146 20 -300 45 -153 25 -386 63 -518 85 -569 93 -1215 198
-1268 206 l-38 6 3 -127z m2584 -95 c-66 -33 -122 -57 -125 -55 -6 7 -10 4
114 62 150 70 157 65 11 -7z m-203 -1363 l37 -13 -24 -23 c-17 -16 -26 -19
-31 -11 -6 9 -10 9 -16 -1 -6 -10 -9 -8 -9 8 0 12 -3 28 -6 37 -7 19 0 20 49
3z"></path>
<path d="M2102 1333 c-65 -19 -70 -29 -73 -155 l-2 -93 102 -34 c56 -18 104
-32 105 -30 4 4 -25 182 -45 277 -6 28 -16 52 -22 51 -7 0 -36 -8 -65 -16z"></path>
<path d="M1902 1171 c2 -124 6 -165 16 -169 10 -3 12 27 6 155 -9 213 -25 224
-22 14z"></path>
<path d="M2401 1123 c-23 -149 -44 -298 -45 -327 -1 -27 4 -31 67 -54 67 -25
68 -25 107 -7 l40 18 -1 101 c-1 56 -4 148 -8 205 l-6 104 -65 19 c-36 10 -68
18 -71 18 -3 0 -11 -35 -18 -77z"></path>
<path d="M2778 1138 c-12 -10 -17 -41 -23 -140 l-6 -127 68 -20 c93 -28 133
-35 133 -25 0 12 -28 175 -41 242 -6 29 -14 50 -19 47 -7 -5 -60 14 -90 32 -3
2 -13 -2 -22 -9z"></path>
<path d="M2641 1068 c0 -40 4 -95 8 -123 6 -42 9 -46 15 -25 12 41 3 213 -11
218 -10 3 -13 -15 -12 -70z"></path>
<path d="M3255 1026 c-10 -46 -25 -141 -25 -158 0 -16 8 -14 65 14 l66 33 -3
54 -3 55 -48 12 c-45 11 -47 11 -52 -10z"></path>
<path d="M2018 961 c-3 -37 0 -69 5 -73 6 -3 47 -19 92 -34 73 -25 85 -26 113
-15 34 14 38 29 26 88 -5 27 -13 32 -62 47 -32 9 -82 25 -113 35 l-57 18 -4
-66z"></path>
<path d="M3450 834 c0 -149 9 -202 23 -141 11 44 30 264 24 279 -3 8 -15 18
-26 21 -21 5 -21 2 -21 -159z"></path>
<path d="M3536 943 c-16 -21 -21 -52 -28 -151 -4 -69 -5 -128 -3 -132 7 -12
92 -39 99 -32 9 8 7 305 -2 318 -16 25 -47 24 -66 -3z"></path>
<path d="M3738 933 l-38 -4 0 -105 c0 -57 3 -104 8 -104 4 0 31 16 60 36 l53
35 -7 47 c-15 101 -15 101 -76 95z"></path>
<path d="M3279 804 l-67 -35 -17 -117 c-9 -64 -18 -126 -19 -136 -1 -14 12
-23 58 -39 57 -19 60 -19 93 -2 l33 18 0 174 c0 95 -3 173 -7 173 -5 -1 -38
-17 -74 -36z"></path>
<path d="M2653 770 c0 -36 2 -50 4 -32 2 17 2 47 0 65 -2 17 -4 3 -4 -33z"></path>
<path d="M2752 713 l3 -86 70 -24 70 -24 43 22 43 22 -7 56 c-3 31 -9 59 -13
62 -7 8 -181 59 -199 59 -10 0 -12 -21 -10 -87z"></path>
<path d="M3767 673 c-50 -30 -58 -39 -55 -61 3 -23 12 -29 76 -49 l74 -22 -6
23 c-3 12 -8 48 -12 79 -4 32 -10 59 -13 61 -4 3 -33 -11 -64 -31z"></path>
<path d="M3071 615 c0 -11 4 -29 9 -40 8 -18 9 -18 9 5 0 14 -4 32 -9 40 -8
12 -10 12 -9 -5z"></path>
<path d="M3487 548 c-4 -24 0 -37 12 -48 13 -12 15 -20 8 -32 -7 -10 -7 -27
-1 -49 7 -26 18 -37 47 -48 21 -7 39 -12 41 -10 2 2 7 45 10 96 l7 91 -54 16
c-30 9 -57 16 -60 16 -3 0 -7 -15 -10 -32z"></path>
<path d="M3451 460 c1 -55 1 -55 10 -17 6 24 5 45 -1 55 -7 12 -9 2 -9 -38z"></path>
<path d="M3700 406 l0 -103 59 -22 c71 -26 69 -26 105 4 l29 23 -12 74 c-7 40
-15 76 -19 79 -10 9 -133 49 -149 49 -10 0 -13 -25 -13 -104z"></path>
</g>
</svg>