 <svg version="1.0" xmlns="http://www.w3.org/2000/svg" id="mask" viewBox="0 0 700.000000 428.000000" preserveAspectRatio="xMidYMid meet">

<g transform="translate(0.000000,428.000000) scale(0.100000,-0.100000)">
<path d="M6560 2509 c-91 -5 -220 -11 -287 -15 l-123 -6 0 -204 c0 -156 3
-204 13 -204 6 0 55 -5 107 -11 52 -6 214 -10 360 -9 233 1 267 3 277 17 10
13 17 14 35 6 62 -30 58 -45 58 207 l0 230 -137 -1 c-76 -1 -212 -6 -303 -10z"></path>
<path d="M1930 2180 c-140 -4 -263 -8 -272 -9 -13 -1 -18 -10 -18 -30 l0 -28
108 -6 c59 -3 154 -7 212 -7 58 -1 222 -6 365 -12 465 -18 558 -20 691 -13
l132 7 -5 36 c-3 21 -8 40 -11 43 -10 9 -613 30 -792 27 -85 -1 -270 -5 -410
-8z"></path>
</g>
</svg>