 <svg version="1.0" xmlns="http://www.w3.org/2000/svg" id="mask" viewBox="0 0 700.000000 423.000000" preserveAspectRatio="xMidYMid meet">

<g transform="translate(0.000000,423.000000) scale(0.100000,-0.100000)">
<path d="M1855 3885 c-17 -7 -223 -104 -460 -215 -445 -210 -951 -446 -1137
-531 -59 -27 -114 -49 -123 -49 -8 0 -15 -4 -15 -9 0 -5 -9 -7 -20 -4 -16 4
-19 2 -14 -11 3 -9 17 -16 30 -16 19 0 24 -5 24 -24 0 -27 18 -45 29 -29 11
17 151 83 177 83 13 0 15 -10 10 -62 -3 -35 -8 -232 -11 -438 -3 -206 -8 -435
-12 -507 -4 -86 -2 -133 4 -133 10 0 13 74 29 853 l7 298 76 35 c42 20 191 89
331 154 140 65 356 166 480 225 124 58 320 151 436 207 l211 100 284 -85 c225
-68 804 -231 1322 -374 l57 -16 0 -356 0 -356 52 5 c41 3 45 5 21 8 l-32 3 -3
342 c-2 188 -2 344 -1 346 3 5 72 -22 263 -105 85 -37 236 -95 335 -129 99
-34 192 -67 206 -73 21 -8 33 -6 64 11 21 12 40 27 42 32 2 6 -133 76 -299
156 -308 148 -379 173 -377 132 0 -20 107 -74 414 -210 189 -83 214 -97 202
-109 -3 -4 -93 35 -199 86 -447 214 -419 202 -425 180 -7 -28 -17 -25 -50 16
-31 39 -14 34 -793 243 -558 150 -1090 305 -1090 318 0 19 -13 22 -45 8z"></path>
<path d="M2565 3690 c11 -5 27 -9 35 -9 9 0 8 4 -5 9 -11 5 -27 9 -35 9 -9 0
-8 -4 5 -9z"></path>
<path d="M2655 3664 c53 -20 196 -56 201 -51 4 4 -217 67 -232 66 -5 0 9 -7
31 -15z"></path>
<path d="M2908 3593 c7 -3 16 -2 19 1 4 3 -2 6 -13 5 -11 0 -14 -3 -6 -6z"></path>
<path d="M2995 3570 c11 -5 27 -9 35 -9 9 0 8 4 -5 9 -11 5 -27 9 -35 9 -9 0
-8 -4 5 -9z"></path>
<path d="M3475 3440 c11 -5 27 -9 35 -9 9 0 8 4 -5 9 -11 5 -27 9 -35 9 -9 0
-8 -4 5 -9z"></path>
<path d="M3538 3423 c7 -3 16 -2 19 1 4 3 -2 6 -13 5 -11 0 -14 -3 -6 -6z"></path>
<path d="M3575 3414 c56 -23 222 -61 235 -54 11 7 7 10 -15 10 -16 0 -70 11
-120 25 -79 22 -131 32 -100 19z"></path>
<path d="M5718 2763 c12 -2 30 -2 40 0 9 3 -1 5 -23 4 -22 0 -30 -2 -17 -4z"></path>
<path d="M5658 2753 c7 -3 16 -2 19 1 4 3 -2 6 -13 5 -11 0 -14 -3 -6 -6z"></path>
<path d="M5053 2723 c9 -2 23 -2 30 0 6 3 -1 5 -18 5 -16 0 -22 -2 -12 -5z"></path>
<path d="M4853 2713 c15 -2 37 -2 50 0 12 2 0 4 -28 4 -27 0 -38 -2 -22 -4z"></path>
<path d="M4713 2703 c15 -2 37 -2 50 0 12 2 0 4 -28 4 -27 0 -38 -2 -22 -4z"></path>
<path d="M4538 2693 c12 -2 32 -2 45 0 12 2 2 4 -23 4 -25 0 -35 -2 -22 -4z"></path>
<path d="M4383 2683 c9 -2 25 -2 35 0 9 3 1 5 -18 5 -19 0 -27 -2 -17 -5z"></path>
<path d="M4053 2663 c9 -2 23 -2 30 0 6 3 -1 5 -18 5 -16 0 -22 -2 -12 -5z"></path>
<path d="M3728 2643 c17 -2 47 -2 65 0 17 2 3 4 -33 4 -36 0 -50 -2 -32 -4z"></path>
<path d="M4838 2623 c7 -3 16 -2 19 1 4 3 -2 6 -13 5 -11 0 -14 -3 -6 -6z"></path>
<path d="M4623 2613 c15 -2 37 -2 50 0 12 2 0 4 -28 4 -27 0 -38 -2 -22 -4z"></path>
<path d="M4437 2603 c18 -2 50 -2 70 0 21 2 7 4 -32 4 -38 0 -55 -2 -38 -4z"></path>
<path d="M3570 2339 c0 -243 1 -260 18 -257 15 3 17 23 20 235 l2 231 83 6
c45 4 102 8 127 9 25 2 -6 5 -67 7 -144 4 -136 3 -151 18 -7 6 -18 12 -23 12
-5 0 -9 -107 -9 -261z"></path>
<path d="M4273 2593 c20 -2 54 -2 75 0 20 2 3 4 -38 4 -41 0 -58 -2 -37 -4z"></path>
<path d="M4087 2583 c18 -2 50 -2 70 0 21 2 7 4 -32 4 -38 0 -55 -2 -38 -4z"></path>
<path d="M3917 2573 c18 -2 50 -2 70 0 21 2 7 4 -32 4 -38 0 -55 -2 -38 -4z"></path>
<path d="M3365 1970 c-11 -5 -15 -10 -10 -11 6 -1 -17 -5 -50 -9 -33 -4 -108
-19 -166 -34 l-106 -28 -6 -57 c-4 -31 -4 -143 -1 -249 4 -119 2 -192 -4 -192
-5 0 -21 9 -35 21 -22 17 -25 23 -15 38 16 26 3 53 -24 49 -19 -2 -23 -9 -23
-38 l0 -35 -80 -6 c-116 -9 -634 -13 -642 -5 -4 4 -1 11 6 15 22 14 8 46 -21
49 -27 3 -28 2 -26 -45 1 -73 48 -167 48 -98 0 18 5 25 19 25 23 0 30 -45 33
-214 2 -116 2 -115 8 49 5 162 6 170 25 170 19 0 20 -8 25 -255 3 -140 8 -245
12 -232 9 32 50 27 59 -8 l6 -25 4 25 c3 17 11 26 27 28 18 3 22 -1 22 -24 0
-15 3 -24 8 -20 4 4 7 33 7 64 4 440 4 454 23 450 22 -4 29 -57 33 -248 l3
-145 6 195 c5 187 6 195 25 195 19 0 20 -8 23 -178 1 -113 6 -176 12 -172 6 4
10 78 10 181 l0 174 25 0 25 0 0 -161 c0 -104 3 -158 10 -154 6 4 10 69 10
161 l0 155 23 -3 c22 -3 22 -6 25 -150 1 -92 6 -148 13 -148 6 0 9 53 8 148
-1 142 0 147 20 150 20 3 21 0 22 -120 0 -68 4 -132 9 -143 5 -12 9 36 9 128
l1 147 25 0 25 0 0 -160 c0 -212 19 -214 22 -2 3 149 4 157 23 157 19 0 20 -7
20 -152 0 -140 2 -153 20 -167 11 -9 23 -16 28 -16 4 0 7 72 7 160 0 88 4 160
8 160 5 0 16 -6 25 -12 14 -11 17 -37 19 -182 2 -119 7 -171 15 -173 6 -2 13
8 16 24 4 26 4 25 6 -6 1 -28 4 -33 21 -28 11 3 23 1 26 -4 3 -5 14 -9 26 -9
13 0 18 -5 15 -14 -3 -8 3 -26 14 -39 10 -14 19 -30 19 -35 0 -5 7 -12 15 -16
12 -4 15 -21 13 -72 -1 -53 2 -69 16 -79 9 -7 16 -19 15 -27 -4 -29 2 -38 25
-38 17 0 26 6 28 20 4 29 23 20 20 -10 -1 -14 1 -19 4 -12 6 13 34 17 34 4 0
-18 42 -52 65 -52 14 0 25 -4 25 -10 0 -5 11 -10 24 -10 27 0 50 -23 43 -42
-8 -24 11 -47 34 -41 15 4 27 0 35 -12 8 -11 14 -13 14 -7 0 22 18 12 24 -14
6 -24 8 -25 25 -10 21 19 91 22 91 4 0 -10 2 -10 8 -1 11 18 34 -1 35 -28 0
-13 -4 -33 -8 -44 -7 -16 -2 -14 20 8 30 30 49 29 22 -1 -29 -31 -22 -52 17
-52 34 0 34 0 41 -57 4 -32 12 -64 17 -71 7 -8 43 -12 114 -12 86 0 104 3 104
15 0 8 7 15 15 15 8 0 15 -6 15 -12 0 -9 4 -8 10 2 9 13 11 13 20 0 8 -12 10
-12 10 -1 0 11 3 11 15 1 12 -10 15 -10 15 1 0 12 2 12 9 0 7 -11 9 -11 14 0
5 12 7 12 15 0 8 -11 10 -11 15 0 4 9 8 10 14 4 11 -13 47 -19 39 -6 -4 5 -2
12 4 16 5 3 10 1 10 -5 0 -6 5 -8 11 -4 6 3 15 0 20 -7 7 -11 9 -11 9 -1 0 7
5 10 10 7 7 -4 8 3 4 21 -5 19 -4 25 5 20 6 -4 11 -15 11 -25 0 -19 39 -51 61
-51 9 0 10 115 5 487 -6 405 -10 490 -23 509 -14 22 -13 23 19 28 18 3 285 12
593 21 837 23 854 24 852 47 -2 22 -46 23 -452 8 -603 -21 -1036 -33 -1040
-28 -3 3 -6 42 -7 87 -1 79 -1 81 -26 81 -23 0 -24 -3 -19 -36 6 -33 4 -36
-16 -30 -12 3 -56 10 -97 17 -113 17 -120 21 -113 64 5 34 5 35 -26 35 -31 0
-32 -1 -29 -37 l3 -38 -190 -6 c-359 -12 -385 -13 -390 -7 -4 3 -6 101 -5 217
0 116 -3 211 -8 211 -17 0 -41 -26 -45 -50 -3 -20 -5 -18 -6 9 0 19 -4 31 -8
27 -5 -4 -10 -101 -13 -214 l-5 -207 -60 0 -60 0 -3 38 c-3 31 -7 37 -26 37
-23 0 -23 -3 -25 -101 -1 -56 -4 -105 -6 -110 -3 -4 -26 6 -50 23 l-45 32 0
272 0 271 38 7 c20 3 63 6 94 6 31 0 60 5 63 10 4 6 25 20 48 32 41 21 41 22
17 29 -23 6 -23 7 -3 8 27 1 41 20 16 23 -10 1 9 4 42 8 l60 7 -60 1 c-33 0
-69 -3 -80 -8z m-258 -132 c-3 -8 -6 -5 -6 6 -1 11 2 17 5 13 3 -3 4 -12 1
-19z m343 -428 c0 -5 -2 -10 -4 -10 -3 0 -8 5 -11 10 -3 6 -1 10 4 10 6 0 11
-4 11 -10z m408 -282 l2 -228 -25 0 -25 0 0 231 0 230 23 -3 c22 -3 22 -3 25
-230z m70 0 l2 -228 -25 0 -25 0 0 231 0 230 23 -3 c22 -3 22 -3 25 -230z m64
175 c1 -32 1 -136 0 -230 -4 -162 -5 -173 -23 -173 -18 0 -19 10 -21 158 -1
136 -1 210 1 285 1 10 9 17 20 17 16 0 20 -9 23 -57z m78 -168 l0 -225 -30 0
-30 0 0 225 0 225 30 0 30 0 0 -225z m-482 21 l2 -189 -22 15 c-22 15 -23 21
-26 179 -1 90 0 169 3 177 3 7 13 12 22 10 16 -3 18 -21 21 -192z m70 -24 l2
-213 -25 17 -25 16 0 192 c0 106 3 196 7 200 4 4 14 5 23 4 13 -3 15 -33 18
-216z m66 196 c3 -13 6 -114 6 -225 l0 -203 -25 0 -25 0 0 225 c0 214 1 225
19 225 11 0 21 -9 25 -22z m66 -203 l0 -225 -25 0 -25 0 0 225 0 225 25 0 25
0 0 -225z m-462 128 c2 -46 0 -83 -3 -83 -4 0 -15 5 -26 10 -16 9 -19 22 -19
86 0 72 1 75 23 72 20 -3 22 -9 25 -85z m62 -4 c0 -88 -1 -90 -22 -87 -21 3
-23 9 -26 77 -3 87 0 101 28 101 19 0 20 -6 20 -91z m130 -71 c0 -141 -2 -160
-14 -148 -17 17 -21 63 -18 208 2 83 5 102 17 102 13 0 15 -25 15 -162z m812
-128 l-9 -175 -2 186 c0 103 2 202 7 220 7 34 7 34 10 -11 1 -25 -2 -124 -6
-220z m-1182 144 c0 -27 -4 -43 -10 -39 -5 3 -10 24 -10 46 0 21 5 39 10 39 6
0 10 -21 10 -46z m76 -15 c3 -6 0 -15 -7 -20 -26 -16 -39 -9 -39 21 0 27 2 30
19 20 11 -5 23 -15 27 -21z m224 -70 c0 -18 -2 -19 -15 -9 -8 7 -15 16 -15 21
0 5 7 9 15 9 9 0 15 -9 15 -21z m-242 -70 c-20 -13 -28 -11 -28 10 0 23 33 33
38 12 2 -7 -2 -17 -10 -22z m-58 -8 c0 -11 -4 -23 -10 -26 -6 -4 -10 5 -10 19
0 14 5 26 10 26 6 0 10 -9 10 -19z m-73 -13 c-3 -8 -6 -5 -6 6 -1 11 2 17 5
13 3 -3 4 -12 1 -19z m423 -78 c0 -29 -4 -40 -15 -40 -17 0 -20 16 -5 25 6 3
10 17 10 31 0 13 2 24 5 24 3 0 5 -18 5 -40z m68 -23 c2 -10 -3 -17 -12 -17
-10 0 -16 9 -16 21 0 24 23 21 28 -4z m-198 -5 c0 -13 -12 -22 -22 -16 -10 6
-1 24 13 24 5 0 9 -4 9 -8z m17 -14 c-3 -8 -6 -5 -6 6 -1 11 2 17 5 13 3 -3 4
-12 1 -19z m43 6 c0 -8 -4 -12 -10 -9 -5 3 -10 10 -10 16 0 5 5 9 10 9 6 0 10
-7 10 -16z m-130 2 c0 -3 -4 -8 -10 -11 -5 -3 -10 -1 -10 4 0 6 5 11 10 11 6
0 10 -2 10 -4z m30 -6 c0 -5 -4 -10 -10 -10 -5 0 -10 5 -10 10 0 6 5 10 10 10
6 0 10 -4 10 -10z m732 -122 c-16 -16 -37 4 -28 28 6 16 8 16 23 1 13 -13 15
-19 5 -29z m-652 23 c0 -5 -7 -14 -15 -21 -13 -10 -15 -9 -15 9 0 12 6 21 15
21 8 0 15 -4 15 -9z m348 -19 c-5 -27 -28 -26 -28 2 0 19 4 24 15 19 9 -3 15
-12 13 -21z m151 19 c12 -8 13 -12 1 -26 -12 -14 -15 -14 -28 -1 -8 8 -11 19
-8 25 9 13 16 14 35 2z m77 -2 c10 -17 -13 -36 -27 -22 -12 12 -4 33 11 33 5
0 12 -5 16 -11z m-516 -9 c0 -5 -5 -10 -11 -10 -5 0 -7 5 -4 10 3 6 8 10 11
10 2 0 4 -4 4 -10z m214 1 c3 -5 -1 -14 -9 -21 -13 -10 -15 -9 -15 9 0 21 14
28 24 12z m-254 -51 c-6 -12 -17 -19 -23 -17 -18 6 -15 33 3 29 8 -2 12 0 8 4
-4 4 -2 14 5 22 11 13 12 13 15 -1 2 -9 -2 -25 -8 -37z m80 40 c0 -5 -4 -10
-10 -10 -5 0 -10 5 -10 10 0 6 5 10 10 10 6 0 10 -4 10 -10z m100 1 c0 -6 -4
-13 -10 -16 -5 -3 -10 1 -10 9 0 9 5 16 10 16 6 0 10 -4 10 -9z m110 -42 c0
-20 -24 -26 -35 -9 -8 13 14 42 26 34 5 -3 9 -14 9 -25z m70 6 c0 -26 -14 -33
-25 -15 -9 14 1 40 15 40 5 0 10 -11 10 -25z m86 14 c3 -6 -1 -18 -10 -27 -15
-15 -16 -14 -16 11 0 27 13 36 26 16z m73 -3 c8 -10 8 -16 -3 -25 -10 -9 -16
-8 -26 3 -12 15 -6 36 9 36 5 0 14 -6 20 -14z m76 4 c4 -6 1 -18 -6 -26 -11
-14 -13 -14 -21 0 -15 26 12 51 27 26z m81 -1 c3 -6 1 -16 -4 -21 -13 -13 -45
8 -36 23 7 12 31 11 40 -2z m-610 -10 c3 -6 -1 -18 -10 -27 -15 -15 -18 -15
-26 -2 -5 9 -5 19 2 27 13 16 25 17 34 2z m69 -14 c0 -10 -5 -20 -11 -22 -13
-4 -27 24 -18 38 9 15 29 4 29 -16z m80 5 c0 -22 -29 -18 -33 3 -3 14 1 18 15
15 10 -2 18 -10 18 -18z m425 -10 c13 -8 13 -11 -2 -27 -21 -20 -43 -6 -32 20
7 19 13 21 34 7z m310 -11 c0 -6 -4 -7 -10 -4 -5 3 -10 11 -10 16 0 6 5 7 10
4 6 -3 10 -11 10 -16z m-623 -30 c-16 -26 -27 -24 -27 4 0 30 10 40 26 26 10
-8 11 -15 1 -30z m158 31 c4 -6 1 -17 -5 -26 -10 -11 -16 -12 -26 -3 -11 9
-11 15 -3 25 14 17 25 18 34 4z m74 -3 c8 -10 7 -17 -1 -25 -16 -16 -25 -15
-32 4 -12 30 12 45 33 21z m-387 -29 c-9 -9 -12 -7 -12 12 0 19 3 21 12 12 9
-9 9 -15 0 -24z m83 12 c0 -7 -6 -15 -12 -17 -8 -3 -13 4 -13 17 0 13 5 20 13
18 6 -3 12 -11 12 -18z m400 -66 c-26 -33 -29 -35 -44 -19 -15 15 -14 18 7 35
12 10 22 23 22 28 0 17 24 20 33 5 6 -9 -1 -26 -18 -49z m-295 26 c0 -30 -13
-40 -25 -20 -8 13 4 50 16 50 5 0 9 -13 9 -30z m77 -17 c-16 -16 -17 -15 -17
17 0 32 1 33 17 17 16 -16 16 -18 0 -34z m88 37 c4 -6 1 -17 -5 -26 -10 -11
-16 -12 -26 -3 -11 9 -11 15 -3 25 14 17 25 18 34 4z m80 0 c4 -6 1 -18 -6
-26 -11 -13 -14 -13 -27 0 -8 8 -11 19 -8 25 9 14 33 14 41 1z m-465 -19 c0
-11 -5 -23 -11 -27 -15 -9 -33 12 -26 30 9 23 37 20 37 -3z m78 -4 c2 -10 -3
-17 -12 -17 -18 0 -29 16 -21 31 9 14 29 6 33 -14z m72 4 c0 -11 -4 -22 -9
-25 -12 -8 -34 21 -26 34 11 17 35 11 35 -9z m660 -33 c0 -36 -4 -35 -14 5 -4
16 -2 27 4 27 5 0 10 -14 10 -32z m-384 11 c3 -6 -1 -18 -10 -27 -14 -14 -18
-15 -25 -3 -5 8 -7 20 -4 28 6 16 29 17 39 2z m-311 -9 c3 -5 3 -15 -1 -21 -6
-11 -23 6 -24 24 0 10 18 9 25 -3z m75 -15 c0 -8 -4 -17 -10 -20 -6 -4 -10 5
-10 20 0 15 4 24 10 20 6 -3 10 -12 10 -20z m154 17 c2 -4 1 -14 -4 -22 -7
-11 -12 -12 -21 -3 -6 6 -8 16 -5 22 8 13 23 14 30 3z m-304 -17 c0 -8 -4 -15
-10 -15 -5 0 -10 7 -10 15 0 8 5 15 10 15 6 0 10 -7 10 -15z m110 -29 c0 -14
-5 -28 -10 -31 -13 -8 -24 20 -16 40 9 24 26 17 26 -9z m70 -8 c0 -30 -1 -31
-17 -16 -13 14 -14 20 -3 32 18 22 20 20 20 -16z m170 7 c0 -21 -19 -28 -36
-15 -10 9 -11 16 -3 26 12 15 39 8 39 -11z m77 10 c1 -5 -2 -17 -7 -25 -8 -13
-11 -13 -26 2 -9 9 -13 21 -9 28 8 13 37 10 42 -5z m70 -1 c9 -23 -11 -38 -26
-20 -13 16 -7 36 10 36 5 0 12 -7 16 -16z m-232 -14 c0 -7 -6 -15 -12 -17 -8
-3 -13 4 -13 17 0 13 5 20 13 18 6 -3 12 -11 12 -18z m511 -25 c6 -23 0 -45
-10 -34 -10 12 -15 59 -6 59 5 0 12 -11 16 -25z m-467 1 c15 -18 -10 -39 -35
-29 -17 6 -17 5 -5 -11 13 -15 12 -20 -7 -39 l-22 -21 0 28 c0 27 34 86 49 86
5 0 14 -6 20 -14z m80 0 c17 -20 -13 -43 -34 -26 -12 10 -13 16 -4 26 6 8 15
14 19 14 4 0 13 -6 19 -14z m76 4 c4 -6 1 -17 -5 -26 -10 -11 -16 -12 -26 -3
-11 9 -11 15 -3 25 14 17 25 18 34 4z m-385 -34 c-17 -22 -32 -9 -19 16 8 14
14 17 22 9 7 -7 6 -15 -3 -25z m75 9 c0 -10 -6 -20 -12 -22 -8 -3 -13 5 -13
22 0 17 5 25 13 23 6 -3 12 -13 12 -23z m-45 -20 c0 -8 -7 -15 -16 -15 -14 0
-14 3 -4 15 7 8 14 15 16 15 2 0 4 -7 4 -15z m66 -12 c-10 -10 -19 5 -10 18 6
11 8 11 12 0 2 -7 1 -15 -2 -18z m170 -12 c-22 -21 -46 0 -26 24 10 12 16 13
27 3 12 -10 12 -13 -1 -27z m81 23 c8 -21 -13 -42 -28 -27 -13 13 -5 43 11 43
6 0 13 -7 17 -16z m73 -2 c0 -26 -11 -34 -27 -21 -10 9 -10 15 -2 25 16 19 29
17 29 -4z m280 -54 c0 -10 -4 -18 -10 -18 -5 0 -10 6 -10 13 0 6 -3 23 -6 37
-5 24 -5 24 10 6 9 -11 16 -28 16 -38z m-391 19 c8 -11 6 -18 -8 -31 -18 -17
-20 -16 -26 3 -11 36 12 54 34 28z m78 -3 c8 -21 -13 -42 -28 -27 -13 13 -5
43 11 43 6 0 13 -7 17 -16z m-152 -4 c4 -6 1 -18 -6 -26 -11 -13 -14 -13 -27
0 -8 8 -11 19 -8 25 9 14 33 14 41 1z m-43 -62 c-16 -16 -37 4 -28 28 6 16 8
16 23 1 13 -13 15 -19 5 -29z m84 3 c-9 -14 -33 -14 -41 -1 -4 6 -1 18 6 26
11 13 14 13 27 0 8 -8 11 -19 8 -25z m72 27 c7 -7 8 -17 1 -30 -13 -24 -26
-23 -34 2 -11 34 10 51 33 28z m70 -15 c-4 -22 -22 -20 -26 1 -2 10 3 16 13
16 10 0 15 -7 13 -17z m282 -41 c0 -33 -16 -18 -26 23 -7 27 -6 29 9 16 10 -7
17 -25 17 -39z m-391 -18 c-14 -14 -17 -14 -29 0 -10 13 -10 19 0 32 12 14 15
14 29 0 14 -15 14 -17 0 -32z m81 15 c0 -20 -24 -26 -35 -9 -8 13 14 42 26 34
5 -3 9 -14 9 -25z m-41 -55 c-14 -14 -17 -14 -29 0 -10 13 -10 19 0 32 12 14
15 14 29 0 14 -15 14 -17 0 -32z m71 22 c0 -14 -4 -27 -9 -30 -12 -8 -22 20
-15 39 9 23 24 18 24 -9z m-140 -5 c0 -6 -4 -13 -10 -16 -5 -3 -10 1 -10 9 0
9 5 16 10 16 6 0 10 -4 10 -9z m420 -36 c0 -17 -2 -17 -14 5 -7 14 -11 29 -8
34 6 12 22 -15 22 -39z m-310 4 c0 -5 -7 -9 -15 -9 -15 0 -20 12 -9 23 8 8 24
-1 24 -14z"></path>
<path d="M3460 1945 c7 -9 15 -13 17 -11 7 7 -7 26 -19 26 -6 0 -6 -6 2 -15z"></path>
<path d="M486 1618 c-9 -131 -8 -390 2 -384 9 5 17 476 9 476 -2 0 -7 -41 -11
-92z"></path>
<path d="M5934 1283 c4 -25 25 -28 23 -4 -1 12 -7 21 -13 21 -7 0 -11 -8 -10
-17z"></path>
<path d="M6135 1283 c-20 -15 -19 -15 5 -9 14 3 29 6 33 6 5 0 5 5 2 10 -8 14
-16 12 -40 -7z"></path>
<path d="M3448 563 c7 -3 16 -2 19 1 4 3 -2 6 -13 5 -11 0 -14 -3 -6 -6z"></path>
<path d="M3440 542 c0 -11 39 -47 44 -41 9 9 -15 49 -29 49 -8 0 -15 -4 -15
-8z"></path>
</g>
</svg>