 <svg version="1.0" xmlns="http://www.w3.org/2000/svg" id="mask" viewBox="0 0 700.000000 423.000000" preserveAspectRatio="xMidYMid meet">

<g transform="translate(0.000000,423.000000) scale(0.100000,-0.100000)">
<path d="M6083 3703 c-23 -4 -23 -5 -23 -194 l0 -189 49 0 c26 0 76 3 110 6
l61 7 0 188 0 189 -87 -1 c-49 -1 -98 -4 -110 -6z"></path>
<path d="M5713 3683 l-33 -4 0 -191 0 -191 77 7 c42 3 89 6 105 6 l28 0 0 190
0 190 -72 -2 c-40 0 -88 -3 -105 -5z"></path>
<path d="M5380 3661 l-65 -6 -3 -160 c-1 -88 0 -170 3 -183 5 -22 9 -23 103
-20 l97 3 0 185 0 185 -35 1 c-19 1 -64 -2 -100 -5z"></path>
<path d="M5048 3643 l-78 -4 0 -186 0 -186 68 6 c37 4 77 7 90 7 l22 0 0 185
c0 142 -3 185 -12 183 -7 -1 -48 -4 -90 -5z"></path>
<path d="M4725 3623 c-115 -6 -105 12 -105 -190 l0 -176 61 7 c34 3 75 6 90 6
l29 0 0 180 c0 99 -3 179 -7 178 -5 -1 -35 -3 -68 -5z"></path>
<path d="M4402 3603 l-22 -4 6 -172 c4 -95 8 -173 8 -174 1 -1 19 0 39 4 l37
6 -2 171 c-3 188 -1 182 -66 169z"></path>
<path d="M5070 3188 c-355 -11 -655 -21 -667 -24 -22 -4 -23 -9 -23 -88 0 -46
3 -97 6 -114 6 -29 8 -30 48 -25 22 3 46 10 53 15 7 5 18 6 25 2 7 -5 23 -7
36 -5 15 2 23 -2 21 -11 -3 -26 1 -38 15 -38 7 0 19 -7 26 -15 10 -12 10 -15
0 -15 -7 0 -10 -7 -6 -15 3 -8 9 -22 12 -31 5 -12 1 -14 -21 -8 -25 6 -27 5
-20 -12 9 -21 9 -53 1 -62 -3 -3 -17 7 -30 22 -26 31 -39 23 -34 -22 3 -23 0
-27 -19 -25 -27 3 -30 -18 -10 -60 12 -28 31 -38 21 -12 -4 8 -2 15 4 15 5 0
13 -8 16 -17 6 -14 9 -15 16 -4 4 8 15 11 24 8 19 -7 22 -27 4 -27 -6 0 -1
-11 12 -24 12 -14 20 -31 17 -39 -3 -8 -1 -19 5 -25 8 -8 4 -14 -14 -21 -38
-14 -44 -31 -13 -31 32 0 29 -23 -4 -28 -18 -3 -20 -6 -11 -17 7 -8 9 -19 5
-25 -10 -17 -36 -11 -55 13 -23 28 -33 18 -34 -35 -1 -43 -1 -43 32 -40 26 3
34 -1 41 -20 6 -13 10 -19 10 -15 1 4 10 3 22 -3 17 -9 23 -8 33 6 15 19 40
10 32 -12 -3 -8 1 -14 8 -14 8 0 16 -6 19 -12 3 -10 9 -8 24 5 18 16 21 16 33
2 7 -8 24 -21 39 -28 40 -19 39 -69 -3 -98 -18 -12 -42 -39 -54 -60 l-22 -38
21 -11 c14 -8 17 -15 11 -23 -13 -16 -46 -146 -40 -153 3 -3 133 -10 289 -15
156 -5 312 -12 346 -15 l62 -5 6 -44 c11 -70 3 -82 -68 -97 l-62 -13 4 -35 c1
-19 8 -38 15 -42 6 -4 41 -8 78 -8 57 0 66 2 61 16 -8 22 17 64 39 64 29 0
121 32 137 47 11 11 16 11 29 1 14 -11 15 -10 9 6 -8 20 8 46 28 46 7 0 15
-10 18 -22 5 -17 9 -19 20 -9 8 6 27 10 43 9 16 -1 45 -1 65 0 l36 2 -1 113
-1 112 33 3 c18 2 40 -2 48 -9 12 -10 14 -4 14 40 0 58 -21 71 -42 25 l-12
-26 -141 7 c-77 4 -167 10 -200 13 l-60 7 2 150 c2 83 5 169 9 193 l5 42 47 0
47 1 47 139 c42 128 45 140 27 140 -16 0 -19 -7 -19 -45 0 -42 -3 -47 -35 -62
-53 -25 -104 -9 -121 37 -7 19 -13 29 -13 23 -1 -7 -7 -13 -15 -13 -8 0 -24
-13 -35 -29 -52 -72 -150 -94 -196 -45 -14 15 -35 48 -47 75 l-23 48 -77 1
c-68 0 -78 -2 -78 -17 0 -38 -49 -123 -82 -143 -65 -40 -153 -21 -202 42 -104
138 -5 338 167 338 19 0 40 -11 62 -33 18 -18 38 -31 45 -29 9 3 11 -1 7 -12
-14 -36 2 -46 74 -46 68 0 69 0 63 24 -3 13 -1 27 5 30 7 4 11 -1 11 -12 0
-11 6 -25 14 -31 11 -9 18 -5 34 22 12 18 39 43 61 55 47 26 82 22 122 -15 16
-15 32 -21 42 -17 13 5 17 0 17 -20 0 -37 38 -35 72 4 14 17 35 30 45 30 10 0
33 -13 51 -30 18 -16 42 -30 53 -30 14 0 19 7 19 30 0 38 18 40 22 3 3 -27 5
-28 71 -31 l69 -3 -2 28 c-3 46 1 50 14 13 11 -31 17 -35 42 -32 16 2 30 5 31
6 1 1 5 88 9 194 l7 192 -114 -2 c-63 0 -404 -10 -759 -20z"></path>
<path d="M6112 3153 l-52 -4 2 -162 3 -162 73 -3 c68 -3 72 -4 72 -26 0 -30 4
-33 40 -28 l30 4 0 194 0 194 -57 -2 c-32 -1 -82 -3 -111 -5z"></path>
<path d="M4396 2734 c-15 -38 1 -104 25 -104 6 0 7 5 4 10 -4 6 -1 17 5 25 7
8 9 15 5 15 -4 0 -2 7 5 15 13 16 7 30 -20 45 -13 7 -19 6 -24 -6z"></path>
<path d="M5734 2693 c2 -10 8 -38 11 -63 12 -74 19 -73 47 5 l27 75 -45 0
c-38 0 -45 -3 -40 -17z"></path>
<path d="M5841 2693 c-8 -17 -61 -179 -61 -189 0 -2 34 -4 76 -4 l77 0 -6 48
c-8 64 -45 162 -62 162 -8 0 -18 -8 -24 -17z"></path>
<path d="M5911 2703 c0 -5 4 -17 9 -28 8 -18 9 -17 9 8 1 15 -3 27 -9 27 -5 0
-10 -3 -9 -7z"></path>
<path d="M5687 2650 c-24 -84 -37 -134 -37 -142 0 -5 23 -8 51 -8 l50 0 -7 45
c-3 25 -14 71 -24 103 l-18 57 -15 -55z"></path>
<path d="M6067 2593 c-4 -3 -7 -28 -7 -54 0 -38 4 -51 19 -59 18 -9 20 -19 15
-126 -2 -64 -6 -121 -7 -127 -1 -8 28 -13 96 -15 l97 -3 0 196 0 195 -103 0
c-57 0 -107 -3 -110 -7z"></path>
<path d="M4397 2443 c-4 -3 -7 -28 -7 -55 0 -42 3 -49 18 -46 22 4 32 108 9
108 -7 0 -17 -3 -20 -7z"></path>
<path d="M6067 2044 c-17 -17 -6 -34 24 -34 32 0 69 -15 81 -34 4 -5 29 -10
57 -11 l51 0 0 38 0 37 -74 0 c-40 0 -86 3 -102 6 -16 3 -32 2 -37 -2z"></path>
<path d="M6065 1980 c-4 -6 3 -10 14 -10 25 0 27 6 6 13 -8 4 -17 2 -20 -3z"></path>
<path d="M5260 1461 l0 -41 78 -1 c42 0 113 -6 157 -12 l80 -12 3 -43 c2 -24
-2 -50 -9 -58 -25 -31 -3 -41 103 -48 57 -4 138 -9 181 -13 l77 -6 0 115 0
115 -37 7 c-21 3 -81 6 -133 6 -53 0 -131 4 -175 9 -44 6 -135 13 -202 16
l-123 7 0 -41z"></path>
<path d="M6060 1342 l0 -119 38 -7 c20 -3 59 -6 86 -6 42 0 47 2 41 18 -6 15
-8 186 -2 215 1 8 -23 13 -80 15 l-83 3 0 -119z"></path>
<path d="M5438 1263 c6 -2 18 -2 25 0 6 3 1 5 -13 5 -14 0 -19 -2 -12 -5z"></path>
</g>
</svg>