 <svg version="1.0" xmlns="http://www.w3.org/2000/svg" viewBox="0 0 700.000000 423.000000" preserveAspectRatio="xMidYMid meet" id="mask">

<g transform="translate(0.000000,423.000000) scale(0.100000,-0.100000)">
<path d="M3769 2493 l-27 -28 -7 -267 c-4 -164 -3 -268 3 -268 5 0 23 5 41 11
l31 11 -1 256 c-1 142 -4 270 -8 285 l-6 28 -26 -28z"></path>
<path d="M3665 2445 c-5 -2 -27 -6 -47 -10 l-38 -6 0 -274 c0 -215 3 -275 13
-275 7 0 37 9 67 20 30 11 56 20 58 20 1 0 2 118 0 263 -3 254 -4 262 -23 264
-11 1 -24 0 -30 -2z"></path>
<path d="M3108 2358 l-118 -21 0 -258 c0 -143 4 -259 8 -259 4 0 62 7 127 15
66 8 123 15 128 15 4 0 6 118 5 262 -3 225 -5 263 -18 264 -8 1 -68 -7 -132
-18z"></path>
<path d="M2565 2271 l-150 -26 -6 -120 c-4 -66 -7 -175 -8 -242 -1 -111 1
-123 17 -122 9 0 85 8 167 17 l150 17 3 253 c2 199 0 252 -10 251 -7 -1 -80
-13 -163 -28z"></path>
<path d="M2130 2201 c-31 -5 -35 -10 -42 -46 -4 -22 -7 -129 -7 -237 l-1 -197
38 5 c20 3 43 7 50 10 9 2 12 59 12 239 0 129 -3 234 -7 234 -5 -1 -24 -4 -43
-8z"></path>
<path d="M4840 2158 c0 -32 4 -36 75 -71 l75 -37 0 39 c0 40 -2 41 -142 99 -4
2 -8 -11 -8 -30z"></path>
<path d="M5090 1976 l0 -104 71 -16 c39 -9 76 -16 81 -16 5 0 7 40 6 91 l-3
91 -68 29 c-38 16 -73 29 -78 29 -5 0 -9 -47 -9 -104z"></path>
<path d="M1880 1854 c0 -144 3 -185 13 -182 9 4 13 52 15 186 2 158 0 182 -13
182 -13 0 -15 -26 -15 -186z"></path>
<path d="M5308 1623 c-47 -4 -57 -14 -40 -40 4 -6 14 -11 22 -10 8 1 15 -2 15
-8 0 -5 -3 -9 -6 -8 -7 2 -4 -36 6 -66 5 -17 2 -21 -18 -21 -17 0 -26 -7 -30
-21 -8 -29 -70 -24 -75 6 -2 11 -9 25 -15 30 -37 32 -40 44 -21 80 10 19 16
36 14 39 -3 2 -71 6 -152 8 l-148 3 0 -46 c0 -94 13 -288 19 -284 4 2 26 -5
49 -15 43 -19 43 -20 40 -66 -2 -31 1 -48 9 -51 9 -3 11 4 7 26 -5 23 -2 32 9
37 12 4 15 14 10 35 -6 34 17 76 42 76 9 0 23 -11 32 -23 l15 -23 28 21 c15
11 32 18 38 15 15 -10 -3 -96 -26 -120 -12 -13 -22 -33 -22 -45 0 -13 -7 -33
-16 -46 -11 -18 -12 -26 -3 -31 6 -5 16 -1 21 9 12 22 62 21 79 -3 12 -17 30
-20 157 -23 l142 -4 2 130 c2 159 3 145 -12 286 -17 173 -12 160 -73 158 -28
-1 -73 -3 -99 -5z"></path>
<path d="M3650 1535 c0 -37 -6 -78 -14 -93 -15 -30 -13 -249 3 -265 13 -13 31
1 31 23 0 28 17 34 30 10 6 -11 15 -18 21 -15 10 7 12 250 3 344 l-7 61 -33 0
-34 0 0 -65z"></path>
<path d="M3391 1579 c-120 -11 -123 -12 -81 -34 19 -10 30 -20 23 -22 -8 -3
-10 -15 -6 -34 3 -17 1 -29 -5 -29 -6 0 -12 -12 -14 -27 -2 -23 -8 -29 -35
-31 -19 -2 -33 1 -33 7 0 6 -13 11 -28 11 -26 0 -30 5 -39 47 -6 27 -8 50 -4
53 5 3 8 13 8 23 0 19 -23 22 -61 7 -25 -9 -26 -13 -26 -85 0 -42 -4 -85 -10
-95 -18 -33 -2 -53 36 -45 42 7 43 -1 2 -35 -29 -25 -31 -28 -20 -60 17 -48
16 -66 -3 -50 -13 11 -15 2 -15 -69 l0 -82 57 3 58 3 9 43 c11 54 30 56 23 2
-5 -37 -3 -40 19 -40 21 0 24 5 24 35 0 19 5 35 10 35 6 0 10 -8 10 -19 0 -16
10 -20 63 -25 50 -5 225 -7 228 -2 0 0 3 85 5 188 3 122 1 189 -6 193 -5 3
-10 37 -10 76 l0 69 -42 -1 c-24 -1 -85 -6 -137 -10z"></path>
<path d="M5590 1212 c0 -203 3 -384 6 -401 7 -31 24 -43 24 -16 0 9 9 15 21
15 21 0 21 0 18 278 l-4 277 25 -3 c56 -6 141 -25 146 -34 3 -5 -1 -15 -10
-21 -13 -10 -17 -32 -19 -100 -1 -76 1 -90 19 -108 l21 -21 1 29 c0 15 1 35 2
43 2 8 2 92 2 185 l-2 171 -112 33 c-62 19 -119 36 -125 38 -10 4 -13 -73 -13
-365z"></path>
<path d="M2830 1533 c-19 -1 -68 -6 -107 -9 -64 -5 -71 -7 -58 -21 8 -8 15
-21 15 -29 0 -8 9 -14 20 -14 11 0 20 -2 20 -4 0 -3 -13 -38 -30 -79 -27 -68
-30 -86 -30 -186 0 -103 1 -111 19 -111 11 0 26 -3 35 -6 11 -4 16 -1 16 11 0
34 20 2 21 -33 l1 -37 11 40 10 40 12 -35 c10 -29 17 -36 44 -38 19 -2 45 5
66 18 22 13 42 19 55 15 18 -6 20 -2 20 35 0 41 1 41 33 38 31 -3 32 -2 35 42
3 43 3 44 -16 27 -18 -16 -42 -23 -42 -12 0 3 7 22 15 43 16 36 15 37 -10 55
-35 26 -31 37 11 37 l37 0 -7 61 c-3 34 -6 84 -6 110 l0 49 -77 -2 c-43 0 -94
-3 -113 -5z m91 -273 c5 0 4 -8 -2 -17 -6 -10 -22 -18 -35 -18 -25 0 -31 9
-14 20 6 4 8 11 4 16 -3 6 2 16 12 24 17 12 19 11 22 -6 2 -10 8 -19 13 -19z
m19 -75 c0 -8 -4 -15 -10 -15 -5 0 -10 7 -10 15 0 8 5 15 10 15 6 0 10 -7 10
-15z"></path>
<path d="M2425 1505 c-77 -7 -141 -14 -142 -14 -8 -4 -24 -411 -17 -423 3 -5
13 -3 22 6 19 16 90 8 117 -14 13 -11 15 11 15 198 0 158 -3 213 -12 219 -16
10 61 21 154 22 37 1 70 6 73 11 8 12 -26 11 -210 -5z"></path>
<path d="M2118 1483 l-38 -4 0 -235 0 -234 69 0 69 0 5 33 c5 29 3 174 -5 372
l-3 70 -30 1 c-16 1 -47 -1 -67 -3z"></path>
<path d="M2029 1413 c-1 -10 0 -26 1 -37 1 -11 -3 -15 -9 -12 -6 4 -11 2 -11
-3 0 -6 9 -11 20 -11 17 0 20 7 20 40 0 38 -19 58 -21 23z"></path>
<path d="M1893 1353 c-14 -5 -19 -94 -5 -91 13 3 62 -21 62 -31 0 -5 -16 -23
-35 -40 -35 -30 -35 -31 -35 -111 l0 -80 40 0 c24 0 42 5 45 13 2 6 5 77 8
155 3 143 3 144 -20 153 -13 5 -23 15 -23 24 0 15 -14 18 -37 8z"></path>
<path d="M4870 1159 c0 -52 2 -60 16 -55 41 16 65 17 82 5 15 -12 15 -12 -1 7
-10 12 -17 25 -16 30 4 23 -4 34 -37 53 -19 12 -37 21 -40 21 -2 0 -4 -27 -4
-61z"></path>
<path d="M5018 1126 c-17 -13 -24 -46 -13 -58 4 -3 16 -1 28 5 18 8 22 17 19
39 -5 31 -9 33 -34 14z"></path>
<path d="M4888 1086 c-27 -20 -22 -26 21 -26 46 0 61 14 32 29 -25 14 -32 13
-53 -3z"></path>
<path d="M4970 1080 c0 -5 5 -10 10 -10 6 0 10 5 10 10 0 6 -4 10 -10 10 -5 0
-10 -4 -10 -10z"></path>
<path d="M5130 1075 c0 -9 9 -15 21 -15 18 0 19 2 9 15 -7 8 -16 15 -21 15 -5
0 -9 -7 -9 -15z"></path>
<path d="M5807 1064 c-11 -11 -8 -106 2 -99 6 3 14 -3 20 -12 15 -27 18 -13
12 51 -6 55 -18 76 -34 60z"></path>
<path d="M3944 1016 c-8 -21 3 -49 16 -41 5 3 10 15 10 25 0 25 -18 36 -26 16z"></path>
<path d="M3995 1018 c-4 -10 -4 -26 0 -35 8 -17 8 -17 12 0 3 9 3 25 0 35 -4
16 -4 16 -12 0z"></path>
<path d="M4035 1020 c-3 -5 0 -13 8 -16 23 -8 102 0 102 11 0 14 -102 19 -110
5z"></path>
<path d="M4352 1005 c2 -14 8 -26 13 -26 6 0 11 12 13 26 2 18 -1 25 -13 25
-12 0 -15 -7 -13 -25z"></path>
<path d="M4400 1015 c0 -8 5 -15 10 -15 6 0 10 7 10 15 0 8 -4 15 -10 15 -5 0
-10 -7 -10 -15z"></path>
<path d="M4870 1015 c0 -8 9 -15 20 -15 11 0 20 7 20 15 0 8 -9 15 -20 15 -11
0 -20 -7 -20 -15z"></path>
<path d="M4944 935 c0 -55 1 -76 3 -47 2 29 2 74 0 100 -2 26 -3 2 -3 -53z"></path>
<path d="M4970 935 c0 -57 4 -95 10 -95 6 0 10 38 10 95 0 57 -4 95 -10 95 -6
0 -10 -38 -10 -95z"></path>
<path d="M5124 935 c0 -55 1 -76 3 -47 2 29 2 74 0 100 -2 26 -3 2 -3 -53z"></path>
<path d="M5152 1018 c3 -9 27 -13 76 -13 99 0 97 19 -1 23 -61 2 -78 0 -75
-10z"></path>
<path d="M5086 1011 c-4 -7 -5 -15 -2 -18 9 -9 19 4 14 18 -4 11 -6 11 -12 0z"></path>
<path d="M3233 1003 c-31 -6 -29 -23 2 -23 16 0 25 6 25 15 0 8 -1 14 -2 14
-2 -1 -13 -4 -25 -6z"></path>
<path d="M5465 1000 c3 -5 8 -10 11 -10 2 0 4 5 4 10 0 6 -5 10 -11 10 -5 0
-7 -4 -4 -10z"></path>
<path d="M2822 960 c0 -19 2 -27 5 -17 2 9 2 25 0 35 -3 9 -5 1 -5 -18z"></path>
<path d="M1915 970 c-4 -6 7 -10 25 -10 18 0 29 4 25 10 -3 6 -15 10 -25 10
-10 0 -22 -4 -25 -10z"></path>
<path d="M2731 964 c0 -11 3 -14 6 -6 3 7 2 16 -1 19 -3 4 -6 -2 -5 -13z"></path>
<path d="M4904 885 c0 -55 1 -76 3 -47 2 29 2 74 0 100 -2 26 -3 2 -3 -53z"></path>
<path d="M5152 893 c-1 -51 1 -93 6 -93 4 0 6 28 4 62 -5 113 -9 125 -10 31z"></path>
<path d="M5182 955 c0 -16 2 -22 5 -12 2 9 2 23 0 30 -3 6 -5 -1 -5 -18z"></path>
<path d="M4317 913 c-11 -10 -8 -73 3 -73 6 0 10 18 10 40 0 41 -2 45 -13 33z"></path>
<path d="M4356 913 c-3 -3 -6 -21 -6 -40 0 -23 5 -33 15 -33 10 0 15 10 15 34
0 34 -11 52 -24 39z"></path>
<path d="M3900 870 c0 -22 5 -40 10 -40 6 0 10 18 10 40 0 22 -4 40 -10 40 -5
0 -10 -18 -10 -40z"></path>
<path d="M3942 873 c4 -52 28 -56 28 -4 0 30 -4 41 -16 41 -11 0 -14 -9 -12
-37z"></path>
<path d="M3990 870 c0 -22 5 -40 10 -40 6 0 10 18 10 40 0 22 -4 40 -10 40 -5
0 -10 -18 -10 -40z"></path>
<path d="M5193 850 c0 -30 2 -43 4 -27 2 15 2 39 0 55 -2 15 -4 2 -4 -28z"></path>
<path d="M4580 835 c0 -25 5 -45 10 -45 6 0 10 20 10 45 0 25 -4 45 -10 45 -5
0 -10 -20 -10 -45z"></path>
<path d="M4490 850 c0 -5 5 -10 11 -10 5 0 7 5 4 10 -3 6 -8 10 -11 10 -2 0
-4 -4 -4 -10z"></path>
<path d="M4535 850 c-3 -5 1 -10 10 -10 9 0 13 5 10 10 -3 6 -8 10 -10 10 -2
0 -7 -4 -10 -10z"></path>
<path d="M4448 843 c7 -3 16 -2 19 1 4 3 -2 6 -13 5 -11 0 -14 -3 -6 -6z"></path>
<path d="M4120 810 c0 -11 7 -20 15 -20 8 0 15 9 15 20 0 11 -7 20 -15 20 -8
0 -15 -9 -15 -20z"></path>
<path d="M4081 804 c0 -11 3 -14 6 -6 3 7 2 16 -1 19 -3 4 -6 -2 -5 -13z"></path>
<path d="M4340 811 c-62 -13 -11 -22 106 -19 64 2 109 7 109 13 0 12 -164 16
-215 6z"></path>
<path d="M4940 809 c0 -5 5 -7 10 -4 6 3 10 8 10 11 0 2 -4 4 -10 4 -5 0 -10
-5 -10 -11z"></path>
<path d="M5333 808 c2 -8 22 -13 52 -13 30 0 50 5 53 13 3 9 -12 12 -53 12
-41 0 -56 -3 -52 -12z"></path>
<path d="M3900 800 c0 -5 25 -10 55 -10 30 0 55 5 55 10 0 6 -25 10 -55 10
-30 0 -55 -4 -55 -10z"></path>
</g>
</svg>