 <svg version="1.0" xmlns="http://www.w3.org/2000/svg" viewBox="0 0 700.000000 423.000000" preserveAspectRatio="xMidYMid meet" id="mask">

<g transform="translate(0.000000,423.000000) scale(0.100000,-0.100000)">
<path d="M4772 3168 c-46 -83 -49 -93 -27 -84 11 4 19 -3 26 -21 18 -47 8 -56
-31 -29 -33 22 -55 25 -269 42 -188 14 -244 15 -294 5 -73 -13 -318 -58 -364
-66 -25 -5 -45 -21 -87 -76 -51 -65 -54 -72 -44 -97 7 -15 20 -34 29 -42 26
-22 30 -128 5 -142 -19 -11 -447 -91 -453 -85 -1 2 14 15 35 28 l37 24 3 187
2 187 115 -54 c96 -45 115 -51 126 -39 6 8 19 14 28 14 10 0 28 11 41 25 l23
25 -168 81 -167 82 -52 -13 c-28 -6 -199 -45 -379 -85 -181 -40 -332 -77 -335
-81 -4 -4 -1 -9 6 -11 6 -3 12 -12 12 -22 0 -9 13 -21 30 -28 l30 -11 0 -211
c0 -116 -2 -211 -5 -211 -3 0 -168 -29 -367 -65 -198 -36 -365 -65 -369 -65
-5 0 -6 -7 -3 -15 4 -8 11 -15 16 -15 6 0 39 -14 74 -31 l64 -30 0 -47 c0 -26
-4 -52 -8 -58 -4 -6 -61 -19 -127 -29 -114 -17 -171 -35 -113 -35 15 0 30 -5
34 -11 4 -6 6 -76 5 -156 -2 -150 5 -233 20 -233 5 0 9 83 9 185 0 179 1 185
20 185 20 0 20 -4 14 -181 -6 -154 -5 -181 7 -177 11 4 14 37 16 163 2 175 -1
168 71 180 l42 7 0 -156 c0 -132 2 -156 15 -156 13 0 15 33 15 235 0 257 -4
243 63 248 l38 2 -1 -232 -1 -233 43 1 c24 1 72 4 108 8 l65 6 5 245 5 245
125 22 c69 11 144 24 168 28 l42 6 0 -256 c0 -239 1 -256 18 -251 9 2 58 7
107 11 50 3 98 9 108 11 16 5 17 26 17 265 0 142 4 259 8 259 5 0 58 9 118 20
60 11 117 20 127 20 16 0 17 -19 17 -265 0 -260 0 -265 20 -265 22 0 188 17
258 26 l42 5 0 274 c0 151 4 276 8 279 4 2 36 8 70 12 l62 7 2 -269 3 -269 5
270 5 270 30 37 c17 21 33 38 38 38 4 0 7 -128 7 -285 l0 -285 23 0 c13 0 70
7 128 16 74 12 174 17 344 18 243 1 389 -11 475 -39 25 -8 54 -14 65 -13 11 1
57 -11 103 -26 46 -16 85 -26 87 -24 2 2 5 16 7 32 3 28 0 30 -97 66 l-100 37
-3 81 c-2 45 -1 82 2 82 2 0 35 -13 73 -29 l68 -29 10 -54 c10 -53 10 -53 13
-15 3 35 6 38 25 33 12 -3 25 -6 30 -6 4 0 7 -47 7 -105 0 -138 18 -138 22 -1
l3 105 75 -33 75 -32 3 -92 c4 -125 22 -118 22 9 0 98 9 139 32 139 20 0 88
35 85 43 -1 5 -73 42 -159 83 -87 41 -173 84 -193 95 -35 21 -36 23 -33 73 2
42 6 51 23 54 11 1 26 15 33 31 11 25 8 41 -29 147 -23 65 -81 236 -129 379
l-86 259 -42 -76z m-1494 -235 l-3 -67 -35 -7 c-19 -4 -60 -12 -91 -18 l-56
-12 -7 -142 c-4 -78 -9 -143 -11 -146 -4 -4 -191 -40 -212 -41 -10 0 -13 34
-13 140 l0 140 -27 -6 c-16 -3 -44 -10 -63 -15 -19 -5 -45 -9 -58 -9 -22 0
-23 3 -20 62 l3 63 280 61 c154 34 288 63 298 63 16 1 18 -7 15 -66z m1129
-23 c-3 -11 1 -21 10 -24 11 -4 13 -1 8 14 -5 14 -2 20 10 20 10 0 15 -7 13
-17 -2 -14 5 -19 35 -21 33 -3 37 -6 37 -32 0 -25 -3 -29 -30 -28 -23 1 -30 6
-31 22 -1 16 -2 17 -6 4 -3 -13 -16 -16 -71 -15 l-67 2 -3 46 -3 46 52 2 c46
1 51 -1 46 -19z m-296 -13 c-13 -13 -26 -3 -16 12 3 6 11 8 17 5 6 -4 6 -10
-1 -17z m37 -7 c0 -23 -3 -30 -16 -28 -11 2 -18 -5 -20 -19 -5 -33 -19 -28
-20 7 0 23 4 30 19 30 12 0 19 7 19 20 0 33 17 23 18 -10z m410 -7 c0 -22 -5
-33 -15 -33 -9 0 -13 8 -11 23 3 20 -1 22 -34 21 -25 -1 -38 3 -38 11 0 9 16
12 49 12 48 -1 49 -2 49 -34z m-478 18 c0 -6 -4 -13 -10 -16 -5 -3 -10 1 -10
9 0 9 5 16 10 16 6 0 10 -4 10 -9z m-70 -16 c0 -8 -4 -15 -10 -15 -5 0 -10 7
-10 15 0 8 5 15 10 15 6 0 10 -7 10 -15z m40 5 c0 -5 -7 -10 -15 -10 -8 0 -15
5 -15 10 0 6 7 10 15 10 8 0 15 -4 15 -10z m-73 -31 c0 -17 -5 -28 -11 -26 -6
2 -10 11 -8 21 2 9 -2 16 -8 16 -5 0 -10 -18 -10 -40 0 -22 -4 -40 -9 -40 -7
0 -9 94 -2 95 36 9 48 2 48 -26z m803 -75 c0 -25 -3 -44 -7 -42 -71 35 -80 42
-81 69 l-1 29 32 -16 32 -15 -25 20 c-14 11 -28 21 -32 21 -5 0 -8 6 -8 14 0
11 11 8 45 -11 43 -24 45 -27 45 -69z m-730 71 c0 -8 -4 -15 -9 -15 -13 0 -22
16 -14 24 11 11 23 6 23 -9z m30 5 c0 -5 -4 -10 -10 -10 -5 0 -10 5 -10 10 0
6 5 10 10 10 6 0 10 -4 10 -10z m-70 -19 c0 -15 5 -18 21 -14 15 4 20 2 17 -7
-2 -7 -15 -14 -29 -16 -22 -2 -26 2 -27 27 0 16 4 29 9 29 5 0 9 -9 9 -19z
m140 -1 c0 -5 -4 -10 -10 -10 -5 0 -10 5 -10 10 0 6 5 10 10 10 6 0 10 -4 10
-10z m713 -47 c9 -29 14 -53 12 -53 -11 0 -41 77 -37 93 5 25 7 21 25 -40z
m-783 32 c0 -8 -4 -15 -10 -15 -5 0 -10 7 -10 15 0 8 5 15 10 15 6 0 10 -7 10
-15z m478 4 c-2 -6 -8 -10 -13 -10 -5 0 -11 4 -13 10 -2 6 4 11 13 11 9 0 15
-5 13 -11z m-587 -22 c-1 -12 -15 -9 -19 4 -3 6 1 10 8 8 6 -3 11 -8 11 -12z
m-720 -216 c-9 -16 -87 -39 -98 -28 -2 3 -1 52 3 110 l7 105 46 9 46 8 3 -92
c1 -51 -2 -101 -7 -112z m1607 119 c11 -31 5 -39 -16 -18 -14 14 -17 62 -3 54
5 -3 14 -19 19 -36z m-2048 -103 c0 -51 -4 -97 -8 -103 -4 -6 -26 -15 -49 -19
l-43 -7 0 101 c0 65 4 102 12 107 16 10 71 22 81 17 4 -2 7 -46 7 -96z m2125
-35 c8 -31 15 -68 15 -84 0 -15 5 -30 10 -33 6 -3 10 -17 10 -30 0 -13 5 -27
10 -30 9 -6 15 -65 6 -65 -1 0 -17 5 -34 11 -37 13 -38 19 -47 188 -3 63 -8
126 -10 140 -8 44 24 -33 40 -97z m-56 -54 c1 -85 -2 -108 -13 -108 -28 0 -38
28 -33 97 4 64 12 109 24 143 11 33 22 -28 22 -132z m-386 76 l87 -6 0 -274
c0 -151 1 -277 3 -281 3 -11 -155 -16 -220 -8 l-53 6 0 290 0 290 48 -5 c26
-3 86 -8 135 -12z m-338 -285 l0 -284 -100 -12 c-55 -6 -112 -12 -127 -12
l-28 -1 0 279 0 279 68 11 c37 6 90 15 117 20 28 5 55 8 60 6 6 -1 10 -104 10
-286z m594 227 l48 -25 7 -266 c4 -147 5 -269 2 -272 -2 -3 -27 2 -54 11 l-49
17 -6 127 c-8 154 -9 432 -2 432 3 0 27 -11 54 -24z m-1211 -188 c3 -53 11
-49 -108 -68 -36 -6 -77 -13 -92 -16 -28 -6 -28 -5 -28 49 l0 54 98 15 c130
21 126 22 130 -34z m-575 -265 c4 -131 3 -240 -1 -244 -4 -4 -49 -11 -100 -15
l-92 -7 2 239 3 239 60 11 c33 7 74 12 91 13 l31 1 6 -237z m577 -3 l0 -159
-32 -6 c-18 -3 -71 -7 -118 -8 l-85 -2 -3 148 c-2 112 0 149 10 152 11 5 180
31 216 34 9 1 12 -37 12 -159z m-1160 -74 c0 -124 -3 -227 -7 -229 -5 -3 -43
-8 -85 -12 l-78 -7 0 225 0 225 58 10 c31 5 69 10 85 11 l27 1 0 -224z"></path>
<path d="M4335 2885 c0 -14 3 -25 8 -25 4 0 7 11 7 25 0 14 -3 25 -7 25 -5 0
-8 -11 -8 -25z"></path>
<path d="M4370 2901 c0 -5 5 -13 10 -16 6 -3 10 -2 10 4 0 5 -4 13 -10 16 -5
3 -10 2 -10 -4z"></path>
<path d="M4370 2860 c0 -5 5 -10 10 -10 6 0 10 5 10 10 0 6 -4 10 -10 10 -5 0
-10 -4 -10 -10z"></path>
<path d="M4045 1834 c-487 -12 -621 -27 -880 -99 -145 -40 -117 -37 -1106
-124 -976 -87 -1053 -95 -1046 -115 2 -6 19 -12 38 -13 80 -6 77 -2 83 -116 6
-139 6 -298 -1 -310 -3 -5 3 -7 13 -5 17 3 19 14 20 88 2 132 19 262 38 275
11 9 41 9 118 -1 135 -16 201 -19 216 -10 7 4 12 2 12 -3 0 -6 18 -11 40 -11
39 0 40 -1 40 -36 0 -19 4 -43 9 -53 6 -10 11 -61 12 -115 2 -66 6 -93 13 -86
6 6 9 48 7 99 -2 56 1 91 8 96 6 3 11 25 11 47 l0 41 68 -7 c45 -5 71 -12 80
-24 9 -12 12 -60 10 -182 l-3 -165 -65 -3 c-36 -2 -69 -7 -74 -13 -6 -6 -3 -9
8 -9 16 0 17 -2 5 -16 -11 -14 -10 -18 6 -31 19 -15 19 -15 -5 -10 -32 8 -45
-2 -45 -33 0 -16 -5 -24 -14 -22 -8 2 -11 -3 -8 -13 4 -9 1 -15 -8 -15 -8 0
-15 -4 -15 -9 0 -19 -32 -42 -50 -36 -12 4 -27 -3 -44 -20 -14 -14 -28 -20
-31 -15 -4 6 -15 2 -26 -9 -17 -16 -19 -26 -14 -65 6 -36 11 -46 26 -46 11 0
19 -4 19 -10 0 -5 -9 -10 -20 -10 -13 0 -20 -7 -20 -20 0 -23 9 -25 45 -8 26
12 58 2 97 -30 14 -12 20 -11 40 2 22 14 25 14 41 -4 9 -11 12 -20 7 -20 -6 0
-10 -9 -10 -20 0 -13 5 -17 14 -14 25 10 29 38 7 55 -11 9 -17 20 -14 23 4 4
-3 9 -15 13 -15 3 -22 13 -22 29 0 28 18 41 26 20 6 -17 54 -23 54 -7 0 5 8
12 17 14 17 4 17 5 1 6 -24 1 -23 16 3 42 27 27 47 11 43 -33 -2 -18 -1 -25 2
-15 3 9 10 17 15 17 5 0 9 9 9 21 0 15 5 19 15 15 8 -3 15 -1 15 3 0 5 9 7 20
4 11 -3 18 -9 15 -13 -7 -11 34 -22 73 -20 60 3 84 -62 37 -98 -26 -21 -26
-52 0 -52 19 0 28 17 13 24 -7 3 1 4 17 1 35 -6 51 3 56 30 4 21 49 35 49 16
0 -6 11 -18 24 -26 20 -13 29 -14 47 -5 16 9 18 14 9 20 -8 5 -9 16 -5 30 6
19 4 22 -9 17 -13 -5 -15 -3 -7 12 6 10 9 31 7 47 -3 25 -8 30 -42 36 -22 4
-164 7 -316 7 -200 1 -279 4 -284 13 -5 8 -2 9 11 4 11 -4 22 -2 26 6 6 9 11
9 24 -2 12 -10 19 -10 27 -2 16 16 278 17 278 1 0 -8 4 -8 14 0 9 8 60 11 152
10 89 -1 140 3 142 9 2 6 10 8 18 5 8 -3 14 0 14 6 0 6 -8 11 -17 12 -14 0
-13 2 5 9 19 8 22 17 24 77 l1 68 6 -65 c5 -50 8 -60 14 -42 5 12 8 37 7 55
-3 58 3 53 10 -8 l7 -60 1 58 c2 75 21 66 24 -11 l1 -57 7 65 7 65 1 -58 c3
-80 21 -64 24 21 l2 67 3 -62 c2 -35 8 -63 13 -63 6 0 10 4 10 9 0 5 17 7 37
5 23 -3 39 0 45 8 5 9 8 7 9 -7 2 -28 16 29 20 80 2 29 4 19 9 -35 6 -67 7
-70 8 -22 3 70 20 66 25 -5 l3 -58 2 58 c3 77 22 73 24 -5 l1 -63 6 65 6 65
10 -65 10 -65 3 63 c4 77 21 73 24 -6 l1 -57 7 65 7 65 1 -72 c1 -41 6 -73 12
-73 6 0 11 32 12 73 l2 72 5 -70 c4 -43 9 -65 14 -57 5 7 5 46 2 87 -5 51 -4
75 3 75 7 0 13 -32 15 -82 l3 -83 2 83 c2 102 21 110 24 10 l2 -73 3 60 c5 91
17 99 23 15 l6 -75 2 73 c3 96 22 94 22 -2 0 -106 20 -109 22 -4 l2 83 6 -85
6 -85 2 77 c3 102 22 114 22 14 0 -48 4 -76 11 -76 7 0 10 19 7 53 -2 30 1 52
7 52 6 0 10 -23 10 -52 1 -79 15 -76 16 3 l1 69 8 -48 c11 -65 20 -71 20 -14
0 26 5 47 11 47 7 0 9 -31 6 -90 -3 -49 -3 -90 -1 -90 2 0 26 16 54 36 45 32
53 35 95 29 28 -5 45 -3 45 3 0 5 14 12 30 14 27 4 34 -1 32 -23 -1 -3 12 -6
28 -5 28 1 30 4 31 41 1 22 5 54 10 70 5 19 6 6 2 -37 -3 -46 -2 -68 5 -68 7
0 13 34 15 88 l3 87 0 -97 -1 -97 80 -3 c103 -4 105 -22 3 -26 -43 -2 -78 -7
-78 -12 0 -14 29 -19 133 -22 53 -1 97 -6 97 -11 0 -4 19 -5 43 -2 174 25 572
33 581 13 4 -10 7 -10 12 -1 4 8 76 12 253 12 215 2 249 0 254 -14 8 -19 45
-20 66 -1 13 12 57 15 208 17 105 1 196 -2 202 -5 32 -20 -2 -26 -151 -27 -90
-1 -155 -3 -146 -6 10 -2 20 -18 24 -38 4 -21 13 -35 25 -38 22 -6 26 -27 5
-27 -8 0 -13 -11 -13 -26 0 -17 3 -22 9 -16 6 6 17 8 26 5 10 -4 13 -2 8 5 -3
6 3 13 14 17 11 4 18 11 15 16 -4 5 0 16 8 24 13 13 16 13 21 -1 3 -9 3 -21
-1 -27 -4 -6 0 -8 10 -4 10 4 17 2 17 -4 0 -6 7 -8 16 -5 12 5 14 1 9 -17 -5
-15 -4 -19 3 -12 6 6 12 30 14 55 2 29 7 44 16 43 6 -2 12 6 12 17 0 13 5 18
15 14 8 -4 15 -14 15 -23 0 -11 3 -12 8 -4 4 7 18 11 30 8 14 -2 22 1 22 11 0
8 5 14 10 14 6 0 10 -6 10 -12 0 -9 3 -8 10 2 8 12 10 12 16 -3 3 -9 10 -14
15 -11 5 3 7 10 4 15 -4 5 1 9 9 9 9 0 16 5 16 10 0 6 -23 10 -50 10 -48 0
-50 1 -40 20 10 18 20 20 113 19 110 -1 148 -8 155 -27 2 -8 -9 -12 -37 -12
-45 0 -54 -16 -25 -44 21 -22 74 -18 74 5 0 4 -8 5 -17 2 -16 -6 -16 -5 -4 10
7 9 22 17 32 17 12 0 21 10 25 25 5 20 10 24 30 19 l25 -6 -1 407 c-1 224 1
409 3 412 4 3 236 -63 243 -70 1 -1 6 -83 11 -182 l10 -180 1 162 2 163 40 20
c27 14 42 29 46 48 4 15 11 33 17 40 5 7 8 14 6 16 -2 2 -69 27 -149 56 -80
30 -151 62 -158 72 -26 36 -82 46 -537 89 -217 21 -718 31 -1080 23z m627
-151 c21 -19 25 -41 4 -24 -7 6 -54 14 -105 18 l-91 6 0 -42 0 -41 48 0 c26 0
53 -5 60 -12 9 -9 12 -74 12 -232 l0 -221 25 -1 c25 -2 34 17 60 127 12 50 14
66 15 174 2 100 3 106 13 65 12 -54 12 -419 -1 -432 -5 -5 -96 -7 -203 -6
l-194 3 -3 268 -2 267 75 0 75 0 0 40 0 40 -145 0 c-133 0 -144 -1 -138 -17
10 -27 33 -40 65 -37 28 4 38 -9 18 -21 -8 -5 -7 -12 2 -22 11 -14 10 -15 -12
-8 -20 6 -23 5 -12 -6 14 -15 17 -79 3 -79 -5 0 -11 7 -15 15 -9 24 -26 17
-26 -11 0 -17 -6 -28 -20 -31 -19 -5 -20 -13 -17 -202 l2 -196 -130 0 -130 0
-3 256 -2 257 22 6 c13 3 48 6 79 6 45 0 61 5 82 24 37 34 26 56 -27 56 -100
-1 -226 -19 -275 -41 l-52 -22 2 -214 c1 -151 5 -213 13 -210 7 2 12 60 14
172 3 169 6 184 40 185 9 0 12 -56 12 -245 l0 -245 -90 0 c-87 0 -90 1 -90 23
-4 289 6 560 20 569 3 2 16 12 29 23 21 19 43 20 305 26 596 11 668 11 688 -8z
m468 -14 c215 -22 309 -35 320 -45 19 -19 31 -174 30 -399 0 -93 -2 -170 -3
-170 -1 -1 -141 2 -312 5 l-310 5 -3 86 c-2 71 -6 90 -22 104 -20 18 -20 17
-20 -89 0 -104 -1 -107 -22 -104 -30 4 -34 28 -38 266 -1 87 2 138 9 145 6 6
11 31 11 55 0 36 3 43 18 40 15 -3 17 -19 20 -136 2 -124 4 -132 23 -132 19 0
19 6 17 162 l-3 162 -37 11 c-46 13 -56 23 -32 32 10 3 23 12 27 20 10 16 -30
18 327 -18z m-1582 -11 c8 -8 12 -45 12 -101 0 -48 5 -98 12 -110 14 -27 11
-369 -4 -393 -5 -7 -88 -14 -235 -18 -125 -4 -237 -8 -248 -9 -19 -2 -20 4
-18 168 2 243 11 355 28 355 7 0 15 8 17 18 3 14 40 25 203 59 235 48 218 46
233 31z m1152 -38 c0 -5 -4 -10 -10 -10 -5 0 -10 5 -10 10 0 6 5 10 10 10 6 0
10 -4 10 -10z m-1702 -69 c19 -17 22 -29 22 -95 0 -41 4 -77 9 -80 10 -7 3
-337 -7 -347 -4 -4 -135 -8 -292 -10 l-285 -4 -3 78 -3 77 38 1 38 2 -35 6
c-30 5 -35 10 -34 34 0 15 1 68 2 117 l2 90 49 0 c47 0 76 13 49 23 -23 7 13
39 38 34 25 -4 52 8 42 19 -4 3 -56 3 -115 -1 l-108 -7 3 -239 3 -239 -81 0
-81 0 5 163 c8 263 15 321 36 335 10 6 99 16 197 23 98 6 239 17 313 24 182
17 172 17 198 -4z m2893 -21 c-27 -23 -41 -25 -41 -7 0 20 10 27 39 27 l26 -1
-24 -19z m-3697 -33 c25 -25 37 -457 14 -485 -8 -9 -32 -12 -76 -10 l-65 3 2
238 c2 210 1 237 -13 237 -13 0 -16 -13 -16 -70 l0 -70 -30 0 c-38 0 -40 -7
-43 -190 l-2 -145 -52 -3 -53 -3 -2 98 c-2 109 -2 107 6 215 4 51 2 79 -5 84
-8 4 -7 9 2 15 9 5 -23 9 -78 9 -95 0 -116 9 -88 36 12 12 65 20 228 34 274
22 256 22 271 7z m-576 -56 c3 -10 0 -12 -12 -8 -10 4 -43 8 -74 8 -48 1 -52
3 -27 9 46 12 108 7 113 -9z m422 -296 c0 -138 -1 -145 -20 -145 -19 0 -20 7
-20 138 0 76 3 142 7 145 3 4 12 7 20 7 10 0 13 -31 13 -145z m2330 -146 c0
-19 -5 -29 -15 -29 -15 0 -22 50 -9 63 12 12 24 -4 24 -34z m40 -64 c0 -63 -4
-105 -10 -105 -6 0 -10 42 -10 105 0 63 4 105 10 105 6 0 10 -42 10 -105z m48
5 c-4 -134 -22 -135 -26 -2 -2 87 0 102 13 102 13 0 15 -15 13 -100z m42 -11
c0 -76 -3 -100 -12 -97 -13 5 -24 167 -13 195 14 37 25 -7 25 -98z m50 0 c0
-81 -3 -99 -15 -99 -12 0 -15 18 -15 98 0 54 3 102 6 105 17 17 24 -13 24
-104z m101 101 c37 0 49 -4 49 -15 0 -12 -14 -15 -65 -15 -59 0 -65 2 -65 21
0 15 4 19 16 15 9 -3 38 -6 65 -6z m-691 -30 c0 -20 -5 -30 -15 -30 -15 0 -21
40 -8 53 14 15 23 6 23 -23z m45 0 c0 -13 -6 -25 -12 -27 -9 -3 -13 6 -13 27
0 21 4 30 13 28 6 -3 12 -15 12 -28z m135 15 c0 -12 -13 -15 -60 -15 -47 0
-60 3 -60 15 0 12 13 15 60 15 47 0 60 -3 60 -15z m56 -12 c-10 -10 -19 5 -10
18 6 11 8 11 12 0 2 -7 1 -15 -2 -18z m707 12 c-2 -5 -32 -11 -68 -13 -54 -2
-65 0 -65 13 0 13 11 15 68 13 38 -2 66 -7 65 -13z m37 -86 c0 -64 -4 -98 -10
-94 -6 3 -10 48 -10 101 0 56 4 94 10 94 6 0 10 -40 10 -101z m40 0 c0 -64 -4
-98 -10 -94 -6 3 -10 48 -10 101 0 56 4 94 10 94 6 0 10 -40 10 -101z m40 1
c0 -60 -4 -100 -10 -100 -6 0 -10 40 -10 100 0 60 4 100 10 100 6 0 10 -40 10
-100z m31 2 c1 -51 -1 -95 -5 -99 -3 -3 -6 40 -6 97 0 127 8 129 11 2z m39 3
c0 -57 -4 -95 -10 -95 -6 0 -10 38 -10 95 0 57 4 95 10 95 6 0 10 -38 10 -95z
m33 -12 c2 -46 0 -83 -5 -83 -4 0 -7 44 -7 98 1 111 6 105 12 -15z m177 92 c0
-12 -16 -15 -80 -15 -64 0 -80 3 -80 15 0 12 16 15 80 15 64 0 80 -3 80 -15z
m-1810 -96 c0 -53 -4 -89 -10 -89 -6 0 -10 39 -10 96 0 61 4 93 10 89 6 -3 10
-46 10 -96z m70 86 c0 -10 -10 -15 -30 -15 -29 0 -38 9 -23 23 13 13 53 7 53
-8z m190 0 c0 -12 -13 -15 -60 -15 -47 0 -60 3 -60 15 0 12 13 15 60 15 47 0
60 -3 60 -15z m40 -82 c0 -67 -3 -93 -10 -83 -13 20 -13 180 0 180 6 0 10 -39
10 -97z m-487 72 c2 -12 -112 -24 -119 -13 -3 5 -2 13 1 18 8 14 114 9 118 -5z
m54 -122 c-2 -27 -3 -5 -3 47 0 52 1 74 3 48 2 -27 2 -69 0 -95z m60 -5 c-2
-29 -3 -8 -3 47 0 55 1 79 3 53 2 -26 2 -71 0 -100z m30 5 c-2 -27 -3 -5 -3
47 0 52 1 74 3 48 2 -27 2 -69 0 -95z m2023 127 c0 -5 -4 -10 -10 -10 -5 0
-10 5 -10 10 0 6 5 10 10 10 6 0 10 -4 10 -10z m-2083 -133 c-2 -23 -3 -1 -3
48 0 50 1 68 3 42 2 -26 2 -67 0 -90z m-920 76 c-3 -10 -5 -2 -5 17 0 19 2 27
5 18 2 -10 2 -26 0 -35z m233 38 c0 -9 -138 -21 -153 -14 -4 3 -5 8 -2 13 7
11 155 12 155 1z m320 -1 c0 -6 -27 -10 -60 -10 -33 0 -60 4 -60 10 0 6 27 10
60 10 33 0 60 -4 60 -10z m1165 -71 c0 -59 -3 -74 -15 -74 -11 0 -16 15 -18
64 -3 71 2 95 21 88 8 -2 12 -27 12 -78z m405 41 c0 -22 -4 -40 -10 -40 -11 0
-14 63 -3 73 11 12 13 8 13 -33z m48 -10 c-5 -49 -28 -51 -28 -2 0 21 3 42 7
46 13 12 24 -12 21 -44z m42 10 c0 -29 -4 -40 -15 -40 -10 0 -15 10 -15 33 0
19 3 37 7 40 15 16 23 5 23 -33z m140 -60 c0 -60 -4 -100 -10 -100 -11 0 -14
182 -3 193 12 13 13 7 13 -93z m45 -9 c-4 -50 -11 -91 -16 -91 -10 0 -12 183
-2 194 18 17 24 -19 18 -103z m41 5 c-7 -87 -11 -105 -21 -94 -9 9 8 197 18
191 6 -4 7 -40 3 -97z m-2911 85 c3 -5 2 -12 -3 -15 -14 -8 -122 6 -116 15 7
12 111 11 119 0z m55 -72 c0 -39 -4 -69 -10 -69 -6 0 -10 32 -10 76 0 47 4 73
10 69 6 -3 10 -37 10 -76z m17 -31 c-2 -24 -4 -7 -4 37 0 44 2 63 4 43 2 -21
2 -57 0 -80z m33 31 c0 -39 -4 -69 -10 -69 -6 0 -10 32 -10 76 0 47 4 73 10
69 6 -3 10 -37 10 -76z m17 -31 c-2 -24 -4 -7 -4 37 0 44 2 63 4 43 2 -21 2
-57 0 -80z m30 37 c1 -41 -3 -75 -8 -75 -5 0 -9 34 -9 75 0 41 4 75 8 75 4 0
8 -34 9 -75z m53 65 c0 -5 -9 -10 -20 -10 -11 0 -20 5 -20 10 0 6 9 10 20 10
11 0 20 -4 20 -10z m160 0 c0 -5 -20 -10 -44 -10 -25 0 -48 5 -51 10 -4 6 13
10 44 10 28 0 51 -4 51 -10z m1390 -96 c0 -52 -4 -94 -9 -94 -11 0 -26 174
-16 189 16 27 25 -7 25 -95z m478 27 c2 -56 0 -72 -10 -69 -9 3 -14 29 -16 77
-2 56 0 72 10 69 9 -3 14 -29 16 -77z m561 -63 c1 -27 -3 -48 -9 -48 -6 0 -9
38 -9 98 2 85 3 91 9 47 5 -27 9 -71 9 -97z m370 5 c1 -24 -3 -43 -9 -43 -6 0
-9 37 -9 93 2 82 2 87 9 42 5 -27 9 -69 9 -92z m31 41 c0 -61 -4 -93 -10 -89
-5 3 -10 46 -10 96 0 53 4 89 10 89 6 0 10 -39 10 -96z m29 -19 c0 -49 -2 -65
-9 -55 -5 8 -9 51 -9 95 1 99 17 64 18 -40z m18 63 c-2 -13 -4 -5 -4 17 -1 22
1 32 4 23 2 -10 2 -28 0 -40z m36 -40 c2 -49 1 -88 -4 -88 -5 0 -9 41 -9 92 0
50 2 89 4 87 2 -2 6 -43 9 -91z m24 -20 c-2 -24 -4 -7 -4 37 0 44 2 63 4 43 2
-21 2 -57 0 -80z m30 15 c-2 -21 -4 -6 -4 32 0 39 2 55 4 38 2 -18 2 -50 0
-70z m-3550 -20 c-2 -21 -4 -4 -4 37 0 41 2 58 4 38 2 -21 2 -55 0 -75z m53
31 c0 -36 -4 -64 -10 -64 -6 0 -10 30 -10 71 0 44 4 68 10 64 6 -3 10 -35 10
-71z m1690 -20 c0 -61 -4 -93 -10 -89 -5 3 -10 46 -10 96 0 53 4 89 10 89 6 0
10 -39 10 -96z m40 1 c0 -46 -4 -87 -10 -90 -6 -4 -10 28 -10 90 0 62 4 94 10
90 6 -3 10 -44 10 -90z m150 0 c0 -57 -4 -95 -10 -95 -6 0 -10 38 -10 95 0 57
4 95 10 95 6 0 10 -38 10 -95z m-1913 -12 c-2 -21 -4 -6 -4 32 0 39 2 55 4 38
2 -18 2 -50 0 -70z m50 0 c-2 -21 -4 -6 -4 32 0 39 2 55 4 38 2 -18 2 -50 0
-70z m1430 50 c-3 -10 -5 -2 -5 17 0 19 2 27 5 18 2 -10 2 -26 0 -35z m393
-43 c0 -53 -4 -90 -10 -90 -6 0 -10 37 -10 90 0 53 4 90 10 90 6 0 10 -37 10
-90z m428 -50 c-2 -23 -8 -35 -18 -35 -12 0 -15 14 -14 72 2 99 14 124 26 53
5 -30 7 -71 6 -90z m-1088 59 c0 -44 -4 -68 -10 -64 -5 3 -10 35 -10 71 0 36
4 64 10 64 6 0 10 -30 10 -71z m1128 -9 c-4 -107 -22 -108 -26 -2 -2 69 0 82
13 82 13 0 15 -13 13 -80z m-2242 -77 c-2 -3 -13 0 -23 6 -10 6 -12 11 -5 11
7 0 12 14 12 34 0 18 3 49 8 67 6 28 8 21 10 -40 2 -40 1 -76 -2 -78z m21 40
c-2 -21 -4 -4 -4 37 0 41 2 58 4 38 2 -21 2 -55 0 -75z m50 -5 c-2 -24 -4 -7
-4 37 0 44 2 63 4 43 2 -21 2 -57 0 -80z m33 36 c0 -47 -4 -73 -10 -69 -5 3
-10 37 -10 76 0 39 4 69 10 69 6 0 10 -32 10 -76z m167 -36 c-2 -24 -4 -7 -4
37 0 44 2 63 4 43 2 -21 2 -57 0 -80z m30 0 c-2 -24 -4 -7 -4 37 0 44 2 63 4
43 2 -21 2 -57 0 -80z m223 91 c0 -11 -4 -17 -10 -14 -5 3 -10 13 -10 21 0 8
5 14 10 14 6 0 10 -9 10 -21z m-553 -11 c-3 -8 -6 -5 -6 6 -1 11 2 17 5 13 3
-3 4 -12 1 -19z m80 -85 c-2 -21 -4 -4 -4 37 0 41 2 58 4 38 2 -21 2 -55 0
-75z m1973 46 c0 -28 -4 -39 -15 -39 -11 0 -15 11 -15 38 0 21 3 42 6 45 14
13 24 -6 24 -44z m40 0 c0 -28 -4 -39 -15 -39 -11 0 -15 11 -15 38 0 21 3 42
6 45 14 13 24 -6 24 -44z m48 27 c5 -25 -6 -66 -18 -66 -6 0 -10 21 -10 46 0
32 4 44 13 42 6 -3 14 -13 15 -22z m42 -47 c0 -52 -3 -70 -12 -67 -13 5 -24
99 -14 124 14 36 26 9 26 -57z m270 25 c0 -27 -4 -43 -10 -39 -5 3 -10 24 -10
46 0 21 5 39 10 39 6 0 10 -21 10 -46z m48 4 c-2 -24 -7 -43 -13 -43 -5 0 -11
19 -13 43 -3 33 0 42 13 42 13 0 16 -9 13 -42z m-111 -65 c-2 -16 -4 -3 -4 27
0 30 2 43 4 28 2 -16 2 -40 0 -55z m333 27 c0 -27 -4 -50 -10 -50 -5 0 -10 23
-10 50 0 28 5 50 10 50 6 0 10 -22 10 -50z m48 -10 c-4 -63 -28 -65 -28 -2 0
27 3 52 7 56 14 14 24 -13 21 -54z m42 9 c0 -36 -4 -49 -12 -47 -14 5 -23 61
-14 84 12 31 26 11 26 -37z m-2973 -31 c-2 -13 -4 -3 -4 22 0 25 2 35 4 23 2
-13 2 -33 0 -45z m20 30 c-3 -7 -5 -2 -5 12 0 14 2 19 5 13 2 -7 2 -19 0 -25z
m3520 -25 c-3 -10 -5 -2 -5 17 0 19 2 27 5 18 2 -10 2 -26 0 -35z m-697 -8 c0
-13 -21 -15 -125 -15 -114 0 -137 5 -118 23 3 4 60 7 125 7 98 0 118 -3 118
-15z m570 0 c0 -6 -42 -11 -100 -13 -91 -2 -112 2 -93 22 11 11 193 2 193 -9z
m310 0 c0 -12 -13 -15 -55 -15 -42 0 -55 3 -55 15 0 12 13 15 55 15 42 0 55
-3 55 -15z m-3580 -5 c0 -6 -29 -10 -65 -10 -36 0 -65 4 -65 9 0 5 29 9 65 10
37 0 65 -4 65 -9z m300 0 c0 -6 -30 -10 -70 -10 -40 0 -70 4 -70 10 0 6 30 10
70 10 40 0 70 -4 70 -10z m1660 -5 c0 -8 -9 -15 -20 -15 -11 0 -20 7 -20 15 0
8 9 15 20 15 11 0 20 -7 20 -15z m198 3 c-3 -8 -24 -13 -58 -13 -34 0 -55 5
-57 13 -4 9 12 12 57 12 45 0 61 -3 58 -12z m-2448 -108 c0 -5 -18 -10 -41
-10 -24 0 -38 4 -34 10 3 6 22 10 41 10 19 0 34 -4 34 -10z m3415 -60 c3 -5 1
-10 -4 -10 -6 0 -11 5 -11 10 0 6 2 10 4 10 3 0 8 -4 11 -10z"></path>
<path d="M4130 1666 c0 -9 5 -16 10 -16 6 0 10 4 10 9 0 6 -4 13 -10 16 -5 3
-10 -1 -10 -9z"></path>
<path d="M4680 1192 c-13 -66 -11 -78 15 -69 16 7 20 75 6 111 -6 15 -11 4
-21 -42z"></path>
<path d="M2620 1266 l0 -75 -42 -4 -43 -4 43 -1 42 -2 0 -50 c0 -43 3 -50 20
-50 19 0 20 7 20 130 0 123 -1 130 -20 130 -18 0 -20 -7 -20 -74z"></path>
<path d="M5653 1339 c4 -13 7 -138 7 -277 0 -199 3 -253 13 -250 9 4 13 56 15
206 l2 202 24 0 c57 0 56 3 56 -202 0 -139 3 -189 12 -186 8 3 11 69 12 230 1
205 3 228 19 246 19 20 18 21 -20 32 -21 6 -62 14 -92 17 -53 6 -54 6 -48 -18z
m107 -64 c0 -8 -9 -15 -19 -15 -10 0 -21 7 -25 15 -4 11 1 15 19 15 16 0 25
-6 25 -15z"></path>
<path d="M5853 985 c0 -33 2 -45 4 -27 2 18 2 45 0 60 -2 15 -4 0 -4 -33z"></path>
<path d="M1137 972 c-14 -3 -18 -10 -14 -28 4 -21 -7 -34 -67 -84 -54 -45 -72
-55 -76 -44 -12 33 -34 -3 -28 -46 1 -8 1 -75 0 -147 -1 -121 0 -133 16 -133
10 0 23 -5 29 -11 5 -5 34 -9 64 -7 47 3 54 6 57 26 3 21 0 22 -60 22 -102 0
-104 9 -23 85 69 64 85 74 85 55 0 -5 16 -10 35 -10 19 0 35 5 35 10 0 6 7 10
16 8 10 -2 19 3 21 10 3 8 -9 12 -41 12 -25 0 -46 5 -46 10 0 12 20 12 112 4
37 -4 66 -10 63 -14 -2 -4 -18 -5 -35 -2 -17 2 -30 0 -30 -6 0 -14 41 -43 52
-36 4 3 8 -2 8 -10 0 -9 8 -16 19 -16 13 0 21 -9 26 -29 3 -16 14 -36 25 -46
15 -14 19 -14 27 -2 4 8 15 17 23 20 8 3 0 6 -18 6 -40 1 -33 21 7 21 l28 0 2
79 1 80 -35 -6 c-31 -5 -35 -3 -35 16 0 11 -5 21 -11 21 -6 0 -8 7 -5 16 5 14
4 15 -8 5 -23 -19 -74 -4 -79 22 -3 21 -4 21 -15 -3 l-11 -25 -1 25 c-1 23 -2
23 -10 5 -5 -11 -9 -14 -9 -7 -1 16 -18 33 -46 50 -19 11 -19 11 5 12 l25 0
-24 19 c-13 10 -19 20 -13 22 20 7 -20 55 -41 51z m-17 -101 c0 -5 -24 -28
-52 -52 l-53 -43 50 52 c52 55 55 57 55 43z m-19 -108 c2 -29 0 -56 -4 -59 -4
-4 -7 21 -7 56 0 75 7 77 11 3z m-21 -22 c0 -33 -4 -63 -10 -66 -6 -4 -10 18
-10 59 0 37 4 66 10 66 6 0 10 -26 10 -59z m224 24 c4 -12 -5 -15 -52 -14 -31
1 -47 4 -34 6 12 2 22 9 22 14 0 15 57 10 64 -6z m-254 -55 c0 -33 -4 -60 -10
-60 -6 0 -10 27 -10 60 0 33 4 60 10 60 6 0 10 -27 10 -60z m77 38 c-3 -8 -6
-5 -6 6 -1 11 2 17 5 13 3 -3 4 -12 1 -19z m-140 -100 c-2 -24 -4 -7 -4 37 0
44 2 63 4 43 2 -21 2 -57 0 -80z m30 5 c-2 -21 -4 -6 -4 32 0 39 2 55 4 38 2
-18 2 -50 0 -70z m393 37 c0 -5 -2 -10 -4 -10 -3 0 -8 5 -11 10 -3 6 -1 10 4
10 6 0 11 -4 11 -10z m30 6 c0 -3 -4 -8 -10 -11 -5 -3 -10 -1 -10 4 0 6 5 11
10 11 6 0 10 -2 10 -4z m-60 -62 c0 -8 -5 -12 -10 -9 -6 4 -8 11 -5 16 9 14
15 11 15 -7z"></path>
<path d="M5852 820 c0 -14 2 -19 5 -12 2 6 2 18 0 25 -3 6 -5 1 -5 -13z"></path>
<path d="M5326 715 c4 -8 8 -15 10 -15 2 0 4 7 4 15 0 8 -4 15 -10 15 -5 0 -7
-7 -4 -15z"></path>
<path d="M5370 720 c0 -5 5 -10 10 -10 6 0 10 5 10 10 0 6 -4 10 -10 10 -5 0
-10 -4 -10 -10z"></path>
<path d="M3410 695 c-10 -25 4 -65 22 -65 5 0 8 -4 8 -10 0 -5 -7 -7 -16 -3
-15 5 -15 3 0 -26 17 -32 28 -40 25 -18 -3 25 1 38 11 32 6 -3 10 -1 10 4 0 6
-5 11 -11 11 -7 0 -8 7 -4 18 3 9 7 22 8 27 1 6 6 13 11 17 12 8 -18 38 -39
38 -8 0 -20 -11 -25 -25z"></path>
<path d="M3555 710 c3 -5 8 -10 11 -10 2 0 4 5 4 10 0 6 -5 10 -11 10 -5 0 -7
-4 -4 -10z"></path>
<path d="M3610 716 c0 -16 21 -56 29 -56 6 0 8 7 5 15 -4 8 -1 15 5 15 6 0 11
-7 11 -16 0 -10 6 -14 14 -11 15 6 33 -10 31 -28 0 -5 -9 -22 -19 -37 -10 -15
-15 -32 -11 -37 3 -6 0 -8 -8 -5 -8 3 -18 1 -22 -5 -9 -15 32 -8 47 7 7 7 18
12 25 12 7 0 10 7 7 15 -5 11 0 14 17 12 13 -2 25 -9 27 -15 4 -14 32 -16 32
-3 0 5 11 9 25 9 13 0 22 -4 19 -9 -3 -5 5 -13 18 -18 29 -11 47 7 43 43 -3
21 2 29 22 37 14 5 28 7 31 5 3 -3 18 2 33 11 28 17 29 17 46 -7 9 -14 31 -38
48 -54 25 -24 31 -26 33 -12 4 16 5 16 22 1 22 -20 127 -30 146 -14 20 16 17
30 -3 22 -10 -3 -15 -3 -11 2 4 4 3 16 -2 25 -8 15 -2 25 25 49 40 34 57 38
78 16 8 -8 18 -11 22 -7 4 4 4 -9 0 -28 -7 -30 -6 -33 8 -22 21 17 30 0 17
-32 -10 -26 4 -66 22 -66 5 0 8 -5 8 -12 0 -6 -11 -1 -24 11 l-24 23 2 -26 c0
-14 5 -26 9 -26 5 0 6 -8 2 -19 -3 -11 1 -24 12 -32 11 -9 14 -10 9 -1 -4 6
-2 12 3 12 6 0 11 -6 11 -13 0 -27 26 -50 48 -43 17 6 21 14 18 37 -1 16 -6
32 -9 36 -13 12 -7 22 9 16 12 -4 15 -2 12 8 -3 8 -11 13 -17 12 -6 -2 -11 2
-11 7 0 6 5 10 11 10 7 0 6 9 -4 23 -9 14 -12 29 -7 36 6 11 9 11 13 0 4 -9 8
-10 14 -4 4 6 19 11 33 13 14 2 31 11 39 20 12 15 13 15 8 1 -4 -12 1 -18 16
-21 36 -6 67 2 67 18 0 8 4 14 9 14 5 0 8 -8 7 -17 0 -10 4 -17 11 -16 8 2 10
-4 6 -15 -6 -15 -4 -15 16 2 18 17 21 17 15 3 -4 -13 -1 -17 14 -17 12 0 24 5
28 12 5 7 2 9 -8 5 -11 -4 -15 1 -15 19 0 13 4 24 9 24 5 0 7 -4 4 -9 -3 -5 0
-11 8 -14 18 -7 16 44 -3 67 -11 13 -11 19 -1 31 11 13 -58 15 -584 15 -328 0
-596 -2 -596 -4z m180 -96 c0 -5 -2 -10 -4 -10 -3 0 -8 5 -11 10 -3 6 -1 10 4
10 6 0 11 -4 11 -10z m350 0 c0 -5 -4 -10 -10 -10 -5 0 -10 5 -10 10 0 6 5 10
10 10 6 0 10 -4 10 -10z m380 0 c0 -5 -4 -10 -10 -10 -5 0 -10 5 -10 10 0 6 5
10 10 10 6 0 10 -4 10 -10z m30 0 c0 -5 -4 -10 -10 -10 -5 0 -10 5 -10 10 0 6
5 10 10 10 6 0 10 -4 10 -10z m30 0 c0 -5 -2 -10 -4 -10 -3 0 -8 5 -11 10 -3
6 -1 10 4 10 6 0 11 -4 11 -10z m70 6 c0 -3 -4 -8 -10 -11 -5 -3 -10 -1 -10 4
0 6 5 11 10 11 6 0 10 -2 10 -4z"></path>
<path d="M3668 639 c-10 -5 -18 -15 -18 -21 0 -7 4 -7 13 1 8 6 16 8 19 5 3
-2 8 2 11 11 7 17 -1 19 -25 4z"></path>
<path d="M1080 621 c0 -19 6 -21 50 -21 38 0 50 4 50 15 0 8 -8 15 -19 15 -10
0 -33 3 -50 6 -27 6 -31 4 -31 -15z"></path>
<path d="M1020 563 c0 -21 5 -23 50 -23 28 0 50 5 50 10 0 6 0 13 0 18 0 4
-22 9 -50 12 -47 5 -50 4 -50 -17z"></path>
<path d="M5055 580 c3 -5 8 -10 11 -10 2 0 4 5 4 10 0 6 -5 10 -11 10 -5 0 -7
-4 -4 -10z"></path>
<path d="M4930 538 c0 -19 2 -20 10 -8 13 19 13 30 0 30 -5 0 -10 -10 -10 -22z"></path>
</g>
</svg>