 <svg version="1.0" xmlns="http://www.w3.org/2000/svg" viewBox="0 0 700.000000 423.000000" preserveAspectRatio="xMidYMid meet" id="mask">
<g transform="translate(0.000000,423.000000) scale(0.100000,-0.100000)">
<path d="M6179 4226 c-5 -5 -479 -139 -1130 -321 l-405 -113 -130 19 c-71 10
-146 18 -167 19 -32 0 -441 -111 -454 -123 -2 -3 -3 -40 -1 -84 l3 -80 205 59
205 58 175 -16 175 -17 565 132 c311 72 714 166 895 208 182 41 333 79 337 82
4 4 11 46 14 94 l7 87 -145 0 c-80 0 -147 -2 -149 -4z"></path>
<path d="M5700 2708 c-100 -6 -157 -13 -162 -21 -5 -9 -86 -13 -298 -15 l-290
-3 -1 -27 c0 -15 -4 -121 -8 -236 l-6 -209 37 -38 c20 -20 46 -40 58 -44 16
-5 18 -10 10 -25 -7 -13 -6 -19 5 -24 8 -3 17 -1 20 4 4 6 24 10 46 10 l39 0
0 -85 0 -85 -40 0 c-33 0 -42 4 -49 23 -7 18 -8 14 -8 -20 l1 -42 60 -10 c163
-28 1128 -162 1133 -157 6 6 18 313 29 717 l7 277 -129 6 c-260 12 -302 13
-454 4z"></path>
</g>
</svg>