 <svg version="1.0" xmlns="http://www.w3.org/2000/svg" id="mask" viewBox="0 0 700.000000 423.000000" preserveAspectRatio="xMidYMid meet">

<g transform="translate(0.000000,423.000000) scale(0.100000,-0.100000)">
<path d="M790 3924 c-288 -24 -773 -53 -782 -48 -4 3 -8 -83 -8 -190 l0 -196
33 0 c17 0 203 9 412 19 209 11 381 18 383 17 1 -2 22 -574 47 -1272 61 -1724
62 -1734 68 -1740 2 -3 42 -9 88 -14 67 -7 120 -5 262 12 l178 22 -6 140 c-3
78 -10 278 -15 445 l-8 303 -31 32 c-30 31 -31 35 -31 124 l0 92 58 0 c62 0
389 16 546 26 l99 6 -50 32 c-101 64 -134 96 -98 96 8 0 15 -4 15 -8 0 -9 79
-57 95 -57 6 -1 20 -7 33 -13 12 -7 28 -10 35 -5 6 4 24 6 39 4 16 -1 28 2 28
8 0 6 -5 11 -11 11 -5 0 -7 5 -4 11 5 7 12 5 23 -5 13 -11 22 -12 35 -4 18 9
18 11 1 29 -9 10 -12 19 -6 19 6 0 14 -5 17 -10 9 -14 27 -12 50 6 20 15 20
15 -4 35 -13 11 -21 22 -17 26 3 3 15 -2 26 -12 19 -17 21 -17 40 0 25 22 39
13 16 -11 -16 -15 -16 -18 1 -36 17 -19 18 -19 36 3 9 12 20 19 24 15 3 -3 -2
-14 -11 -25 -17 -18 -16 -20 4 -26 12 -4 27 -2 33 4 17 17 29 13 22 -8 -7 -23
29 -35 46 -15 12 15 33 9 24 -7 -4 -5 5 -9 19 -9 15 0 30 8 36 20 12 23 35 27
26 5 -10 -26 16 -16 46 17 28 32 29 32 24 8 -4 -23 -2 -21 28 13 23 25 39 35
50 31 24 -9 20 -20 -20 -43 -19 -12 -32 -26 -29 -31 3 -6 2 -10 -2 -10 -5 0
-17 -6 -27 -13 -15 -11 7 -12 131 -9 147 4 149 4 266 -32 112 -34 120 -35 154
-21 19 8 48 15 64 15 24 0 28 -4 31 -31 3 -31 5 -32 113 -65 60 -18 110 -32
111 -31 6 6 21 2113 16 2119 -4 3 -106 16 -227 27 -121 11 -580 55 -1020 96
-440 42 -903 87 -1030 100 -256 28 -263 28 -495 9z m514 -1946 c3 -13 6 -51 6
-85 l0 -62 -54 -6 c-30 -4 -59 -4 -65 0 -6 3 -11 40 -11 85 l0 79 33 4 c76 9
84 8 91 -15z"></path>
<path d="M2294 1799 c-16 -17 -16 -22 -4 -30 23 -14 45 -6 48 17 4 29 -22 37
-44 13z"></path>
<path d="M2231 1756 c-10 -12 -8 -17 9 -26 26 -14 46 0 37 24 -8 20 -31 21
-46 2z"></path>
<path d="M2346 1763 c-11 -11 -6 -23 8 -23 8 0 17 4 20 9 7 10 -19 23 -28 14z"></path>
<path d="M2629 1743 c-13 -16 -12 -17 4 -4 9 7 17 15 17 17 0 8 -8 3 -21 -13z"></path>
<path d="M2432 1738 c5 -15 28 -18 29 -3 0 6 -7 12 -17 13 -10 3 -15 -1 -12
-10z"></path>
<path d="M2177 1734 c-11 -11 3 -24 24 -24 12 0 19 5 17 13 -5 14 -31 21 -41
11z"></path>
<path d="M2124 1715 c21 -16 32 -13 21 4 -3 6 -14 11 -23 11 -15 -1 -15 -2 2
-15z"></path>
<path d="M2285 1710 c-3 -6 1 -7 9 -4 18 7 21 14 7 14 -6 0 -13 -4 -16 -10z"></path>
</g>
</svg>