 <svg version="1.0" xmlns="http://www.w3.org/2000/svg" viewBox="0 0 700.000000 423.000000" preserveAspectRatio="xMidYMid meet" id="mask">

<g transform="translate(0.000000,423.000000) scale(0.100000,-0.100000)">
<path d="M1620 3329 c-184 -46 -713 -172 -900 -214 -112 -26 -210 -51 -216
-56 -28 -23 -33 -83 -44 -499 -6 -239 -14 -437 -19 -440 -10 -6 -25 -343 -15
-353 4 -4 17 5 30 18 13 14 32 25 44 25 11 0 28 9 37 19 13 16 21 18 36 10 10
-6 21 -8 24 -6 2 3 16 -1 30 -8 18 -10 32 -11 45 -4 16 8 18 23 18 119 0 60 3
111 8 113 4 3 171 0 372 -7 l364 -11 -3 -127 c-2 -100 0 -131 13 -150 15 -23
16 -26 16 -50 0 -6 7 -3 16 8 14 18 15 17 10 -19 -3 -27 -1 -37 7 -34 7 2 13
9 13 15 1 7 2 20 3 30 2 16 2 16 12 -1 6 -10 15 -14 22 -10 7 4 7 0 -2 -10
-12 -15 -9 -16 23 -15 20 1 36 5 36 10 0 4 7 8 17 8 9 0 14 3 10 6 -6 6 16 34
27 34 3 0 6 -12 6 -26 0 -16 5 -24 12 -22 7 3 13 13 13 24 0 12 6 18 18 18 9
-1 17 3 17 9 0 5 11 -3 25 -18 27 -32 32 -27 37 35 3 29 9 38 41 53 l37 17 0
107 0 106 158 -6 c86 -4 235 -7 330 -7 l172 0 0 -180 0 -180 -54 0 c-39 0 -60
-5 -72 -17 -17 -17 -13 -18 71 -21 110 -4 125 6 101 63 -24 58 -21 89 12 104
15 8 34 17 42 21 8 4 24 4 34 0 31 -11 64 0 70 23 3 12 6 68 6 124 l0 102 28
3 27 3 8 414 c4 228 4 417 0 422 -4 4 -199 86 -433 182 -234 96 -474 196 -534
221 -60 25 -114 46 -120 45 -6 -1 -45 -9 -86 -20z m-740 -383 c151 -19 466
-40 479 -31 6 3 38 3 71 -1 l60 -7 -1 -151 c-2 -184 -11 -291 -24 -290 -72 10
-392 27 -537 28 -102 0 -189 4 -193 7 -11 12 7 459 19 459 7 0 63 -6 126 -14z
m1350 -91 c102 -9 211 -13 242 -10 32 3 73 3 92 -1 l35 -6 -6 -207 c-3 -113
-7 -208 -9 -210 -2 -3 -66 1 -142 8 -75 7 -224 13 -329 13 l-193 1 0 212 c0
116 3 215 7 219 5 4 33 5 63 2 30 -3 138 -12 240 -21z"></path>
<path d="M288 2836 l-126 -132 -4 -159 c-4 -202 0 -627 6 -633 3 -2 17 -4 31
-4 23 0 25 -4 25 -44 0 -43 -1 -43 -29 -38 -25 5 -29 3 -35 -26 -3 -18 -6 -54
-6 -81 0 -37 4 -49 17 -53 45 -12 196 -36 201 -32 3 4 9 112 13 242 4 139 11
239 17 243 6 4 12 134 16 341 4 184 9 374 12 423 3 48 2 87 -3 86 -4 0 -65
-60 -135 -133z"></path>
<path d="M5080 1916 l0 -306 50 0 50 0 0 281 0 282 233 -7 c127 -3 278 -9 335
-13 l102 -6 0 -267 0 -268 23 -6 c12 -3 32 -6 45 -6 l22 0 0 275 0 275 133 -6
c72 -3 213 -9 312 -13 l180 -6 -4 -262 -3 -263 46 0 46 0 0 231 c0 213 -1 229
-16 214 -24 -24 -35 -5 -23 39 7 26 15 36 25 32 10 -4 14 2 14 18 0 23 -4 24
-82 30 -46 3 -236 10 -423 16 -473 14 -874 29 -977 36 l-88 6 0 -306z m70 220
c0 -30 -15 -56 -32 -56 -5 0 -7 15 -6 33 4 67 38 89 38 23z"></path>
<path d="M4710 2185 c0 -25 0 -25 95 -25 l95 0 1 -162 c1 -90 0 -211 -1 -269
l-2 -106 68 -6 c37 -4 69 -6 70 -4 2 2 6 492 5 565 l-1 32 -165 0 -165 0 0
-25z m270 -485 c0 -57 -1 -60 -24 -60 -22 0 -24 3 -19 40 4 26 2 40 -6 40 -18
0 -13 28 7 33 40 11 42 8 42 -53z"></path>
<path d="M4956 1685 c4 -8 8 -15 10 -15 2 0 4 7 4 15 0 8 -4 15 -10 15 -5 0
-7 -7 -4 -15z"></path>
<path d="M2087 1640 c-5 -18 0 -20 37 -20 47 0 57 5 49 26 -3 9 -20 14 -43 14
-29 0 -39 -4 -43 -20z"></path>
<path d="M420 1640 c0 -6 7 -10 15 -10 8 0 15 2 15 4 0 2 -7 6 -15 10 -8 3
-15 1 -15 -4z"></path>
<path d="M1527 1644 c-11 -11 3 -24 18 -18 8 4 12 10 9 15 -6 11 -18 12 -27 3z"></path>
</g>
</svg>