 <svg version="1.0" xmlns="http://www.w3.org/2000/svg" viewBox="0 0 700.000000 423.000000" preserveAspectRatio="xMidYMid meet" id="mask">

<g transform="translate(0.000000,423.000000) scale(0.100000,-0.100000)">
<path d="M1670 3433 c-30 -8 -266 -64 -524 -123 -257 -60 -471 -111 -474 -115
-3 -3 3 -12 14 -20 18 -14 17 -15 -9 -9 -23 5 -29 3 -34 -15 -3 -12 -10 -18
-17 -14 -41 26 -133 23 -270 -7 -71 -16 -132 -32 -135 -37 -3 -4 -12 -8 -18
-9 -7 -1 -19 -2 -27 -2 -7 -1 -50 -59 -95 -128 l-81 -125 0 -70 0 -69 78 1 77
0 50 60 c28 32 89 99 137 146 l88 88 0 -125 c0 -224 -20 -733 -29 -744 -5 -6
-12 -118 -16 -248 -7 -220 -6 -238 10 -238 12 0 16 8 14 33 -1 17 2 40 6 51 5
11 3 26 -4 37 -7 12 -7 19 -1 19 6 0 10 62 10 170 0 135 3 171 14 177 12 7 16
87 23 448 10 471 12 484 62 504 14 6 98 26 186 47 88 20 338 79 555 131 217
52 411 97 430 100 25 3 55 -4 106 -26 39 -17 275 -114 523 -215 249 -102 459
-189 467 -194 13 -7 15 -65 14 -430 0 -281 3 -422 10 -422 6 0 10 47 10 125
l0 125 26 0 25 0 -3 -140 c-2 -77 0 -140 5 -140 4 0 7 65 7 145 l0 145 -30 0
c-23 0 -30 4 -30 20 0 17 7 20 39 20 l40 0 -6 -211 c-5 -185 -4 -213 9 -223
14 -10 14 -16 2 -51 -17 -51 -18 -106 0 -139 12 -24 13 -19 20 66 3 50 7 146
8 212 1 67 3 95 5 64 l4 -58 37 2 37 1 -33 4 -33 4 3 139 c2 76 0 136 -4 133
-5 -2 -8 3 -8 11 0 14 17 16 110 16 l110 0 0 -142 c0 -79 3 -161 5 -183 4 -30
3 -35 -4 -20 -7 14 -10 -17 -10 -102 l-1 -123 -90 0 -90 0 0 -30 0 -30 110 0
110 0 0 319 c0 176 1 326 2 333 2 10 -35 14 -170 20 -95 3 -179 8 -186 11 -8
3 -12 15 -9 30 4 22 9 24 51 20 102 -8 1188 -53 1517 -63 193 -6 364 -13 381
-16 28 -4 32 -9 36 -39 2 -19 0 -35 -4 -35 -5 0 -31 11 -59 25 l-50 26 3 -53
3 -53 70 -8 c39 -4 116 -5 173 -2 l102 6 0 -305 c0 -168 4 -306 9 -306 10 0
26 583 16 599 -8 14 14 14 315 1 129 -5 453 -17 720 -25 267 -8 529 -18 582
-20 62 -3 99 -1 103 5 5 8 11 8 20 0 21 -17 109 -8 113 11 4 22 -36 29 -172
29 -127 0 -1709 57 -1833 66 -72 5 -82 8 -87 27 -12 45 -9 47 63 47 55 0 70 3
75 17 13 34 121 26 -1179 84 -517 22 -946 43 -953 45 -10 3 -12 36 -10 141 l3
138 115 32 c63 18 127 33 143 33 22 0 27 5 27 24 0 13 -6 26 -12 29 -7 3 -143
60 -303 127 -798 336 -1029 430 -1053 429 -15 0 -52 -8 -82 -16z"></path>
<path d="M877 2729 c-4 -118 -3 -216 1 -220 5 -5 452 -28 469 -24 0 0 4 95 8
211 l8 210 -209 13 c-115 7 -223 15 -240 17 l-31 6 -6 -213z m202 165 c23 -5
23 -8 17 -66 -3 -34 -6 -114 -6 -179 l0 -119 -74 0 c-41 0 -81 3 -90 6 -14 5
-16 31 -16 183 0 98 2 180 5 183 6 6 124 0 164 -8z m180 -10 l61 -7 0 -178 0
-179 -90 0 -90 0 0 178 c0 98 3 182 7 185 8 9 33 9 112 1z"></path>
<path d="M2050 2657 l0 -205 205 -7 c113 -4 207 -6 209 -4 2 2 5 92 7 199 l4
195 -110 7 c-60 3 -156 9 -212 13 l-103 6 0 -204z m188 18 c4 -207 9 -196 -86
-193 -73 3 -77 4 -76 26 0 12 1 90 2 172 l2 151 78 -3 77 -3 3 -150z m180 135
c22 0 22 0 22 -170 l0 -171 -77 3 -78 3 -3 110 c-2 61 0 139 3 174 l7 64 51
-7 c29 -3 62 -6 75 -6z"></path>
<path d="M3546 2328 c-10 -37 -7 -156 4 -163 6 -4 10 24 10 76 l0 82 46 -7
c26 -3 55 -6 66 -6 18 0 19 -9 16 -214 l-3 -214 50 -6 c28 -3 184 -6 347 -6
l298 0 4 23 c9 43 17 427 9 427 -4 0 -179 7 -388 15 -494 19 -451 20 -459 -7z
m320 -110 c-3 -50 -6 -142 -6 -205 l0 -114 -67 3 -68 3 1 33 c0 17 1 109 2
202 l2 170 71 0 72 0 -7 -92z m172 77 c2 -1 0 -91 -4 -199 l-7 -196 -64 0 -63
0 0 198 c0 109 3 202 6 205 6 6 124 -2 132 -8z m162 -194 c0 -110 -4 -202 -8
-205 -5 -3 -34 -2 -65 1 l-57 6 0 198 0 199 65 0 65 0 0 -199z m164 167 c0
-10 -1 -99 -2 -198 l-2 -180 -60 0 c-45 0 -62 4 -67 15 -3 9 -2 99 2 201 l7
185 62 -3 c51 -3 61 -6 60 -20z"></path>
<path d="M3069 2303 c36 -4 40 -7 44 -36 4 -31 5 -31 3 3 -1 34 -2 35 -44 36
l-42 1 39 -4z"></path>
<path d="M5190 2164 c0 -5 66 -11 148 -13 81 -2 215 -6 297 -10 l150 -6 3
-287 c1 -163 6 -288 11 -288 5 0 16 -3 25 -6 14 -6 16 24 16 294 l0 299 -152
7 c-409 16 -498 18 -498 10z"></path>
<path d="M4710 2150 c0 -5 18 -10 40 -10 l40 0 0 -97 c0 -54 5 -105 10 -113 7
-10 10 12 10 73 0 80 2 87 20 87 19 0 20 -7 20 -119 0 -66 -3 -121 -7 -124 -5
-2 -2 -2 5 -1 9 3 12 -28 12 -127 l0 -129 26 -10 c14 -6 30 -8 35 -4 15 9 10
34 -6 34 -13 0 -15 37 -15 269 l0 268 -52 7 c-78 9 -138 7 -138 -4z m160 -30
c0 -16 -7 -20 -30 -20 -23 0 -30 4 -30 20 0 16 7 20 30 20 23 0 30 -4 30 -20z"></path>
<path d="M5946 2139 c-8 -23 -12 -579 -4 -579 6 0 17 578 11 589 -2 2 -5 -2
-7 -10z"></path>
<path d="M6080 2131 c63 -5 184 -12 268 -16 l152 -7 0 -279 0 -279 30 0 30 0
0 284 0 283 -92 6 c-51 4 -185 9 -298 11 -161 4 -180 3 -90 -3z"></path>
<path d="M4722 2103 c10 -2 18 -17 21 -36 4 -31 4 -31 5 6 2 33 -1 37 -20 36
-16 -1 -18 -3 -6 -6z"></path>
<path d="M6657 1996 c-10 -155 -9 -396 2 -396 15 0 21 72 20 270 0 224 -12
290 -22 126z"></path>
<path d="M830 1916 c0 -89 4 -135 10 -131 6 3 10 2 10 -3 0 -6 -8 -13 -17 -16
-12 -5 -13 -10 -6 -17 24 -24 31 5 32 128 1 71 5 131 9 135 4 4 44 4 90 1 l82
-6 2 -71 c0 -39 1 -76 1 -82 0 -6 10 -11 23 -11 23 0 24 2 24 83 l0 84 91 0
92 0 -5 -110 c-4 -101 -3 -110 14 -110 16 0 18 11 18 125 l0 125 -122 0 c-68
0 -174 3 -235 7 l-113 6 0 -137z"></path>
<path d="M2730 1925 c0 -69 4 -125 9 -125 11 0 21 85 21 178 0 57 -3 72 -15
72 -13 0 -15 -21 -15 -125z"></path>
<path d="M1990 1920 c0 -60 4 -100 10 -100 6 0 10 35 10 85 l0 85 80 0 80 0 0
-95 c0 -95 0 -96 20 -78 15 15 20 35 22 93 l3 75 78 3 77 3 0 -76 c0 -57 3
-76 13 -73 8 3 13 32 15 85 l3 80 -77 7 c-42 3 -135 6 -206 6 l-128 0 0 -100z"></path>
<path d="M2943 1753 c-18 -7 -16 -38 2 -53 13 -11 15 -7 15 24 0 20 -1 36 -2
35 -2 0 -9 -3 -15 -6z"></path>
<path d="M825 1700 c-8 -12 4 -54 13 -45 3 3 7 14 9 25 3 21 -12 36 -22 20z"></path>
<path d="M2107 1693 c-12 -11 14 -33 39 -33 17 0 24 6 24 20 0 15 -7 20 -28
20 -16 0 -32 -3 -35 -7z"></path>
<path d="M885 1680 c-17 -7 -15 -9 13 -9 17 -1 32 4 32 9 0 12 -17 12 -45 0z"></path>
<path d="M4783 1673 c-19 -7 -17 -93 2 -93 11 0 15 12 15 50 0 28 -1 50 -2 49
-2 0 -9 -3 -15 -6z"></path>
<path d="M5177 1603 c-11 -10 -8 -43 3 -43 6 0 10 11 10 25 0 26 -2 29 -13 18z"></path>
</g>
</svg>