 <svg version="1.0" xmlns="http://www.w3.org/2000/svg" viewBox="0 0 700.000000 423.000000" preserveAspectRatio="xMidYMid meet" id="mask">
<g transform="translate(0.000000,423.000000) scale(0.100000,-0.100000)">
<path d="M0 2789 l0 -1074 33 -14 c17 -8 64 -41 102 -73 l70 -59 3 90 c2 70 6
89 16 85 17 -6 30 51 17 74 -8 15 -10 15 -15 2 -13 -41 -15 -41 -10 0 9 64 5
222 -6 310 -9 63 -8 77 4 86 9 6 14 23 13 40 -1 20 3 29 13 29 10 0 15 -10 15
-34 0 -30 4 -36 29 -42 16 -5 32 -7 35 -5 3 2 3 69 -1 148 -14 297 -29 881
-27 1091 0 120 -2 221 -6 225 -4 4 -14 -3 -22 -15 -15 -23 -43 -21 -43 3 0 15
-32 25 -65 21 -14 -1 -20 4 -20 18 0 14 6 19 20 17 11 -1 38 -3 60 -4 22 0 44
-3 50 -6 5 -4 32 -7 60 -9 27 -2 68 -5 90 -7 130 -14 293 -27 327 -28 21 0 41
-4 44 -9 2 -5 35 -8 72 -9 37 0 83 -2 102 -5 63 -9 533 -54 620 -59 47 -3 107
-10 135 -16 27 -6 158 -19 290 -30 132 -11 303 -26 380 -34 77 -7 147 -13 155
-13 23 0 277 -23 340 -31 39 -5 55 -11 55 -22 0 -12 -10 -14 -45 -12 l-45 3
-2 -393 c-1 -216 -7 -476 -14 -578 -7 -102 -14 -210 -16 -240 -2 -30 -6 -76
-9 -101 -5 -41 -3 -49 20 -71 17 -15 29 -40 34 -68 l8 -45 77 3 c86 3 90 -1
60 -63 -9 -19 -14 -38 -10 -42 10 -9 224 -43 280 -43 l47 0 0 54 c0 63 13 72
86 61 l43 -6 3 -57 c2 -31 8 -57 13 -57 6 0 14 34 18 75 15 139 20 125 -47
128 l-58 3 6 37 c3 20 13 84 22 142 9 58 19 109 23 113 4 4 50 6 102 5 l94 -3
12 -55 c6 -30 12 -74 12 -97 1 -24 5 -43 10 -43 8 0 3 1379 -5 1389 -6 7 -362
45 -2169 236 -286 30 -583 61 -660 70 -126 13 -624 66 -767 82 l-58 6 0 -1074z
m2870 -534 c0 -14 6 -25 13 -25 16 -1 -32 -40 -49 -40 -18 0 -18 14 1 30 9 8
13 21 9 36 -5 18 -2 24 10 24 10 0 16 -9 16 -25z"></path>
<path d="M310 3650 c0 -13 7 -20 20 -20 13 0 20 7 20 20 0 13 -7 20 -20 20
-13 0 -20 -7 -20 -20z"></path>
<path d="M376 3645 c-9 -23 55 -38 113 -26 2 1 -2 7 -9 15 -6 8 -18 12 -26 9
-8 -3 -14 0 -14 6 0 17 -57 13 -64 -4z"></path>
<path d="M516 3634 c-9 -24 -8 -26 21 -22 37 4 45 38 10 38 -14 0 -28 -7 -31
-16z"></path>
<path d="M590 3625 c0 -8 7 -15 16 -15 14 0 14 3 4 15 -7 8 -14 15 -16 15 -2
0 -4 -7 -4 -15z"></path>
<path d="M635 3620 c-3 -5 -1 -10 4 -10 6 0 11 5 11 10 0 6 -2 10 -4 10 -3 0
-8 -4 -11 -10z"></path>
<path d="M670 3615 c0 -8 9 -15 20 -15 11 0 20 7 20 15 0 8 -9 15 -20 15 -11
0 -20 -7 -20 -15z"></path>
<path d="M735 3610 c3 -5 8 -10 11 -10 2 0 4 5 4 10 0 6 -5 10 -11 10 -5 0 -7
-4 -4 -10z"></path>
<path d="M787 3614 c-13 -13 5 -24 39 -24 24 0 34 5 34 15 0 10 -10 15 -33 15
-19 0 -37 -3 -40 -6z"></path>
<path d="M922 3601 c-11 -7 -11 -9 1 -14 16 -6 27 0 27 15 0 10 -11 10 -28 -1z"></path>
<path d="M962 3588 c7 -19 38 -22 38 -4 0 10 -9 16 -21 16 -12 0 -19 -5 -17
-12z"></path>
<path d="M1047 3586 c-3 -7 -1 -18 5 -24 7 -7 4 -18 -7 -35 -9 -14 -15 -36
-13 -49 2 -18 10 -24 38 -26 300 -28 1117 -88 1122 -83 12 12 -34 131 -51 131
-9 0 -104 9 -211 20 -132 13 -196 16 -200 9 -4 -6 -18 -7 -34 -3 -16 4 -32 1
-42 -6 -11 -10 -18 -10 -26 -2 -7 7 -20 12 -30 12 -10 0 -18 7 -18 15 0 8 -3
15 -7 15 -5 0 -109 9 -233 20 -270 24 -286 24 -293 6z"></path>
<path d="M2200 3474 c0 -11 6 -15 20 -11 11 3 22 2 24 -1 4 -6 38 -7 78 -3 30
3 -12 20 -64 25 -49 5 -58 4 -58 -10z"></path>
<path d="M2393 3458 c2 -7 10 -13 17 -13 7 0 15 6 18 13 2 7 -5 12 -18 12 -13
0 -20 -5 -17 -12z"></path>
<path d="M2445 3450 c3 -5 8 -10 11 -10 2 0 4 5 4 10 0 6 -5 10 -11 10 -5 0
-7 -4 -4 -10z"></path>
<path d="M2502 3448 c6 -18 28 -21 28 -4 0 9 -7 16 -16 16 -9 0 -14 -5 -12
-12z"></path>
<path d="M2567 3453 c-13 -12 -7 -23 13 -23 11 0 20 7 20 15 0 15 -21 21 -33
8z"></path>
<path d="M2630 3434 c0 -9 7 -14 17 -12 25 5 28 28 4 28 -12 0 -21 -6 -21 -16z"></path>
<path d="M2710 3430 c0 -5 12 -10 26 -10 14 0 23 4 19 10 -3 6 -15 10 -26 10
-10 0 -19 -4 -19 -10z"></path>
<path d="M241 2181 c-11 -7 -12 -35 -6 -152 7 -140 13 -170 56 -266 33 -73 24
-93 -42 -93 l-29 0 6 -57 c4 -32 13 -73 21 -90 13 -29 20 -33 54 -33 21 0 40
3 42 8 3 4 0 140 -5 302 -8 275 -21 397 -38 370 -5 -8 -12 -7 -23 4 -18 18
-18 18 -36 7z"></path>
<path d="M3546 1972 c-2 -4 2 -34 10 -67 7 -33 14 -75 14 -93 l0 -33 48 3 47
3 3 98 3 97 -60 0 c-33 0 -62 -3 -65 -8z"></path>
</g>
</svg>