 <svg version="1.0" xmlns="http://www.w3.org/2000/svg" viewBox="0 0 700.000000 423.000000" preserveAspectRatio="xMidYMid meet" id="mask">
<g transform="translate(0.000000,423.000000) scale(0.100000,-0.100000)">
<path d="M1026 3448 c-2 -7 -13 -76 -25 -153 -13 -77 -38 -212 -58 -300 l-35
-160 17 -560 c10 -308 18 -560 19 -561 0 -1 31 4 69 10 l67 10 0 86 c0 47 -9
346 -20 665 -11 319 -20 590 -20 603 0 20 5 22 53 22 28 0 141 -5 249 -12
l196 -11 6 -91 c3 -50 11 -289 17 -531 6 -242 14 -444 18 -448 4 -4 34 -4 66
-1 l58 7 -7 326 c-3 179 -9 416 -13 525 l-6 199 224 -8 c123 -4 227 -9 230
-11 3 -2 9 -189 13 -416 3 -227 9 -457 13 -510 l6 -98 48 0 49 0 0 168 c0 92
-5 327 -10 522 -9 307 -8 356 4 366 13 9 10 28 -19 139 -19 71 -38 131 -42
135 -4 4 -258 26 -563 49 -305 23 -565 44 -578 47 -13 3 -24 -1 -26 -8z"></path>
<path d="M6848 3181 c-42 -9 -79 -18 -82 -21 -3 -3 -10 -251 -16 -550 -6 -300
-15 -548 -18 -552 -4 -4 -135 -4 -292 0 l-285 7 4 503 3 502 -28 0 c-16 0 -39
-3 -51 -6 -23 -6 -23 -6 -23 -238 -1 -127 -5 -370 -10 -541 -5 -170 -6 -313
-2 -316 4 -4 162 -12 352 -18 190 -6 402 -14 473 -18 l127 -6 0 62 0 61 -32 0
-31 0 6 328 c4 180 10 438 14 575 7 284 21 255 -109 228z"></path>
<path d="M4338 2822 l-38 -3 0 -355 0 -354 -120 0 -120 0 -2 338 c-3 329 -3
337 -23 337 -20 0 -20 -8 -23 -367 l-2 -368 27 0 c53 0 458 -20 521 -25 l62
-6 0 35 c0 41 -12 46 -122 46 -42 0 -83 3 -92 6 -14 5 -16 47 -16 359 0 195
-3 355 -7 357 -5 2 -25 2 -45 0z"></path>
</g>
</svg>