 <svg version="1.0" xmlns="http://www.w3.org/2000/svg" width="700.000000pt" height="423.000000pt" viewBox="0 0 700.000000 423.000000" preserveAspectRatio="xMidYMid meet">
<metadata>
Created by potrace 1.12, written by Peter Selinger 2001-2015
</metadata>
<g transform="translate(0.000000,423.000000) scale(0.100000,-0.100000)" fill="#000000" stroke="none">
<path d="M491 3462 l-491 -205 0 -267 0 -267 153 34 c288 63 452 105 468 119
21 19 43 18 62 -4 25 -27 21 -42 -12 -42 -17 0 -33 -5 -36 -10 -8 -13 -5 -814
4 -1374 l6 -379 85 -29 c46 -15 90 -28 96 -28 8 0 15 25 19 67 12 133 26 208
42 225 24 27 75 33 113 13 17 -9 33 -15 35 -13 11 10 75 155 75 169 0 28 11
29 63 3 67 -34 137 -101 189 -182 51 -81 55 -84 93 -76 76 14 92 24 119 73
l26 49 0 628 c1 346 5 719 10 829 5 135 5 204 -2 213 -6 6 -23 12 -38 12 -32
0 -55 23 -46 45 7 20 40 19 72 -1 13 -9 77 -27 142 -39 64 -12 353 -68 642
-124 649 -126 736 -143 779 -144 40 -2 54 -25 21 -34 -22 -6 -22 -7 -16 -152
3 -80 9 -287 12 -458 l6 -313 58 0 58 0 16 -41 c13 -32 21 -40 39 -37 19 3 23
11 30 63 4 33 6 78 4 100 l-3 40 -52 3 -52 3 0 80 0 79 58 1 c107 2 157 -3
164 -14 4 -7 8 -42 8 -79 l0 -67 -52 -3 c-53 -3 -53 -3 -56 -38 -2 -19 -1 -63
3 -97 5 -51 10 -63 24 -63 19 0 31 -40 31 -101 0 -33 9 -35 153 -45 140 -9
158 -25 122 -111 -9 -20 -12 -40 -8 -44 6 -6 185 -29 223 -29 6 0 10 239 10
644 0 401 4 647 10 651 5 3 87 12 182 21 95 8 188 17 205 20 l33 5 0 199 c0
110 -3 200 -7 200 -5 0 -236 -33 -515 -73 l-508 -74 -207 59 c-115 32 -413
117 -663 188 -401 113 -696 197 -1285 364 -88 25 -174 49 -191 55 -28 8 -83
-13 -523 -197z m287 -2221 c3 -56 1 -62 -15 -59 -14 2 -19 14 -21 52 -4 56 3
79 21 74 7 -3 13 -28 15 -67z"></path>
<path d="M6900 3504 c-113 -18 -1199 -174 -1211 -174 -5 0 -9 -97 -9 -240 0
-132 2 -240 4 -240 3 0 184 16 403 35 219 19 399 35 400 35 2 0 4 -244 5 -542
l3 -543 80 -1 c44 -1 119 -5 168 -9 99 -8 93 -1 100 -118 3 -38 9 -73 15 -79
6 -6 28 -14 49 -18 21 -4 50 -11 66 -15 l27 -7 0 966 c0 531 -3 965 -7 965 -5
-1 -46 -7 -93 -15z"></path>
<path d="M1912 2933 l3 -37 540 -92 c297 -51 544 -89 548 -84 15 14 -3 50 -26
55 -66 15 -1040 195 -1053 195 -11 0 -14 -9 -12 -37z"></path>
<path d="M231 2759 c-124 -27 -226 -51 -229 -53 -2 -2 -2 -19 0 -38 l3 -35
195 37 c107 21 212 40 233 44 36 7 37 8 37 51 0 25 -3 45 -7 44 -5 0 -109 -23
-232 -50z"></path>
<path d="M6497 1593 c-9 -8 -9 -68 -1 -76 4 -3 20 1 36 9 16 8 37 12 47 9 14
-4 20 1 24 22 3 15 5 29 4 29 -9 6 -105 13 -110 7z"></path>
<path d="M6718 1550 c2 -16 7 -30 11 -30 4 0 17 14 29 30 l23 30 -34 0 c-32 0
-33 -2 -29 -30z"></path>
<path d="M2125 1510 c-7 -12 2 -30 16 -30 12 0 12 27 0 35 -5 3 -12 1 -16 -5z"></path>
<path d="M1950 1335 c0 -8 5 -15 10 -15 6 0 10 7 10 15 0 8 -4 15 -10 15 -5 0
-10 -7 -10 -15z"></path>
</g>
</svg>