 <svg version="1.0" xmlns="http://www.w3.org/2000/svg" viewBox="0 0 700.000000 423.000000" preserveAspectRatio="xMidYMid meet" id="mask">

<g transform="translate(0.000000,423.000000) scale(0.100000,-0.100000)">
<path d="M1090 4226 c0 -7 371 -109 377 -103 3 4 2 17 -4 30 -17 36 -166 77
-282 77 -50 0 -91 -2 -91 -4z"></path>
<path d="M1415 4214 c28 -8 178 -53 335 -100 157 -47 319 -95 360 -107 70 -21
93 -40 53 -43 -10 -1 -30 -5 -45 -9 -24 -6 -28 -4 -28 14 0 14 -8 23 -25 27
-14 4 -27 5 -29 3 -2 -2 0 -184 5 -404 5 -220 6 -687 3 -1037 l-7 -638 71 0
c39 0 73 -4 76 -8 3 -5 -4 -23 -15 -40 -10 -18 -19 -35 -19 -37 0 -3 21 -5 48
-5 26 0 72 -3 102 -7 l55 -7 -40 -12 c-38 -12 -34 -12 60 -12 55 0 91 2 80 5
-66 14 -23 31 83 32 56 1 60 5 37 35 -31 42 -22 46 99 46 l115 0 3 628 c2 345
2 867 0 1160 l-3 532 -712 -1 c-631 -1 -706 -3 -662 -15z m1108 -296 c14 -7
17 -23 17 -90 0 -69 4 -88 26 -125 14 -24 32 -76 40 -116 14 -65 14 -72 -1
-83 -51 -37 -290 -23 -323 19 -13 17 22 151 50 190 19 26 24 49 28 122 l5 90
40 6 c44 6 91 1 118 -13z"></path>
<path d="M0 1259 l0 -531 38 6 c20 3 65 8 100 12 73 7 63 -16 92 214 30 237
58 377 87 443 l26 57 -44 112 c-27 70 -55 124 -76 145 -28 31 -37 34 -75 31
-38 -2 -43 0 -46 20 -3 19 -9 22 -53 22 l-49 0 0 -531z"></path>
<path d="M293 1678 c3 -7 20 -50 38 -95 17 -46 36 -83 41 -83 4 0 6 10 3 23
-39 160 -40 162 -64 165 -17 3 -22 0 -18 -10z"></path>
<path d="M380 1662 c0 -9 6 -39 13 -66 13 -49 13 -49 28 -25 19 30 43 89 38
93 -2 2 -21 6 -41 9 -31 5 -38 3 -38 -11z"></path>
<path d="M673 1664 c-5 -13 -20 -15 -86 -13 l-81 4 -8 -38 c-4 -21 -21 -65
-38 -98 l-29 -60 21 -90 21 -91 56 6 c143 17 136 14 159 62 19 39 22 61 22
189 0 124 -2 145 -15 145 -9 0 -18 -7 -22 -16z"></path>
<path d="M940 1628 c0 -20 44 -128 53 -128 16 0 18 30 7 84 -10 49 -14 56 -36
56 -13 0 -24 -5 -24 -12z"></path>
<path d="M1042 1620 c0 -14 2 -19 5 -12 2 6 2 18 0 25 -3 6 -5 1 -5 -13z"></path>
<path d="M1105 1604 c-4 -16 -14 -51 -22 -77 -14 -45 -13 -55 8 -148 l22 -99
62 0 c33 0 66 5 72 11 18 18 57 6 70 -22 18 -37 59 -28 77 16 14 33 49 82 124
175 42 52 97 148 89 156 -2 2 -114 7 -250 10 l-246 7 -6 -29z"></path>
<path d="M1816 1588 c-3 -13 -7 -103 -10 -200 -3 -140 -2 -178 9 -182 22 -8
25 4 25 85 0 51 4 80 13 86 6 4 74 6 150 4 l137 -3 0 60 c0 82 -9 118 -36 147
-22 24 -27 25 -153 25 -127 0 -131 -1 -135 -22z"></path>
<path d="M2393 1590 c-39 -23 -53 -67 -53 -167 l0 -73 65 0 c64 0 65 0 65 28
0 15 7 62 15 105 23 121 22 127 -22 127 -21 0 -52 -9 -70 -20z"></path>
<path d="M2536 1594 c-3 -9 -6 -34 -6 -57 l1 -42 19 50 c11 28 20 53 20 58 0
14 -28 7 -34 -9z"></path>
<path d="M2638 1593 c5 -10 20 -43 35 -74 15 -31 33 -85 40 -120 13 -64 13
-64 47 -64 l35 0 -3 110 c-2 61 -8 122 -14 138 -10 26 -13 27 -79 27 -61 0
-68 -2 -61 -17z"></path>
<path d="M1648 1543 c-10 -27 -47 -93 -83 -147 -36 -55 -65 -103 -65 -108 0
-4 9 -8 20 -8 12 0 22 -9 26 -24 5 -20 14 -24 57 -30 98 -11 90 -28 81 156 -4
90 -10 173 -13 186 -5 19 -9 16 -23 -25z"></path>
<path d="M910 1552 c0 -4 -16 -31 -35 -61 -30 -46 -35 -61 -35 -114 0 -47 3
-58 12 -49 7 7 21 12 32 12 15 0 29 16 50 55 l28 55 -22 55 c-21 51 -30 66
-30 47z"></path>
<path d="M2577 1510 c-9 -30 -18 -66 -21 -80 -3 -14 -7 -37 -11 -52 -5 -28 -5
-28 51 -28 l57 0 -7 55 c-3 30 -17 78 -30 107 l-23 53 -16 -55z"></path>
<path d="M1030 1404 c0 -10 5 -26 10 -34 8 -11 9 -7 4 15 -8 37 -14 45 -14 19z"></path>
<path d="M377 1334 c-14 -14 -8 -64 8 -64 16 0 17 10 6 48 -3 13 -9 20 -14 16z"></path>
<path d="M988 1316 c-3 -16 0 -27 10 -31 21 -8 24 -2 13 29 -13 32 -17 33 -23
2z"></path>
<path d="M1910 1256 c0 -42 2 -46 24 -46 13 0 38 8 54 17 28 16 30 16 57 -5
18 -14 42 -22 66 -22 37 0 39 1 39 33 0 17 -4 37 -8 43 -4 7 -55 15 -119 19
l-113 7 0 -46z"></path>
<path d="M2337 1293 c-4 -3 -7 -46 -7 -95 l0 -88 28 1 c15 0 50 6 77 13 l50
11 3 83 3 82 -74 0 c-40 0 -77 -3 -80 -7z"></path>
<path d="M2560 1200 c0 -55 6 -58 79 -44 28 6 31 10 31 44 0 41 -13 50 -77 50
-33 0 -33 0 -33 -50z"></path>
<path d="M2742 1193 c3 -41 6 -48 26 -51 22 -3 23 -1 20 45 -3 41 -6 48 -26
51 -22 3 -23 1 -20 -45z"></path>
<path d="M346 1142 c-3 -15 -7 -42 -8 -61 l-3 -34 140 2 c77 1 141 3 142 5 1
1 5 21 9 44 l7 42 -40 0 c-22 0 -64 4 -94 9 -30 5 -75 12 -101 15 -44 5 -47 4
-52 -22z"></path>
<path d="M820 1138 c0 -18 -3 -43 -6 -55 -5 -19 -2 -23 15 -23 19 0 21 6 21
55 0 42 -3 55 -15 55 -10 0 -15 -10 -15 -32z"></path>
<path d="M1813 1123 c-8 -3 -13 -23 -13 -49 0 -37 3 -44 20 -44 17 0 20 7 20
44 0 46 -6 57 -27 49z"></path>
<path d="M2078 1103 c-15 -4 -18 -16 -18 -74 0 -66 1 -69 24 -69 14 0 35 4 48
9 21 8 23 13 20 75 -4 64 -4 66 -30 65 -15 -1 -35 -3 -44 -6z"></path>
<path d="M1595 1091 c-17 -3 -31 -14 -33 -24 -3 -15 5 -17 67 -17 69 0 71 1
71 25 0 22 -4 25 -37 24 -21 -1 -51 -4 -68 -8z"></path>
<path d="M945 1046 c-4 -26 -5 -49 -2 -52 3 -3 73 -3 156 1 136 7 151 9 151
26 0 26 -8 28 -127 44 -60 8 -122 17 -140 21 -31 6 -32 6 -38 -40z"></path>
<path d="M1913 1082 c-15 -9 -27 -58 -16 -65 4 -2 23 -8 41 -12 l32 -7 0 46
c0 41 -2 46 -22 46 -13 0 -28 -4 -35 -8z"></path>
<path d="M1446 1058 c-3 -7 -7 -30 -10 -50 -4 -33 -2 -38 15 -38 16 0 19 7 19
50 0 45 -15 68 -24 38z"></path>
<path d="M2344 1027 c-11 -29 5 -37 64 -31 107 11 108 28 5 40 -52 5 -64 4
-69 -9z"></path>
<path d="M1560 962 l0 -58 72 8 c40 5 74 11 77 13 2 3 0 19 -5 37 -8 28 -15
33 -64 44 -82 20 -80 21 -80 -44z"></path>
<path d="M1797 974 c-4 -4 -7 -16 -7 -26 0 -14 6 -19 23 -16 14 2 22 10 22 23
0 20 -25 32 -38 19z"></path>
<path d="M440 956 l-125 -11 -3 -41 -3 -41 69 -6 c37 -4 95 -16 127 -27 32
-11 64 -20 71 -20 7 0 14 23 19 63 3 34 9 70 11 80 6 20 17 19 -166 3z"></path>
<path d="M1890 954 c0 -13 7 -15 31 -10 17 3 35 6 40 6 5 0 9 5 9 10 0 6 -18
10 -40 10 -30 0 -40 -4 -40 -16z"></path>
<path d="M800 866 c0 -8 -3 -21 -6 -30 -4 -11 -1 -16 10 -16 11 0 16 9 16 30
0 17 -4 30 -10 30 -5 0 -10 -6 -10 -14z"></path>
<path d="M686 848 c-9 -34 -8 -38 9 -38 10 0 15 10 15 30 0 35 -15 40 -24 8z"></path>
<path d="M297 824 c-4 -4 -7 -20 -7 -36 0 -23 4 -28 18 -24 9 2 49 8 87 11
l70 8 -65 19 c-36 10 -72 21 -80 24 -9 3 -19 2 -23 -2z"></path>
</g>
</svg>