 <svg version="1.0" xmlns="http://www.w3.org/2000/svg" viewBox="0 0 700.000000 423.000000" preserveAspectRatio="xMidYMid meet" id="mask">

<g transform="translate(0.000000,423.000000) scale(0.100000,-0.100000)">
<path d="M6595 3806 l-380 -72 0 -239 c0 -239 0 -240 22 -241 12 -1 30 -4 40
-8 17 -7 17 -8 -1 -21 -17 -13 -17 -15 -3 -21 10 -3 17 -17 17 -30 0 -19 8
-25 43 -34 89 -23 80 -10 96 -150 11 -97 13 -93 -69 -112 -72 -16 -355 -17
-370 -2 -9 9 -9 37 2 115 l13 103 55 21 c43 16 56 26 58 45 2 13 11 30 20 37
11 8 12 12 5 13 -7 0 -13 6 -13 14 0 15 21 26 51 26 18 0 19 10 19 240 0 132
-1 240 -3 240 -1 0 -527 -98 -1169 -219 l-1167 -218 -513 68 c-282 38 -521 69
-530 69 -16 0 -18 -15 -18 -170 0 -166 0 -170 21 -170 68 0 526 -53 534 -62 7
-7 -3 -9 -33 -5 l-44 5 6 -51 c3 -29 9 -307 12 -618 l6 -567 47 -5 c25 -3 47
-4 49 -2 2 2 -3 106 -11 232 -9 125 -14 230 -12 231 2 2 102 0 222 -5 l218 -8
12 -175 c7 -96 16 -199 19 -227 l5 -53 43 0 c24 0 48 -6 54 -12 8 -10 52 -190
52 -213 0 -3 23 6 51 20 28 15 56 24 62 22 7 -2 -13 -30 -44 -61 l-57 -57 17
-67 16 -67 47 -3 48 -3 6 40 c9 55 9 53 -28 65 -27 9 -34 17 -36 42 -6 61 55
102 109 73 15 -8 27 -6 53 10 18 12 47 21 65 21 l31 0 -6 59 c-4 38 -3 61 5
65 6 4 73 9 148 12 117 4 140 7 158 24 11 10 32 20 48 22 16 3 39 18 56 39 26
30 32 33 50 21 21 -12 21 -11 22 145 1 87 0 163 -1 168 -1 6 -3 17 -5 27 -6
31 -247 463 -263 473 -26 15 -554 23 -569 8 -33 -31 7 -83 63 -83 18 0 36 -5
39 -11 17 -27 62 -205 54 -213 -12 -13 -325 -14 -338 -1 -9 10 33 183 52 213
5 6 26 12 47 12 44 0 63 22 58 68 -2 22 -15 34 -63 59 -69 37 -58 44 18 11 50
-22 63 -23 347 -23 l294 0 7 25 c6 23 7 23 8 3 1 -12 6 -25 12 -28 6 -4 8 -14
5 -22 -3 -8 2 -27 12 -41 10 -15 70 -120 132 -234 62 -115 115 -208 119 -208
4 0 12 5 19 12 9 9 12 9 12 0 0 -7 -3 -12 -7 -12 -22 0 -28 -56 -23 -210 4
-138 7 -165 20 -165 29 1 124 -36 146 -56 20 -19 29 -19 153 -13 l131 7 0 48
c0 26 7 83 15 126 8 43 15 92 15 110 0 22 6 36 20 43 18 10 20 8 20 -19 0 -16
6 -60 14 -98 8 -37 17 -102 21 -143 l6 -75 266 -2 c232 -2 270 -5 292 -20 14
-9 38 -16 53 -14 34 3 45 -15 18 -31 -25 -16 -25 -24 0 -31 15 -4 20 -14 20
-41 l0 -36 96 0 c80 0 95 2 91 15 -4 8 -2 17 4 21 6 4 6 11 -2 20 -10 12 -9
18 4 32 16 15 18 15 34 0 13 -14 14 -20 4 -32 -8 -10 -9 -16 -1 -21 6 -4 8
-15 5 -26 -6 -18 1 -19 189 -19 108 0 199 -1 203 -2 4 -2 6 25 4 60 -1 38 2
69 9 78 10 11 43 14 156 14 l144 0 0 1090 c0 866 -3 1090 -12 1089 -7 0 -184
-33 -393 -73z m313 -1683 l-3 -338 -27 1 c-16 0 -253 1 -528 2 l-500 2 0 300
c0 232 3 302 13 305 9 3 591 39 1025 64 l22 1 -2 -337z m-1503 207 c-4 -12 -9
-19 -12 -17 -3 3 -2 15 2 27 4 12 9 19 12 17 3 -3 2 -15 -2 -27z m-61 -26 c9
-3 14 -10 11 -15 -7 -10 -35 0 -35 12 0 11 3 11 24 3z m875 -603 c19 -12 6
-41 -18 -41 -23 0 -34 23 -18 39 13 13 18 13 36 2z m-19 -100 c0 -27 -19 -36
-37 -18 -18 18 -9 37 18 37 12 0 19 -7 19 -19z"></path>
<path d="M2800 3063 c0 -18 11 -21 116 -32 64 -6 119 -9 122 -7 2 3 2 11 -1
19 -4 10 -30 16 -79 21 -40 4 -92 9 -115 12 -38 6 -43 4 -43 -13z"></path>
<path d="M5947 1689 c-4 -13 -7 -48 -7 -77 0 -46 3 -53 18 -50 12 2 18 14 20
40 2 25 9 38 20 40 13 3 10 9 -14 37 l-31 34 -6 -24z"></path>
<path d="M3375 1670 c-6 -10 33 -156 39 -149 2 2 1 39 -1 82 -4 54 -10 77 -19
77 -7 0 -16 -5 -19 -10z"></path>
<path d="M2820 1611 c0 -5 17 -31 37 -58 50 -66 90 -143 98 -192 l7 -41 76 1
c103 1 143 17 45 18 l-73 1 0 140 0 140 -95 0 c-52 0 -95 -4 -95 -9z"></path>
<path d="M3331 1474 l-1 -141 30 5 c36 5 38 20 14 107 -9 33 -23 85 -30 115
-12 54 -12 51 -13 -86z"></path>
<path d="M2800 1433 l0 -103 46 0 46 0 -7 37 c-7 38 -42 113 -69 148 -14 18
-15 12 -16 -82z"></path>
<path d="M3915 1443 c-40 -10 -39 -23 2 -23 59 0 73 -8 73 -41 0 -18 5 -29 14
-29 11 0 12 8 5 42 -6 23 -12 45 -15 50 -5 8 -45 9 -79 1z"></path>
<path d="M4201 1368 c-7 -20 -5 -24 18 -30 30 -9 44 2 39 28 -5 29 -46 30 -57
2z"></path>
<path d="M3880 1360 c0 -5 20 -10 45 -10 25 0 45 5 45 10 0 6 -20 10 -45 10
-25 0 -45 -4 -45 -10z"></path>
<path d="M4300 1350 c0 -15 5 -20 18 -18 9 2 17 10 17 18 0 8 -8 16 -17 18
-13 2 -18 -3 -18 -18z"></path>
</g>
</svg>