 <svg version="1.0" xmlns="http://www.w3.org/2000/svg" id="mask" viewBox="0 0 700.000000 423.000000" preserveAspectRatio="xMidYMid meet">

<g transform="translate(0.000000,423.000000) scale(0.100000,-0.100000)">
<path d="M128 4203 c3 -16 11 -32 18 -36 19 -11 17 -37 -3 -59 -16 -18 -16
-58 -4 -601 7 -320 17 -667 22 -772 5 -104 12 -260 14 -345 3 -85 14 -237 26
-338 19 -156 25 -182 38 -177 9 2 97 16 196 30 99 14 246 37 328 51 212 35
624 94 663 94 18 0 35 4 39 9 3 6 0 354 -7 774 l-12 764 -219 229 c-121 126
-258 268 -305 317 l-85 87 -357 0 -357 0 5 -27z"></path>
</g>
</svg>