 <svg version="1.0" xmlns="http://www.w3.org/2000/svg" id="mask" viewBox="0 0 700.000000 423.000000" preserveAspectRatio="xMidYMid meet">

<g transform="translate(0.000000,423.000000) scale(0.100000,-0.100000)">
<path d="M5545 3849 c-385 -26 -720 -48 -744 -48 l-44 -1 6 -106 c4 -59 11
-112 16 -118 4 -6 11 -323 15 -703 l7 -693 -35 0 c-29 0 -36 -4 -36 -19 0 -11
9 -21 23 -25 23 -5 50 -57 41 -80 -3 -7 3 -19 13 -28 15 -13 120 -19 718 -38
385 -12 709 -21 720 -19 15 3 22 17 30 59 9 50 13 55 40 60 21 4 31 12 33 28
3 19 -1 22 -31 22 l-35 0 -4 743 c-5 709 -4 743 13 758 16 14 16 18 4 23 -11
4 -15 30 -17 118 -2 92 -6 113 -18 114 -8 1 -330 -20 -715 -47z m445 -630 l0
-279 -219 0 c-166 0 -220 3 -223 12 -4 10 -11 10 -34 -2 -21 -10 -84 -15 -235
-18 l-207 -4 -4 264 c-3 144 -3 265 -1 268 2 2 140 10 306 17 166 7 370 17
452 21 83 4 153 6 158 4 4 -2 7 -129 7 -283z m0 -649 l0 -300 -465 0 -465 0 0
295 0 295 198 3 c108 1 317 3 465 5 l267 2 0 -300z"></path>
<path d="M3815 1550 c-18 -7 -17 -8 10 -15 51 -12 51 -13 5 -15 -35 -1 -40 -3
-25 -10 11 -5 35 -9 53 -9 34 -1 40 -9 20 -29 -9 -9 -9 -12 -1 -12 7 0 14 -15
16 -32 2 -18 5 2 5 45 1 42 -1 78 -5 78 -38 6 -61 6 -78 -1z"></path>
<path d="M3949 1541 c0 -3 0 -35 1 -71 2 -65 9 -80 43 -80 15 0 17 10 17 74
l0 74 -30 4 c-16 3 -30 2 -31 -1z"></path>
<path d="M4030 1467 l0 -74 47 -7 c59 -8 64 0 61 84 l-3 65 -52 3 -53 3 0 -74z"></path>
<path d="M4160 1488 c0 -32 3 -39 10 -28 13 20 13 70 0 70 -5 0 -10 -19 -10
-42z"></path>
<path d="M4190 1498 c0 -19 -7 -43 -15 -54 -8 -10 -15 -29 -15 -41 0 -17 7
-23 33 -28 19 -4 47 -5 63 -3 29 3 29 4 32 76 l3 72 -28 0 c-15 0 -38 3 -50 6
-21 6 -23 3 -23 -28z"></path>
<path d="M4300 1447 l0 -74 31 -7 c17 -3 47 -6 66 -6 l34 0 -3 78 -3 77 -62 3
-63 3 0 -74z"></path>
<path d="M4445 1438 c6 -78 13 -88 63 -88 l33 0 -3 78 -3 77 -47 3 -48 3 5
-73z"></path>
<path d="M4590 1426 l0 -74 31 -7 c17 -4 32 -5 34 -3 6 6 7 32 6 96 l-1 62
-35 0 -35 0 0 -74z"></path>
<path d="M3841 1472 c7 -9 14 -18 14 -19 0 -1 6 6 12 15 9 15 7 18 -14 20 -23
2 -24 0 -12 -16z"></path>
<path d="M4702 1313 l3 -178 120 -12 c66 -7 217 -19 335 -28 118 -8 239 -18
268 -21 l53 -5 -3 53 c-2 44 -6 53 -20 50 -13 -2 -18 4 -18 23 0 25 -1 25 -24
9 -27 -17 -35 -17 -52 -3 -8 6 -14 2 -19 -13 l-8 -23 -4 23 -5 24 -24 -23
c-23 -21 -24 -21 -31 -3 -6 17 -8 17 -14 -6 l-6 -25 -11 25 c-10 24 -11 24
-12 -10 -2 -31 -3 -32 -9 -11 -8 30 -28 38 -35 14 -3 -10 -4 -2 -3 18 3 36 2
36 -20 22 -13 -9 -23 -19 -23 -24 0 -5 -4 -9 -10 -9 -5 0 -10 7 -10 16 0 12
-6 15 -26 10 -23 -6 -24 -5 -14 13 5 11 15 23 20 26 21 13 8 24 -22 18 -42 -8
-29 13 20 34 24 10 31 17 23 23 -7 4 -22 5 -32 3 -23 -6 -25 12 -3 21 9 4 15
9 12 12 -3 2 -17 0 -32 -5 -25 -10 -37 1 -16 14 6 4 8 10 5 15 -3 5 4 11 14
15 12 4 18 12 14 21 -3 9 1 14 13 15 18 0 17 1 -1 9 -16 7 -14 9 14 9 19 1 32
4 29 7 -5 4 -360 33 -426 34 -10 0 -12 -39 -10 -177z"></path>
<path d="M6313 1367 c40 -7 56 -14 53 -23 -3 -9 14 -17 52 -26 l57 -12 -45 -9
c-25 -4 -56 -8 -69 -9 -20 0 -18 -4 18 -27 47 -30 51 -41 17 -41 -16 0 -27 -7
-31 -21 -5 -16 -10 -18 -20 -9 -21 17 -37 3 -25 -21 16 -30 -9 -24 -53 12
l-37 30 0 -30 c0 -17 -7 -34 -16 -39 -12 -6 -15 -18 -12 -36 9 -46 -16 -53
-160 -50 l-127 3 100 -14 c55 -8 129 -20 164 -26 35 -7 121 -15 190 -18 123
-6 125 -6 132 -31 3 -14 7 70 8 186 l1 211 -67 6 c-38 4 -95 6 -128 5 l-60 -1
58 -10z"></path>
<path d="M4010 1335 c-34 -37 -17 -41 22 -6 22 20 28 31 17 31 -8 0 -26 -11
-39 -25z"></path>
<path d="M4065 1320 c-16 -16 -25 -33 -22 -37 8 -7 67 45 67 59 0 16 -17 8
-45 -22z"></path>
<path d="M4098 1280 c-37 -39 -62 -70 -55 -70 7 0 44 32 82 70 38 39 63 70 55
70 -8 0 -45 -32 -82 -70z"></path>
<path d="M4155 1270 c-53 -54 -65 -70 -49 -70 18 0 54 33 123 113 18 19 20 27
10 27 -8 0 -46 -31 -84 -70z"></path>
<path d="M4231 1275 c-33 -36 -61 -70 -61 -75 0 -26 33 -3 94 65 52 58 63 75
48 75 -11 0 -46 -28 -81 -65z"></path>
<path d="M4314 1283 c-80 -94 -79 -93 -57 -93 16 0 133 126 133 144 0 21 -34
-2 -76 -51z"></path>
<path d="M4367 1260 c-31 -38 -57 -72 -57 -75 0 -3 9 -5 19 -5 13 0 38 24 67
63 26 34 52 68 57 75 7 8 4 12 -10 12 -11 0 -41 -28 -76 -70z"></path>
<path d="M4439 1257 c-52 -65 -58 -86 -28 -87 12 0 109 141 104 151 -11 16
-19 9 -76 -64z"></path>
<path d="M4606 1285 c-18 -23 -26 -45 -24 -63 3 -26 5 -24 37 26 22 35 30 57
24 63 -7 7 -19 -2 -37 -26z"></path>
<path d="M4516 1262 c-11 -15 -31 -42 -44 -59 l-24 -33 25 0 c31 0 70 57 65
94 l-3 24 -19 -26z"></path>
<path d="M3991 1246 c-12 -13 -18 -27 -13 -30 9 -5 30 14 46 42 12 21 -9 13
-33 -12z"></path>
<path d="M4623 1205 c-18 -29 -33 -56 -33 -59 0 -9 68 -7 74 2 2 4 1 30 -2 59
l-7 51 -32 -53z"></path>
</g>
</svg>