 <svg version="1.0" xmlns="http://www.w3.org/2000/svg" viewBox="0 0 700.000000 423.000000" preserveAspectRatio="xMidYMid meet" id="mask">

<g transform="translate(0.000000,423.000000) scale(0.100000,-0.100000)">
<path d="M0 2882 l0 -1349 158 -6 c224 -10 330 -9 337 3 4 7 65 8 178 4 99 -3
197 -2 232 4 67 11 82 8 90 -18 3 -11 17 -20 33 -22 21 -2 28 -9 30 -30 3 -28
4 -27 -74 -47 l-41 -11 -7 -206 c-4 -113 -6 -207 -4 -209 7 -6 483 -22 488
-16 3 3 4 92 2 198 l-3 192 -47 3 -47 3 0 40 c0 40 0 40 43 43 l42 3 0 63 0
63 46 7 c26 3 60 6 75 6 19 0 29 5 29 15 0 8 16 32 35 54 31 34 35 45 35 93 0
30 -3 58 -7 62 -5 4 -8 13 -8 19 0 7 -6 13 -12 13 -7 1 -17 2 -23 3 -5 0 -10
9 -10 19 0 10 -7 27 -15 38 -14 18 -16 18 -26 2 -9 -17 -36 -18 -334 -18
l-325 0 0 344 c0 190 3 347 8 349 4 3 149 7 322 8 l315 4 5 -50 c4 -42 8 -50
30 -55 21 -5 25 -12 24 -41 -2 -47 16 -159 26 -159 4 0 11 -11 14 -25 4 -14
11 -25 17 -25 6 0 7 -5 4 -10 -3 -6 1 -13 10 -16 24 -10 53 23 60 69 8 44 29
77 51 77 15 0 29 97 19 131 -5 13 -16 30 -26 37 -27 19 -24 62 7 96 21 22 29
25 35 14 12 -18 11 -75 -1 -83 -16 -10 -12 -38 5 -31 18 6 17 7 20 -66 1 -31
-2 -55 -7 -52 -4 3 -5 -2 -2 -10 4 -11 0 -16 -10 -16 -9 0 -16 -4 -16 -10 0
-5 5 -10 10 -10 17 0 11 -28 -6 -32 -16 -3 -44 -65 -47 -103 -1 -11 -5 -22 -9
-25 -4 -4 -10 -22 -14 -40 -4 -26 -3 -31 5 -20 8 12 12 13 23 2 11 -11 10 -16
-4 -26 -26 -19 -23 -46 5 -43 17 1 23 -4 25 -24 3 -24 7 -26 61 -28 l59 -2
-24 47 c-17 33 -21 51 -14 64 15 28 30 29 105 9 39 -10 80 -19 93 -19 l22 0 0
1050 0 1050 -1035 0 -1035 0 0 -1348z m1523 411 c4 -38 7 -194 7 -349 l0 -281
-217 -6 c-120 -4 -269 -7 -330 -7 l-113 0 -2 320 c-1 176 -2 330 -2 343 -1 22
1 22 214 33 118 6 265 12 326 12 l111 2 6 -67z"></path>
<path d="M1528 2363 c3 -89 6 -122 14 -143 17 -49 28 -88 28 -102 0 -9 7 -24
16 -32 9 -9 19 -29 23 -44 4 -15 13 -27 19 -26 7 1 26 2 42 3 l31 1 -3 56 c-3
48 -6 58 -25 65 -18 6 -28 3 -44 -14 l-21 -22 16 32 c20 39 20 49 0 45 -11 -2
-13 3 -8 22 4 17 -1 36 -14 58 -11 18 -24 56 -27 83 -10 65 -21 95 -37 95 -10
0 -12 -20 -10 -77z"></path>
<path d="M1725 2310 c-3 -5 -1 -10 4 -10 6 0 11 5 11 10 0 6 -2 10 -4 10 -3 0
-8 -4 -11 -10z"></path>
<path d="M1528 2115 c-2 -25 0 -49 4 -53 3 -4 8 -18 11 -32 4 -24 4 -24 6 3 0
15 6 27 11 27 13 0 13 15 -1 63 -14 50 -26 47 -31 -8z"></path>
<path d="M1720 2040 c0 -5 9 -10 21 -10 11 0 17 5 14 10 -3 6 -13 10 -21 10
-8 0 -14 -4 -14 -10z"></path>
<path d="M1586 1972 c-8 -25 2 -52 20 -52 18 0 18 44 0 59 -11 10 -16 8 -20
-7z"></path>
<path d="M1564 1924 c3 -9 6 -18 6 -20 0 -2 4 -4 9 -4 5 0 7 9 4 20 -3 11 -10
20 -15 20 -6 0 -7 -7 -4 -16z"></path>
<path d="M1518 1542 c-36 -3 -38 -5 -38 -38 l0 -35 48 7 c26 3 48 8 50 9 2 2
-3 16 -10 31 -11 26 -18 29 -50 26z"></path>
<path d="M825 1379 c-16 -5 -55 -13 -85 -17 l-55 -7 2 -85 c2 -47 5 -127 9
-177 l6 -93 77 0 78 0 6 113 c9 150 9 277 0 276 -5 0 -21 -5 -38 -10z"></path>
<path d="M37 1208 c-4 -89 -3 -166 1 -170 7 -7 580 -34 585 -27 5 6 -11 231
-17 236 -3 3 -17 -4 -32 -16 -15 -11 -31 -21 -36 -21 -5 0 -39 -14 -76 -32
-42 -20 -88 -33 -124 -36 -55 -4 -57 -3 -55 19 1 13 -4 63 -11 111 -16 101
-12 98 -143 98 l-86 0 -6 -162z"></path>
<path d="M1487 1360 c-1 -3 -1 -91 1 -196 l3 -191 72 -6 c39 -4 75 -3 78 1 4
4 4 93 2 199 l-6 192 -74 3 c-41 2 -76 1 -76 -2z"></path>
</g>
</svg>