 <svg version="1.0" xmlns="http://www.w3.org/2000/svg" viewBox="0 0 700.000000 423.000000" preserveAspectRatio="xMidYMid meet" id="mask">

<g transform="translate(0.000000,423.000000) scale(0.100000,-0.100000)">
<path d="M38 1024 c-5 -4 -8 -38 -8 -76 0 -58 3 -68 18 -68 9 -1 143 -7 297
-14 154 -8 282 -13 285 -11 3 2 4 35 2 74 l-4 70 -31 5 c-18 3 -113 8 -212 11
-99 3 -216 8 -260 11 -44 3 -83 2 -87 -2z"></path>
<path d="M700 978 c0 -13 3 -46 6 -74 l7 -52 46 -5 c29 -3 56 0 73 9 26 13 28
19 28 73 0 68 -4 71 -102 71 -54 0 -58 -2 -58 -22z"></path>
<path d="M4567 992 c-14 -25 -15 -61 -2 -72 8 -7 15 -22 15 -34 0 -11 4 -26 8
-32 5 -8 695 -46 820 -44 22 0 23 3 20 78 l-3 77 -310 11 c-170 7 -363 14
-427 17 -65 3 -119 3 -121 -1z"></path>
<path d="M930 917 l0 -75 53 -6 c28 -3 141 -8 250 -12 l197 -7 0 75 0 75 -132
7 c-73 3 -186 9 -250 12 l-118 7 0 -76z"></path>
<path d="M1499 966 c-2 -2 -3 -38 -1 -79 l4 -75 70 -4 c38 -2 72 -1 74 1 2 2
4 37 4 78 l0 73 -59 0 c-33 0 -66 2 -73 5 -8 3 -16 4 -19 1z"></path>
<path d="M6828 904 c-10 -9 -10 -90 -2 -133 l7 -31 83 0 84 0 0 80 0 80 -39 0
c-21 0 -58 3 -82 6 -24 3 -47 2 -51 -2z"></path>
</g>
</svg>