 <svg version="1.0" xmlns="http://www.w3.org/2000/svg" viewBox="0 0 700.000000 423.000000" preserveAspectRatio="xMidYMid meet" id="mask">

<g transform="translate(0.000000,423.000000) scale(0.100000,-0.100000)">
<path d="M1858 882 l-147 -107 2 -210 c1 -146 5 -210 13 -210 6 0 78 64 159
143 l148 143 190 -7 189 -7 -7 24 c-12 39 -53 117 -122 232 l-64 107 -107 -1
-107 0 -147 -107z"></path>
<path d="M4943 968 c3 -13 18 -104 33 -203 l27 -180 121 -118 121 -117 187 0
187 0 3 128 c2 70 1 165 -2 212 l-5 85 -175 1 -175 1 -147 106 c-151 110 -185
126 -175 85z"></path>
<path d="M4727 918 c-8 -13 -30 -48 -50 -79 -26 -43 -37 -73 -44 -128 -5 -39
-7 -73 -5 -76 3 -3 48 -5 100 -5 l94 0 -7 73 c-4 39 -11 108 -14 152 -6 78 -7
80 -33 83 -19 2 -31 -3 -41 -20z"></path>
<path d="M4877 820 c9 -138 17 -183 32 -188 15 -5 11 37 -19 183 l-19 90 6
-85z"></path>
<path d="M1055 302 l-40 -27 -442 -3 -443 -3 0 -135 0 -134 500 0 500 0 0 98
c0 96 -15 210 -29 224 -4 4 -25 -5 -46 -20z"></path>
</g>
</svg>