 <svg version="1.0" xmlns="http://www.w3.org/2000/svg" viewBox="0 0 700.000000 423.000000" preserveAspectRatio="xMidYMid meet" id="mask">

<g transform="translate(0.000000,423.000000) scale(0.100000,-0.100000)">
<path d="M3300 3522 c0 -143 2 -169 15 -169 12 0 15 19 15 106 0 87 4 112 20
138 24 41 76 57 127 40 62 -21 72 -45 75 -192 3 -114 5 -130 21 -133 16 -3 17
11 17 187 l0 191 -145 0 -145 0 0 -168z"></path>
<path d="M3300 3325 c0 -16 16 -20 24 -6 3 5 -1 11 -9 15 -9 3 -15 0 -15 -9z"></path>
<path d="M2115 2805 c-2 -5 -6 -95 -9 -198 l-6 -189 29 -11 c34 -12 47 -41 42
-88 -1 -7 -12 -9 -31 -5 l-30 6 0 -225 c0 -130 4 -225 9 -225 13 0 672 230
691 241 9 5 -28 8 -95 6 l-110 -2 -3 328 -2 327 252 -2 253 -3 0 -325 0 -325
-40 -5 c-38 -5 -32 -8 115 -63 l155 -57 515 0 515 0 189 -35 c104 -19 196 -35
203 -35 15 0 18 319 6 676 l-6 202 -751 6 c-1494 12 -1888 12 -1891 1z m1973
-52 l182 -6 0 -324 0 -323 -250 0 -250 0 0 330 0 330 68 0 c38 0 151 -3 250
-7z"></path>
<path d="M2198 1608 c-2 -28 -8 -34 -30 -36 -25 -3 -28 -7 -28 -43 0 -22 7
-53 15 -69 15 -28 11 -60 -6 -60 -5 0 -9 -83 -9 -185 0 -156 2 -187 15 -191 8
-4 15 -12 15 -19 0 -8 5 -17 11 -21 7 -4 9 0 5 13 -8 25 2 53 19 53 15 0 28
-27 19 -41 -3 -5 0 -9 5 -9 6 0 11 -7 11 -15 0 -8 5 -15 10 -15 6 0 10 5 10
10 0 6 9 10 20 10 31 0 25 -43 -10 -78 -31 -32 -41 -68 -16 -59 10 4 18 -2 22
-16 4 -12 11 -25 16 -28 15 -10 -4 -41 -23 -36 -11 3 -19 -2 -22 -14 -7 -25 0
-29 52 -29 41 0 43 1 25 14 -24 18 -10 34 16 18 11 -7 20 -9 20 -5 0 5 -11 96
-24 203 -22 178 -24 228 -7 203 9 -15 129 -23 134 -10 9 29 25 -10 31 -79 4
-42 10 -89 13 -105 l5 -27 40 14 c55 19 61 18 56 -11 -3 -13 1 -60 8 -102 12
-75 12 -79 -9 -96 l-21 -19 29 4 c29 3 30 5 33 64 3 57 5 62 28 67 31 5 39
-10 30 -57 -7 -36 0 -66 15 -66 6 0 9 185 9 450 l-1 450 -264 0 -264 0 -3 -32z
m362 -163 l0 -175 -150 0 -150 0 0 175 0 175 150 0 150 0 0 -175z m110 -4 c5
-11 10 -33 10 -50 0 -28 -3 -31 -30 -31 -25 0 -30 4 -30 25 0 28 19 75 31 75
5 0 13 -9 19 -19z m0 -195 c0 -27 -28 -43 -36 -21 -9 21 3 45 21 45 9 0 15 -9
15 -24z m29 -66 c17 0 21 -6 21 -34 0 -39 -11 -46 -57 -38 -29 4 -33 2 -34
-19 l0 -24 -9 23 c-5 12 -14 22 -20 22 -5 0 -10 16 -10 35 0 30 3 35 24 35 13
0 27 8 31 18 6 16 7 16 19 0 7 -10 23 -18 35 -18z"></path>
<path d="M2958 1633 c6 -2 18 -2 25 0 6 3 1 5 -13 5 -14 0 -19 -2 -12 -5z"></path>
<path d="M3147 1633 c-4 -3 -7 -131 -7 -284 l0 -278 25 25 c29 29 33 52 8 50
-15 -1 -19 8 -21 47 -2 37 0 47 12 48 9 1 21 3 26 4 6 1 15 3 20 4 6 0 10 24
10 52 0 42 -3 52 -19 56 -30 8 -31 48 -4 88 13 19 21 40 18 45 -3 5 -6 34 -6
65 -1 35 -7 61 -16 70 -15 16 -35 19 -46 8z"></path>
<path d="M3530 1325 l0 -315 115 0 115 0 0 180 c0 141 -3 180 -13 180 -7 0
-18 -5 -24 -11 -14 -14 -33 39 -22 66 13 35 10 47 -10 40 -30 -9 -34 11 -6 33
13 11 21 22 18 26 -3 3 3 6 15 6 15 0 20 5 16 15 -4 9 0 15 10 15 12 0 16 10
16 40 l0 40 -115 0 -115 0 0 -315z"></path>
<path d="M4413 1618 c-14 -16 -17 -54 -21 -313 l-5 -295 47 0 46 0 0 309 0
309 -25 4 c-16 3 -30 -1 -42 -14z"></path>
<path d="M4260 1321 l0 -311 36 0 36 0 -5 278 c-2 152 -9 291 -14 307 -6 19
-17 31 -31 33 l-22 3 0 -310z"></path>
<path d="M4680 1345 l0 -286 108 3 107 3 3 144 c2 128 1 143 -13 137 -9 -3
-26 -1 -37 5 -18 10 -20 18 -15 60 5 37 3 47 -7 43 -17 -6 -26 28 -14 50 5 9
15 16 23 16 7 0 15 10 17 23 2 12 10 22 18 23 35 2 40 5 40 19 0 8 -4 15 -9
15 -5 0 -25 -7 -44 -15 -46 -19 -70 -19 -37 0 23 14 20 15 -53 13 -42 -2 -77
0 -77 5 0 4 26 8 58 8 105 2 125 17 25 18 l-93 1 0 -285z"></path>
<path d="M5491 1513 c0 -5 4 -17 9 -28 8 -18 9 -17 9 8 1 15 -3 27 -9 27 -5 0
-10 -3 -9 -7z"></path>
<path d="M3284 1260 c0 -135 2 -190 3 -122 2 67 2 177 0 245 -1 67 -3 12 -3
-123z"></path>
<path d="M5490 1430 c0 -5 5 -10 11 -10 5 0 7 5 4 10 -3 6 -8 10 -11 10 -2 0
-4 -4 -4 -10z"></path>
<path d="M5486 1355 c-9 -37 -6 -675 3 -675 18 0 30 661 12 688 -6 10 -10 7
-15 -13z"></path>
<path d="M3200 1119 c0 -5 5 -7 10 -4 6 3 10 8 10 11 0 2 -4 4 -10 4 -5 0 -10
-5 -10 -11z"></path>
<path d="M2437 1020 c3 -47 9 -92 14 -100 9 -15 3 55 -12 140 -5 31 -6 18 -2
-40z"></path>
<path d="M2467 1039 c3 -37 9 -82 13 -100 6 -24 7 -14 3 31 -3 36 -9 81 -14
100 -6 25 -6 15 -2 -31z"></path>
<path d="M2372 1065 c-1 -16 3 -48 7 -70 11 -53 12 -5 2 55 -6 34 -9 37 -9 15z"></path>
<path d="M2401 1059 c1 -19 5 -47 10 -64 5 -20 6 -9 2 30 -6 66 -14 88 -12 34z"></path>
<path d="M2352 1015 c0 -16 2 -22 5 -12 2 9 2 23 0 30 -3 6 -5 -1 -5 -18z"></path>
<path d="M3140 891 c0 -144 1 -151 20 -151 17 0 18 3 10 26 -13 33 -13 74 0
74 14 0 12 32 -4 52 -17 23 -9 74 14 84 16 8 15 11 -11 37 l-29 28 0 -150z"></path>
<path d="M3664 905 c0 -49 1 -71 3 -48 2 23 2 64 0 90 -2 26 -3 8 -3 -42z"></path>
<path d="M3697 983 c-11 -11 -8 -213 3 -213 6 0 10 43 10 110 0 110 -1 116
-13 103z"></path>
<path d="M3734 875 c0 -66 1 -92 3 -57 2 34 2 88 0 120 -2 31 -3 3 -3 -63z"></path>
<path d="M4294 880 c0 -63 1 -89 3 -57 2 31 2 83 0 115 -2 31 -3 5 -3 -58z"></path>
<path d="M3550 875 c0 -63 4 -105 10 -105 6 0 10 42 10 105 0 63 -4 105 -10
105 -6 0 -10 -42 -10 -105z"></path>
<path d="M3594 875 c0 -60 1 -84 3 -52 2 32 2 81 0 110 -2 29 -3 3 -3 -58z"></path>
<path d="M3620 889 c0 -57 4 -88 10 -84 6 3 10 44 10 91 0 49 -4 84 -10 84 -6
0 -10 -37 -10 -91z"></path>
<path d="M4250 875 c0 -63 4 -105 10 -105 6 0 10 42 10 105 0 63 -4 105 -10
105 -6 0 -10 -42 -10 -105z"></path>
<path d="M4424 875 c0 -60 1 -84 3 -52 2 32 2 81 0 110 -2 29 -3 3 -3 -58z"></path>
<path d="M4454 875 c0 -60 1 -84 3 -52 2 32 2 81 0 110 -2 29 -3 3 -3 -58z"></path>
<path d="M3312 930 c0 -14 2 -19 5 -12 2 6 2 18 0 25 -3 6 -5 1 -5 -13z"></path>
<path d="M3454 860 c0 -52 1 -74 3 -47 2 26 2 68 0 95 -2 26 -3 4 -3 -48z"></path>
<path d="M3487 943 c-11 -11 -8 -173 3 -173 6 0 10 37 10 90 0 90 -1 96 -13
83z"></path>
<path d="M3524 855 c0 -55 1 -76 3 -47 2 29 2 74 0 100 -2 26 -3 2 -3 -53z"></path>
<path d="M3760 860 c0 -53 4 -90 10 -90 6 0 10 37 10 90 0 53 -4 90 -10 90 -6
0 -10 -37 -10 -90z"></path>
<path d="M3804 855 c0 -55 1 -76 3 -47 2 29 2 74 0 100 -2 26 -3 2 -3 -53z"></path>
<path d="M3830 854 c0 -61 4 -93 10 -89 6 3 10 46 10 96 0 53 -4 89 -10 89 -6
0 -10 -39 -10 -96z"></path>
<path d="M4180 860 c0 -53 4 -90 10 -90 6 0 10 37 10 90 0 53 -4 90 -10 90 -6
0 -10 -37 -10 -90z"></path>
<path d="M4224 860 c0 -52 1 -74 3 -47 2 26 2 68 0 95 -2 26 -3 4 -3 -48z"></path>
<path d="M4489 865 c-3 -49 -5 -92 -3 -94 11 -13 15 16 12 95 l-3 89 -6 -90z"></path>
<path d="M2386 925 c4 -8 8 -15 10 -15 2 0 4 7 4 15 0 8 -4 15 -10 15 -5 0 -7
-7 -4 -15z"></path>
<path d="M2532 933 c-36 -7 -24 -37 16 -41 29 -3 32 -1 32 22 0 26 -4 27 -48
19z"></path>
<path d="M4524 855 c0 -49 1 -71 3 -48 2 23 2 64 0 90 -2 26 -3 8 -3 -42z"></path>
<path d="M4550 854 c0 -54 4 -83 10 -79 6 3 10 42 10 86 0 46 -4 79 -10 79 -6
0 -10 -35 -10 -86z"></path>
<path d="M4594 855 c0 -49 1 -71 3 -48 2 23 2 64 0 90 -2 26 -3 8 -3 -42z"></path>
<path d="M4620 853 c0 -47 2 -84 4 -82 2 2 7 41 10 87 5 56 4 82 -3 82 -7 0
-11 -32 -11 -87z"></path>
<path d="M4664 855 c0 -49 1 -71 3 -48 2 23 2 64 0 90 -2 26 -3 8 -3 -42z"></path>
<path d="M2148 889 c3 -22 8 -37 12 -32 9 9 1 73 -9 73 -4 0 -5 -18 -3 -41z"></path>
<path d="M3873 825 c0 -33 2 -45 4 -27 2 18 2 45 0 60 -2 15 -4 0 -4 -33z"></path>
<path d="M3943 835 c0 -27 2 -38 4 -22 2 15 2 37 0 50 -2 12 -4 0 -4 -28z"></path>
<path d="M3970 836 c0 -25 5 -46 10 -46 6 0 10 18 10 39 0 22 -4 43 -10 46 -6
4 -10 -12 -10 -39z"></path>
<path d="M4013 835 c0 -27 2 -38 4 -22 2 15 2 37 0 50 -2 12 -4 0 -4 -28z"></path>
<path d="M4040 835 c0 -28 4 -44 10 -40 6 3 10 21 10 40 0 19 -4 37 -10 40 -6
4 -10 -12 -10 -40z"></path>
<path d="M4083 835 c0 -27 2 -38 4 -22 2 15 2 37 0 50 -2 12 -4 0 -4 -28z"></path>
<path d="M4153 825 c0 -33 2 -45 4 -27 2 18 2 45 0 60 -2 15 -4 0 -4 -33z"></path>
<path d="M2520 850 c0 -5 13 -10 29 -10 17 0 33 5 36 10 4 6 -8 10 -29 10 -20
0 -36 -4 -36 -10z"></path>
<path d="M3340 825 c0 -19 5 -35 10 -35 6 0 10 16 10 35 0 19 -4 35 -10 35 -5
0 -10 -16 -10 -35z"></path>
<path d="M2375 840 c4 -6 11 -8 16 -5 14 9 11 15 -7 15 -8 0 -12 -5 -9 -10z"></path>
<path d="M2463 843 c9 -2 23 -2 30 0 6 3 -1 5 -18 5 -16 0 -22 -2 -12 -5z"></path>
<path d="M4693 810 c0 -25 2 -35 4 -22 2 12 2 32 0 45 -2 12 -4 2 -4 -23z"></path>
<path d="M2398 829 c-24 -13 -23 -29 2 -29 13 0 20 7 20 20 0 23 1 23 -22 9z"></path>
<path d="M2450 814 c0 -8 11 -14 25 -14 14 0 25 4 25 9 0 5 -11 11 -25 13 -17
4 -25 1 -25 -8z"></path>
<path d="M2530 820 c-10 -6 -12 -12 -4 -20 13 -13 77 7 68 21 -7 12 -45 11
-64 -1z"></path>
<path d="M2558 788 c-17 -6 -28 -17 -28 -29 0 -22 -2 -22 39 -8 20 7 31 18 31
30 0 21 -3 22 -42 7z"></path>
<path d="M4731 784 c0 -11 3 -14 6 -6 3 7 2 16 -1 19 -3 4 -6 -2 -5 -13z"></path>
<path d="M2393 783 c-15 -5 -18 -33 -4 -33 21 0 41 13 41 26 0 14 -14 17 -37
7z"></path>
<path d="M2469 770 c29 -25 44 -26 39 -2 -2 11 -14 18 -33 20 l-30 2 24 -20z"></path>
<path d="M2448 743 c7 -3 16 -2 19 1 4 3 -2 6 -13 5 -11 0 -14 -3 -6 -6z"></path>
</g>
</svg>