 <svg version="1.0" xmlns="http://www.w3.org/2000/svg" viewBox="0 0 700.000000 423.000000" preserveAspectRatio="xMidYMid meet" id="mask">

<g transform="translate(0.000000,423.000000) scale(0.100000,-0.100000)">
<path d="M2923 3497 l-532 -512 45 -3 45 -3 206 198 c113 109 334 321 491 471
l287 272 185 -182 c102 -101 320 -317 486 -481 l300 -298 48 3 48 3 -532 523
c-292 287 -535 522 -538 522 -4 -1 -246 -231 -539 -513z"></path>
<path d="M3240 3654 c-52 -53 -124 -115 -160 -139 -36 -23 -76 -55 -90 -71
-14 -16 -17 -23 -8 -16 15 12 17 6 20 -67 2 -48 -1 -83 -7 -86 -6 -3 -5 -7 3
-11 8 -4 12 -35 13 -97 l2 -92 9 94 c5 52 10 96 11 97 1 1 24 5 51 9 l49 8 -5
-152 c-4 -150 -4 -151 18 -151 30 0 34 21 34 178 l0 132 118 0 c64 0 188 -3
275 -7 l157 -6 0 -154 0 -153 25 0 25 0 0 149 c0 83 4 152 8 155 4 2 29 0 55
-6 l47 -10 0 -134 0 -134 28 1 c23 2 24 2 5 6 -22 4 -23 9 -23 86 0 130 12
337 20 337 4 0 108 -99 231 -220 123 -120 226 -219 229 -220 3 0 -103 108
-235 241 -202 202 -250 245 -300 269 -46 21 -87 55 -175 144 l-115 116 -110 0
-110 0 -95 -96z m355 -154 l0 -185 -152 -3 -153 -3 0 191 0 191 153 -3 152 -3
0 -185z m188 -92 l-6 -98 -69 0 -68 0 0 172 0 173 75 -75 75 -75 -7 -97z
m-535 70 l-3 -163 -87 -7 c-48 -3 -92 -9 -98 -13 -7 -4 -10 27 -10 93 0 108
-5 96 62 130 4 2 9 -43 11 -100 l3 -103 2 110 2 109 52 53 c29 29 56 53 60 53
5 0 7 -73 6 -162z m597 0 c24 -11 25 -14 25 -101 l0 -90 -36 6 c-20 3 -38 7
-39 9 -7 7 9 188 16 188 4 0 20 -5 34 -12z"></path>
<path d="M2898 3003 c23 -2 59 -2 80 0 20 2 1 4 -43 4 -44 0 -61 -2 -37 -4z"></path>
<path d="M2116 2854 c4 -16 8 -30 9 -32 2 -2 2619 -21 2621 -18 1 1 4 13 7 27
l7 26 -1078 6 c-592 4 -1189 10 -1325 14 l-248 6 7 -29z"></path>
<path d="M2610 2444 l0 -315 150 3 c82 2 146 0 142 -3 -4 -3 -209 -77 -457
-163 -247 -87 -457 -162 -465 -166 -9 -5 24 -9 80 -9 l95 0 370 130 c204 72
379 131 390 131 11 0 185 -61 388 -136 364 -134 368 -135 462 -138 51 -1 96 0
99 3 3 3 -189 76 -427 164 -237 87 -439 162 -447 166 -9 5 6 9 41 9 l56 0 5
261 c2 143 2 287 0 320 l-4 59 -239 0 -239 0 0 -316z m440 -19 l0 -275 -195 0
-195 0 0 275 0 275 195 0 195 0 0 -275z"></path>
<path d="M3780 2425 l0 -315 240 0 240 0 0 315 0 315 -240 0 -240 0 0 -315z
m433 143 c4 -62 7 -186 7 -276 l0 -162 -197 2 -198 3 -3 273 -2 272 193 0 194
0 6 -112z"></path>
<path d="M1988 1717 c8 -9 11 -25 7 -37 -4 -12 -1 -28 7 -37 10 -12 14 -91 17
-354 l3 -339 -32 -170 c-28 -146 -35 -168 -46 -153 -12 17 -13 17 -20 0 -3
-10 -4 -21 0 -24 3 -3 2 -11 -3 -17 -5 -6 -5 -32 0 -61 5 -27 12 -67 15 -88 5
-27 11 -37 21 -33 8 3 11 2 8 -3 -10 -17 11 -21 32 -6 13 9 22 30 26 57 20
162 40 262 55 277 10 9 30 22 46 29 24 11 26 15 15 29 -13 15 -15 123 -3 185
5 23 2 27 -23 30 l-28 3 -3 185 c-5 257 5 425 27 450 16 19 29 19 547 13 525
-6 531 -6 545 -27 10 -16 15 -122 21 -476 11 -578 17 -743 28 -754 6 -6 15 -4
24 3 11 9 15 9 19 -1 3 -7 6 41 6 108 l1 121 28 -3 c15 -1 30 -2 34 -3 4 -1 9
-49 11 -108 l3 -108 2 113 c1 83 5 111 15 110 6 -2 11 3 9 11 -2 8 2 27 7 42
l10 29 -70 0 c-62 0 -69 2 -69 20 0 19 7 20 170 20 155 0 191 6 160 25 -5 3
-10 1 -10 -6 0 -9 -3 -10 -11 -2 -7 7 -7 44 -1 119 l9 109 2 -103 c0 -66 5
-101 11 -97 6 3 10 48 10 101 0 56 4 94 10 94 6 0 10 -35 10 -85 0 -50 4 -85
10 -85 6 0 10 36 10 87 0 115 18 98 23 -22 l3 -90 2 98 c1 60 6 97 13 97 7 0
9 -40 7 -120 -3 -117 -2 -121 19 -126 12 -3 26 -3 32 0 5 4 14 -2 20 -11 10
-17 10 -17 11 0 0 13 9 17 43 17 l42 0 -3 122 c-2 68 0 119 4 115 4 -4 7 -50
5 -101 -2 -59 1 -96 8 -101 8 -4 11 26 11 99 0 64 4 106 10 106 6 0 10 -42 10
-107 0 -134 18 -128 23 7 3 81 3 78 3 -23 l-1 -117 193 0 c185 0 192 -1 192
-20 0 -19 -7 -20 -140 -20 -129 0 -140 -1 -140 -18 0 -28 -11 -34 -34 -19 -29
19 -56 28 -56 19 0 -4 15 -16 34 -26 19 -10 37 -25 40 -33 3 -8 10 -11 16 -8
6 4 11 -6 11 -22 1 -28 1 -28 8 -3 6 25 8 25 103 25 98 0 98 0 99 -25 1 -23 2
-22 8 5 8 39 24 35 32 -7 l6 -33 2 33 c0 21 5 31 12 27 5 -4 9 -19 7 -33 -2
-22 2 -28 20 -30 18 -3 22 1 22 26 0 32 24 45 65 37 11 -2 32 -4 47 -4 16 -1
28 -8 31 -19 3 -10 5 -6 6 11 0 16 12 43 26 62 l26 33 -96 7 c-71 6 -95 11
-95 21 0 12 43 14 245 14 238 0 245 -1 245 -20 0 -12 -7 -20 -17 -20 -42 0
-93 -21 -93 -38 1 -15 2 -15 15 1 14 20 56 20 62 0 3 -7 -3 -9 -16 -6 -16 4
-22 -1 -27 -22 -5 -20 -9 -23 -15 -13 -6 8 -8 -4 -8 -32 1 -41 2 -42 9 -15 4
17 9 23 10 15 1 -8 5 -4 10 10 7 23 8 23 10 -10 2 -22 4 -28 7 -16 11 41 20
43 256 42 220 -1 227 -1 228 -21 1 -19 1 -19 7 1 6 17 15 21 52 20 45 -1 45
-1 50 -41 4 -35 8 -40 30 -40 l25 0 3 450 c1 248 7 497 11 555 5 58 5 109 0
114 -4 5 -4 17 1 26 8 16 -29 17 -533 23 -298 4 -1091 10 -1762 14 -1122 6
-1219 5 -1207 -10z m1510 -389 l2 -318 -80 0 -80 0 0 163 c0 89 -3 233 -7 320
l-6 158 84 -3 84 -3 3 -317z m263 270 c0 -37 2 -40 10 -20 5 13 13 21 18 18 5
-3 12 5 15 19 l6 25 195 0 195 0 0 -163 c0 -90 3 -232 7 -315 l6 -152 -201 0
-202 0 0 166 c0 156 -7 204 -30 204 -6 0 -11 -79 -12 -187 l-3 -188 -115 0
-115 0 -3 318 -2 317 115 0 115 0 1 -42z m719 -279 l0 -320 -42 3 -43 3 1 295
c0 325 3 340 54 340 l30 0 0 -321z m104 315 l46 -7 0 -314 0 -314 -62 3 -63 3
-3 305 c-1 168 0 310 3 317 5 15 14 15 79 7z m762 -2 c-3 -5 -69 -37 -148 -72
-79 -35 -144 -67 -146 -71 -2 -4 -11 -5 -19 -2 -13 5 -15 3 -7 -13 5 -10 9
-120 9 -244 l0 -225 -55 -3 -55 -3 2 193 c3 177 2 191 -13 173 -13 -17 -15
-47 -12 -193 l3 -173 -130 3 c-126 3 -130 4 -133 26 -2 13 3 25 12 28 14 5 16
41 16 290 l0 283 103 4 c234 7 578 6 573 -1z m-1034 -29 c7 -18 13 -132 16
-310 5 -309 6 -304 -53 -289 l-25 6 0 310 0 310 25 0 c18 0 29 -8 37 -27z
m-1024 -295 c-1 -218 -3 -276 -8 -208 -13 169 -9 510 6 510 2 0 3 -136 2 -302z
m2118 220 c6 -40 9 -175 6 -301 l-4 -227 -176 2 c-177 3 -177 3 -180 26 -3 16
2 25 16 29 18 4 19 17 24 197 4 121 10 201 18 215 11 21 64 51 90 51 24 0 9
-39 -20 -49 l-30 -10 2 -203 3 -203 28 -3 27 -3 2 188 3 188 2 -187 3 -188 25
0 24 0 4 183 c5 196 13 290 28 319 9 17 60 45 85 47 6 1 15 -32 20 -71z
m-2119 -705 c-2 -32 -3 -6 -3 57 0 63 1 89 3 58 2 -32 2 -84 0 -115z m33 50
c0 -87 -3 -114 -11 -106 -8 8 -9 43 -4 117 4 58 9 106 11 106 2 0 4 -53 4
-117z m40 7 c0 -67 -4 -110 -10 -110 -6 0 -10 43 -10 110 0 67 4 110 10 110 6
0 10 -43 10 -110z m40 1 c0 -144 -18 -155 -22 -14 -3 114 -2 123 13 123 5 0 9
-48 9 -109z m30 -6 c0 -70 -4 -115 -10 -115 -6 0 -10 45 -10 115 0 70 4 115
10 115 6 0 10 -45 10 -115z m40 68 c0 -80 -13 -185 -21 -176 -10 11 2 223 12
223 5 0 9 -21 9 -47z m30 -68 c0 -70 -4 -115 -10 -115 -6 0 -10 45 -10 115 0
70 4 115 10 115 6 0 10 -45 10 -115z m33 -8 c-4 -68 -10 -104 -16 -98 -5 5 -6
51 -2 116 4 61 11 103 16 98 5 -5 6 -57 2 -116z m37 8 c0 -70 -4 -115 -10
-115 -6 0 -10 45 -10 115 0 70 4 115 10 115 6 0 10 -45 10 -115z m179 -1 c-2
-97 -9 -128 -23 -105 -10 15 6 221 16 215 5 -3 8 -53 7 -110z m31 1 c0 -70 -4
-115 -10 -115 -6 0 -10 45 -10 115 0 70 4 115 10 115 6 0 10 -45 10 -115z m35
-9 c-4 -62 -11 -104 -16 -100 -6 3 -7 49 -4 107 2 56 5 106 5 112 0 5 5 4 11
-2 8 -8 9 -43 4 -117z m35 9 c0 -70 -4 -115 -10 -115 -6 0 -10 45 -10 115 0
70 4 115 10 115 6 0 10 -45 10 -115z m140 5 c0 -67 -4 -110 -10 -110 -6 0 -10
43 -10 110 0 67 4 110 10 110 6 0 10 -43 10 -110z m31 -7 c-1 -59 -4 -110 -7
-112 -2 -2 -4 49 -4 114 0 65 3 116 6 112 4 -3 6 -55 5 -114z m39 7 c0 -67 -4
-110 -10 -110 -6 0 -10 43 -10 110 0 67 4 110 10 110 6 0 10 -43 10 -110z m28
-7 l-1 -118 -7 110 c-7 102 -6 125 6 125 2 0 3 -53 2 -117z m42 2 c0 -70 -4
-115 -10 -115 -6 0 -10 45 -10 115 0 70 4 115 10 115 6 0 10 -45 10 -115z m30
-2 c0 -64 -2 -114 -4 -112 -7 7 -15 217 -9 223 12 12 13 5 13 -111z m40 2 c0
-70 -4 -115 -10 -115 -6 0 -10 45 -10 115 0 70 4 115 10 115 6 0 10 -45 10
-115z m32 -4 c-2 -68 -7 -109 -13 -105 -5 3 -8 50 -5 112 5 122 4 115 14 109
4 -3 6 -55 4 -116z m38 4 c0 -70 -4 -115 -10 -115 -6 0 -10 45 -10 115 0 70 4
115 10 115 6 0 10 -45 10 -115z m31 3 c-3 -140 -11 -138 -11 2 0 62 3 111 6
107 4 -3 6 -52 5 -109z m126 -55 c-2 -32 -3 -6 -3 57 0 63 1 89 3 58 2 -32 2
-84 0 -115z m73 57 c0 -67 -4 -110 -10 -110 -11 0 -14 202 -3 213 12 13 13 7
13 -103z m32 -11 l-9 -104 -2 115 c-1 82 2 111 10 103 7 -7 8 -42 1 -114z m38
11 c0 -67 -4 -110 -10 -110 -6 0 -10 43 -10 110 0 67 4 110 10 110 6 0 10 -43
10 -110z m31 -2 c-3 -140 -11 -138 -11 2 0 62 3 111 6 107 4 -3 6 -52 5 -109z
m39 2 c0 -67 -4 -110 -10 -110 -6 0 -10 43 -10 110 0 67 4 110 10 110 6 0 10
-43 10 -110z m30 0 c0 -62 -4 -110 -9 -110 -6 0 -9 47 -8 110 1 60 5 110 10
110 4 0 7 -49 7 -110z m40 1 c0 -63 -4 -112 -10 -116 -6 -4 -10 35 -10 109 0
71 4 116 10 116 6 0 10 -43 10 -109z m30 -7 c0 -74 -4 -113 -10 -109 -6 4 -10
53 -10 116 0 66 4 109 10 109 6 0 10 -45 10 -116z m40 0 c0 -88 -3 -115 -12
-112 -9 3 -14 35 -16 103 -3 102 0 125 18 125 6 0 10 -43 10 -116z m30 1 c0
-70 -4 -115 -10 -115 -6 0 -10 45 -10 115 0 70 4 115 10 115 6 0 10 -45 10
-115z m38 79 c6 -47 -9 -195 -19 -188 -5 3 -9 55 -9 115 0 84 3 110 13 107 6
-3 14 -18 15 -34z m32 -79 c0 -70 -4 -115 -10 -115 -6 0 -10 45 -10 115 0 70
4 115 10 115 6 0 10 -45 10 -115z m35 0 c0 -78 -4 -110 -12 -112 -10 -4 -13
23 -13 112 0 89 3 116 13 113 8 -3 12 -35 12 -113z m35 0 c0 -70 -4 -115 -10
-115 -6 0 -10 45 -10 115 0 70 4 115 10 115 6 0 10 -45 10 -115z m30 0 c0 -70
-4 -115 -10 -115 -6 0 -10 45 -10 115 0 70 4 115 10 115 6 0 10 -45 10 -115z
m38 10 c1 -54 0 -106 -4 -114 -12 -28 -22 27 -23 127 -1 71 2 93 12 90 8 -3
13 -35 15 -103z m32 -10 c0 -70 -4 -115 -10 -115 -6 0 -10 45 -10 115 0 70 4
115 10 115 6 0 10 -45 10 -115z m30 -1 c0 -74 -4 -113 -10 -109 -6 4 -10 53
-10 116 0 66 4 109 10 109 6 0 10 -45 10 -116z m40 1 c0 -70 -4 -115 -10 -115
-6 0 -10 45 -10 115 0 70 4 115 10 115 6 0 10 -45 10 -115z m30 0 c0 -70 -4
-115 -10 -115 -6 0 -10 45 -10 115 0 70 4 115 10 115 6 0 10 -45 10 -115z m31
-108 c-12 -12 -26 197 -15 215 6 8 12 -29 17 -96 4 -65 4 -113 -2 -119z m39
108 c0 -70 -4 -115 -10 -115 -6 0 -10 45 -10 115 0 70 4 115 10 115 6 0 10
-45 10 -115z m30 0 c0 -70 -4 -115 -10 -115 -6 0 -10 43 -10 108 0 95 4 122
17 122 2 0 3 -52 3 -115z m40 0 c0 -70 -4 -115 -10 -115 -6 0 -10 45 -10 115
0 70 4 115 10 115 6 0 10 -45 10 -115z m30 0 c0 -70 -4 -115 -10 -115 -6 0
-10 45 -10 115 0 70 4 115 10 115 6 0 10 -45 10 -115z m40 0 c0 -63 -4 -115
-9 -115 -10 0 -26 204 -16 219 18 30 25 1 25 -104z m30 0 c0 -70 -4 -115 -10
-115 -6 0 -10 45 -10 115 0 70 4 115 10 115 6 0 10 -45 10 -115z m-1063 -32
c-2 -27 -3 -5 -3 47 0 52 1 74 3 48 2 -27 2 -69 0 -95z m70 -20 c-2 -32 -3 -8
-3 52 0 61 1 87 3 58 2 -29 2 -78 0 -110z m73 53 c0 -59 -4 -108 -10 -111 -6
-4 -10 33 -10 104 0 67 4 111 10 111 6 0 10 -41 10 -104z m940 -146 c0 -19 -7
-20 -254 -20 -246 0 -277 4 -261 30 4 6 102 10 261 10 247 0 254 -1 254 -20z"></path>
<path d="M2267 1612 c-3 -4 -3 -82 0 -175 l6 -167 143 0 144 0 0 175 0 175
-144 0 c-80 0 -147 -3 -149 -8z m253 -182 l0 -140 -105 0 -105 0 0 140 0 140
105 0 105 0 0 -140z"></path>
<path d="M3460 704 c0 -14 3 -14 15 -4 8 7 15 14 15 16 0 2 -7 4 -15 4 -8 0
-15 -7 -15 -16z"></path>
<path d="M3545 710 c3 -5 8 -10 11 -10 2 0 4 5 4 10 0 6 -5 10 -11 10 -5 0 -7
-4 -4 -10z"></path>
<path d="M4720 700 c0 -5 7 -7 15 -4 8 4 15 8 15 10 0 2 -7 4 -15 4 -8 0 -15
-4 -15 -10z"></path>
<path d="M3450 563 l5 -88 3 78 c2 57 6 76 15 70 7 -4 7 0 -2 10 -7 9 -16 17
-20 17 -3 0 -4 -39 -1 -87z"></path>
<path d="M4545 594 c1 -39 25 -73 25 -36 0 12 -4 22 -10 22 -5 0 -10 5 -10 11
0 6 9 9 20 6 28 -7 25 7 -3 20 -22 10 -23 9 -22 -23z"></path>
<path d="M3354 515 c0 -55 1 -76 3 -47 2 29 2 74 0 100 -2 26 -3 2 -3 -53z"></path>
<path d="M5398 580 c-3 -16 -1 -30 4 -30 4 0 8 14 8 30 0 17 -2 30 -4 30 -2 0
-6 -13 -8 -30z"></path>
<path d="M4460 545 c0 -32 3 -55 7 -51 7 7 5 97 -3 105 -2 2 -4 -22 -4 -54z"></path>
<path d="M4662 580 c0 -14 2 -19 5 -12 2 6 2 18 0 25 -3 6 -5 1 -5 -13z"></path>
<path d="M3314 490 c0 -58 1 -81 3 -52 2 28 2 76 0 105 -2 28 -3 5 -3 -53z"></path>
<path d="M4501 574 c0 -11 3 -14 6 -6 3 7 2 16 -1 19 -3 4 -6 -2 -5 -13z"></path>
<path d="M4842 570 c0 -14 2 -19 5 -12 2 6 2 18 0 25 -3 6 -5 1 -5 -13z"></path>
<path d="M3413 515 c0 -38 2 -53 4 -32 2 20 2 52 0 70 -2 17 -4 1 -4 -38z"></path>
<path d="M4681 564 c0 -11 3 -14 6 -6 3 7 2 16 -1 19 -3 4 -6 -2 -5 -13z"></path>
<path d="M3920 534 c0 -19 4 -33 8 -30 8 5 4 66 -4 66 -2 0 -4 -16 -4 -36z"></path>
<path d="M5351 554 c0 -11 3 -14 6 -6 3 7 2 16 -1 19 -3 4 -6 -2 -5 -13z"></path>
<path d="M3472 520 c0 -19 2 -27 5 -17 2 9 2 25 0 35 -3 9 -5 1 -5 -18z"></path>
<path d="M4586 537 c3 -10 9 -15 12 -12 3 3 0 11 -7 18 -10 9 -11 8 -5 -6z"></path>
<path d="M4515 520 c3 -5 8 -10 11 -10 2 0 4 5 4 10 0 6 -5 10 -11 10 -5 0 -7
-4 -4 -10z"></path>
<path d="M4682 505 c0 -16 2 -22 5 -12 2 9 2 23 0 30 -3 6 -5 -1 -5 -18z"></path>
<path d="M4702 500 c0 -19 2 -27 5 -17 2 9 2 25 0 35 -3 9 -5 1 -5 -18z"></path>
<path d="M4884 430 c0 -52 1 -74 3 -47 2 26 2 68 0 95 -2 26 -3 4 -3 -48z"></path>
<path d="M4904 435 c0 -49 1 -71 3 -48 2 23 2 64 0 90 -2 26 -3 8 -3 -42z"></path>
<path d="M3333 450 c0 -36 2 -50 4 -32 2 17 2 47 0 65 -2 17 -4 3 -4 -33z"></path>
<path d="M4821 494 c0 -11 3 -14 6 -6 3 7 2 16 -1 19 -3 4 -6 -2 -5 -13z"></path>
<path d="M4861 494 c0 -11 3 -14 6 -6 3 7 2 16 -1 19 -3 4 -6 -2 -5 -13z"></path>
<path d="M3392 475 c0 -16 2 -22 5 -12 2 9 2 23 0 30 -3 6 -5 -1 -5 -18z"></path>
<path d="M4585 490 c-3 -6 1 -7 9 -4 18 7 21 14 7 14 -6 0 -13 -4 -16 -10z"></path>
<path d="M4761 484 c0 -11 3 -14 6 -6 3 7 2 16 -1 19 -3 4 -6 -2 -5 -13z"></path>
<path d="M4530 475 c0 -8 5 -15 10 -15 6 0 10 7 10 15 0 8 -4 15 -10 15 -5 0
-10 -7 -10 -15z"></path>
<path d="M4655 480 c3 -5 8 -10 11 -10 2 0 4 5 4 10 0 6 -5 10 -11 10 -5 0 -7
-4 -4 -10z"></path>
<path d="M4843 455 c0 -22 2 -30 4 -17 2 12 2 30 0 40 -3 9 -5 -1 -4 -23z"></path>
<path d="M4983 445 c0 -27 2 -38 4 -22 2 15 2 37 0 50 -2 12 -4 0 -4 -28z"></path>
<path d="M3780 471 c0 -5 5 -13 10 -16 6 -3 10 -2 10 4 0 5 -4 13 -10 16 -5 3
-10 2 -10 -4z"></path>
<path d="M3922 450 c0 -19 2 -27 5 -17 2 9 2 25 0 35 -3 9 -5 1 -5 -18z"></path>
<path d="M4501 464 c0 -11 3 -14 6 -6 3 7 2 16 -1 19 -3 4 -6 -2 -5 -13z"></path>
<path d="M4942 450 c0 -19 2 -27 5 -17 2 9 2 25 0 35 -3 9 -5 1 -5 -18z"></path>
<path d="M5071 446 c-1 -29 2 -37 10 -29 8 8 8 19 1 40 -10 28 -10 28 -11 -11z"></path>
<path d="M5163 430 c0 -25 2 -35 4 -22 2 12 2 32 0 45 -2 12 -4 2 -4 -23z"></path>
<path d="M5195 460 c-3 -5 -1 -10 4 -10 6 0 11 5 11 10 0 6 -2 10 -4 10 -3 0
-8 -4 -11 -10z"></path>
<path d="M3820 421 c0 -25 6 -27 13 -6 4 8 2 17 -3 20 -6 4 -10 -3 -10 -14z"></path>
<path d="M3981 424 c0 -11 3 -14 6 -6 3 7 2 16 -1 19 -3 4 -6 -2 -5 -13z"></path>
<path d="M5042 415 c0 -16 2 -22 5 -12 2 9 2 23 0 30 -3 6 -5 -1 -5 -18z"></path>
<path d="M3391 414 c0 -11 3 -14 6 -6 3 7 2 16 -1 19 -3 4 -6 -2 -5 -13z"></path>
<path d="M3438 413 c7 -3 16 -2 19 1 4 3 -2 6 -13 5 -11 0 -14 -3 -6 -6z"></path>
<path d="M3981 384 c0 -11 3 -14 6 -6 3 7 2 16 -1 19 -3 4 -6 -2 -5 -13z"></path>
<path d="M5450 380 c0 -5 5 -10 11 -10 5 0 7 5 4 10 -3 6 -8 10 -11 10 -2 0
-4 -4 -4 -10z"></path>
<path d="M3902 360 c0 -14 2 -19 5 -12 2 6 2 18 0 25 -3 6 -5 1 -5 -13z"></path>
<path d="M3922 355 c0 -16 2 -22 5 -12 2 9 2 23 0 30 -3 6 -5 -1 -5 -18z"></path>
<path d="M4722 350 c0 -14 2 -19 5 -12 2 6 2 18 0 25 -3 6 -5 1 -5 -13z"></path>
<path d="M3941 344 c0 -11 3 -14 6 -6 3 7 2 16 -1 19 -3 4 -6 -2 -5 -13z"></path>
<path d="M4141 344 c0 -11 3 -14 6 -6 3 7 2 16 -1 19 -3 4 -6 -2 -5 -13z"></path>
<path d="M4550 335 c0 -8 -4 -15 -10 -15 -5 0 -10 -7 -10 -15 0 -13 3 -13 20
-3 21 13 28 48 10 48 -5 0 -10 -7 -10 -15z"></path>
<path d="M5453 334 c-3 -8 -1 -25 5 -37 10 -20 11 -18 11 16 1 39 -5 48 -16
21z"></path>
<path d="M5181 324 c0 -11 3 -14 6 -6 3 7 2 16 -1 19 -3 4 -6 -2 -5 -13z"></path>
<path d="M4342 313 c4 -22 30 -24 35 -3 4 13 3 13 -6 0 -9 -13 -11 -13 -11 3
0 9 -5 17 -11 17 -6 0 -9 -8 -7 -17z"></path>
<path d="M5201 293 c0 -12 -9 -27 -18 -32 -16 -9 -16 -10 3 -11 46 0 84 13 83
29 0 10 -2 11 -6 4 -9 -23 -51 -15 -56 10 l-4 22 -2 -22z"></path>
<path d="M4313 253 c-31 -21 -29 -28 9 -27 35 1 46 15 26 31 -9 8 -20 6 -35
-4z"></path>
<path d="M5385 260 c3 -5 8 -10 11 -10 2 0 4 5 4 10 0 6 -5 10 -11 10 -5 0 -7
-4 -4 -10z"></path>
</g>
</svg>