 <svg version="1.0" xmlns="http://www.w3.org/2000/svg" viewBox="0 0 700.000000 467.000000" preserveAspectRatio="xMidYMid meet" id="mask">
<g transform="translate(0.000000,467.000000) scale(0.100000,-0.100000)">
<path d="M4375 2168 c-4 -11 -66 -14 -303 -14 -271 0 -306 -2 -402 -23 -110
-23 -118 -26 -106 -38 8 -9 54 -9 406 2 223 6 280 4 456 -14 218 -23 564 -77
578 -91 12 -12 -58 -78 -104 -97 -43 -19 -93 -26 -720 -108 -460 -61 -748 -95
-792 -95 -25 0 -37 123 -14 149 22 24 21 45 -1 35 -10 -4 -47 -10 -83 -13 -36
-4 -75 -12 -88 -19 -13 -8 -37 -43 -55 -80 l-32 -67 -325 3 c-179 2 -328 7
-332 11 -4 4 3 23 17 43 14 20 22 38 17 40 -12 6 -457 -9 -642 -21 -182 -12
-223 -20 -405 -77 -109 -35 -367 -155 -415 -194 -24 -20 -4 -12 180 67 67 29
185 57 205 49 26 -9 12 -19 -75 -49 -41 -15 -113 -50 -160 -77 -47 -28 -112
-64 -145 -79 -93 -45 -180 -52 -130 -11 8 7 15 17 15 22 0 18 -63 -28 -106
-79 -34 -40 -44 -59 -44 -87 0 -27 -6 -40 -25 -52 -30 -20 -31 -38 -5 -106 17
-46 18 -59 8 -109 -14 -67 -9 -83 34 -109 51 -31 96 -36 113 -14 22 29 17 47
-18 69 -21 14 -36 34 -44 60 -32 107 -45 165 -40 177 5 16 84 45 93 35 4 -3
21 -46 39 -94 19 -48 37 -89 42 -90 5 -2 16 12 26 30 10 18 31 41 47 52 21 14
35 37 50 84 22 66 35 91 51 91 4 0 -3 -24 -16 -52 -29 -65 -35 -103 -16 -103
8 0 15 13 16 31 6 79 127 224 231 277 155 78 354 76 507 -5 122 -65 198 -164
237 -311 19 -70 22 -101 19 -217 l-4 -135 595 3 c327 1 712 7 855 12 143 6
448 10 679 10 l418 0 -8 92 c-11 126 -11 144 -2 212 18 130 130 293 245 355
109 60 154 71 276 71 183 0 271 -32 402 -147 122 -106 160 -204 160 -406 l-1
-117 36 6 c19 4 62 16 95 28 56 20 62 25 86 75 15 29 48 119 73 200 64 199 69
208 112 226 l36 15 -5 57 c-11 122 -36 261 -61 329 -14 39 -26 81 -26 93 0 19
-4 20 -45 14 -26 -3 -45 -2 -45 4 0 5 -57 10 -132 11 -113 2 -156 8 -302 42
-311 71 -576 121 -846 160 -111 16 -148 25 -160 39 -20 24 -167 40 -175 19z
m625 -319 c104 -1 38 -16 -150 -33 -297 -28 -296 -28 -280 -18 43 27 261 64
330 56 19 -2 64 -4 100 -5z m1099 -131 c16 -46 17 -57 6 -62 -10 -3 -19 11
-29 49 -31 104 -12 115 23 13z m-3876 55 c-7 -2 -19 -2 -25 0 -7 3 -2 5 12 5
14 0 19 -2 13 -5z m1110 -30 c-7 -2 -21 -2 -30 0 -10 3 -4 5 12 5 17 0 24 -2
18 -5z m-1103 -218 c42 -28 165 -126 411 -325 28 -23 51 -84 37 -98 -15 -15
-81 -15 -128 -2 -29 8 -472 351 -545 421 -30 29 -6 39 91 39 77 0 85 -2 134
-35z m3477 -209 c37 -55 70 -152 79 -235 9 -76 -10 -56 -26 29 -12 66 -78 221
-99 234 -6 4 -11 12 -11 17 0 22 26 1 57 -45z m-1207 -155 c0 -15 -134 -184
-174 -219 -37 -33 -85 -42 -115 -23 -11 7 -4 12 25 20 21 6 44 11 49 11 11 0
79 76 138 154 36 49 54 66 70 66 4 0 7 -4 7 -9z"></path>
<path d="M3440 1911 c0 -5 10 -11 23 -13 20 -3 22 -8 22 -61 -1 -69 19 -72 23
-4 2 36 -2 51 -17 66 -22 22 -51 28 -51 12z"></path>
</g>
</svg>