<svg version="1.0" xmlns="http://www.w3.org/2000/svg" viewBox="0 0 700.000000 423.000000" preserveAspectRatio="xMidYMid meet" id="mask">
<g transform="translate(0.000000,423.000000) scale(0.100000,-0.100000)">
<path d="M3098 3098 c-121 -112 -196 -189 -193 -198 2 -8 9 -30 17 -48 11 -29
11 -37 -5 -63 -9 -17 -17 -43 -17 -59 0 -24 5 -28 38 -34 62 -10 92 -7 92 8 0
25 16 27 121 16 78 -8 110 -7 137 2 29 11 36 10 46 -3 8 -12 38 -18 119 -24
102 -7 109 -8 117 -31 9 -22 15 -24 70 -24 l60 0 -1 93 0 92 -190 225 c-105
124 -196 226 -202 228 -7 1 -101 -80 -209 -180z m264 76 c4 -3 8 -52 8 -110
l0 -104 -27 0 c-16 0 -45 3 -65 6 l-38 7 0 102 c0 56 3 105 8 109 7 8 98 -1
114 -10z"></path>
<path d="M1297 2803 c-4 -4 -5 -20 -2 -37 4 -20 1 -38 -9 -51 l-15 -20 -16 20
c-16 19 -16 18 -10 -17 3 -21 1 -39 -5 -43 -6 -4 -10 -84 -10 -220 l0 -214 53
-5 c28 -3 106 -8 172 -11 490 -22 1153 -55 1218 -60 l77 -5 0 274 0 274 -32 5
c-18 3 -79 9 -135 13 l-103 7 -2 -234 -3 -234 -68 4 c-63 3 -69 1 -74 -18 -6
-25 -5 -25 -298 -11 -292 14 -315 17 -315 40 0 24 -19 30 -91 30 l-59 0 -2
248 -3 247 -53 3 c-43 2 -57 -1 -68 -15 -12 -16 -15 -16 -24 -3 -7 10 -12 11
-17 4 -14 -19 -43 -25 -43 -9 0 8 -6 15 -14 15 -8 0 -16 7 -20 15 -6 16 -18
19 -29 8z"></path>
<path d="M1241 2764 c0 -11 3 -14 6 -6 3 7 2 16 -1 19 -3 4 -6 -2 -5 -13z"></path>
<path d="M2804 2701 c-2 -2 -4 -132 -4 -288 0 -218 3 -285 13 -288 15 -5 817
-45 905 -45 l62 0 0 275 0 275 -40 0 -40 0 -2 -217 -3 -218 -62 -3 c-50 -2
-63 -6 -63 -19 0 -14 -17 -15 -162 -9 -347 14 -369 16 -379 43 -8 21 -15 23
-68 23 -44 0 -60 4 -65 16 -3 9 -6 114 -6 234 l0 218 -41 4 c-22 2 -42 2 -45
-1z"></path>
<path d="M3824 2350 c0 -140 2 -198 3 -127 2 70 2 184 0 255 -1 70 -3 12 -3
-128z"></path>
<path d="M3850 2352 c0 -185 3 -253 12 -258 16 -10 480 -34 495 -25 25 13 602
436 602 441 1 5 -717 66 -1021 87 l-88 6 0 -251z"></path>
<path d="M5028 2274 c-186 -140 -338 -258 -338 -262 0 -4 20 -31 45 -59 40
-46 44 -55 34 -72 -7 -10 -26 -23 -43 -28 -20 -6 -32 -17 -36 -33 -6 -24 -9
-25 -98 -28 l-92 -3 0 -354 c0 -195 2 -355 3 -355 2 0 19 7 37 16 18 9 57 17
86 18 l54 0 0 278 0 277 365 -2 c201 -1 365 -5 365 -8 0 -3 134 -9 297 -13
208 -6 300 -11 305 -19 4 -7 8 -148 8 -314 0 -266 2 -303 15 -303 9 0 25 16
36 35 12 19 26 35 32 35 7 1 23 10 37 21 25 21 25 23 26 190 1 93 -2 171 -6
174 -5 3 -19 -9 -33 -26 -14 -18 -29 -29 -36 -25 -14 9 -14 43 0 52 6 3 9 19
6 33 -7 34 26 69 48 51 19 -16 23 -3 23 70 0 121 1 119 -81 122 l-72 3 -5 108
c-5 106 -6 109 -35 134 -16 14 -155 141 -308 282 -153 141 -284 257 -290 258
-7 1 -164 -113 -349 -253z m371 160 l31 -6 0 -109 0 -109 -39 0 c-71 0 -71 0
-71 121 0 122 -2 119 79 103z m-755 -863 c18 -20 14 -63 -9 -91 -6 -8 -15 -23
-18 -32 -4 -10 -16 -18 -27 -18 -15 0 -20 7 -20 24 0 14 5 28 11 31 6 4 7 19
4 37 -5 21 -2 35 11 49 21 24 27 24 48 0z"></path>
<path d="M1280 1841 c0 -14 -7 -25 -20 -28 -19 -5 -20 -14 -20 -204 l0 -199
163 2 162 3 3 183 2 182 75 0 c68 0 75 2 75 20 0 19 7 20 93 20 52 0 189 -3
305 -7 204 -6 211 -7 214 -27 3 -18 12 -22 73 -26 l70 -5 3 -177 2 -178 220 0
220 0 0 110 c0 118 -12 143 -26 58 -7 -43 -13 -53 -29 -53 -18 0 -20 6 -19 56
1 30 7 65 13 78 12 21 14 21 30 7 10 -9 21 -16 24 -16 11 0 8 118 -3 125 -5 3
-10 14 -10 25 0 25 36 23 -1397 66 l-223 7 0 -22z"></path>
<path d="M3005 1801 c-3 -5 -2 -12 2 -14 5 -2 145 -8 313 -12 167 -3 308 -9
312 -11 5 -3 8 -158 8 -345 l0 -339 41 0 42 0 -8 43 c-12 67 -8 110 11 124 26
19 71 16 94 -7 23 -23 26 -72 6 -89 -8 -6 -16 -23 -19 -37 -6 -33 20 -45 40
-18 12 16 14 77 11 346 -2 179 -6 329 -10 333 -5 5 -620 31 -820 35 -9 0 -19
-4 -23 -9z m739 -210 c-4 -14 -11 -30 -15 -35 -5 -6 -9 -20 -9 -33 0 -16 -6
-23 -20 -23 -18 0 -19 6 -17 59 1 32 8 66 16 75 13 15 15 15 32 0 13 -12 17
-25 13 -43z"></path>
<path d="M4365 1778 c-24 -6 -113 -7 -223 -4 l-182 6 -10 -26 c-6 -14 -10
-102 -10 -195 l0 -169 130 0 130 0 10 26 c6 14 10 34 10 44 0 10 14 50 32 89
l32 71 17 -27 c32 -48 76 -270 85 -431 5 -78 18 -116 37 -109 9 3 13 99 15
370 3 412 10 376 -73 355z"></path>
<path d="M1297 1354 c-9 -10 -9 -194 1 -194 27 1 33 20 30 105 -3 81 -12 108
-31 89z"></path>
<path d="M1357 1354 c-9 -10 -9 -174 1 -174 27 1 33 20 30 95 -3 72 -13 97
-31 79z"></path>
<path d="M1417 1354 c-12 -12 -8 -149 5 -162 24 -24 29 -10 26 75 -3 79 -12
106 -31 87z"></path>
<path d="M1467 1353 c-4 -3 -7 -37 -7 -75 0 -54 3 -70 16 -75 23 -9 34 15 34
78 0 61 -20 95 -43 72z"></path>
<path d="M1527 1354 c-11 -11 -8 -172 3 -179 6 -3 10 -15 10 -26 0 -12 5 -19
13 -16 8 2 12 34 12 113 0 90 -3 109 -15 112 -9 1 -19 0 -23 -4z"></path>
<path d="M1247 1343 c-9 -8 -9 -115 -1 -165 12 -72 24 -38 24 67 0 96 -5 117
-23 98z"></path>
<path d="M2496 1334 c-8 -20 -8 -102 0 -131 12 -45 24 -10 24 68 0 74 -10 100
-24 63z"></path>
<path d="M2538 1255 c-2 -52 -1 -95 3 -95 20 0 29 32 29 107 0 65 -3 83 -14
83 -12 0 -15 -21 -18 -95z"></path>
<path d="M2590 1264 c0 -64 3 -85 13 -82 8 3 13 32 15 86 2 68 0 82 -13 82
-12 0 -15 -15 -15 -86z"></path>
<path d="M2644 1336 c-10 -26 1 -139 14 -144 9 -3 12 17 12 77 0 49 -4 81 -10
81 -6 0 -13 -6 -16 -14z"></path>
<path d="M2697 1343 c-11 -10 -8 -122 3 -144 6 -10 17 -19 25 -19 19 0 19 4 0
39 -8 16 -12 31 -9 34 8 7 12 69 6 85 -5 13 -15 16 -25 5z"></path>
<path d="M2747 1344 c-10 -10 -9 -132 1 -138 20 -12 30 13 28 73 -1 59 -12 82
-29 65z"></path>
<path d="M2796 1342 c-8 -13 -5 -102 4 -102 13 0 32 47 28 75 -3 29 -21 44
-32 27z"></path>
<path d="M2847 1343 c-9 -8 -9 -68 0 -76 10 -11 33 14 34 37 0 20 1 20 10 -2
11 -28 29 -20 29 12 0 29 -10 39 -26 25 -8 -7 -14 -7 -19 1 -7 12 -19 13 -28
3z"></path>
<path d="M3940 1262 c0 -70 -3 -81 -24 -101 -28 -27 -40 -61 -21 -61 7 0 18
13 25 30 7 16 18 35 26 41 17 14 20 169 4 169 -6 0 -10 -33 -10 -78z"></path>
<path d="M3980 1273 c0 -48 3 -64 10 -53 13 20 13 120 0 120 -6 0 -10 -29 -10
-67z"></path>
<path d="M4020 1284 c0 -40 3 -55 13 -51 6 2 12 9 11 15 -1 7 -2 30 -2 52 -3
62 -22 47 -22 -16z"></path>
<path d="M4067 1333 c-13 -12 -7 -89 8 -109 13 -17 14 -13 15 49 0 62 -6 78
-23 60z"></path>
<path d="M4110 1285 c0 -30 5 -55 10 -55 6 0 10 25 10 55 0 30 -4 55 -10 55
-5 0 -10 -25 -10 -55z"></path>
<path d="M4152 1258 c4 -107 23 -110 23 -4 -1 55 -4 81 -13 84 -10 3 -12 -16
-10 -80z"></path>
<path d="M2955 1300 c-3 -6 1 -13 10 -16 19 -8 30 0 20 15 -8 14 -22 14 -30 1z"></path>
<path d="M1587 1275 c-9 -23 3 -73 19 -79 18 -7 36 28 32 62 -3 31 -41 44 -51
17z"></path>
<path d="M1654 1275 c-9 -21 3 -45 21 -45 10 0 15 10 15 30 0 32 -26 43 -36
15z"></path>
<path d="M2331 1268 c-5 -14 -5 -24 1 -27 12 -4 28 17 28 37 0 20 -20 13 -29
-10z"></path>
<path d="M2387 1284 c-15 -15 -7 -45 11 -42 9 2 17 12 17 22 0 20 -16 31 -28
20z"></path>
<path d="M1713 1256 c2 -17 9 -32 15 -34 16 -5 15 0 -3 34 l-16 29 4 -29z"></path>
<path d="M1778 1253 c7 -3 16 -2 19 1 4 3 -2 6 -13 5 -11 0 -14 -3 -6 -6z"></path>
<path d="M1170 1241 c0 -13 29 -35 37 -28 7 8 -15 37 -28 37 -5 0 -9 -4 -9 -9z"></path>
<path d="M1827 1244 c-3 -4 1 -21 11 -38 16 -30 17 -30 20 -8 6 39 -12 65 -31
46z"></path>
<path d="M1881 1198 c4 -82 39 -88 39 -7 0 43 -3 49 -20 49 -18 0 -21 -6 -19
-42z"></path>
<path d="M1934 1225 c-9 -22 5 -67 19 -62 7 2 13 20 15 40 2 28 0 37 -13 37
-8 0 -18 -7 -21 -15z"></path>
<path d="M1990 1210 c0 -23 4 -30 20 -30 16 0 20 7 20 30 0 23 -4 30 -20 30
-16 0 -20 -7 -20 -30z"></path>
<path d="M2050 1214 c0 -31 23 -28 28 4 2 15 -2 22 -12 22 -11 0 -16 -9 -16
-26z"></path>
<path d="M2100 1221 c0 -11 3 -27 6 -35 6 -15 8 -15 20 1 20 27 17 53 -6 53
-13 0 -20 -7 -20 -19z"></path>
<path d="M2150 1208 c1 -31 19 -68 34 -68 3 0 6 23 6 50 0 43 -3 50 -20 50
-16 0 -20 -7 -20 -32z"></path>
<path d="M2210 1194 c0 -59 24 -55 28 4 2 33 0 42 -12 42 -12 0 -16 -11 -16
-46z"></path>
<path d="M2266 1232 c-3 -6 1 -15 8 -21 8 -7 17 -8 20 -3 3 6 -1 15 -8 21 -8
7 -17 8 -20 3z"></path>
<path d="M2695 1150 c3 -5 8 -10 11 -10 2 0 4 5 4 10 0 6 -5 10 -11 10 -5 0
-7 -4 -4 -10z"></path>
<path d="M1275 1109 c-10 -15 1 -23 20 -15 9 3 13 10 10 16 -8 13 -22 13 -30
-1z"></path>
<path d="M2215 1110 c-3 -5 -1 -10 4 -10 6 0 11 5 11 10 0 6 -2 10 -4 10 -3 0
-8 -4 -11 -10z"></path>
<path d="M1910 1100 c0 -5 7 -10 15 -10 8 0 15 5 15 10 0 6 -7 10 -15 10 -8 0
-15 -4 -15 -10z"></path>
<path d="M3250 1090 c0 -5 12 -10 26 -10 14 0 23 4 19 10 -3 6 -15 10 -26 10
-10 0 -19 -4 -19 -10z"></path>
<path d="M3180 1080 c0 -5 5 -10 10 -10 6 0 10 5 10 10 0 6 -4 10 -10 10 -5 0
-10 -4 -10 -10z"></path>
</g>
</svg>