 <svg version="1.0" xmlns="http://www.w3.org/2000/svg" viewBox="0 0 700.000000 423.000000" preserveAspectRatio="xMidYMid meet" id="mask">

<g transform="translate(0.000000,423.000000) scale(0.100000,-0.100000)">
<path d="M0 3359 l0 -469 23 -4 c12 -3 89 -10 172 -16 82 -6 152 -13 154 -16
9 -8 9 -20 16 -973 l8 -941 26 0 c54 0 52 -16 50 441 -1 233 -3 442 -4 464 -2
22 -6 395 -10 830 l-8 789 -34 49 c-19 27 -33 50 -31 52 2 2 92 26 201 53
l198 50 487 -94 c268 -52 490 -94 495 -94 16 0 5 -18 -18 -28 -51 -24 -29 -38
93 -60 64 -12 289 -53 498 -92 210 -38 391 -70 403 -70 17 0 21 6 21 35 0 19
-4 35 -9 35 -5 0 -415 79 -912 175 -497 97 -1102 214 -1344 260 -242 47 -448
87 -457 89 -17 4 -18 -23 -18 -465z"></path>
<path d="M6700 3783 c-129 -19 -236 -36 -238 -38 -2 -2 -3 -189 -3 -417 1
-227 1 -425 1 -440 -1 -16 -1 -49 -2 -75 -1 -46 4 -95 18 -177 6 -38 7 -38 43
-32 20 3 48 6 64 6 l27 0 0 104 0 103 128 7 c70 4 157 9 195 13 l67 6 0 488 0
489 -32 -1 c-18 -1 -139 -17 -268 -36z"></path>
<path d="M6275 3723 c-49 -7 -457 -67 -905 -131 l-815 -118 -3 -142 -3 -142
28 0 c16 0 125 11 243 25 118 14 221 25 227 25 10 0 13 -134 16 -617 l2 -618
3 710 2 710 -39 34 c-21 18 -44 37 -52 41 -7 5 -11 11 -9 14 3 2 212 34 465
69 l460 65 102 -55 c102 -54 123 -70 107 -82 -5 -3 -23 -25 -41 -47 l-32 -42
-1 -840 0 -840 27 -7 c14 -3 90 -5 168 -4 78 1 146 0 151 -3 5 -3 131 -9 279
-12 149 -4 287 -9 308 -12 l37 -6 0 221 0 221 -195 0 -195 0 0 105 0 105 -254
0 -255 0 -3 111 c-2 61 1 113 5 116 5 3 76 10 158 16 132 9 149 12 149 28 0
10 5 21 10 24 8 5 7 11 0 20 -7 8 -8 20 -4 27 13 20 17 154 6 175 -7 12 -7 24
0 36 6 11 10 178 11 428 l2 409 -35 -1 c-19 -1 -75 -8 -125 -16z"></path>
<path d="M3555 3331 l-110 -16 4 -125 c2 -69 4 -126 5 -126 0 -1 51 5 111 12
61 7 116 13 123 14 9 0 12 33 12 130 0 118 -2 130 -17 129 -10 -1 -67 -9 -128
-18z"></path>
<path d="M3180 3279 l-195 -29 -106 20 c-58 11 -109 20 -112 20 -4 0 -7 -15
-7 -34 0 -41 8 -45 115 -52 44 -3 142 -17 217 -31 l137 -25 -20 -31 c-18 -30
-19 -55 -19 -462 l0 -430 30 -14 c23 -9 34 -10 44 -2 7 6 20 9 28 6 9 -4 20 4
28 20 11 20 12 98 7 419 l-7 395 55 6 55 7 0 124 0 124 -27 -1 c-16 -1 -116
-14 -223 -30z"></path>
<path d="M3190 2179 c0 -11 4 -18 10 -14 5 3 7 12 3 20 -7 21 -13 19 -13 -6z"></path>
<path d="M3190 2030 l0 -100 40 0 c38 0 40 2 40 29 0 17 5 33 10 36 6 4 8 11
5 16 -4 5 1 12 9 15 35 13 6 70 -47 92 -55 24 -57 21 -57 -88z"></path>
</g>
</svg>