 <svg version="1.0" xmlns="http://www.w3.org/2000/svg" viewBox="0 0 700.000000 423.000000" preserveAspectRatio="xMidYMid meet" id="mask">

<g transform="translate(0.000000,423.000000) scale(0.100000,-0.100000)">
<path d="M4790 3210 c-129 -16 -236 -29 -238 -29 -6 -2 0 -1271 6 -1275 4 -3
46 -6 92 -7 l85 -2 3 31 c3 32 3 32 -41 32 l-44 0 -6 68 c-12 124 -21 113 86
110 l92 -3 6 -65 6 -65 1 68 2 67 90 0 90 0 0 -50 c0 -37 4 -50 15 -50 9 0 12
-6 8 -17 -4 -13 -3 -15 6 -7 8 7 10 167 9 614 -3 529 -5 605 -18 606 -8 1
-121 -11 -250 -26z m230 -144 l0 -95 -52 -5 c-53 -6 -146 -13 -203 -17 -23 -2
-19 -3 15 -8 l45 -6 0 -89 c0 -52 -4 -90 -10 -91 -5 -2 -47 -6 -93 -10 l-83
-6 3 93 3 93 45 6 45 6 -47 1 -48 2 0 89 c0 50 3 92 8 94 4 3 44 8 90 11 l82
7 1 -68 c1 -106 17 -125 18 -21 1 82 2 88 24 93 25 5 77 11 125 13 l32 2 0
-94z m-2 -209 l3 -97 -78 -2 -78 -2 78 -3 77 -4 0 -94 0 -94 -86 -3 c-47 -2
-88 -1 -90 1 -2 2 -4 44 -4 93 0 64 3 88 13 88 9 0 9 2 -1 8 -9 6 -12 34 -10
103 l3 94 70 6 c108 9 100 17 103 -94z m-198 -212 l0 -95 -90 0 -90 0 0 89 0
90 38 4 c20 2 61 4 90 5 l52 2 0 -95z m200 -190 l0 -95 -29 0 c-15 0 -56 -3
-90 -6 l-61 -7 0 96 0 96 33 4 c17 2 58 5 90 5 l57 2 0 -95z m-195 12 c11
-116 15 -112 -93 -115 l-92 -3 0 90 c0 62 4 91 13 94 6 3 46 6 89 6 l76 1 7
-73z m190 -217 l0 -95 -85 0 -85 0 -3 92 -3 92 63 4 c123 7 113 16 113 -93z
m-190 -5 l0 -90 -90 0 -90 0 -3 79 c-2 44 -1 85 2 93 4 11 26 13 93 11 l88 -3
0 -90z"></path>
<path d="M3610 3078 c-161 -16 -160 -16 -160 -49 0 -30 0 -30 44 -24 l43 7 7
-162 c4 -89 4 -166 -1 -170 -4 -5 -24 -10 -43 -13 -34 -4 -33 -4 7 -5 l42 -2
0 -254 0 -255 -47 -4 -47 -3 48 -2 47 -2 0 -80 0 -80 -50 0 c-46 0 -50 -2 -50
-24 0 -23 4 -24 96 -31 101 -7 113 -3 114 38 0 14 -9 17 -50 17 l-50 0 0 80 0
80 60 0 60 0 0 -56 c0 -44 3 -54 13 -46 15 13 12 352 -3 352 -6 0 -10 -13 -10
-29 0 -28 -2 -29 -56 -33 -31 -1 -58 -1 -60 1 -2 2 -4 39 -4 82 l0 78 33 4 32
4 -32 1 -33 2 0 79 c0 67 3 80 18 84 16 4 16 5 0 6 -16 1 -18 12 -18 85 l0 85
53 4 52 3 -57 2 -58 2 0 79 0 80 44 6 c85 13 81 21 84 -167 l2 -167 -37 -4
-38 -4 38 -1 c30 -2 37 -6 37 -23 0 -11 5 -17 10 -14 12 7 14 442 3 448 -5 2
-42 0 -83 -5z m70 -848 l0 -80 -60 0 -60 0 0 80 0 80 60 0 60 0 0 -80z"></path>
<path d="M3363 3053 l-33 -4 0 -86 c0 -84 0 -85 23 -79 12 3 30 6 40 6 14 0
17 9 17 49 0 28 5 53 10 56 6 3 10 19 10 36 0 31 1 30 -67 22z"></path>
<path d="M0 2796 l0 -85 48 -6 c26 -3 54 -7 62 -8 13 -2 16 -68 21 -497 3
-272 6 -496 7 -497 8 -11 31 1 35 18 4 16 12 20 34 17 22 -2 28 -8 28 -28 0
-22 -5 -25 -35 -26 -19 -1 -42 -2 -50 -3 -13 -1 -15 -41 -12 -310 l3 -309 -68
-8 -68 -9 -3 -123 c-3 -142 -17 -132 135 -102 55 11 132 20 170 20 37 0 86 4
108 8 39 7 40 9 43 50 l3 44 -43 -4 -43 -3 -8 740 c-4 407 -10 839 -13 961
l-6 221 -147 11 c-80 7 -158 12 -173 12 l-28 0 0 -84z"></path>
<path d="M3330 2461 c0 -214 1 -221 20 -221 12 0 20 -7 20 -17 0 -14 4 -12 25
7 15 14 25 35 25 52 0 27 1 28 58 30 l57 1 -60 6 -60 6 -3 78 c-2 53 1 77 9
77 8 0 8 4 -1 15 -8 9 -11 43 -9 97 l4 83 -43 3 -42 3 0 -220z"></path>
<path d="M3397 2103 c-12 -11 -8 -23 8 -23 8 0 15 7 15 15 0 16 -12 20 -23 8z"></path>
</g>
</svg>