 <svg version="1.0" xmlns="http://www.w3.org/2000/svg" viewBox="0 0 700.000000 423.000000" preserveAspectRatio="xMidYMid meet" id="mask">

<g transform="translate(0.000000,423.000000) scale(0.100000,-0.100000)">
<path d="M2070 3180 l0 -1049 33 -6 c119 -20 180 -25 303 -26 113 -1 163 4
267 25 70 14 149 37 177 51 104 53 130 29 131 -120 0 -55 4 -120 7 -145 l7
-45 120 3 c66 2 135 6 152 9 29 4 34 2 43 -23 6 -15 47 -83 92 -151 l80 -123
42 0 c125 0 146 -19 155 -143 l6 -82 45 -3 c110 -6 649 -64 685 -73 99 -24
114 -31 125 -63 6 -17 14 -73 17 -123 6 -92 6 -93 32 -93 14 0 188 -7 386 -15
198 -8 381 -15 408 -15 l47 0 0 493 c0 370 3 496 12 505 7 7 26 12 43 12 16 0
39 7 49 15 11 8 28 13 38 9 13 -4 21 2 28 20 l10 26 130 0 c129 0 130 0 127
-23 -2 -18 4 -23 31 -25 20 -2 32 -9 32 -18 0 -9 11 -14 35 -14 19 0 35 2 35
4 0 2 -7 21 -16 42 -22 52 -11 115 27 158 16 19 29 39 29 45 0 6 14 11 31 11
24 0 30 4 27 18 -3 15 -17 17 -102 20 l-99 3 7 142 c5 91 11 144 19 150 14 10
398 -1 409 -12 4 -4 5 -71 1 -149 l-6 -142 -94 0 c-76 0 -93 -3 -93 -15 0 -10
10 -15 30 -15 19 0 30 -5 30 -14 0 -8 13 -27 29 -43 30 -31 47 -100 35 -147
l-6 -26 77 0 c72 0 76 -1 70 -20 -6 -19 -2 -20 173 -20 104 0 192 -5 211 -11
l31 -11 0 -509 c0 -399 3 -510 13 -513 6 -3 47 -7 90 -10 l77 -6 0 1665 0
1665 -2465 0 -2465 0 0 -1050z m2886 -600 c11 0 12 4 4 19 -18 35 -11 37 10 3
19 -30 23 -32 58 -26 20 4 52 15 70 26 39 22 52 23 52 4 0 -27 20 -28 30 -2
11 31 13 31 45 10 23 -15 25 -15 25 0 0 9 7 16 15 16 8 0 15 -8 15 -18 0 -9 9
-23 20 -30 11 -7 20 -8 20 -3 0 13 62 20 83 9 15 -8 18 -17 13 -43 -6 -28 -3
-36 14 -45 14 -7 20 -19 18 -33 -2 -18 -10 -22 -38 -22 -29 0 -36 4 -38 23 -2
13 -10 22 -20 21 -11 0 -12 -3 -4 -6 6 -2 12 -9 12 -14 0 -4 -7 -6 -15 -3 -23
9 -45 -15 -45 -48 0 -20 6 -32 18 -35 9 -3 32 -23 50 -46 36 -44 37 -80 5
-104 -21 -16 -254 -18 -270 -2 -6 6 -7 25 -2 52 12 65 0 156 -22 168 -11 5
-19 18 -19 29 0 10 -4 22 -10 25 -5 3 -10 1 -10 -4 0 -6 -11 -11 -25 -11 -14
0 -25 5 -25 10 0 6 4 10 9 10 4 0 6 11 3 25 -4 25 -5 25 -18 6 -8 -11 -11 -26
-8 -34 3 -8 1 -18 -5 -22 -6 -3 -15 5 -20 18 -6 14 -15 28 -20 32 -6 3 -11 27
-10 53 1 43 1 45 11 20 5 -16 16 -28 24 -28z m-919 -88 c4 -20 7 -58 8 -84 0
-27 2 -48 4 -48 3 0 18 12 33 27 20 19 39 27 67 27 27 1 47 8 65 25 31 29 35
15 6 -22 -14 -18 -18 -33 -14 -55 5 -22 1 -35 -15 -51 l-21 -21 58 0 c47 0 61
-5 80 -24 19 -20 20 -25 6 -30 -27 -11 -494 -7 -494 4 0 5 8 19 17 30 15 17
30 20 95 20 63 0 76 3 72 14 -3 8 -19 19 -34 25 -35 12 -48 50 -32 95 6 17 14
48 18 69 12 69 67 68 81 -1z m865 37 l24 -22 -20 -21 c-12 -12 -27 -31 -34
-42 -12 -18 -11 -7 2 27 6 13 1 15 -26 12 l-33 -3 28 11 c29 11 34 28 15 47
-22 22 18 14 44 -9z m108 -96 c-1 -44 -2 -47 -15 -29 -16 21 -20 58 -8 69 16
16 23 4 23 -40z"></path>
</g>
</svg>