 <svg version="1.0" xmlns="http://www.w3.org/2000/svg" id="mask" viewBox="0 0 700.000000 423.000000" preserveAspectRatio="xMidYMid meet">

<g transform="translate(0.000000,423.000000) scale(0.100000,-0.100000)">
<path d="M5300 2546 l0 -306 -255 0 -255 0 0 300 0 300 -425 0 -425 0 0 -234
0 -235 -52 -6 c-29 -3 -174 -5 -323 -3 l-270 3 0 235 0 235 -352 3 -353 2 0
-299 c0 -170 -4 -302 -9 -305 -5 -4 -122 -3 -260 1 l-252 6 7 299 7 298 -228
0 -228 0 5 -70 c5 -61 9 -73 32 -91 36 -28 34 -67 -4 -104 l-30 -29 0 -363 0
-363 650 0 c379 0 650 4 650 9 0 5 -13 40 -29 78 -24 54 -27 70 -17 78 7 6 18
26 24 45 16 46 42 68 111 90 47 15 383 122 552 176 45 14 50 14 165 -21 66
-20 162 -49 214 -65 329 -96 353 -104 381 -133 20 -20 29 -38 29 -62 0 -26 4
-34 21 -37 19 -3 16 -9 -30 -78 l-51 -75 752 -3 c413 -1 753 0 756 2 2 3 0
173 -5 378 l-8 373 -23 10 c-19 8 -22 16 -20 50 2 30 9 42 25 50 19 8 22 19
25 80 2 38 3 71 3 71 0 1 -114 5 -252 9 l-253 7 0 -306z"></path>
<path d="M5898 2843 l-48 -4 0 -75 0 -74 40 0 41 0 -7 -37 c-8 -44 -18 -60
-45 -68 -18 -6 -19 -20 -18 -363 1 -311 2 -353 14 -326 15 33 54 71 105 101
l30 17 -2 416 -3 415 -30 1 c-16 0 -51 -1 -77 -3z"></path>
<path d="M1489 2833 c-4 -20 -6 -146 -9 -483 -2 -346 -7 -423 -35 -510 -6 -18
-1 -20 58 -20 l64 0 6 107 c4 58 7 223 7 365 l0 260 -30 30 c-40 40 -39 70 2
89 38 17 51 53 42 122 l-6 47 -49 0 c-27 0 -50 -3 -50 -7z"></path>
</g>
</svg>