 <svg version="1.0" xmlns="http://www.w3.org/2000/svg" id="mask" viewBox="0 0 700.000000 423.000000" preserveAspectRatio="xMidYMid meet">

<g transform="translate(0.000000,423.000000) scale(0.100000,-0.100000)">
<path d="M4210 3690 c0 -5 12 -11 28 -13 l27 -4 -26 -2 c-25 -1 -26 -3 -32
-83 -4 -46 -7 -111 -7 -145 l0 -63 -135 0 -135 0 0 153 0 152 -25 0 c-14 0
-25 -3 -25 -6 0 -3 -20 -4 -44 -3 l-43 2 -7 -66 c-3 -37 -6 -104 -6 -150 l0
-83 -132 3 -133 3 0 132 c0 72 -3 134 -6 138 -9 9 -124 9 -138 1 -7 -5 -11
-52 -11 -142 l0 -134 -135 0 -135 0 0 140 0 140 -27 1 c-16 1 -47 2 -70 3
l-43 1 0 -46 c0 -25 -3 -101 -7 -167 l-6 -122 700 0 c549 0 702 3 709 13 5 6
7 91 4 187 -3 96 -7 166 -9 155 -1 -12 -5 -15 -8 -7 -6 15 -33 16 -33 1 0 -7
-7 -8 -17 -4 -41 16 -73 23 -73 15z"></path>
<path d="M2201 2978 c-333 -4 -607 -10 -609 -13 -3 -3 -3 -7 -1 -9 8 -7 4269
7 4269 14 0 5 -42 10 -92 13 -160 8 -2933 4 -3567 -5z"></path>
<path d="M5910 2970 c0 -6 70 -10 193 -9 129 1 179 4 152 10 -58 12 -345 11
-345 -1z"></path>
<path d="M1215 2960 c-4 -7 50 -10 154 -10 101 0 161 4 161 10 0 6 -58 10
-154 10 -93 0 -157 -4 -161 -10z"></path>
<path d="M3333 2792 l-33 -3 0 -212 0 -212 320 3 320 3 -2 211 -3 212 -31 1
c-30 1 -32 -2 -38 -44 -3 -24 -6 -111 -6 -192 l0 -149 -100 0 -100 0 0 193 0
194 -30 -5 c-16 -2 -30 -9 -31 -16 0 -6 -4 -2 -9 9 -6 14 -9 -4 -9 -56 -1 -42
-4 -131 -8 -198 l-6 -122 -96 3 -96 3 -5 190 -5 190 -32 -3z"></path>
<path d="M4823 2782 l-33 -3 0 -265 0 -264 255 0 255 0 0 243 c0 133 -3 252
-6 265 -5 17 -13 22 -33 20 -35 -4 -39 -18 -40 -120 l-1 -88 -175 0 -175 0 -1
88 c-1 116 -6 128 -46 124z m397 -362 l0 -130 -174 0 -175 0 -3 126 c-2 69 -1
128 1 130 2 2 82 4 178 4 l173 0 0 -130z"></path>
<path d="M2118 2772 c-17 -2 -28 -11 -32 -25 -2 -12 -6 -130 -7 -262 l-2 -240
250 -3 250 -2 7 234 c8 258 4 306 -25 306 -11 0 -19 -6 -19 -12 0 -10 -2 -10
-9 0 -12 20 -21 -35 -21 -129 l0 -79 -172 2 -173 3 -6 102 c-3 57 -7 104 -10
105 -2 2 -16 2 -31 0z m387 -352 l0 -125 -172 -3 -173 -2 0 130 0 130 173 -2
172 -3 0 -125z"></path>
<path d="M4321 1918 c-19 -18 -23 -19 -18 -5 5 13 1 17 -21 17 -19 0 -23 -3
-14 -9 10 -6 8 -10 -8 -14 -12 -3 -24 -15 -27 -26 -6 -25 41 -24 -680 -21
l-513 2 0 -27 c0 -18 -6 -29 -20 -32 -30 -8 -25 -33 8 -34 16 -1 20 -3 10 -6
-16 -4 -18 -20 -18 -146 0 -78 -3 -234 -7 -346 l-6 -203 44 5 c27 3 53 0 68
-8 39 -20 68 -143 39 -162 -7 -4 -21 -23 -30 -40 l-17 -33 48 0 c40 0 50 3 54
20 5 18 14 20 79 20 44 0 79 5 86 12 9 9 12 9 12 0 0 -15 47 -16 52 0 3 8 58
12 181 15 153 3 177 1 177 -12 0 -18 55 -21 66 -4 4 8 9 7 15 -2 6 -10 9 -5
10 16 1 29 1 29 8 5 4 -14 13 -25 21 -25 11 0 14 18 13 90 -1 51 3 95 9 102 6
8 7 13 1 13 -12 0 -38 -29 -46 -53 -4 -11 -12 -15 -19 -11 -9 6 -9 9 0 12 20
6 13 19 -13 26 -16 4 -23 11 -19 18 6 9 9 9 12 0 2 -7 9 -9 15 -5 7 4 21 9 32
10 10 2 22 8 25 14 4 6 11 5 18 -4 8 -9 9 -24 2 -48 -15 -50 -12 -120 6 -149
8 -14 13 -18 10 -8 -2 9 -2 19 2 22 3 4 5 30 3 59 -1 28 3 67 8 86 14 46 -7
66 -68 66 l-46 0 -2 145 c-1 80 -2 149 -3 154 0 6 -15 -4 -32 -20 -44 -40 -74
-62 -65 -47 4 6 4 19 0 30 -5 10 -10 -49 -13 -132 l-5 -150 -110 0 c-60 0
-118 3 -127 7 -16 7 -18 23 -18 136 0 86 -4 132 -12 140 -20 20 -27 14 -31
-25 l-3 -38 -8 32 c-5 17 -14 34 -22 37 -11 4 -14 -10 -15 -72 -1 -42 -5 -111
-9 -152 l-7 -75 -3 60 c-3 53 -4 55 -7 18 l-4 -43 -53 0 -53 0 -7 53 c-3 28
-6 71 -6 95 0 23 -4 50 -9 60 -5 9 -12 24 -14 33 -3 10 -16 17 -31 17 -24 0
-26 -4 -28 -52 -1 -28 -5 57 -8 189 l-5 240 -30 6 c-27 6 -26 7 13 8 23 0 42
6 42 11 0 7 158 10 455 10 297 0 455 -3 455 -10 0 -5 10 -10 23 -10 14 0 18
-3 10 -8 -9 -6 -13 -57 -15 -177 -1 -94 -6 -181 -10 -195 -7 -24 -8 -24 -4 2
2 16 -3 33 -10 39 -11 9 -14 7 -14 -10 0 -11 -9 -26 -20 -33 -23 -14 -26 -34
-7 -41 9 -3 9 -9 -1 -26 -7 -13 -8 -21 -2 -21 6 0 13 6 16 14 3 8 14 16 25 19
18 5 19 -2 19 -144 0 -93 4 -149 10 -149 6 0 10 9 10 19 0 26 15 34 68 37 25
2 46 5 48 7 2 2 4 149 4 327 1 206 4 319 10 310 7 -11 10 -5 10 23 0 26 -4 37
-15 37 -8 0 -15 7 -15 15 0 8 6 15 14 15 8 0 16 3 19 8 2 4 2 1 1 -5 -2 -7 3
-13 10 -13 12 0 59 57 90 108 12 21 -18 14 -43 -10z m-88 -155 c-7 -2 -19 -2
-25 0 -7 3 -2 5 12 5 14 0 19 -2 13 -5z m-423 -486 c0 -18 -2 -19 -10 -7 -13
20 -13 43 0 35 6 -3 10 -16 10 -28z m-340 -26 c0 -5 -3 -23 -6 -40 -7 -32 -7
-32 -18 -9 -15 28 -9 58 10 58 8 0 14 -4 14 -9z m367 -33 c-3 -8 -6 -5 -6 6
-1 11 2 17 5 13 3 -3 4 -12 1 -19z m-27 -48 c0 -5 -4 -10 -10 -10 -5 0 -10 5
-10 10 0 6 5 10 10 10 6 0 10 -4 10 -10z"></path>
<path d="M1636 1794 c-2 -6 -2 -30 1 -54 l6 -42 131 4 131 3 -4 -317 -3 -318
185 0 c101 0 198 -3 214 -6 21 -4 35 -1 47 11 9 9 23 14 31 11 8 -3 15 -1 15
4 0 6 11 10 24 10 14 0 28 5 31 10 4 6 -8 10 -28 10 l-34 0 -6 83 c-4 45 -7
124 -7 175 l0 92 155 0 155 0 1 -72 c6 -283 7 -288 38 -288 18 0 19 13 26 300
l8 300 57 0 57 0 -5 31 c-2 17 -12 33 -21 37 -9 3 -18 9 -21 13 -9 13 -1179
16 -1184 3z m642 -206 l3 -98 -151 0 -150 0 0 93 c0 52 3 97 7 101 4 3 70 5
147 4 l141 -3 3 -97z m400 -7 l3 -104 -147 7 c-81 4 -151 9 -156 12 -4 3 -8
45 -8 94 l0 89 53 4 c28 2 97 4 152 3 l100 -1 3 -104z m-398 -296 l0 -185
-150 0 -150 0 0 185 0 185 150 0 150 0 0 -185z"></path>
<path d="M4829 1802 l-536 -2 -7 -38 c-3 -20 -6 -43 -6 -49 0 -10 40 -13 165
-13 l165 0 0 -189 0 -189 25 -16 c14 -9 25 -21 25 -27 0 -6 7 -17 15 -25 13
-14 15 -3 15 100 l0 116 150 0 150 0 0 -190 0 -190 -77 0 c-68 0 -75 -2 -58
-14 15 -10 91 -15 317 -20 l298 -7 2 323 3 323 156 3 156 2 -10 50 -9 49 -202
3 c-110 2 -442 2 -737 0z m161 -222 l0 -100 -150 0 -150 0 0 93 c0 52 3 97 7
100 3 4 71 7 150 7 l143 0 0 -100z m402 0 l1 -95 -151 -3 -152 -3 0 101 0 101
151 -3 150 -3 1 -95z m-5 -305 c1 -104 -1 -184 -4 -177 -3 9 -43 12 -148 12
-82 0 -146 4 -150 10 -3 5 -3 86 1 180 l7 171 146 -3 146 -3 2 -190z"></path>
<path d="M1470 1775 c0 -16 -6 -25 -15 -25 -8 0 -15 5 -15 10 0 6 -4 10 -10
10 -5 0 -10 -11 -10 -25 0 -25 1 -25 80 -25 83 0 89 4 69 43 -16 30 -28 37
-66 37 -29 0 -33 -3 -33 -25z"></path>
<path d="M5867 1733 c-4 -3 -7 -12 -7 -20 0 -10 31 -13 149 -13 127 0 150 -2
155 -16 3 -9 6 -87 6 -175 0 -158 0 -159 23 -159 12 0 32 11 44 23 20 21 22
35 25 174 2 108 0 154 -9 162 -8 7 -69 11 -177 11 -99 0 -167 4 -171 10 -7 11
-28 13 -38 3z"></path>
<path d="M1461 1306 l-3 -393 37 -7 c20 -4 43 -10 50 -13 12 -4 15 57 17 401
l3 406 -50 0 -50 0 -4 -394z"></path>
<path d="M4076 1621 c-4 -6 -3 -19 3 -28 9 -17 10 -17 17 0 8 21 -10 45 -20
28z"></path>
<path d="M346 1334 c-9 -387 -9 -570 -1 -583 8 -14 130 -14 156 0 23 12 16 29
-11 29 -10 0 -34 14 -52 30 -28 26 -31 33 -21 50 7 10 9 22 4 25 -11 6 -7 64
9 155 6 36 9 82 6 102 -5 31 -3 38 14 43 11 3 20 13 20 21 0 9 7 14 18 12 16
-3 17 12 17 189 0 105 -3 194 -6 197 -3 3 -37 8 -76 12 l-70 7 -7 -289z"></path>
<path d="M701 1372 c-1 -203 2 -248 15 -273 8 -17 13 -36 11 -42 -2 -7 0 -20
5 -30 6 -12 5 -23 -2 -33 -10 -11 -9 -19 4 -39 24 -36 20 -63 -9 -71 -14 -4
-24 -11 -22 -17 4 -13 57 -19 57 -6 0 6 33 8 79 6 76 -3 81 -5 116 -40 20 -20
34 -41 30 -47 -8 -13 13 -40 31 -40 8 0 14 8 14 18 0 10 5 23 12 30 9 9 9 17
-1 35 -20 38 -11 62 24 62 17 0 37 4 45 10 35 22 155 21 197 -3 26 -15 57 -16
48 -2 -3 6 0 10 8 10 8 0 15 10 16 23 3 55 7 72 16 79 9 7 -16 13 -37 9 -5 0
-8 6 -8 14 0 8 3 14 8 14 18 -3 32 2 32 11 0 6 -9 10 -20 10 -11 0 -20 5 -20
10 0 6 9 10 20 10 22 0 27 24 8 37 -7 4 -44 10 -83 13 l-70 5 0 218 c0 147 -4
220 -11 225 -6 4 -14 14 -17 22 -3 8 -7 -14 -8 -50 -1 -36 -4 -94 -5 -130 -2
-36 -3 -116 -3 -178 l-1 -113 -91 3 -91 3 1 202 c1 111 -1 218 -5 238 -6 33
-9 35 -44 35 l-37 0 -6 -112 c-4 -62 -7 -171 -7 -241 l0 -128 -81 3 -81 3 2
218 c1 184 -1 217 -14 217 -8 0 -17 10 -19 23 -2 12 -5 -87 -6 -221z"></path>
<path d="M4022 1568 c-7 -7 -12 -26 -12 -42 l1 -31 19 35 c11 19 19 38 20 43
0 11 -15 8 -28 -5z"></path>
<path d="M4080 1557 c0 -9 -4 -17 -10 -17 -16 0 -40 -57 -40 -95 0 -38 15 -47
25 -15 3 11 12 20 19 20 16 0 29 100 15 115 -6 5 -9 2 -9 -8z"></path>
<path d="M1404 1275 c0 -49 1 -71 3 -48 2 23 2 64 0 90 -2 26 -3 8 -3 -42z"></path>
<path d="M4062 1146 c4 -180 23 -184 23 -4 0 98 -3 132 -13 136 -10 3 -12 -25
-10 -132z"></path>
<path d="M4011 1128 c1 -80 3 -87 10 -48 11 64 11 140 -1 140 -6 0 -10 -37 -9
-92z"></path>
<path d="M6188 946 c-11 -8 -18 -30 -20 -62 l-3 -49 -75 -5 c-75 -5 -80 -9
-65 -44 6 -13 5 -21 -3 -24 -6 -2 -8 -10 -5 -18 4 -11 29 -14 119 -14 l114 0
0 38 c0 21 3 42 7 45 8 9 4 120 -5 128 -16 15 -48 17 -64 5z"></path>
<path d="M4087 893 c-4 -3 -7 -19 -7 -35 0 -24 4 -28 26 -28 21 0 25 3 19 18
-4 9 -10 25 -12 35 -6 18 -15 22 -26 10z"></path>
</g>
</svg>