 <svg version="1.0" xmlns="http://www.w3.org/2000/svg" id="mask" viewBox="0 0 700.000000 423.000000" preserveAspectRatio="xMidYMid meet">

<g transform="translate(0.000000,423.000000) scale(0.100000,-0.100000)">
<path d="M2538 2313 c6 -2 18 -2 25 0 6 3 1 5 -13 5 -14 0 -19 -2 -12 -5z"></path>
<path d="M2595 2309 c-11 -17 1 -21 15 -4 8 9 8 15 2 15 -6 0 -14 -5 -17 -11z"></path>
<path d="M2660 2310 c14 -4 56 -8 93 -9 l68 -1 -2 -115 c-1 -64 1 -119 5 -122
3 -4 6 48 6 115 l0 121 165 0 165 0 0 -42 c0 -23 -3 -72 -7 -109 l-6 -68 -42
0 c-36 0 -43 4 -52 28 l-11 27 -1 -28 c-1 -28 -2 -28 -53 -27 -77 2 -86 1 -70
-8 9 -6 12 -36 10 -113 l-3 -104 -47 -3 -48 -3 -2 98 -2 98 -5 -95 -6 -95 -47
-3 -48 -3 0 73 c0 53 -3 69 -10 58 -6 -8 -9 -40 -8 -70 l3 -55 -50 0 -50 0 -6
45 -6 45 -1 -48 -2 -48 -47 3 c-44 3 -48 5 -54 33 l-6 30 -4 -30 c-4 -29 -6
-30 -61 -33 l-58 -3 0 -109 0 -110 -35 -1 c-19 -1 -41 -2 -47 -3 -10 -1 -15
31 -19 114 l-5 115 -2 -111 -2 -111 -47 -6 c-27 -3 -50 -3 -53 -1 -2 3 -7 35
-9 72 l-6 67 -5 -70 -5 -70 -50 0 -50 0 -2 110 c-1 61 -2 156 -3 211 0 94 -2
102 -21 107 -14 4 -22 -1 -28 -16 -8 -20 -8 -20 -13 0 -3 11 -15 22 -27 26
-11 3 -19 1 -15 -4 3 -5 2 -14 -2 -20 -4 -8 -9 -7 -15 2 -5 9 -9 -26 -10 -86
-2 -147 -8 -277 -13 -292 -3 -7 -21 -13 -41 -13 l-35 0 -1 193 c-1 105 -4 182
-6 169 -4 -19 -7 -21 -19 -11 -12 10 -13 9 -8 -5 4 -10 1 -16 -9 -16 -19 0
-25 -34 -33 -207 -4 -79 -11 -143 -15 -143 -4 0 -7 18 -6 40 2 23 -1 46 -5 53
-4 7 -8 -25 -8 -70 l0 -82 133 2 132 2 3 -50 3 -50 332 2 c183 1 441 5 575 9
228 6 242 7 242 25 0 16 8 19 50 19 l50 0 0 -160 0 -160 -59 0 c-50 0 -59 -3
-57 -17 1 -16 -11 -18 -111 -21 -102 -2 -113 -5 -113 -21 0 -16 12 -19 92 -25
50 -3 115 -6 145 -6 50 0 53 1 53 25 l0 25 374 0 c291 0 375 -3 378 -12 3 -9
43 -14 137 -17 l133 -3 -4 23 -3 24 -208 3 -207 2 2 173 3 172 93 -4 92 -3 0
36 0 36 125 0 c118 0 125 1 125 20 0 13 -7 20 -19 20 -18 0 -19 13 -25 208 -9
275 -12 297 -41 310 -13 6 -25 21 -28 34 -2 13 -5 -64 -6 -169 l-1 -193 -29 0
c-27 0 -29 3 -35 53 -3 28 -6 69 -6 90 0 21 -4 36 -9 32 -14 -8 -22 10 -14 31
6 16 7 16 14 -2 4 -10 7 33 7 96 0 63 -3 104 -7 91 l-7 -25 -22 28 c-12 16
-22 35 -22 42 0 8 -6 11 -15 8 -11 -4 -15 0 -15 16 0 19 -2 20 -15 10 -12 -10
-15 -53 -17 -239 l-3 -226 -50 0 -50 0 -5 225 c-3 124 -7 212 -8 195 -3 -26
-4 -28 -12 -10 -5 11 -10 34 -11 50 -1 17 -5 -3 -8 -44 l-6 -74 -245 2 c-134
1 -248 5 -252 7 -4 3 -8 34 -8 70 l0 64 -297 -1 c-165 -1 -287 -5 -273 -9z
m605 -160 c3 -5 -1 -10 -9 -10 -9 0 -16 5 -16 10 0 6 4 10 9 10 6 0 13 -4 16
-10z m312 -6 c-3 -3 -12 -4 -19 -1 -8 3 -5 6 6 6 11 1 17 -2 13 -5z m126 -1
c-13 -2 -33 -2 -45 0 -13 2 -3 4 22 4 25 0 35 -2 23 -4z m-293 -173 c0 -58 -4
-101 -10 -105 -6 -4 -33 -4 -60 0 l-50 7 0 97 c0 54 2 100 4 102 2 2 29 2 60
1 l56 -4 0 -98z m128 3 l-3 -108 -52 -3 -53 -3 0 110 0 111 55 0 56 0 -3 -107z
m137 97 c3 -5 3 -55 -1 -110 l-7 -100 -52 0 -52 0 -7 77 c-3 42 -6 91 -6 110
l0 33 59 0 c33 0 63 -4 66 -10z m-635 -111 l0 -110 -47 3 -48 3 -3 108 -3 107
51 0 50 0 0 -111z m110 6 l0 -105 -50 0 -50 0 0 105 0 105 50 0 50 0 0 -105z
m260 -225 l0 -111 -57 3 -58 3 -3 94 c-1 52 -1 100 2 108 4 9 24 13 61 13 l55
0 0 -110z m125 0 l0 -105 -50 0 -50 0 -3 108 -3 108 53 -3 53 -3 0 -105z m133
3 l-3 -107 -52 -2 -53 -1 0 108 0 109 55 0 56 0 -3 -107z m-1190 -10 l-3 -108
-46 -3 -46 -3 -7 101 c-4 55 -4 105 -1 110 3 6 29 10 56 10 l50 0 -3 -107z
m112 -4 l0 -110 -47 3 -48 3 -3 108 -3 107 51 0 50 0 0 -111z m118 4 l-3 -108
-50 0 -50 0 -3 108 -3 107 56 0 56 0 -3 -107z m110 0 l-3 -108 -47 -3 -48 -3
0 110 0 111 50 0 51 0 -3 -107z m112 2 l0 -105 -50 0 -50 0 0 105 0 105 50 0
50 0 0 -105z m110 0 l0 -105 -44 0 -43 0 -7 61 c-3 34 -6 82 -6 105 l0 44 50
0 50 0 0 -105z m110 0 l0 -105 -44 0 -43 0 -6 68 c-4 37 -7 84 -7 105 l0 37
50 0 50 0 0 -105z m740 -25 l0 -110 -55 0 -55 0 0 110 0 110 55 0 55 0 0 -110z
m190 35 l0 -75 -30 0 -30 0 0 75 0 75 30 0 30 0 0 -75z m-800 -6 c0 -5 -4 -9
-10 -9 -5 0 -10 7 -10 16 0 8 5 12 10 9 6 -3 10 -10 10 -16z m0 -79 c0 -5 -4
-10 -10 -10 -5 0 -10 5 -10 10 0 6 5 10 10 10 6 0 10 -4 10 -10z m130 -145 l0
-105 -60 0 -60 0 0 105 0 105 60 0 60 0 0 -105z m130 0 l0 -105 -55 0 -55 0 0
105 0 105 55 0 55 0 0 -105z m130 0 l0 -105 -55 0 -55 0 0 105 0 105 55 0 55
0 0 -105z"></path>
<path d="M2933 2205 c0 -44 2 -61 4 -37 2 23 2 59 0 80 -2 20 -4 1 -4 -43z"></path>
<path d="M1523 2193 c-18 -12 -23 -25 -23 -61 0 -44 0 -45 20 -27 20 18 20 17
20 -193 0 -217 -3 -242 -26 -242 -9 0 -14 20 -17 73 l-3 72 -2 -87 -2 -87 30
10 29 11 3 261 c2 144 1 267 -2 273 -4 8 -12 7 -27 -3z"></path>
<path d="M4349 2188 c5 -15 18 -24 35 -26 25 -3 26 -6 26 -68 0 -35 3 -64 8
-64 4 0 5 27 4 60 l-4 60 31 0 c31 0 31 0 31 -55 0 -42 -3 -55 -15 -55 -12 0
-15 -12 -13 -52 l2 -53 3 48 4 47 42 1 c31 2 35 3 14 6 -27 4 -28 6 -25 56 3
50 4 52 33 52 l30 0 3 -137 2 -138 -47 -2 -48 -1 45 -4 c53 -5 68 -16 50 -38
-10 -12 -12 -43 -7 -130 4 -76 3 -115 -4 -115 -6 0 -7 -5 -4 -11 4 -6 13 -8
21 -5 8 3 20 -7 30 -23 l16 -28 361 -7 c361 -7 399 -4 369 26 -9 9 -12 70 -12
213 0 232 -10 404 -21 365 -6 -22 -7 -23 -8 -4 -1 18 -18 34 -37 34 -2 0 -4
-39 -4 -87 0 -49 -3 -111 -6 -140 l-7 -52 -99 0 c-68 0 -100 4 -103 12 -2 7
-5 74 -7 150 -3 133 -3 137 17 137 12 0 26 -5 32 -11 8 -8 13 -8 17 0 4 6 35
12 69 12 34 1 51 4 37 6 -13 3 -29 11 -35 18 -7 9 -66 14 -212 19 -199 6 -203
6 -203 -14 0 -25 -7 -25 -61 0 -38 17 -66 20 -201 20 l-157 0 8 -22z m411
-103 c0 -54 0 -55 -30 -55 -30 0 -30 1 -30 55 0 54 0 55 30 55 30 0 30 -1 30
-55z m149 -81 l1 -134 -50 0 -50 0 0 75 c0 68 2 75 20 75 11 0 20 4 20 9 0 5
-18 7 -40 4 l-40 -6 0 56 0 55 70 0 69 0 0 -134z m-109 -60 l0 -75 -52 3 -52
3 0 35 c0 19 1 52 2 73 l2 37 50 0 50 0 0 -76z m109 -98 c3 -2 4 -62 1 -133
l-5 -128 -45 1 c-25 1 -73 2 -107 3 l-63 1 0 136 0 137 107 -7 c58 -4 109 -8
112 -10z m345 -13 c-1 -7 -2 -67 -2 -133 l-2 -120 -104 0 -103 0 -7 31 c-8 43
-8 224 1 233 4 3 54 5 112 4 77 -2 106 -6 105 -15z"></path>
<path d="M5208 2183 c6 -2 18 -2 25 0 6 3 1 5 -13 5 -14 0 -19 -2 -12 -5z"></path>
<path d="M5707 1845 c-5 -49 -5 -249 -1 -442 l7 -353 24 0 25 0 -6 333 c-7
379 -16 558 -26 512 l-7 -30 -4 35 c-3 23 -7 4 -12 -55z"></path>
<path d="M1171 1903 c-1 -7 -7 -13 -15 -13 -14 0 -24 -80 -27 -229 -2 -69 -1
-74 24 -89 38 -23 46 -10 51 83 2 44 7 107 10 140 3 33 3 52 0 43 -9 -30 -23
-20 -29 20 -8 44 -13 62 -14 45z"></path>
<path d="M1491 1834 c0 -11 3 -14 6 -6 3 7 2 16 -1 19 -3 4 -6 -2 -5 -13z"></path>
<path d="M1073 1605 c0 -22 2 -30 4 -17 2 12 2 30 0 40 -3 9 -5 -1 -4 -23z"></path>
<path d="M1573 1563 c9 -2 25 -2 35 0 9 3 1 5 -18 5 -19 0 -27 -2 -17 -5z"></path>
<path d="M4854 1192 c-110 -2 -122 -4 -117 -20 3 -15 16 -17 99 -14 l94 4 -6
-56 c-6 -52 -5 -56 13 -56 17 0 22 9 28 55 3 30 11 55 16 55 11 0 12 27 2 32
-5 2 -63 2 -129 0z"></path>
</g>
</svg>