 <svg version="1.0" xmlns="http://www.w3.org/2000/svg" viewBox="0 0 700.000000 423.000000" preserveAspectRatio="xMidYMid meet" id="mask">

<g transform="translate(0.000000,423.000000) scale(0.100000,-0.100000)">
<path d="M2600 3678 c-14 -11 -34 -26 -44 -34 -11 -7 -18 -15 -15 -17 2 -1 41
0 85 3 l81 5 -41 31 -42 32 -24 -20z"></path>
<path d="M1677 3623 c-4 -3 -7 -33 -7 -66 l0 -60 77 7 c42 3 93 6 115 6 l38 0
0 60 0 60 -108 0 c-60 0 -112 -3 -115 -7z"></path>
<path d="M1940 3548 c1 -58 20 -94 45 -84 28 10 27 33 -5 85 -18 28 -34 51
-36 51 -2 0 -4 -24 -4 -52z"></path>
<path d="M2742 3588 c-8 -8 -12 -58 -12 -150 l0 -138 205 0 c113 0 205 2 205
5 0 2 -82 66 -182 141 -101 75 -188 141 -194 145 -6 5 -16 3 -22 -3z"></path>
<path d="M2300 3449 c-102 -77 -189 -145 -194 -150 -6 -5 70 -9 197 -9 l208 0
-3 147 c-2 86 -7 148 -13 150 -5 1 -93 -61 -195 -138z"></path>
<path d="M3164 3195 c-15 -23 -16 -59 -13 -333 l4 -307 -295 -7 c-162 -3 -400
-8 -527 -11 l-233 -5 -6 36 c-4 19 -4 160 0 311 7 273 7 277 -14 304 -44 55
-46 44 -53 -220 -10 -363 -9 -583 3 -583 6 0 10 5 10 10 0 15 36 12 49 -4 19
-23 70 -27 314 -26 237 0 435 18 462 40 8 7 26 9 44 5 34 -7 184 18 249 41 24
9 46 14 49 10 3 -3 -7 -10 -23 -16 -62 -22 -105 -44 -117 -58 -6 -9 -7 -13 -2
-10 6 3 19 2 30 -3 18 -7 18 -8 -5 -9 -14 -2 -31 -1 -39 0 -8 1 -35 -7 -60
-18 -25 -11 -54 -23 -63 -26 -13 -4 -18 -16 -18 -46 l0 -40 161 0 160 0 -3 67
c-3 62 -5 68 -28 74 l-25 7 27 1 27 1 1 420 0 420 -25 0 c-15 0 -31 -9 -41
-25z m-41 -865 c-3 -11 -9 -17 -14 -14 -14 8 -10 34 5 34 9 0 12 -7 9 -20z
m64 4 c-3 -3 -12 -4 -19 -1 -8 3 -5 6 6 6 11 1 17 -2 13 -5z"></path>
<path d="M4307 2490 c-136 -70 -250 -129 -253 -133 -8 -8 57 -25 146 -38 41
-6 79 -15 85 -20 14 -14 93 -11 99 4 5 10 7 10 12 0 3 -8 26 -13 61 -13 45 0
54 3 49 15 -4 12 3 15 29 15 l35 0 0 144 c0 80 -3 147 -7 149 -5 2 -119 -54
-256 -123z"></path>
<path d="M4803 2508 c4 -62 7 -134 7 -160 0 -47 1 -48 31 -48 l31 0 -4 63 c-3
61 -3 62 25 65 l27 3 0 -66 0 -66 233 2 c128 1 241 6 252 10 19 7 19 8 -2 8
-13 1 -23 5 -23 10 0 5 -15 14 -32 22 -18 7 -35 16 -38 19 -3 4 -111 58 -240
120 -129 62 -239 117 -244 121 -25 23 -29 4 -23 -103z m276 -114 c2 -2 -10 -4
-27 -4 -18 0 -32 -4 -32 -10 0 -5 -4 -10 -10 -10 -5 0 -10 6 -10 14 0 8 -6 17
-12 20 -7 3 10 3 37 -1 28 -3 52 -7 54 -9z m69 -26 c2 -10 -1 -18 -7 -18 -6 0
-11 6 -11 14 0 8 -10 17 -22 19 -16 4 -13 5 7 4 20 -1 31 -8 33 -19z m151 -1
c-2 -1 -11 -8 -20 -15 -14 -10 -18 -10 -23 3 -4 11 1 15 21 15 14 0 24 -1 22
-3z"></path>
<path d="M4016 2335 c-8 -8 -21 -15 -28 -15 -8 0 -23 -7 -34 -15 -17 -13 -11
-14 64 -15 75 0 82 2 82 20 0 11 -4 20 -10 20 -5 0 -10 -4 -10 -10 0 -5 -7
-10 -16 -10 -10 0 -14 6 -11 14 8 20 -20 28 -37 11z"></path>
<path d="M4143 2307 c5 -15 37 -22 37 -9 0 5 -9 12 -21 15 -13 3 -19 1 -16 -6z"></path>
<path d="M4200 2300 c0 -6 7 -10 15 -10 8 0 15 2 15 4 0 2 -7 6 -15 10 -8 3
-15 1 -15 -4z"></path>
<path d="M4538 2298 c9 -9 15 -9 24 0 9 9 7 12 -12 12 -19 0 -21 -3 -12 -12z"></path>
<path d="M2805 2284 c-103 -28 -277 -46 -495 -53 l-225 -8 325 -1 c179 -1 355
1 393 5 65 6 67 7 67 34 0 15 -3 30 -7 32 -5 2 -30 -2 -58 -9z"></path>
<path d="M2025 2230 c-3 -5 -1 -10 4 -10 6 0 11 5 11 10 0 6 -2 10 -4 10 -3 0
-8 -4 -11 -10z"></path>
</g>
</svg>