 <svg version="1.0" xmlns="http://www.w3.org/2000/svg" viewBox="0 0 700.000000 423.000000" preserveAspectRatio="xMidYMid meet" id="mask">

<g transform="translate(0.000000,423.000000) scale(0.100000,-0.100000)">
<path d="M1738 3443 l-68 -4 0 -123 0 -124 39 12 c22 6 43 15 47 19 4 4 15 7
24 7 32 0 41 21 20 48 -21 26 -26 52 -10 52 18 0 100 64 106 82 9 29 -4 38
-49 36 -23 -1 -72 -3 -109 -5z"></path>
<path d="M3673 2973 l-373 -3 0 -290 c0 -159 3 -291 8 -293 4 -2 90 -1 192 2
l185 7 100 48 c160 78 297 147 340 171 22 13 74 40 115 61 46 24 68 40 58 42
-15 3 -18 19 -20 129 l-3 126 -115 1 c-63 1 -283 1 -487 -1z"></path>
<path d="M4670 2941 c0 -34 3 -38 20 -34 15 4 20 14 20 39 0 27 -4 34 -20 34
-17 0 -20 -7 -20 -39z"></path>
<path d="M1770 2711 c0 -131 -3 -266 -6 -300 -7 -58 -6 -61 15 -61 30 0 61 17
61 34 0 7 -11 18 -25 24 -14 6 -25 16 -25 22 0 6 13 2 30 -10 16 -11 52 -24
80 -27 l50 -6 0 282 0 281 -90 0 -90 0 0 -239z"></path>
<path d="M1660 2630 c0 -244 3 -300 13 -300 11 0 15 56 20 281 7 273 3 319
-23 319 -6 0 -10 -114 -10 -300z"></path>
<path d="M3360 2371 c-40 -4 -55 -10 -55 -21 0 -10 13 -17 40 -20 29 -4 41
-10 43 -24 2 -11 -1 -16 -10 -13 -7 2 -12 10 -10 16 1 6 -13 11 -34 11 l-36 0
4 -55 c3 -30 7 -58 11 -61 3 -3 66 -2 141 1 l135 8 5 26 c18 100 18 101 -6
102 -14 0 -5 6 25 15 26 8 47 17 47 19 0 7 -231 3 -300 -4z m163 -51 c-6 -23
-23 -27 -23 -6 0 8 -10 17 -22 19 -15 3 -10 5 14 6 31 1 35 -2 31 -19z"></path>
<path d="M1666 2283 c-3 -3 -6 -48 -6 -100 0 -76 3 -93 15 -93 12 0 15 17 15
94 0 87 -7 116 -24 99z"></path>
<path d="M1764 2256 c-3 -8 -4 -25 -2 -38 2 -18 9 -23 31 -22 163 3 159 3 155
27 -3 19 -11 23 -68 29 -36 4 -75 10 -88 13 -14 4 -24 0 -28 -9z"></path>
<path d="M3881 2093 c1 -60 4 -94 6 -78 2 17 10 35 17 40 7 6 15 17 19 25 4
12 6 11 6 -2 1 -10 8 -18 16 -18 10 0 15 -10 15 -28 0 -15 6 -34 12 -40 9 -9
10 -15 2 -20 -6 -4 -14 -15 -17 -26 -6 -14 -15 -17 -37 -14 -30 5 -30 4 -30
-46 0 -28 3 -122 7 -208 l6 -158 59 0 59 0 -3 313 c-3 285 -5 314 -22 340 -16
23 -25 27 -67 27 l-49 0 1 -107z"></path>
<path d="M2302 2113 c-196 -3 -213 -5 -210 -21 3 -14 14 -17 61 -17 752 5 707
3 707 25 0 22 57 21 -558 13z"></path>
<path d="M2912 2103 c3 -16 17 -18 140 -15 145 3 161 -1 134 -40 -11 -15 -16
-43 -15 -88 1 -36 4 -54 6 -40 5 27 33 71 33 52 0 -6 7 -12 15 -12 10 0 15
-10 15 -29 0 -17 5 -33 10 -36 16 -10 12 61 -5 75 -8 7 -15 19 -15 26 0 12 41
14 225 14 124 0 225 -3 225 -7 0 -3 -6 -14 -14 -22 -13 -14 -14 -79 -9 -439
l6 -422 44 0 43 0 -6 463 c-6 448 -7 463 -27 485 -13 14 -32 22 -54 22 -23 0
-33 5 -33 15 0 13 -47 15 -361 15 -338 0 -360 -1 -357 -17z"></path>
<path d="M1795 2095 l30 -14 -26 -1 c-22 0 -28 -6 -33 -31 -9 -44 -8 -49 8
-49 8 0 17 -12 21 -27 4 -19 9 -23 14 -14 23 37 91 -67 91 -138 0 -13 7 -22
18 -22 9 -1 28 -3 42 -5 14 -1 37 2 51 7 l27 10 1 124 c1 110 -1 124 -16 128
-17 4 -17 5 0 6 10 1 17 9 17 21 0 19 -6 20 -137 19 -125 -1 -135 -2 -108 -14z
m78 -22 c-7 -2 -21 -2 -30 0 -10 3 -4 5 12 5 17 0 24 -2 18 -5z m50 -10 c-7
-2 -19 -2 -25 0 -7 3 -2 5 12 5 14 0 19 -2 13 -5z"></path>
<path d="M2090 2001 c0 -28 5 -53 10 -56 6 -3 10 -20 10 -37 0 -56 12 -21 15
44 2 62 -7 98 -25 98 -6 0 -10 -22 -10 -49z"></path>
<path d="M3240 1860 c-13 -25 -38 -26 -56 -2 -12 14 -14 -18 -13 -213 0 -126
-3 -244 -7 -262 -3 -18 -4 -43 -1 -55 6 -21 11 -23 47 -20 l40 4 0 -36 c0 -34
-1 -36 -35 -36 -30 0 -35 3 -35 24 0 13 -7 29 -15 36 -8 7 -15 28 -15 46 0 30
-3 34 -27 34 -14 0 -23 -3 -20 -7 4 -3 -2 -16 -13 -28 -19 -20 -20 -33 -18
-126 l3 -104 93 -3 92 -3 0 386 c0 212 -2 385 -5 385 -2 0 -9 -9 -15 -20z"></path>
<path d="M2103 1823 c-6 -27 -11 -107 -12 -180 0 -106 2 -132 14 -137 13 -5
15 21 15 179 0 102 -1 185 -3 185 -2 0 -8 -21 -14 -47z"></path>
<path d="M5374 1848 c-3 -4 -1 -8 4 -8 14 0 23 -43 12 -54 -6 -6 -10 -63 -10
-128 l0 -118 28 0 c40 0 57 34 47 97 -4 26 -11 51 -17 54 -5 3 -12 31 -15 62
-3 32 -10 57 -15 57 -6 0 -8 11 -4 23 4 17 1 24 -10 24 -8 0 -17 -4 -20 -9z"></path>
<path d="M5438 1755 c2 -14 6 -25 8 -25 2 0 4 11 4 25 0 14 -4 25 -9 25 -4 0
-6 -11 -3 -25z"></path>
<path d="M1980 1704 c0 -7 9 -31 20 -55 21 -48 25 -69 11 -69 -5 0 -17 19 -27
43 -16 40 -19 42 -36 28 -11 -10 -14 -19 -8 -26 6 -7 8 -14 6 -16 -3 -2 -7
-23 -10 -47 -3 -23 -8 -47 -11 -52 -4 -6 13 -10 44 -10 41 0 49 3 45 15 -4 8
1 17 10 21 13 5 16 21 16 75 0 62 -2 69 -20 69 -10 0 -24 8 -29 18 -6 9 -11
12 -11 6z"></path>
<path d="M5471 1614 c0 -11 3 -14 6 -6 3 7 2 16 -1 19 -3 4 -6 -2 -5 -13z"></path>
<path d="M1994 1315 c0 -71 1 -99 3 -62 2 37 2 96 0 130 -2 34 -3 4 -3 -68z"></path>
<path d="M1923 1390 c0 -25 2 -35 4 -22 2 12 2 32 0 45 -2 12 -4 2 -4 -23z"></path>
<path d="M1964 1310 c0 -69 1 -97 3 -62 2 34 2 90 0 125 -2 34 -3 6 -3 -63z"></path>
<path d="M5423 1325 c0 -44 2 -61 4 -37 2 23 2 59 0 80 -2 20 -4 1 -4 -43z"></path>
<path d="M3972 1340 c0 -14 2 -19 5 -12 2 6 2 18 0 25 -3 6 -5 1 -5 -13z"></path>
<path d="M4010 1320 c0 -25 4 -39 10 -35 6 3 10 19 10 35 0 16 -4 32 -10 35
-6 4 -10 -10 -10 -35z"></path>
<path d="M4555 1338 c-4 -10 -4 -26 0 -35 8 -17 8 -17 12 0 3 9 3 25 0 35 -4
16 -4 16 -12 0z"></path>
<path d="M4720 1271 c0 -44 5 -83 10 -86 6 -4 10 25 10 79 0 51 -4 86 -10 86
-6 0 -10 -33 -10 -79z"></path>
<path d="M4808 1340 c-8 -17 4 -171 12 -155 3 6 3 46 0 90 -3 44 -9 73 -12 65z"></path>
<path d="M4851 1273 c0 -46 3 -83 7 -83 4 0 6 30 4 68 -5 101 -10 107 -11 15z"></path>
<path d="M5083 1310 c0 -25 2 -35 4 -22 2 12 2 32 0 45 -2 12 -4 2 -4 -23z"></path>
<path d="M5121 1303 c1 -39 2 -43 9 -23 12 36 12 70 0 70 -5 0 -10 -21 -9 -47z"></path>
<path d="M5166 1303 c9 -65 14 -67 14 -5 0 30 -4 52 -11 52 -7 0 -8 -16 -3
-47z"></path>
<path d="M5213 1315 c0 -22 2 -30 4 -17 2 12 2 30 0 40 -3 9 -5 -1 -4 -23z"></path>
<path d="M5253 1315 c0 -22 2 -30 4 -17 2 12 2 30 0 40 -3 9 -5 -1 -4 -23z"></path>
<path d="M5293 1305 c0 -27 2 -38 4 -22 2 15 2 37 0 50 -2 12 -4 0 -4 -28z"></path>
<path d="M5333 1300 c0 -30 2 -43 4 -27 2 15 2 39 0 55 -2 15 -4 2 -4 -28z"></path>
<path d="M5370 1306 c0 -25 5 -48 10 -51 6 -4 10 13 10 44 0 28 -4 51 -10 51
-5 0 -10 -20 -10 -44z"></path>
<path d="M4090 1315 c0 -14 5 -25 10 -25 6 0 10 11 10 25 0 14 -4 25 -10 25
-5 0 -10 -11 -10 -25z"></path>
<path d="M4130 1315 c0 -14 5 -25 10 -25 6 0 10 11 10 25 0 14 -4 25 -10 25
-5 0 -10 -11 -10 -25z"></path>
<path d="M4182 1315 c0 -16 2 -22 5 -12 2 9 2 23 0 30 -3 6 -5 -1 -5 -18z"></path>
<path d="M4260 1260 c0 -47 4 -80 10 -80 6 0 10 33 10 80 0 47 -4 80 -10 80
-6 0 -10 -33 -10 -80z"></path>
<path d="M4313 1260 c0 -47 2 -66 4 -42 2 23 2 61 0 85 -2 23 -4 4 -4 -43z"></path>
<path d="M4470 1321 c0 -11 5 -23 10 -26 6 -4 10 5 10 19 0 14 -4 26 -10 26
-5 0 -10 -9 -10 -19z"></path>
<path d="M4640 1319 c0 -11 5 -17 10 -14 6 3 10 13 10 21 0 8 -4 14 -10 14 -5
0 -10 -9 -10 -21z"></path>
<path d="M4680 1266 c0 -41 5 -78 10 -81 6 -4 10 23 10 74 0 47 -4 81 -10 81
-6 0 -10 -31 -10 -74z"></path>
<path d="M4760 1330 c0 -5 5 -10 10 -10 6 0 10 5 10 10 0 6 -4 10 -10 10 -5 0
-10 -4 -10 -10z"></path>
<path d="M4963 1300 c0 -25 2 -35 4 -22 2 12 2 32 0 45 -2 12 -4 2 -4 -23z"></path>
<path d="M2677 1323 c-11 -10 -8 -63 3 -63 6 0 10 16 10 35 0 36 -2 40 -13 28z"></path>
<path d="M2960 1294 c0 -21 4 -33 10 -29 6 3 10 19 10 36 0 16 -4 29 -10 29
-5 0 -10 -16 -10 -36z"></path>
<path d="M2988 1280 c-12 -83 -10 -176 2 -164 7 7 10 52 8 115 -3 94 -4 99
-10 49z"></path>
<path d="M3767 1323 c-4 -3 -7 -51 -7 -105 0 -80 3 -98 15 -98 12 0 15 18 15
105 0 96 -5 117 -23 98z"></path>
<path d="M3926 1253 c3 -43 8 -80 10 -82 2 -2 4 32 4 77 0 49 -4 82 -10 82 -6
0 -8 -28 -4 -77z"></path>
<path d="M4353 1255 c0 -44 2 -61 4 -37 2 23 2 59 0 80 -2 20 -4 1 -4 -43z"></path>
<path d="M2802 1295 c0 -16 2 -22 5 -12 2 9 2 23 0 30 -3 6 -5 -1 -5 -18z"></path>
<path d="M4398 1284 c-5 -4 -8 -30 -8 -58 0 -35 3 -47 11 -39 5 5 9 32 7 58
-2 26 -6 43 -10 39z"></path>
<path d="M4766 1281 c-3 -4 -2 -28 3 -52 l9 -44 1 53 c1 51 -2 61 -13 43z"></path>
<path d="M2763 1220 c0 -36 2 -50 4 -32 2 17 2 47 0 65 -2 17 -4 3 -4 -33z"></path>
<path d="M2723 1215 c0 -33 2 -45 4 -27 2 18 2 45 0 60 -2 15 -4 0 -4 -33z"></path>
<path d="M4648 1264 c-5 -4 -8 -25 -8 -48 0 -28 3 -37 11 -29 6 6 9 27 7 48
-2 20 -6 33 -10 29z"></path>
<path d="M4183 1220 c0 -25 2 -35 4 -22 2 12 2 32 0 45 -2 12 -4 2 -4 -23z"></path>
<path d="M2630 1201 c0 -23 5 -41 10 -41 6 0 10 15 10 34 0 19 -4 38 -10 41
-6 4 -10 -10 -10 -34z"></path>
<path d="M3970 1205 c0 -22 4 -34 10 -30 6 3 10 17 10 30 0 13 -4 27 -10 30
-6 4 -10 -8 -10 -30z"></path>
<path d="M4222 1210 c0 -19 2 -27 5 -17 2 9 2 25 0 35 -3 9 -5 1 -5 -18z"></path>
<path d="M2590 1194 c0 -19 4 -33 8 -30 12 7 14 66 2 66 -5 0 -10 -16 -10 -36z"></path>
<path d="M4057 1206 c-4 -10 -5 -21 -2 -24 9 -9 17 6 13 25 -3 17 -4 17 -11
-1z"></path>
<path d="M4102 1200 c0 -14 2 -19 5 -12 2 6 2 18 0 25 -3 6 -5 1 -5 -13z"></path>
<path d="M4606 1211 c-4 -7 -5 -15 -2 -18 9 -9 19 4 14 18 -4 11 -6 11 -12 0z"></path>
</g>
</svg>