 <svg version="1.0" xmlns="http://www.w3.org/2000/svg" viewBox="0 0 700.000000 423.000000" preserveAspectRatio="xMidYMid meet" id="mask">

<g transform="translate(0.000000,423.000000) scale(0.100000,-0.100000)">
<path d="M2221 3618 c-440 -330 -420 -308 -361 -401 26 -42 33 -47 62 -45 33
3 33 2 36 -43 4 -57 -1 -59 -137 -59 l-93 0 7 -32 c4 -18 11 -184 14 -368 6
-312 7 -320 9 -120 1 118 5 259 9 313 l6 97 89 0 88 0 1 -162 c1 -90 2 -219 3
-288 l1 -125 33 -3 32 -3 1 400 c1 221 2 407 3 414 2 24 42 19 60 -8 15 -23
17 -59 16 -318 0 -160 -1 -300 0 -311 0 -18 17 -18 523 -11 287 4 523 9 525
10 2 2 3 143 2 314 -1 338 1 351 52 351 l28 0 0 -420 0 -420 35 0 35 0 0 294
0 294 413 7 c226 4 446 5 487 3 l75 -3 3 -127 3 -128 25 0 c14 0 44 10 67 23
l42 22 -47 3 -48 3 0 100 0 100 153 -3 152 -3 5 -49 c4 -40 7 -47 17 -35 6 8
13 32 15 54 2 33 7 41 26 43 19 3 22 -1 22 -28 0 -20 9 -42 23 -56 33 -36 47
-30 47 19 0 50 6 59 45 80 30 15 75 67 75 87 0 7 -253 10 -801 10 l-800 0 3
48 3 47 48 3 47 3 0 74 0 74 -87 62 c-49 34 -205 148 -348 252 -143 105 -281
205 -306 224 l-47 33 -391 -292z m469 33 l35 -30 -99 -1 c-107 0 -107 0 -41
49 43 32 48 31 105 -18z m265 -198 c107 -82 191 -149 187 -150 -4 -1 -98 -3
-209 -6 l-203 -5 0 138 c0 139 4 170 22 170 5 0 97 -66 203 -147z m-443 -9 c3
-76 3 -142 -1 -147 -4 -4 -99 -6 -212 -5 l-204 3 194 148 c107 81 199 146 205
144 7 -2 14 -57 18 -143z m178 -49 l0 -135 -70 0 -70 0 0 135 0 135 70 0 70 0
0 -135z m128 -521 l2 -261 -82 -6 c-46 -4 -134 -7 -195 -7 l-113 0 0 265 0
265 168 3 c92 1 178 3 192 2 l25 0 3 -261z m286 214 c3 -29 6 -149 6 -265 l0
-213 -128 0 -129 0 -6 107 c-9 138 -9 408 0 416 3 4 61 7 128 7 l122 0 7 -52z
m-704 -223 l0 -265 -123 0 -124 0 -6 188 c-4 103 -7 219 -7 259 l0 72 83 4
c45 1 103 4 130 5 l47 2 0 -265z"></path>
<path d="M1693 3653 l-53 -4 0 -212 c0 -117 -3 -222 -6 -234 -5 -16 -2 -23 9
-23 12 0 15 23 19 125 2 68 7 128 12 132 4 4 57 9 117 11 105 4 109 4 109 -17
0 -26 11 -27 41 -2 21 17 22 22 11 45 -7 15 -12 50 -12 79 0 44 2 49 14 37 8
-8 26 -37 40 -64 22 -41 26 -45 26 -23 0 14 -19 55 -42 91 l-42 66 -95 -2
c-53 -1 -120 -3 -148 -5z m205 -85 l-3 -63 -112 -3 -113 -3 0 66 0 65 115 0
116 0 -3 -62z"></path>
<path d="M1570 3051 c0 -11 14 -31 31 -45 l31 -26 -2 -325 c-1 -286 1 -325 15
-325 13 0 15 37 15 305 0 168 4 305 9 305 27 0 31 -37 34 -311 2 -238 2 -233
1 36 -1 176 -5 339 -9 363 l-7 42 -59 0 c-51 0 -59 -2 -59 -19z"></path>
<path d="M4600 2831 c-490 -246 -705 -355 -760 -386 -57 -32 -61 -36 -30 -30
25 4 62 -4 133 -27 l98 -33 258 133 c142 72 261 132 264 132 4 0 7 -65 7 -145
0 -138 1 -145 20 -145 19 0 20 7 20 125 l0 125 75 0 75 0 0 -100 c0 -79 3
-100 14 -100 14 0 16 -23 3 -36 -4 -4 -7 -20 -7 -36 l0 -28 -75 0 c-68 0 -75
2 -75 20 0 25 -35 27 -48 3 -8 -14 -24 -16 -93 -14 -54 1 -80 -2 -74 -8 15
-15 188 -30 422 -38 117 -3 210 -10 207 -15 -3 -4 -1 -8 4 -8 6 0 12 7 16 15
4 11 22 15 72 15 56 0 118 13 184 39 8 3 -77 8 -190 11 l-205 5 -3 34 c-2 18
-12 43 -23 54 -19 21 -19 21 -19 -36 0 -63 -7 -72 -44 -57 l-26 10 0 155 c0
85 2 155 3 155 2 0 123 -58 268 -129 227 -110 273 -129 326 -134 62 -5 83 3
83 31 0 12 -4 11 -25 -2 -24 -16 -25 -16 -25 9 0 22 -5 25 -32 25 -32 1 -32 1
-13 16 69 51 75 74 18 74 -29 0 -34 3 -25 12 14 14 16 32 3 24 -5 -4 -11 -2
-13 3 -3 8 -655 332 -667 330 -3 0 -49 -22 -101 -48z"></path>
<path d="M4888 2423 c7 -3 16 -2 19 1 4 3 -2 6 -13 5 -11 0 -14 -3 -6 -6z"></path>
<path d="M2878 2403 c6 -2 18 -2 25 0 6 3 1 5 -13 5 -14 0 -19 -2 -12 -5z"></path>
<path d="M3802 2397 c-21 -7 -31 -15 -28 -23 3 -7 1 -16 -4 -19 -6 -4 -10 1
-10 9 0 19 -29 21 -64 5 -18 -9 -26 -22 -31 -56 -8 -56 0 -67 80 -93 35 -12
68 -26 73 -33 9 -11 28 -308 34 -542 2 -85 1 -90 -19 -93 -20 -3 -21 2 -28
190 -4 106 -10 243 -14 303 l-6 110 -68 24 c-66 23 -68 23 -82 5 -13 -18 -14
-18 -32 -1 -17 14 -40 17 -155 17 -152 0 -148 -2 -148 76 0 40 -2 44 -25 44
-16 0 -25 -6 -25 -15 0 -8 -4 -15 -9 -15 -6 0 -11 -15 -13 -32 l-3 -33 -155 0
-155 0 -3 73 c-3 63 -5 72 -22 72 -17 0 -19 -9 -22 -72 l-3 -73 -386 -3 -386
-2 -7 37 c-3 21 -6 62 -6 91 0 47 -2 52 -22 52 -17 0 -19 -3 -9 -9 9 -6 10
-11 2 -15 -6 -4 -11 -38 -11 -82 0 -43 -4 -74 -10 -74 -5 0 -10 5 -10 10 0 6
-16 10 -35 10 -31 0 -35 -3 -35 -25 l0 -26 -92 3 -93 3 -6 40 c-4 28 -7 14 -8
-49 -1 -74 1 -87 13 -77 9 8 56 11 142 9 l129 -3 3 -292 c2 -254 0 -293 -13
-293 -9 0 -12 -6 -9 -15 5 -13 -39 -15 -366 -15 l-372 0 6 123 c13 264 28 713
25 729 -4 15 -5 15 -25 -1 -19 -16 -22 -33 -32 -246 -7 -127 -15 -308 -18
-402 l-7 -173 -44 0 -44 0 7 -132 c3 -73 8 -135 10 -137 2 -2 18 6 37 18 19
11 39 21 46 21 15 0 14 -33 -1 -49 -11 -11 -11 -14 0 -18 17 -6 15 -23 -3 -23
-8 0 -15 -4 -15 -8 0 -5 14 -7 30 -4 26 4 30 8 25 26 -5 19 -5 19 5 3 9 -13
15 -15 30 -7 15 8 18 7 15 -2 -3 -8 4 -14 19 -14 22 -2 23 1 16 32 -6 24 -4
37 6 45 9 8 14 33 14 77 0 90 18 68 22 -26 4 -103 18 -101 18 2 0 51 4 86 10
86 6 0 10 -43 11 -107 0 -70 3 -101 9 -88 5 11 9 59 9 107 1 48 6 90 11 93 6
4 10 -38 10 -119 0 -77 4 -126 10 -126 11 0 12 4 10 153 -1 69 3 107 9 107 7
0 11 -48 11 -137 0 -93 3 -133 10 -123 5 8 10 70 10 138 0 74 4 122 10 122 6
0 10 -54 10 -141 0 -111 -3 -144 -15 -155 -21 -21 -19 -40 2 -23 9 8 14 9 10
3 -4 -7 0 -18 9 -25 13 -10 17 -10 25 2 8 12 10 12 19 -1 9 -13 11 -13 20 0 9
13 11 13 19 0 6 -8 13 -11 17 -7 4 4 -1 17 -12 29 l-19 23 25 -20 c13 -11 30
-27 37 -35 11 -13 12 -13 12 0 0 18 -58 90 -59 73 0 -7 -4 -13 -10 -13 -6 0
-10 55 -10 145 0 90 4 145 10 145 6 0 10 -50 10 -130 0 -80 4 -130 10 -130 6
0 10 50 10 130 0 80 4 130 10 130 6 0 10 -46 10 -119 0 -69 4 -122 10 -126 6
-4 10 38 10 119 0 77 4 126 10 126 6 0 10 -38 10 -94 0 -53 4 -98 10 -101 6
-4 10 30 10 94 0 139 19 130 22 -11 2 -82 7 -113 16 -116 11 -3 12 17 6 112
-4 79 -3 116 4 116 6 0 13 -51 17 -130 4 -71 11 -128 14 -125 4 2 6 60 6 129
-1 98 2 126 12 126 10 0 13 -23 14 -92 2 -143 17 -164 18 -25 1 71 5 117 11
117 6 0 10 -41 10 -102 0 -57 5 -110 10 -118 7 -10 10 24 10 104 0 66 3 116 7
112 4 -4 10 -79 13 -166 4 -137 11 -185 23 -169 2 2 -1 75 -6 163 -6 110 -5
162 2 169 8 8 12 -18 13 -88 6 -238 6 -241 15 -232 4 4 5 80 4 170 -1 89 1
159 5 154 4 -4 9 -67 11 -140 2 -72 8 -133 13 -135 5 -2 5 -11 -2 -21 -12 -20
-3 -71 12 -71 5 0 12 11 16 25 3 14 11 25 16 25 6 0 7 -11 4 -25 -5 -19 -2
-25 10 -25 10 0 14 6 11 14 -7 16 19 30 28 15 4 -5 12 -6 18 -2 19 12 51 11
60 -1 5 -8 10 -6 17 4 9 13 11 13 21 0 8 -11 12 -12 16 -2 8 19 23 14 23 -8 0
-11 5 -20 10 -20 6 0 10 9 10 20 0 22 15 27 24 8 5 -10 7 -10 12 0 3 6 12 12
19 12 7 0 16 -6 18 -12 4 -10 8 -9 16 2 10 13 12 13 21 0 9 -13 11 -13 20 0 9
13 11 13 20 0 9 -13 11 -13 20 0 9 13 11 13 20 0 9 -13 11 -13 20 0 9 13 11
13 20 0 9 -13 11 -13 20 0 9 13 11 13 21 0 8 -11 12 -12 16 -2 5 13 33 17 33
4 0 -5 14 -9 30 -9 17 0 30 4 30 9 0 4 5 8 10 8 6 0 10 -9 10 -20 0 -11 5 -20
10 -20 6 0 10 9 10 19 0 11 5 23 10 26 6 4 9 1 8 -7 -3 -15 49 -18 70 -4 7 5
12 4 12 -3 0 -6 10 -10 23 -8 l22 2 0 -302 c0 -228 3 -305 13 -314 10 -11 12
-8 12 13 0 36 10 58 25 58 9 0 13 58 18 240 4 191 8 246 21 271 12 25 16 64
16 170 0 75 2 143 5 151 4 10 28 12 99 10 83 -3 94 -1 98 15 2 10 5 155 6 321
2 257 5 308 19 328 l15 24 -146 0 c-139 0 -146 1 -146 20 0 19 7 20 270 22
473 4 455 5 455 -12 0 -10 12 -16 38 -18 65 -5 65 -5 73 -408 6 -346 8 -361
25 -357 18 5 19 -2 19 -101 0 -85 -3 -106 -14 -106 -8 0 -17 8 -19 17 -4 17
-5 17 -6 1 -1 -14 -10 -18 -45 -18 l-43 0 -8 420 c-6 380 -6 423 9 445 l16 25
-225 0 c-124 0 -225 -2 -225 -5 0 -3 6 -16 14 -28 11 -18 15 -105 17 -442 l4
-420 -95 -6 c-52 -3 67 -5 265 -5 432 1 396 14 414 -142 6 -56 11 -158 11
-226 0 -140 6 -186 26 -186 9 0 14 -11 14 -30 0 -20 5 -30 15 -30 18 0 20 41
3 58 -9 9 -9 12 2 12 11 0 12 47 6 279 -5 206 -4 281 5 286 6 4 15 1 20 -6 8
-12 11 -12 20 1 8 11 12 12 16 3 7 -18 23 -16 23 2 0 20 10 19 26 -2 8 -11 13
-13 14 -5 0 21 30 13 30 -8 0 -11 4 -20 9 -20 5 0 7 8 4 19 -6 23 15 38 23 17
8 -21 24 -20 24 2 1 15 2 15 16 -3 13 -17 16 -18 24 -5 9 13 11 13 20 0 8 -13
11 -12 23 4 13 18 14 18 21 1 6 -17 7 -17 21 1 13 18 14 18 20 1 7 -17 8 -17
20 0 13 17 14 17 20 1 4 -10 11 -18 16 -18 5 0 9 8 9 18 1 15 2 15 16 -3 13
-17 16 -18 24 -5 9 13 11 13 20 0 8 -13 11 -12 23 4 14 18 14 18 21 0 7 -18 8
-18 18 -1 9 17 11 17 22 1 12 -16 13 -16 20 1 5 15 9 15 23 4 13 -11 17 -11
20 -1 7 18 23 15 23 -5 1 -17 1 -17 14 0 17 22 26 22 26 -2 0 -11 5 -23 10
-26 6 -4 10 5 10 19 0 27 15 35 23 14 4 -10 8 -10 15 1 8 12 13 12 25 2 12 -9
16 -9 19 1 4 10 8 10 20 1 11 -10 17 -10 27 0 9 9 14 9 21 -3 9 -13 11 -13 20
0 9 13 11 13 21 0 8 -11 12 -12 16 -2 7 18 21 15 28 -8 5 -15 15 -20 40 -20
25 0 35 5 40 20 7 23 21 26 28 8 4 -10 8 -9 16 2 10 13 12 13 21 0 9 -13 11
-13 20 0 9 13 11 13 20 0 9 -13 11 -13 20 0 9 13 11 13 20 0 8 -13 11 -12 24
5 14 18 15 18 16 3 0 -19 20 -26 20 -8 0 18 18 10 23 -10 7 -27 27 -26 27 1 0
17 3 19 13 10 10 -8 17 -7 26 2 9 9 14 9 21 -3 9 -13 11 -13 20 0 9 13 11 13
20 0 9 -13 11 -13 20 0 9 13 11 13 20 0 8 -13 11 -12 24 5 14 18 15 18 16 3 0
-22 20 -24 20 -3 0 21 16 19 25 -2 6 -17 7 -17 17 1 8 14 12 15 18 5 7 -10 12
-10 23 0 11 8 17 9 22 1 5 -8 11 -8 19 -1 9 7 16 7 25 -2 9 -9 14 -9 20 2 6 9
11 10 15 2 10 -15 66 -14 67 2 0 6 5 2 11 -10 14 -28 28 -30 28 -3 0 22 15 27
23 8 4 -10 8 -9 16 2 9 12 13 13 20 2 7 -11 12 -11 28 -1 18 11 19 14 6 40
-17 35 -33 46 -33 24 0 -9 -4 -13 -10 -10 -5 3 -10 26 -10 51 0 24 -4 44 -10
44 -5 0 -10 -22 -10 -50 0 -27 -4 -50 -10 -50 -6 0 -10 28 -10 64 0 36 -4 68
-10 71 -6 4 -10 -20 -10 -64 0 -41 -4 -71 -10 -71 -6 0 -10 35 -10 85 0 50 -4
85 -10 85 -6 0 -10 -33 -10 -79 0 -44 -4 -83 -10 -86 -6 -4 -10 22 -10 71 0
68 -2 75 -16 63 -11 -9 -15 -27 -12 -70 2 -32 0 -61 -4 -65 -5 -4 -8 23 -8 59
0 38 -4 67 -10 67 -6 0 -10 -28 -10 -65 0 -36 -4 -65 -9 -65 -10 0 -25 205
-16 220 3 5 2 10 -3 10 -17 0 -22 -29 -23 -133 -1 -85 -3 -94 -10 -57 -4 25
-8 85 -8 133 -1 56 -5 86 -11 82 -6 -4 -10 -58 -10 -131 0 -76 -4 -124 -10
-124 -6 0 -10 47 -10 120 0 73 -4 120 -10 120 -6 0 -10 -47 -10 -120 0 -73 -4
-120 -10 -120 -6 0 -10 55 -10 146 0 134 1 145 18 140 9 -3 28 2 42 10 23 14
19 15 -58 10 -92 -5 -99 3 -19 20 41 9 46 12 21 13 l-31 1 -7 152 c-5 93 -12
156 -19 160 -8 5 -8 10 0 20 18 22 13 68 -7 68 -17 0 -18 -14 -17 -197 l2
-198 -197 -3 c-172 -2 -198 0 -198 13 0 8 -4 15 -10 15 -6 0 -10 100 -10 281
l0 281 95 -7 c68 -5 95 -4 95 4 0 6 -17 11 -41 11 -26 0 -39 4 -37 12 4 12 87
37 125 38 27 0 39 18 24 33 -9 9 -14 9 -19 1 -4 -7 -40 -13 -79 -16 -65 -3
-73 -2 -73 14 0 14 -8 18 -41 18 -32 0 -40 -3 -36 -15 4 -8 2 -17 -4 -21 -6
-3 -13 3 -16 15 -4 17 -13 21 -43 21 -24 0 -37 -4 -36 -12 0 -7 -3 -13 -9 -13
-5 0 -9 6 -9 13 1 8 -12 12 -37 12 -28 0 -39 -4 -39 -15 0 -8 -7 -15 -15 -15
-10 0 -15 7 -13 18 2 13 -5 18 -30 20 -23 2 -32 -1 -30 -10 2 -7 -2 -13 -7
-13 -6 0 -9 6 -9 13 1 7 -11 12 -32 12 -24 0 -34 -5 -34 -16 0 -9 -6 -14 -12
-11 -7 2 -12 11 -10 21 2 12 -5 16 -28 16 -21 0 -30 -5 -30 -16 0 -9 -6 -14
-12 -11 -7 2 -12 11 -10 21 2 12 -5 16 -28 16 -17 0 -29 -5 -28 -11 2 -6 -3
-14 -11 -16 -9 -4 -11 0 -6 16 5 18 2 21 -23 21 -18 0 -32 -6 -36 -16 -3 -8
-11 -12 -17 -9 -6 4 -8 13 -5 20 8 23 -35 30 -51 9 -11 -15 -13 -15 -13 -2 0
14 -21 16 -157 17 -86 1 -159 4 -161 6 -3 2 7 10 22 16 15 7 26 20 26 32 0 16
-3 17 -15 7 -11 -10 -18 -9 -30 4 -9 9 -27 16 -41 16 -13 0 -24 3 -24 8 0 18
-36 28 -68 19z m196 -220 c22 -33 22 -38 22 -345 l0 -312 -58 0 -59 0 -6 98
c-11 169 -20 559 -14 576 5 11 19 16 49 16 37 0 46 -4 66 -33z m-1138 -77 c0
-19 -7 -20 -137 -20 -76 0 -249 -3 -385 -7 -243 -6 -248 -6 -248 14 0 11 3 23
7 26 3 4 177 7 385 7 371 0 378 0 378 -20z m2013 -244 c5 -142 6 -273 2 -292
l-6 -34 -163 0 c-89 0 -271 -3 -404 -7 l-242 -6 0 296 0 297 333 3 c182 1 364
3 402 2 l70 0 8 -259z m-2745 -90 c-3 -243 -4 -261 -21 -264 -18 -4 -18 5 -13
160 3 89 8 189 12 221 4 38 2 57 -5 57 -7 0 -11 24 -11 62 0 61 0 61 20 43 20
-18 20 -29 18 -279z m732 -5 l0 -249 -102 -7 c-57 -3 -213 -5 -348 -3 l-245 3
-3 247 -2 248 332 3 c183 1 341 3 351 5 16 2 17 -16 17 -247z m270 -41 l0
-290 -86 0 -86 0 4 54 5 55 -31 3 c-30 3 -31 5 -31 51 1 26 2 130 3 232 l2
185 110 0 110 0 0 -290z m452 -17 c3 -104 4 -189 4 -189 -1 -1 -57 -4 -126 -5
l-125 -4 -3 193 -2 192 124 0 124 0 4 -187z m6 -350 l-3 -118 -121 -3 c-143
-3 -134 -13 -134 141 l0 97 130 0 131 0 -3 -117z m1072 108 c0 -6 -4 -13 -10
-16 -5 -3 -10 1 -10 9 0 9 5 16 10 16 6 0 10 -4 10 -9z m40 -6 c0 -8 -4 -15
-10 -15 -5 0 -10 7 -10 15 0 8 5 15 10 15 6 0 10 -7 10 -15z m320 -131 c0 -83
-4 -134 -10 -134 -6 0 -10 54 -10 141 0 91 4 138 10 134 6 -4 10 -62 10 -141z
m-1031 -71 c1 -83 -11 -110 -23 -52 -9 44 -8 244 2 253 9 10 19 -90 21 -201z
m35 161 c10 -74 7 -244 -4 -244 -5 0 -10 3 -10 8 0 4 -3 69 -7 145 -3 87 -2
137 4 137 6 0 13 -21 17 -46z m1035 -171 c1 -29 -3 -53 -9 -53 -6 0 -9 51 -8
138 1 134 1 135 9 52 4 -47 7 -109 8 -137z m34 80 c3 -79 2 -133 -4 -133 -5 0
-9 59 -9 137 0 75 2 134 4 132 2 -2 6 -64 9 -136z m47 2 c0 -83 -4 -135 -10
-135 -6 0 -10 52 -10 135 0 83 4 135 10 135 6 0 10 -52 10 -135z m40 -6 c0
-91 -4 -138 -10 -134 -6 4 -10 62 -10 141 0 83 4 134 10 134 6 0 10 -54 10
-141z m39 4 c-1 -86 -4 -127 -9 -108 -12 46 -12 245 0 245 6 0 10 -52 9 -137z
m41 107 c0 -16 -4 -30 -10 -30 -5 0 -10 14 -10 30 0 17 5 30 10 30 6 0 10 -13
10 -30z m50 0 c0 -20 -5 -30 -15 -30 -10 0 -15 10 -15 30 0 20 5 30 15 30 10
0 15 -10 15 -30z m40 0 c0 -16 -4 -30 -10 -30 -5 0 -10 6 -10 14 0 8 -3 21 -6
30 -4 11 -1 16 10 16 11 0 16 -9 16 -30z m40 0 c0 -16 -4 -30 -10 -30 -5 0
-10 14 -10 30 0 17 5 30 10 30 6 0 10 -13 10 -30z m-3200 -130 c0 -93 -4 -150
-10 -150 -6 0 -10 54 -10 143 0 126 3 157 17 157 2 0 3 -67 3 -150z m40 0 c0
-93 -4 -150 -10 -150 -6 0 -10 57 -10 150 0 93 4 150 10 150 6 0 10 -57 10
-150z m40 0 c0 -93 -4 -150 -10 -150 -6 0 -10 57 -10 150 0 93 4 150 10 150 6
0 10 -57 10 -150z m40 -1 c0 -97 -4 -148 -10 -144 -6 4 -10 65 -10 151 0 89 4
144 10 144 6 0 10 -57 10 -151z m40 0 c0 -97 -4 -148 -10 -144 -6 4 -10 65
-10 151 0 89 4 144 10 144 6 0 10 -57 10 -151z m50 7 c0 -144 -12 -197 -24
-109 -3 25 -6 92 -6 149 0 86 3 104 15 104 13 0 15 -23 15 -144z m40 0 c0 -86
-4 -147 -10 -151 -6 -4 -10 47 -10 144 0 94 4 151 10 151 6 0 10 -55 10 -144z
m40 -6 c0 -82 -4 -141 -10 -145 -6 -4 -10 47 -10 145 0 98 4 149 10 145 6 -4
10 -63 10 -145z m130 5 c0 -127 -2 -145 -16 -145 -11 0 -14 5 -10 16 3 9 6 74
6 145 0 79 4 129 10 129 6 0 10 -55 10 -145z m40 0 c0 -90 -4 -145 -10 -145
-6 0 -10 55 -10 145 0 90 4 145 10 145 6 0 10 -55 10 -145z m40 120 c0 -8 -4
-17 -10 -20 -6 -4 -10 5 -10 20 0 15 4 24 10 20 6 -3 10 -12 10 -20z m1255
-37 c9 -85 3 -214 -10 -211 -13 4 -19 273 -6 273 5 0 12 -28 16 -62z m-2335
-93 c0 -90 -4 -145 -10 -145 -6 0 -10 55 -10 145 0 90 4 145 10 145 6 0 10
-55 10 -145z m957 78 c-4 -38 -7 -103 -7 -146 0 -50 -4 -76 -10 -72 -6 4 -10
63 -10 146 0 122 2 139 16 139 15 0 16 -9 11 -67z m283 -73 c0 -87 -4 -140
-10 -140 -6 0 -10 53 -10 140 0 87 4 140 10 140 6 0 10 -53 10 -140z m1720
120 c0 -5 -4 -10 -10 -10 -5 0 -10 5 -10 10 0 6 5 10 10 10 6 0 10 -4 10 -10z
m45 0 c3 -5 -1 -10 -9 -10 -9 0 -16 5 -16 10 0 6 4 10 9 10 6 0 13 -4 16 -10z
m41 -12 c-3 -13 -6 -29 -6 -35 0 -7 -4 -13 -10 -13 -7 0 -8 41 -1 68 1 1 6 2
12 2 7 0 9 -9 5 -22z m42 -103 c2 -81 -1 -125 -8 -125 -6 0 -10 45 -10 125 0
69 4 125 8 125 4 0 9 -56 10 -125z m282 89 c0 -13 -4 -24 -10 -24 -5 0 -10 14
-10 31 0 17 4 28 10 24 6 -3 10 -17 10 -31z m-910 -116 c0 -66 -4 -108 -10
-108 -6 0 -10 33 -10 79 0 43 -3 100 -6 127 -6 46 -5 48 9 29 13 -15 16 -45
17 -127z m168 9 c2 -82 0 -119 -6 -112 -6 6 -11 60 -12 120 -2 129 -2 130 7
121 4 -3 9 -61 11 -129z m42 123 c0 -5 -4 -10 -10 -10 -5 0 -10 5 -10 10 0 6
5 10 10 10 6 0 10 -4 10 -10z m40 0 c0 -5 -4 -10 -10 -10 -5 0 -10 5 -10 10 0
6 5 10 10 10 6 0 10 -4 10 -10z m40 0 c0 -5 -4 -10 -10 -10 -5 0 -10 5 -10 10
0 6 5 10 10 10 6 0 10 -4 10 -10z m45 0 c3 -5 -1 -10 -10 -10 -9 0 -13 5 -10
10 3 6 8 10 10 10 2 0 7 -4 10 -10z m45 -110 c0 -68 -4 -120 -9 -120 -5 0 -11
46 -13 103 -3 110 -1 137 13 137 5 0 9 -54 9 -120z m40 110 c0 -5 -4 -10 -10
-10 -5 0 -10 5 -10 10 0 6 5 10 10 10 6 0 10 -4 10 -10z m-2340 -141 c0 -66
-3 -118 -7 -116 -8 5 -5 237 3 237 2 0 4 -54 4 -121z m375 112 c8 -15 -7 -231
-17 -231 -4 0 -8 54 -8 120 0 108 7 139 25 111z m205 -106 c0 -70 -4 -115 -10
-115 -6 0 -10 45 -10 115 0 70 4 115 10 115 6 0 10 -45 10 -115z m46 -25 c-6
-101 -4 -90 -16 -90 -12 0 -14 213 -3 224 14 14 23 -50 19 -134z m1414 130 c0
-5 -5 -10 -11 -10 -5 0 -7 5 -4 10 3 6 8 10 11 10 2 0 4 -4 4 -10z m130 0 c0
-5 -5 -10 -11 -10 -5 0 -7 5 -4 10 3 6 8 10 11 10 2 0 4 -4 4 -10z m41 -17 c5
-87 3 -183 -3 -183 -5 0 -9 28 -9 63 -1 34 -3 81 -4 105 -1 23 2 42 6 42 5 0
10 -12 10 -27z m42 15 c10 -27 8 -198 -2 -198 -7 0 -11 28 -12 68 -1 37 -2 84
-3 105 -3 36 7 50 17 25z m167 2 c0 -5 -4 -10 -10 -10 -5 0 -10 5 -10 10 0 6
5 10 10 10 6 0 10 -4 10 -10z m48 -95 c1 -58 -3 -105 -7 -105 -12 0 -20 151
-10 171 5 10 3 21 -3 27 -9 9 -8 12 4 12 13 0 15 -17 16 -105z m-2498 -20 c0
-70 -4 -115 -10 -115 -6 0 -10 45 -10 115 0 70 4 115 10 115 6 0 10 -45 10
-115z m570 -1 c0 -74 -4 -113 -10 -109 -6 4 -10 53 -10 116 0 66 4 109 10 109
6 0 10 -45 10 -116z m117 -51 c-2 -32 -3 -6 -3 57 0 63 1 89 3 58 2 -32 2 -84
0 -115z m1513 56 c0 -60 -3 -88 -10 -84 -13 8 -11 175 1 175 5 0 9 -41 9 -91z
m942 -17 c2 -34 0 -62 -4 -62 -5 0 -7 39 -7 88 2 91 6 81 11 -26z m88 17 c0
-46 -4 -79 -10 -79 -6 0 -10 35 -10 86 0 54 4 83 10 79 6 -3 10 -42 10 -86z
m40 6 c0 -50 -4 -85 -10 -85 -6 0 -10 35 -10 85 0 50 4 85 10 85 6 0 10 -35
10 -85z m-900 -10 c0 -50 -4 -85 -10 -85 -6 0 -10 35 -10 85 0 50 4 85 10 85
6 0 10 -35 10 -85z m43 -77 c-2 -5 -8 -8 -14 -8 -11 0 -12 153 -1 164 8 8 23
-144 15 -156z m41 81 c7 -76 4 -100 -10 -86 -3 3 -8 42 -11 86 -8 108 12 108
21 0z m86 -4 c0 -50 -4 -85 -10 -85 -6 0 -10 35 -10 85 0 50 4 85 10 85 6 0
10 -35 10 -85z m80 0 c0 -50 -4 -85 -10 -85 -6 0 -10 35 -10 85 0 50 4 85 10
85 6 0 10 -35 10 -85z m40 -1 c0 -54 -4 -83 -10 -79 -5 3 -10 42 -10 86 0 46
4 79 10 79 6 0 10 -35 10 -86z m45 22 c8 -70 5 -96 -10 -99 -6 -1 -11 32 -13
81 -3 98 13 111 23 18z m44 -38 c1 -31 -3 -59 -8 -62 -10 -6 -21 143 -12 159
8 16 19 -35 20 -97z m111 22 c0 -47 -4 -80 -10 -80 -6 0 -10 33 -10 80 0 47 4
80 10 80 6 0 10 -33 10 -80z m324 -2 c5 -52 3 -78 -4 -78 -6 0 -10 32 -10 82
0 45 2 79 4 77 2 -2 6 -39 10 -81z m-1191 -5 c5 -81 2 -97 -14 -88 -11 8 -12
165 0 165 4 0 11 -35 14 -77z m45 1 c3 -78 -6 -114 -18 -74 -14 44 -12 152 3
148 8 -3 13 -29 15 -74z m42 -3 c0 -44 -4 -83 -10 -86 -6 -3 -10 4 -10 18 0
13 -3 52 -6 86 -6 52 -5 61 10 61 13 0 16 -12 16 -79z m80 -1 c0 -47 -4 -80
-10 -80 -6 0 -10 33 -10 80 0 47 4 80 10 80 6 0 10 -33 10 -80z"></path>
<path d="M3232 2353 c2 -12 14 -19 36 -21 27 -3 32 0 32 17 0 17 -6 21 -36 21
-28 0 -35 -3 -32 -17z"></path>
<path d="M1630 2165 c0 -96 3 -115 15 -115 8 0 15 -7 15 -15 0 -18 -16 -20
-23 -2 -3 6 -6 -4 -6 -23 l-1 -35 20 25 c11 14 20 33 20 43 0 10 8 17 20 17
19 0 20 7 20 112 0 134 -9 139 -14 7 -2 -72 -6 -94 -17 -94 -11 0 -15 22 -17
98 -2 77 -6 97 -17 97 -12 0 -15 -21 -15 -115z"></path>
<path d="M5330 2239 c0 -5 5 -7 10 -4 6 3 10 8 10 11 0 2 -4 4 -10 4 -5 0 -10
-5 -10 -11z"></path>
<path d="M5208 2223 c7 -3 16 -2 19 1 4 3 -2 6 -13 5 -11 0 -14 -3 -6 -6z"></path>
<path d="M5250 2220 c0 -5 7 -10 16 -10 8 0 12 5 9 10 -3 6 -10 10 -16 10 -5
0 -9 -4 -9 -10z"></path>
<path d="M1685 2020 c3 -5 8 -10 11 -10 2 0 4 5 4 10 0 6 -5 10 -11 10 -5 0
-7 -4 -4 -10z"></path>
<path d="M1730 1220 c0 -8 5 -22 10 -30 9 -13 10 -13 10 0 0 8 -5 22 -10 30
-9 13 -10 13 -10 0z"></path>
<path d="M1777 1180 c3 -11 9 -20 13 -20 5 0 6 9 3 20 -3 11 -9 20 -13 20 -5
0 -6 -9 -3 -20z"></path>
<path d="M1476 1144 c-4 -9 -4 -19 -1 -22 2 -3 7 3 11 12 4 9 4 19 1 22 -2 3
-7 -3 -11 -12z"></path>
<path d="M1690 1152 c0 -5 9 -17 19 -26 14 -13 21 -14 27 -5 4 7 3 10 -4 5 -6
-3 -13 3 -17 14 -6 20 -25 28 -25 12z"></path>
<path d="M1150 1115 c0 -17 4 -23 14 -19 18 7 17 44 -1 44 -7 0 -13 -11 -13
-25z"></path>
</g>
</svg>