 <svg version="1.0" xmlns="http://www.w3.org/2000/svg" id="mask" viewBox="0 0 700.000000 423.000000" preserveAspectRatio="xMidYMid meet">

<g transform="translate(0.000000,423.000000) scale(0.100000,-0.100000)">
<path d="M0 2795 l0 -1067 22 -19 c13 -10 28 -18 34 -19 10 0 50 -32 131 -103
l21 -19 0 141 c0 90 4 146 11 155 11 13 9 56 -15 299 -6 62 -5 67 11 61 15 -6
16 -3 11 24 -8 33 7 50 28 33 7 -6 11 -23 8 -42 -3 -22 -1 -30 6 -25 7 4 21 2
33 -5 l22 -11 -7 148 c-17 374 -26 733 -26 1004 0 162 0 301 0 308 0 18 -20
15 -20 -3 0 -28 -30 -28 -55 -1 -18 20 -31 25 -48 21 -30 -8 -59 21 -36 36 8
5 26 7 40 4 14 -3 50 -8 80 -10 30 -3 81 -7 114 -11 155 -16 233 -23 340 -30
44 -3 85 -10 91 -15 6 -5 35 -7 65 -6 30 2 70 0 89 -4 33 -7 342 -38 605 -60
66 -5 134 -12 150 -15 26 -4 247 -26 510 -49 44 -4 94 -9 110 -11 72 -8 144
-15 200 -19 33 -3 105 -9 160 -15 55 -6 134 -12 175 -13 66 -3 75 -6 75 -23 0
-16 -7 -19 -41 -19 l-42 0 -6 -440 c-5 -389 -14 -621 -31 -750 -4 -32 -3 -35
5 -17 5 12 14 22 19 22 5 0 9 11 8 24 -3 34 17 38 21 4 2 -15 10 -28 20 -30
12 -3 5 -11 -24 -27 -22 -13 -45 -35 -51 -48 -16 -34 -4 -101 23 -129 13 -12
24 -34 24 -48 0 -55 6 -58 92 -50 l80 7 -7 -24 c-4 -13 -14 -37 -22 -52 -8
-16 -12 -31 -10 -33 7 -8 248 -44 290 -44 l37 0 0 60 0 60 64 0 65 0 6 -57
c11 -97 10 -99 33 57 5 36 8 67 6 69 -2 2 -29 6 -61 10 -55 6 -58 7 -54 31 2
14 14 81 25 150 l21 125 97 -1 c54 0 100 -3 103 -6 4 -3 11 -39 17 -80 6 -40
13 -76 17 -80 7 -9 4 1251 -4 1308 -6 40 -8 42 -48 48 -75 11 -291 35 -922
101 -341 36 -872 93 -1180 125 -308 33 -753 80 -990 105 -237 24 -449 47 -472
50 l-43 6 0 -1066z"></path>
<path d="M310 3651 c0 -15 6 -21 21 -21 14 0 19 5 17 17 -5 26 -38 29 -38 4z"></path>
<path d="M376 3645 c-7 -18 28 -35 56 -27 21 5 23 13 6 30 -17 17 -55 15 -62
-3z"></path>
<path d="M460 3635 c0 -8 7 -15 16 -15 14 0 14 3 4 15 -7 8 -14 15 -16 15 -2
0 -4 -7 -4 -15z"></path>
<path d="M521 3636 c-7 -8 -8 -17 -3 -20 14 -8 53 6 49 18 -6 17 -32 19 -46 2z"></path>
<path d="M590 3620 c0 -5 5 -10 10 -10 6 0 10 5 10 10 0 6 -4 10 -10 10 -5 0
-10 -4 -10 -10z"></path>
<path d="M635 3620 c-3 -5 -1 -10 4 -10 6 0 11 5 11 10 0 6 -2 10 -4 10 -3 0
-8 -4 -11 -10z"></path>
<path d="M670 3614 c0 -9 7 -14 17 -12 25 5 28 28 4 28 -12 0 -21 -6 -21 -16z"></path>
<path d="M785 3610 c-3 -5 0 -13 9 -16 21 -8 61 -1 61 11 0 14 -62 19 -70 5z"></path>
<path d="M925 3600 c-3 -5 1 -10 9 -10 9 0 16 5 16 10 0 6 -4 10 -9 10 -6 0
-13 -4 -16 -10z"></path>
<path d="M960 3591 c0 -5 7 -12 16 -15 22 -9 24 -8 24 9 0 8 -9 15 -20 15 -11
0 -20 -4 -20 -9z"></path>
<path d="M1047 3586 c-3 -7 -1 -18 4 -23 6 -6 4 -20 -6 -39 -21 -41 -19 -63 8
-68 12 -3 90 -10 172 -16 83 -6 317 -24 520 -40 204 -17 387 -30 408 -30 41 0
45 9 25 57 -6 15 -13 37 -15 47 -2 11 -4 20 -6 21 -1 1 -96 11 -210 21 -169
16 -210 17 -219 7 -8 -10 -14 -11 -25 -2 -10 9 -20 9 -39 -2 -20 -10 -29 -11
-44 -1 -11 7 -26 12 -35 12 -9 0 -12 6 -9 15 5 11 -1 15 -22 15 -16 0 -130 9
-254 20 -267 24 -247 23 -253 6z"></path>
<path d="M2202 3479 c2 -7 10 -15 17 -17 8 -3 12 1 9 9 -2 7 -10 15 -17 17 -8
3 -12 -1 -9 -9z"></path>
<path d="M2246 3483 c-11 -11 -6 -23 9 -23 8 0 15 4 15 9 0 13 -16 22 -24 14z"></path>
<path d="M2280 3470 c0 -5 9 -10 21 -10 11 0 17 5 14 10 -3 6 -13 10 -21 10
-8 0 -14 -4 -14 -10z"></path>
<path d="M2390 3460 c0 -5 7 -10 15 -10 8 0 15 5 15 10 0 6 -7 10 -15 10 -8 0
-15 -4 -15 -10z"></path>
<path d="M2500 3450 c0 -5 7 -10 15 -10 8 0 15 5 15 10 0 6 -7 10 -15 10 -8 0
-15 -4 -15 -10z"></path>
<path d="M2576 3453 c-11 -11 -6 -23 9 -23 8 0 15 4 15 9 0 13 -16 22 -24 14z"></path>
<path d="M2634 3438 c-3 -4 4 -8 15 -8 12 0 21 4 21 8 0 5 -7 9 -15 9 -9 0
-18 -4 -21 -9z"></path>
<path d="M2715 3430 c3 -5 15 -10 26 -10 11 0 17 5 14 10 -3 6 -15 10 -26 10
-11 0 -17 -4 -14 -10z"></path>
<path d="M238 2123 c-6 -90 11 -242 34 -303 11 -30 26 -71 33 -90 16 -43 5
-60 -40 -60 -17 0 -34 -2 -37 -5 -9 -9 13 -129 28 -153 12 -18 23 -22 50 -20
19 2 35 5 35 8 3 13 -12 514 -17 578 -6 72 -6 73 -41 87 -20 8 -37 15 -38 15
-2 0 -5 -26 -7 -57z"></path>
<path d="M3554 1943 c3 -21 9 -66 12 -100 6 -60 8 -63 33 -63 69 0 71 3 71
106 l0 94 -61 0 -61 0 6 -37z"></path>
<path d="M231 1800 c0 -29 1 -32 10 -17 7 11 7 23 0 35 -9 14 -10 11 -10 -18z"></path>
</g>
</svg>