 <svg version="1.0" xmlns="http://www.w3.org/2000/svg" id="mask" viewBox="0 0 700.000000 423.000000" preserveAspectRatio="xMidYMid meet">

<g transform="translate(0.000000,423.000000) scale(0.100000,-0.100000)">
<path d="M5204 4001 l-541 -186 1 -35 c1 -31 -2 -35 -23 -32 l-24 2 8 -172 c4
-95 7 -195 7 -223 -6 -203 -5 -257 5 -263 7 -5 12 -49 12 -120 1 -91 -2 -114
-14 -118 -13 -5 -15 -62 -15 -419 l0 -412 148 -7 c81 -4 248 -11 372 -15 l225
-8 68 -33 c37 -19 67 -39 67 -44 -1 -6 -11 -63 -24 -126 -13 -63 -22 -118 -20
-121 2 -3 30 -9 63 -12 93 -10 111 -22 111 -73 0 -51 -3 -50 183 -59 l128 -7
72 69 c40 37 98 83 129 100 31 18 59 37 63 43 11 19 42 11 48 -12 3 -13 18
-59 34 -104 l30 -81 42 129 c24 73 53 141 68 158 l25 30 -119 1 c-65 1 -201 6
-303 13 -158 9 -185 13 -188 28 -6 30 166 32 665 9 252 -12 466 -21 476 -21
11 0 17 8 17 23 0 27 20 26 -615 48 -220 7 -334 15 -341 23 -8 8 -9 31 -4 76
5 36 11 276 14 534 l6 469 -72 -6 c-40 -4 -104 -9 -143 -13 -66 -6 -71 -5 -85
18 -10 16 -15 55 -16 135 -1 75 -5 117 -14 128 -14 17 -10 138 9 260 7 42 10
180 9 341 l-3 271 -541 -186z m-249 -1127 c4 -195 4 -349 -1 -354 -5 -4 -34
-10 -64 -12 l-55 -3 -3 347 -2 347 42 9 c83 19 75 52 83 -334z m633 -177 l2
-397 -80 0 -80 0 2 387 3 388 65 11 c36 6 70 11 75 9 6 -1 11 -144 13 -398z"></path>
<path d="M3711 3495 l-54 -26 7 -732 c4 -403 6 -780 6 -839 l-1 -108 71 0 c82
0 86 4 84 93 -1 59 -1 59 25 52 14 -4 65 -9 112 -12 l86 -5 7 27 c4 15 5 30 2
32 -3 3 -49 8 -102 12 -64 4 -99 10 -102 19 -4 13 67 18 175 13 35 -2 59 2 75
13 22 15 20 16 -35 16 l-57 0 0 41 c0 42 -17 69 -43 69 -36 0 -47 12 -47 52 0
31 4 41 20 45 11 3 20 10 20 15 0 6 6 8 14 5 31 -12 35 19 34 257 l-1 238 -41
-5 c-22 -3 -71 -9 -107 -13 -62 -6 -68 -5 -79 16 -8 14 -9 42 -5 82 6 48 4 63
-10 78 -9 10 -14 23 -10 29 12 20 25 365 17 463 l-7 98 -54 -25z"></path>
<path d="M6835 1809 c3 -8 -5 -48 -19 -89 -59 -182 -97 -519 -96 -857 l0 -102
38 -10 c20 -6 83 -21 140 -34 l102 -24 0 558 0 559 -24 0 c-12 0 -51 3 -85 6
-51 6 -61 4 -56 -7z"></path>
</g>
</svg>