 <svg version="1.0" xmlns="http://www.w3.org/2000/svg" id="mask" viewBox="0 0 700.000000 423.000000" preserveAspectRatio="xMidYMid meet">

<g transform="translate(0.000000,423.000000) scale(0.100000,-0.100000)">
<path d="M1026 3428 c-2 -13 -14 -81 -26 -153 -25 -150 -68 -358 -82 -395 -9
-24 15 -992 28 -1117 5 -51 6 -52 30 -43 14 6 43 10 65 10 37 0 39 1 39 33 0
17 -9 328 -21 689 -13 362 -20 660 -18 662 7 7 493 -24 500 -32 4 -4 12 -239
19 -522 6 -283 14 -521 16 -527 2 -9 24 -13 65 -13 l62 0 -6 253 c-4 138 -10
377 -14 530 l-6 279 64 -6 c35 -3 139 -8 230 -12 l166 -6 7 -302 c3 -165 9
-397 12 -513 l7 -213 50 0 50 0 -7 308 c-3 169 -9 407 -13 530 -5 197 -4 222
10 222 13 0 9 21 -20 133 -19 72 -36 133 -38 135 -3 4 -1095 92 -1137 92 -21
0 -29 -6 -32 -22z"></path>
<path d="M6855 3179 c-44 -9 -83 -18 -86 -18 -4 -1 -9 -182 -13 -403 -3 -222
-9 -472 -12 -555 l-7 -153 -91 0 c-50 0 -182 3 -294 7 l-203 6 7 504 c7 501 7
503 -13 503 -11 0 -34 -3 -51 -6 l-30 -6 -6 -482 c-3 -264 -8 -509 -12 -543
l-6 -61 54 -6 c29 -3 197 -10 373 -16 176 -5 368 -13 428 -16 l107 -6 0 56 0
56 -32 0 -31 0 6 393 c4 215 10 476 14 580 5 157 4 187 -8 186 -8 -1 -50 -10
-94 -20z"></path>
<path d="M4300 2461 l0 -359 -112 5 c-62 2 -119 6 -125 8 -10 3 -13 80 -13
339 0 330 0 334 -20 329 -20 -5 -20 -12 -18 -367 l3 -361 230 -11 c127 -7 263
-12 303 -13 l72 -1 0 29 0 29 -97 7 c-54 3 -107 7 -118 8 -20 2 -20 9 -20 360
l0 357 -42 0 -43 0 0 -359z"></path>
</g>
</svg>