 <svg version="1.0" xmlns="http://www.w3.org/2000/svg" id="mask" viewBox="0 0 700.000000 423.000000" preserveAspectRatio="xMidYMid meet">

<g transform="translate(0.000000,423.000000) scale(0.100000,-0.100000)">
<path d="M1350 3976 c0 -234 1 -255 18 -260 9 -2 175 -37 367 -77 193 -40 354
-76 359 -80 5 -4 0 -51 -10 -106 -15 -80 -23 -103 -46 -126 -54 -54 -64 -103
-25 -112 12 -3 267 -41 567 -85 637 -94 670 -99 670 -110 0 -5 -12 -18 -27
-30 l-28 -22 -3 -729 -2 -729 67 5 c38 3 126 10 196 15 70 6 135 10 143 10 12
0 15 10 12 42 l-3 43 50 0 50 0 -3 -38 c-3 -34 -1 -37 21 -37 50 0 57 8 57 71
0 53 2 59 23 65 13 3 41 4 63 2 l39 -3 3 -63 c3 -62 3 -62 33 -62 30 0 31 1
27 42 l-3 43 48 3 47 3 0 -40 c0 -40 1 -41 35 -41 l35 0 0 548 0 549 -182 165
c-229 207 -715 644 -1039 935 -219 197 -253 224 -301 237 -29 9 -229 62 -443
118 l-390 101 -212 4 -213 4 0 -255z"></path>
</g>
</svg>