 <svg version="1.0" xmlns="http://www.w3.org/2000/svg" id="mask" viewBox="0 0 700.000000 423.000000" preserveAspectRatio="xMidYMid meet">

<g transform="translate(0.000000,423.000000) scale(0.100000,-0.100000)">
<path d="M624 3718 c-8 -429 1 -1525 11 -1536 2 -2 64 -6 139 -9 99 -4 136 -3
136 6 0 6 18 11 45 11 l45 0 0 -41 c0 -41 0 -41 -31 -35 -17 3 -38 6 -45 6 -8
0 -14 7 -14 15 0 12 -14 15 -63 15 -35 0 -98 3 -140 6 l-77 7 0 -142 c0 -77 4
-141 9 -141 5 0 14 7 21 15 17 20 30 10 30 -25 0 -34 -19 -50 -32 -26 -20 35
-28 12 -28 -78 0 -66 -4 -96 -13 -99 -9 -4 -9 -6 1 -6 9 -1 12 -29 12 -107 l0
-106 68 6 c144 13 534 28 563 22 l31 -6 -5 1093 c-3 600 -9 1110 -13 1131 l-7
39 37 -6 36 -6 0 255 0 254 -354 0 -354 0 -8 -512z"></path>
<path d="M1781 4226 c2 -2 155 -43 339 -90 184 -48 381 -98 437 -113 l102 -27
224 -201 c123 -110 360 -323 528 -474 167 -151 397 -358 511 -460 l207 -186 1
-416 c0 -229 3 -477 7 -552 l6 -135 71 -7 c39 -4 78 -13 86 -20 8 -7 105 -24
215 -39 110 -15 217 -30 237 -33 l38 -6 2 783 c3 684 5 784 18 791 13 8 1837
733 2088 831 144 56 143 57 -61 182 -89 55 -188 117 -220 138 l-58 38 -2391 0
c-1315 0 -2389 -2 -2387 -4z m4392 -67 c39 -62 -127 -204 -238 -203 -62 1
-127 18 -139 36 -44 70 155 191 303 186 46 -2 67 -8 74 -19z m-1460 -64 c32
-41 57 -79 55 -85 -2 -5 -66 -55 -143 -111 l-140 -102 -57 64 c-32 35 -58 67
-58 71 0 8 271 237 280 237 3 0 31 -33 63 -74z m358 -505 c28 -15 24 -33 -17
-69 -70 -64 -117 -75 -185 -43 -41 18 -52 33 -42 57 6 16 50 43 93 56 37 11
129 10 151 -1z"></path>
<path d="M6840 4142 c74 -48 141 -91 148 -96 9 -5 12 15 12 88 l0 96 -147 0
-148 0 135 -88z"></path>
<path d="M6971 3813 c-12 -14 -24 -38 -28 -52 -3 -14 -3 -361 0 -771 4 -410 7
-998 7 -1307 l0 -563 25 0 25 0 0 1360 c0 748 -2 1360 -4 1360 -3 0 -14 -12
-25 -27z"></path>
<path d="M2050 2937 c0 -35 3 -105 6 -155 l7 -91 206 -147 206 -147 120 8
c125 9 467 8 498 -1 16 -5 17 9 17 199 l0 205 -27 20 c-22 16 -25 22 -15 35
11 12 0 16 -75 25 -199 26 -199 26 -206 8 -4 -9 -2 -16 2 -16 17 0 49 -65 59
-117 11 -62 2 -80 -43 -85 -24 -2 -31 -8 -33 -30 -3 -22 -10 -29 -37 -34 -19
-3 -51 -2 -72 3 l-38 9 1 62 c1 43 6 68 18 81 16 18 16 19 -9 23 -24 5 -25 3
-25 -42 0 -44 -2 -48 -29 -53 -21 -4 -30 -13 -33 -29 -4 -29 -55 -40 -112 -24
-34 10 -42 17 -44 39 -5 38 25 134 43 141 8 3 15 12 15 20 0 26 35 76 53 76
11 0 17 6 15 13 -4 11 -350 64 -435 66 l-33 1 0 -63z m836 -412 c4 -8 1 -22
-6 -30 -26 -32 -78 -8 -59 27 12 22 57 24 65 3z"></path>
<path d="M2540 2920 c0 -5 5 -10 10 -10 6 0 10 5 10 10 0 6 -4 10 -10 10 -5 0
-10 -4 -10 -10z"></path>
<path d="M2680 2880 c0 -23 5 -30 19 -30 10 0 21 7 25 15 3 8 13 15 22 15 13
0 14 3 4 15 -7 8 -25 15 -41 15 -26 0 -29 -4 -29 -30z"></path>
<path d="M1273 1449 c-8 -8 -13 -39 -13 -78 0 -59 1 -64 16 -50 11 12 14 32
12 78 -2 50 -5 60 -15 50z"></path>
</g>
</svg>