 <svg version="1.0" xmlns="http://www.w3.org/2000/svg" viewBox="0 0 700.000000 423.000000" preserveAspectRatio="xMidYMid meet" id="mask">

<g transform="translate(0.000000,423.000000) scale(0.100000,-0.100000)">
<path d="M600 3547 c0 -376 -2 -686 -5 -689 -3 -3 -135 21 -293 53 -158 32
-290 59 -295 59 -4 0 -6 -93 -5 -207 l3 -208 545 -47 c388 -34 585 -47 685
-45 l140 2 2 25 c2 14 -12 90 -30 170 -32 143 -32 145 -61 150 -16 3 -31 11
-34 18 -3 9 30 12 142 12 l146 0 0 99 0 98 43 6 c24 3 76 3 115 0 l71 -6 3
-96 3 -96 137 -3 137 -3 3 68 3 68 184 2 c213 3 237 -3 228 -60 -2 -18 -1 -42
4 -54 7 -20 16 -22 96 -25 74 -3 88 -6 91 -20 2 -13 -3 -18 -17 -18 -20 0 -21
-5 -21 -170 l0 -170 85 0 c77 0 85 2 85 19 0 11 4 21 9 23 4 2 11 391 15 866
l7 862 -195 0 c-226 0 -200 15 -211 -127 l-6 -83 114 0 c112 0 114 0 125 -25
17 -38 15 -55 -8 -55 -19 0 -20 -7 -20 -170 0 -159 -1 -170 -19 -170 -16 0
-20 16 -32 168 l-14 167 -567 3 -568 2 0 -170 c0 -161 -1 -170 -19 -170 -16 0
-21 10 -26 58 -4 31 -18 108 -30 170 -21 107 -25 116 -59 144 -20 16 -36 34
-36 39 0 5 58 9 134 9 l135 0 3 105 3 105 -462 0 -463 0 0 -683z m1853 0 c11
-13 17 -31 14 -46 -9 -46 -1 -51 87 -51 79 0 83 -1 94 -25 17 -36 15 -45 -8
-45 -19 0 -20 -8 -22 -167 -3 -145 -5 -168 -19 -171 -14 -2 -18 21 -29 168
l-13 170 -571 -2 c-499 -3 -571 -5 -572 -18 -1 -8 -2 -84 -3 -168 -1 -140 -2
-153 -18 -150 -15 3 -19 18 -25 78 -3 41 -15 117 -27 167 -12 51 -21 95 -21
97 0 2 -16 13 -36 25 -19 12 -32 26 -29 31 4 6 53 10 116 10 l109 0 0 60 0 60
198 0 c185 0 200 -1 217 -20 11 -13 16 -29 12 -47 -9 -47 -1 -53 74 -53 l69 0
0 58 c0 32 2 61 4 63 2 2 89 3 193 1 179 -3 189 -4 206 -25z"></path>
<path d="M1360 3368 c0 -7 5 -20 10 -28 8 -12 10 -9 10 13 0 15 -4 27 -10 27
-5 0 -10 -6 -10 -12z"></path>
<path d="M1878 4207 c19 -20 22 -35 22 -105 l0 -82 151 0 152 0 -6 28 c-3 16
-9 63 -13 105 l-7 77 -160 0 -160 0 21 -23z"></path>
<path d="M1365 3920 c3 -5 8 -10 11 -10 2 0 4 5 4 10 0 6 -5 10 -11 10 -5 0
-7 -4 -4 -10z"></path>
<path d="M1360 2786 c0 -8 5 -18 10 -21 6 -3 10 1 10 9 0 8 -4 18 -10 21 -5 3
-10 -1 -10 -9z"></path>
<path d="M1417 2793 c-3 -5 -2 -81 1 -170 l5 -163 579 0 579 0 -5 43 c-3 23
-8 92 -11 152 -4 61 -9 118 -11 128 -5 16 -41 17 -569 17 -310 0 -566 -3 -568
-7z"></path>
</g>
</svg>