 <svg version="1.0" xmlns="http://www.w3.org/2000/svg" viewBox="0 0 700.000000 423.000000" preserveAspectRatio="xMidYMid meet" id="mask">

<g transform="translate(0.000000,423.000000) scale(0.100000,-0.100000)">
<path d="M190 3670 c0 -308 -1 -560 -3 -560 -2 0 -41 11 -88 25 -46 13 -87 25
-91 25 -5 0 -8 -42 -8 -92 l0 -93 283 -58 c155 -31 288 -57 295 -57 9 0 12
144 12 685 l0 685 -33 0 -34 0 -6 -107 c-4 -58 -7 -328 -7 -600 0 -271 -4
-493 -9 -493 -13 0 -233 58 -238 63 -2 2 -3 259 -3 571 l0 566 -35 0 -35 0 0
-560z"></path>
<path d="M4055 4181 c-57 -114 -95 -306 -95 -486 0 -383 141 -690 368 -802 70
-35 83 -38 161 -38 75 0 94 4 152 31 79 38 136 87 194 168 207 293 243 717 93
1099 l-31 77 -408 0 -409 0 -25 -49z"></path>
<path d="M6550 2539 l-395 -38 -547 0 -548 -1 -6 -27 c-4 -16 -11 -34 -17 -40
-7 -9 -5 -13 7 -13 9 0 16 -8 16 -20 0 -20 7 -20 565 -20 503 0 984 13 1293
36 l82 6 0 79 0 79 -27 -1 c-16 -1 -206 -19 -423 -40z"></path>
<path d="M0 2477 l0 -73 568 -22 c469 -19 709 -23 1394 -22 540 0 829 3 833
10 4 7 292 10 831 10 787 0 824 1 824 18 0 10 5 23 12 30 7 7 13 22 13 35 0
28 34 35 52 11 7 -10 13 -35 13 -56 l0 -38 189 0 c182 0 189 1 194 21 4 13 0
22 -11 25 -30 9 -47 21 -47 32 0 6 -9 18 -20 26 -18 13 -145 15 -1031 16
-1003 0 -1012 0 -1017 -20 -5 -20 -14 -20 -869 -20 l-863 0 -510 45 c-280 25
-520 45 -532 45 -22 0 -23 -4 -23 -73z"></path>
</g>
</svg>