 <svg version="1.0" xmlns="http://www.w3.org/2000/svg" viewBox="0 0 700.000000 423.000000" preserveAspectRatio="xMidYMid meet" id="mask">

<g transform="translate(0.000000,423.000000) scale(0.100000,-0.100000)">
<path d="M1190 3700 c0 -462 2 -531 15 -536 11 -4 15 -21 15 -55 0 -37 4 -49
15 -49 13 0 15 24 15 155 0 97 4 155 10 155 6 0 10 11 10 25 l0 26 93 -3 92
-3 3 -27 c2 -16 8 -28 13 -28 5 0 9 -14 9 -31 0 -20 4 -29 13 -26 6 2 11 11 9
19 -2 16 9 23 61 38 38 12 121 -16 112 -38 -3 -9 3 -21 15 -29 18 -13 20 -25
20 -124 0 -69 4 -109 10 -109 6 0 24 10 40 21 l29 22 47 -32 c26 -17 40 -31
32 -31 -9 0 -23 -11 -32 -25 -11 -17 -26 -25 -46 -25 -20 0 -35 8 -46 25 l-16
25 -269 0 -269 0 0 -240 c0 -207 2 -240 15 -240 12 0 15 18 15 106 0 97 2 106
20 111 14 4 20 14 20 34 0 16 5 29 10 29 14 0 13 43 -2 58 -9 9 -7 13 5 18 27
10 38 -5 31 -42 -4 -22 -2 -34 5 -34 6 0 11 -13 11 -30 0 -20 5 -30 15 -30 10
0 15 10 15 30 0 25 4 30 24 30 21 0 25 6 28 33 2 27 7 32 28 32 21 0 26 -5 28
-32 3 -27 7 -33 28 -33 l24 0 0 -140 c0 -87 4 -140 10 -140 6 0 10 12 10 28 0
22 8 31 46 51 26 14 48 21 52 15 4 -5 19 -15 35 -23 20 -11 27 -22 27 -43 0
-23 4 -28 25 -28 14 0 25 4 25 10 0 5 11 17 24 25 19 13 28 14 50 4 14 -7 26
-16 26 -21 0 -5 12 -14 28 -20 26 -11 26 -12 4 -15 -12 -3 -26 -13 -32 -23
-19 -36 -100 -32 -100 5 0 13 -40 15 -275 15 l-275 0 0 -165 0 -165 438 0
c347 0 449 3 497 15 48 11 152 14 508 15 396 0 447 2 447 15 0 13 7 15 38 9
20 -3 41 -10 47 -15 5 -5 271 -9 592 -9 l583 0 -5 28 -5 27 12 -27 c14 -34 38
-37 39 -5 1 20 1 21 7 2 10 -29 59 -31 65 -2 4 22 4 22 6 0 1 -23 2 -23 156
-23 l155 0 0 143 c0 101 -4 147 -12 155 -9 9 -13 46 -13 110 0 125 7 151 45
158 16 4 31 12 34 20 7 19 96 19 96 1 0 -8 19 -17 47 -23 42 -8 48 -12 56 -44
12 -45 5 -214 -10 -231 -7 -10 -9 -59 -6 -151 l6 -138 126 0 c74 -1 151 -7
186 -15 46 -11 142 -15 420 -16 198 0 384 -4 413 -8 l52 -7 0 965 0 966 80 48
c44 27 80 50 80 53 0 2 -1165 4 -2590 4 l-2590 0 0 -530z m2600 309 c24 -5 60
-22 80 -37 32 -25 44 -27 150 -32 l115 -5 0 -45 c0 -45 0 -45 38 -48 l37 -3 0
-100 0 -99 -114 0 c-63 0 -121 3 -130 6 -13 5 -16 24 -16 99 l0 94 45 7 c35 5
45 10 45 25 0 17 -8 19 -65 19 -61 0 -65 -1 -80 -30 -10 -20 -15 -58 -15 -120
l0 -91 -137 3 -138 3 -5 95 c-7 128 -14 140 -90 140 -52 0 -60 -3 -60 -19 0
-14 10 -20 40 -25 l40 -6 0 -95 0 -94 -32 -6 c-18 -3 -76 -5 -128 -3 l-95 3 0
95 0 95 38 3 c38 3 38 3 41 67 l1 30 117 5 c111 5 118 6 146 33 46 44 94 54
172 36z m658 -1066 l2 -583 -550 0 -550 0 0 -30 0 -30 -190 0 -190 0 0 74 c0
41 -3 81 -6 89 -4 11 4 17 25 22 l31 7 0 118 0 119 -32 3 c-19 2 -33 8 -32 16
1 6 2 179 3 382 l1 370 30 0 c20 0 30 5 30 15 0 13 83 15 713 13 l712 -3 3
-582z"></path>
<path d="M3440 3473 c0 -5 0 -173 0 -375 l0 -368 -185 0 -185 0 0 -110 c0 -60
0 -113 0 -116 0 -4 37 -6 83 -6 45 1 111 -2 147 -7 41 -5 71 -4 81 2 23 14 49
2 49 -23 0 -26 -27 -37 -51 -22 -26 17 -29 15 -29 -13 l0 -25 525 0 525 0 0
535 0 535 -480 0 c-264 0 -480 -3 -480 -7z"></path>
<path d="M6838 4218 c-2 -7 -5 -484 -7 -1059 l-3 -1046 33 -6 c19 -4 58 -9 87
-13 l52 -7 0 246 0 246 -36 3 c-35 3 -36 4 -40 53 -7 88 -5 228 3 236 4 4 22
9 38 11 l30 3 3 673 2 672 -79 0 c-54 0 -80 -4 -83 -12z"></path>
<path d="M4770 2764 c-13 -32 -13 -165 -1 -197 8 -20 19 -25 61 -31 28 -4 78
-4 111 0 53 6 60 9 67 33 11 40 6 174 -7 199 -16 30 -76 31 -84 2 -4 -16 -14
-20 -45 -20 -32 0 -42 4 -47 20 -9 29 -43 25 -55 -6z"></path>
<path d="M3128 2243 c6 -2 18 -2 25 0 6 3 1 5 -13 5 -14 0 -19 -2 -12 -5z"></path>
</g>
</svg>