 <svg version="1.0" xmlns="http://www.w3.org/2000/svg" viewBox="0 0 700.000000 423.000000" preserveAspectRatio="xMidYMid meet" id="mask">

<g transform="translate(0.000000,423.000000) scale(0.100000,-0.100000)">
<path d="M6305 4180 l-80 -50 -5 -966 -5 -966 -400 1 c-356 2 -409 4 -487 22
-59 13 -125 19 -203 19 l-115 0 0 -25 0 -25 118 0 c76 0 138 -6 177 -17 49
-13 138 -17 475 -22 228 -3 421 -10 428 -14 9 -6 12 -203 12 -928 0 -505 -3
-919 -7 -919 -4 0 -28 18 -54 40 l-48 40 -348 0 -348 1 -89 109 c-66 83 -94
110 -112 110 -29 0 -30 -2 -38 -72 l-7 -58 29 0 c25 0 40 -14 116 -115 l88
-115 348 0 349 0 81 -80 c53 -53 89 -80 103 -80 13 0 38 -15 57 -35 l34 -35
228 0 228 0 0 1016 0 1017 53 -7 c28 -4 67 -9 85 -13 l33 -5 -3 38 -3 39 -80
10 -80 10 -3 1063 -2 1062 -223 0 -222 0 -80 -50z m358 -2160 c14 -11 30 -20
36 -20 6 0 16 9 23 20 22 35 28 22 28 -55 0 -70 -10 -95 -24 -60 -3 8 -14 15
-24 15 -11 0 -25 -7 -32 -15 -17 -20 -64 -19 -81 2 -22 25 -18 102 5 119 26
19 39 18 69 -6z"></path>
<path d="M2135 2223 c-41 -12 -128 -14 -497 -13 l-448 1 0 -30 0 -31 433 0
c378 0 439 2 487 17 47 15 121 18 510 23 l455 5 3 23 3 22 -448 -1 c-364 -1
-457 -4 -498 -16z"></path>
<path d="M3116 2224 c-3 -9 -4 -20 0 -25 3 -5 261 -9 620 -9 570 0 614 1 614
17 0 15 2 14 15 -3 14 -18 14 -18 15 8 l0 27 -629 1 c-569 0 -629 -1 -635 -16z"></path>
<path d="M4457 2233 c-4 -3 -7 -15 -7 -25 0 -17 12 -18 160 -18 l160 0 0 25 0
25 -153 0 c-85 0 -157 -3 -160 -7z"></path>
<path d="M4390 2210 c0 -11 5 -20 10 -20 6 0 10 9 10 20 0 11 -4 20 -10 20 -5
0 -10 -9 -10 -20z"></path>
<path d="M4431 2214 c0 -11 3 -14 6 -6 3 7 2 16 -1 19 -3 4 -6 -2 -5 -13z"></path>
<path d="M2127 480 l-77 -110 -230 0 -230 0 0 -54 c0 -92 -18 -86 244 -86
l231 1 72 107 c70 105 72 108 75 180 2 39 1 72 -2 72 -3 0 -40 -49 -83 -110z"></path>
<path d="M2776 568 c14 -48 21 -52 33 -18 14 42 15 40 -15 40 -22 0 -24 -3
-18 -22z"></path>
<path d="M4660 585 c0 -3 7 -19 15 -35 9 -18 12 -40 9 -59 l-6 -31 66 0 67 0
-3 63 -3 62 -72 3 c-40 2 -73 0 -73 -3z"></path>
<path d="M2790 480 c0 -11 5 -20 10 -20 6 0 10 9 10 20 0 11 -4 20 -10 20 -5
0 -10 -9 -10 -20z"></path>
</g>
</svg>