 <svg version="1.0" xmlns="http://www.w3.org/2000/svg" id="mask" viewBox="0 0 700.000000 423.000000" preserveAspectRatio="xMidYMid meet">

<g transform="translate(0.000000,423.000000) scale(0.100000,-0.100000)">
<path d="M6425 3779 c-176 -27 -711 -105 -1190 -173 -932 -134 -1050 -152
-1065 -161 -6 -4 -10 -265 -10 -716 l0 -709 69 0 68 0 8 389 7 389 37 6 c20 3
53 6 74 6 l37 0 0 -482 0 -483 65 -3 65 -3 0 82 0 82 35 -6 35 -6 0 414 c0
228 3 416 8 418 4 3 41 6 82 8 l75 4 0 -440 0 -440 90 3 c50 2 98 6 108 8 16
5 17 35 17 448 l0 443 82 6 c45 3 86 3 90 1 5 -3 8 -201 8 -440 l0 -434 108 0
109 0 6 441 c4 243 9 444 12 447 7 7 175 19 181 13 2 -2 4 -206 4 -453 l0
-448 90 0 c85 0 90 -1 90 -22 0 -11 -16 -49 -35 -84 -19 -34 -35 -67 -35 -72
0 -6 18 -21 41 -34 37 -20 40 -26 35 -53 -3 -16 -14 -73 -25 -125 -10 -52 -22
-120 -26 -150 l-7 -55 64 -22 c52 -19 86 -23 193 -23 72 -1 133 -1 137 -1 4 1
0 20 -8 43 -19 54 -6 95 41 126 l35 22 0 88 c0 55 -4 92 -12 100 -7 7 -38 12
-70 12 l-58 0 0 -40 0 -41 -102 3 -103 3 0 625 0 625 50 6 c28 4 74 9 103 12
l52 4 0 -464 0 -465 128 8 c70 3 128 8 130 9 1 1 6 211 10 466 l7 464 104 8
c57 4 107 4 110 0 3 -4 5 -304 3 -665 l-2 -658 -110 0 -110 0 0 46 c0 45 0 45
-32 42 l-33 -3 -3 -89 -3 -88 42 -39 c45 -41 45 -46 24 -145 l-7 -32 108 -7
c60 -3 116 -7 124 -8 12 -2 15 -27 18 -140 l3 -137 -28 -10 c-15 -6 -33 -12
-39 -14 -7 -3 -7 -22 -1 -64 l10 -59 81 -7 c45 -3 100 -6 124 -6 l42 0 -5
1143 c-7 1404 -13 1807 -29 1806 -6 -1 -155 -23 -331 -50z m155 -339 c0 -66 1
-123 3 -127 1 -5 -27 -11 -63 -15 -36 -4 -89 -9 -117 -12 l-53 -6 0 120 c0 97
3 122 15 126 12 5 157 28 203 33 9 1 12 -29 12 -119z m-492 -67 l-3 -118 -95
-11 c-52 -5 -98 -9 -102 -7 -5 3 -8 55 -8 118 l0 113 73 10 c39 5 87 10 105
11 l33 1 -3 -117z m-448 -52 c0 -61 -3 -112 -7 -114 -5 -3 -47 -8 -95 -12
l-88 -7 0 111 c0 107 1 111 23 116 33 7 77 12 125 14 l42 1 0 -109z m-420 -45
c0 -58 -3 -107 -7 -109 -5 -3 -48 -8 -96 -12 l-88 -7 3 109 3 108 50 6 c28 3
69 7 93 7 l42 2 0 -104z m-390 -41 c0 -119 10 -109 -107 -120 l-63 -6 0 104 0
105 78 9 c42 6 80 11 85 12 4 0 7 -46 7 -104z m-367 -52 l-2 -98 -38 -7 c-21
-4 -55 -7 -75 -7 l-38 -1 0 99 0 100 33 4 c17 2 52 5 77 5 l46 2 -3 -97z"></path>
<path d="M4200 1705 c0 -66 3 -77 25 -99 16 -16 25 -36 25 -55 0 -36 11 -44
51 -36 25 6 36 19 74 96 25 49 45 91 45 94 0 3 -27 5 -60 5 l-60 0 0 35 0 35
-50 0 -50 0 0 -75z"></path>
<path d="M5950 991 c0 -55 25 -62 38 -11 11 43 8 50 -20 50 -14 0 -18 -8 -18
-39z"></path>
<path d="M6040 955 c0 -10 11 -15 35 -15 24 0 35 5 35 15 0 10 -11 15 -35 15
-24 0 -35 -5 -35 -15z"></path>
<path d="M6150 951 c0 -16 14 -20 111 -31 61 -6 112 -10 115 -7 2 2 2 11 -1
19 -7 18 -96 38 -172 38 -45 0 -53 -3 -53 -19z"></path>
<path d="M6422 938 c3 -30 6 -33 42 -36 36 -3 38 -2 32 20 -3 13 -6 29 -6 36
0 7 -14 12 -36 12 -34 0 -35 -1 -32 -32z"></path>
</g>
</svg>