 <svg version="1.0" xmlns="http://www.w3.org/2000/svg" id="mask" viewBox="0 0 700.000000 423.000000" preserveAspectRatio="xMidYMid meet">

<g transform="translate(0.000000,423.000000) scale(0.100000,-0.100000)">
<path d="M811 4225 c6 -5 399 -115 414 -115 6 0 33 21 60 46 l50 46 -34 14
c-25 11 -87 14 -264 14 -127 0 -228 -2 -226 -5z"></path>
<path d="M6890 3984 c-41 -7 -105 -18 -142 -25 -47 -7 -68 -15 -68 -25 0 -8
-3 -14 -7 -14 -5 0 -48 -7 -98 -15 -49 -8 -484 -75 -965 -149 -481 -75 -992
-154 -1135 -176 -143 -23 -289 -41 -325 -41 -53 0 -236 -26 -383 -55 -27 -6
-28 -7 -11 -25 9 -11 14 -22 11 -25 -4 -4 -265 -50 -582 -103 l-575 -97 -673
113 c-369 61 -680 112 -689 113 -14 0 -18 -8 -18 -35 0 -28 4 -36 22 -40 13
-3 248 -41 523 -85 275 -43 575 -91 667 -106 l167 -27 573 87 c315 48 585 90
600 93 20 4 28 12 30 32 3 25 8 27 98 43 52 9 140 22 195 27 94 9 1666 234
2350 336 170 25 314 50 320 54 5 5 30 12 55 16 25 3 73 11 108 17 l62 10 0 59
c0 67 8 65 -110 43z"></path>
<path d="M1225 3302 c-3 -3 -5 -38 -5 -79 l0 -73 33 0 c55 0 65 -15 59 -93 -4
-56 -7 -67 -21 -65 -12 2 -17 17 -19 56 -3 48 -5 52 -28 52 l-25 0 3 -132 c3
-131 3 -133 26 -136 23 -3 24 -1 20 45 -3 43 -1 48 20 51 21 3 22 0 22 -72 l0
-76 -46 0 c-45 0 -45 0 -42 -32 3 -32 5 -33 51 -36 l48 -3 -7 -540 -7 -539 59
0 c107 0 100 15 95 -191 -3 -187 2 -212 35 -144 9 19 21 35 27 35 6 0 4 6 -4
13 -13 10 -14 97 -7 717 4 388 7 817 5 955 l-2 250 -142 21 c-79 11 -145 18
-148 16z"></path>
<path d="M1607 3144 c-4 -59 -8 -382 -8 -718 -1 -336 -4 -719 -8 -851 -4 -177
-3 -243 6 -250 6 -5 13 -19 15 -30 4 -23 40 -31 95 -20 l33 6 0 69 0 70 -45 0
-45 0 0 630 0 630 53 0 c48 0 314 -21 465 -36 l62 -7 0 -503 c0 -277 4 -504 9
-504 4 0 14 40 20 90 7 49 16 92 19 94 4 2 34 5 67 7 49 3 61 8 67 24 3 11 6
304 7 650 l1 630 -377 59 c-208 32 -390 60 -404 63 l-26 5 -6 -108z m151 -88
c3 -23 0 -28 -13 -22 -9 3 -30 6 -46 6 -30 0 -46 19 -36 43 4 10 17 12 49 8
38 -5 43 -9 46 -35z m207 1 c73 -11 80 -14 83 -36 4 -23 2 -24 -47 -17 l-51 7
0 -46 c0 -33 -4 -45 -15 -45 -11 0 -15 12 -15 44 0 49 -9 56 -66 56 -36 0 -51
17 -41 44 4 11 16 13 39 10 18 -3 69 -11 113 -17z m253 -42 c19 -7 17 -125 -3
-125 -11 0 -15 11 -15 39 0 40 -11 51 -53 51 -32 0 -51 15 -44 35 6 13 15 15
54 10 27 -4 54 -8 61 -10z m-369 -57 c22 -8 23 -12 17 -61 -4 -28 -9 -53 -11
-55 -2 -2 -35 -1 -74 3 l-69 7 -4 60 c-1 33 -1 61 0 63 6 6 116 -7 141 -17z
m284 -34 c13 -4 17 -17 17 -60 l0 -54 -52 0 c-94 0 -98 4 -98 72 l0 60 58 -6
c31 -4 65 -9 75 -12z m-191 -111 c-3 -38 -2 -41 29 -47 17 -3 42 -6 55 -6 19
0 24 -5 24 -25 0 -22 -4 -25 -37 -24 -55 1 -203 15 -208 20 -2 3 -1 15 2 28 6
22 10 23 59 18 l54 -6 0 46 c0 31 4 43 12 41 8 -3 11 -20 10 -45z m289 5 c-1
-5 -1 -35 -1 -68 l0 -60 -42 0 c-68 0 -88 9 -88 37 0 24 2 25 44 21 l44 -5 7
44 c5 32 11 43 21 41 8 -2 15 -6 15 -10z m-471 -59 c0 -28 -3 -31 -22 -25 -13
3 -35 6 -50 6 -23 0 -28 4 -28 25 0 23 3 25 50 25 49 0 50 0 50 -31z"></path>
<path d="M3220 3189 c-201 -31 -366 -58 -367 -58 -2 -1 -3 -346 -3 -767 l0
-766 78 3 77 4 3 -143 c3 -166 -19 -146 175 -162 163 -13 152 -14 164 13 8 17
37 32 109 59 55 20 111 39 127 42 l27 6 -2 912 c-2 598 -6 912 -13 913 -5 1
-174 -24 -375 -56z m337 -115 c7 -20 -4 -30 -44 -39 -30 -6 -33 -5 -33 18 0
25 12 33 53 36 10 0 20 -6 24 -15z m-129 -26 c-2 -19 -11 -24 -48 -28 l-45 -5
-3 -47 c-2 -34 -7 -48 -18 -48 -10 0 -14 13 -14 46 l0 45 -45 -7 c-43 -6 -45
-5 -45 19 0 24 4 26 58 32 31 3 66 7 77 9 11 2 35 4 53 5 29 1 33 -2 30 -21z
m-265 -28 c6 -24 3 -26 -46 -35 -36 -7 -37 -8 -37 -51 0 -38 -3 -44 -20 -44
-19 0 -21 5 -18 68 l3 67 45 6 c25 3 50 7 56 7 7 1 14 -7 17 -18z m-213 -90
c0 -27 -4 -50 -10 -50 -5 0 -10 23 -10 50 0 28 5 50 10 50 6 0 10 -22 10 -50z
m580 -19 c0 -58 -1 -59 -31 -65 -17 -3 -51 -6 -75 -6 l-44 0 0 50 c0 28 -1 53
-2 57 -4 10 46 20 105 22 l47 1 0 -59z m-270 -30 l0 -58 -37 -7 c-21 -3 -53
-6 -71 -6 l-33 0 3 58 3 57 40 6 c97 15 95 16 95 -50z m78 -71 l3 -42 45 5
c41 4 44 3 44 -18 0 -26 -13 -29 -142 -41 l-78 -6 0 25 c0 24 4 26 48 29 l47
3 3 48 c4 61 26 59 30 -3z m-388 -30 c0 -27 -4 -50 -9 -50 -9 0 -20 88 -12 96
14 14 21 -2 21 -46z m130 10 l0 -40 46 0 c41 0 45 -2 42 -22 -3 -21 -9 -23
-65 -26 l-63 -3 0 66 c0 58 2 65 20 65 17 0 20 -7 20 -40z m475 -25 c0 -24
-63 -41 -72 -19 -11 28 6 45 39 42 25 -2 33 -8 33 -23z m-5 -716 l0 -632 -77
6 c-43 4 -139 9 -213 12 -74 3 -154 8 -177 11 l-43 5 0 595 c0 559 1 594 18
595 16 0 451 35 480 38 9 1 12 -131 12 -630z"></path>
<path d="M2396 1710 c-4 -25 -9 -55 -13 -67 -4 -18 -1 -23 14 -23 18 0 19 6
16 58 -6 79 -9 84 -17 32z"></path>
<path d="M2848 1455 c-2 -50 1 -69 15 -86 9 -12 17 -27 17 -33 0 -7 16 -13 35
-14 l35 -3 0 101 0 100 -49 0 -49 0 -4 -65z"></path>
<path d="M2310 1415 l0 -85 35 0 c25 0 38 5 42 18 3 9 11 24 18 32 7 9 10 36
7 68 l-4 52 -49 0 -49 0 0 -85z"></path>
<path d="M2065 1440 c-13 -6 12 -9 73 -9 55 -1 92 3 92 9 0 12 -137 12 -165 0z"></path>
<path d="M1905 1430 c-4 -7 3 -8 22 -4 38 9 42 14 10 14 -14 0 -29 -5 -32 -10z"></path>
<path d="M1807 1423 c-2 -4 -2 -39 1 -76 3 -55 7 -67 20 -65 19 4 34 57 30
106 -2 29 -8 38 -25 40 -11 2 -23 0 -26 -5z"></path>
<path d="M1896 1349 c-10 -53 -8 -59 24 -59 32 0 35 4 44 58 5 31 4 32 -28 32
-30 0 -34 -4 -40 -31z"></path>
<path d="M1995 1370 c-1 -3 -6 -20 -10 -37 -6 -32 -6 -33 27 -33 18 0 50 3 71
6 32 6 37 10 37 34 0 27 -2 28 -61 32 -34 1 -62 1 -64 -2z"></path>
<path d="M2163 1344 c-3 -8 -1 -20 4 -25 14 -14 43 0 43 22 0 24 -38 26 -47 3z"></path>
<path d="M2510 1225 l0 -44 68 0 c37 0 123 -7 192 -15 188 -24 180 -25 180 32
l0 48 -142 12 c-79 7 -178 12 -220 12 l-78 0 0 -45z"></path>
<path d="M2348 1253 c-38 -4 -38 -5 -38 -48 0 -24 5 -47 11 -50 5 -4 37 -4 70
0 l59 7 0 49 c0 55 4 53 -102 42z"></path>
<path d="M2157 1233 c-4 -3 -7 -26 -7 -50 0 -43 0 -43 36 -43 36 0 36 1 30 31
-3 17 -6 40 -6 50 0 13 -7 19 -23 19 -13 0 -27 -3 -30 -7z"></path>
<path d="M3010 1187 l0 -53 138 -12 c191 -17 184 -18 171 15 -5 15 -8 37 -4
50 6 27 3 28 -156 43 -163 14 -149 18 -149 -43z"></path>
<path d="M2008 1223 c-21 -2 -38 -7 -38 -11 0 -4 -7 -29 -15 -56 l-15 -49 73
7 c108 10 107 10 107 67 l0 49 -37 -2 c-21 -1 -55 -3 -75 -5z"></path>
<path d="M1811 1148 l1 -63 14 50 c17 64 17 75 -1 75 -12 0 -15 -13 -14 -62z"></path>
<path d="M1862 1159 c-16 -68 -16 -67 20 -60 32 7 33 8 52 84 6 25 4 27 -27
27 -32 0 -34 -2 -45 -51z"></path>
<path d="M1590 1184 c-69 -7 -126 -13 -127 -13 -2 -1 -3 -26 -3 -57 l0 -56 78
7 c42 4 104 10 137 14 l60 6 0 54 c0 30 -4 55 -10 56 -5 1 -66 -4 -135 -11z"></path>
<path d="M5952 878 c0 -64 7 -56 22 25 5 28 4 37 -7 37 -11 0 -15 -16 -15 -62z"></path>
<path d="M6020 880 c-6 -30 -12 -63 -14 -72 -5 -22 -2 -22 30 -1 23 14 25 22
20 54 -6 35 -4 38 24 44 42 9 37 22 -10 27 l-40 3 -10 -55z"></path>
<path d="M6150 922 c0 -5 37 -15 83 -21 45 -7 97 -14 115 -18 19 -3 32 -1 32
5 0 14 -21 19 -115 27 -44 3 -88 9 -97 11 -10 3 -18 1 -18 -4z"></path>
<path d="M6432 823 l3 -78 50 -7 c27 -4 50 -6 51 -5 6 6 -32 153 -40 159 -6 4
-24 8 -39 8 l-28 0 3 -77z"></path>
<path d="M6555 843 c4 -26 10 -64 14 -83 l7 -35 84 -9 c65 -7 85 -6 88 3 3 8
9 3 16 -11 12 -24 10 -23 194 -41 l42 -5 0 83 0 83 -67 6 c-105 10 -143 17
-143 26 0 5 -35 11 -77 14 -43 4 -97 9 -121 12 l-43 5 6 -48z"></path>
<path d="M5782 835 c0 -16 2 -22 5 -12 2 9 2 23 0 30 -3 6 -5 -1 -5 -18z"></path>
</g>
</svg>