 <svg version="1.0" xmlns="http://www.w3.org/2000/svg" id="mask" viewBox="0 0 700.000000 423.000000" preserveAspectRatio="xMidYMid meet">

<g transform="translate(0.000000,423.000000) scale(0.100000,-0.100000)">
<path d="M0 3826 l0 -404 81 -12 c45 -6 82 -10 84 -8 1 2 10 17 19 35 13 26
17 81 22 291 6 227 5 270 -11 353 -11 54 -27 106 -39 122 -18 25 -25 27 -88
27 l-68 0 0 -404z"></path>
<path d="M490 4200 c0 -23 -4 -30 -20 -30 -11 0 -20 -4 -20 -10 0 -5 -7 -7
-15 -3 -9 3 -23 -1 -33 -10 -9 -8 -31 -18 -48 -21 l-30 -7 -3 -334 c-1 -193 2
-341 7 -352 6 -10 15 -30 20 -44 9 -23 19 -28 64 -34 29 -3 61 -9 71 -11 24
-7 22 23 -3 38 -28 18 -25 31 10 51 29 17 30 21 32 95 0 42 0 84 -2 92 -6 39
-1 69 16 93 10 15 22 27 25 27 3 0 12 -18 19 -40 10 -30 10 -49 2 -82 -6 -24
-14 -74 -17 -112 -6 -66 -5 -70 22 -98 25 -26 26 -30 12 -39 -12 -6 -18 -30
-23 -91 -4 -46 -9 -114 -13 -153 -3 -38 -5 -80 -4 -92 0 -16 -5 -23 -18 -23
-15 0 -19 11 -25 61 -3 34 -6 90 -6 125 0 89 -11 112 -57 119 -21 4 -51 9 -66
12 -24 4 -30 1 -40 -26 -6 -17 -14 -31 -18 -31 -4 0 -7 -46 -7 -102 -1 -142
-3 -974 -2 -1022 0 -32 3 -38 19 -33 10 2 25 1 34 -4 10 -6 17 -4 21 6 9 23
53 18 68 -7 7 -13 11 -29 9 -37 -1 -8 3 -18 11 -22 21 -14 123 -10 161 6 20 8
58 15 85 15 38 0 54 -6 82 -30 20 -16 47 -29 62 -30 78 -1 159 -69 174 -145
l6 -33 71 0 c76 1 202 -12 304 -32 58 -11 63 -14 73 -46 8 -22 8 -39 2 -47 -5
-7 -12 -20 -16 -31 -5 -15 -2 -17 17 -12 12 3 45 -1 71 -9 27 -8 65 -15 85
-15 20 0 65 -7 101 -15 36 -8 99 -21 141 -29 95 -18 149 -40 155 -63 3 -10 19
-26 36 -36 29 -17 30 -20 26 -67 -3 -28 -2 -50 1 -50 3 0 28 -20 55 -45 43
-39 50 -50 49 -81 -1 -20 -9 -45 -21 -57 -11 -12 -23 -32 -27 -45 -3 -12 -18
-28 -32 -36 -16 -8 -22 -16 -15 -20 10 -6 101 12 427 84 l90 20 -6 243 c-4
133 -8 312 -10 397 -3 85 -8 161 -13 168 -4 8 -4 17 0 22 5 4 125 14 267 21
l257 13 0 571 c-1 314 -4 575 -8 580 -4 6 -14 11 -22 13 -8 2 -17 8 -18 13 -2
5 -12 -1 -22 -13 -15 -19 -20 -20 -34 -9 -13 11 -16 11 -16 1 0 -9 -7 -7 -21
6 -16 13 -23 15 -26 7 -6 -16 -48 5 -82 42 -13 14 -33 25 -46 25 -13 0 -25 6
-28 14 -14 36 -198 43 -233 9 -18 -19 -18 -47 1 -63 17 -14 20 -47 4 -52 -13
-4 -27 -1155 -14 -1184 11 -25 7 -43 -15 -74 -11 -16 -15 -31 -11 -39 5 -7 6
-21 4 -31 -5 -20 -14 -21 -623 -75 -418 -37 -414 -37 -403 29 3 22 -2 46 -16
74 -18 36 -20 46 -9 65 10 17 14 178 16 725 4 657 3 705 -14 723 -16 18 -16
20 -1 37 10 11 17 35 17 56 0 43 -22 76 -105 156 l-50 49 22 38 c15 25 28 37
40 35 22 -4 166 -39 567 -137 170 -41 311 -73 313 -71 3 3 -11 8 -31 11 -20 4
-33 11 -30 16 3 5 12 6 21 0 9 -4 35 -6 59 -3 30 3 44 1 44 -7 0 -7 5 -9 12
-5 7 5 31 10 53 12 45 4 82 32 69 53 -5 8 -7 24 -5 37 1 12 -2 22 -8 22 -6 0
-19 16 -28 35 -11 23 -22 34 -31 30 -11 -4 -13 1 -10 18 3 16 -1 28 -14 36
-10 6 -16 17 -12 23 5 7 0 9 -14 6 -12 -4 -20 -3 -18 1 3 3 -57 26 -132 49
-485 153 -903 285 -937 297 -33 12 -112 15 -423 15 l-382 0 0 -30z"></path>
<path d="M2328 3573 c7 -3 16 -2 19 1 4 3 -2 6 -13 5 -11 0 -14 -3 -6 -6z"></path>
<path d="M6 3364 c-3 -9 -6 -292 -6 -631 l0 -615 37 6 c21 3 68 8 106 11 l67
7 -5 570 c-3 314 -8 575 -12 582 -4 6 -8 13 -9 16 -14 46 -16 47 -84 59 -87
14 -87 14 -94 -5z"></path>
<path d="M2915 3280 c-3 -5 1 -10 10 -10 9 0 13 5 10 10 -3 6 -8 10 -10 10 -2
0 -7 -4 -10 -10z"></path>
<path d="M2946 3253 c-6 -14 -5 -15 5 -6 7 7 10 15 7 18 -3 3 -9 -2 -12 -12z"></path>
<path d="M3830 2911 c0 -12 -7 -29 -15 -37 -13 -14 -15 -14 -15 1 0 11 -5 15
-14 12 -8 -3 -17 -1 -20 6 -2 7 -5 -169 -5 -390 -1 -338 1 -403 13 -403 18 0
27 26 20 56 -3 13 1 42 10 64 9 22 16 53 17 68 0 24 1 25 9 7 5 -13 9 34 10
125 3 204 -1 504 -6 509 -2 2 -4 -6 -4 -18z"></path>
<path d="M635 2016 c-22 -7 -39 -16 -37 -19 1 -4 2 -11 2 -16 0 -21 40 -21
112 0 62 18 75 25 67 36 -14 16 -89 15 -144 -1z"></path>
<path d="M733 1918 c-48 -19 -51 -22 -55 -60 -2 -27 1 -42 9 -45 7 -3 73 -1
146 3 l132 9 3 28 c5 38 -45 87 -87 87 -24 0 -31 -4 -31 -19 0 -11 -4 -22 -8
-25 -16 -9 -51 6 -54 24 -3 16 -6 16 -55 -2z"></path>
</g>
</svg>