 <svg version="1.0" xmlns="http://www.w3.org/2000/svg" id="mask" viewBox="0 0 700.000000 423.000000" preserveAspectRatio="xMidYMid meet">

<g transform="translate(0.000000,423.000000) scale(0.100000,-0.100000)">
<path d="M1410 3782 c0 -5 16 -32 35 -60 19 -28 37 -62 41 -76 3 -14 12 -30
20 -37 8 -6 14 -18 14 -25 0 -8 3 -14 8 -14 11 0 1 -104 -12 -112 -7 -5 -5
-12 8 -21 12 -9 17 -20 13 -31 -4 -10 -7 -333 -7 -718 0 -505 -4 -705 -12
-715 -6 -7 -8 -16 -5 -19 6 -6 820 29 990 42 57 5 76 9 68 17 -17 17 -15 1227
2 1227 8 0 9 2 1 8 -7 4 -13 28 -15 54 -3 36 -1 48 11 51 8 1 -5 10 -30 19
-48 17 -27 24 26 9 33 -9 41 -7 62 21 12 15 9 18 -27 29 -58 17 -43 23 24 9
49 -10 60 -10 73 4 13 13 13 16 1 20 -8 3 -293 75 -634 161 -341 86 -628 158
-637 161 -10 3 -18 1 -18 -4z m281 -394 c1 -7 0 -21 0 -31 -2 -10 8 -21 21
-26 20 -9 20 -10 4 -10 -13 -1 -17 -4 -10 -11 10 -10 598 -120 640 -120 18 0
20 -5 16 -27 -5 -26 -5 -26 -13 -5 -5 13 -17 22 -30 22 -27 0 -338 50 -528 86
-79 14 -94 15 -102 3 -9 -14 -13 -296 -4 -288 2 3 5 45 5 94 1 50 4 109 7 133
l5 43 67 -6 c36 -4 100 -14 141 -21 41 -8 95 -17 120 -20 160 -18 340 -51 293
-53 -20 -1 -18 -227 2 -247 13 -14 15 -8 16 48 0 35 5 86 9 113 6 31 7 -69 5
-259 -2 -169 -6 -311 -9 -314 -3 -3 -6 83 -6 191 0 168 -2 197 -15 197 -13 0
-15 -20 -15 -124 0 -90 3 -126 13 -129 9 -4 9 -8 -2 -15 -12 -8 -13 -33 -8
-131 5 -93 4 -121 -6 -121 -7 0 -8 -3 -2 -8 6 -4 8 -53 5 -132 l-5 -125 -125
-7 c-69 -5 -131 -6 -137 -3 -10 3 -13 39 -13 130 0 82 -4 124 -10 120 -6 -4
-10 -58 -10 -129 l0 -123 -61 -7 c-34 -3 -106 -6 -160 -6 l-97 0 -4 48 c-1 26
-1 94 2 149 7 133 -3 411 -11 333 -3 -30 -6 137 -6 373 0 240 3 427 8 427 5 0
10 -6 10 -12z m96 -74 c-3 -3 -12 -4 -19 -1 -8 3 -5 6 6 6 11 1 17 -2 13 -5z
m210 -40 c-3 -3 -12 -4 -19 -1 -8 3 -5 6 6 6 11 1 17 -2 13 -5z m66 -11 c-7
-2 -19 -2 -25 0 -7 3 -2 5 12 5 14 0 19 -2 13 -5z m104 -19 c-3 -3 -12 -4 -19
-1 -8 3 -5 6 6 6 11 1 17 -2 13 -5z m348 -4 c3 -5 -3 -10 -14 -10 -11 0 -23 5
-26 10 -3 6 3 10 14 10 11 0 23 -4 26 -10z m-292 -7 c-7 -2 -19 -2 -25 0 -7 3
-2 5 12 5 14 0 19 -2 13 -5z m-546 -715 c-3 -8 -6 -5 -6 6 -1 11 2 17 5 13 3
-3 4 -12 1 -19z"></path>
<path d="M2021 3063 c0 -61 3 -114 8 -117 11 -7 13 137 2 189 -7 31 -9 16 -10
-72z"></path>
<path d="M1684 2810 c0 -80 2 -112 3 -72 2 39 2 105 0 145 -1 39 -3 7 -3 -73z"></path>
<path d="M2001 2903 c0 -5 4 -17 9 -28 8 -18 9 -17 9 8 1 15 -3 27 -9 27 -5 0
-10 -3 -9 -7z"></path>
<path d="M2030 2688 c0 -19 -2 -20 -10 -8 -8 13 -10 13 -10 -1 0 -31 26 -29
28 2 1 16 0 29 -3 29 -3 0 -5 -10 -5 -22z"></path>
<path d="M1748 2663 c18 -2 45 -2 60 0 15 2 0 4 -33 4 -33 0 -45 -2 -27 -4z"></path>
<path d="M2015 2608 c-3 -13 -6 -72 -8 -133 l-2 -110 -148 2 c-89 1 -145 -2
-142 -8 10 -16 278 -11 301 5 17 13 19 30 23 140 2 86 0 126 -8 126 -6 0 -13
-10 -16 -22z"></path>
<path d="M2075 2353 c95 -7 213 -7 208 0 -2 4 -59 6 -126 5 -67 -1 -104 -3
-82 -5z"></path>
<path d="M3237 3097 c-8 -20 6 -37 39 -47 l29 -10 -32 5 c-54 8 -37 -13 20
-24 28 -5 90 -17 137 -27 92 -17 123 -30 50 -19 -25 3 -59 8 -76 10 l-32 3 -1
-104 c-1 -75 1 -104 10 -104 9 0 10 25 6 95 -3 52 -2 97 2 99 4 3 40 -3 81
-12 l75 -17 -3 -92 c-2 -60 1 -93 8 -93 5 0 10 9 10 21 0 11 5 17 10 14 12 -7
12 -463 0 -565 l-7 -65 -1 78 c-3 110 -22 89 -22 -24 l0 -89 -37 -1 -38 -2 35
-7 c23 -6 -6 -8 -82 -7 -64 1 -111 -1 -105 -5 7 -4 -8 -7 -33 -7 -41 1 -42 2
-15 9 l30 8 -27 1 c-16 1 -29 8 -32 19 -3 9 -5 118 -5 242 1 265 -10 369 -26
243 -11 -88 -19 -87 -26 2 -3 44 -6 -63 -7 -237 -1 -174 -5 -324 -9 -334 -6
-16 1 -17 93 -10 54 3 174 10 265 16 92 5 178 12 193 16 l26 6 0 309 c0 183
-4 309 -9 309 -5 0 -12 8 -14 18 -3 9 -5 -41 -6 -113 -2 -174 -13 -489 -17
-494 -2 -2 -4 171 -4 385 0 462 -4 520 -34 528 -41 12 -386 86 -400 86 -8 0
-16 -6 -19 -13z m160 -73 c-3 -3 -12 -4 -19 -1 -8 3 -5 6 6 6 11 1 17 -2 13
-5z m182 -81 c0 -16 -3 -22 -6 -13 -3 8 -10 21 -16 28 -7 8 -5 12 7 12 11 0
16 -8 15 -27z"></path>
<path d="M3211 2993 c0 -63 3 -103 9 -103 11 0 11 56 0 145 -7 56 -7 53 -9
-42z"></path>
<path d="M3263 3003 c9 -2 23 -2 30 0 6 3 -1 5 -18 5 -16 0 -22 -2 -12 -5z"></path>
<path d="M3323 2993 c9 -2 23 -2 30 0 6 3 -1 5 -18 5 -16 0 -22 -2 -12 -5z"></path>
<path d="M3370 2660 c0 -60 4 -100 10 -100 6 0 10 40 10 100 0 60 -4 100 -10
100 -6 0 -10 -40 -10 -100z"></path>
<path d="M3548 2733 c-5 -25 -2 -183 5 -183 4 0 7 43 7 95 0 52 -2 95 -5 95
-3 0 -6 -3 -7 -7z"></path>
<path d="M3370 2440 l0 -100 27 -6 c40 -11 136 -11 151 0 8 6 11 37 10 105
l-2 96 -5 -95 -6 -95 -80 0 -80 0 3 98 c3 66 0 97 -7 97 -7 0 -11 -34 -11
-100z"></path>
<path d="M3370 2220 c0 -55 3 -100 8 -100 4 0 7 45 7 100 0 55 -3 100 -7 100
-5 0 -8 -45 -8 -100z"></path>
<path d="M3418 2123 c7 -3 16 -2 19 1 4 3 -2 6 -13 5 -11 0 -14 -3 -6 -6z"></path>
<path d="M3248 2023 c18 -2 45 -2 60 0 15 2 0 4 -33 4 -33 0 -45 -2 -27 -4z"></path>
<path d="M3415 2000 c-66 -4 -148 -8 -182 -9 -60 -1 -63 -2 -63 -26 l0 -25
113 6 c61 4 113 10 115 14 1 4 24 6 50 4 26 -2 61 1 77 6 17 5 62 12 100 16
50 5 64 9 50 15 -23 9 -88 8 -260 -1z"></path>
<path d="M2265 1965 l-160 -13 180 6 c192 5 348 20 210 19 -38 0 -142 -6 -230
-12z"></path>
<path d="M2518 1953 c7 -3 16 -2 19 1 4 3 -2 6 -13 5 -11 0 -14 -3 -6 -6z"></path>
<path d="M1967 1943 c18 -2 50 -2 70 0 21 2 7 4 -32 4 -38 0 -55 -2 -38 -4z"></path>
<path d="M1788 1933 c18 -2 45 -2 60 0 15 2 0 4 -33 4 -33 0 -45 -2 -27 -4z"></path>
<path d="M2450 1934 c-30 -4 -772 -53 -847 -56 -45 -1 -52 -4 -56 -25 -4 -20
0 -23 32 -24 l36 -2 -40 -7 c-87 -16 -78 -15 805 51 85 6 156 13 158 14 2 1 0
14 -4 29 -6 27 -16 29 -84 20z m-582 -91 c-10 -2 -26 -2 -35 0 -10 3 -2 5 17
5 19 0 27 -2 18 -5z m-125 -10 c-13 -2 -35 -2 -50 0 -16 2 -5 4 22 4 28 0 40
-2 28 -4z"></path>
<path d="M1628 1923 c12 -2 30 -2 40 0 9 3 -1 5 -23 4 -22 0 -30 -2 -17 -4z"></path>
<path d="M2515 1158 c-270 -55 -384 -82 -388 -93 -3 -6 -3 -41 0 -77 l6 -65
46 13 c25 7 134 33 241 59 244 58 230 54 230 72 0 8 -6 13 -12 10 -18 -6 -50
12 -43 24 4 5 0 9 -7 9 -23 0 15 20 40 20 16 0 22 6 22 23 0 28 -18 29 -135 5z"></path>
</g>
</svg>