 <svg version="1.0" xmlns="http://www.w3.org/2000/svg" id="mask" viewBox="0 0 700.000000 423.000000" preserveAspectRatio="xMidYMid meet">

<g transform="translate(0.000000,423.000000) scale(0.100000,-0.100000)">
<path d="M6684 4220 c-72 -29 -1944 -484 -2574 -625 -91 -21 -187 -43 -215
-49 l-50 -12 -6 -230 c-4 -126 -9 -455 -13 -731 l-6 -501 64 -4 64 -3 6 150
c3 83 8 296 11 475 3 179 8 398 11 487 l7 161 161 31 c357 68 516 95 521 89 5
-5 -26 -1109 -40 -1385 -6 -128 -18 -113 115 -138 116 -21 153 -32 231 -67 60
-27 72 -37 109 -94 23 -35 43 -64 46 -64 9 0 846 -130 1346 -210 279 -44 513
-80 518 -80 12 0 14 2336 3 2643 l-6 167 -141 -1 c-78 0 -150 -4 -162 -9z
m-1904 -614 c0 -41 -3 -77 -7 -79 -5 -3 -188 -39 -408 -82 -220 -42 -410 -79
-422 -82 -22 -5 -23 -3 -23 63 l0 69 423 91 c232 51 425 92 430 93 4 1 7 -32
7 -73z m-860 -641 c0 -31 -3 -35 -25 -35 -22 0 -25 4 -25 35 0 31 3 35 25 35
22 0 25 -4 25 -35z m918 -7 c-3 -30 -6 -33 -40 -36 -40 -3 -43 2 -32 46 5 17
14 22 41 22 33 0 34 -2 31 -32z"></path>
</g>
</svg>