 <svg version="1.0" xmlns="http://www.w3.org/2000/svg" id="mask" viewBox="0 0 700.000000 423.000000" preserveAspectRatio="xMidYMid meet">

<g transform="translate(0.000000,423.000000) scale(0.100000,-0.100000)">
<path d="M4315 3398 c-176 -33 -323 -63 -326 -67 -7 -6 -29 -879 -29 -1123 l0
-147 46 -7 c25 -3 50 -2 55 3 8 8 16 371 21 945 l2 267 50 10 c133 26 451 79
456 76 3 -2 2 -99 -2 -217 -3 -117 -11 -375 -17 -573 -6 -198 -14 -412 -17
-476 l-6 -116 33 -6 c19 -2 35 -4 36 -3 1 1 11 296 22 656 11 360 23 697 25
748 4 81 2 92 -12 91 -9 -1 -161 -28 -337 -61z"></path>
</g>
</svg>