 <svg version="1.0" xmlns="http://www.w3.org/2000/svg" id="mask" viewBox="0 0 700.000000 423.000000" preserveAspectRatio="xMidYMid meet">

<g transform="translate(0.000000,423.000000) scale(0.100000,-0.100000)">
<path d="M5380 4081 l0 -148 -80 -53 c-43 -29 -77 -56 -75 -60 2 -4 -2 -7 -9
-7 -13 0 -512 -337 -531 -359 -8 -9 -172 -123 -857 -593 -27 -19 -37 -33 -38
-53 0 -28 1 -28 63 -28 34 0 368 14 742 30 374 16 681 30 683 30 1 0 2 59 2
130 0 123 -1 130 -20 130 -11 0 -20 6 -20 14 0 11 25 16 110 21 61 4 110 8
110 10 0 1 -7 23 -16 49 -14 39 -14 55 -5 87 9 30 9 43 -1 58 -7 11 -9 24 -4
28 4 4 44 8 89 8 l81 0 2 -55 c1 -31 4 -65 8 -77 4 -13 1 -34 -8 -52 -9 -17
-16 -33 -16 -36 0 -3 28 -5 63 -3 l62 3 -3 56 c-3 48 0 60 22 86 21 24 26 42
26 82 l0 51 80 0 c61 0 80 -3 80 -14 0 -15 32 -27 48 -17 6 3 33 4 61 3 42 -3
51 -7 49 -20 -1 -10 10 -30 25 -46 31 -33 33 -56 12 -116 -8 -23 -15 -44 -15
-45 0 -2 26 -1 58 2 48 4 81 -1 182 -31 68 -20 126 -39 129 -42 3 -3 -2 -11
-12 -18 -16 -12 -17 -65 -17 -857 l0 -844 31 31 c21 21 32 44 36 73 4 31 10
41 22 39 12 -2 15 -12 13 -36 -2 -22 3 -40 13 -52 17 -19 18 -18 41 16 22 31
24 46 24 139 l0 105 28 0 28 0 0 -102 c-1 -85 2 -103 14 -103 12 0 15 15 12
82 -2 76 -1 83 17 83 17 0 20 -9 25 -72 2 -40 10 -139 17 -220 l12 -148 29 0
c21 0 28 5 28 20 0 19 0 19 34 -1 l34 -20 1 103 c0 57 2 119 4 138 2 19 4 72
5 118 l2 83 45 -7 45 -6 0 1291 0 1291 -810 0 -810 0 0 -149z"></path>
<path d="M3790 1351 c0 -4 11 -6 25 -3 14 2 25 6 25 8 0 2 -11 4 -25 4 -14 0
-25 -4 -25 -9z"></path>
<path d="M3950 1324 c6 -15 8 -41 4 -59 l-6 -33 55 -4 c55 -3 55 -3 60 27 3
17 9 45 15 63 l11 32 -74 0 -75 0 10 -26z"></path>
<path d="M4235 1333 c-4 -10 -8 -44 -10 -75 -4 -55 -3 -58 19 -58 19 0 22 4
18 30 -4 27 -1 31 27 36 28 6 31 10 31 45 0 39 0 39 -39 39 -28 0 -41 -5 -46
-17z"></path>
<path d="M4705 1328 c-6 -19 -25 -142 -25 -161 0 -14 10 -17 50 -17 l49 0 20
68 c11 37 23 79 27 95 l6 27 -61 0 c-41 0 -63 -4 -66 -12z"></path>
<path d="M4947 1273 c-29 -68 -41 -106 -61 -191 -13 -58 -13 -64 2 -69 28 -11
90 -78 97 -104 3 -14 0 -53 -8 -87 l-14 -62 36 0 c77 0 99 -59 24 -61 -64 -2
-81 -12 -127 -79 l-46 -65 43 -6 c93 -14 377 -22 377 -10 0 6 -4 11 -10 11 -6
0 -10 118 -10 335 0 312 1 335 18 335 16 1 16 1 0 14 -11 8 -18 27 -18 48 l0
35 -107 6 c-181 12 -167 15 -196 -50z"></path>
<path d="M4507 1314 c-11 -11 -8 -84 3 -84 6 0 10 -12 11 -27 l1 -28 8 28 c16
54 16 112 -1 115 -8 1 -18 0 -22 -4z"></path>
<path d="M4577 1307 c-3 -8 -8 -39 -12 -70 -6 -48 -5 -57 8 -57 16 0 24 26 29
99 3 34 -15 54 -25 28z"></path>
<path d="M4637 1313 c-7 -13 -19 -138 -12 -131 7 7 35 106 35 126 0 13 -16 17
-23 5z"></path>
<path d="M4886 1245 c-9 -26 -7 -32 5 -12 6 10 9 21 6 23 -2 3 -7 -2 -11 -11z"></path>
<path d="M3760 1215 c0 -16 6 -25 15 -25 9 0 15 9 15 25 0 16 -6 25 -15 25 -9
0 -15 -9 -15 -25z"></path>
<path d="M4846 1214 c-4 -14 -5 -28 -3 -31 3 -2 8 8 11 23 4 14 5 28 3 31 -3
2 -8 -8 -11 -23z"></path>
<path d="M4061 1184 c0 -11 3 -14 6 -6 3 7 2 16 -1 19 -3 4 -6 -2 -5 -13z"></path>
<path d="M4685 1030 c-25 -6 -26 -8 -7 -9 13 0 32 -6 43 -11 16 -9 19 -7 19
10 0 21 -7 22 -55 10z"></path>
<path d="M4480 990 c0 -24 15 -27 24 -4 9 22 8 24 -9 24 -8 0 -15 -9 -15 -20z"></path>
<path d="M4540 990 c0 -11 2 -20 5 -20 2 0 9 9 15 20 9 16 8 20 -5 20 -8 0
-15 -9 -15 -20z"></path>
<path d="M4416 991 c-3 -5 1 -14 9 -21 13 -10 15 -9 15 9 0 21 -14 28 -24 12z"></path>
<path d="M3864 968 c3 -13 6 -49 6 -80 0 -47 3 -58 16 -58 13 0 15 7 10 31 -3
17 -6 53 -6 80 0 38 -3 49 -16 49 -12 0 -15 -6 -10 -22z"></path>
<path d="M3942 908 c3 -70 6 -83 21 -86 15 -3 17 6 17 82 0 80 -1 86 -20 86
-20 0 -21 -5 -18 -82z"></path>
<path d="M4077 913 c-3 -43 -5 -79 -3 -80 1 -1 32 0 68 4 l66 6 4 67 3 68 -50
6 c-87 10 -81 14 -88 -71z"></path>
<path d="M4358 983 c7 -3 16 -2 19 1 4 3 -2 6 -13 5 -11 0 -14 -3 -6 -6z"></path>
<path d="M4070 786 c0 -9 5 -16 10 -16 6 0 10 4 10 9 0 6 -4 13 -10 16 -5 3
-10 -1 -10 -9z"></path>
<path d="M4180 665 c0 -48 2 -55 20 -55 17 0 20 7 20 39 0 49 -8 71 -26 71
-10 0 -14 -15 -14 -55z"></path>
<path d="M4070 635 c0 -8 5 -15 10 -15 6 0 10 7 10 15 0 8 -4 15 -10 15 -5 0
-10 -7 -10 -15z"></path>
</g>
</svg>