 <svg version="1.0" xmlns="http://www.w3.org/2000/svg" id="mask" viewBox="0 0 700.000000 423.000000" preserveAspectRatio="xMidYMid meet">

<g transform="translate(0.000000,423.000000) scale(0.100000,-0.100000)">
<path d="M0 3002 l0 -689 264 -7 c240 -6 325 -3 489 19 l37 5 0 -334 0 -334
23 -6 c12 -3 41 -6 64 -6 24 0 48 -7 57 -16 20 -20 21 -102 2 -123 -19 -22 -7
-203 17 -246 34 -62 41 -66 99 -63 40 2 53 7 52 18 0 8 -4 50 -8 92 l-7 77 35
7 c31 5 36 11 42 40 3 19 10 36 14 39 23 14 157 32 173 23 11 -6 76 -5 177 2
186 13 230 5 262 -44 16 -25 18 -42 14 -91 -4 -33 -9 -72 -12 -86 l-6 -27 119
-6 c338 -18 348 -19 351 -44 3 -18 -1 -22 -22 -22 l-26 0 0 -122 1 -123 94 97
c55 58 101 98 113 98 12 0 42 28 80 74 l61 74 -95 -5 -94 -6 0 847 c0 614 3
846 11 846 6 0 165 -20 353 -45 187 -25 445 -59 571 -76 127 -16 276 -36 331
-44 145 -21 144 -21 144 19 l0 34 -52 -2 -53 -1 -5 110 -5 110 -80 16 c-44 9
-180 35 -302 59 l-221 43 -137 -98 c-136 -97 -137 -97 -183 -91 -25 3 -47 8
-50 10 -2 3 -7 55 -10 117 -5 84 -11 114 -22 120 -15 9 -831 149 -863 149 -10
0 -82 -49 -160 -108 -78 -60 -146 -111 -152 -114 -5 -3 -41 -1 -80 6 l-70 11
-6 60 c-4 33 -7 97 -8 143 -1 45 -4 82 -8 82 -4 0 -294 50 -644 110 -351 61
-645 110 -654 110 -13 0 -15 -74 -15 -688z"></path>
<path d="M3720 1350 c0 -5 14 -10 30 -10 17 0 30 5 30 10 0 6 -13 10 -30 10
-16 0 -30 -4 -30 -10z"></path>
<path d="M2990 1308 c-207 -15 -268 -22 -280 -34 -13 -14 -13 -15 5 -13 22 4
45 -7 45 -22 0 -5 -16 -27 -36 -49 -20 -22 -32 -40 -26 -40 5 0 15 7 22 15 7
8 19 15 26 15 31 0 10 -36 -61 -109 -41 -43 -72 -81 -68 -85 4 -3 46 34 95 84
48 49 95 90 103 90 17 0 21 -35 5 -45 -17 -11 -11 -23 13 -27 43 -6 31 -40
-40 -108 -38 -36 -79 -72 -92 -81 -21 -14 -24 -23 -29 -113 l-5 -97 359 6
c197 4 365 8 372 10 16 6 18 385 1 385 -6 0 -8 11 -4 28 5 24 -13 136 -31 195
-7 21 -17 21 -374 -5z"></path>
<path d="M3424 1230 c23 -87 35 -93 16 -7 -18 78 -21 87 -29 87 -4 0 2 -36 13
-80z"></path>
<path d="M3450 1303 c0 -5 7 -45 16 -90 12 -59 21 -83 31 -83 11 0 13 7 10 23
-3 12 -11 52 -17 90 -8 45 -17 67 -26 67 -8 0 -14 -3 -14 -7z"></path>
<path d="M3611 1224 c1 -16 5 -40 9 -54 6 -17 7 -9 3 25 -6 56 -14 74 -12 29z"></path>
<path d="M3682 1225 c0 -11 4 -33 8 -50 7 -27 8 -27 8 -5 0 14 -4 36 -8 50 -6
20 -8 21 -8 5z"></path>
<path d="M2552 1124 c-18 -14 -29 -30 -26 -35 7 -11 40 15 55 43 13 23 10 23
-29 -8z"></path>
<path d="M2485 1130 c-3 -5 -1 -10 4 -10 6 0 11 5 11 10 0 6 -2 10 -4 10 -3 0
-8 -4 -11 -10z"></path>
<path d="M2594 1057 c-17 -15 -23 -26 -16 -31 6 -3 20 7 32 24 26 36 21 38
-16 7z"></path>
<path d="M3510 995 c0 -48 23 -165 32 -165 9 0 5 63 -8 147 -6 40 -24 53 -24
18z"></path>
<path d="M3800 991 c-14 -5 -14 -16 -5 -80 11 -84 35 -111 34 -39 -1 80 -12
126 -29 119z"></path>
<path d="M3504 718 c-3 -4 11 -8 30 -8 20 0 36 2 36 4 0 8 -61 12 -66 4z"></path>
</g>
</svg>