 <svg version="1.0" xmlns="http://www.w3.org/2000/svg" id="mask" viewBox="0 0 700.000000 423.000000" preserveAspectRatio="xMidYMid meet">

<g transform="translate(0.000000,423.000000) scale(0.100000,-0.100000)">
<path d="M0 3970 c0 -143 3 -260 6 -260 6 0 604 511 604 516 0 2 -137 4 -305
4 l-305 0 0 -260z"></path>
<path d="M1800 3850 c-261 -209 -475 -384 -474 -390 1 -5 2 -68 3 -139 l1
-128 76 -12 c47 -8 79 -9 87 -3 7 5 129 98 272 208 327 249 1077 824 1089 836
6 4 -123 8 -285 8 l-294 0 -475 -380z"></path>
<path d="M3975 4211 c-11 -10 -301 -227 -645 -481 -344 -254 -631 -467 -638
-474 -11 -11 -12 -38 -5 -132 l8 -119 45 -7 c51 -7 48 -8 240 132 58 43 418
303 800 580 382 276 699 506 704 511 6 5 -91 9 -240 9 -231 0 -251 -1 -269
-19z"></path>
<path d="M5300 4216 c-8 -8 -283 -202 -610 -431 -1083 -760 -1022 -716 -1016
-739 3 -12 6 -60 6 -108 l0 -88 61 0 61 0 435 303 c239 166 591 410 781 542
l347 241 3 147 3 147 -29 0 c-15 0 -34 -6 -42 -14z"></path>
<path d="M2372 2633 c1 -194 4 -283 7 -218 l6 110 40 -3 c22 -1 152 -11 290
-22 137 -11 253 -20 257 -20 4 0 8 -52 8 -116 l0 -115 -142 6 c-79 4 -216 10
-306 13 l-162 7 1 -265 c0 -157 4 -257 9 -245 5 11 9 53 9 93 l1 72 293 -2
292 -3 3 -116 3 -116 -182 -6 c-100 -4 -235 -7 -301 -7 l-118 0 0 -206 0 -207
93 7 c87 7 94 9 127 42 39 37 50 40 68 22 9 -9 8 -16 -6 -32 -17 -21 -17 -21
4 -3 25 21 43 22 58 3 9 -11 59 -10 316 8 l305 21 -2 38 c-3 40 2 43 54 28 30
-9 173 -1 270 15 42 6 43 6 49 -25 l7 -31 128 0 c103 0 127 3 123 13 -9 23 23
42 49 29 34 -18 77 -32 77 -26 0 15 -22 44 -34 44 -8 0 -19 6 -25 14 -6 7 -38
17 -71 20 l-60 7 0 99 0 100 228 0 c126 0 324 -3 440 -7 l212 -6 0 -105 0
-105 -253 7 c-246 6 -254 6 -272 -14 -10 -11 -25 -20 -34 -20 -11 0 -12 -3 -3
-12 8 -8 18 -9 34 -1 30 13 48 6 48 -18 0 -18 -5 -20 -47 -13 -37 5 -45 4 -37
-5 6 -7 30 -11 55 -9 41 3 44 5 47 33 l3 30 194 0 194 0 -6 -37 -6 -38 66 0
c55 0 65 3 70 19 4 18 9 18 47 9 34 -9 44 -8 51 3 11 19 45 -2 41 -25 -2 -14
11 -16 106 -16 60 0 124 -3 141 -6 l31 -6 0 55 0 56 -107 3 -108 3 3 105 c2
58 5 106 6 107 1 1 45 3 99 4 87 1 97 3 97 20 0 17 -9 19 -98 19 l-99 0 -7
111 c-3 62 -4 114 -2 117 3 2 53 4 111 3 100 -2 105 -1 105 18 0 20 -6 21
-110 21 l-111 0 3 113 3 112 118 3 c109 2 117 4 117 22 0 19 -7 20 -120 20
l-120 0 0 115 0 115 115 0 c96 0 115 3 115 15 0 12 -18 15 -99 15 -55 0 -106
3 -115 6 -13 5 -16 25 -16 115 l0 109 120 0 120 0 0 55 0 55 -72 0 c-73 0
-1102 -44 -1298 -55 -71 -4 -142 -1 -220 9 -192 26 -556 74 -920 121 -190 25
-357 48 -372 51 l-28 6 2 -329z m218 172 c74 -8 192 -20 263 -26 l127 -12 0
-119 0 -118 -27 0 c-16 0 -145 9 -288 20 -143 11 -266 20 -272 20 -10 0 -13
32 -13 125 l0 125 38 0 c20 0 98 -7 172 -15z m860 -103 l205 -27 3 -102 c1
-57 1 -103 -2 -103 -18 0 -392 31 -433 36 l-53 6 0 109 0 109 38 -1 c20 0 129
-13 242 -27z m1340 -111 l0 -109 -282 -6 c-156 -3 -354 -9 -440 -12 l-158 -6
0 110 0 110 113 6 c145 8 750 23 760 18 4 -2 7 -52 7 -111z m-1335 -146 c94
-8 175 -15 182 -15 8 0 13 -33 15 -106 l3 -106 -205 6 c-113 4 -222 9 -242 12
l-38 6 0 107 c0 59 3 111 7 115 4 4 30 4 58 1 27 -3 127 -12 220 -20z m1333
-112 l-3 -108 -110 -6 c-60 -4 -257 -9 -437 -12 l-328 -6 0 110 0 109 108 1
c59 1 220 5 357 9 138 3 287 7 333 8 l83 2 -3 -107z m-1875 -129 l67 -6 0
-114 0 -114 -300 0 -300 0 0 126 0 126 233 -6 c127 -4 262 -9 300 -12z m715
-33 c1 -1 2 -48 2 -106 l0 -105 -117 0 c-65 0 -169 3 -230 7 l-113 6 0 107 c0
59 2 109 4 111 3 3 440 -16 454 -20z m1160 -103 l-3 -113 -439 -3 -439 -2 6
67 c4 38 7 87 7 110 l0 43 398 3 c218 1 414 3 435 5 l38 2 -3 -112z m-1174
-151 c17 -2 19 -13 23 -104 4 -81 2 -104 -9 -107 -7 -3 -113 -6 -235 -8 l-223
-3 0 111 c0 61 2 113 5 115 4 5 394 1 439 -4z m1176 -107 l0 -110 -440 0 -440
0 0 105 0 105 308 3 c169 1 367 3 440 5 l132 2 0 -110z m-1155 -246 c4 -53 3
-99 -1 -104 -8 -6 -354 -30 -436 -30 l-28 0 0 108 c0 60 3 112 7 115 3 4 106
7 228 7 l223 0 7 -96z m-661 70 c3 -9 6 -60 6 -114 l0 -99 -42 -5 c-24 -3
-140 -10 -258 -16 -118 -6 -232 -13 -252 -15 l-38 -5 0 125 0 125 48 1 c26 1
117 5 202 9 289 12 327 12 334 -6z"></path>
<path d="M4180 1430 c0 -11 7 -20 15 -20 8 0 15 9 15 20 0 11 -7 20 -15 20 -8
0 -15 -9 -15 -20z"></path>
<path d="M4131 1374 c0 -11 3 -14 6 -6 3 7 2 16 -1 19 -3 4 -6 -2 -5 -13z"></path>
<path d="M4043 1363 c9 -2 23 -2 30 0 6 3 -1 5 -18 5 -16 0 -22 -2 -12 -5z"></path>
</g>
</svg>