 <svg version="1.0" xmlns="http://www.w3.org/2000/svg" viewBox="0 0 700.000000 423.000000" preserveAspectRatio="xMidYMid meet" id="mask">

<g transform="translate(0.000000,423.000000) scale(0.100000,-0.100000)">
<path d="M2907 4045 l-179 -183 49 3 c26 1 155 3 286 4 l237 1 0 83 c0 45 -3
126 -7 180 l-6 97 -101 -1 -101 -2 -178 -182z"></path>
<path d="M3340 4050 c0 -136 3 -182 13 -185 7 -3 137 -4 289 -3 l276 3 -176
183 -177 183 -112 -1 -113 0 0 -180z"></path>
<path d="M2020 3167 c-140 -139 -291 -283 -334 -322 l-78 -70 74 -6 c40 -3
331 -7 646 -8 457 -2 572 1 572 11 0 15 -118 256 -136 278 -6 8 -53 95 -104
192 l-92 178 -146 -1 -146 -1 -256 -251z"></path>
<path d="M2765 3194 c65 -126 142 -275 172 -332 l55 -102 345 2 346 3 165 318
c90 175 163 320 161 322 -3 2 -108 6 -234 9 -269 5 -405 -1 -405 -19 0 -31
-63 -33 -84 -3 -16 22 -20 22 -327 26 l-312 4 118 -228z"></path>
<path d="M3979 3188 c-61 -123 -133 -264 -160 -314 -27 -50 -49 -96 -49 -103
0 -13 369 -15 925 -4 l331 6 -201 196 c-110 108 -256 251 -325 318 l-125 122
-142 0 -142 1 -112 -222z"></path>
<path d="M4779 2615 c-3 -3 -734 -8 -1625 -11 -890 -3 -1619 -6 -1621 -7 -1
-2 -5 -238 -9 -526 -8 -583 -14 -526 54 -506 27 8 28 29 11 304 -9 153 -9 185
2 192 8 5 20 7 28 4 11 -4 12 7 7 62 -19 195 -18 210 11 237 20 19 35 24 64
21 21 -2 44 -7 50 -10 5 -4 25 -7 44 -7 43 0 52 -28 26 -80 -10 -21 -14 -35
-10 -32 13 8 11 -3 -10 -44 -10 -20 -22 -55 -26 -77 -5 -22 -10 -47 -11 -55
-5 -22 -22 -228 -29 -347 l-7 -103 31 0 c26 0 31 -4 31 -25 l0 -24 295 0 294
0 62 47 c34 26 77 57 96 70 29 20 33 27 33 67 0 25 -6 54 -12 65 -10 16 -10
24 0 41 10 16 12 46 6 120 -5 73 -3 103 6 114 11 13 99 15 696 15 l684 0 0
-213 0 -213 53 -52 53 -52 142 0 c132 0 146 -2 191 -25 l48 -24 1 -142 c1
-183 -11 -173 201 -168 155 4 360 3 456 -3 l50 -3 3 693 2 692 -169 0 c-93 0
-176 2 -183 5 -8 3 -16 3 -19 0z m-2386 -281 c2 -2 48 -8 102 -14 55 -6 103
-14 108 -19 4 -4 7 -28 5 -52 l-3 -44 -191 -3 c-105 -1 -208 1 -230 6 -39 8
-39 8 -42 59 -4 61 0 63 136 63 l92 0 1 53 1 52 8 -48 c5 -27 10 -51 13 -53z
m2005 3 c133 -8 134 -8 130 -71 l-3 -51 -55 -7 c-72 -8 -315 -9 -362 -2 -38 7
-38 7 -38 55 0 26 5 51 11 54 5 4 54 11 107 16 53 4 98 8 100 9 1 0 3 8 3 18
1 14 2 14 6 1 3 -13 24 -17 101 -22z m-50 -369 c3 -26 1 -28 -32 -28 -31 0
-36 3 -36 23 0 31 9 39 40 35 19 -2 26 -10 28 -30z m-2108 -28 c0 -27 -3 -30
-30 -30 -27 0 -30 3 -30 30 0 27 3 30 30 30 27 0 30 -3 30 -30z m2775 -71 c0
-8 -6 -14 -12 -13 -7 1 -27 2 -45 3 -36 1 -28 17 12 24 35 6 45 3 45 -14z m-4
-62 c-5 -5 -17 -7 -26 -3 -14 5 -15 9 -5 21 10 12 16 13 27 4 9 -8 10 -16 4
-22z"></path>
</g>
</svg>