 <svg version="1.0" xmlns="http://www.w3.org/2000/svg" id="mask" viewBox="0 0 700.000000 423.000000" preserveAspectRatio="xMidYMid meet">

<g transform="translate(0.000000,423.000000) scale(0.100000,-0.100000)">
<path d="M0 2195 c0 -1119 4 -2035 8 -2035 5 0 19 -9 32 -20 12 -11 27 -17 31
-14 5 3 9 -4 9 -14 0 -14 9 -21 31 -24 27 -4 34 0 51 29 11 18 24 33 29 33 15
0 79 73 95 107 12 29 12 50 -1 170 -8 76 -19 197 -24 268 -6 72 -17 184 -26
250 -16 125 -12 210 11 256 15 30 160 170 242 232 l57 44 145 16 c80 9 255 26
390 38 242 21 246 22 305 3 57 -18 60 -21 63 -54 4 -37 -16 -302 -25 -333 -4
-16 0 -18 34 -16 21 2 44 0 50 -4 6 -4 13 0 16 7 7 19 55 32 172 47 84 11 96
11 119 -5 l26 -16 0 1535 0 1535 -920 0 -920 0 0 -2035z"></path>
<path d="M4530 4228 c-1 -2 -3 -385 -5 -853 -3 -467 -7 -1182 -10 -1587 -5
-730 -5 -738 14 -738 20 0 20 8 23 226 2 124 0 228 -4 231 -13 7 -9 70 5 80 6
5 66 18 132 28 149 22 152 23 125 58 -34 42 -70 132 -77 186 l-6 51 38 16 c23
9 98 20 191 27 l154 11 0 143 0 144 68 -5 c37 -3 129 -8 205 -12 l137 -6 0 31
c0 31 -1 31 -51 31 -36 0 -49 4 -47 13 5 13 174 34 186 22 4 -4 7 -28 7 -53 0
-46 1 -47 34 -50 18 -2 38 1 44 7 13 13 47 14 47 2 0 -16 41 -22 260 -36 52
-3 118 -8 145 -10 28 -2 95 -7 150 -11 55 -3 112 -8 127 -9 15 -2 84 -7 154
-11 l127 -7 -7 -308 -7 -308 81 -183 c83 -183 129 -300 157 -393 8 -27 26 -76
39 -107 13 -32 24 -69 24 -83 0 -26 0 -26 -29 -9 -16 9 -36 14 -45 11 -31 -12
-13 -99 35 -175 23 -37 29 -58 30 -106 1 -34 5 -72 9 -86 4 -14 8 842 9 1903
l1 1927 -1235 0 c-679 0 -1235 -1 -1235 -2z m2162 -374 c21 -4 55 -21 75 -39
l38 -33 0 -348 c1 -427 -7 -620 -26 -658 -19 -39 -74 -55 -186 -57 -56 -1 -93
-5 -93 -11 0 -7 -4 -7 -12 -1 -20 16 -63 21 -112 13 -26 -4 -46 -3 -46 2 0 5
-4 7 -8 4 -18 -11 -111 -16 -117 -6 -4 6 -39 10 -78 10 -40 0 -103 2 -142 4
-38 3 -172 7 -297 10 -198 5 -228 4 -228 -9 0 -13 -24 -15 -150 -15 l-150 0
-5 25 c-3 14 -7 36 -10 50 -5 24 -8 24 -106 27 l-100 3 1 484 c0 267 2 486 3
487 1 1 337 18 747 37 693 33 909 38 1002 21z"></path>
<path d="M6240 3764 c-25 -2 -138 -9 -252 -15 -115 -7 -208 -15 -208 -19 0 -3
7 -30 16 -59 8 -29 13 -58 11 -64 -2 -7 2 -28 9 -47 46 -123 67 -286 65 -507
l-1 -151 93 -6 c50 -3 181 -8 290 -11 l197 -5 0 81 0 81 -27 -7 c-38 -10 -184
-8 -195 3 -4 4 -7 116 -6 248 l3 239 113 3 112 3 0 119 0 120 -87 -2 c-49 -1
-108 -3 -133 -4z"></path>
<path d="M5578 3723 c6 -2 18 -2 25 0 6 3 1 5 -13 5 -14 0 -19 -2 -12 -5z"></path>
<path d="M5330 3280 l0 -360 -95 0 c-105 0 -111 4 -80 64 9 16 12 32 7 35 -13
8 -20 36 -28 106 -3 33 -8 63 -11 68 -8 13 -24 -4 -19 -21 6 -19 -56 -68 -72
-58 -14 9 -22 -30 -22 -115 l0 -76 61 -7 c34 -3 130 -6 214 -6 l153 0 11 44
c14 56 14 79 1 71 -6 -4 -9 -14 -8 -22 2 -9 -3 -18 -10 -20 -10 -4 -11 2 -6
24 9 37 14 44 25 38 5 -3 6 1 3 9 -3 9 -10 16 -16 16 -5 0 -6 -4 -3 -10 3 -5
1 -10 -5 -10 -6 0 -9 8 -6 18 2 9 7 42 11 72 7 63 25 131 65 248 28 80 28 82
9 92 -24 13 -24 35 -1 52 29 21 33 44 11 64 -15 14 -22 15 -28 6 -4 -6 -28
-14 -53 -16 -40 -4 -45 -2 -41 13 4 15 -1 18 -21 16 -17 -2 -26 2 -26 11 0 8
-4 14 -10 14 -6 0 -10 -127 -10 -360z"></path>
<path d="M1416 949 c-8 -42 -8 -69 2 -69 4 0 8 23 9 50 2 57 -2 64 -11 19z"></path>
<path d="M5942 918 c-22 -27 -31 -99 -29 -230 1 -75 5 -139 9 -143 6 -6 566
-111 746 -140 43 -7 44 -7 32 16 -7 12 -22 52 -35 88 -14 42 -28 67 -38 69
-12 3 -17 -4 -17 -22 0 -20 -6 -27 -27 -32 -71 -16 -109 -27 -118 -34 -5 -4
-33 -10 -61 -14 -51 -6 -51 -6 -60 26 -9 31 -13 33 -59 38 -48 5 -50 7 -53 37
l-3 31 -54 -5 -53 -6 -13 41 c-11 39 -6 105 17 218 5 27 3 32 -18 37 -12 4
-23 6 -23 6 0 0 -22 7 -50 16 -61 18 -80 19 -93 3z"></path>
<path d="M4672 828 l3 -63 195 -36 c107 -19 212 -39 233 -43 l37 -7 0 53 c0
29 -4 58 -8 64 -5 9 -419 94 -455 94 -4 0 -7 -28 -5 -62z"></path>
<path d="M1644 872 c-5 -4 -20 -24 -33 -44 -32 -54 -56 -57 -94 -16 -29 31
-66 58 -81 58 -3 0 -6 -9 -6 -19 0 -10 -7 -21 -15 -25 -10 -4 -15 -20 -15 -50
0 -32 4 -44 13 -41 8 4 12 -6 13 -30 0 -31 -6 -39 -27 -37 -7 1 -22 -78 -16
-85 2 -2 35 1 73 7 113 16 172 12 279 -20 55 -16 101 -30 103 -30 1 0 2 70 2
155 0 101 -4 155 -10 155 -6 0 -45 -7 -86 -15 -41 -9 -78 -14 -83 -11 -5 3 -6
17 -3 31 5 27 3 29 -14 17z m-169 -52 c3 -5 1 -10 -4 -10 -6 0 -11 5 -11 10 0
6 2 10 4 10 3 0 8 -4 11 -10z m-58 -57 c-3 -10 -5 -4 -5 12 0 17 2 24 5 18 2
-7 2 -21 0 -30z m113 -28 c0 -8 -4 -15 -10 -15 -5 0 -10 7 -10 15 0 8 5 15 10
15 6 0 10 -7 10 -15z"></path>
<path d="M6610 713 c0 -32 5 -65 10 -73 7 -11 10 5 10 52 0 37 -4 70 -10 73
-6 4 -10 -16 -10 -52z"></path>
<path d="M40 105 c0 -9 5 -15 11 -13 6 2 11 8 11 13 0 5 -5 11 -11 13 -6 2
-11 -4 -11 -13z"></path>
</g>
</svg>