 <svg version="1.0" xmlns="http://www.w3.org/2000/svg" viewBox="0 0 700.000000 423.000000" preserveAspectRatio="xMidYMid meet" id="mask">

<g transform="translate(0.000000,423.000000) scale(0.100000,-0.100000)">
<path d="M2226 4168 c-3 -35 -7 -206 -9 -381 -2 -174 -6 -319 -9 -322 -2 -2
-206 13 -454 34 -247 21 -452 37 -456 34 -5 -2 -8 -56 -8 -119 0 -95 3 -114
15 -114 8 0 15 7 15 15 0 20 32 36 51 24 7 -5 22 -9 32 -9 14 0 17 5 12 21 -7
20 -5 21 24 16 26 -6 31 -4 31 14 0 16 3 18 19 10 26 -14 36 -43 13 -40 -27 5
-59 -18 -66 -46 -6 -24 -11 -26 -45 -24 -26 2 -44 -3 -55 -14 -22 -22 -33 -22
-39 1 -3 9 -5 -60 -6 -154 0 -94 -4 -232 -8 -306 l-6 -136 41 -21 c23 -12 42
-25 42 -30 0 -5 9 -11 21 -14 12 -3 18 -10 14 -16 -3 -6 5 -15 19 -21 14 -5
26 -14 26 -19 0 -5 9 -7 20 -4 11 3 20 0 20 -6 0 -6 8 -11 18 -12 13 0 14 -2
2 -6 -8 -3 -23 -13 -33 -22 -17 -14 -20 -14 -31 1 -10 14 -27 17 -84 16 l-72
-1 0 -445 0 -445 151 6 c83 4 155 9 160 13 5 3 9 340 9 816 l0 810 58 -6 c31
-3 642 -49 1357 -102 715 -52 1306 -97 1313 -99 9 -3 12 -114 13 -502 1 -274
5 -613 8 -753 l6 -255 23 -3 c21 -3 23 0 20 35 -3 37 -2 38 35 41 24 2 37 8
37 18 0 8 7 14 15 14 8 0 26 5 40 12 l25 11 0 189 0 188 -36 0 c-35 0 -36 1
-30 32 3 18 8 65 12 103 7 77 18 105 39 105 12 0 13 68 8 468 -3 257 -10 469
-14 473 -5 3 -143 17 -306 33 -164 15 -307 28 -318 29 -18 2 -20 10 -23 74 -3
70 -2 71 28 93 l32 23 -7 211 -7 211 -32 34 c-39 41 -213 167 -324 232 l-83
49 -177 -1 -177 0 112 -29 c168 -44 334 -118 486 -218 l37 -25 0 -170 0 -170
-62 6 c-34 3 -353 38 -710 78 l-648 73 0 192 0 191 78 23 c42 13 102 29 132
36 50 11 39 12 -137 13 l-191 1 -6 -62z"></path>
</g>
</svg>