 <svg version="1.0" xmlns="http://www.w3.org/2000/svg" id="mask" viewBox="0 0 700.000000 423.000000" preserveAspectRatio="xMidYMid meet">

<g transform="translate(0.000000,423.000000) scale(0.100000,-0.100000)">
<path d="M0 2924 l0 -1307 149 5 c124 4 154 8 182 24 33 19 34 23 39 95 4 57
1 82 -12 111 -20 41 -12 54 28 44 21 -6 24 -3 24 23 0 16 6 31 13 33 6 2 63 2
125 0 102 -4 112 -6 112 -23 0 -11 7 -19 16 -19 12 0 15 -14 13 -80 -1 -62 2
-84 14 -98 9 -10 20 -33 23 -50 4 -21 12 -32 24 -32 10 0 31 -3 49 -6 l31 -6
-15 30 c-9 16 -12 37 -9 47 6 14 99 65 119 65 4 0 16 11 27 25 11 14 30 25 44
25 13 0 24 5 24 12 0 9 3 9 12 0 9 -9 16 -8 30 4 16 15 18 15 24 1 3 -9 11
-14 19 -11 21 8 27 -27 8 -42 -17 -12 -16 -13 9 -14 14 0 28 -4 30 -8 2 -5 15
-12 31 -16 l27 -6 0 447 c0 432 10 1104 16 1111 4 6 289 -39 295 -46 3 -4 2
-434 -3 -957 -9 -890 -8 -950 8 -962 16 -12 16 -13 0 -19 -22 -8 -56 -79 -56
-116 0 -25 3 -28 33 -28 44 0 217 19 226 25 4 2 6 18 3 35 -4 29 -5 30 -62 30
-55 0 -58 1 -65 27 -3 15 -10 30 -13 33 -4 3 -4 286 -1 630 4 344 7 775 8 958
l1 332 28 0 c38 -1 776 -115 788 -123 7 -4 9 -262 6 -743 l-5 -737 33 6 c18 4
38 7 45 7 8 0 12 14 11 38 -1 34 2 38 31 47 25 7 33 15 33 32 0 13 5 23 10 23
6 0 10 -12 10 -27 l1 -28 24 30 c25 30 42 81 31 93 -4 3 -30 9 -59 13 -37 5
-58 3 -74 -7 -20 -12 -23 -12 -31 4 -5 9 -7 24 -4 32 4 13 3 13 -11 2 -13 -11
-17 -10 -27 7 -6 12 -7 22 -3 23 4 0 19 2 33 4 14 1 37 6 52 9 15 4 36 4 45
-1 20 -8 63 -12 63 -5 0 2 -7 12 -15 21 -12 13 -13 24 -6 42 7 19 6 29 -5 40
-13 13 -12 17 7 34 21 19 21 19 40 -5 23 -28 42 -18 61 35 6 19 17 34 23 34
21 0 38 -18 32 -35 -4 -9 -11 -14 -16 -10 -5 3 -11 -7 -13 -22 -2 -20 -9 -28
-23 -28 -18 0 -21 -6 -16 -35 0 -5 10 -10 21 -10 14 0 18 -5 13 -17 -6 -16 -5
-16 10 -5 19 16 59 12 65 -7 4 -11 -2 -12 -23 -7 -17 4 -24 3 -20 -4 3 -5 18
-10 33 -10 l27 0 1 -118 c1 -64 6 -128 11 -142 7 -17 9 209 5 701 -3 464 -1
728 5 732 9 6 732 117 760 117 12 0 13 -136 7 -915 l-7 -915 109 6 c60 4 141
15 179 25 39 11 95 25 126 31 l56 11 -1 40 c-1 33 5 44 32 66 31 26 32 31 32
99 0 39 -4 74 -10 77 -5 3 -42 9 -81 12 l-70 6 7 101 c3 56 11 107 16 114 7 7
36 12 78 12 l67 0 6 272 c4 149 7 471 7 715 l0 443 -27 0 c-30 0 -183 -23
-270 -41 -46 -9 -52 -13 -55 -37 -3 -24 -8 -28 -53 -34 -27 -4 -297 -46 -599
-93 l-549 -85 -206 35 c-113 19 -420 68 -681 110 -261 41 -479 77 -485 79 -6
2 -10 131 -10 361 l0 358 -225 63 -225 63 -387 1 -388 0 0 -1306z"></path>
<path d="M6881 3861 l-104 -15 6 -1080 c4 -594 7 -1267 7 -1497 l0 -417 68 -7
c37 -3 84 -8 105 -11 l37 -6 0 1526 c0 839 -3 1525 -7 1525 -5 -1 -55 -9 -112
-18z"></path>
<path d="M6433 3537 l-72 -10 -3 -119 c-2 -66 -2 -121 -1 -122 2 -1 213 21
221 23 1 1 2 55 2 121 l0 120 -37 -1 c-21 -1 -70 -6 -110 -12z"></path>
<path d="M5968 3477 l-78 -9 0 -115 0 -116 83 7 c127 11 117 0 117 132 0 131
15 119 -122 101z"></path>
<path d="M5560 3424 c-8 -1 -36 -6 -62 -9 l-48 -6 0 -110 0 -111 68 7 c121 11
125 13 118 47 -3 17 -6 66 -6 109 l0 79 -27 -1 c-16 -1 -35 -3 -43 -5z"></path>
<path d="M5120 3373 c-85 -9 -80 -1 -80 -118 l0 -105 58 5 c128 13 125 12 118
53 -3 20 -6 67 -6 105 0 75 7 70 -90 60z"></path>
<path d="M4735 3323 c-80 -10 -75 -3 -75 -113 l0 -99 28 4 c15 2 53 7 85 10
l57 6 0 100 0 99 -32 -1 c-18 -1 -46 -4 -63 -6z"></path>
<path d="M4360 3271 l-45 -6 -3 -98 -3 -98 63 6 c94 10 88 3 88 110 l0 95 -27
-2 c-16 0 -48 -4 -73 -7z"></path>
<path d="M6500 2963 c-30 -1 -74 -5 -97 -9 l-43 -5 0 -463 0 -464 64 -7 64 -6
6 -87 c4 -48 9 -111 12 -139 l5 -53 -75 0 -76 0 0 -39 0 -39 73 -7 c39 -4 88
-5 107 -3 l35 3 3 663 c2 527 0 662 -10 660 -7 -1 -38 -3 -68 -5z"></path>
<path d="M5939 2923 l-46 -4 -7 -46 c-3 -25 -6 -306 -6 -623 l0 -577 53 -7
c28 -3 76 -6 105 -6 l53 0 -3 38 c-3 34 -6 37 -35 40 l-33 3 1 62 c1 34 4 93
8 132 5 63 8 70 31 75 l25 6 3 457 2 457 -52 -2 c-29 -1 -74 -3 -99 -5z"></path>
<path d="M5494 2883 l-41 -4 -6 -262 c-9 -327 -9 -507 -1 -574 l7 -53 88 0 89
0 0 450 0 450 -47 -2 c-27 -1 -66 -3 -89 -5z"></path>
<path d="M5063 2853 l-23 -4 0 -440 0 -439 29 0 c20 0 31 6 33 17 2 14 13 17
56 14 l52 -2 0 430 0 431 -62 -1 c-35 -1 -73 -4 -85 -6z"></path>
<path d="M4682 2823 l-22 -4 2 -417 3 -416 60 -13 c33 -7 68 -12 78 -13 16 0
17 27 17 435 l0 435 -57 -1 c-32 -1 -68 -4 -81 -6z"></path>
<path d="M4373 2803 l-63 -4 -2 -386 c-3 -383 -3 -385 18 -393 19 -8 21 -19
27 -116 3 -59 4 -111 1 -116 -3 -4 -16 -8 -30 -8 -21 0 -24 -5 -24 -35 l0 -35
59 0 c66 0 76 7 62 43 -8 21 -6 31 12 54 22 27 22 30 25 515 3 403 1 488 -10
486 -7 -1 -41 -3 -75 -5z"></path>
<path d="M2684 1975 c-11 -27 1 -37 19 -17 16 17 16 20 2 26 -9 3 -18 0 -21
-9z"></path>
<path d="M2731 1938 c4 -44 -1 -57 -23 -60 -20 -3 -22 -8 -20 -38 2 -19 14
-48 25 -65 14 -20 22 -46 23 -77 2 -77 3 -83 13 -73 10 11 31 192 31 265 0 39
-4 52 -19 60 -28 14 -32 13 -30 -12z"></path>
<path d="M1195 1650 c-3 -5 -1 -10 4 -10 6 0 11 5 11 10 0 6 -2 10 -4 10 -3 0
-8 -4 -11 -10z"></path>
<path d="M2725 1524 c-11 -2 -64 -6 -117 -9 l-98 -7 0 -114 0 -114 59 0 c52 0
126 -6 324 -25 l57 -6 0 36 c0 33 -2 35 -35 35 -19 0 -35 5 -35 10 0 6 -8 23
-17 37 -13 20 -17 43 -15 88 l4 62 -39 6 c-38 7 -51 7 -88 1z"></path>
<path d="M2422 1447 c3 -41 0 -56 -14 -71 -10 -11 -18 -25 -18 -32 0 -7 -18
-15 -40 -19 -36 -6 -40 -10 -40 -36 0 -28 2 -29 48 -29 95 0 92 -3 92 126 0
99 -2 114 -16 114 -14 0 -16 -9 -12 -53z"></path>
<path d="M5910 1336 c10 -9 28 -12 55 -8 36 5 38 6 15 13 -14 4 -38 7 -55 8
-25 1 -27 -1 -15 -13z"></path>
<path d="M2060 1302 c-63 -4 -80 -14 -80 -51 0 -27 0 -27 63 -23 34 2 66 8 70
12 5 4 7 20 5 36 -3 28 -4 29 -58 26z"></path>
<path d="M2167 1303 c-4 -3 -7 -19 -7 -35 0 -23 4 -28 25 -28 22 0 25 4 25 35
0 27 -4 35 -18 35 -10 0 -22 -3 -25 -7z"></path>
<path d="M3012 1278 l3 -33 148 -14 c81 -7 150 -12 151 -10 2 2 7 18 10 35 l7
30 -143 12 c-193 16 -180 18 -176 -20z"></path>
<path d="M1886 1274 c-3 -9 -6 -26 -6 -38 0 -19 4 -22 29 -18 28 4 40 23 41
60 0 18 -57 15 -64 -4z"></path>
<path d="M1810 1245 c0 -40 24 -49 34 -12 10 37 7 47 -14 47 -16 0 -20 -7 -20
-35z"></path>
</g>
</svg>