 <svg version="1.0" xmlns="http://www.w3.org/2000/svg" viewBox="0 0 700.000000 423.000000" preserveAspectRatio="xMidYMid meet" id="mask">

<g transform="translate(0.000000,423.000000) scale(0.100000,-0.100000)">
<path d="M738 2731 c-2 -124 -4 -227 -4 -227 1 -1 30 -3 66 -5 l65 -4 6 220
c3 121 3 223 0 226 -3 4 -34 9 -67 11 l-62 4 -4 -225z"></path>
<path d="M1364 2905 c-1 -5 -4 -106 -7 -222 l-4 -213 63 0 64 0 0 68 c0 38 3
137 7 219 l6 151 -63 4 c-36 2 -64 -1 -66 -7z"></path>
<path d="M1926 2670 c-4 -117 -5 -215 -2 -218 3 -3 30 -7 60 -10 l53 -4 8 212
c4 116 5 213 3 215 -1 2 -28 6 -59 10 l-56 7 -7 -212z"></path>
<path d="M2486 2839 c-3 -8 -6 -103 -8 -212 l-3 -197 31 -6 c17 -3 42 -4 55
-2 l24 3 3 208 2 207 -34 0 c-19 0 -41 3 -50 6 -9 3 -18 0 -20 -7z"></path>
<path d="M2830 2345 c0 -9 9 -15 25 -15 l25 0 0 -155 0 -155 -45 0 -45 0 0
-115 c0 -70 4 -115 10 -115 6 0 10 28 10 64 0 36 5 68 10 71 6 4 10 -21 10
-68 0 -60 4 -80 20 -98 10 -13 20 -19 21 -14 5 27 8 112 15 353 l7 262 -32 0
c-21 0 -31 -5 -31 -15z"></path>
<path d="M2965 2320 c17 -4 58 -8 93 -9 l62 -1 0 -150 0 -150 -89 0 -88 0 -7
-37 c-4 -30 -2 -41 14 -53 27 -21 42 -67 30 -90 -5 -10 -10 -30 -10 -44 0 -25
2 -26 69 -26 39 0 73 5 76 10 4 6 10 8 14 5 13 -8 20 107 21 331 l0 211 -52 7
c-29 3 -78 5 -108 5 -46 -1 -50 -3 -25 -9z"></path>
<path d="M5200 1863 c0 -256 2 -292 16 -297 9 -3 139 -6 290 -6 l274 0 0 284
0 283 -87 7 c-49 3 -179 9 -290 12 l-203 7 0 -290z m108 247 c12 0 22 -4 22
-9 0 -5 -22 -9 -50 -9 -27 -1 -50 3 -50 7 0 15 15 22 35 17 11 -3 30 -6 43 -6z
m130 -30 c1 -29 0 -29 -41 -26 -23 2 -45 4 -49 5 -5 1 -8 6 -8 12 0 7 12 10
30 7 17 -3 30 -1 30 4 0 4 -13 8 -30 8 -16 0 -30 5 -30 10 0 6 22 10 48 10 47
0 49 -1 50 -30z m118 19 c3 -6 0 -15 -7 -20 -9 -5 11 -9 54 -9 39 0 67 -4 67
-10 0 -9 -136 -13 -151 -4 -4 2 -4 15 -1 29 4 26 26 34 38 14z m114 -9 c0 -5
-22 -10 -50 -10 -27 0 -50 5 -50 10 0 6 23 10 50 10 28 0 50 -4 50 -10z m50 0
c0 -5 -9 -10 -20 -10 -11 0 -20 5 -20 10 0 6 9 10 20 10 11 0 20 -4 20 -10z
m-390 -20 c0 -5 -22 -10 -50 -10 -27 0 -50 5 -50 10 0 6 23 10 50 10 28 0 50
-4 50 -10z m390 -10 c0 -5 -9 -10 -20 -10 -11 0 -20 5 -20 10 0 6 9 10 20 10
11 0 20 -4 20 -10z"></path>
<path d="M4710 2126 c0 -8 10 -16 23 -18 19 -3 23 -11 28 -58 l6 -55 1 73 2
72 -30 0 c-19 0 -30 -5 -30 -14z"></path>
<path d="M4817 2133 c-13 -12 -7 -21 18 -25 19 -4 25 -1 25 13 0 19 -29 27
-43 12z"></path>
<path d="M5950 1846 l0 -286 240 -2 c132 -1 255 -2 273 -2 l32 -1 0 275 0 275
-135 6 c-74 4 -197 10 -272 14 l-138 6 0 -285z m224 214 c0 -23 -3 -25 -47
-24 -118 1 -147 5 -147 15 0 7 10 9 25 7 14 -3 28 -1 31 3 3 5 -11 9 -30 9
-20 0 -36 5 -36 10 0 6 38 9 102 8 102 -3 102 -3 102 -28z m116 10 c0 -5 -9
-10 -20 -10 -11 0 -20 5 -20 10 0 6 9 10 20 10 11 0 20 -4 20 -10z m150 -21
c0 -28 -1 -29 -42 -25 -24 2 -69 4 -100 5 -81 1 -73 21 10 23 41 1 52 3 30 5
-65 7 -41 23 32 22 l70 -1 0 -29z"></path>
<path d="M6385 2050 c3 -5 8 -10 11 -10 2 0 4 5 4 10 0 6 -5 10 -11 10 -5 0
-7 -4 -4 -10z"></path>
<path d="M690 1940 c0 -103 1 -110 20 -110 11 0 20 -4 20 -10 0 -5 9 -10 19
-10 11 0 23 -4 26 -10 3 -5 14 -10 24 -10 16 0 19 13 24 98 4 53 7 112 7 130
l0 32 -70 0 -70 0 0 -110z"></path>
<path d="M1305 1925 c-4 -64 -5 -118 -2 -121 3 -3 32 -7 66 -8 l61 -3 0 123 0
124 -59 0 -59 0 -7 -115z"></path>
<path d="M1867 2023 c-4 -3 -7 -49 -7 -102 l0 -96 60 0 60 0 0 96 0 97 -31 6
c-41 8 -74 8 -82 -1z"></path>
<path d="M2410 1926 l0 -84 30 -7 c23 -5 32 -14 41 -44 9 -32 8 -43 -6 -72
-10 -19 -25 -40 -34 -47 -13 -10 -9 -12 29 -10 l45 3 3 173 2 172 -55 0 -55 0
0 -84z"></path>
<path d="M2930 1837 c0 -56 3 -74 14 -74 18 0 28 93 13 124 -18 41 -27 25 -27
-50z"></path>
<path d="M4839 1828 c-1 -7 -2 -34 -3 -61 -1 -26 -8 -53 -14 -59 -7 -7 -12
-38 -12 -70 0 -55 1 -58 25 -58 l25 0 0 130 c0 80 -4 130 -10 130 -5 0 -10 -6
-11 -12z"></path>
<path d="M4730 1643 c-26 -5 -40 -19 -40 -40 0 -8 15 -13 40 -13 38 0 40 2 40
30 0 17 -3 29 -7 29 -5 -1 -19 -4 -33 -6z"></path>
</g>
</svg>