 <svg version="1.0" xmlns="http://www.w3.org/2000/svg" viewBox="0 0 700.000000 423.000000" preserveAspectRatio="xMidYMid meet" id="mask">

<g transform="translate(0.000000,423.000000) scale(0.100000,-0.100000)">
<path d="M5745 3799 c-233 -36 -1698 -251 -2315 -340 -344 -49 -638 -92 -653
-95 l-29 -6 2 -141 c1 -78 -2 -450 -6 -826 -7 -648 -6 -684 10 -678 10 4 28 7
41 7 17 0 25 6 27 23 2 17 11 23 36 25 30 3 37 -4 33 -30 0 -5 4 -8 9 -8 10 0
15 62 13 150 l-1 45 10 -47 c6 -27 14 -48 19 -48 5 0 9 -22 9 -50 0 -27 5 -50
10 -50 6 0 10 90 10 251 l0 250 53 -3 52 -3 -3 -249 c-4 -264 -4 -265 43 -266
11 0 27 -5 35 -10 13 -9 12 -12 -4 -25 -29 -22 -9 -18 78 14 l79 28 3 44 c2
24 5 179 8 343 3 165 9 303 14 308 5 5 365 11 802 15 l793 6 -6 -447 c-5 -331
-4 -452 4 -468 8 -14 12 -87 13 -205 0 -101 3 -183 6 -183 3 0 59 -7 124 -15
116 -14 119 -14 148 6 20 15 27 26 23 38 -4 9 -15 39 -25 66 -10 28 -36 92
-57 144 l-38 95 -45 11 c-133 34 -140 69 -17 90 33 5 37 9 37 35 0 19 9 35 25
48 17 14 23 26 19 37 -6 15 -4 16 14 6 11 -6 24 -11 28 -11 3 0 5 120 3 268
l-4 267 71 3 71 3 6 -98 c4 -54 7 -150 7 -214 0 -150 11 -361 19 -353 8 7 8
13 10 74 1 35 5 50 15 50 9 0 16 17 20 48 13 94 17 102 57 128 43 27 48 40 20
49 -28 9 -33 33 -11 55 26 26 55 25 81 -1 14 -14 18 -27 13 -42 -8 -25 -24
-38 -36 -31 -5 3 -16 -4 -26 -16 -9 -11 -28 -26 -42 -33 -20 -10 -26 -24 -35
-77 -6 -36 -8 -98 -5 -139 l5 -74 60 -13 c80 -16 114 -30 122 -50 4 -10 0 -22
-10 -29 -10 -7 -17 -21 -17 -31 0 -30 -9 -39 -151 -158 -112 -94 -134 -116
-131 -136 1 -14 8 -30 15 -37 7 -6 150 -29 318 -50 l307 -38 8 320 c10 422 6
1713 -6 1935 -6 96 -10 182 -9 190 9 189 9 256 4 308 -8 73 5 70 -180 41z
m-2864 -1729 c20 -11 27 -40 9 -40 -15 0 -12 -33 6 -58 8 -12 14 -27 12 -33
-2 -5 -12 11 -23 36 -12 27 -27 45 -36 45 -24 0 -31 27 -13 45 18 18 20 18 45
5z"></path>
<path d="M2761 1651 c-18 -11 -8 -47 23 -84 l23 -29 59 24 c56 22 59 25 62 61
l3 37 -78 0 c-43 0 -84 -4 -92 -9z"></path>
<path d="M2968 1653 c-11 -3 -18 -14 -18 -29 0 -13 1 -24 3 -24 1 0 38 14 82
30 l80 29 -65 -1 c-36 0 -73 -2 -82 -5z"></path>
<path d="M5136 1615 c-12 -31 -7 -43 15 -38 13 4 19 12 17 26 -4 26 -24 33
-32 12z"></path>
<path d="M5106 1602 c-4 -13 -5 -26 -2 -29 10 -11 18 4 14 29 l-4 23 -8 -23z"></path>
<path d="M2740 1577 c0 -14 -3 -33 -7 -43 -5 -15 -2 -16 23 -10 40 10 40 11
10 46 l-26 32 0 -25z"></path>
<path d="M5150 1447 c0 -14 103 -264 113 -273 6 -7 223 168 265 213 12 13 22
32 22 41 0 15 -16 17 -148 17 -81 0 -171 3 -199 7 -39 5 -53 4 -53 -5z"></path>
<path d="M5227 1114 c-13 -13 -7 -24 14 -24 11 0 19 5 17 12 -5 14 -22 21 -31
12z"></path>
</g>
</svg>