 <svg version="1.0" xmlns="http://www.w3.org/2000/svg" viewBox="0 0 700.000000 423.000000" preserveAspectRatio="xMidYMid meet" id="mask">

<g transform="translate(0.000000,423.000000) scale(0.100000,-0.100000)">
<path d="M330 4166 c0 -52 3 -65 18 -70 9 -4 430 -167 936 -363 l918 -356 190
30 190 31 82 -38 82 -37 810 117 c1096 159 2324 339 2351 345 16 4 51 56 132
199 61 106 111 196 111 200 0 3 -53 6 -117 6 l-118 0 -59 -139 c-52 -125 -61
-139 -86 -144 -117 -24 -1873 -311 -2215 -363 -236 -36 -510 -78 -607 -94
l-177 -30 -85 42 -86 42 -202 -33 -203 -32 -295 119 c-478 194 -1383 573
-1474 618 -16 8 -44 14 -63 14 l-33 0 0 -64z"></path>
<path d="M6260 3933 c-118 -164 -243 -336 -277 -382 -59 -78 -76 -122 -54
-135 11 -7 63 58 386 479 130 171 242 316 247 323 8 9 -1 12 -39 12 l-49 0
-214 -297z"></path>
<path d="M0 4052 l0 -47 164 -56 c91 -31 168 -53 173 -50 17 12 34 54 26 62
-4 4 -76 33 -158 63 -83 30 -162 59 -177 65 l-28 11 0 -48z"></path>
<path d="M6905 3786 c-16 -8 -88 -62 -160 -121 -71 -59 -214 -175 -317 -257
l-188 -150 -1 -576 c-1 -318 -5 -930 -8 -1362 l-6 -785 -149 232 c-121 189
-154 233 -175 237 -22 5 -221 30 -511 64 -41 5 -77 8 -79 6 -3 -3 71 -180 85
-202 1 -3 31 -8 309 -53 105 -16 193 -33 197 -37 4 -4 59 -101 124 -217 64
-116 134 -240 155 -277 22 -36 39 -73 39 -80 0 -8 15 -28 33 -46 28 -27 49
-35 149 -57 65 -14 129 -25 143 -25 l25 0 0 230 0 230 25 0 c13 0 71 -9 127
-20 57 -11 104 -20 106 -20 2 0 0 -112 -4 -250 l-7 -250 52 0 51 0 0 728 c0
674 9 1624 26 2650 4 239 3 422 -2 422 -5 -1 -22 -7 -39 -14z m-67 -1766 c-6
-740 -12 -1347 -14 -1349 -4 -4 -203 26 -236 35 -17 5 -18 43 -18 617 0 337 3
899 7 1250 l6 638 131 79 c72 43 132 78 133 77 1 -1 -3 -607 -9 -1347z"></path>
<path d="M1430 3419 c0 -43 -2 -79 -4 -79 -3 0 -15 4 -28 9 -13 4 -36 11 -51
15 -26 6 -28 5 -25 -21 2 -23 10 -29 47 -40 25 -7 48 -16 52 -20 4 -5 4 -357
1 -783 l-7 -774 -45 -9 c-52 -10 -62 -17 -51 -35 7 -12 20 -12 76 0 38 7 70
19 73 26 2 6 -4 12 -14 12 -17 0 -17 1 -1 13 15 11 17 80 19 851 2 661 6 840
16 844 10 3 19 52 9 52 -1 0 -17 4 -35 9 l-32 10 0 -80z"></path>
<path d="M2140 3246 c0 -19 5 -38 10 -41 12 -7 13 -493 3 -1022 -5 -285 -9
-353 -20 -353 -7 0 -13 -7 -13 -16 0 -13 7 -15 38 -9 44 8 51 13 33 24 -10 7
-11 112 -7 552 4 299 9 581 12 626 l6 82 66 6 c37 4 121 13 186 21 l120 14 84
-27 c70 -23 84 -25 92 -13 5 8 7 17 5 20 -2 3 -44 19 -93 34 l-90 29 -164 -21
c-90 -12 -176 -22 -191 -22 -27 0 -27 0 -21 58 6 62 0 76 -33 86 -21 7 -23 4
-23 -28z"></path>
<path d="M2132 1409 c-25 -9 -25 -10 3 -89 10 -28 17 -34 36 -32 12 1 30 9 38
16 9 8 48 30 86 49 77 39 77 41 -32 56 -84 13 -100 13 -131 0z"></path>
<path d="M2068 1345 c-6 -50 -1 -72 19 -80 25 -9 26 0 6 62 l-20 58 -5 -40z"></path>
<path d="M1395 1203 c-27 -8 -51 -16 -52 -17 -2 -2 2 -39 9 -84 12 -88 14 -89
69 -71 50 17 59 34 59 116 0 83 1 82 -85 56z"></path>
<path d="M4916 1074 c-9 -28 -16 -69 -16 -91 0 -41 0 -41 46 -48 44 -6 47 -5
97 42 29 27 69 62 90 77 21 16 35 32 32 35 -4 3 -57 13 -120 21 l-113 16 -16
-52z"></path>
<path d="M5115 1015 c-49 -42 -91 -79 -93 -83 -1 -5 55 -16 125 -26 71 -9 140
-20 156 -23 25 -5 27 -3 27 28 0 47 -58 169 -81 169 -9 0 -23 2 -31 5 -7 2
-53 -29 -103 -70z"></path>
<path d="M5342 906 c2 -16 9 -31 16 -34 17 -5 15 20 -3 44 -15 18 -15 18 -13
-10z"></path>
<path d="M158 523 l-158 -56 0 -150 c0 -115 3 -148 12 -144 101 40 315 131
323 137 16 13 19 205 3 240 -7 17 -15 30 -18 30 -3 -1 -76 -26 -162 -57z"></path>
</g>
</svg>