 <svg version="1.0" xmlns="http://www.w3.org/2000/svg" id="mask" viewBox="0 0 700.000000 423.000000" preserveAspectRatio="xMidYMid meet">

<g transform="translate(0.000000,423.000000) scale(0.100000,-0.100000)">
<path d="M570 4226 c0 -1 78 -54 173 -117 94 -62 174 -115 176 -116 9 -6 -33
-42 -53 -45 -19 -3 -21 -10 -24 -76 -2 -46 2 -79 9 -88 8 -10 9 -17 0 -28 -8
-9 -13 -280 -18 -950 l-6 -936 21 0 c29 0 29 -30 1 -37 -20 -5 -21 -11 -16
-61 3 -30 7 -56 9 -58 2 -2 61 15 132 36 l128 40 299 0 299 0 14 35 c18 42 40
53 65 31 22 -20 31 -20 31 -1 0 25 24 17 38 -12 6 -15 12 -33 12 -40 0 -10 77
-13 395 -13 l395 0 0 -438 0 -439 188 -6 c103 -4 239 -7 303 -7 l117 0 4 1342
c2 739 2 1348 -1 1353 -3 6 -4 42 -2 81 2 65 0 74 -23 99 -14 15 -26 36 -26
47 0 18 20 18 670 12 l670 -7 30 28 30 29 0 173 0 173 -2020 0 c-1111 0 -2020
-2 -2020 -4z m2512 -1832 c2 -42 1 -78 -1 -80 -2 -2 -55 -4 -118 -4 l-113 0 0
80 0 80 114 0 114 0 4 -76z"></path>
</g>
</svg>