 <svg version="1.0" xmlns="http://www.w3.org/2000/svg" id="mask" viewBox="0 0 700.000000 423.000000" preserveAspectRatio="xMidYMid meet">

<g transform="translate(0.000000,423.000000) scale(0.100000,-0.100000)">
<path d="M4620 4070 c0 -88 2 -160 4 -160 2 0 57 62 122 138 64 75 126 147
137 160 l20 22 -141 0 -142 0 0 -160z"></path>
<path d="M6140 3401 l0 -828 -77 -7 c-102 -9 -613 -26 -775 -26 l-128 0 0 459
c0 453 0 459 -20 454 -20 -5 -20 -16 -22 -904 -2 -495 -1 -899 2 -899 3 0 12
13 22 29 11 20 30 34 58 42 37 11 50 10 109 -10 45 -15 85 -21 126 -20 74 3
98 15 83 42 -12 23 2 40 28 35 13 -2 19 -12 19 -29 0 -29 21 -59 41 -59 19 0
18 -26 -1 -34 -40 -15 -10 -34 108 -66 266 -72 1013 -332 1145 -399 21 -10 61
-21 90 -25 l52 -7 0 737 0 737 -137 -7 c-76 -3 -258 -9 -404 -13 l-266 -6 -8
293 c-4 160 -4 528 0 816 l8 524 -27 0 -26 0 0 -829z m-832 -1057 l-3 -119
-35 0 -35 0 -3 122 -3 122 33 3 c18 2 37 1 41 -3 4 -3 6 -59 5 -125z"></path>
<path d="M5207 1679 c-26 -15 -45 -60 -40 -96 5 -33 6 -33 59 -33 l54 0 0 49
c0 28 5 53 11 57 8 4 3 12 -12 20 -29 16 -48 17 -72 3z"></path>
</g>
</svg>