 <svg version="1.0" xmlns="http://www.w3.org/2000/svg" id="mask" viewBox="0 0 700.000000 423.000000" preserveAspectRatio="xMidYMid meet">

<g transform="translate(0.000000,423.000000) scale(0.100000,-0.100000)">
<path d="M0 4217 c0 -13 31 -15 60 -4 8 3 24 8 35 10 11 3 -6 5 -37 6 -41 1
-58 -3 -58 -12z"></path>
<path d="M370 4220 c0 -6 11 -21 24 -33 21 -20 35 -57 42 -115 3 -31 -25 -99
-45 -106 -9 -3 -23 -9 -31 -14 -47 -28 -69 -35 -107 -39 -23 -2 -44 1 -47 6
-3 4 -16 6 -29 4 -14 -3 -29 2 -36 11 -8 9 -19 16 -25 16 -6 0 -35 22 -64 50
l-52 49 0 -134 0 -134 38 -3 c36 -3 37 -4 36 -40 -1 -36 1 -38 40 -49 22 -6
46 -15 53 -21 31 -25 24 -91 -23 -222 -7 -22 -13 -41 -11 -42 1 -1 49 -5 107
-9 l105 -7 -3 77 c-3 44 1 95 8 117 10 36 9 42 -9 62 -12 13 -18 26 -14 29 12
12 100 7 143 -8 23 -8 55 -15 71 -15 51 0 64 -64 30 -148 -11 -26 -22 -66 -25
-88 l-6 -41 81 -7 c44 -4 82 -6 84 -4 2 2 -3 28 -11 58 -18 66 -12 115 16 145
14 15 20 32 18 56 -3 29 0 34 21 37 14 2 49 1 79 -3 47 -6 53 -9 49 -26 -3
-10 -1 -19 4 -19 5 0 18 -9 29 -20 27 -27 26 -75 -6 -167 -14 -41 -24 -76 -22
-78 6 -6 188 -28 193 -23 3 2 -2 45 -10 94 -22 133 -20 149 16 176 25 19 30
29 27 55 l-4 33 61 0 c33 0 69 3 81 6 39 10 51 -17 59 -136 5 -70 4 -115 -3
-123 -9 -11 -42 -111 -42 -127 0 -4 28 -10 63 -13 34 -4 83 -9 110 -13 l47 -7
-21 48 c-24 55 -20 97 12 131 16 17 20 32 17 58 l-4 36 61 0 c80 0 119 -28
119 -86 -1 -71 -12 -124 -33 -160 -12 -20 -21 -37 -19 -39 2 -1 40 -6 86 -11
72 -8 82 -8 76 6 -41 96 -40 140 6 210 24 37 28 51 23 86 -3 23 -1 44 3 47 17
10 89 -23 115 -53 14 -16 33 -30 42 -30 9 0 24 -12 34 -26 26 -40 4 -145 -55
-256 -4 -8 34 -15 120 -22 55 -4 57 -4 47 15 -6 13 -18 19 -32 17 -16 -2 -24
4 -31 25 -12 34 9 75 48 95 30 15 32 31 11 71 -14 29 -14 29 18 35 18 3 48 2
68 -3 19 -4 49 -6 67 -3 27 4 32 1 38 -22 3 -15 1 -40 -6 -56 -10 -24 -10 -33
0 -45 16 -19 6 -56 -25 -93 -14 -17 -25 -34 -25 -40 0 -9 90 -22 152 -22 25 0
27 2 18 19 -16 30 -12 86 10 143 22 59 25 90 10 117 -8 16 -4 19 38 24 26 3
56 0 67 -6 11 -6 33 -11 50 -11 42 -1 53 -37 30 -91 -12 -25 -17 -59 -16 -91
2 -28 -4 -67 -13 -87 l-15 -37 58 0 57 0 -4 34 c-5 44 13 55 23 13 4 -17 8
-36 9 -41 1 -5 7 -11 14 -14 13 -4 13 17 -4 125 -3 24 1 38 16 53 23 23 27 68
5 76 -8 4 -15 10 -15 15 0 10 73 5 91 -7 20 -12 99 -22 99 -12 0 16 40 8 50
-11 17 -32 12 -65 -19 -127 -16 -32 -32 -76 -36 -96 l-6 -38 78 -1 c43 -1 116
-4 163 -7 70 -6 85 -10 88 -24 3 -16 -9 -18 -135 -18 -76 0 -158 -5 -183 -11
-52 -12 -110 -62 -110 -95 0 -31 -19 -78 -28 -70 -4 4 -7 45 -7 91 0 46 -3 86
-5 88 -3 3 -72 10 -155 16 -82 6 -352 27 -598 48 -434 35 -450 36 -482 19 -35
-19 -78 -85 -74 -113 4 -26 -10 -73 -21 -73 -6 0 -10 45 -10 110 0 98 -2 110
-17 110 -45 0 -451 43 -665 70 -130 16 -319 36 -420 45 -101 8 -216 17 -256
21 l-72 6 0 -231 0 -231 34 0 c18 0 60 -3 92 -6 49 -5 60 -10 61 -25 1 -15 -5
-19 -30 -20 l-32 -1 28 -11 c32 -13 36 -37 5 -37 -53 0 -4 -8 89 -15 l103 -7
-20 45 c-11 25 -23 66 -26 91 l-7 46 85 0 c47 0 120 -3 163 -7 l77 -6 -6 -46
c-3 -25 -15 -62 -25 -83 l-18 -37 28 -6 c16 -4 42 -4 58 0 27 6 29 9 20 32
-13 36 7 97 42 122 16 12 29 29 29 38 0 14 17 15 158 9 86 -4 171 -9 188 -12
30 -5 30 -6 24 -52 -4 -26 -11 -55 -15 -64 -5 -13 -3 -18 9 -18 21 0 21 -46 0
-58 -18 -10 37 -19 134 -22 l53 -1 -28 42 c-19 29 -29 37 -31 26 -4 -19 -40
-33 -52 -20 -5 4 -10 26 -12 48 -2 33 1 41 20 50 12 5 22 17 22 26 0 14 18 16
168 11 92 -2 170 -7 174 -11 8 -7 -56 -146 -71 -156 -26 -15 -5 -20 88 -20 87
0 97 2 88 16 -5 9 -7 32 -3 52 l7 37 92 0 c51 0 109 -3 130 -6 36 -6 37 -8 37
-49 0 -25 -5 -45 -12 -48 -7 -3 4 -6 25 -6 24 -1 36 3 32 9 -12 19 16 40 52
40 39 0 39 2 9 73 l-16 37 42 0 c24 0 93 -3 155 -7 l112 -6 -25 -48 c-13 -27
-24 -51 -24 -54 0 -3 16 -5 35 -5 24 0 35 -5 35 -15 0 -8 -8 -15 -17 -15 -10
0 -25 -5 -33 -10 -11 -7 -4 -10 28 -10 l42 0 0 40 c0 34 4 41 25 46 14 3 34 4
45 1 11 -3 21 1 24 9 3 8 12 14 19 14 11 0 13 11 9 47 l-5 46 39 -6 c21 -4 63
-7 92 -7 51 0 52 -1 52 -29 0 -17 -5 -33 -10 -36 -18 -11 -10 -25 15 -25 16 0
25 -6 25 -15 0 -8 9 -15 20 -15 31 0 29 -67 -2 -81 -22 -9 -22 -9 2 -4 14 2
32 5 40 5 12 0 14 11 11 51 -2 40 1 54 13 61 9 5 16 16 16 25 0 14 10 15 68
10 37 -4 96 -7 131 -7 l64 0 -7 -52 c-4 -28 -16 -64 -26 -78 l-19 -27 115 -5
c63 -3 117 -8 120 -11 20 -19 -18 -27 -134 -27 -184 0 -239 -11 -279 -55 -18
-19 -33 -43 -33 -54 0 -26 -10 -51 -21 -51 -5 0 -9 38 -9 84 l0 84 -82 6 c-87
6 -486 15 -847 19 -164 1 -215 -1 -218 -10 -3 -8 -22 -13 -48 -13 -71 0 -114
-47 -130 -142 -12 -73 -25 -38 -25 66 l0 103 -212 7 c-461 15 -900 26 -1050
26 l-158 0 0 -426 0 -427 107 7 c59 4 111 10 115 12 4 3 3 16 -2 30 -23 60 -4
225 30 259 19 18 40 20 258 28 341 12 346 10 347 -175 l0 -110 135 7 c74 4
151 11 170 16 33 8 35 11 37 54 l2 45 -45 0 c-46 0 -114 25 -114 41 0 5 4 9 8
9 5 0 9 17 10 37 1 23 8 43 19 50 20 15 63 17 63 3 0 -16 26 -11 43 8 10 10
17 21 17 23 0 6 -31 9 -79 8 l-34 0 7 47 c3 26 6 60 6 75 0 22 6 30 25 35 14
3 33 3 42 -1 10 -4 55 -7 99 -6 93 1 110 -9 99 -58 -4 -17 -1 -37 6 -49 20
-32 -2 -50 -57 -47 -50 2 -63 -8 -40 -30 9 -9 17 -11 21 -5 8 13 72 13 80 0 7
-12 55 -14 55 -2 0 4 -6 14 -12 21 -18 17 19 44 50 36 18 -4 22 -1 22 19 0 37
18 44 120 45 119 1 154 -7 158 -40 2 -13 10 -28 18 -32 16 -9 19 -37 4 -37 -5
0 -10 -4 -10 -9 0 -5 27 -12 60 -16 33 -4 60 -10 60 -15 0 -8 -99 -20 -169
-20 -56 0 -71 -12 -71 -59 1 -53 38 -91 88 -91 66 0 99 11 135 44 30 27 36 41
50 122 22 121 22 123 -13 135 -28 10 -30 15 -30 59 0 41 4 52 28 70 25 20 36
22 149 18 108 -3 124 -5 145 -25 13 -11 32 -23 43 -25 27 -5 32 -38 6 -45 -14
-3 -21 -15 -23 -36 -2 -24 -11 -36 -33 -47 -30 -15 -30 -15 38 -18 65 -3 67
-4 67 -30 0 -42 -18 -96 -44 -135 -35 -51 -21 -58 94 -47 52 5 107 10 123 10
20 0 27 5 27 19 0 10 -8 21 -19 24 -22 5 -35 68 -22 112 9 32 18 22 23 -27 2
-20 7 -25 17 -19 9 6 15 41 18 117 6 113 19 156 52 174 59 31 114 -6 136 -93
20 -79 20 -89 -7 -85 -20 3 -24 10 -28 62 -6 68 -34 101 -73 87 -48 -18 -56
-78 -35 -262 l11 -101 136 8 c75 5 254 9 399 9 l262 0 0 134 0 133 -39 39
c-41 42 -77 50 -125 27 -31 -13 -76 -99 -76 -143 0 -54 -22 -147 -37 -152 -14
-6 -70 14 -78 28 -3 4 12 48 34 96 22 48 43 101 47 116 10 43 73 103 119 116
110 29 205 -58 205 -187 0 -32 3 -93 6 -135 l7 -77 69 0 c64 0 69 -2 78 -26
16 -40 12 -65 -10 -71 -15 -4 -20 -14 -20 -41 l0 -35 68 7 c37 4 82 9 101 13
l34 6 -4 936 -4 936 60 6 c33 4 115 10 182 14 l123 7 0 219 0 219 -430 0 -430
0 0 -245 c0 -135 -1 -248 -1 -252 -1 -5 8 -12 20 -18 29 -13 32 -28 32 -140
l1 -96 38 -35 c44 -41 60 -93 60 -198 l0 -63 -107 -6 c-60 -3 -138 -3 -174 0
l-65 5 4 87 c5 103 28 164 71 189 35 19 50 64 30 88 -9 11 -9 18 -1 26 7 7 12
36 12 65 0 45 4 55 25 69 l25 16 0 254 0 254 -1430 0 c-990 0 -1430 -3 -1430
-10z m330 -68 c64 -64 62 -201 -4 -254 -26 -22 -84 -23 -114 -2 -36 25 -52 68
-52 139 0 103 29 144 103 145 29 0 45 -7 67 -28z m350 -58 c17 -15 42 -48 55
-75 39 -76 32 -126 -24 -186 -25 -28 -37 -33 -74 -33 -55 0 -89 25 -122 91
-40 79 -28 149 34 202 43 36 89 36 131 1z m806 -109 c48 -37 66 -69 75 -131
10 -73 -18 -126 -85 -161 -27 -14 -105 3 -134 30 -60 55 -79 159 -40 228 40
72 116 86 184 34z m-336 -15 c31 -24 43 -93 21 -131 -9 -16 -21 -29 -27 -29
-6 0 -17 -6 -23 -14 -14 -17 -57 -26 -93 -19 -55 11 -118 88 -118 145 0 35 2
38 28 39 15 0 43 7 62 14 47 18 122 16 150 -5z m630 -60 c29 -29 40 -63 40
-123 0 -70 -28 -117 -70 -117 -62 0 -98 72 -92 181 4 67 78 103 122 59z m245
-54 c62 -62 30 -226 -45 -226 -57 0 -88 101 -56 185 26 68 60 82 101 41z m462
-27 c55 -83 28 -259 -40 -267 -57 -7 -97 59 -97 157 0 96 30 151 81 151 23 0
35 -9 56 -41z m-209 -62 c6 -6 13 -24 17 -39 9 -36 -31 -78 -75 -78 -40 0 -80
39 -80 78 0 24 6 31 33 40 45 14 93 14 105 -1z"></path>
<path d="M4140 4016 c0 -118 3 -217 8 -219 6 -4 2096 141 2270 158 l62 6 0
-1546 c0 -850 3 -1545 8 -1545 4 0 97 -7 207 -15 110 -8 224 -15 253 -15 l52
0 0 1695 0 1695 -1430 0 -1430 0 0 -214z"></path>
<path d="M3206 3674 c-9 -24 -7 -74 3 -74 11 0 21 25 21 55 0 29 -16 41 -24
19z"></path>
<path d="M3255 3680 c-8 -13 3 -68 16 -75 5 -4 9 14 9 39 0 43 -11 59 -25 36z"></path>
<path d="M125 3633 c2 -16 4 -34 4 -40 1 -7 6 -13 11 -13 11 0 13 39 4 64 -10
26 -23 18 -19 -11z"></path>
<path d="M1252 3636 c2 -16 9 -31 16 -34 17 -5 15 20 -3 44 -15 18 -15 18 -13
-10z"></path>
<path d="M542 3590 c0 -14 2 -19 5 -12 2 6 2 18 0 25 -3 6 -5 1 -5 -13z"></path>
<path d="M882 3566 c7 -8 15 -12 17 -11 5 6 -10 25 -20 25 -5 0 -4 -6 3 -14z"></path>
<path d="M1618 3476 c-3 -15 0 -31 8 -37 11 -9 14 -7 14 12 0 38 -16 56 -22
25z"></path>
<path d="M1955 3469 c12 -39 27 -48 23 -15 -2 16 -9 31 -17 34 -10 3 -11 -2
-6 -19z"></path>
<path d="M2576 3443 c-9 -10 -7 -71 3 -77 11 -7 21 17 21 49 0 25 -12 39 -24
28z"></path>
<path d="M2245 3399 c-6 -19 0 -38 9 -28 10 12 16 49 7 49 -5 0 -13 -9 -16
-21z"></path>
<path d="M2923 3368 c-7 -17 -6 -29 5 -45 8 -13 18 -20 23 -17 17 10 7 84 -11
84 -4 0 -11 -10 -17 -22z"></path>
<path d="M1460 3153 c0 -38 0 -38 18 -16 9 12 26 29 37 37 19 15 18 15 -17 16
-37 0 -38 -1 -38 -37z"></path>
<path d="M2800 3043 c1 -35 2 -37 15 -19 8 11 27 28 42 38 l28 18 -42 0 -43 0
0 -37z"></path>
<path d="M1450 2638 l0 -42 33 32 c18 18 39 32 47 32 13 0 13 2 0 10 -8 5 -30
10 -47 10 -32 0 -33 -1 -33 -42z"></path>
<path d="M2800 2614 c0 -36 0 -36 18 -15 9 11 31 27 47 36 l30 15 -47 0 -48 0
0 -36z"></path>
<path d="M2063 2263 c-7 -2 -13 -13 -13 -24 0 -15 7 -19 35 -19 36 0 46 15 23
38 -13 13 -24 14 -45 5z"></path>
<path d="M1405 2109 c-5 -14 -2 -25 6 -30 27 -17 -30 -49 -88 -49 -28 0 -54
-3 -56 -7 -2 -5 1 -21 7 -38 l11 -30 113 -1 c98 -1 112 1 110 15 -2 9 -15 17
-31 19 -23 3 -27 8 -27 33 0 18 5 29 14 29 9 0 13 10 12 29 -2 35 -3 36 -38
45 -21 5 -28 2 -33 -15z"></path>
<path d="M4395 1539 l-820 -138 -145 9 c-80 5 -226 15 -325 21 -99 6 -448 28
-775 49 -327 21 -598 36 -601 34 -4 -2 -9 -259 -13 -571 -3 -313 -9 -652 -12
-756 l-6 -187 1180 0 c650 0 1183 4 1186 8 3 5 73 37 155 72 l150 63 7 59 c4
32 12 63 20 68 7 6 15 41 19 78 4 37 13 103 21 147 17 95 50 323 59 416 5 43
3 69 -4 73 -5 4 -8 12 -6 19 2 7 6 42 9 78 l6 66 -32 9 c-23 7 -33 16 -33 29
-1 11 -4 25 -8 32 -15 24 6 42 61 54 36 7 130 10 264 7 114 -2 208 0 208 5 0
4 -12 12 -26 17 -22 9 -25 14 -19 38 3 15 14 35 23 44 19 20 123 37 219 38 97
0 93 -6 93 136 0 112 -2 124 -17 122 -10 0 -387 -63 -838 -139z"></path>
<path d="M5047 1274 c-14 -14 -7 -24 16 -24 32 0 47 -18 47 -56 0 -36 -12 -49
-55 -58 -30 -7 -30 -7 -25 -59 l5 -52 47 -3 46 -3 7 108 c3 59 9 116 11 126 4
12 0 17 -14 17 -11 0 -32 3 -48 6 -16 3 -32 2 -37 -2z"></path>
<path d="M5216 1229 c-3 -17 -6 -58 -6 -90 0 -52 2 -59 20 -59 19 0 20 7 20
90 0 70 -3 90 -14 90 -7 0 -16 -14 -20 -31z"></path>
<path d="M4606 1027 c-4 -21 -16 -53 -26 -72 -10 -18 -16 -35 -13 -38 3 -3 -3
-54 -12 -114 -10 -59 -18 -119 -20 -133 -1 -14 -13 -113 -25 -221 -13 -107
-21 -203 -17 -213 6 -15 10 -15 47 4 33 17 40 25 40 51 0 16 6 40 14 52 13 21
20 111 31 402 3 66 7 151 10 189 3 38 1 74 -4 80 -5 6 -11 20 -13 31 -3 14 -6
8 -12 -18z"></path>
<path d="M4736 1051 c-11 -20 -30 -90 -31 -116 -1 -16 -5 -140 -9 -275 -4
-135 -9 -255 -12 -268 -5 -25 15 -92 27 -92 4 0 35 12 68 26 l61 27 0 81 c0
44 -5 144 -10 221 -5 77 -12 173 -14 214 -3 41 -10 79 -15 84 -6 6 -11 30 -11
53 0 37 -3 42 -25 46 -14 3 -27 3 -29 -1z"></path>
<path d="M4896 989 c-9 -94 -7 -209 4 -228 5 -9 11 14 16 65 11 103 10 195 -3
218 -8 14 -12 2 -17 -55z"></path>
<path d="M5210 1031 c0 -5 7 -12 16 -15 22 -9 24 -8 24 9 0 8 -9 15 -20 15
-11 0 -20 -4 -20 -9z"></path>
<path d="M5027 974 c-8 -9 -10 -68 -1 -76 3 -4 25 1 50 9 36 12 44 19 44 39 0
18 -5 24 -22 24 -13 0 -32 3 -43 6 -11 3 -24 2 -28 -2z"></path>
<path d="M5196 903 c-4 -37 -9 -91 -11 -119 l-5 -52 35 -4 36 -4 -3 120 c-3
115 -4 121 -25 124 -20 3 -22 -2 -27 -65z"></path>
<path d="M5068 858 c-32 -11 -33 -16 -17 -125 11 -70 20 -92 41 -93 3 0 9 35
12 78 4 42 8 94 10 115 4 40 0 42 -46 25z"></path>
<path d="M5180 666 c0 -23 4 -26 35 -26 28 0 35 4 35 20 0 11 -6 20 -12 20 -7
0 -23 3 -35 6 -20 5 -23 2 -23 -20z"></path>
<path d="M4976 588 c-10 -39 -7 -68 8 -68 22 0 28 16 20 55 -7 40 -19 45 -28
13z"></path>
<path d="M5070 585 c0 -9 5 -15 11 -13 6 2 11 8 11 13 0 5 -5 11 -11 13 -6 2
-11 -4 -11 -13z"></path>
<path d="M5170 545 c0 -25 2 -45 5 -45 3 0 21 7 40 14 29 13 35 20 35 45 0 29
-2 31 -40 31 l-40 0 0 -45z"></path>
<path d="M4973 473 c-7 -2 -13 -18 -13 -35 0 -23 4 -29 16 -24 9 3 20 6 25 6
5 0 9 14 9 30 0 29 -9 35 -37 23z"></path>
</g>
</svg>