 <svg version="1.0" xmlns="http://www.w3.org/2000/svg" id="mask" viewBox="0 0 700.000000 423.000000" preserveAspectRatio="xMidYMid meet">

<g transform="translate(0.000000,423.000000) scale(0.100000,-0.100000)">
<path d="M6380 3948 c-47 -4 -530 -39 -1075 -77 -544 -39 -1027 -74 -1072 -77
l-83 -6 0 -129 c0 -101 3 -131 14 -135 10 -4 16 -34 21 -100 6 -89 19 -124 45
-124 14 0 47 -63 54 -103 l7 -38 87 6 c103 7 1361 45 1481 45 l84 0 -5 -990
c-3 -545 -7 -993 -10 -995 -2 -2 -84 1 -182 8 -98 7 -179 10 -181 7 -14 -23
24 -31 181 -40 93 -5 172 -10 176 -10 4 0 9 -100 10 -222 l3 -223 202 -16
c111 -9 210 -19 219 -23 9 -3 60 -8 113 -11 92 -5 368 -28 479 -41 l52 -5 0
89 0 89 -47 6 c-27 3 -136 11 -243 17 -107 6 -204 13 -216 15 l-21 5 5 1535
c3 891 1 1539 -4 1544 -5 4 -47 4 -94 -1z m-92 -424 l2 -192 -22 -5 c-13 -3
-66 -7 -118 -8 l-95 -2 0 194 0 194 80 6 c44 3 96 5 115 5 l35 -1 3 -191z
m-390 -14 c1 -101 -2 -188 -7 -193 -5 -5 -54 -11 -110 -14 l-101 -6 -2 167
c-1 91 -2 178 -2 194 l-1 27 100 5 c55 3 105 5 110 5 6 -1 11 -72 13 -185z
m-378 -29 l0 -189 -97 -4 c-54 -3 -101 -3 -105 -1 -5 2 -8 87 -8 188 l0 184
33 4 c17 2 65 5 105 5 l72 2 0 -189z m-360 -15 l0 -183 -37 -7 c-21 -3 -66 -6
-100 -6 l-63 0 0 184 0 185 48 4 c26 2 71 4 100 5 l52 2 0 -184z m-350 -15 l0
-178 -31 -7 c-17 -3 -60 -6 -95 -6 l-64 0 0 179 0 180 53 4 c28 2 71 4 95 5
l42 2 0 -179z m-342 -18 l-3 -178 -87 -3 -88 -3 0 175 0 175 38 4 c20 2 61 4
90 5 l52 2 -2 -177z m1816 -465 c3 -105 2 -196 -2 -200 -5 -5 -56 -7 -113 -6
l-104 3 -3 198 -2 197 108 0 109 0 7 -192z m-2 -378 c2 -5 2 -93 0 -195 l-3
-185 -109 0 -110 0 0 195 0 195 109 0 c63 0 111 -4 113 -10z m-1 -740 c-2
-107 -5 -197 -6 -199 -2 -1 -51 0 -109 4 l-106 7 0 195 0 194 113 -3 112 -3
-4 -195z m-65 -360 l64 0 0 -310 0 -311 -47 5 c-27 3 -78 8 -116 12 l-68 6 3
141 3 141 88 -3 c72 -2 87 0 87 12 0 12 -17 17 -67 22 -38 3 -77 7 -88 8 -19
2 -20 10 -23 131 -1 72 0 136 3 144 4 11 16 13 52 8 25 -3 74 -6 109 -6z"></path>
<path d="M3920 3776 l-155 -11 -3 -925 c-1 -509 0 -930 2 -936 3 -9 17 -9 50
-1 31 7 64 7 101 0 l55 -10 0 104 0 103 50 0 c38 0 50 4 50 15 0 8 8 15 19 15
18 0 18 2 -3 55 -16 41 -26 55 -41 55 -11 0 -30 3 -42 6 -23 6 -23 8 -23 180
l0 174 85 0 85 0 1 -107 c0 -70 3 -101 9 -88 6 15 9 6 10 -35 1 -30 4 -47 7
-37 5 20 19 22 26 5 3 -8 6 -6 6 5 1 9 6 17 11 17 6 0 10 7 10 15 0 8 7 15 15
15 13 0 15 44 15 335 l0 335 -55 0 -55 0 0 -160 0 -160 -90 0 -90 0 0 168 c0
92 4 172 9 178 5 5 11 39 14 77 4 53 2 67 -9 67 -11 0 -14 33 -14 175 0 199
-9 182 100 187 l55 3 3 98 3 97 -28 -2 c-15 0 -98 -6 -183 -12z"></path>
<path d="M4153 3465 c0 -22 2 -30 4 -17 2 12 2 30 0 40 -3 9 -5 -1 -4 -23z"></path>
<path d="M4086 2225 c4 -8 8 -15 10 -15 2 0 4 7 4 15 0 8 -4 15 -10 15 -5 0
-7 -7 -4 -15z"></path>
<path d="M4141 2224 c0 -11 3 -14 6 -6 3 7 2 16 -1 19 -3 4 -6 -2 -5 -13z"></path>
<path d="M5260 1250 c0 -5 11 -10 25 -10 14 0 25 5 25 10 0 6 -11 10 -25 10
-14 0 -25 -4 -25 -10z"></path>
<path d="M5404 1248 c-10 -16 8 -28 42 -28 47 0 46 26 -2 32 -19 2 -37 0 -40
-4z"></path>
<path d="M1500 605 c-102 -24 -211 -49 -242 -56 -31 -7 -55 -16 -52 -20 2 -4
-5 -5 -16 -2 -11 3 -20 1 -20 -5 0 -13 -135 -46 -161 -39 -19 5 -222 -35 -519
-103 -74 -17 -167 -38 -207 -47 -40 -9 -70 -19 -68 -23 7 -11 -144 -64 -182
-64 l-33 -1 0 -66 0 -67 78 19 c318 77 1235 296 1402 335 113 26 211 53 219
60 10 9 12 26 7 68 -4 31 -10 56 -14 55 -4 -1 -90 -21 -192 -44z"></path>
<path d="M4972 404 c-17 -12 -22 -25 -22 -60 0 -24 2 -44 5 -44 3 0 21 7 40
14 36 16 39 23 29 75 -7 35 -19 38 -52 15z"></path>
<path d="M4768 318 c-54 -23 -62 -38 -19 -38 16 0 43 -3 60 -6 30 -6 31 -6 31
30 0 42 -6 43 -72 14z"></path>
<path d="M4225 79 c-77 -33 -144 -65 -150 -71 -11 -11 246 -5 275 6 11 5 15
22 15 66 1 33 1 60 0 60 0 -1 -63 -28 -140 -61z"></path>
<path d="M4474 98 c-10 -16 4 -22 28 -11 l22 10 -22 5 c-12 4 -25 2 -28 -4z"></path>
</g>
</svg>