 <svg version="1.0" xmlns="http://www.w3.org/2000/svg" viewBox="0 0 700.000000 423.000000" preserveAspectRatio="xMidYMid meet" id="mask">

<g transform="translate(0.000000,423.000000) scale(0.100000,-0.100000)">
<path d="M0 3185 c0 -17 5 -25 18 -25 9 0 130 -7 267 -15 268 -15 530 -29 905
-45 381 -17 400 -19 400 -41 0 -13 -7 -19 -21 -19 -11 0 -17 -4 -14 -10 3 -6
-5 -10 -19 -10 -14 0 -28 -4 -31 -10 -4 -6 7 -10 24 -10 38 0 41 -20 4 -21
-26 -1 -26 -1 7 -12 l35 -11 -35 -6 c-30 -6 -31 -8 -8 -9 38 -2 46 -21 9 -21
-38 0 -41 -17 -3 -23 l27 -4 -27 -2 c-39 -2 -35 -19 5 -24 l32 -4 -32 -1 c-18
-1 -33 -6 -33 -11 0 -6 15 -12 33 -14 l32 -4 -32 -1 c-38 -2 -45 -22 -8 -22
14 0 25 -5 25 -10 0 -6 -11 -8 -25 -4 -15 4 -25 2 -25 -5 0 -6 11 -11 24 -11
38 0 42 -20 4 -21 -27 -1 -29 -3 -8 -6 42 -8 47 -23 10 -24 -28 -1 -30 -3 -10
-6 41 -8 48 -23 10 -23 -38 0 -31 -15 10 -23 20 -3 18 -5 -10 -6 -37 -1 -32
-16 10 -24 21 -4 20 -4 -7 -6 -43 -1 -43 -19 0 -24 l32 -4 -32 -1 c-18 -1 -33
-6 -33 -11 0 -6 15 -12 33 -14 l32 -4 -32 -1 c-18 -1 -33 -6 -33 -12 0 -5 15
-11 33 -11 27 -2 28 -2 7 -6 -40 -7 -48 -23 -12 -23 42 0 41 -18 0 -23 l-33
-4 33 -1 c17 -1 32 -6 32 -12 0 -5 -15 -11 -32 -11 -28 -2 -29 -2 -8 -6 42 -8
47 -23 10 -24 -28 -1 -30 -3 -10 -6 40 -7 48 -23 11 -23 -18 0 -30 -4 -27 -9
3 -5 15 -7 25 -4 10 3 22 0 25 -6 5 -7 -4 -11 -23 -11 -41 0 -40 -18 2 -23
l32 -4 -32 -1 c-18 -1 -33 -7 -33 -13 0 -6 9 -9 19 -6 10 2 25 1 32 -4 10 -6
4 -9 -18 -9 -46 0 -41 -20 5 -21 33 -2 34 -2 7 -6 -44 -7 -56 -23 -16 -23 39
0 33 -19 -7 -21 -23 -1 -22 -3 8 -9 l35 -6 -35 -11 -35 -11 33 -1 c42 -1 42
-19 0 -24 l-33 -4 33 -1 c41 -2 42 -22 1 -22 -19 0 -28 -4 -23 -11 3 -6 15 -9
25 -6 10 3 22 1 25 -4 3 -5 -9 -9 -26 -9 -20 0 -29 -4 -24 -11 3 -6 17 -8 29
-5 13 3 27 2 30 -4 4 -6 -8 -10 -29 -10 -48 0 -46 -20 2 -21 33 -2 34 -2 7 -6
-49 -7 -54 -23 -6 -23 38 0 42 -2 36 -20 -5 -16 -2 -20 19 -20 l26 0 0 498 c0
273 -3 520 -6 548 l-7 52 -121 6 c-780 42 -1401 76 -1443 81 -51 5 -53 4 -53
-20z"></path>
<path d="M2533 2852 c-6 -4 -13 -23 -15 -42 -2 -28 -8 -36 -27 -38 l-24 -4 7
-351 c4 -194 10 -354 12 -357 3 -2 9 1 13 9 7 11 12 11 30 0 11 -8 21 -17 21
-21 0 -4 13 -21 28 -38 24 -26 33 -29 63 -24 19 4 43 14 54 23 13 10 15 10 8
1 -18 -20 -16 -30 7 -30 20 0 20 7 20 440 l0 440 -92 0 c-51 0 -98 -4 -105 -8z"></path>
<path d="M2485 2827 c-4 -10 -5 -21 -1 -24 10 -10 18 4 13 24 -4 17 -4 17 -12
0z"></path>
<path d="M1310 2060 c-32 -7 -31 -7 18 -9 33 -1 51 3 47 9 -7 11 -13 11 -65 0z"></path>
<path d="M1400 2062 c0 -4 18 -6 40 -4 22 2 40 6 40 8 0 2 -18 4 -40 4 -22 0
-40 -3 -40 -8z"></path>
<path d="M1150 2050 c0 -5 25 -10 55 -10 30 0 55 5 55 10 0 6 -25 10 -55 10
-30 0 -55 -4 -55 -10z"></path>
<path d="M945 2040 c-7 -12 28 -12 100 0 l50 7 -72 2 c-39 0 -75 -3 -78 -9z"></path>
<path d="M703 2032 c-35 -2 -63 -7 -63 -11 0 -8 121 -3 129 5 8 8 -5 9 -66 6z"></path>
<path d="M800 2030 c-19 -12 24 -12 90 -1 l45 8 -60 2 c-33 0 -67 -4 -75 -9z"></path>
<path d="M1518 2033 c7 -3 16 -2 19 1 4 3 -2 6 -13 5 -11 0 -14 -3 -6 -6z"></path>
<path d="M538 2023 c-40 -2 -68 -8 -68 -15 0 -6 12 -8 31 -4 17 3 53 6 80 6
27 0 49 5 49 10 0 6 -6 9 -12 8 -7 -1 -43 -3 -80 -5z"></path>
<path d="M400 2010 l-45 -7 53 -1 c33 -1 51 2 47 8 -3 6 -7 9 -8 8 -1 0 -22
-4 -47 -8z"></path>
<path d="M1053 2007 l-143 -9 0 -25 0 -25 77 7 c54 5 81 12 90 24 11 14 13 14
25 0 16 -19 138 -15 138 5 0 15 -21 36 -34 34 -6 0 -75 -5 -153 -11z"></path>
<path d="M293 1993 c9 -2 25 -2 35 0 9 3 1 5 -18 5 -19 0 -27 -2 -17 -5z"></path>
<path d="M10 1980 c-13 -9 -13 -10 0 -9 8 1 26 5 40 9 l25 8 -25 1 c-14 0 -32
-4 -40 -9z"></path>
<path d="M138 1983 c12 -2 32 -2 45 0 12 2 2 4 -23 4 -25 0 -35 -2 -22 -4z"></path>
<path d="M778 1983 c12 -2 32 -2 45 0 12 2 2 4 -23 4 -25 0 -35 -2 -22 -4z"></path>
<path d="M305 1960 c-137 -10 -262 -19 -277 -19 -18 -1 -28 -7 -28 -16 0 -8 6
-12 12 -10 7 2 51 6 98 9 47 3 97 8 112 12 20 5 29 2 34 -10 7 -19 74 -22 106
-5 11 6 24 7 29 2 4 -4 48 -6 96 -3 84 5 88 6 85 27 -3 19 2 22 45 26 l48 3
-55 1 c-30 0 -167 -8 -305 -17z"></path>
<path d="M2716 1841 c-4 -7 -5 -15 -2 -18 9 -9 19 4 14 18 -4 11 -6 11 -12 0z"></path>
<path d="M6609 778 c-1 -7 0 -17 2 -23 1 -5 5 -35 8 -65 l6 -54 63 -13 c34 -7
119 -23 187 -36 l125 -24 0 78 0 77 -47 11 c-27 5 -104 19 -173 30 -69 12
-135 24 -147 26 -14 3 -23 1 -24 -7z"></path>
</g>
</svg>