 <svg version="1.0" xmlns="http://www.w3.org/2000/svg" viewBox="0 0 700.000000 467.000000" preserveAspectRatio="xMidYMid meet"  id="mask">
<g transform="translate(0.000000,467.000000) scale(0.100000,-0.100000)">
<path d="M2589 2263 c-105 -11 -287 -40 -434 -69 -158 -31 -511 -105 -570
-121 -41 -10 -87 -14 -146 -10 -69 3 -90 1 -107 -12 -30 -24 -70 -112 -87
-192 -8 -38 -20 -80 -26 -91 -6 -11 -9 -37 -6 -57 9 -67 75 -300 102 -359 l26
-59 77 -21 c77 -21 95 -21 74 0 -17 17 -15 160 2 225 31 118 116 228 209 271
149 70 285 67 428 -9 71 -38 98 -67 142 -149 62 -116 84 -243 62 -368 l-7 -42
384 0 c210 0 471 -4 578 -10 373 -19 546 -30 680 -40 74 -5 171 -12 215 -15
44 -2 120 -8 168 -11 l88 -7 -7 105 c-9 134 10 218 69 314 96 155 284 213 484
149 109 -34 185 -97 233 -190 39 -75 71 -104 44 -38 -9 21 -20 43 -26 50 -10
13 6 28 21 18 5 -3 19 -31 31 -62 12 -31 31 -67 44 -80 12 -12 31 -41 41 -63
10 -22 23 -39 28 -37 5 1 20 28 32 60 41 99 79 137 111 108 5 -5 34 -16 65
-25 31 -9 67 -24 79 -34 19 -16 21 -23 15 -67 -13 -84 -66 -115 -197 -115 -51
0 -68 -3 -68 -14 0 -19 46 -26 179 -26 l116 0 23 98 c28 117 28 116 0 143
l-23 21 50 -4 c44 -3 50 -1 53 17 3 26 -50 90 -96 116 -21 11 -59 36 -87 55
-55 39 -237 129 -355 177 -133 53 -177 63 -465 108 -44 7 -163 13 -265 14
-122 1 -192 5 -207 13 -35 19 -53 15 -53 -14 l0 -25 -331 3 -331 3 -27 35
c-72 95 -71 95 -165 99 -85 3 -86 3 -96 -24 -7 -18 -7 -39 -1 -61 9 -33 8 -34
-17 -34 -24 0 -181 22 -737 105 -93 13 -185 27 -202 30 -59 10 -35 -10 30 -25
l62 -15 -41 -3 c-23 -2 -125 6 -227 17 -102 12 -189 21 -194 22 -4 0 1 4 12 9
11 5 59 9 108 9 48 1 87 3 87 5 0 2 -13 18 -30 36 -16 18 -30 36 -30 40 0 21
336 69 565 81 127 7 226 6 335 -2 220 -17 289 -15 268 7 -3 3 -48 14 -99 24
-117 23 -501 31 -660 13z m2671 -515 c178 -67 350 -161 329 -182 -15 -15 -196
52 -334 123 -82 43 -166 83 -185 90 -31 12 -33 14 -15 21 27 12 48 7 205 -52z
m-710 9 c0 -7 -15 -21 -32 -32 -32 -19 -232 -177 -355 -282 -70 -59 -99 -70
-152 -57 -46 12 -52 40 -15 83 28 34 243 205 334 266 49 33 56 35 136 35 62 0
84 -3 84 -13z m-3015 -104 c-43 -65 -56 -94 -73 -161 -20 -78 -32 -100 -32
-60 0 68 81 248 111 248 7 0 5 -10 -6 -27z m996 -213 c25 -37 39 -48 52 -44
12 4 33 -10 68 -45 28 -28 55 -51 60 -51 5 0 9 -4 9 -10 0 -16 -84 -11 -109 6
-25 18 -141 170 -141 185 0 24 30 4 61 -41z"></path>
</g>
</svg>