 <svg version="1.0" xmlns="http://www.w3.org/2000/svg" viewBox="0 0 700.000000 423.000000" preserveAspectRatio="xMidYMid meet" id="mask">
<g transform="translate(0.000000,423.000000) scale(0.100000,-0.100000)">
<path d="M0 4160 c0 -60 3 -70 18 -70 9 0 310 -66 667 -146 931 -207 1815
-404 2067 -458 213 -47 218 -47 291 -35 l74 12 311 -72 310 -73 1304 311 c717
171 1449 346 1628 389 l325 78 3 67 3 67 -800 0 -800 0 -842 -256 c-462 -141
-851 -254 -862 -251 -12 2 -393 116 -847 253 l-825 249 -1012 3 -1013 2 0 -70z"></path>
</g>
</svg>