<svg version="1.0" xmlns="http://www.w3.org/2000/svg" viewBox="0 0 700.000000 423.000000" preserveAspectRatio="xMidYMid meet" id="mask">
<g transform="translate(0.000000,423.000000) scale(0.100000,-0.100000)">
<path d="M2309 4226 c-2 -3 -164 -39 -359 -81 -737 -159 -862 -186 -1130 -244
-151 -33 -398 -86 -547 -118 l-273 -58 0 -922 c0 -872 1 -923 18 -923 9 0 123
12 253 26 130 15 248 24 262 20 21 -5 26 -13 32 -61 4 -32 11 -55 18 -55 7 0
33 8 59 17 26 9 50 14 53 11 4 -3 12 -43 20 -89 7 -46 16 -96 20 -111 l7 -28
187 -2 186 -3 3 -68 c2 -42 8 -69 15 -72 7 -2 58 -5 115 -7 l102 -4 0 836 c0
698 7 1174 22 1480 l3 55 -33 1 c-38 0 -62 18 -45 35 8 8 17 8 31 0 28 -15 52
-14 47 2 -4 8 7 11 37 10 59 -3 108 -14 108 -24 0 -5 13 -6 30 -3 17 4 36 2
43 -5 8 -6 17 -8 20 -5 3 3 12 2 19 -2 7 -5 25 -7 40 -5 14 1 29 -3 33 -9 3
-5 11 -8 16 -4 6 3 22 1 37 -5 15 -5 43 -12 62 -15 61 -8 83 -15 91 -28 7 -10
11 -10 21 0 10 10 16 8 30 -10 15 -21 72 -33 620 -134 523 -96 604 -109 614
-96 8 11 19 13 40 8 16 -4 43 -9 59 -11 149 -21 235 -43 235 -62 0 -7 11 -13
25 -13 16 0 25 -6 25 -15 0 -11 -7 -14 -22 -10 l-23 6 -4 -768 c-1 -422 0
-839 4 -925 9 -186 10 -186 102 -109 46 39 78 55 153 79 52 17 115 38 140 46
25 9 106 36 180 60 l135 45 0 557 0 557 -425 320 c-234 176 -609 459 -835 628
l-410 309 -131 0 c-72 0 -133 -2 -135 -4z m-2057 -1003 c2 -22 9 -29 29 -31
14 -2 31 4 39 12 15 19 36 21 46 4 4 -7 3 -8 -4 -4 -22 13 -12 -21 10 -36 16
-11 19 -20 14 -34 -7 -17 -9 -15 -22 15 -13 32 -16 33 -51 26 -21 -4 -41 -9
-45 -11 -15 -9 17 -71 61 -119 25 -27 34 -39 19 -26 -14 13 -31 20 -36 17 -5
-3 -12 3 -15 14 -7 29 -24 25 -42 -10 -28 -55 -8 -139 34 -141 9 0 11 -3 4 -5
-8 -4 -9 -14 -3 -35 5 -16 5 -29 0 -29 -5 0 -11 -8 -13 -17 -2 -10 -3 0 -1 22
3 31 -2 47 -21 70 -20 23 -27 27 -34 16 -5 -7 -6 -21 -4 -31 3 -10 -3 -31 -12
-46 -9 -16 -13 -20 -9 -9 3 11 8 49 10 85 2 36 10 85 19 109 21 59 19 81 -10
147 -20 45 -23 59 -13 66 26 16 47 8 50 -19z m188 -47 c0 -8 6 -17 13 -19 7
-3 5 -6 -5 -6 -10 -1 -22 8 -28 19 -9 16 -8 20 5 20 8 0 15 -6 15 -14z m665
-17 c4 -5 0 -18 -8 -27 -13 -14 -13 -22 -3 -47 10 -24 10 -39 -1 -75 -8 -27
-12 -62 -8 -87 5 -33 3 -42 -7 -38 -9 4 -12 20 -10 50 3 30 0 45 -8 45 -7 0
-5 6 4 16 22 22 21 48 -1 40 -17 -7 -17 -6 -1 10 13 13 14 21 6 40 -14 29 -15
29 -57 3 -18 -11 -36 -18 -39 -15 -2 3 3 8 12 12 9 3 13 10 10 15 -3 5 2 9 10
9 9 0 30 13 48 30 36 32 44 35 53 19z m-215 -47 c-7 -3 -19 3 -28 13 -16 15
-15 16 12 4 15 -7 23 -15 16 -17z m75 8 c3 -5 1 -10 -4 -10 -6 0 -11 5 -11 10
0 6 2 10 4 10 3 0 8 -4 11 -10z m-270 -50 c83 -5 167 -13 188 -16 36 -6 37 -8
37 -48 3 -206 0 -519 -4 -523 -8 -9 -406 -8 -406 0 0 5 -24 7 -52 5 l-53 -3
-3 295 c-1 162 0 300 2 306 3 7 26 8 73 3 37 -5 136 -13 218 -19z m142 24 c-3
-3 -12 -4 -19 -1 -8 3 -5 6 6 6 11 1 17 -2 13 -5z m93 -14 c0 -5 -4 -10 -10
-10 -5 0 -10 5 -10 10 0 6 5 10 10 10 6 0 10 -4 10 -10z m-560 -120 c0 -5 -5
-10 -11 -10 -5 0 -7 5 -4 10 3 6 8 10 11 10 2 0 4 -4 4 -10z m630 -14 c0 -3
-4 -8 -10 -11 -5 -3 -10 -1 -10 4 0 6 5 11 10 11 6 0 10 -2 10 -4z m109 -116
c0 -10 -3 -8 -9 5 -12 27 -12 43 0 25 5 -8 9 -22 9 -30z m-78 -80 c5 0 9 -7 9
-15 0 -8 8 -23 18 -33 15 -15 19 -35 23 -117 1 -11 -2 -58 -5 -104 -4 -68 -2
-90 11 -112 22 -37 12 -45 -31 -25 -26 12 -49 15 -85 10 -69 -9 -101 0 -94 27
4 15 0 22 -16 26 -11 3 -18 10 -15 15 4 5 23 -6 43 -26 34 -33 38 -35 76 -26
22 5 48 7 58 4 27 -8 21 31 -7 44 -18 8 -22 16 -18 37 l5 26 11 -22 c16 -33
33 -34 41 -2 5 22 2 31 -15 45 -12 10 -19 18 -15 18 4 0 2 6 -4 13 -6 8 -8 17
-4 20 11 12 21 8 26 -10 3 -14 6 -12 17 10 11 22 11 35 2 61 -7 18 -12 41 -12
52 0 10 -13 45 -29 76 -16 31 -26 60 -22 63 3 4 10 -7 15 -24 5 -17 13 -31 17
-31z m-745 -25 c4 -16 0 -34 -10 -50 -29 -44 5 -78 50 -49 13 9 24 19 24 23 0
4 7 16 15 27 13 18 14 17 7 -8 -4 -14 -19 -36 -34 -48 -16 -12 -28 -27 -28
-34 0 -7 -12 -23 -26 -37 -14 -13 -35 -41 -45 -62 -26 -50 -13 -77 36 -77 50
0 62 27 35 80 -11 22 -16 40 -10 40 5 0 10 -5 10 -10 0 -6 12 -3 27 7 l26 18
-17 -26 c-21 -33 -12 -59 23 -60 25 0 25 0 4 -9 -23 -9 -30 -25 -15 -33 17
-10 134 12 153 29 10 9 19 12 19 6 0 -6 8 -13 18 -15 9 -3 4 -5 -13 -6 -36 -2
-60 -15 -51 -29 4 -6 -8 -8 -34 -5 -28 4 -40 2 -40 -7 0 -9 -3 -10 -14 -1 -19
16 -104 2 -152 -25 -22 -13 -46 -24 -52 -24 -21 0 -13 27 9 33 17 5 20 10 13
24 -5 10 -9 41 -9 70 0 28 -3 55 -7 59 -5 4 -8 14 -8 22 0 9 7 6 20 -9 l20
-24 25 28 c28 32 32 59 10 77 -8 7 -15 20 -15 30 0 10 7 23 15 30 20 17 19 40
-2 56 -17 13 -17 13 -1 14 11 0 20 -10 24 -25z m-76 -45 c0 -5 -5 -10 -11 -10
-5 0 -7 5 -4 10 3 6 8 10 11 10 2 0 4 -4 4 -10z m760 -10 c0 -5 -4 -10 -10
-10 -5 0 -10 5 -10 10 0 6 5 10 10 10 6 0 10 -4 10 -10z m-323 -233 c-9 -19
-16 -22 -41 -18 -25 4 -27 6 -9 9 12 2 27 10 33 18 19 22 29 17 17 -9z m93
-17 c0 -5 -4 -10 -10 -10 -5 0 -10 5 -10 10 0 6 5 10 10 10 6 0 10 -4 10 -10z
m175 0 c3 -5 1 -10 -4 -10 -6 0 -11 5 -11 10 0 6 2 10 4 10 3 0 8 -4 11 -10z
m-355 -30 c0 -5 -5 -10 -11 -10 -5 0 -7 5 -4 10 3 6 8 10 11 10 2 0 4 -4 4
-10z m250 -24 c0 -3 -4 -8 -10 -11 -5 -3 -10 -1 -10 4 0 6 5 11 10 11 6 0 10
-2 10 -4z"></path>
<path d="M420 2785 c0 -205 3 -284 11 -279 6 3 94 6 195 5 l184 -2 0 100 0
101 40 0 40 0 0 -104 c0 -59 4 -108 10 -111 7 -4 10 86 10 262 l0 269 -231 18
c-127 9 -237 20 -245 23 -12 4 -14 -39 -14 -282z"></path>
<path d="M1963 3669 c4 -29 10 -56 14 -60 8 -7 1152 -199 1185 -199 19 0 43
69 30 82 -4 4 -271 55 -592 113 -322 58 -598 108 -614 111 l-29 6 6 -53z"></path>
<path d="M2600 1789 c-300 -21 -557 -38 -572 -38 l-28 -1 0 -145 0 -145 63 0
c179 -2 448 -18 461 -29 10 -9 87 -3 322 24 169 20 309 37 310 38 9 9 8 330
-1 332 -5 1 -255 -15 -555 -36z"></path>
</g>
</svg>