<svg version="1.0" xmlns="http://www.w3.org/2000/svg" viewBox="0 0 700.000000 423.000000" preserveAspectRatio="xMidYMid meet" id="mask">
<g transform="translate(0.000000,423.000000) scale(0.100000,-0.100000)">
<path d="M1080 4050 c-454 -98 -882 -190 -952 -206 l-128 -28 0 -48 c0 -42 3
-49 18 -45 35 10 167 39 672 147 283 61 596 129 695 150 99 22 317 69 485 105
449 96 450 97 450 101 0 2 -93 3 -207 3 l-208 -1 -825 -178z"></path>
<path d="M2580 4226 c0 -11 1669 -1256 1684 -1256 17 0 1581 270 2581 445 76
14 143 25 147 25 4 0 8 27 8 61 0 53 -2 60 -17 55 -10 -3 -396 -77 -858 -165
-462 -88 -1065 -203 -1340 -256 -275 -52 -509 -96 -520 -97 -13 -1 -273 196
-705 532 -377 294 -722 562 -767 597 -81 63 -81 63 -147 63 -36 0 -66 -2 -66
-4z"></path>
<path d="M1977 3604 c-1 -1 -1 -54 1 -117 l3 -115 100 -13 99 -12 0 -159 0
-158 -22 5 c-13 3 -59 6 -103 7 l-80 3 0 -65 0 -65 48 -8 47 -9 0 -113 0 -113
-45 6 c-30 3 -45 1 -45 -7 0 -6 18 -11 45 -11 l45 0 0 -115 0 -115 -46 0 c-27
0 -43 -4 -39 -10 3 -5 24 -10 46 -10 l39 0 0 -110 0 -110 -40 0 c-22 0 -40 -4
-40 -10 0 -5 18 -10 40 -10 l40 0 0 -105 0 -105 -35 0 -35 0 0 -105 0 -105 38
0 c20 0 170 9 332 21 162 11 405 28 540 37 l244 17 8 45 c5 25 7 65 6 90 l-3
45 -69 -3 c-50 -3 -71 0 -77 10 -10 15 -12 138 -3 162 5 13 22 16 81 16 53 0
72 3 67 11 -5 8 -29 10 -75 6 -81 -7 -82 -6 -77 113 l3 75 67 -3 c37 -2 73 0
80 5 8 5 -19 10 -67 13 l-80 5 0 95 0 95 70 1 c99 0 102 5 10 18 l-80 11 -3
75 c-5 118 -6 116 83 112 l76 -4 -3 58 -3 59 -95 12 c-52 6 -96 12 -97 12 -2
1 -3 62 -3 137 l0 136 78 -7 c42 -4 85 -11 94 -16 24 -13 27 -3 35 100 5 73 3
92 -8 96 -17 6 -1188 202 -1192 199z m386 -285 l87 -12 0 -150 0 -149 -84 7
c-47 4 -100 10 -118 14 l-33 7 -3 139 c-1 76 0 145 3 153 3 9 14 12 32 8 16
-2 67 -10 116 -17z m240 -33 c48 -7 89 -15 92 -18 3 -3 4 -68 3 -144 l-3 -139
-105 10 -105 10 -3 148 c-3 169 -17 154 121 133z m257 -36 c36 -5 69 -10 73
-10 4 0 6 -62 5 -137 l-3 -138 -35 1 c-19 1 -65 4 -102 8 l-68 8 0 137 c0 76
3 140 6 144 4 3 18 4 33 1 14 -2 55 -9 91 -14z m-467 -376 l68 -6 -3 -101 -3
-102 -95 0 c-52 -1 -101 3 -107 8 -9 6 -13 39 -13 97 0 115 3 121 49 115 20
-2 67 -7 104 -11z m265 -20 c21 -4 22 -9 22 -103 0 -54 -2 -100 -4 -102 -2 -2
-45 -3 -95 -1 l-91 3 0 109 0 109 73 -5 c39 -3 82 -7 95 -10z m324 -37 c4 -7
8 -49 8 -95 0 -97 -1 -97 -95 -87 l-65 7 0 100 0 101 72 -8 c40 -3 76 -12 80
-18z m-534 -182 c9 -4 12 -30 10 -107 l-3 -103 -100 4 c-60 2 -103 8 -107 15
-9 13 -11 167 -3 188 4 11 26 13 98 10 51 -2 98 -5 105 -7z m220 -11 c9 -3 12
-28 10 -101 l-3 -98 -92 -3 -93 -3 0 109 0 109 83 -4 c45 -3 88 -6 95 -9z
m310 -20 c13 -4 18 -180 5 -186 -5 -2 -41 -2 -80 0 l-73 4 0 99 0 100 68 -7
c37 -3 73 -7 80 -10z m-523 -299 l0 -100 -95 -7 c-52 -4 -101 -5 -107 -3 -14
5 -19 168 -7 200 5 13 22 15 108 13 l101 -3 0 -100z m213 89 c9 -3 12 -28 10
-96 l-3 -93 -92 -3 -93 -3 0 104 0 104 83 -4 c45 -3 88 -6 95 -9z m317 -94 l0
-95 -77 -3 -78 -3 0 101 0 101 78 -3 77 -3 0 -95z m3 -186 c5 -113 4 -114 -83
-114 l-75 0 0 90 0 89 68 3 c37 2 72 3 77 3 6 -1 11 -33 13 -71z m-530 -35 l3
-96 -68 -6 c-109 -11 -140 -9 -147 9 -8 22 -8 179 1 188 4 4 52 5 107 4 l101
-3 3 -96z m220 5 l3 -91 -47 -7 c-26 -3 -69 -6 -95 -6 l-49 0 0 100 0 101 93
-3 92 -3 3 -91z"></path>
<path d="M6725 3260 c-132 -21 -258 -41 -280 -44 -32 -5 -43 -13 -53 -36 -11
-23 -11 -32 0 -49 7 -12 16 -21 20 -21 5 0 8 -295 8 -655 0 -576 -2 -655 -15
-655 -9 0 -15 -9 -15 -25 0 -15 6 -25 14 -25 9 0 16 -12 18 -32 l3 -33 120
-12 c192 -19 190 -19 186 -3 -33 123 -33 123 -3 147 15 13 34 23 41 23 12 0
12 3 3 12 -7 7 -12 22 -12 34 0 21 -6 23 -81 30 l-82 7 6 109 c4 60 10 114 13
120 5 7 66 9 195 6 104 -3 189 -2 189 3 0 4 -46 10 -102 11 l-103 3 -3 133 -3
132 106 0 c63 0 105 4 105 10 0 6 -42 10 -105 10 l-105 0 0 135 0 135 59 0
c80 0 151 11 151 23 0 6 -38 7 -105 2 l-105 -7 0 135 0 135 105 12 105 13 0
128 c0 117 -2 129 -17 128 -10 -1 -126 -18 -258 -39z"></path>
<path d="M4755 2959 c-60 -10 -177 -28 -260 -40 -121 -17 -153 -25 -168 -42
-16 -18 -16 -22 -2 -37 12 -14 15 -66 17 -326 l3 -309 150 -6 c83 -4 155 -7
162 -8 6 0 13 -18 15 -38 4 -53 32 -52 36 0 l3 38 52 -3 52 -3 3 -37 c2 -21 7
-38 13 -38 5 0 9 63 9 150 l0 151 30 6 30 6 0 226 c0 124 3 250 6 279 8 62 17
60 -151 31z m73 -253 c2 -44 -1 -83 -5 -87 -4 -4 -32 -11 -60 -15 l-53 -7 0
91 c0 101 0 101 80 98 l35 -1 3 -79z m-158 -26 l0 -90 -55 0 -55 0 0 83 c0 46
3 87 7 90 3 4 28 7 55 7 l48 0 0 -90z m158 -174 c2 -44 -1 -83 -5 -87 -4 -4
-32 -11 -60 -15 l-53 -7 0 91 0 91 28 4 c15 2 41 4 57 3 l30 -1 3 -79z m-158
-16 l0 -90 -55 0 -55 0 0 84 0 85 33 4 c84 10 77 17 77 -83z m145 -190 l0 -85
-52 -3 -53 -3 0 91 0 91 53 -3 52 -3 0 -85z m-145 -5 l0 -85 -55 0 -55 0 0 85
0 85 55 0 55 0 0 -85z"></path>
<path d="M814 2711 c-2 -2 -4 -49 -4 -103 l0 -98 40 0 41 0 -3 103 -3 102 -33
0 c-19 0 -36 -2 -38 -4z"></path>
<path d="M4347 2043 c-4 -3 -7 -20 -7 -38 0 -17 -4 -35 -10 -41 -17 -17 10
-72 38 -77 23 -5 24 -3 19 38 -5 34 -2 46 13 60 27 25 9 64 -31 65 -9 0 -19
-3 -22 -7z"></path>
<path d="M4497 2042 c-24 -3 -28 -7 -25 -30 4 -38 33 -40 52 -3 18 33 14 38
-27 33z"></path>
<path d="M6880 1882 c0 -10 -5 -23 -10 -28 -8 -8 2 -19 29 -37 44 -30 46 -41
14 -131 -7 -22 -11 -41 -9 -44 3 -2 25 -7 51 -9 l45 -6 0 130 0 131 -31 6
c-59 11 -89 7 -89 -12z"></path>
<path d="M2815 1455 c-148 -18 -271 -34 -272 -34 -2 -1 -3 -24 -3 -51 l0 -51
33 6 c17 3 88 12 157 20 69 9 189 25 267 35 79 11 147 20 153 20 5 0 10 20 10
45 l0 45 -37 -1 c-21 -1 -159 -16 -308 -34z"></path>
<path d="M6300 1160 c0 -5 11 -10 25 -10 14 0 25 5 25 10 0 6 -11 10 -25 10
-14 0 -25 -4 -25 -10z"></path>
<path d="M6620 1100 c0 -5 5 -10 10 -10 6 0 10 5 10 10 0 6 -4 10 -10 10 -5 0
-10 -4 -10 -10z"></path>
<path d="M6830 1060 c0 -5 5 -10 10 -10 6 0 10 5 10 10 0 6 -4 10 -10 10 -5 0
-10 -4 -10 -10z"></path>
<path d="M6940 1040 c0 -5 5 -10 10 -10 6 0 10 5 10 10 0 6 -4 10 -10 10 -5 0
-10 -4 -10 -10z"></path>
</g>
</svg>