 <svg version="1.0" xmlns="http://www.w3.org/2000/svg" viewBox="0 0 700.000000 423.000000" preserveAspectRatio="xMidYMid meet" id="mask">

<g transform="translate(0.000000,423.000000) scale(0.100000,-0.100000)">
<path d="M0 4166 l0 -65 53 -19 c189 -70 258 -94 261 -91 2 2 7 57 10 122 l7
117 -165 0 -166 0 0 -64z"></path>
<path d="M6122 4163 c-22 -38 -74 -128 -116 -201 l-76 -134 0 -171 0 -172 20
25 c11 14 115 158 232 320 117 162 230 318 251 347 l38 53 -155 0 -155 0 -39
-67z"></path>
<path d="M6288 3858 c-157 -205 -301 -393 -320 -418 l-34 -45 8 -615 c6 -368
5 -850 -1 -1199 l-10 -584 142 -223 c78 -123 145 -224 150 -224 4 0 7 323 7
718 0 394 3 1004 7 1355 l6 639 226 182 c124 100 271 218 326 263 55 45 113
85 129 89 l29 7 -7 -554 c-4 -305 -11 -882 -16 -1284 -5 -401 -10 -1008 -10
-1347 l0 -618 40 0 40 0 0 2115 0 2115 -213 0 -212 0 -287 -372z"></path>
<path d="M0 2235 c0 -971 1 -1765 3 -1765 1 0 63 22 137 49 l135 49 7 1204 c6
888 11 1213 20 1241 8 27 12 162 12 460 l1 422 -150 52 c-82 28 -153 52 -157
52 -5 1 -8 -793 -8 -1764z"></path>
<path d="M2368 3402 c-111 -18 -158 -30 -158 -39 0 -7 6 -13 14 -13 7 0 19 -6
25 -14 19 -22 -16 -28 -55 -10 -25 12 -38 14 -46 6 -8 -8 0 -15 27 -26 l38
-16 -7 -80 c-6 -73 -5 -80 11 -80 10 1 95 11 189 24 l171 22 66 -22 c36 -12
75 -25 86 -29 20 -6 21 -3 21 114 l0 121 -67 31 c-89 41 -128 42 -315 11z"></path>
<path d="M2385 3106 l-180 -21 -7 -600 c-5 -330 -6 -617 -3 -637 3 -20 1 -38
-5 -40 -5 -2 -10 -61 -11 -133 l-1 -130 41 -6 c22 -3 44 -9 48 -13 12 -12 -25
-34 -69 -41 -21 -4 -42 -14 -45 -22 -3 -8 -16 -19 -29 -24 -42 -15 -28 -30 24
-24 26 4 89 0 141 -8 l95 -14 140 48 c224 75 203 61 210 143 3 39 7 390 7 781
l1 709 -83 28 c-46 15 -86 27 -89 27 -3 -1 -86 -11 -185 -23z"></path>
</g>
</svg>