 <svg version="1.0" xmlns="http://www.w3.org/2000/svg" viewBox="0 0 700.000000 472.000000" preserveAspectRatio="xMidYMid meet" id="mask">
<g transform="translate(0.000000,472.000000) scale(0.100000,-0.100000)">
<path d="M1143 3013 c1 -43 -2 -88 -6 -101 -8 -21 -6 -23 20 -20 26 3 28 6 31
53 4 67 16 79 67 70 22 -4 60 -9 85 -10 29 -2 61 -13 87 -31 46 -29 53 -47 56
-139 l2 -49 -65 -13 c-156 -32 -335 -109 -480 -206 -100 -68 -257 -221 -339
-332 -86 -116 -86 -115 -70 -126 26 -16 35 -9 97 75 123 166 317 329 500 421
120 59 353 127 366 106 2 -3 14 -244 27 -534 22 -493 24 -529 42 -539 28 -14
31 -4 19 54 -6 29 -14 114 -17 188 -2 74 -12 292 -21 484 -12 288 -13 351 -2
357 22 14 240 10 334 -6 107 -19 213 -55 318 -107 88 -44 187 -106 199 -125
13 -20 31 -15 62 17 l29 30 -30 0 c-16 0 -35 -4 -43 -9 -20 -13 -46 35 -31 54
8 10 -3 21 -47 48 -164 98 -356 159 -553 176 -71 6 -75 7 -78 31 -2 14 -10 46
-19 72 -9 26 -14 50 -11 54 4 3 91 1 195 -6 143 -9 200 -16 240 -31 37 -15 57
-18 70 -11 10 6 74 10 142 9 l123 -1 86 -98 c89 -102 88 -102 150 -82 21 6
-155 194 -198 211 -19 8 -42 21 -50 28 -24 19 -236 43 -625 70 -198 14 -418
29 -489 35 -195 15 -175 23 -173 -67z m462 -57 l35 -15 0 -70 0 -71 -54 0 -53
0 1 78 c1 96 8 104 71 78z m778 -3 c-13 -2 -33 -2 -45 0 -13 2 -3 4 22 4 25 0
35 -2 23 -4z"></path>
<path d="M2855 2923 c-51 -21 -50 -20 -35 -38 10 -12 10 -19 2 -27 -17 -17
-15 -25 7 -31 26 -6 38 -73 17 -96 -15 -16 -13 -21 23 -60 36 -39 131 -230
131 -263 0 -27 -30 32 -70 138 -6 15 -13 25 -15 22 -4 -3 193 -761 221 -850 5
-16 -4 -18 -85 -18 l-90 0 -11 55 c-29 138 -107 329 -186 453 -19 29 -34 60
-34 68 0 9 -11 29 -25 46 -14 16 -25 36 -25 44 0 21 -31 65 -41 58 -14 -8 -11
12 4 24 16 14 57 4 57 -14 0 -30 19 -20 59 29 23 29 54 59 69 68 15 9 29 24
31 35 1 10 10 27 18 36 14 16 13 21 -12 54 -34 44 -51 51 -74 30 -24 -22 -33
-20 -65 13 -24 25 -32 28 -58 20 -17 -4 -33 -10 -35 -13 -2 -2 12 -27 31 -55
l35 -50 -74 -65 c-67 -59 -78 -64 -95 -54 -11 7 -20 16 -20 20 0 5 -5 8 -10 8
-6 0 -10 -6 -9 -12 3 -29 -2 -37 -27 -40 l-26 -3 20 -26 21 -26 -152 -143
c-84 -79 -270 -258 -415 -397 -144 -139 -267 -253 -272 -253 -20 0 -9 -20 19
-34 l28 -15 294 272 c162 149 351 327 420 394 70 68 131 123 135 123 18 -1
146 -185 189 -270 35 -68 100 -260 113 -329 8 -43 7 -51 -7 -55 -31 -8 -791
-7 -791 1 0 5 88 96 196 203 107 107 213 216 236 242 l40 48 -29 30 c-15 16
-31 30 -35 30 -4 0 -39 -39 -78 -87 -40 -49 -165 -188 -279 -311 -113 -123
-205 -227 -203 -230 2 -4 12 -6 22 -4 30 5 24 -25 -6 -32 -14 -4 -32 -2 -38 4
-19 15 -53 -24 -37 -43 6 -8 8 -17 4 -20 -3 -4 1 -7 11 -7 9 0 30 14 45 31
l28 31 27 -25 c22 -21 25 -29 17 -50 -10 -24 -13 -25 -68 -20 -65 6 -75 12
-77 45 -1 25 -36 39 -36 14 0 -8 5 -18 10 -21 6 -4 9 -14 8 -23 -2 -12 19 -28
72 -55 41 -21 77 -43 81 -49 4 -6 19 -8 35 -5 16 3 61 -1 99 -9 92 -20 735
-125 802 -131 62 -6 86 7 77 43 -4 15 -2 24 5 24 17 0 13 18 -7 29 -22 12
-626 96 -800 112 -140 12 -150 16 -138 62 5 22 7 22 208 24 112 2 205 3 207 3
2 0 -1 6 -8 13 -12 15 3 37 26 37 7 0 27 14 44 31 21 20 38 29 51 26 10 -3 31
1 46 9 32 17 95 18 124 3 28 -15 53 -76 38 -94 -20 -25 56 -53 179 -67 l110
-12 62 30 c53 25 74 29 143 29 94 -1 142 -21 206 -86 42 -44 80 -130 80 -183
0 -42 12 -52 75 -60 79 -11 89 2 76 97 -6 43 -18 91 -27 108 -8 17 -14 37 -12
44 2 8 248 264 548 570 502 512 545 559 551 596 4 26 2 38 -5 36 -6 -2 -39
-14 -72 -27 -69 -24 -5 37 -741 -713 l-361 -368 -49 34 c-72 52 -122 74 -198
90 l-69 13 -34 123 c-27 96 -31 125 -21 131 7 5 48 11 91 15 43 4 80 11 83 15
2 4 -16 13 -41 20 -25 7 -62 25 -83 41 -21 15 -51 29 -67 31 -20 2 -30 11 -37
33 -6 17 -27 53 -47 80 -42 56 -84 134 -77 142 3 2 21 -23 42 -56 20 -33 40
-63 45 -66 4 -3 -27 133 -69 302 -43 170 -81 328 -85 353 -11 73 -28 82 -101
53z m-102 -310 c9 -9 -13 -34 -24 -27 -14 8 -11 34 4 34 8 0 17 -3 20 -7z
m-733 -1033 c0 -23 -12 -25 -42 -9 -17 9 -18 13 -7 20 25 16 49 10 49 -11z
m394 -199 c3 -4 -6 -6 -19 -3 -14 2 -25 6 -25 8 0 8 39 4 44 -5z m31 -1 c3 -5
1 -10 -4 -10 -6 0 -11 5 -11 10 0 6 2 10 4 10 3 0 8 -4 11 -10z"></path>
<path d="M5205 2890 c-3 -5 -2 -10 4 -10 5 0 13 5 16 10 3 6 2 10 -4 10 -5 0
-13 -4 -16 -10z"></path>
<path d="M5188 2841 c-51 -17 -79 -38 -38 -28 14 4 34 7 46 7 24 0 61 25 48
32 -5 3 -30 -2 -56 -11z"></path>
<path d="M5305 2830 c-11 -17 26 -60 51 -60 34 0 43 -28 15 -49 l-23 -17 23
-39 c23 -38 16 -41 -23 -7 -16 14 -18 13 -18 -2 0 -9 20 -36 44 -59 39 -38 49
-58 104 -217 61 -174 126 -387 157 -510 16 -67 143 -330 159 -330 4 0 5 8 2
17 -4 9 -33 125 -66 257 -48 200 -125 470 -156 550 -27 69 96 -106 180 -257
21 -38 63 -119 94 -180 31 -62 58 -105 60 -95 4 19 -28 84 -146 298 -92 167
-146 252 -197 309 -19 21 -42 65 -55 106 -36 111 -74 187 -111 223 -51 50 -87
74 -94 62z"></path>
<path d="M4314 2786 c-6 -16 41 -96 56 -96 17 0 11 29 -15 70 -28 44 -33 47
-41 26z"></path>
<path d="M4828 2760 c-13 -10 -20 -21 -16 -25 9 -9 61 8 65 22 7 20 -26 22
-49 3z"></path>
<path d="M4285 2760 c-7 -12 2 -30 16 -30 12 0 12 27 0 35 -5 3 -12 1 -16 -5z"></path>
<path d="M5011 2725 c-61 -29 -130 -99 -131 -133 0 -15 5 -22 13 -19 6 2 12
12 12 21 0 10 9 24 19 32 24 17 107 19 123 3 9 -9 22 -4 51 20 22 17 49 31 61
31 20 0 20 1 4 35 -15 32 -21 35 -57 35 -23 0 -65 -11 -95 -25z"></path>
<path d="M4038 2505 c-237 -250 -319 -322 -408 -356 -30 -11 -128 -31 -218
-43 -89 -13 -165 -26 -169 -29 -8 -9 117 -67 145 -67 12 0 30 -9 39 -20 21
-25 31 -25 57 -2 12 11 46 24 77 31 65 14 175 65 234 108 22 16 90 77 150 135
67 64 121 107 135 110 18 2 26 10 28 28 2 16 43 65 113 135 l109 111 -30 47
c-16 26 -32 47 -34 47 -2 0 -105 -106 -228 -235z"></path>
<path d="M5181 2734 c25 -53 34 -64 49 -59 24 8 50 -4 44 -20 -3 -7 0 -16 6
-20 14 -9 17 -6 25 26 6 23 1 29 -31 48 -40 24 -99 40 -93 25z"></path>
<path d="M4749 2714 c-11 -14 -10 -16 9 -12 13 1 23 7 23 13 1 17 -17 16 -32
-1z"></path>
<path d="M4664 2674 c-17 -14 -17 -15 -1 -10 10 3 23 6 28 6 5 0 9 5 9 10 0
14 -13 12 -36 -6z"></path>
<path d="M4792 2674 c-12 -8 -22 -23 -22 -32 0 -13 6 -11 27 10 31 31 28 45
-5 22z"></path>
<path d="M1677 2593 c-2 -4 1 -114 8 -243 7 -129 17 -313 21 -408 4 -96 10
-188 14 -205 6 -30 7 -31 18 -11 8 16 6 116 -8 415 -11 217 -21 407 -22 423
-3 28 -21 46 -31 29z"></path>
<path d="M5130 2465 c0 -8 -4 -15 -8 -15 -5 0 -14 -11 -19 -23 -17 -36 24
-193 67 -257 28 -42 33 -56 10 -30 -25 29 -26 35 15 -115 25 -92 57 -151 75
-140 4 3 10 -4 13 -15 3 -11 10 -20 15 -20 11 0 -18 143 -36 176 -6 12 -9 24
-6 27 10 9 -66 299 -87 335 -10 18 -15 30 -9 27 13 -8 13 6 0 39 -10 28 -30
35 -30 11z"></path>
<path d="M5040 2404 c0 -8 5 -12 10 -9 6 3 10 10 10 16 0 5 -4 9 -10 9 -5 0
-10 -7 -10 -16z"></path>
<path d="M496 2088 c-29 -45 -117 -248 -123 -283 -5 -30 -3 -35 14 -35 25 0
38 15 47 55 4 17 32 80 62 141 30 61 54 114 54 117 0 4 -9 11 -20 17 -16 8
-22 6 -34 -12z"></path>
<path d="M5800 1921 c0 -5 6 -14 14 -20 12 -10 13 -8 9 8 -5 21 -23 30 -23 12z"></path>
<path d="M5263 1763 c16 -71 34 -134 40 -141 6 -8 12 -32 14 -55 6 -72 24
-151 41 -177 9 -15 15 -42 13 -67 -1 -26 2 -43 8 -43 6 0 11 -6 11 -14 0 -16
27 -29 41 -20 5 3 1 17 -10 32 -14 20 -18 40 -15 76 3 40 -1 58 -24 95 -29 46
-49 91 -36 78 4 -4 18 -24 30 -44 22 -37 23 -37 24 -12 0 28 -12 71 -60 222
-16 49 -26 95 -23 103 3 7 -8 26 -24 41 -63 62 -62 63 -30 -74z"></path>
<path d="M5840 1847 c0 -8 6 -20 14 -26 12 -10 13 -8 9 9 -7 25 -23 37 -23 17z"></path>
<path d="M5918 1800 c-2 -26 -4 -35 -12 -57 -5 -15 2 -39 22 -80 16 -32 37
-82 47 -110 21 -58 29 -64 46 -32 15 29 8 57 -42 175 -44 104 -58 128 -61 104z
m32 -94 c0 -6 -7 -2 -15 8 -8 11 -15 25 -15 30 0 6 7 2 15 -8 8 -11 15 -25 15
-30z"></path>
<path d="M5714 1592 c3 -19 12 -48 20 -65 8 -18 17 -45 21 -62 7 -33 37 -75
54 -75 16 0 13 14 -7 41 -10 13 -24 43 -30 66 -7 23 -24 61 -38 85 l-26 43 6
-33z"></path>
<path d="M1576 1595 c-3 -9 -18 -15 -35 -15 -17 0 -31 -6 -35 -16 -4 -10 -13
-13 -24 -10 -22 7 -46 -36 -37 -65 9 -28 22 -23 34 11 5 17 16 33 24 36 18 6
87 -21 88 -35 3 -26 4 -30 10 -36 4 -3 58 -13 120 -21 63 -8 122 -17 132 -20
9 -3 17 -1 17 5 0 5 -10 13 -22 17 -13 4 -42 20 -65 35 -23 16 -53 29 -68 29
-17 0 -28 7 -34 23 -5 13 -27 35 -50 50 -47 32 -47 31 -55 12z m52 -72 c4 -26
-5 -28 -30 -9 -25 19 -22 38 5 34 14 -2 23 -11 25 -25z"></path>
<path d="M3315 1459 c10 -83 11 -83 45 -59 21 15 30 30 30 48 0 38 -11 51 -49
58 l-32 7 6 -54z"></path>
<path d="M3020 1410 c0 -5 7 -10 16 -10 8 0 12 5 9 10 -3 6 -10 10 -16 10 -5
0 -9 -4 -9 -10z"></path>
<path d="M3435 1384 c-14 -15 -25 -31 -25 -35 0 -5 23 -9 50 -9 28 0 50 3 50
6 0 12 -35 64 -43 64 -4 0 -19 -12 -32 -26z"></path>
<path d="M3020 1280 c0 -26 4 -30 26 -30 14 0 35 5 46 11 21 11 20 12 -13 30
-48 26 -59 24 -59 -11z"></path>
</g>
</svg>