 <svg version="1.0" xmlns="http://www.w3.org/2000/svg" id="mask" viewBox="0 0 700.000000 423.000000" preserveAspectRatio="xMidYMid meet">

<g transform="translate(0.000000,423.000000) scale(0.100000,-0.100000)">
<path d="M6568 3737 l-408 -162 -2 -75 -2 -75 -5 72 -6 71 -671 -266 -671
-266 -6 -795 c-6 -693 -9 -797 -22 -807 -19 -14 -19 -24 0 -24 8 0 15 -3 16
-7 1 -5 2 -23 4 -41 1 -19 7 -38 11 -42 5 -5 228 -49 496 -99 406 -75 505 -90
598 -92 l113 -1 11 33 c6 19 9 49 6 68 -5 31 -6 33 -19 17 -8 -10 -27 -24 -42
-32 -38 -19 -46 -2 -23 46 17 34 22 37 50 33 27 -5 34 -1 53 30 12 19 28 38
36 41 8 3 15 12 15 20 0 20 -58 36 -88 24 -13 -4 -21 -4 -18 1 6 10 -62 23
-76 15 -5 -3 -2 -11 7 -18 15 -11 15 -13 1 -25 -9 -8 -27 -14 -40 -14 -29 0
-86 39 -86 58 0 8 -18 15 -47 20 -27 4 -56 15 -65 25 -15 16 -15 19 -1 33 17
17 10 77 -10 77 -8 0 -7 4 1 12 15 15 16 80 1 95 -8 8 -8 13 0 17 15 9 14 86
0 86 -8 0 -8 4 -1 13 13 16 14 385 1 393 -6 3 -5 11 2 20 7 9 10 32 7 59 -3
25 -2 48 3 51 11 6 12 74 2 74 -10 0 -8 101 2 152 4 20 3 42 -1 49 -4 7 -6 35
-5 61 2 33 -1 48 -10 48 -8 0 -7 6 4 18 20 22 22 63 5 80 -9 9 -9 15 0 24 16
16 15 75 0 81 -10 4 -10 7 0 18 15 16 16 71 1 86 -8 8 -8 13 0 17 6 4 11 15
11 24 0 14 100 50 486 177 267 88 492 161 500 163 12 3 14 -116 14 -830 l0
-834 30 -22 c37 -28 38 -42 2 -42 -27 0 -28 -1 -27 -57 0 -43 8 -72 28 -111
32 -63 34 -83 8 -106 -15 -13 -20 -14 -24 -4 -3 9 -7 6 -12 -7 -28 -81 -65
-108 -155 -113 -36 -2 -69 -8 -75 -13 -12 -12 -62 -11 -70 1 -3 6 -11 10 -16
10 -25 0 31 -51 74 -67 29 -10 47 -23 47 -33 0 -9 5 -21 11 -27 6 -6 9 -28 7
-49 -3 -36 -5 -39 -41 -45 -21 -3 -45 -13 -54 -21 -14 -14 -8 -17 58 -28 41
-6 79 -13 86 -15 7 -2 15 0 18 5 10 17 61 11 79 -9 18 -20 83 -33 92 -19 9 14
64 9 64 -6 0 -17 9 -20 103 -40 l67 -14 0 103 0 103 -30 7 -30 7 0 1330 0
1330 30 45 c32 47 38 73 18 72 -7 0 -196 -73 -420 -162z m-1015 -2258 c-5 -4
-80 1 -168 12 -88 11 -172 17 -187 15 -16 -3 -28 -2 -28 3 0 4 -50 13 -112 19
-61 7 -115 15 -119 19 -9 10 -15 95 -7 108 3 6 5 272 5 593 0 436 3 586 12
595 7 7 146 53 309 103 l297 92 3 -776 c1 -427 -1 -779 -5 -783z m1353 -17
c-12 -12 -14 6 -8 68 l7 65 3 -64 c2 -35 1 -66 -2 -69z m4 -144 c0 -56 -3 -98
-8 -92 -7 9 -4 194 4 194 2 0 4 -46 4 -102z m-82 12 c-2 -28 -7 -51 -13 -53
-12 -2 -19 76 -10 112 6 23 8 24 16 8 6 -9 9 -40 7 -67z m-889 13 c-5 -15 -7
-38 -4 -52 5 -20 4 -22 -8 -13 -20 17 -27 5 -20 -32 6 -31 6 -31 -18 -15 -13
9 -25 26 -27 38 -2 15 -9 21 -18 17 -15 -6 -48 46 -37 58 13 13 62 5 71 -11 8
-14 12 -13 33 10 29 35 41 34 28 0z"></path>
<path d="M1283 3649 c4 -46 7 -105 7 -130 l0 -46 43 -7 c23 -3 176 -29 340
-58 l297 -52 0 -63 c0 -40 4 -62 10 -58 5 3 10 17 10 30 0 13 10 32 23 42 12
10 28 25 34 34 12 15 57 209 50 215 -2 2 -178 40 -393 84 -214 45 -398 83
-408 87 -18 5 -19 1 -13 -78z"></path>
<path d="M1973 3189 c4 -19 7 -420 8 -892 l2 -858 34 3 35 3 -2 784 -1 783 33
-5 c109 -19 421 -57 429 -51 5 3 33 0 61 -7 47 -13 51 -12 67 8 l17 21 10 -22
c7 -17 21 -22 69 -28 106 -12 370 -50 374 -53 1 -2 6 -310 9 -685 l5 -681 31
3 30 3 1 722 0 722 35 30 c19 16 33 31 30 34 -3 2 -286 46 -629 96 -343 51
-630 95 -639 98 -12 5 -14 0 -9 -28z"></path>
<path d="M5835 1430 c-3 -5 -1 -10 4 -10 6 0 11 5 11 10 0 6 -2 10 -4 10 -3 0
-8 -4 -11 -10z"></path>
<path d="M6173 1384 c-15 -16 -17 -50 -4 -59 6 -3 13 11 17 30 7 41 4 49 -13
29z"></path>
<path d="M6291 1376 c-10 -12 -8 -17 8 -25 20 -11 51 -5 51 10 0 4 -7 6 -15 3
-11 -5 -13 -2 -9 10 8 20 -19 22 -35 2z"></path>
<path d="M6517 1354 c-14 -15 5 -21 39 -14 51 12 54 20 7 20 -22 0 -43 -3 -46
-6z"></path>
<path d="M6260 1280 c15 -12 18 -18 8 -14 -18 6 -24 -6 -11 -20 4 -4 6 -25 4
-48 -2 -27 1 -38 8 -33 6 3 8 12 5 18 -4 7 11 -5 33 -26 l40 -39 7 28 c6 24 2
32 -30 59 -28 23 -36 37 -32 52 4 15 -1 24 -19 32 -36 16 -41 13 -13 -9z"></path>
<path d="M6062 1262 c-7 -5 -10 -16 -6 -27 7 -17 8 -17 21 1 22 30 14 44 -15
26z"></path>
<path d="M6090 1166 c0 -8 -3 -21 -6 -30 -4 -12 0 -16 15 -16 12 0 21 6 21 14
0 8 3 21 6 30 4 12 0 16 -15 16 -12 0 -21 -6 -21 -14z"></path>
<path d="M6370 1156 c0 -20 5 -26 23 -26 52 1 55 33 4 45 -24 6 -27 5 -27 -19z"></path>
<path d="M6450 1160 c0 -6 5 -10 12 -10 27 0 -22 -33 -51 -34 -66 -2 -3 -46
67 -46 23 0 42 5 42 11 0 5 -5 7 -11 3 -7 -4 -10 3 -9 17 1 13 2 29 1 35 -1
14 -51 37 -51 24z"></path>
</g>
</svg>