 <svg version="1.0" xmlns="http://www.w3.org/2000/svg" id="mask" viewBox="0 0 700.000000 423.000000" preserveAspectRatio="xMidYMid meet">

<g transform="translate(0.000000,423.000000) scale(0.100000,-0.100000)">
<path d="M0 3556 l0 -236 23 -4 c12 -3 159 -23 327 -46 668 -89 1335 -182
1340 -187 3 -2 6 -202 8 -444 l3 -439 30 0 c38 0 37 -16 -1 -23 -25 -6 -30
-11 -30 -35 0 -35 105 -25 -900 -92 -415 -28 -765 -53 -777 -56 -23 -4 -23 -6
-23 -164 0 -159 0 -160 23 -160 12 0 128 16 257 34 l235 33 53 -44 c42 -36 57
-44 78 -39 21 6 37 -3 94 -54 37 -33 74 -60 81 -60 17 -1 69 -45 69 -59 0 -15
133 -121 152 -121 10 0 23 -9 30 -20 7 -11 21 -20 31 -20 9 0 23 -11 29 -25 6
-14 18 -25 27 -25 9 0 210 45 446 98 l430 98 -4 344 c-2 190 -7 613 -10 940
l-6 595 -975 217 c-536 119 -990 219 -1007 223 l-33 6 0 -235z"></path>
</g>
</svg>