 <svg version="1.0" xmlns="http://www.w3.org/2000/svg" id="mask" viewBox="0 0 700.000000 423.000000" preserveAspectRatio="xMidYMid meet">

<g transform="translate(0.000000,423.000000) scale(0.100000,-0.100000)">
<path d="M0 2970 c0 -732 4 -1260 9 -1260 15 0 202 39 301 63 l95 23 -4 137
-4 137 33 0 c30 0 32 2 27 28 -8 39 12 161 34 204 12 23 29 40 44 44 14 3 25
10 25 15 0 5 9 9 20 9 23 0 27 -22 6 -39 -11 -10 -11 -22 0 -79 20 -96 17 -92
59 -79 52 16 62 1 36 -57 -11 -26 -30 -61 -43 -78 -12 -18 -21 -42 -20 -55 1
-14 -3 -21 -11 -17 -19 7 -39 -58 -31 -101 4 -24 12 -35 23 -35 24 0 41 20 41
47 0 28 12 28 69 2 25 -11 52 -17 60 -13 9 3 61 14 116 25 55 10 127 25 160
32 l60 13 -3 36 c-2 20 1 39 7 42 5 4 38 -3 73 -15 37 -12 102 -23 155 -26
l93 -6 46 37 c26 20 52 36 58 36 6 0 20 -12 32 -27 l21 -27 64 34 c35 18 70
40 77 47 17 16 47 17 60 1 5 -7 15 -37 21 -67 6 -30 16 -61 22 -68 9 -10 69
-11 302 -6 275 6 291 5 303 -12 10 -14 14 -57 14 -159 0 -78 3 -185 7 -238 5
-88 8 -98 25 -98 19 0 19 8 14 233 -3 127 -8 402 -12 610 -5 339 -4 377 10
377 19 0 20 85 9 1003 l-6 587 -1249 0 -1248 0 0 -1260z"></path>
<path d="M4325 3468 c4 -420 11 -801 16 -848 5 -47 9 -295 9 -552 l0 -466 80
-4 80 -3 19 45 c11 25 45 128 76 230 32 102 61 193 66 202 9 17 30 17 297 12
158 -4 295 -11 305 -16 16 -8 18 -19 12 -91 -13 -177 -26 -305 -37 -365 -17
-93 -1 -100 55 -24 40 54 45 68 51 133 5 50 4 75 -3 77 -17 6 -13 32 4 32 27
0 15 41 -15 53 -11 4 -10 7 8 12 l22 7 0 283 0 282 -37 7 c-21 3 -107 6 -190
6 l-152 0 5 28 c2 15 27 166 54 336 27 170 54 314 59 319 25 25 511 27 550 3
4 -3 12 -38 15 -77 11 -112 10 -110 84 -88 l62 20 1 137 c1 75 2 335 3 577 l1
440 103 3 c101 3 102 3 102 27 l0 25 -856 0 -856 0 7 -762z"></path>
<path d="M5391 2110 c1 -198 5 -360 8 -360 27 0 127 94 152 142 24 47 24 121
0 174 -17 37 -18 55 -10 185 4 79 8 161 8 182 l1 37 -81 0 -80 0 2 -360z"></path>
<path d="M506 2198 c-4 -22 -2 -37 8 -46 24 -24 35 -6 24 38 -13 48 -23 51
-32 8z"></path>
<path d="M560 2200 c0 -8 5 -22 10 -30 9 -13 10 -13 10 0 0 8 -5 22 -10 30 -9
13 -10 13 -10 0z"></path>
<path d="M620 2108 c0 -12 1 -19 3 -17 1 2 9 12 16 22 12 14 11 17 -3 17 -10
0 -16 -8 -16 -22z"></path>
<path d="M5313 1570 c-18 -24 -33 -49 -33 -56 0 -6 -11 -19 -25 -28 -14 -9
-25 -21 -25 -26 0 -12 117 -14 122 -2 2 4 1 41 -2 82 l-5 75 -32 -45z"></path>
<path d="M4423 1562 l-63 -3 0 -49 0 -50 43 0 c42 0 44 1 67 50 13 27 22 51
19 52 -2 2 -32 2 -66 0z"></path>
</g>
</svg>