 <svg version="1.0" xmlns="http://www.w3.org/2000/svg" viewBox="0 0 700.000000 423.000000" preserveAspectRatio="xMidYMid meet" id="mask">

<g transform="translate(0.000000,423.000000) scale(0.100000,-0.100000)">
<path d="M0 2115 l0 -2115 85 0 84 0 6 38 c16 100 38 205 60 288 28 109 104
282 146 334 24 29 29 44 24 62 -7 20 -6 21 8 9 9 -7 23 -11 31 -8 11 5 8 18
-17 66 -18 34 -36 61 -41 61 -7 0 -6 -13 10 -75 l5 -20 -16 20 c-9 11 -26 41
-38 67 -18 40 -25 46 -44 42 -17 -5 -23 -2 -23 11 0 17 -1 17 -18 2 -21 -19
-38 -22 -47 -7 -12 20 41 97 139 199 108 112 132 146 162 226 10 27 35 65 55
85 28 28 37 45 41 82 3 27 5 48 3 48 -1 0 -15 -4 -31 -10 -16 -5 -68 -21 -117
-35 -83 -25 -87 -27 -87 -55 0 -18 -7 -33 -17 -39 -10 -5 -76 -10 -148 -12
l-130 -4 -3 125 c-2 69 0 189 3 268 l7 142 28 0 c24 0 34 10 64 58 64 102 54
98 131 60 72 -36 68 -36 101 18 10 17 13 16 49 -6 36 -22 48 -24 148 -21 111
3 137 -4 137 -37 0 -8 -8 -24 -17 -35 -18 -19 -17 -19 52 -13 120 11 154 17
160 27 4 5 21 9 39 9 l33 0 7 73 c4 40 3 106 0 145 l-7 72 -31 0 c-18 0 -37 5
-43 11 -16 16 -657 111 -733 108 -36 -1 -77 -1 -92 0 l-28 1 0 83 c0 46 3 166
7 265 l6 182 123 0 c67 0 130 -3 139 -6 8 -4 22 -21 29 -38 11 -27 27 -38 92
-66 44 -18 86 -41 94 -50 12 -13 247 -110 266 -110 2 0 4 15 4 33 0 39 46 92
68 78 7 -4 24 -6 38 -3 19 3 24 0 24 -16 0 -27 47 -81 85 -98 l30 -13 -33 -1
c-20 0 -31 -4 -27 -10 3 -5 21 -10 39 -10 39 0 56 -15 56 -50 0 -14 6 -32 12
-38 10 -10 10 -17 0 -32 -13 -22 -16 -70 -4 -70 4 0 20 -11 36 -23 l29 -24
-36 -22 c-20 -12 -37 -31 -39 -44 -2 -12 -15 -28 -30 -35 l-27 -13 5 -117 c6
-141 10 -162 28 -162 17 0 30 -85 24 -157 -3 -35 0 -51 11 -60 14 -10 14 -13
-1 -30 -9 -10 -18 -34 -20 -53 l-3 -35 -100 -6 c-55 -3 -109 -9 -120 -14 -38
-15 -65 -48 -65 -77 0 -23 6 -31 30 -40 19 -6 38 -24 49 -47 21 -41 81 -92
138 -118 54 -24 73 -43 73 -70 0 -12 -2 -23 -5 -23 -3 0 -33 14 -66 31 -34 17
-62 29 -64 27 -6 -8 -25 -73 -25 -88 0 -9 11 -22 25 -28 24 -11 25 -16 25 -97
0 -48 -5 -96 -11 -107 -8 -15 -8 -27 0 -42 17 -34 33 -140 21 -144 -5 -2 -10
-11 -10 -19 0 -10 -6 -13 -16 -9 -10 4 -13 2 -8 -6 4 -6 -2 -17 -12 -25 -15
-11 -19 -28 -21 -79 -1 -36 -4 -68 -7 -71 -3 -4 -1 -12 4 -19 6 -6 10 -16 9
-20 -1 -5 1 -17 6 -27 4 -10 1 -26 -8 -40 -17 -26 -14 -40 62 -306 23 -80 41
-151 41 -158 0 -33 25 -2 122 151 l104 164 18 238 c9 132 19 251 22 266 5 23
1 30 -20 38 -51 19 -34 46 122 201 l147 147 342 7 c188 4 347 4 354 0 8 -5 9
-26 5 -64 -3 -31 -9 -89 -13 -130 l-6 -74 86 7 c53 4 102 3 127 -4 36 -10 40
-14 46 -50 l7 -40 171 1 c94 1 241 4 326 8 148 6 154 7 122 21 -36 16 -72 72
-72 111 0 23 87 181 131 239 15 19 46 45 70 58 l44 23 -455 -7 -455 -6 3 1073
c2 591 5 1080 8 1088 4 12 155 13 1032 7 565 -4 1029 -9 1031 -11 6 -7 22
-800 29 -1475 l7 -635 50 3 c28 1 79 10 114 18 40 10 81 13 108 9 24 -3 43 -5
43 -3 0 2 -4 18 -10 36 -16 58 24 206 72 265 l23 27 56 -40 56 -39 6 97 c4 53
7 122 7 153 0 54 3 60 91 185 l90 129 -5 600 c-4 330 -9 679 -12 776 l-7 177
-221 6 c-121 3 -923 12 -1780 20 -1269 12 -1560 17 -1567 28 -5 7 -48 104 -96
215 l-88 203 -722 0 -723 0 0 -2115z m386 1907 c45 -43 120 -107 168 -142 57
-43 86 -72 86 -85 0 -11 -7 -52 -15 -90 -8 -39 -15 -80 -15 -91 0 -16 53 -67
192 -185 250 -213 235 -202 282 -209 37 -5 41 -8 44 -37 2 -17 10 -37 18 -43
18 -16 18 -39 -1 -46 -12 -5 -15 -26 -15 -105 l0 -99 -90 0 c-65 0 -90 3 -90
13 0 12 -737 446 -768 453 -9 1 -29 5 -44 9 l-28 5 0 219 c0 120 3 239 6 264
l7 46 51 3 51 3 3 98 3 97 37 0 c32 -1 47 -11 118 -78z m1083 -1007 c87 -88
93 -97 87 -126 -3 -17 -6 -228 -6 -469 l0 -437 -100 -12 c-56 -6 -107 -11
-115 -11 -13 0 -15 76 -15 568 0 313 3 572 7 575 21 22 55 1 142 -88z"></path>
<path d="M620 2440 c0 -12 8 -22 23 -25 137 -31 160 -32 155 -8 -2 13 -24 22
-78 35 -96 22 -100 22 -100 -2z"></path>
<path d="M657 1860 c-136 -16 -254 -31 -262 -34 -14 -5 -23 -76 -10 -76 8 0
519 80 541 85 17 4 20 10 16 30 -2 15 -11 25 -21 24 -9 -1 -128 -14 -264 -29z"></path>
<path d="M731 1564 c-47 -14 -91 -33 -98 -42 -18 -25 -17 -92 2 -92 9 0 28
-12 42 -26 20 -20 28 -23 34 -12 5 7 9 16 9 20 0 15 72 88 86 88 9 0 14 12 14
33 0 18 5 38 12 45 18 18 -3 15 -101 -14z"></path>
<path d="M775 1345 c-33 -29 -38 -36 -25 -45 25 -18 92 -3 118 27 l24 26 -24
13 c-35 20 -49 17 -93 -21z"></path>
<path d="M545 1149 c-49 -43 -97 -79 -105 -79 -9 0 -31 -15 -48 -33 l-33 -34
63 -131 c35 -72 69 -131 76 -132 22 0 71 29 82 50 8 14 4 45 -16 125 -27 106
-27 106 -7 128 20 23 74 102 93 136 10 19 4 52 -9 50 -3 0 -46 -36 -96 -80z"></path>
<path d="M1396 828 c-9 -55 -28 -349 -23 -354 8 -9 197 295 197 317 0 5 -10 9
-22 9 -29 0 -42 9 -52 35 -5 13 -10 15 -13 8 -7 -18 -33 -16 -33 2 0 9 -9 15
-25 15 -20 0 -25 -6 -29 -32z"></path>
</g>
</svg>