 <svg version="1.0" xmlns="http://www.w3.org/2000/svg" viewBox="0 0 700.000000 423.000000" preserveAspectRatio="xMidYMid meet" id="mask">

<g transform="translate(0.000000,423.000000) scale(0.100000,-0.100000)">
<path d="M2417 2778 c-4 -392 -7 -881 -7 -1085 l0 -373 68 0 c37 0 281 5 542
11 l475 10 20 25 c19 24 25 25 68 19 26 -4 50 -11 53 -16 3 -5 14 -3 26 5 15
11 27 12 50 4 22 -8 45 -7 86 3 62 15 193 17 317 5 44 -4 152 -10 239 -12
l159 -5 -7 588 c-8 772 -25 1506 -34 1514 -4 4 -466 9 -1028 13 l-1021 7 -6
-713z m1985 614 c9 -9 28 -1094 28 -1579 l0 -381 -202 -6 c-395 -12 -1729 -28
-1736 -21 -9 8 -16 1970 -8 1992 6 14 106 15 959 8 523 -4 955 -10 959 -13z"></path>
<path d="M2790 872 c-262 -3 -265 -3 -281 -25 -11 -15 -15 -33 -12 -51 l6 -29
246 9 c135 4 289 9 341 9 161 3 152 0 148 37 -4 44 -36 58 -118 56 -36 -2
-184 -4 -330 -6z"></path>
<path d="M2085 841 c-3 -10 -13 -23 -23 -27 -9 -5 -111 -11 -227 -14 -206 -5
-210 -5 -213 -27 l-3 -22 243 6 c267 7 270 8 265 68 -2 35 -32 47 -42 16z"></path>
<path d="M2318 813 c23 -2 61 -2 85 0 23 2 4 4 -43 4 -47 0 -66 -2 -42 -4z"></path>
<path d="M1536 718 c-16 -29 -62 -103 -101 -164 l-72 -110 -6 -88 c-3 -49 -5
-87 -3 -85 2 2 50 83 107 179 89 153 103 182 107 231 7 88 0 96 -32 37z"></path>
<path d="M1187 169 c-48 -77 -91 -147 -94 -155 -4 -11 7 -14 53 -14 l59 1 33
64 c26 53 33 81 39 155 3 49 4 90 2 90 -2 -1 -44 -64 -92 -141z"></path>
<path d="M6811 264 c0 -11 3 -14 6 -6 3 7 2 16 -1 19 -3 4 -6 -2 -5 -13z"></path>
<path d="M6833 215 c0 -38 2 -53 4 -32 2 20 2 52 0 70 -2 17 -4 1 -4 -38z"></path>
<path d="M6866 224 c-13 -100 -13 -101 60 -134 37 -16 68 -30 70 -30 2 0 4 35
4 79 l0 78 -52 23 c-29 12 -58 24 -64 26 -7 3 -14 -13 -18 -42z"></path>
</g>
</svg>