 <svg version="1.0" xmlns="http://www.w3.org/2000/svg" viewBox="0 0 700.000000 423.000000" preserveAspectRatio="xMidYMid meet" id="mask">

<g transform="translate(0.000000,423.000000) scale(0.100000,-0.100000)">
<path d="M4047 2353 c-4 -3 -7 -15 -7 -25 0 -23 38 -25 47 -2 8 21 -24 43 -40
27z"></path>
<path d="M1617 2229 c-4 -63 -7 -172 -7 -242 l0 -129 33 7 c38 9 70 24 48 25
-11 0 -12 37 -6 214 5 141 4 215 -3 220 -5 3 -12 -1 -16 -9 -8 -22 -25 -18
-35 7 -5 14 -10 -17 -14 -93z"></path>
<path d="M2005 2145 c-7 -164 -5 -209 9 -194 7 8 13 379 5 379 -4 0 -10 -83
-14 -185z"></path>
<path d="M4088 2282 l-48 -24 0 -122 c0 -66 4 -127 9 -134 4 -7 31 -19 59 -27
l52 -13 0 157 c0 191 -3 198 -72 163z"></path>
<path d="M4483 2299 c-14 -14 -16 -197 -4 -339 l6 -74 58 -14 c32 -8 59 -13
61 -11 1 2 1 105 -2 229 -3 164 -7 219 -15 203 -13 -29 -27 -29 -35 -1 l-5 22
-8 -22 c-11 -28 -37 -29 -41 -1 -2 16 -5 18 -15 8z"></path>
<path d="M4650 2093 c0 -65 3 -148 6 -185 l7 -67 91 -21 c50 -12 99 -23 109
-26 16 -5 17 8 15 203 l-3 208 -112 3 -113 3 0 -118z"></path>
</g>
</svg>