 <svg version="1.0" xmlns="http://www.w3.org/2000/svg" viewBox="0 0 700.000000 467.000000" preserveAspectRatio="xMidYMid meet" id="mask">
<g transform="translate(0.000000,467.000000) scale(0.100000,-0.100000)">
<path d="M3380 2600 c-26 -23 -26 -23 16 -37 21 -7 36 -7 49 -1 24 14 105 3
157 -20 104 -47 174 -147 134 -191 -15 -16 -27 -19 -67 -14 -53 6 -79 -8 -161
-85 l-37 -35 -146 1 c-81 1 -152 6 -159 11 -6 5 -78 12 -161 16 -166 9 -199
17 -275 69 -60 41 -87 44 -290 26 -169 -15 -259 -36 -376 -86 l-105 -45 -117
11 c-64 5 -129 10 -143 10 -14 0 -34 6 -44 14 -52 37 43 101 195 132 49 10 90
22 90 27 0 5 -12 6 -27 3 -16 -3 -46 -8 -68 -12 l-40 -6 40 42 c31 33 34 39
13 26 l-27 -17 -3 33 c-3 33 -3 33 -60 36 -51 3 -59 0 -73 -22 -21 -32 -8 -60
36 -75 18 -6 29 -14 25 -19 -4 -4 -114 -6 -244 -4 -236 3 -318 -4 -405 -37
-24 -9 -26 -14 -17 -31 8 -16 4 -32 -20 -80 -17 -33 -37 -85 -45 -116 -17 -66
-30 -84 -59 -84 -29 0 -96 57 -96 81 0 27 41 90 80 122 43 37 28 34 -25 -4
-70 -50 -170 -184 -199 -266 l-14 -40 47 -12 c48 -12 121 -55 184 -107 25 -20
45 -51 62 -94 30 -77 30 -74 3 -101 -20 -18 -30 -20 -88 -15 -84 8 -200 44
-222 67 -16 18 -17 18 -48 -21 -34 -44 -34 -60 2 -84 35 -23 195 -66 245 -66
24 0 88 -9 141 -19 237 -47 328 -62 492 -81 313 -36 354 -41 412 -56 65 -16
450 -60 614 -70 98 -6 111 -5 131 12 27 24 96 214 129 355 23 98 45 151 57
139 3 -3 -3 -30 -14 -60 -22 -62 -24 -93 -7 -88 11 4 37 87 38 124 1 66 125
237 180 249 41 9 86 -18 112 -68 21 -38 23 -54 22 -187 -1 -124 -5 -159 -29
-245 -33 -119 -36 -151 -15 -148 8 1 56 14 105 28 50 14 113 30 140 35 82 14
139 30 155 44 20 18 48 23 214 41 76 7 139 15 140 17 2 2 10 39 19 83 41 204
86 336 141 419 24 36 49 62 62 64 40 6 74 -64 74 -153 0 -47 -31 -290 -47
-359 -4 -19 -2 -27 5 -23 10 7 31 112 52 267 7 47 10 144 8 215 -4 126 -5 132
-40 201 -20 38 -43 75 -50 82 -17 13 -115 35 -243 52 l-90 13 -85 88 c-64 66
-101 95 -150 118 -80 38 -154 42 -190 11z m-564 -461 c25 -6 44 -15 42 -19 -2
-3 -46 -47 -99 -97 -114 -106 -112 -105 -353 -128 -162 -16 -196 -15 -196 3 0
13 180 127 255 162 128 58 169 73 230 80 33 4 64 8 68 9 5 0 28 -4 53 -10z
m413 -65 c30 -21 62 -95 95 -215 38 -139 32 -197 -21 -187 -13 2 -23 29 -43
118 -22 97 -59 202 -101 283 -8 14 -5 17 19 17 15 0 38 -7 51 -16z m-1742 -88
c13 -16 24 -21 34 -16 18 10 116 25 108 16 -3 -4 -38 -17 -77 -30 l-71 -23
-20 28 c-12 16 -21 33 -21 39 0 18 28 10 47 -14z m-279 -172 c45 -7 86 -16 91
-18 10 -6 220 -33 261 -34 135 -2 303 -16 337 -28 45 -16 59 -36 39 -53 -8 -6
-26 -39 -41 -73 l-27 -61 -77 6 c-42 4 -137 11 -211 17 -224 17 -369 45 -444
84 -35 18 -42 29 -63 90 -26 79 -19 102 26 91 14 -4 63 -13 109 -21z m2719
-15 c-8 -5 -18 -20 -21 -35 -16 -62 -93 -174 -121 -174 -42 0 -46 11 -16 49
15 20 40 59 54 86 27 55 52 81 82 87 27 6 41 -3 22 -13z m-1328 -95 c39 -8 52
-32 80 -141 29 -113 28 -129 -11 -153 -25 -16 -42 -19 -72 -14 -21 3 -80 6
-130 5 -50 0 -118 4 -151 9 -249 39 -320 62 -331 105 -7 29 38 119 71 141 44
29 458 65 544 48z"></path>
</g>
</svg>