 <svg version="1.0" xmlns="http://www.w3.org/2000/svg" viewBox="0 0 700.000000 423.000000" preserveAspectRatio="xMidYMid meet" id="mask">

<g transform="translate(0.000000,423.000000) scale(0.100000,-0.100000)">
<path d="M5628 3774 l-528 -454 -1930 0 -1930 0 -2 -122 c-3 -255 3 -1555 9
-1604 l5 -51 39 10 c21 5 39 15 39 22 0 7 7 18 15 25 9 8 13 21 9 37 -5 19 -2
25 15 30 27 7 27 33 0 40 -12 4 -18 11 -15 20 3 8 6 320 6 694 l0 679 505 0
505 0 2 -602 3 -603 24 -3 c13 -2 28 1 34 7 6 6 48 11 97 11 47 0 101 4 120 9
19 5 59 12 88 15 43 6 52 4 52 -9 0 -13 33 -15 253 -17 138 -1 261 -1 272 -1
11 1 203 5 427 9 368 6 409 6 432 -9 15 -10 27 -13 31 -7 4 6 66 10 150 10
102 0 144 3 147 12 3 9 11 9 34 1 16 -7 90 -15 165 -18 75 -4 142 -10 149 -15
7 -4 19 -1 29 9 18 18 82 20 189 6 l62 -8 1 389 c2 668 7 846 21 860 30 28
520 374 530 374 8 0 10 -216 4 -840 -5 -676 -4 -840 6 -840 7 -1 74 -9 148
-20 l135 -19 30 27 c16 15 38 35 48 45 23 23 40 22 63 -4 10 -12 46 -40 78
-62 l59 -40 181 -17 c100 -10 242 -23 316 -29 74 -6 161 -14 193 -18 l57 -6 0
597 0 598 -27 -6 c-134 -28 -582 -35 -672 -11 -65 17 -78 27 -65 54 18 38 415
487 478 540 53 44 66 63 55 82 -6 11 -6 25 0 36 27 54 31 103 31 366 l0 277
-322 -1 -323 0 -527 -455z m-1753 -840 c63 -31 122 -90 156 -156 34 -65 38
-185 9 -260 -27 -72 -97 -151 -164 -185 -73 -37 -180 -43 -258 -13 -71 26
-150 97 -186 164 -24 46 -27 62 -27 151 0 85 3 106 23 142 90 169 284 237 447
157z"></path>
<path d="M6824 3918 c5 -272 7 -340 15 -394 0 -6 13 -16 28 -23 15 -7 33 -21
41 -32 7 -10 18 -19 25 -19 6 0 24 -12 39 -27 l28 -27 0 417 0 417 -91 0 -91
0 6 -312z"></path>
<path d="M1750 1643 c1 -16 37 -51 56 -55 16 -3 19 -13 22 -78 2 -41 7 -79 12
-84 6 -6 10 -47 10 -93 l0 -83 28 0 27 0 0 103 c1 131 22 206 75 259 l38 38
-134 0 c-74 0 -134 -3 -134 -7z"></path>
<path d="M1736 1347 c-9 -7 -20 -32 -23 -55 l-6 -42 42 0 41 0 0 43 c0 38 -13
67 -30 67 -3 0 -14 -6 -24 -13z"></path>
<path d="M1322 1307 c-12 -13 -22 -33 -22 -45 0 -20 5 -22 49 -22 28 0 53 4
56 10 3 5 3 25 -1 45 -5 30 -10 35 -33 35 -16 0 -37 -10 -49 -23z"></path>
<path d="M1462 1288 l3 -43 60 -3 c119 -6 155 17 102 66 -20 18 -35 22 -96 22
l-72 0 3 -42z"></path>
</g>
</svg>