 <svg version="1.0" xmlns="http://www.w3.org/2000/svg" viewBox="0 0 700.000000 423.000000" preserveAspectRatio="xMidYMid meet" id="mask">

<g transform="translate(0.000000,423.000000) scale(0.100000,-0.100000)">
<path d="M5475 3823 l-429 -406 -755 6 c-416 4 -1269 7 -1896 7 l-1141 0 -623
370 c-343 203 -625 370 -627 370 -2 0 -4 -42 -4 -92 l1 -93 347 -187 c191
-102 466 -250 611 -329 l264 -143 1937 -3 1937 -3 519 446 c285 245 523 450
529 455 5 5 -42 9 -116 9 l-126 0 -428 -407z"></path>
<path d="M5408 3329 l-265 -189 -6 -618 c-3 -339 -4 -618 -3 -619 1 -2 13 -4
27 -5 l24 -3 3 245 c2 239 2 245 -19 262 -20 17 -20 19 -5 65 12 34 18 103 22
255 6 194 5 208 -11 208 -16 0 -17 8 -11 78 4 42 10 80 14 83 26 24 434 289
444 289 10 0 12 -153 10 -771 l-4 -771 24 4 23 3 6 445 c10 685 10 1218 1
1224 -5 3 -128 -80 -274 -185z"></path>
<path d="M323 3184 c4 -181 10 -544 13 -806 l7 -478 28 0 c34 0 49 -23 49 -74
0 -20 3 -36 8 -36 11 0 3 684 -9 688 -16 6 -11 138 6 152 13 11 15 29 10 109
-4 53 -9 103 -12 111 -3 8 -7 51 -8 95 -2 44 -6 162 -10 263 -4 100 -3 182 2
181 4 0 172 -71 373 -158 l365 -157 1 -82 c0 -68 -2 -82 -14 -77 -12 5 -14
-24 -9 -202 3 -115 10 -228 17 -252 8 -35 8 -46 -2 -52 -10 -6 -14 -85 -18
-346 l-5 -338 -324 -43 c-179 -23 -326 -44 -327 -45 -5 -4 18 -91 26 -100 5
-6 508 71 643 99 19 4 32 16 42 40 8 19 21 34 29 34 20 0 21 16 1 24 -13 5
-15 40 -15 234 0 126 -3 438 -7 693 l-6 464 -411 187 c-226 103 -420 191 -430
194 -19 7 -19 -1 -13 -322z"></path>
<path d="M1362 2420 c3 -398 1 -683 -4 -686 -13 -8 40 -54 62 -54 17 0 18 13
19 248 1 136 4 292 8 346 5 88 4 101 -12 112 -15 12 -16 20 -6 95 13 95 15
425 3 433 -8 5 -9 113 -1 121 2 2 198 1 434 -3 l430 -7 -5 -230 c-3 -126 -4
-255 -3 -285 1 -30 5 -179 8 -332 7 -271 7 -276 29 -282 11 -3 27 -6 34 -6 10
0 12 124 10 603 l-3 602 -504 3 -504 2 5 -680z"></path>
<path d="M1568 1715 c4 -24 7 -25 89 -25 76 0 85 -2 90 -20 5 -19 14 -20 145
-20 110 0 144 3 163 16 19 12 43 15 102 13 l78 -4 3 33 3 32 -339 0 -339 0 5
-25z"></path>
<path d="M351 1659 c-1 -57 24 -149 40 -149 13 0 11 15 -15 115 l-24 90 -1
-56z"></path>
<path d="M1300 1229 c0 -6 9 -22 20 -36 11 -14 20 -38 20 -54 0 -49 17 -79 45
-79 25 0 25 0 25 90 l0 90 -55 0 c-33 0 -55 -4 -55 -11z"></path>
<path d="M1470 1150 l0 -91 93 3 92 3 3 88 3 87 -96 0 -95 0 0 -90z"></path>
<path d="M1720 1150 l0 -90 40 0 40 0 0 90 0 90 -40 0 -40 0 0 -90z"></path>
<path d="M1852 1153 l3 -88 56 -3 56 -3 -23 68 c-13 37 -24 78 -24 91 0 19 -5
22 -35 22 l-36 0 3 -87z"></path>
<path d="M168 882 l-168 -57 0 -71 0 -71 48 1 c26 0 86 -8 133 -19 l85 -19 67
29 c78 33 78 32 49 175 -12 59 -22 85 -32 87 -8 1 -90 -24 -182 -55z"></path>
<path d="M645 810 c-3 -5 -2 -10 4 -10 5 0 13 5 16 10 3 6 2 10 -4 10 -5 0
-13 -4 -16 -10z"></path>
<path d="M500 770 c0 -11 3 -20 8 -20 4 0 13 9 20 20 11 18 10 20 -8 20 -13 0
-20 -7 -20 -20z"></path>
<path d="M0 585 c0 -25 3 -45 8 -43 4 2 35 14 70 28 34 14 62 28 62 31 0 4
-17 9 -37 12 -21 4 -53 9 -70 13 l-33 7 0 -48z"></path>
</g>
</svg>