 <svg version="1.0" xmlns="http://www.w3.org/2000/svg" viewBox="0 0 700.000000 423.000000" preserveAspectRatio="xMidYMid meet" id="mask">

<g transform="translate(0.000000,423.000000) scale(0.100000,-0.100000)">
<path d="M1940 1430 l0 -500 103 0 c92 0 104 2 104 18 0 9 -7 25 -15 35 -11
12 -12 21 -5 28 6 6 9 18 6 27 -3 14 -15 16 -73 14 l-70 -4 3 134 2 133 35 6
35 6 -37 2 -36 1 -1 275 0 274 129 0 129 0 0 -134 c0 -150 6 -189 28 -181 8 4
17 -4 23 -19 11 -30 30 -33 30 -6 0 11 5 23 10 26 6 4 10 -6 10 -22 0 -15 5
-35 11 -43 8 -12 9 -10 4 7 -3 12 -1 24 5 28 6 4 10 69 10 176 l0 170 63 -1
c133 -3 137 -3 137 25 l0 25 -320 0 -320 0 0 -500z"></path>
<path d="M2502 1798 c-2 -45 -3 -47 -34 -51 l-33 -4 32 -1 c31 -2 32 -3 36
-54 l3 -53 2 52 2 52 38 4 37 4 -37 1 c-37 2 -37 2 -41 50 l-3 47 -2 -47z"></path>
<path d="M2115 1740 c3 -5 8 -10 11 -10 2 0 4 5 4 10 0 6 -5 10 -11 10 -5 0
-7 -4 -4 -10z"></path>
<path d="M2120 1667 c-1 -31 -1 -91 -1 -132 0 -99 0 -99 7 -92 7 7 6 268 -1
275 -3 3 -5 -20 -5 -51z"></path>
<path d="M2500 1541 c0 -64 -2 -70 -22 -74 l-23 -4 23 -2 c20 -1 22 -6 22 -66
0 -64 0 -65 -27 -66 -26 -1 -25 -2 7 -9 19 -5 41 -4 50 0 13 8 12 9 -3 10 -16
0 -17 12 -15 140 2 77 0 140 -4 140 -5 0 -8 -31 -8 -69z"></path>
<path d="M2030 1184 c35 -7 98 -9 94 -2 -3 5 -29 7 -57 7 -29 -1 -45 -3 -37
-5z"></path>
<path d="M2443 1183 c9 -2 23 -2 30 0 6 3 -1 5 -18 5 -16 0 -22 -2 -12 -5z"></path>
<path d="M2411 1036 c-6 -7 -10 -34 -10 -60 l2 -46 37 0 c36 0 37 0 34 38 -2
20 -3 47 -3 60 -1 16 -7 22 -25 22 -13 0 -29 -6 -35 -14z"></path>
</g>
</svg>