 <svg version="1.0" xmlns="http://www.w3.org/2000/svg" viewBox="0 0 700.000000 423.000000" preserveAspectRatio="xMidYMid meet" id="mask">

<g transform="translate(0.000000,423.000000) scale(0.100000,-0.100000)">
<path d="M0 4031 c0 -198 0 -199 23 -204 12 -3 618 -121 1347 -262 729 -141
1335 -259 1348 -262 l22 -5 0 355 0 356 -27 3 c-20 2 -29 9 -31 25 -3 18 3 23
33 29 50 9 100 -6 100 -31 0 -12 -9 -21 -25 -25 l-25 -6 -3 -355 -2 -355 110
-20 110 -21 223 31 222 31 0 240 0 240 -22 3 c-27 4 -31 37 -7 46 23 9 77 7
93 -3 19 -12 6 -41 -18 -41 -19 0 -20 -8 -23 -237 -2 -131 -2 -239 -1 -241 1
-4 292 35 331 43 27 7 29 22 2 30 -11 3 -20 10 -20 14 0 5 92 23 205 41 l204
33 76 -20 76 -21 302 44 c166 24 631 91 1032 149 402 58 743 108 758 111 l28
6 -3 123 -3 123 -29 14 c-17 7 -31 18 -34 25 -7 25 129 45 144 21 7 -10 -23
-42 -47 -50 -11 -4 -19 -232 -9 -248 4 -7 439 48 518 65 22 5 22 6 22 205 l0
200 -3500 0 -3500 0 0 -199z m710 36 c94 -25 44 -64 -64 -51 -95 11 -135 32
-109 57 10 11 124 7 173 -6z m5045 -146 c9 -16 -33 -33 -95 -38 -95 -9 -138
12 -76 37 29 12 163 12 171 1z m-3586 -192 c46 -16 23 -39 -39 -39 -72 0 -125
22 -103 43 10 11 107 8 142 -4z m2118 -66 c6 -19 -87 -34 -133 -22 -36 11 -37
12 -19 25 24 18 146 15 152 -3z m-1110 -177 c12 -12 -20 -26 -57 -26 -66 0
-105 21 -62 34 23 6 111 1 119 -8z"></path>
</g>
</svg>