 <svg version="1.0" xmlns="http://www.w3.org/2000/svg" id="mask" viewBox="0 0 700.000000 423.000000" preserveAspectRatio="xMidYMid meet">

<g transform="translate(0.000000,423.000000) scale(0.100000,-0.100000)">
<path d="M4750 2799 c-261 -87 -511 -169 -555 -183 -44 -13 -161 -50 -260 -81
l-180 -57 -37 -63 c-21 -35 -38 -70 -38 -77 0 -8 -15 -43 -34 -78 -28 -53 -32
-70 -24 -90 9 -23 10 -24 22 -8 7 10 35 62 62 116 l49 99 725 238 c399 131
736 238 749 237 14 -1 239 -72 500 -158 885 -289 956 -312 975 -316 16 -3 19
4 19 47 0 48 -1 49 -39 61 -206 65 -687 221 -1031 335 -232 76 -423 139 -425
138 -2 0 -217 -72 -478 -160z"></path>
<path d="M2466 2707 c-433 -144 -653 -223 -641 -227 17 -6 16 -7 -6 -13 -34
-10 -46 -8 -29 3 8 5 10 10 4 10 -6 0 -238 -76 -515 -168 l-504 -169 -3 -43
c-3 -38 -1 -42 15 -35 34 13 2298 764 2323 770 18 4 112 -23 309 -89 156 -53
286 -96 288 -96 3 0 3 19 1 41 l-3 42 -285 98 c-157 54 -287 98 -290 98 -3 -1
-302 -100 -664 -222z"></path>
<path d="M3687 2863 c-9 -2 -14 -9 -11 -15 4 -6 -2 -8 -16 -3 -16 5 -20 4 -15
-5 5 -9 1 -10 -15 -5 -16 5 -20 4 -15 -5 5 -9 1 -10 -15 -5 -17 5 -20 4 -15
-5 6 -10 1 -11 -20 -6 -26 7 -27 6 -9 -11 19 -19 70 -22 154 -9 40 7 71 -1
278 -73 239 -83 252 -85 310 -56 21 12 -3 22 -265 109 -276 92 -305 100 -346
89z"></path>
<path d="M3025 2491 l-110 -38 -3 -52 c-2 -29 -7 -49 -13 -46 -5 4 -9 -1 -9
-9 0 -8 5 -18 10 -21 6 -3 10 -42 10 -86 l0 -79 250 0 250 0 0 143 0 143 -122
42 c-68 23 -130 42 -138 41 -8 0 -64 -17 -125 -38z m105 -156 l0 -145 -90 0
-90 0 0 118 0 118 78 26 c42 14 83 27 90 27 9 1 12 -34 12 -144z m171 114 l99
-32 0 -114 0 -114 -102 3 -103 3 -3 143 c-1 78 0 142 4 142 3 0 51 -14 105
-31z"></path>
<path d="M3852 2197 c-17 -20 -12 -40 6 -28 8 5 12 16 10 26 -3 17 -4 17 -16
2z"></path>
<path d="M3796 2132 c-5 -8 -51 -12 -157 -12 -198 0 -197 -18 2 -22 152 -3
177 2 167 34 -3 9 -6 9 -12 0z"></path>
<path d="M4229 2125 c-3 -2 -4 -48 -2 -102 2 -54 3 -243 3 -420 l0 -323 30 0
c17 0 30 3 30 8 0 4 419 7 930 7 l930 0 0 116 c0 64 -3 251 -7 417 l-6 302
-952 0 c-523 0 -954 -2 -956 -5z m1844 -52 c-7 -2 -19 -2 -25 0 -7 3 -2 5 12
5 14 0 19 -2 13 -5z m-1360 -63 c12 -98 17 -95 -199 -95 l-189 0 -3 59 c-2 32
-1 65 2 72 4 11 44 14 194 14 l189 0 6 -50z m430 3 c3 -27 3 -60 0 -75 l-5
-28 -188 0 -187 0 -7 31 c-8 41 -8 104 1 112 3 4 90 7 193 7 l187 0 6 -47z
m437 -22 l0 -68 -187 -5 c-104 -3 -191 -4 -195 -1 -5 2 -8 35 -8 74 l0 69 195
0 195 0 0 -69z m430 -1 l0 -70 -189 0 c-215 0 -201 -6 -201 93 l0 47 195 0
195 0 0 -70z m8 -197 l3 -73 -196 0 -195 0 0 75 0 75 193 -2 192 -3 3 -72z
m-1300 -6 l3 -67 -198 2 -197 3 -2 68 -1 67 196 -2 196 -3 3 -68z m432 3 l0
-70 -195 0 -195 0 0 70 0 70 195 0 195 0 0 -70z m433 8 c3 -34 3 -66 1 -70 -3
-4 -90 -8 -193 -8 l-188 0 -7 31 c-3 17 -6 49 -6 70 l0 39 194 0 193 0 6 -62z
m-865 -205 l3 -73 -196 0 -195 0 0 68 c0 38 3 72 7 76 4 3 90 5 192 4 l186 -3
3 -72z m432 2 l0 -75 -195 0 -195 0 0 68 c0 38 3 72 7 75 3 4 91 7 195 7 l188
0 0 -75z m438 3 l-3 -73 -192 -3 -193 -2 0 75 0 75 195 0 196 0 -3 -72z m436
50 c3 -13 6 -44 6 -69 l0 -46 -137 -6 c-75 -4 -162 -7 -193 -7 l-57 0 -7 65
c-4 36 -4 70 -1 75 4 6 85 10 194 10 187 0 189 0 195 -22z m-1304 -253 l0 -75
-195 0 -195 0 0 75 0 75 195 0 195 0 0 -75z m438 3 l-3 -73 -191 -3 -191 -2
-6 66 c-4 37 -4 71 -1 75 3 5 93 9 200 9 l195 0 -3 -72z m437 7 c4 -36 6 -67
4 -69 -2 -2 -92 -5 -199 -7 l-195 -4 -3 73 -3 72 195 0 194 0 7 -65z m435 -5
l0 -70 -195 0 -195 0 0 70 0 70 195 0 195 0 0 -70z"></path>
<path d="M2910 2100 c0 -11 -4 -20 -10 -20 -5 0 -10 -9 -10 -19 0 -11 5 -23
10 -26 6 -4 10 -90 10 -226 0 -144 3 -218 10 -214 6 4 10 97 10 245 l0 238
239 4 c132 2 242 6 246 10 24 23 -20 28 -256 28 -242 0 -249 -1 -249 -20z"></path>
<path d="M1192 2073 l-173 -3 5 -133 c6 -161 15 -247 26 -247 5 0 11 -21 13
-47 2 -27 4 15 5 92 1 77 5 177 9 223 l6 82 198 0 199 0 1 -162 c0 -92 4 -154
8 -143 l8 20 5 -20 c3 -11 6 48 7 131 0 83 4 166 7 183 l7 31 -79 -2 c-44 -1
-157 -4 -252 -5z"></path>
<path d="M2339 1773 c0 -170 -2 -315 -4 -325 -4 -23 87 -29 319 -20 l188 7 -1
293 c-2 199 1 292 8 292 6 0 11 8 11 18 0 14 -2 15 -10 2 -8 -12 -10 -9 -10
13 l0 27 -250 0 -250 0 -1 -307z m199 290 c-15 -2 -42 -2 -60 0 -18 2 -6 4 27
4 33 0 48 -2 33 -4z m145 -23 l90 0 -5 -280 c-2 -154 -6 -282 -9 -284 -2 -2
-91 -6 -197 -8 l-192 -3 -2 195 c0 116 -4 177 -8 150 l-7 -45 -1 58 c-1 37 2
56 8 52 6 -4 10 21 10 69 0 114 -5 110 118 102 58 -3 145 -6 195 -6z m-296
-596 c-3 -3 -12 -4 -19 -1 -8 3 -5 6 6 6 11 1 17 -2 13 -5z"></path>
<path d="M3791 1928 c0 -54 3 -98 7 -98 5 0 7 37 5 83 -6 120 -11 126 -12 15z"></path>
<path d="M1006 1593 c-4 -89 -5 -167 -1 -172 3 -6 56 -9 133 -7 70 2 182 4
250 5 l122 1 0 143 c0 119 -2 144 -15 144 -8 0 -12 -4 -9 -9 3 -4 0 -8 -5 -8
-7 0 -11 -41 -11 -115 l0 -115 -200 0 -200 0 0 48 c0 26 -5 54 -11 62 -9 13
-10 12 -5 -2 3 -10 1 -18 -5 -18 -5 0 -9 21 -9 48 1 48 -2 75 -18 127 -6 22
-11 -13 -16 -132z"></path>
<path d="M3046 1515 c5 -12 28 -15 121 -15 88 0 118 3 129 15 14 13 0 15 -120
15 -116 0 -135 -2 -130 -15z"></path>
</g>
</svg>