 <svg version="1.0" xmlns="http://www.w3.org/2000/svg" viewBox="0 0 700.000000 423.000000" preserveAspectRatio="xMidYMid meet" id="mask">

<g transform="translate(0.000000,423.000000) scale(0.100000,-0.100000)">
<path d="M516 3163 c4 -588 10 -1072 14 -1076 9 -11 38 2 36 16 -1 7 -5 18 -9
24 -13 21 4 286 19 303 8 10 11 36 8 80 -11 167 -12 230 -6 230 4 0 109 9 232
20 298 26 318 26 329 -2 4 -13 23 -124 42 -248 l34 -225 3 914 2 913 23 -5
c76 -19 1101 -228 1976 -403 564 -112 1027 -206 1029 -208 6 -6 2 -418 -8
-931 l-8 -430 23 -24 c38 -40 47 -17 21 54 -13 36 -22 65 -21 65 2 0 13 -15
25 -32 13 -21 19 -25 16 -13 -2 11 -7 31 -11 45 -5 21 -4 22 5 8 15 -25 40
-108 40 -136 0 -13 4 -20 10 -17 6 3 10 25 10 48 0 23 3 60 7 82 6 36 7 38 14
15 4 -14 8 -43 8 -65 2 -42 6 -41 37 11 10 17 12 17 27 2 10 -9 14 -24 11 -33
-5 -11 9 -6 39 16 55 39 68 35 28 -8 -33 -36 -24 -45 34 -36 27 4 35 3 33 -8
-2 -11 22 -14 126 -15 71 -1 181 -7 245 -14 163 -17 495 -11 513 10 30 37 44
41 76 24 44 -22 259 -30 388 -15 56 7 159 16 230 22 71 5 146 12 167 15 35 6
38 4 52 -30 10 -23 15 -69 15 -130 0 -91 1 -96 23 -101 12 -3 147 -7 300 -8
l277 -4 0 1184 0 1183 -922 0 -923 -1 -385 -208 c-375 -203 -385 -208 -422
-198 l-38 9 0 79 c0 44 -2 79 -5 79 -3 0 -252 53 -553 118 l-547 117 -1348 3
-1347 2 6 -1067z"></path>
<path d="M4230 2096 c0 -17 14 -29 23 -20 8 8 -3 34 -14 34 -5 0 -9 -6 -9 -14z"></path>
</g>
</svg>