 <svg version="1.0" xmlns="http://www.w3.org/2000/svg" viewBox="0 0 700.000000 423.000000" preserveAspectRatio="xMidYMid meet" id="mask">

<g transform="translate(0.000000,423.000000) scale(0.100000,-0.100000)">
<path d="M210 3353 l0 -877 32 -33 31 -32 -26 -12 -27 -12 0 -276 c0 -276 3
-321 23 -321 5 0 15 -6 21 -14 6 -7 26 -16 43 -19 l32 -6 -19 49 c-15 39 -17
56 -9 77 19 50 117 159 165 184 l47 24 -7 794 c-3 437 -6 920 -6 1073 l0 278
-150 0 -150 0 0 -877z"></path>
<path d="M381 1955 c-53 -61 -65 -92 -51 -138 14 -47 30 -34 30 24 0 21 13 61
29 93 17 31 28 56 27 56 -2 0 -18 -16 -35 -35z"></path>
<path d="M435 1960 c-16 -31 -19 -77 -9 -128 5 -26 9 -29 28 -23 16 7 21 17
21 47 0 33 4 40 23 42 34 5 31 52 -3 52 -18 0 -25 5 -25 20 0 29 -17 24 -35
-10z"></path>
<path d="M381 1882 c-7 -24 -11 -59 -9 -78 3 -31 5 -34 20 -22 13 11 15 24 9
78 l-7 65 -13 -43z"></path>
<path d="M233 1702 c-64 -27 -70 -37 -40 -56 14 -9 26 -2 64 37 26 26 46 47
43 46 -3 0 -33 -13 -67 -27z"></path>
<path d="M253 1633 c-27 -5 -30 -20 -5 -27 63 -17 79 -17 85 3 2 11 2 22 -1
25 -6 7 -44 6 -79 -1z"></path>
<path d="M370 1630 c0 -13 11 -13 30 0 12 8 11 10 -7 10 -13 0 -23 -4 -23 -10z"></path>
<path d="M415 1616 c-53 -25 -53 -27 25 -46 25 -6 53 -13 63 -16 14 -5 17 2
17 40 0 44 -1 46 -27 46 -16 0 -50 -11 -78 -24z"></path>
<path d="M196 1591 c-3 -5 30 -78 73 -163 69 -136 80 -167 95 -254 10 -55 19
-104 21 -110 1 -6 19 -8 39 -6 48 6 47 22 -10 111 l-47 72 7 92 c7 105 -8 152
-56 175 -15 7 -29 21 -33 30 -6 22 -81 66 -89 53z"></path>
<path d="M85 1564 c-34 -17 -85 -63 -85 -76 0 -5 27 10 60 34 33 23 60 46 60
50 0 10 0 10 -35 -8z"></path>
<path d="M130 1523 c-22 -56 -100 -284 -100 -290 0 -2 11 -3 25 -3 31 0 45 31
91 207 39 152 38 143 20 143 -8 0 -24 -25 -36 -57z"></path>
<path d="M395 1347 c-7 -93 -6 -97 21 -144 15 -26 39 -70 52 -96 22 -43 27
-46 36 -30 5 10 12 68 14 130 l4 112 -60 63 -60 62 -7 -97z"></path>
<path d="M401 1031 c-24 -15 20 -49 57 -43 36 5 36 6 22 33 -11 20 -54 26 -79
10z"></path>
</g>
</svg>