 <svg version="1.0" xmlns="http://www.w3.org/2000/svg" viewBox="0 0 700.000000 423.000000" preserveAspectRatio="xMidYMid meet" id="mask">

<g transform="translate(0.000000,423.000000) scale(0.100000,-0.100000)">
<path d="M2337 3285 c-5 -686 -4 -952 4 -972 6 -15 15 -37 20 -48 5 -11 10
-33 11 -50 l3 -30 232 0 c177 0 234 3 238 13 2 6 14 12 27 12 12 0 34 12 49
26 30 29 88 46 113 32 10 -6 16 -5 16 1 0 6 -17 14 -37 19 -21 5 -60 14 -88
21 -27 7 -57 19 -65 27 -13 13 -11 13 20 1 41 -17 170 -29 170 -16 0 5 -19 29
-43 54 -44 45 -49 57 -13 30 10 -8 22 -12 27 -9 4 2 20 -13 36 -33 15 -21 31
-39 36 -41 4 -2 7 -11 8 -20 0 -22 13 10 22 55 6 30 2 36 -61 88 -38 31 -84
60 -107 66 -92 25 -145 42 -142 45 2 2 39 -5 82 -16 83 -21 144 -52 199 -101
19 -16 36 -29 39 -29 2 0 10 20 17 44 11 40 10 53 -9 114 -11 38 -30 81 -42
95 -23 30 -11 38 13 10 25 -29 64 -114 78 -170 8 -29 16 -50 19 -48 3 3 8 51
11 108 7 98 7 96 8 -60 l2 -162 46 24 c68 36 115 33 156 -8 18 -19 54 -44 80
-57 27 -13 59 -39 73 -60 36 -52 91 -65 221 -50 78 8 116 7 179 -3 69 -12 81
-12 90 0 7 9 24 13 45 11 l35 -3 -3 -152 c-2 -148 -2 -153 18 -153 11 0 20 5
20 10 0 6 32 10 76 10 69 0 75 2 69 18 -22 52 -27 50 122 45 165 -5 167 -6
153 -33 -15 -28 -5 -40 36 -40 l34 0 1 283 c1 155 5 566 8 912 l6 630 538 3
538 2 -2 -1282 -1 -1283 114 -3 c62 -2 190 0 284 3 l172 7 4 172 c4 153 7 179
32 250 15 44 27 103 28 135 2 50 -4 65 -51 151 -29 52 -63 122 -76 155 -12 34
-33 80 -44 104 -12 23 -20 48 -18 54 5 13 73 -125 101 -203 9 -25 27 -63 41
-85 l26 -40 -6 32 c-11 56 12 44 28 -15 20 -76 22 -25 3 75 -10 53 -10 75 -2
83 6 6 16 25 23 43 l11 32 1 -49 c1 -27 5 -65 11 -85 5 -20 12 -58 16 -86 l7
-50 9 35 c41 151 126 358 142 343 3 -3 -9 -33 -26 -67 -17 -33 -41 -88 -53
-121 -24 -64 -69 -255 -61 -262 9 -9 27 38 31 84 6 52 12 64 25 44 6 -10 12
-2 21 30 7 24 18 53 25 64 6 11 20 44 29 74 15 45 15 55 4 62 -10 6 -10 9 -2
9 7 0 27 21 45 48 17 26 38 53 45 60 7 7 13 18 13 23 0 5 11 14 25 19 27 10
35 40 11 40 -21 0 -30 19 -16 34 8 11 8 15 -2 18 -8 3 0 13 19 25 30 18 31 20
16 36 -12 12 -14 20 -6 28 7 7 22 4 52 -12 32 -17 40 -26 36 -40 -5 -13 -1
-19 10 -19 9 0 14 4 11 8 -2 4 24 6 60 4 l64 -4 0 911 0 911 -2328 0 -2329 0
-6 -945z"></path>
<path d="M3155 2419 c-4 -12 -2 -26 4 -32 8 -8 11 -2 11 21 0 37 -6 41 -15 11z"></path>
<path d="M6815 2391 c4 -8 3 -16 -4 -21 -7 -4 2 -7 19 -8 18 0 30 0 29 1 -2 1
-15 11 -28 22 -14 11 -21 14 -16 6z"></path>
<path d="M3315 2359 c-80 -42 -74 -45 45 -25 l75 13 -37 17 c-45 20 -36 20
-83 -5z"></path>
<path d="M3150 2310 c0 -37 2 -41 15 -30 8 7 15 20 15 30 0 10 -7 23 -15 30
-13 11 -15 7 -15 -30z"></path>
<path d="M6970 2319 c0 -5 5 -7 10 -4 6 3 10 8 10 11 0 2 -4 4 -10 4 -5 0 -10
-5 -10 -11z"></path>
<path d="M3340 2302 c-15 -5 -26 -17 -28 -30 -3 -20 1 -22 50 -22 47 0 138
-16 207 -36 23 -7 23 -7 6 19 -16 26 -73 67 -91 67 -5 0 5 -12 21 -26 l30 -26
-37 26 c-40 29 -113 41 -158 28z"></path>
<path d="M3276 2271 c-4 -7 -5 -15 -2 -18 9 -9 19 4 14 18 -4 11 -6 11 -12 0z"></path>
<path d="M6731 2227 c-25 -17 -39 -33 -33 -35 14 -4 16 -82 2 -82 -17 0 -64
-84 -62 -112 2 -21 -4 -31 -28 -43 -37 -19 -40 -45 -5 -45 14 0 25 3 25 8 0 4
10 13 23 21 20 13 21 13 9 -2 -13 -15 -9 -16 37 -13 28 1 51 -1 51 -6 0 -5 9
-4 20 2 22 12 28 66 8 72 -18 6 -65 -20 -83 -45 -15 -21 -15 -21 -11 8 2 17 5
35 6 40 2 6 0 18 -5 28 -10 24 0 31 40 29 19 -2 35 2 35 8 0 5 -4 10 -10 10
-5 0 -2 8 8 18 9 9 25 29 34 42 10 14 15 17 12 8 -5 -14 0 -18 20 -18 40 0 32
-26 -11 -38 -23 -6 -30 -10 -17 -11 28 -1 40 -17 48 -63 4 -24 13 -38 21 -38
19 0 19 17 0 37 -12 12 -13 18 -4 29 6 8 9 21 5 29 -3 8 -1 15 4 15 6 0 10 5
10 11 0 15 -26 39 -43 39 -8 0 -18 7 -21 16 -4 11 -13 14 -27 11 -17 -5 -18
-3 -8 9 7 8 18 13 26 10 7 -3 13 1 13 9 0 19 -10 19 -38 -1 -30 -21 -28 0 2
23 20 16 22 22 11 36 -15 21 -11 22 -64 -16z m17 -104 c-9 -10 -18 -25 -21
-33 -5 -13 -6 -13 -6 0 -1 17 31 62 38 54 2 -2 -3 -12 -11 -21z"></path>
<path d="M2942 2234 c-16 -11 -22 -25 -22 -55 0 -48 15 -50 54 -10 16 16 41
35 57 42 23 9 27 14 18 25 -15 19 -79 18 -107 -2z"></path>
<path d="M3343 2213 c-26 -5 -29 -16 -10 -31 8 -6 39 -4 97 7 82 17 84 17 45
24 -42 7 -95 7 -132 0z"></path>
<path d="M3054 2199 c-16 -5 -41 -20 -54 -34 l-23 -25 39 1 c31 0 44 6 62 29
26 33 20 41 -24 29z"></path>
<path d="M3086 2161 c-4 -7 -5 -15 -2 -18 9 -9 19 4 14 18 -4 11 -6 11 -12 0z"></path>
<path d="M6646 2108 c-29 -71 -28 -84 3 -38 32 46 39 70 20 70 -5 0 -16 -15
-23 -32z"></path>
<path d="M2677 2043 c-2 -5 -4 -26 -3 -48 l1 -40 42 0 c25 0 43 5 43 11 0 6
18 14 40 18 33 5 40 10 40 30 0 21 -5 24 -61 30 -80 8 -97 8 -102 -1z"></path>
<path d="M2930 2018 l0 -32 30 29 c17 16 30 30 30 32 0 2 -13 3 -30 3 -27 0
-30 -3 -30 -32z"></path>
<path d="M2983 2021 c-39 -33 -41 -41 -9 -41 31 0 40 -14 26 -40 -10 -19 -8
-20 50 -20 l60 0 0 49 c0 73 -6 81 -54 81 -30 -1 -50 -8 -73 -29z"></path>
<path d="M3406 2038 c-3 -7 -7 -46 -10 -85 -6 -69 -5 -73 14 -73 20 0 20 4 14
76 -5 60 -4 78 7 85 11 7 10 9 -4 9 -10 0 -19 -6 -21 -12z"></path>
<path d="M3500 2040 c0 -3 12 -6 28 -5 26 0 27 -1 24 -52 -3 -53 -3 -53 26
-53 22 0 36 8 50 28 19 25 26 27 107 31 103 4 155 -4 155 -24 0 -9 10 -15 25
-15 22 0 25 4 25 34 0 19 3 41 6 49 4 12 -27 14 -220 14 -124 0 -226 -3 -226
-7z"></path>
<path d="M2390 1984 l0 -52 73 -4 c51 -3 76 0 85 9 7 7 27 13 43 13 28 0 29 2
29 45 l0 46 -115 -3 -115 -3 0 -51z"></path>
<path d="M3324 2026 c-3 -7 -4 -42 -2 -77 3 -58 5 -64 26 -67 12 -2 22 -2 22
0 0 3 5 30 11 61 13 72 6 97 -27 97 -14 0 -27 -6 -30 -14z"></path>
<path d="M6836 1941 c-16 -18 -16 -19 11 -17 15 0 29 4 31 9 1 4 -1 7 -4 6 -4
0 -10 4 -14 10 -4 8 -12 5 -24 -8z"></path>
<path d="M4656 1861 c-19 -7 -19 -8 2 -13 15 -4 22 -2 22 8 0 8 -1 14 -2 13
-2 0 -12 -4 -22 -8z"></path>
<path d="M6535 1759 c-4 -12 -2 -26 4 -32 8 -8 11 -2 11 21 0 37 -6 41 -15 11z"></path>
<path d="M6542 1665 c0 -16 2 -22 5 -12 2 9 2 23 0 30 -3 6 -5 -1 -5 -18z"></path>
<path d="M4539 1675 c-3 -2 2 -65 10 -140 l14 -135 59 0 58 0 0 140 0 140 -68
0 c-38 0 -71 -2 -73 -5z"></path>
<path d="M2210 1545 l0 -45 200 0 200 0 0 45 0 45 -200 0 -200 0 0 -45z"></path>
<path d="M2670 1546 l0 -44 53 -6 c28 -3 69 -9 90 -12 l37 -6 0 56 0 56 -90 0
-90 0 0 -44z"></path>
<path d="M2940 1521 l0 -70 100 2 100 2 0 67 0 68 -100 0 -100 0 0 -69z"></path>
<path d="M3190 1513 c1 -68 4 -82 25 -108 l25 -30 0 108 0 107 -25 0 c-25 0
-25 -1 -25 -77z"></path>
<path d="M3320 1530 l0 -60 43 6 c80 13 87 18 87 69 l0 45 -65 0 -65 0 0 -60z"></path>
<path d="M3492 1548 l3 -43 233 -3 232 -2 0 45 0 45 -236 0 -235 0 3 -42z"></path>
<path d="M4010 1535 c0 -48 2 -55 20 -55 18 0 20 7 20 55 0 48 -2 55 -20 55
-18 0 -20 -7 -20 -55z"></path>
<path d="M4147 1520 c-3 -39 -3 -133 0 -210 5 -123 8 -140 23 -140 17 0 25 54
47 338 l6 82 -35 0 -35 0 -6 -70z"></path>
<path d="M4345 1578 c-4 -16 -35 -345 -35 -381 0 -26 2 -27 60 -27 72 0 67
-23 43 238 -16 179 -17 182 -40 182 -13 0 -25 -6 -28 -12z"></path>
<path d="M2227 1328 c3 -24 7 -44 7 -45 1 -2 63 -4 137 -5 l134 -3 3 48 3 47
-145 0 -144 0 5 -42z"></path>
<path d="M3320 1325 l0 -45 50 0 50 0 0 45 0 45 -50 0 -50 0 0 -45z"></path>
<path d="M3047 1204 c-21 -21 -5 -34 44 -34 43 0 50 3 47 18 -2 12 -14 18 -43
20 -23 2 -44 0 -48 -4z"></path>
</g>
</svg>