 <svg version="1.0" xmlns="http://www.w3.org/2000/svg" id="mask" viewBox="0 0 700.000000 423.000000" preserveAspectRatio="xMidYMid meet">

<g transform="translate(0.000000,423.000000) scale(0.100000,-0.100000)">
<path d="M2940 2051 c0 -17 4 -18 30 -11 23 6 28 6 23 -3 -15 -24 -11 -37 12
-37 18 0 25 7 28 28 l4 27 2 -28 c1 -31 21 -28 21 4 0 20 15 23 60 10 19 -5
26 -15 31 -41 5 -32 6 -31 10 18 l4 52 -112 0 c-105 0 -113 -1 -113 -19z"></path>
<path d="M3181 2048 c1 -13 5 -34 9 -48 l8 -25 1 28 c1 32 5 33 41 7 29 -21
40 -18 40 13 0 16 -5 18 -27 13 -21 -5 -24 -4 -13 4 32 21 50 12 50 -27 0 -45
6 -40 18 15 l10 42 -69 0 c-65 0 -69 -1 -68 -22z"></path>
<path d="M3078 2010 c4 -29 22 -43 22 -17 0 7 7 4 15 -7 15 -20 15 -20 15 0 0
19 -31 54 -48 54 -5 0 -7 -13 -4 -30z"></path>
<path d="M3278 1723 c7 -3 16 -2 19 1 4 3 -2 6 -13 5 -11 0 -14 -3 -6 -6z"></path>
<path d="M3250 1690 c0 -5 5 -10 11 -10 5 0 7 5 4 10 -3 6 -8 10 -11 10 -2 0
-4 -4 -4 -10z"></path>
<path d="M3041 1613 c-1 -16 -7 -23 -21 -23 -11 0 -20 -7 -20 -16 0 -11 6 -14
20 -9 11 4 20 2 20 -4 0 -7 24 -11 63 -10 44 0 56 3 42 9 -17 7 -17 9 -2 9 12
1 17 9 16 29 -1 15 -3 20 -6 10 -8 -33 -89 -28 -103 6 -9 21 -9 21 -9 -1z"></path>
<path d="M3192 1610 c0 -14 2 -19 5 -12 2 6 2 18 0 25 -3 6 -5 1 -5 -13z"></path>
</g>
</svg>