 <svg version="1.0" xmlns="http://www.w3.org/2000/svg" id="mask" viewBox="0 0 700.000000 423.000000" preserveAspectRatio="xMidYMid meet">

<g transform="translate(0.000000,423.000000) scale(0.100000,-0.100000)">
<path d="M1620 2726 l0 -284 58 19 c223 71 505 168 512 175 5 5 12 77 16 161
7 145 6 152 -15 182 l-22 31 -275 0 -274 0 0 -284z"></path>
<path d="M5030 2790 c-96 -32 -424 -140 -727 -240 -501 -165 -553 -184 -554
-203 -1 -27 -99 -199 -116 -205 -7 -2 -17 8 -23 22 -10 27 -1 50 97 251 l34
70 230 76 c127 42 227 79 222 82 -4 2 -112 39 -239 81 -225 75 -231 76 -270
63 l-39 -14 38 -16 c35 -15 37 -18 37 -61 0 -38 -3 -46 -18 -46 -10 0 -144 42
-297 93 -265 88 -282 93 -315 81 -19 -7 -519 -173 -1109 -369 -591 -196 -1077
-357 -1079 -359 -2 -3 135 -5 304 -5 169 -1 311 -4 316 -7 6 -4 7 -25 4 -48
-3 -22 -7 -173 -8 -333 l-2 -293 -258 0 -258 0 0 -35 c0 -19 5 -35 10 -35 6 0
10 -9 10 -21 0 -20 4 -21 58 -15 199 20 628 29 1167 23 376 -3 596 -2 608 4
12 7 17 22 17 52 l0 42 -276 -3 -277 -3 7 38 c3 21 6 172 6 336 l0 297 253 0
c233 0 255 -1 270 -18 15 -16 17 -50 17 -276 0 -229 2 -256 15 -242 12 12 15
53 15 245 0 142 -4 232 -10 236 -6 4 -10 75 -10 181 0 114 3 173 10 169 6 -4
10 10 10 34 l0 40 128 42 128 42 134 -45 135 -45 0 -149 0 -149 -252 -3 c-154
-1 -253 -6 -253 -12 0 -6 99 -11 253 -12 l252 -3 3 -274 2 -273 25 5 c14 2 28
1 31 -4 2 -4 11 -6 19 -2 8 3 15 0 15 -7 0 -6 4 -9 9 -5 5 3 13 0 16 -5 4 -7
26 -9 56 -6 57 6 69 12 69 32 0 19 29 18 36 -1 7 -17 44 -21 44 -4 0 26 70
-16 70 -43 1 -9 4 -9 13 3 15 19 44 21 51 2 5 -11 10 -11 31 3 30 19 41 14 26
-13 -14 -27 -3 -104 17 -119 15 -11 15 -14 -3 -34 -16 -17 -17 -24 -7 -38 7
-9 17 -27 24 -39 11 -22 17 -23 135 -23 l123 0 -1 138 c-1 75 -4 263 -8 417
-4 154 -5 286 -3 293 3 9 205 12 966 12 l961 0 2 -208 c1 -114 5 -305 9 -424
l6 -218 109 0 109 0 0 50 c0 30 4 50 11 50 8 0 9 104 3 393 -4 215 -8 417 -9
447 l0 55 80 22 c115 31 78 30 -62 -2 -18 -4 -23 -1 -23 14 0 21 13 26 120 50
62 14 63 14 58 -14 -4 -17 -1 -25 8 -25 9 0 14 11 14 29 0 20 6 31 18 33 9 2
-19 16 -63 30 -580 192 -1309 428 -1318 427 -7 0 -91 -27 -187 -59z m-2171
-331 c14 -40 15 -369 1 -369 -5 0 -14 9 -20 19 -12 24 -14 381 -1 381 5 0 14
-14 20 -31z m1021 -445 c0 -181 -2 -205 -16 -211 -10 -4 -22 0 -29 10 -10 14
-14 15 -33 1 -17 -12 -51 -14 -169 -12 l-148 3 -3 163 -2 162 154 0 c124 0
156 3 166 15 7 8 16 12 21 9 5 -3 9 2 9 11 0 22 30 66 41 59 5 -3 9 -97 9
-210z m2416 33 c-4 -20 -15 -46 -25 -56 -27 -27 -51 -8 -61 48 -7 37 -4 46 17
71 l24 30 26 -28 c21 -22 24 -33 19 -65z m-2144 61 c21 -25 19 -80 -5 -118
-22 -36 -42 -17 -52 50 -5 35 -2 50 12 67 22 28 21 28 45 1z"></path>
<path d="M4330 1985 l0 -65 190 0 190 0 0 65 0 65 -190 0 -190 0 0 -65z"></path>
<path d="M4760 1985 l0 -65 190 0 190 0 0 65 0 65 -190 0 -190 0 0 -65z"></path>
<path d="M5198 1985 l4 -65 190 0 190 0 -6 23 c-3 12 -6 41 -6 65 l0 42 -187
0 -188 0 3 -65z"></path>
<path d="M5630 1985 l0 -65 190 0 190 0 0 65 0 65 -190 0 -190 0 0 -65z"></path>
<path d="M2844 1855 c0 -82 2 -115 3 -72 2 43 2 110 0 150 -1 40 -3 5 -3 -78z"></path>
<path d="M4335 1852 c-3 -3 -5 -34 -5 -69 l0 -63 190 0 190 0 0 71 0 70 -185
-2 c-102 -1 -187 -4 -190 -7z"></path>
<path d="M4762 1793 l3 -68 184 -3 c105 -1 189 2 194 7 5 5 6 35 2 70 l-7 61
-189 0 -190 0 3 -67z"></path>
<path d="M5200 1790 l0 -70 190 0 190 0 0 70 0 70 -190 0 -190 0 0 -70z"></path>
<path d="M5630 1796 c0 -36 4 -67 8 -70 5 -3 93 -2 195 1 l187 6 0 41 c0 91
12 86 -201 86 l-189 0 0 -64z"></path>
<path d="M5333 1663 l-133 -4 0 -64 0 -65 195 0 196 0 -3 68 -3 67 -60 1 c-33
0 -120 -1 -192 -3z"></path>
<path d="M5640 1600 l0 -70 190 0 190 0 0 70 0 70 -190 0 -190 0 0 -70z"></path>
<path d="M4330 1590 l0 -70 195 0 195 0 0 70 0 70 -195 0 -195 0 0 -70z"></path>
<path d="M4770 1590 l0 -70 188 2 187 3 3 68 3 67 -191 0 -190 0 0 -70z"></path>
<path d="M4770 1400 l0 -70 190 0 190 0 0 70 0 70 -190 0 -190 0 0 -70z"></path>
<path d="M5209 1466 c-2 -2 -2 -34 -1 -70 l4 -66 189 0 189 0 0 70 0 70 -188
0 c-104 0 -191 -2 -193 -4z"></path>
<path d="M5642 1403 l3 -68 193 -3 192 -2 0 70 0 70 -195 0 -196 0 3 -67z"></path>
<path d="M4332 1393 l3 -68 190 0 190 0 3 68 3 67 -196 0 -196 0 3 -67z"></path>
</g>
</svg>