 <svg version="1.0" xmlns="http://www.w3.org/2000/svg" viewBox="0 0 700.000000 423.000000" preserveAspectRatio="xMidYMid meet" id="mask">

<g transform="translate(0.000000,423.000000) scale(0.100000,-0.100000)">
<path d="M260 3170 c0 -53 3 -70 14 -70 7 0 28 -3 45 -6 l31 -6 0 76 0 76 -45
0 -45 0 0 -70z"></path>
<path d="M458 2635 c-1 -322 -3 -618 -3 -657 l0 -73 35 -5 c27 -4 36 -10 38
-27 2 -16 -2 -23 -13 -23 -12 0 -15 -5 -9 -22 27 -88 28 -68 37 466 l9 538
-21 29 c-11 15 -21 30 -21 33 0 2 24 10 53 17 55 12 211 3 652 -37 88 -7 177
-14 198 -14 l37 0 0 130 c0 72 -3 130 -7 130 -14 0 -395 39 -682 70 -157 16
-288 30 -293 30 -4 0 -9 -263 -10 -585z"></path>
<path d="M1540 3045 c0 -36 3 -65 8 -65 4 0 79 -6 167 -14 88 -7 175 -14 193
-15 l32 -1 0 60 c0 33 -1 60 -3 60 -2 0 -90 9 -197 20 -107 11 -195 20 -197
20 -2 0 -3 -29 -3 -65z"></path>
<path d="M2020 2863 c0 -110 -3 -321 -7 -470 l-6 -270 72 -7 c40 -4 93 -14
119 -21 25 -8 47 -13 48 -12 1 1 5 216 9 478 l7 476 -74 7 c-40 4 -94 9 -120
13 l-48 6 0 -200z"></path>
<path d="M2431 3049 c-24 -5 -45 -10 -46 -11 -2 -2 -5 -119 -7 -260 l-4 -258
73 0 73 0 0 270 0 270 -22 -1 c-13 -1 -43 -5 -67 -10z"></path>
<path d="M2576 3053 c-3 -4 -6 -28 -6 -55 0 -57 -4 -56 143 -29 154 28 158 55
11 71 -49 6 -101 12 -115 15 -15 2 -29 1 -33 -2z"></path>
<path d="M2880 2568 l0 -454 110 -1 110 -2 0 444 0 443 -32 6 c-18 3 -68 8
-110 12 l-78 7 0 -455z"></path>
<path d="M1422 2827 c-21 -22 -23 -31 -20 -135 l3 -111 23 17 c22 17 23 23 20
136 l-3 118 -23 -25z"></path>
<path d="M1390 2300 c0 -110 2 -200 5 -200 2 0 16 5 30 12 l25 11 0 155 c0
139 -2 158 -21 188 -11 19 -25 34 -30 34 -5 0 -9 -85 -9 -200z"></path>
<path d="M2374 2123 c3 -43 10 -163 16 -268 13 -235 26 -321 52 -347 13 -13
23 -17 30 -10 17 17 48 360 48 535 l0 167 -76 0 -76 0 6 -77z"></path>
<path d="M1397 1703 c-8 -8 -9 -43 -2 -43 12 0 55 33 55 41 0 10 -43 12 -53 2z"></path>
<path d="M1477 1692 c-21 -23 -23 -92 -3 -92 19 0 22 6 30 63 8 50 0 59 -27
29z"></path>
<path d="M1558 1663 c-16 -2 -28 -8 -28 -13 0 -5 -3 -15 -6 -24 -5 -14 4 -16
65 -16 l71 0 0 30 c0 28 -2 30 -37 29 -21 -1 -50 -4 -65 -6z"></path>
<path d="M1690 1635 c0 -41 13 -44 54 -12 35 29 28 47 -20 47 -32 0 -34 -2
-34 -35z"></path>
<path d="M1434 1649 c-3 -6 -1 -16 5 -22 8 -8 11 -5 11 11 0 24 -5 28 -16 11z"></path>
<path d="M450 1521 l0 -131 30 0 c23 0 31 5 36 25 4 15 1 32 -6 40 -9 11 -9
19 -2 28 8 9 5 33 -12 87 -35 115 -46 103 -46 -49z"></path>
<path d="M1390 1610 c0 -5 7 -10 16 -10 8 0 12 5 9 10 -3 6 -10 10 -16 10 -5
0 -9 -4 -9 -10z"></path>
<path d="M1744 1589 c-7 -12 22 -46 32 -37 8 9 -5 48 -16 48 -5 0 -12 -5 -16
-11z"></path>
<path d="M2582 1565 c-23 -50 -16 -63 38 -70 34 -5 54 -13 61 -26 7 -14 21
-19 49 -19 58 0 53 27 -17 89 -68 60 -112 68 -131 26z"></path>
<path d="M2700 1576 c0 -2 11 -11 25 -20 24 -16 25 -16 25 4 0 15 -7 20 -25
20 -14 0 -25 -2 -25 -4z"></path>
<path d="M2770 1562 c0 -5 5 -34 11 -65 17 -82 39 -77 39 8 0 63 -1 65 -25 65
-14 0 -25 -4 -25 -8z"></path>
<path d="M267 1523 c-4 -3 -7 -37 -7 -75 l0 -69 43 3 42 3 3 73 3 72 -39 0
c-21 0 -42 -3 -45 -7z"></path>
<path d="M1578 1463 c7 -3 16 -2 19 1 4 3 -2 6 -13 5 -11 0 -14 -3 -6 -6z"></path>
</g>
</svg>