 <svg version="1.0" xmlns="http://www.w3.org/2000/svg" viewBox="0 0 700.000000 423.000000" preserveAspectRatio="xMidYMid meet" id="mask">

<g transform="translate(0.000000,423.000000) scale(0.100000,-0.100000)">
<path d="M6765 3794 c-397 -76 -2597 -464 -2626 -464 -4 0 -9 -285 -10 -632
-5 -1177 -6 -1093 11 -1089 8 2 30 6 48 9 l32 4 0 794 c0 627 3 796 13 799 18
7 644 105 667 105 20 0 20 -6 20 -715 l0 -715 68 -1 c37 0 92 -2 122 -3 30 -2
152 -7 270 -11 191 -7 219 -6 255 10 44 18 212 32 242 20 10 -5 24 -7 30 -6 7
1 39 -12 72 -28 l60 -29 248 -7 c255 -7 306 -14 319 -43 5 -13 9 -7 15 23 17
87 19 85 -73 85 -125 0 -130 3 -126 60 l3 48 -50 6 c-27 3 -155 6 -282 6
l-233 0 0 430 c0 237 1 430 3 430 116 14 655 56 661 53 4 -3 7 -166 5 -362
l-4 -356 59 2 c36 1 65 8 75 18 22 19 26 19 46 -1 12 -12 43 -18 120 -21 l104
-6 5 -71 c3 -39 8 -108 11 -153 l5 -83 -111 0 -112 0 7 -82 c10 -119 20 -148
66 -193 53 -51 67 -102 44 -151 -9 -19 -28 -43 -41 -51 -21 -14 -22 -18 -9
-25 9 -5 24 -5 35 2 20 10 91 14 91 5 0 -3 -6 -21 -14 -39 l-14 -34 54 -4 54
-3 0 1246 0 1247 -22 6 c-13 3 -25 5 -28 5 -3 -1 -86 -17 -185 -35z m-1050
-1354 l0 -415 -275 4 c-151 2 -278 5 -282 8 -5 2 -8 179 -8 394 l0 389 28 1
c15 0 115 8 222 19 107 10 222 17 255 16 l60 -1 0 -415z"></path>
<path d="M0 2400 l0 -1330 43 0 c23 0 48 4 54 8 10 6 13 269 15 1238 l3 1229
45 -2 c25 -1 412 -51 860 -112 448 -60 1148 -153 1555 -206 407 -52 752 -98
768 -101 l27 -6 0 -688 c0 -563 2 -690 13 -697 10 -6 13 -31 13 -88 l-1 -80
105 -5 c146 -7 154 -5 173 39 10 21 17 43 17 49 0 8 25 12 75 12 l75 0 0 95
c0 76 3 97 15 101 12 5 15 25 15 96 0 49 -5 98 -10 109 -6 10 -7 19 -2 19 19
0 33 336 31 763 -1 240 -5 437 -8 437 -3 0 -86 -14 -183 -31 l-177 -32 -393
57 c-1339 194 -3068 446 -3095 451 l-33 6 0 -1331z m3790 -100 c6 -11 8 -20 6
-20 -3 0 -10 9 -16 20 -6 11 -8 20 -6 20 3 0 10 -9 16 -20z m-10 -55 c0 -8 -4
-15 -10 -15 -5 0 -7 7 -4 15 4 8 8 15 10 15 2 0 4 -7 4 -15z m45 -45 c3 -5 1
-10 -4 -10 -6 0 -11 5 -11 10 0 6 2 10 4 10 3 0 8 -4 11 -10z m-91 -55 c9 -19
21 -35 26 -35 6 0 10 -7 10 -15 0 -17 -2 -18 -24 -9 -9 3 -16 14 -16 24 0 10
-5 20 -12 22 -13 5 -22 48 -9 48 5 0 16 -16 25 -35z m-49 15 c3 -5 -1 -10 -9
-10 -8 0 -18 5 -21 10 -3 6 1 10 9 10 8 0 18 -4 21 -10z m115 -40 c0 -5 -2
-10 -4 -10 -3 0 -8 5 -11 10 -3 6 -1 10 4 10 6 0 11 -4 11 -10z m60 -23 c0 -5
-4 -5 -10 -2 -5 3 -10 14 -10 23 0 15 2 15 10 2 5 -8 10 -19 10 -23z"></path>
<path d="M3620 1446 c0 -46 3 -56 25 -70 l25 -16 0 70 c0 68 -1 70 -25 70 -24
0 -25 -3 -25 -54z"></path>
<path d="M3710 1413 c0 -42 2 -74 4 -72 9 11 15 149 6 149 -6 0 -10 -32 -10
-77z"></path>
<path d="M3760 1411 l0 -79 56 -7 c31 -4 57 -5 58 -3 2 2 6 40 9 86 l6 82 -64
0 -65 0 0 -79z"></path>
<path d="M6660 1085 l0 -124 33 -5 c43 -8 186 -26 198 -26 5 0 9 58 9 134 l0
133 -52 7 c-29 3 -83 6 -120 6 l-68 0 0 -125z"></path>
<path d="M6950 1065 c0 -75 4 -135 9 -135 38 0 41 10 41 141 l0 129 -25 0 -25
0 0 -135z"></path>
</g>
</svg>