 <svg version="1.0" xmlns="http://www.w3.org/2000/svg" viewBox="0 0 700.000000 423.000000" preserveAspectRatio="xMidYMid meet" id="mask">

<g transform="translate(0.000000,423.000000) scale(0.100000,-0.100000)">
<path d="M0 3980 c0 -169 3 -250 11 -250 5 0 193 -27 417 -60 757 -111 1704
-249 2232 -325 289 -42 600 -87 691 -100 l166 -25 169 30 c210 37 203 37 203
3 0 -16 0 -230 1 -478 0 -247 -3 -515 -6 -595 -5 -120 -4 -153 10 -193 9 -26
16 -55 15 -65 -1 -9 -7 1 -14 23 l-13 40 -1 -62 -1 -62 48 -3 47 -3 -1 -141
-1 -142 39 -5 c29 -4 49 0 73 14 l32 19 7 813 c4 446 7 835 6 864 -1 47 2 53
22 58 13 3 183 32 378 65 578 98 1169 203 2043 361 213 39 397 67 407 64 19
-6 20 0 20 199 l0 206 -496 0 -495 0 -262 -64 c-273 -66 -1457 -356 -1966
-481 l-294 -72 -66 13 c-36 8 -230 45 -431 84 -739 143 -1336 261 -1360 269
-27 9 -36 4 334 177 l148 69 -431 3 -432 2 -112 -67 -112 -66 -310 63 -310 64
-202 4 -203 3 0 -251z m3977 -1492 c-3 -8 -6 -5 -6 6 -1 11 2 17 5 13 3 -3 4
-12 1 -19z m93 -218 c0 -5 -4 -10 -9 -10 -5 0 -13 -9 -16 -21 -4 -11 -9 -18
-11 -16 -7 7 18 57 28 57 4 0 8 -4 8 -10z m-135 -20 c3 -5 -1 -10 -9 -10 -9 0
-16 5 -16 10 0 6 4 10 9 10 6 0 13 -4 16 -10z m60 -129 c3 -5 1 -12 -5 -16 -5
-3 -10 1 -10 9 0 18 6 21 15 7z m22 -33 c-3 -7 -5 -2 -5 12 0 14 2 19 5 13 2
-7 2 -19 0 -25z m58 -98 c3 -5 1 -10 -4 -10 -6 0 -11 5 -11 10 0 6 2 10 4 10
3 0 8 -4 11 -10z m-119 -67 c-10 -10 -19 5 -10 18 6 11 8 11 12 0 2 -7 1 -15
-2 -18z m-39 -45 c-3 -8 -6 -5 -6 6 -1 11 2 17 5 13 3 -3 4 -12 1 -19z"></path>
<path d="M118 2313 l-3 -1238 -57 -3 -58 -3 0 -86 0 -86 56 7 c31 3 90 9 130
13 l74 6 0 182 0 183 111 8 112 9 12 43 13 42 -29 0 -29 0 -2 153 c0 83 -1
159 0 167 1 22 -30 122 -43 140 -7 8 -15 23 -18 33 -5 14 0 17 27 17 l33 0 6
407 c4 223 7 520 7 660 l0 253 23 0 c12 0 124 -11 247 -24 124 -13 322 -34
440 -46 118 -11 230 -23 248 -26 l32 -5 0 -255 0 -254 24 6 c13 3 27 1 30 -5
19 -30 26 0 28 117 l3 127 25 -1 c143 -9 193 -14 199 -21 4 -4 5 -128 3 -274
l-4 -266 -54 0 -54 0 -2 231 -2 231 -6 -230 -5 -230 -52 -3 -52 -3 -3 42 c-2
33 -7 43 -23 45 -10 2 -27 13 -37 26 -17 22 -18 19 -18 -128 l0 -152 40 10 39
10 3 61 3 61 170 -3 c94 -1 173 -5 178 -8 4 -2 7 -36 7 -75 l0 -71 46 7 c26 3
53 6 60 6 11 0 14 39 14 208 0 114 3 326 7 471 l6 263 76 -6 c42 -4 96 -9 120
-13 l44 -6 -4 -481 -4 -481 43 4 c24 1 50 -3 58 -9 12 -11 14 -2 14 59 0 46
-4 71 -11 71 -8 0 -9 12 -5 38 4 20 11 207 15 414 4 208 10 381 14 384 4 4 36
13 72 19 l65 13 0 -274 0 -274 33 0 c18 0 39 6 46 13 11 9 14 10 18 0 3 -7 9
-13 14 -13 5 0 9 66 9 150 0 137 2 150 19 160 49 26 51 21 53 -152 l2 -163 6
165 5 165 28 3 27 3 0 -165 c0 -101 4 -166 10 -166 6 0 11 67 12 168 4 232 23
214 24 -23 0 -99 6 -243 12 -319 11 -124 11 -141 -3 -148 -10 -6 -15 -24 -15
-58 0 -28 2 -50 4 -50 3 0 16 4 30 10 l26 10 0 453 c0 250 2 456 5 458 3 4
197 -15 213 -20 1 -1 2 -202 2 -448 l0 -448 45 -19 c26 -10 55 -16 70 -12 32
8 70 -10 84 -41 6 -13 11 -77 11 -141 0 -142 5 -164 34 -160 l21 3 3 684 c1
377 -2 689 -6 693 -5 5 -337 52 -738 104 -401 52 -945 123 -1209 159 -264 36
-649 87 -855 115 -206 27 -390 52 -407 55 l-33 6 -2 -1238z m240 849 l3 -73
-48 3 -48 3 -3 64 c-4 86 -2 89 50 82 l43 -6 3 -73z m1377 -67 c224 -22 205
-15 205 -84 0 -32 -2 -60 -5 -62 -6 -6 -393 26 -401 33 -3 3 -2 33 2 67 5 46
10 61 23 61 8 0 88 -7 176 -15z m953 -45 c139 -16 144 -17 140 -42 -3 -20 -16
-24 -125 -43 -68 -12 -125 -20 -128 -17 -10 10 -5 112 6 112 6 0 54 -5 107
-10z m-2398 -225 c0 -113 -2 -135 -15 -135 -13 0 -15 22 -15 135 0 113 2 135
15 135 13 0 15 -22 15 -135z m1553 9 l37 -7 0 -127 c0 -117 2 -128 18 -124 23
6 80 -30 94 -61 10 -23 6 -31 -50 -100 -40 -47 -62 -84 -62 -100 0 -24 -3 -25
-56 -25 l-57 0 7 77 c3 42 6 165 6 275 0 152 3 198 13 198 6 0 29 -3 50 -6z
m-346 -116 c-3 -8 -6 -5 -6 6 -1 11 2 17 5 13 3 -3 4 -12 1 -19z m408 -37 c3
-5 1 -12 -5 -16 -5 -3 -10 1 -10 9 0 18 6 21 15 7z m-1614 -593 c-1 -5 -1
-102 -1 -218 0 -180 -2 -210 -15 -210 -13 0 -15 31 -15 221 0 194 2 220 16
217 8 -2 15 -6 15 -10z m59 -633 l0 -75 -45 0 -45 0 0 75 0 75 45 0 45 0 0
-75z"></path>
<path d="M4555 3267 l-320 -52 -8 -370 c-4 -203 -6 -444 -5 -535 3 -151 5
-165 21 -162 9 2 17 -2 17 -8 0 -6 -4 -9 -9 -6 -22 14 -33 -25 -26 -90 6 -54
10 -67 28 -74 l22 -9 -22 0 c-23 -1 -23 -2 -23 -171 0 -151 2 -170 16 -170 17
0 17 25 -2 134 -7 36 -6 39 12 32 10 -4 44 -10 75 -13 l56 -6 6 33 c4 18 7
135 7 261 0 125 4 230 8 233 5 3 96 6 203 7 l194 1 3 -200 2 -200 48 -4 c26
-3 49 -3 52 -1 5 5 8 1101 3 1286 -4 121 -6 137 -21 136 -9 0 -161 -24 -337
-52z m255 -527 c0 -211 -2 -386 -4 -388 -3 -2 -26 -4 -53 -5 l-48 -2 0 385 0
385 45 6 c25 3 49 5 53 5 4 -1 8 -174 7 -386z m-130 -15 l0 -385 -65 2 -65 2
2 376 3 375 45 6 c25 3 53 7 63 7 16 2 17 -22 17 -383z m-150 -10 l0 -375 -59
0 -59 0 -7 213 c-3 116 -5 282 -3 367 l3 155 30 6 c17 4 45 7 63 8 l32 1 0
-375z m-220 -554 c0 -5 -7 -11 -14 -14 -10 -4 -13 -1 -9 9 6 15 23 19 23 5z"></path>
<path d="M2521 2068 c1 -115 3 -125 10 -75 5 32 10 86 12 120 3 55 6 62 25 65
35 5 25 22 -13 22 l-35 0 1 -132z"></path>
<path d="M2612 1893 c-2 -222 0 -263 12 -263 8 0 28 -12 45 -26 18 -15 40 -24
54 -22 23 3 23 4 13 58 l-11 54 -50 11 -50 10 -3 165 c-4 281 -8 286 -10 13z"></path>
<path d="M2562 2080 c0 -19 2 -27 5 -17 2 9 2 25 0 35 -3 9 -5 1 -5 -18z"></path>
<path d="M2537 1860 c-20 -200 -22 -299 -7 -284 11 11 34 365 28 425 -2 19
-11 -45 -21 -141z"></path>
<path d="M2576 1883 c-4 -71 -9 -156 -12 -190 -5 -53 -3 -63 10 -63 14 0 16
24 16 190 0 105 -2 190 -4 190 -2 0 -7 -57 -10 -127z"></path>
<path d="M1548 1699 c-34 -19 -18 -29 47 -29 58 0 65 2 65 20 0 17 -7 20 -47
20 -27 0 -56 -5 -65 -11z"></path>
<path d="M1690 1691 c0 -17 6 -21 36 -21 28 0 35 3 32 18 -2 11 -14 18 -36 20
-27 3 -32 0 -32 -17z"></path>
<path d="M2754 1648 c8 -58 11 -63 44 -73 23 -7 23 -6 17 42 -10 76 -14 83
-42 83 -25 0 -25 -1 -19 -52z"></path>
<path d="M2618 1593 c7 -3 16 -2 19 1 4 3 -2 6 -13 5 -11 0 -14 -3 -6 -6z"></path>
<path d="M2520 1510 c0 -5 5 -10 11 -10 5 0 7 5 4 10 -3 6 -8 10 -11 10 -2 0
-4 -4 -4 -10z"></path>
<path d="M2821 1479 c-1 -21 -7 -39 -14 -42 -20 -8 -9 -65 15 -78 11 -6 22 -9
24 -6 3 2 -2 40 -10 83 -10 55 -14 68 -15 43z"></path>
<path d="M3888 1403 l-3 -87 -45 2 c-25 2 -54 4 -65 5 -17 2 -20 -5 -23 -47
-2 -32 1 -52 10 -57 23 -14 139 -22 151 -10 6 6 24 11 39 11 37 0 36 16 -2 24
-28 5 -30 8 -30 53 0 27 3 65 6 85 6 32 10 37 38 40 27 3 31 7 34 36 l3 32
-55 0 -55 0 -3 -87z"></path>
<path d="M1467 1436 c10 -13 20 -20 21 -15 7 17 -7 39 -23 39 -14 0 -14 -3 2
-24z"></path>
<path d="M1574 1452 c-6 -4 -16 -22 -22 -39 l-11 -33 40 0 40 0 -3 37 c-3 38
-21 52 -44 35z"></path>
<path d="M1680 1449 c0 -5 5 -7 10 -4 6 3 10 8 10 11 0 2 -4 4 -10 4 -5 0 -10
-5 -10 -11z"></path>
<path d="M1777 1453 c-2 -5 -7 -20 -11 -35 -5 -21 -3 -28 9 -28 11 0 15 10 15
35 0 34 -4 43 -13 28z"></path>
<path d="M2692 1413 c3 -36 5 -38 46 -44 l42 -5 0 32 c0 37 -21 54 -65 54 -24
0 -26 -3 -23 -37z"></path>
<path d="M1416 1417 c-10 -40 -7 -47 24 -47 34 0 34 0 19 34 -16 34 -36 40
-43 13z"></path>
<path d="M1705 1417 c-4 -10 -5 -21 -1 -24 10 -10 18 4 13 24 -4 17 -4 17 -12
0z"></path>
<path d="M531 1374 c0 -11 3 -14 6 -6 3 7 2 16 -1 19 -3 4 -6 -2 -5 -13z"></path>
<path d="M3707 1334 c-10 -10 -9 -102 2 -108 11 -7 23 96 13 106 -5 5 -11 5
-15 2z"></path>
<path d="M3578 1243 c6 -2 18 -2 25 0 6 3 1 5 -13 5 -14 0 -19 -2 -12 -5z"></path>
<path d="M6656 913 c-3 -21 -8 -56 -12 -79 l-6 -41 109 -17 c59 -9 118 -19
131 -22 22 -4 22 -2 22 84 l0 89 -94 11 c-144 18 -143 18 -150 -25z"></path>
<path d="M6973 932 c-22 -3 -23 -8 -23 -93 0 -83 1 -89 20 -89 28 0 31 14 28
106 -3 76 -4 79 -25 76z"></path>
</g>
</svg>