 <svg version="1.0" xmlns="http://www.w3.org/2000/svg" viewBox="0 0 700.000000 423.000000" preserveAspectRatio="xMidYMid meet" id="mask">

<g transform="translate(0.000000,423.000000) scale(0.100000,-0.100000)">
<path d="M0 2404 c0 -1257 3 -1575 13 -1571 6 2 85 28 174 58 126 41 163 57
163 71 0 9 -18 83 -40 165 -22 81 -51 189 -65 238 -13 50 -46 166 -74 260 -49
168 -50 170 -31 190 12 13 17 29 14 41 -5 20 0 21 82 27 48 3 91 10 95 14 4 4
4 265 -1 578 -14 873 -14 1029 -3 1032 6 2 199 -82 430 -187 l420 -192 6 -246
c4 -136 7 -448 7 -694 0 -404 2 -448 16 -456 19 -11 11 -32 -12 -32 -8 0 -17
-13 -20 -29 -7 -35 28 -26 -364 -92 -173 -28 -317 -53 -319 -55 -2 -2 2 -25 9
-52 11 -47 14 -51 51 -60 50 -13 112 0 305 61 227 72 283 79 327 40 9 -9 17
-24 17 -33 0 -21 -31 -50 -53 -50 -13 0 -15 -5 -8 -22 19 -52 -46 -107 -92
-79 -27 17 -38 -1 -35 -59 l3 -45 100 3 c55 2 104 7 109 12 14 14 18 521 9
1334 l-8 749 -235 127 c-129 69 -403 217 -608 328 -205 111 -375 202 -377 202
-3 0 -5 -709 -5 -1576z"></path>
<path d="M312 1739 c-11 -17 -10 -29 5 -72 l18 -52 3 64 c3 70 -6 92 -26 60z"></path>
<path d="M385 1489 c12 -38 44 -105 44 -94 1 26 -26 109 -38 113 -10 3 -11 -2
-6 -19z"></path>
<path d="M1082 1458 c6 -18 28 -21 28 -4 0 9 -7 16 -16 16 -9 0 -14 -5 -12
-12z"></path>
<path d="M545 1340 c-7 -12 19 -12 55 0 22 7 21 8 -12 9 -20 1 -40 -3 -43 -9z"></path>
<path d="M765 1316 c-196 -54 -205 -56 -205 -64 0 -10 39 -144 43 -148 1 -2
24 7 50 21 26 13 79 32 117 41 60 16 70 22 75 44 3 14 19 46 35 70 32 48 38
70 18 69 -7 0 -67 -15 -133 -33z"></path>
<path d="M395 1193 c8 -26 24 -82 36 -123 25 -88 40 -111 32 -49 -8 63 -56
212 -70 216 -9 3 -9 -8 2 -44z"></path>
</g>
</svg>