 <svg version="1.0" xmlns="http://www.w3.org/2000/svg" viewBox="0 0 700.000000 423.000000" preserveAspectRatio="xMidYMid meet" id="mask">

<g transform="translate(0.000000,423.000000) scale(0.100000,-0.100000)">
<path d="M2191 2523 l-764 -3 7 -68 c15 -144 27 -272 36 -377 4 -60 13 -126
19 -145 6 -19 11 -71 11 -115 0 -62 7 -98 29 -160 37 -106 151 -405 162 -427
5 -9 24 -18 42 -20 32 -3 32 -3 29 -53 -2 -39 2 -53 17 -65 12 -9 31 -55 49
-120 l30 -105 73 -8 c41 -4 119 -6 174 -5 l100 3 6 293 c4 161 8 294 10 295
30 22 134 77 145 77 8 0 14 1 15 3 5 25 32 174 37 207 7 45 7 45 50 48 l43 3
-7 293 -7 293 54 6 c30 4 174 7 322 7 l267 0 0 -56 c0 -47 3 -57 20 -61 14 -4
20 -14 20 -34 0 -51 18 -79 64 -99 52 -24 66 -39 69 -76 2 -27 -1 -29 -48 -36
-27 -4 -65 -10 -82 -13 l-33 -6 0 -139 0 -139 -157 -3 -158 -3 0 -80 0 -80 57
-5 c31 -3 63 -11 70 -18 6 -6 20 -12 30 -12 15 0 18 9 18 63 0 69 -3 65 75 97
21 8 31 8 33 1 2 -6 15 -11 28 -11 53 0 64 -15 64 -85 l0 -65 35 0 c24 0 44 9
67 30 31 28 32 29 11 30 -17 0 -23 6 -23 23 0 13 5 28 11 34 12 12 58 186 59
221 0 13 -7 40 -17 59 -10 22 -13 37 -6 41 17 12 23 171 9 237 -15 66 -8 85
29 85 20 0 24 7 30 55 3 31 11 55 18 55 169 3 2232 -2 2236 -5 2 -3 7 -24 10
-48 5 -34 10 -43 28 -45 28 -4 41 -45 23 -67 -11 -13 -11 -24 0 -58 14 -48 16
-169 2 -193 -6 -11 -7 11 -4 60 3 47 1 76 -5 76 -6 0 -13 -34 -16 -76 -5 -66
-3 -79 14 -97 21 -23 25 -52 8 -62 -12 -8 -2 -254 11 -269 10 -10 1 -77 -11
-91 -5 -5 -9 -34 -10 -65 -1 -42 -3 -49 -9 -30 l-8 25 -1 -27 c-1 -16 3 -28 7
-28 5 0 14 -11 20 -24 6 -15 27 -30 54 -39 24 -8 71 -25 106 -38 49 -17 80
-38 138 -92 89 -83 111 -119 155 -254 l34 -103 393 0 392 0 0 845 0 845 -2022
-2 c-1113 -2 -2367 -4 -2787 -5z"></path>
<path d="M5700 2250 c6 -11 13 -20 15 -20 3 0 5 9 5 20 0 11 -7 20 -15 20 -13
0 -14 -4 -5 -20z"></path>
<path d="M2642 1712 l-123 -3 7 -37 c16 -83 18 -87 57 -90 32 -3 37 -7 37 -28
0 -33 23 -40 64 -20 19 9 53 16 75 16 l42 0 -3 82 c-2 64 -6 81 -18 82 -8 1
-70 0 -138 -2z"></path>
<path d="M5691 1644 c0 -11 3 -14 6 -6 3 7 2 16 -1 19 -3 4 -6 -2 -5 -13z"></path>
</g>
</svg>