 <svg version="1.0" xmlns="http://www.w3.org/2000/svg" viewBox="0 0 700.000000 423.000000" preserveAspectRatio="xMidYMid meet" id="mask">

<g transform="translate(0.000000,423.000000) scale(0.100000,-0.100000)">
<path d="M855 4219 c11 -5 94 -38 185 -72 l165 -62 5 -57 c3 -31 7 -58 10 -60
27 -18 52 -28 60 -23 14 9 23 -35 10 -50 -9 -11 -9 -35 0 -102 13 -96 25 -208
39 -348 5 -49 14 -112 20 -140 14 -70 29 -218 64 -627 6 -80 14 -148 17 -150
3 -3 1257 -3 2788 0 l2782 4 0 849 0 849 -3082 -1 c-1980 0 -3076 -4 -3063
-10z m3805 -1369 l0 -280 -222 0 -221 0 6 143 c4 78 7 204 7 280 l0 137 215 0
215 0 0 -280z m593 173 c4 -58 7 -184 7 -278 l0 -172 -52 -7 c-29 -4 -128 -4
-220 0 l-168 7 0 278 0 279 213 0 214 0 6 -107z m589 -103 c1 -115 3 -241 3
-279 l0 -70 -215 -3 -215 -3 -3 283 -2 282 215 0 215 0 2 -210z"></path>
<path d="M1 3687 c2 -503 3 -525 15 -402 23 233 27 346 19 637 -6 230 -10 288
-21 292 -12 5 -14 -77 -13 -527z"></path>
<path d="M1 732 l-1 -722 70 51 c38 28 72 54 75 59 3 4 -2 210 -11 456 -12
341 -19 461 -31 499 -9 28 -35 124 -58 215 l-43 165 -1 -723z"></path>
</g>
</svg>