 <svg version="1.0" xmlns="http://www.w3.org/2000/svg" viewBox="0 0 700.000000 423.000000" preserveAspectRatio="xMidYMid meet" id="mask">

<g transform="translate(0.000000,423.000000) scale(0.100000,-0.100000)">
<path d="M1860 838 c0 -26 23 -95 52 -160 l31 -68 128 0 c151 0 142 -10 137
140 l-3 95 -172 3 c-135 2 -173 0 -173 -10z"></path>
<path d="M6226 813 c3 -16 20 -70 36 -120 l30 -93 354 0 354 0 0 120 0 120
-390 0 -390 0 6 -27z"></path>
<path d="M2276 683 c-11 -69 -9 -73 29 -73 l35 0 0 55 c0 54 -1 55 -29 55 -25
0 -29 -4 -35 -37z"></path>
<path d="M2386 683 c-12 -77 -18 -73 103 -73 l109 0 16 47 c9 26 16 50 16 55
0 4 -53 8 -119 8 l-118 0 -7 -37z"></path>
<path d="M76 63 l-77 -58 87 -3 c47 -2 87 -2 88 0 5 9 -7 118 -13 118 -4 0
-42 -26 -85 -57z"></path>
</g>
</svg>