 <svg version="1.0" xmlns="http://www.w3.org/2000/svg" viewBox="0 0 700.000000 423.000000" preserveAspectRatio="xMidYMid meet" id="mask">

<g transform="translate(0.000000,423.000000) scale(0.100000,-0.100000)">
<path d="M3144 3123 l-482 -3 -158 -154 -159 -153 -3 -392 -4 -391 44 0 c24 0
49 5 55 11 8 8 13 8 17 0 4 -7 41 -11 90 -11 46 0 87 5 93 11 8 8 13 8 17 0 9
-14 173 -15 181 -1 5 8 11 8 19 1 16 -14 366 -14 382 0 8 7 14 7 19 -1 7 -11
185 -14 185 -2 0 4 222 6 492 5 271 -1 500 0 508 4 8 3 32 5 53 4 l37 -3 0
389 0 388 -160 153 -160 152 -293 -2 c-160 -2 -509 -4 -773 -5z m666 -157 c0
-7 -7 -19 -15 -26 -12 -10 -15 -37 -15 -126 l0 -113 158 -3 157 -3 3 -296 2
-296 -181 -6 c-100 -4 -400 -7 -666 -7 l-483 0 0 300 0 300 160 0 160 0 0 118
c0 108 -2 121 -21 138 -21 19 -21 19 72 25 52 3 223 6 382 7 238 2 287 0 287
-12z"></path>
<path d="M5093 2891 c-176 -171 -193 -190 -193 -222 0 -19 -7 -43 -15 -53 -12
-16 -15 -68 -15 -291 0 -197 3 -274 12 -283 9 -9 9 -15 0 -24 -7 -7 -12 -20
-12 -30 0 -17 22 -18 415 -18 l415 0 0 359 0 359 -201 196 c-110 108 -204 196
-207 195 -4 0 -94 -84 -199 -188z m541 -240 c3 -4 -3 -16 -14 -26 -19 -17 -20
-32 -20 -240 0 -122 -3 -250 -6 -284 l-7 -61 -303 0 -304 0 0 284 c0 240 -2
285 -15 296 -8 7 -15 16 -15 21 0 5 120 10 268 12 147 1 299 3 339 5 39 1 74
-2 77 -7z"></path>
<path d="M890 2190 c0 -193 4 -320 9 -320 14 0 324 90 330 95 2 3 -26 5 -62 5
l-67 0 0 270 0 270 -105 0 -105 0 0 -320z"></path>
<path d="M1680 2305 c0 -113 3 -205 6 -205 6 0 269 80 497 152 l97 30 0 114 0
114 -300 0 -300 0 0 -205z"></path>
<path d="M4627 2423 c-4 -3 -7 -88 -7 -189 l0 -182 60 -1 60 0 0 190 0 189
-53 0 c-30 0 -57 -3 -60 -7z"></path>
<path d="M5760 2201 l0 -229 80 -20 80 -20 0 249 0 249 -80 0 -80 0 0 -229z"></path>
<path d="M890 1466 l0 -254 25 11 c31 15 41 37 15 37 -24 0 -23 37 2 43 16 5
18 21 18 186 0 150 -3 186 -16 206 -9 14 -23 25 -30 25 -12 0 -14 -44 -14
-254z"></path>
<path d="M4560 1380 c0 -225 3 -310 11 -310 8 0 10 -17 5 -55 l-6 -55 34 0
c33 0 63 19 34 21 -7 1 -2 4 12 8 18 5 24 13 23 30 -2 12 4 33 13 47 12 18 19
64 25 167 5 78 13 194 19 257 5 63 10 134 10 158 l0 42 -90 0 -90 0 0 -310z"></path>
<path d="M4890 1679 c0 -9 120 -10 469 -4 292 4 471 3 474 -3 4 -5 -5 -19 -18
-30 -24 -21 -25 -27 -25 -142 0 -129 2 -133 50 -105 14 8 35 14 48 15 13 0 45
9 72 21 47 20 50 24 61 75 9 38 17 53 27 52 8 -2 17 2 19 8 2 7 -7 12 -22 12
-35 0 -44 11 -21 28 19 13 19 14 -7 14 -22 0 -27 5 -27 23 0 13 5 28 12 35 9
9 -113 12 -550 12 -414 0 -562 -3 -562 -11z"></path>
<path d="M1010 1491 l0 -189 28 -10 27 -10 -27 -11 c-16 -6 -28 -17 -28 -26 0
-18 12 -19 28 -3 9 9 12 9 12 0 0 -13 36 -12 56 1 7 4 14 0 18 -8 3 -8 1 -15
-4 -15 -6 0 -10 -5 -10 -10 0 -6 11 -8 25 -4 27 7 35 -10 10 -20 -25 -9 -5
-36 26 -36 l29 0 0 227 0 227 -27 28 -27 28 278 0 c182 0 275 3 271 10 -4 6
-130 10 -346 10 l-339 0 0 -189z"></path>
<path d="M2360 1586 c0 -51 4 -86 10 -86 6 0 10 21 10 46 0 29 4 43 11 39 7
-5 9 8 7 36 -2 32 -8 45 -20 47 -16 3 -18 -6 -18 -82z"></path>
<path d="M4475 1324 c-5 -246 -4 -349 4 -357 8 -8 11 73 13 294 1 167 2 328 3
357 1 28 -1 52 -5 52 -4 0 -10 -156 -15 -346z"></path>
<path d="M4187 1642 c-15 -17 -17 -56 -17 -350 l0 -332 80 0 c44 0 80 2 80 5
0 3 -7 18 -16 33 l-16 27 21 -25 c11 -14 21 -28 21 -32 0 -14 30 -9 30 5 0 8
3 7 10 -3 10 -17 26 -6 32 23 5 27 23 20 21 -9 -1 -15 4 -24 13 -24 12 0 14
52 14 350 l0 350 -50 0 c-36 0 -52 -4 -56 -15 -5 -11 -22 -15 -65 -15 -46 0
-59 3 -59 15 0 21 -23 19 -43 -3z m113 -202 c0 -13 7 -20 20 -20 19 0 21 -5
18 -62 l-3 -63 -45 0 -45 0 -3 63 c-3 57 -1 62 18 62 13 0 20 7 20 20 0 11 5
20 10 20 6 0 10 -9 10 -20z"></path>
<path d="M2412 1303 l3 -348 140 0 140 0 3 329 c2 296 1 331 -14 348 -21 22
-50 24 -58 3 -4 -11 -20 -15 -55 -15 -31 0 -55 6 -65 15 -8 8 -32 15 -55 15
l-41 0 2 -347z m168 132 c5 -14 16 -25 25 -25 11 0 15 -12 15 -53 0 -57 -12
-77 -46 -77 -47 0 -54 9 -54 70 0 49 3 58 20 63 12 3 20 14 20 26 0 28 8 26
20 -4z"></path>
<path d="M2382 1471 c-17 -10 -12 -93 6 -99 8 -3 12 12 12 52 0 31 -1 56 -2
56 -2 0 -9 -4 -16 -9z"></path>
<path d="M2367 1283 c-4 -3 -7 -78 -7 -166 0 -88 3 -157 7 -153 21 21 33 92
33 204 0 95 -3 122 -13 122 -8 0 -17 -3 -20 -7z"></path>
<path d="M5790 1069 l0 -149 -399 0 c-256 0 -402 -4 -406 -10 -4 -7 165 -10
502 -9 279 1 495 4 479 8 -45 9 -42 27 3 24 l39 -2 1 144 2 144 -111 0 -110 0
0 -150z"></path>
<path d="M6032 1088 l3 -133 28 -3 27 -3 0 135 0 136 -30 0 -31 0 3 -132z"></path>
<path d="M1544 928 l-49 -33 104 -3 c109 -3 141 6 106 31 -10 8 -15 19 -11 25
5 9 -9 12 -46 12 -44 0 -63 -6 -104 -32z"></path>
<path d="M4170 904 c0 -8 5 -12 10 -9 6 3 10 10 10 16 0 5 -4 9 -10 9 -5 0
-10 -7 -10 -16z"></path>
<path d="M4210 905 c0 -8 9 -15 20 -15 11 0 20 7 20 15 0 8 -9 15 -20 15 -11
0 -20 -7 -20 -15z"></path>
<path d="M4270 904 c0 -8 5 -12 10 -9 6 3 10 10 10 16 0 5 -4 9 -10 9 -5 0
-10 -7 -10 -16z"></path>
<path d="M4311 904 c0 -11 3 -14 6 -6 3 7 2 16 -1 19 -3 4 -6 -2 -5 -13z"></path>
<path d="M4340 905 c0 -8 5 -15 10 -15 6 0 10 7 10 15 0 8 -4 15 -10 15 -5 0
-10 -7 -10 -15z"></path>
<path d="M4620 904 c0 -8 5 -12 10 -9 6 4 8 11 5 16 -9 14 -15 11 -15 -7z"></path>
</g>
</svg>