 <svg version="1.0" xmlns="http://www.w3.org/2000/svg" viewBox="0 0 700.000000 423.000000" preserveAspectRatio="xMidYMid meet" id="mask">

<g transform="translate(0.000000,423.000000) scale(0.100000,-0.100000)">
<path d="M3035 3689 c-594 -579 -882 -853 -910 -863 -14 -6 -25 -14 -25 -19 0
-4 28 -40 63 -78 34 -38 64 -74 65 -79 2 -6 -236 -10 -646 -10 -727 0 -922 -6
-922 -27 0 -7 7 -13 15 -13 8 0 15 -6 15 -13 0 -17 45 -42 59 -33 6 4 11 15
11 25 0 10 3 20 6 24 11 11 34 -5 34 -24 0 -11 7 -22 15 -25 13 -5 15 -54 15
-355 0 -205 4 -349 9 -349 41 0 41 -3 41 336 l0 324 110 0 110 0 1 -255 c1
-140 2 -261 3 -267 2 -19 119 -22 186 -6 l55 13 -105 5 -105 5 -3 238 -2 237
260 0 260 0 0 -196 c0 -152 3 -195 13 -192 9 4 13 57 15 210 l2 205 107 6 c58
4 193 7 299 7 l194 0 2 -242 3 -243 28 -3 28 -3 -2 386 -2 387 164 164 164
164 773 0 774 0 159 -151 159 -152 0 -388 0 -389 24 0 24 0 4 303 c2 220 6
308 16 324 7 13 29 27 52 33 24 6 40 17 40 26 0 8 7 17 15 20 8 4 15 17 15 30
0 17 6 24 19 24 11 0 23 5 26 10 3 6 -3 10 -13 10 -13 0 -260 231 -663 618
-353 339 -647 618 -653 619 -6 1 -186 -169 -401 -378z m632 -16 c124 -120 282
-273 352 -339 l126 -121 -345 -7 c-190 -4 -510 -6 -711 -4 l-366 3 351 342
c193 188 355 342 359 342 4 1 109 -97 234 -216z"></path>
<path d="M5003 2974 c-285 -278 -293 -287 -293 -325 l0 -39 55 0 55 0 0 -32 0
-33 -100 3 -100 3 0 -60 0 -61 64 0 c69 0 76 5 76 61 0 26 4 29 30 29 l30 0 0
-235 c0 -222 1 -235 18 -235 17 0 19 14 25 188 4 103 7 231 7 284 0 54 4 100
10 103 6 3 10 23 10 43 0 33 7 44 62 92 35 30 124 115 200 188 93 90 141 131
150 126 7 -4 102 -93 211 -198 l197 -190 0 -353 c0 -337 1 -353 19 -353 24 0
31 65 31 292 l0 169 83 -3 82 -3 -3 -247 c-3 -175 -1 -248 7 -248 8 0 11 74
11 241 0 166 4 247 12 262 6 12 14 38 18 57 7 43 40 56 40 16 0 -21 5 -26 24
-26 45 0 86 13 86 26 0 8 6 14 14 14 15 0 28 24 19 34 -4 3 -93 6 -200 6 -186
0 -193 1 -193 20 0 17 7 20 53 20 54 1 78 12 90 43 3 9 16 17 27 17 11 0 20 5
20 10 0 6 -7 10 -15 10 -9 0 -149 127 -311 283 -163 155 -304 283 -313 284
-10 2 -131 -110 -308 -283z"></path>
<path d="M3408 2973 c-192 -2 -348 -7 -348 -12 0 -5 7 -14 15 -21 12 -10 15
-38 15 -131 l0 -119 -160 0 -160 0 0 -302 0 -301 362 6 c199 4 496 7 660 7
l298 0 0 295 0 295 -155 0 -155 0 0 124 c0 98 3 126 15 136 23 19 18 30 -12
28 -16 -2 -184 -4 -375 -5z m332 -458 l0 -384 -301 -3 c-165 -2 -303 -1 -305
1 -2 2 -4 174 -4 382 l0 379 218 3 c119 1 256 3 305 5 l87 2 0 -385z m-652
-122 l2 -263 -140 0 -140 0 0 258 c0 142 3 262 7 266 4 3 66 5 137 4 l131 -3
3 -262z m970 5 l-3 -263 -142 -3 -143 -3 0 129 c0 71 3 190 7 265 l6 137 139
0 138 0 -2 -262z"></path>
<path d="M4950 2641 c0 -5 7 -14 15 -21 13 -11 15 -56 15 -296 l0 -284 305 0
305 0 0 282 0 282 28 23 27 22 -347 1 c-193 0 -348 -4 -348 -9z m610 -316 l0
-255 -275 0 -275 0 0 248 c0 137 3 252 7 255 3 4 127 7 275 7 l268 0 0 -255z"></path>
<path d="M4939 1811 c-6 -16 -19 -31 -30 -34 -14 -4 -19 -14 -19 -41 l0 -36
568 1 c312 1 552 5 534 9 -52 12 -65 31 -22 30 59 -1 75 3 88 19 12 14 13 13
8 -10 -7 -34 15 -54 49 -45 14 4 23 11 20 16 -4 7 -13 6 -25 0 -11 -6 -21 -6
-24 -1 -3 5 1 12 9 15 14 5 14 9 -2 33 l-17 28 22 -19 c12 -11 22 -16 22 -11
0 4 7 2 15 -5 13 -11 18 -10 29 6 8 10 12 24 9 31 -3 8 3 13 17 13 13 0 20 5
18 13 -4 9 -141 13 -632 15 l-627 2 -10 -29z"></path>
<path d="M739 1802 c5 -10 30 -28 55 -41 l46 -22 0 -240 c0 -210 2 -239 16
-239 11 0 14 -6 9 -20 -4 -11 -2 -20 4 -20 8 0 11 81 11 256 0 251 0 255 20
249 17 -5 20 -2 20 24 0 24 4 31 20 31 13 0 20 -7 20 -20 0 -10 5 -31 12 -45
l11 -25 355 2 355 3 4 63 5 62 -487 0 c-463 0 -485 -1 -476 -18z"></path>
<path d="M4428 1723 c-64 -4 -68 -5 -68 -28 0 -22 5 -24 53 -27 l52 -3 6 -50
6 -50 1 58 c1 31 7 57 12 57 6 0 10 -127 10 -360 l0 -360 25 0 25 0 2 368 3
367 97 3 c80 2 96 5 91 17 -5 15 -120 18 -315 8z"></path>
<path d="M2297 1706 c-3 -8 -3 -16 0 -19 3 -3 5 -51 5 -106 -1 -56 3 -101 8
-101 15 0 25 23 21 50 -3 24 -2 25 13 5 14 -19 15 -14 16 63 0 80 6 95 28 70
7 -8 29 -12 61 -10 43 3 51 7 51 23 0 24 -5 26 -111 34 -70 5 -88 3 -92 -9z"></path>
<path d="M3633 1713 c-266 -2 -483 -6 -483 -9 0 -14 25 -50 47 -67 12 -10 23
-25 23 -33 0 -12 68 -14 455 -14 l455 0 0 -315 c0 -273 2 -315 15 -315 13 0
15 44 15 333 0 361 -1 351 53 370 12 5 17 15 15 29 -4 27 66 25 -595 21z"></path>
<path d="M2630 1685 c0 -17 7 -28 23 -34 46 -18 47 -21 49 -367 2 -261 6 -329
16 -329 10 0 13 65 15 315 l2 315 73 3 72 3 0 32 c0 20 8 39 20 50 12 10 18
22 15 27 -4 6 -66 10 -146 10 l-139 0 0 -25z"></path>
<path d="M2980 1697 c0 -25 24 -37 72 -37 37 0 50 4 58 19 5 11 10 22 10 25 0
3 -31 6 -70 6 -51 0 -70 -4 -70 -13z"></path>
<path d="M4890 1635 l0 -35 435 0 435 0 0 -121 c0 -107 2 -120 15 -109 12 10
15 38 15 133 0 110 2 123 22 144 l21 23 -471 0 -472 0 0 -35z"></path>
<path d="M1178 1637 c21 -23 22 -31 22 -254 0 -193 2 -233 15 -243 13 -11 15
14 15 214 l0 226 241 0 c216 0 241 2 235 16 -3 9 -6 27 -6 40 l0 24 -272 0
-271 0 21 -23z"></path>
<path d="M6103 1510 c-19 -30 -16 -68 7 -80 11 -6 25 -8 30 -5 12 8 13 65 2
65 -5 0 -13 9 -18 20 -9 20 -9 20 -21 0z"></path>
<path d="M2347 1453 c-12 -11 -8 -40 8 -53 13 -11 15 -7 15 24 0 34 -8 44 -23
29z"></path>
<path d="M2304 1277 c-2 -7 -3 -82 -2 -167 l3 -155 25 0 25 0 3 168 2 167 -25
0 c-14 0 -28 -6 -31 -13z"></path>
<path d="M4464 1100 c0 -74 1 -105 3 -67 2 37 2 97 0 135 -2 37 -3 6 -3 -68z"></path>
<path d="M5750 1085 l0 -135 -354 0 c-194 0 -368 -3 -385 -6 -89 -18 6 -24
374 -24 l405 0 0 150 c0 143 -1 150 -20 150 -19 0 -20 -7 -20 -135z"></path>
<path d="M6091 1054 l2 -165 26 3 26 3 3 163 2 162 -30 0 -31 0 2 -166z"></path>
<path d="M1210 1100 c0 -5 5 -10 10 -10 6 0 10 5 10 10 0 6 -4 10 -10 10 -5 0
-10 -4 -10 -10z"></path>
<path d="M1211 1047 c-14 -35 -14 -47 -1 -47 12 0 24 44 17 62 -3 8 -9 1 -16
-15z"></path>
<path d="M1457 986 c-5 -12 16 -14 124 -15 109 -1 129 1 129 14 0 12 -16 15
-88 15 -55 0 -92 -4 -100 -12 -9 -9 -12 -9 -12 0 0 17 -47 15 -53 -2z"></path>
</g>
</svg>