 <svg version="1.0" xmlns="http://www.w3.org/2000/svg" viewBox="0 0 700.000000 423.000000" preserveAspectRatio="xMidYMid meet" id="mask">

<g transform="translate(0.000000,423.000000) scale(0.100000,-0.100000)">
<path d="M3213 2882 l-53 -3 0 -290 0 -289 60 0 60 0 0 289 c0 160 -3 291 -7
293 -5 2 -32 2 -60 0z"></path>
<path d="M3717 2778 c-4 -62 -7 -195 -7 -295 l0 -183 65 0 65 0 0 295 0 295
-58 0 -59 0 -6 -112z"></path>
<path d="M4120 2595 l0 -296 63 3 62 3 0 290 0 290 -62 3 -63 3 0 -296z"></path>
<path d="M4600 2605 c0 -157 -1 -288 -2 -292 -2 -5 25 -9 60 -11 l62 -3 0 168
c0 92 3 225 7 296 l6 127 -66 0 -67 0 0 -285z"></path>
<path d="M4850 2595 l0 -295 65 0 65 0 0 295 0 295 -65 0 -65 0 0 -295z"></path>
<path d="M5335 2668 c-4 -123 -5 -254 -3 -293 l3 -70 63 -3 62 -3 0 153 c0 84
3 217 7 296 l6 142 -65 0 -66 0 -7 -222z"></path>
<path d="M1580 2590 l0 -290 60 0 60 0 0 290 0 290 -60 0 -60 0 0 -290z"></path>
<path d="M2040 2590 l0 -290 60 0 60 0 0 290 0 290 -60 0 -60 0 0 -290z"></path>
<path d="M2290 2590 l0 -290 60 0 60 0 2 270 c1 149 2 278 2 288 1 14 -9 17
-61 20 l-63 3 0 -291z"></path>
<path d="M2760 2590 l0 -290 60 0 60 0 0 290 0 290 -60 0 -60 0 0 -290z"></path>
<path d="M1590 1390 l0 -321 33 6 c17 3 42 7 55 8 l22 1 0 313 0 313 -55 0
-55 0 0 -320z"></path>
<path d="M2037 1704 c-6 -6 2 -727 9 -761 3 -18 11 -23 37 -23 17 0 42 3 55 6
l22 6 0 389 0 389 -58 0 c-32 0 -61 -3 -65 -6z"></path>
<path d="M2290 1331 l0 -378 58 -2 59 -2 6 122 c4 67 7 238 7 381 l0 258 -65
0 -65 0 0 -379z"></path>
<path d="M2874 1395 c0 -170 2 -242 3 -158 2 83 2 223 0 310 -1 87 -3 19 -3
-152z"></path>
<path d="M4110 1300 c0 -260 4 -400 10 -400 6 0 10 74 10 203 0 112 3 292 7
400 6 179 5 197 -10 197 -16 0 -17 -34 -17 -400z"></path>
<path d="M4590 1577 c0 -68 -3 -246 -7 -394 l-6 -271 59 -4 c32 -2 62 -2 66 1
3 3 9 183 13 399 l8 392 -67 0 -66 0 0 -123z"></path>
<path d="M4840 1300 l0 -400 45 0 c25 0 45 4 45 9 0 5 9 12 19 16 19 6 20 19
21 390 l0 385 -65 0 -65 0 0 -400z"></path>
<path d="M5322 1378 l3 -323 52 0 c29 0 54 3 56 5 3 3 6 147 8 320 l4 315 -63
3 -62 3 2 -323z"></path>
<path d="M2873 1000 c0 -47 2 -66 4 -42 2 23 2 61 0 85 -2 23 -4 4 -4 -43z"></path>
<path d="M1603 1013 c9 -2 23 -2 30 0 6 3 -1 5 -18 5 -16 0 -22 -2 -12 -5z"></path>
<path d="M5340 998 c0 -4 16 -8 35 -8 19 0 35 2 35 4 0 2 -16 6 -35 8 -19 2
-35 0 -35 -4z"></path>
<path d="M5378 963 c7 -3 16 -2 19 1 4 3 -2 6 -13 5 -11 0 -14 -3 -6 -6z"></path>
<path d="M5428 934 c-5 -4 -8 -16 -8 -28 0 -14 3 -17 11 -9 6 6 9 19 7 28 -1
9 -6 13 -10 9z"></path>
</g>
</svg>