 <svg version="1.0" xmlns="http://www.w3.org/2000/svg" viewBox="0 0 700.000000 423.000000" preserveAspectRatio="xMidYMid meet" id="mask">

<g transform="translate(0.000000,423.000000) scale(0.100000,-0.100000)">
<path d="M3438 3693 c-297 -3 -298 -3 -298 -25 l0 -21 370 7 370 7 0 -201 c0
-157 3 -201 13 -198 8 3 14 51 18 169 3 90 7 178 8 196 1 27 5 32 28 35 17 2
29 10 31 21 3 15 -7 17 -120 15 -68 -2 -257 -4 -420 -5z"></path>
<path d="M3040 3662 c0 -25 7 -31 31 -25 29 8 25 43 -6 43 -18 0 -25 -5 -25
-18z"></path>
<path d="M3263 3583 c-23 -4 -23 -7 -23 -145 l0 -141 197 6 c108 4 227 7 265
7 l68 0 0 140 0 140 -242 -1 c-134 -1 -253 -4 -265 -6z m235 -150 l3 -111 -63
-7 c-35 -4 -88 -5 -118 -3 l-55 3 0 110 0 110 100 6 c55 3 107 5 115 5 12 -1
16 -22 18 -113z m250 0 l3 -113 -122 0 -122 0 7 38 c3 20 6 69 6 109 0 84 -5
81 135 79 l90 -1 3 -112z"></path>
<path d="M5557 2898 c-4 -112 -7 -312 -7 -445 0 -199 2 -243 14 -243 16 0 24
173 28 610 3 244 1 275 -13 278 -14 2 -17 -22 -22 -200z"></path>
<path d="M1467 3003 c-4 -38 -7 -233 -7 -435 0 -301 2 -368 13 -368 17 0 27
235 27 617 0 206 -3 253 -14 253 -9 0 -15 -21 -19 -67z"></path>
<path d="M5099 2912 l-106 -3 -7 -46 c-3 -25 -6 -164 -6 -309 l0 -264 175 0
175 0 0 315 0 316 -62 -3 c-35 -2 -111 -4 -169 -6z m207 -114 c-3 -50 -6 -181
-6 -290 l0 -199 -146 3 -145 3 1 279 c0 153 3 283 6 287 3 5 71 9 151 9 l146
0 -7 -92z"></path>
<path d="M3286 2858 c-3 -29 -6 -169 -6 -310 l0 -258 215 0 215 0 0 310 0 310
-209 0 -208 0 -7 -52z m397 15 c2 -5 2 -133 -1 -285 l-4 -278 -184 0 -184 0 0
218 c0 119 3 247 7 285 l6 67 178 0 c98 0 180 -3 182 -7z"></path>
<path d="M4250 2600 l0 -310 170 0 170 0 0 310 0 310 -170 0 -170 0 0 -310z
m310 -5 l0 -285 -146 0 -147 0 6 208 c4 114 7 242 7 285 l0 77 140 0 140 0 0
-285z"></path>
<path d="M1707 2598 c-3 -166 -3 -306 0 -311 3 -5 74 -7 164 -4 l159 5 6 306
6 306 -164 0 -165 0 -6 -302z m301 -10 l-3 -283 -129 -3 c-71 -1 -133 1 -138
6 -4 4 -5 133 -2 285 l7 277 134 0 133 0 -2 -282z"></path>
<path d="M2420 2590 l0 -310 165 2 c91 2 165 6 165 11 0 4 0 142 0 307 l0 300
-165 0 -165 0 0 -310z m310 -5 l0 -286 -137 3 -138 3 -3 283 -2 282 140 0 140
0 0 -285z"></path>
<path d="M3503 2043 l-2613 -3 0 -47 c0 -29 6 -53 17 -65 15 -17 16 -64 14
-565 -2 -479 -1 -545 12 -540 8 3 18 3 21 -1 13 -12 35 -10 40 4 5 13 10 12
40 0 22 -9 45 -12 63 -7 l28 7 0 537 c1 326 5 541 10 546 6 5 343 11 792 14
688 5 782 4 787 -10 11 -28 6 -159 -6 -171 -8 -8 -56 -12 -150 -12 l-138 0 0
-390 c0 -236 4 -390 9 -390 6 0 10 8 10 18 -1 116 16 734 20 736 3 2 64 1 135
-2 l128 -5 -7 -521 c-4 -287 -11 -525 -15 -531 -4 -5 -10 -21 -12 -35 -3 -25
-2 -25 74 -28 101 -4 123 7 113 56 -9 46 -10 106 -7 741 2 321 6 520 13 532 9
18 33 19 624 19 598 0 615 -1 625 -19 11 -22 12 -705 0 -1086 -4 -144 -3 -235
3 -242 6 -9 37 -13 87 -13 l78 0 -6 155 -5 155 34 0 c19 0 43 7 53 15 18 14
16 15 -33 15 l-53 0 6 238 c3 130 5 308 5 395 l1 157 131 0 131 0 -7 -395 c-7
-346 -6 -395 7 -395 13 0 16 56 21 402 3 222 3 406 1 410 -3 5 -68 8 -145 8
l-140 0 3 98 3 97 795 3 795 2 18 -21 c16 -20 17 -41 12 -233 -2 -116 -8 -393
-11 -616 -4 -223 -7 -423 -8 -444 -1 -39 0 -40 44 -53 25 -8 77 -12 115 -11
l70 3 -4 35 c-6 48 -3 725 5 1059 6 254 8 274 25 278 13 4 20 18 25 49 9 61 1
75 -38 72 -18 -2 -1209 -4 -2645 -5z"></path>
<path d="M3177 1733 c-12 -11 -8 -575 3 -568 14 9 13 -41 -1 -64 -8 -11 -9
-29 -4 -47 4 -16 8 -38 8 -49 1 -22 16 -37 29 -29 4 3 8 133 8 290 l0 284 30
0 30 0 0 -350 0 -350 -30 0 c-28 0 -30 2 -30 40 0 22 -3 40 -7 40 -11 0 -40
-20 -29 -20 5 0 4 -6 -2 -12 -5 -7 -10 -48 -11 -91 -2 -75 -1 -78 18 -68 26
14 111 14 111 0 0 -5 5 -7 10 -4 6 4 10 158 10 431 l0 424 191 0 192 0 -5
-417 c-3 -230 -3 -424 0 -431 2 -8 9 -9 15 -4 7 4 24 13 39 20 22 9 31 8 52
-9 l26 -20 0 53 c0 75 -11 129 -24 125 -6 -2 -11 -15 -11 -28 0 -19 -6 -25
-28 -27 l-27 -3 0 350 0 351 30 0 30 0 0 -230 c0 -217 1 -230 18 -230 18 0 19
16 25 233 4 127 7 274 7 325 l0 92 -333 0 c-184 0 -337 -3 -340 -7z m633 -73
l0 -30 -293 0 c-162 0 -296 2 -299 5 -3 3 -3 17 0 30 l4 25 294 0 294 0 0 -30z"></path>
<path d="M1700 1572 c0 -226 12 -492 22 -492 4 0 8 140 8 310 l0 310 140 0
140 0 1 -327 c1 -181 1 -347 0 -369 -2 -23 2 -45 8 -49 8 -4 11 107 11 384 l0
391 -165 0 -165 0 0 -158z"></path>
<path d="M4970 1376 c0 -190 4 -347 9 -350 5 -3 12 143 16 334 l7 341 142 -3
141 -3 -2 -317 c-3 -276 -1 -318 12 -318 13 0 15 44 15 330 l0 330 -170 0
-170 0 0 -344z"></path>
<path d="M4970 986 c0 -31 6 -34 13 -6 3 11 1 23 -4 26 -5 3 -9 -6 -9 -20z"></path>
<path d="M3800 977 c0 -8 7 -17 15 -21 8 -3 15 -3 15 0 0 3 -7 12 -15 20 -13
13 -15 13 -15 1z"></path>
<path d="M1863 923 c9 -2 23 -2 30 0 6 3 -1 5 -18 5 -16 0 -22 -2 -12 -5z"></path>
</g>
</svg>