 <svg version="1.0" xmlns="http://www.w3.org/2000/svg" id="mask" viewBox="0 0 700.000000 423.000000" preserveAspectRatio="xMidYMid meet">

<g transform="translate(0.000000,423.000000) scale(0.100000,-0.100000)">
<path d="M5358 3642 l-316 -187 -6 -100 c-3 -55 -7 -407 -10 -782 -2 -375 -7
-687 -11 -693 -3 -5 -16 -10 -27 -10 -21 0 -21 -1 5 -28 15 -15 27 -39 27 -53
0 -25 6 -27 313 -102 171 -43 315 -77 318 -77 4 0 9 21 12 47 3 29 12 52 23
60 16 12 17 15 4 23 -8 5 -18 10 -22 10 -5 0 -8 73 -8 163 0 117 -4 167 -12
176 -11 10 -9 15 6 26 10 8 23 16 27 17 12 4 16 1691 4 1694 -5 2 -153 -81
-327 -184z m240 -906 c-2 -519 -6 -947 -9 -951 -4 -3 -118 16 -255 43 l-249
48 -3 375 c-2 206 0 550 4 766 l6 392 247 135 c135 75 250 136 254 136 5 0 7
-425 5 -944z"></path>
<path d="M4780 3374 c-63 -12 -325 -64 -581 -114 l-467 -92 -4 -581 c-3 -513
-5 -586 -20 -614 -15 -30 -15 -33 4 -50 11 -9 17 -25 15 -35 -4 -13 1 -19 16
-22 12 -3 177 -14 367 -26 190 -12 451 -30 580 -41 129 -10 236 -19 238 -19 1
0 -1 11 -4 26 -5 18 0 32 17 50 20 21 20 24 5 24 -17 0 -18 10 -11 143 4 78
10 420 12 760 l5 617 -29 -1 c-15 -1 -80 -12 -143 -25z m48 -551 l-3 -368 -80
-6 c-44 -4 -149 -9 -232 -13 l-153 -6 0 340 c0 264 3 342 13 345 11 4 414 71
445 74 10 1 12 -75 10 -366z m-588 -62 c0 -179 -2 -326 -3 -327 -1 -2 -87 -6
-190 -10 l-187 -7 0 306 0 306 33 6 c121 23 315 53 330 51 17 -1 18 -19 17
-325z m620 -631 l0 -240 -25 0 c-42 0 -376 20 -432 26 l-53 5 0 219 0 219 73
4 c39 1 154 4 255 5 l182 2 0 -240z m-590 16 c0 -118 -3 -217 -8 -220 -6 -4
-434 23 -439 28 -1 1 1 90 4 199 l6 196 121 4 c67 1 165 4 219 5 l97 2 0 -214z"></path>
<path d="M3000 2561 c0 -459 -3 -620 -12 -623 -7 -3 -6 -12 6 -31 10 -14 15
-30 12 -35 -6 -9 500 -6 579 4 55 6 64 36 52 175 -4 57 -5 332 -2 610 l7 506
-189 6 c-103 4 -248 7 -320 7 l-133 0 0 -619z m343 549 l227 0 0 -212 c0 -117
-3 -277 -7 -355 l-6 -143 -248 0 -249 0 4 358 c2 196 4 359 5 361 1 2 11 1 24
-3 12 -3 124 -6 250 -6z m215 -956 l2 -191 -67 -6 c-38 -4 -150 -7 -251 -7
l-183 0 5 193 c4 105 6 195 6 200 0 4 109 6 243 5 l242 -3 3 -191z"></path>
<path d="M1097 3094 c-4 -4 -7 -183 -7 -397 l0 -390 41 6 c22 3 42 7 45 9 2 3
7 157 10 344 4 186 7 340 8 341 2 3 647 -95 651 -99 2 -2 7 -142 11 -313 l9
-310 28 -3 27 -3 0 344 0 344 -382 63 c-211 35 -394 65 -408 67 -14 3 -28 1
-33 -3z"></path>
<path d="M1113 2278 c-19 -9 -23 -19 -23 -60 0 -48 0 -48 34 -48 32 0 34 1 39
48 5 42 -5 73 -22 71 -3 0 -16 -5 -28 -11z"></path>
<path d="M1183 2225 c0 -33 2 -45 4 -27 2 18 2 45 0 60 -2 15 -4 0 -4 -33z"></path>
<path d="M1860 2230 c0 -36 3 -40 25 -40 39 0 33 58 -7 73 -15 5 -18 0 -18
-33z"></path>
</g>
</svg>