 <svg version="1.0" xmlns="http://www.w3.org/2000/svg" viewBox="0 0 700.000000 423.000000" preserveAspectRatio="xMidYMid meet" id="mask">

<g transform="translate(0.000000,423.000000) scale(0.100000,-0.100000)">
<path d="M0 2115 l0 -2115 65 0 65 0 0 140 0 140 443 0 442 0 38 25 37 26 0
1949 0 1950 -545 0 -545 0 0 -2115z m539 -489 c7 -8 15 -30 18 -50 7 -45 28
-47 66 -6 21 22 38 30 63 30 40 0 89 -22 97 -45 4 -8 13 -15 22 -15 12 0 15
-12 15 -55 0 -53 -1 -55 -27 -55 -16 0 -37 -7 -47 -15 -25 -19 -73 -19 -110 0
-44 23 -76 20 -76 -9 0 -37 -20 -86 -40 -96 -10 -6 -86 -10 -169 -10 l-151 0
-25 40 c-14 22 -25 44 -25 50 0 5 -4 10 -10 10 -6 0 -10 40 -10 100 0 92 8
118 26 89 3 -6 14 2 25 20 l19 31 164 0 c129 0 166 -3 175 -14z m-362 -758 c4
-7 8 -26 9 -43 16 -281 16 -278 -11 -351 -15 -38 -31 -73 -36 -78 -5 -6 -9 85
-9 237 0 238 1 247 19 247 11 0 23 -6 28 -12z"></path>
<path d="M1710 2504 c0 -1377 3 -1724 13 -1718 6 4 71 51 142 103 l130 96 109
5 108 5 -103 135 c-56 74 -156 200 -221 278 -65 79 -118 147 -118 151 0 4 39
20 88 36 78 25 107 29 287 36 110 4 415 8 678 8 l477 1 0 44 0 45 -52 6 c-63
8 -381 -3 -597 -20 -46 -3 -202 -3 -347 1 l-264 7 0 73 0 72 -62 -1 -63 -2 -3
61 -3 62 -49 6 -50 7 0 62 c0 34 4 159 10 277 32 664 39 845 31 853 -4 4 -20
3 -36 -3 -34 -13 -34 -13 -37 31 -3 36 4 39 50 25 18 -6 22 -4 22 13 0 22 14
28 25 11 3 -5 16 -10 29 -10 12 0 48 -18 79 -41 l57 -40 0 500 c0 394 3 501
13 501 6 0 131 -24 277 -52 l265 -53 885 0 885 0 268 53 c148 28 277 52 288
52 18 0 19 -15 19 -500 0 -275 3 -500 6 -500 3 0 29 18 56 40 28 22 59 40 68
40 10 0 25 3 33 6 9 3 16 -3 20 -15 5 -20 7 -20 41 -6 l36 15 0 -41 c0 -40 -1
-41 -27 -34 -15 3 -32 7 -38 8 -14 3 -13 -33 22 -923 4 -85 7 -182 7 -215 l1
-60 -35 -5 c-54 -9 -60 -17 -60 -70 l0 -49 -62 -3 -63 -3 -3 -72 -3 -71 -337
1 c-185 1 -362 0 -392 -1 -70 -3 -175 4 -189 13 -6 3 -11 2 -11 -4 0 -5 8 -12
18 -14 9 -3 0 -5 -20 -6 -29 -1 -36 2 -32 14 4 8 1 15 -5 15 -7 0 -14 -7 -17
-15 -5 -12 -9 -12 -28 0 -16 11 -62 14 -198 14 -173 0 -176 0 -182 -22 -3 -12
-6 -34 -6 -49 l0 -26 733 -5 732 -4 104 -31 c57 -17 106 -34 109 -37 3 -3 -2
-13 -10 -22 -91 -108 -231 -278 -244 -298 -11 -18 -13 -29 -6 -38 6 -6 10 -33
10 -58 -1 -53 6 -69 31 -69 37 0 82 -22 79 -38 -4 -19 -37 -30 -95 -31 -40 -1
-64 -21 -25 -21 14 0 184 -115 281 -191 21 -17 43 -19 202 -19 l179 0 0 508
c1 279 2 594 3 699 1 106 -2 193 -6 193 -5 0 -7 12 -5 28 l3 27 125 12 c69 6
178 14 243 19 l117 7 0 93 0 94 34 0 c19 0 42 8 51 17 16 16 18 16 27 0 10
-18 78 -25 78 -7 0 5 20 18 45 29 27 12 45 26 45 36 0 10 6 15 18 13 9 -2 16
-10 14 -16 -1 -7 18 -22 43 -34 45 -22 53 -32 35 -43 -5 -3 -10 -37 -10 -76
l0 -69 35 0 35 0 0 109 c0 104 -1 109 -20 104 -11 -3 -27 -3 -35 1 -13 5 -11
14 17 53 l33 48 5 209 5 209 80 27 80 27 3 566 2 567 -2505 0 -2505 0 0 -1726z
m4224 798 c9 -11 34 -24 55 -31 46 -13 86 -57 101 -109 15 -55 12 -84 -12
-133 -21 -39 -22 -53 -16 -129 3 -47 7 -150 7 -230 1 -80 6 -188 11 -240 7
-71 6 -98 -3 -107 -8 -8 -55 -13 -132 -15 l-120 -3 -5 35 c-4 28 -10 35 -28
36 -12 1 -25 3 -27 6 -3 2 0 137 5 299 l10 294 -25 49 c-25 49 -33 96 -16 96
5 0 12 -20 15 -45 12 -79 27 -88 147 -88 57 0 116 5 131 11 51 21 64 143 21
200 -37 50 -113 89 -113 58 0 -26 -43 -48 -73 -37 -33 13 -43 45 -23 76 20 30
65 33 90 7z"></path>
<path d="M6824 2115 l1 -2115 88 0 87 0 0 2115 0 2115 -89 0 -89 0 2 -2115z"></path>
<path d="M3330 1690 c0 -50 1 -51 28 -48 25 3 27 6 27 48 0 42 -2 45 -27 48
-27 3 -28 2 -28 -48z"></path>
<path d="M3415 1730 c-2 -3 -1 -25 2 -48 4 -33 10 -42 25 -42 14 0 18 5 14 16
-3 9 -6 30 -6 48 0 23 -5 33 -15 33 -9 0 -18 -3 -20 -7z"></path>
</g>
</svg>