 <svg version="1.0" xmlns="http://www.w3.org/2000/svg" viewBox="0 0 700.000000 423.000000" preserveAspectRatio="xMidYMid meet" id="mask">

<g transform="translate(0.000000,423.000000) scale(0.100000,-0.100000)">
<path d="M2053 3524 c-3 -262 -3 -266 19 -283 20 -17 21 -21 8 -50 -8 -20 -16
-28 -20 -21 -12 19 -20 -114 -20 -324 l0 -199 83 89 c46 49 117 127 157 173
l74 84 7 296 c4 163 10 305 13 316 3 11 -7 55 -23 100 l-29 80 -133 3 -134 3
-2 -267z"></path>
<path d="M3063 3539 c-40 -44 -53 -67 -53 -90 0 -27 -3 -30 -27 -27 -26 3 -28
0 -33 -37 -4 -34 -8 -39 -30 -40 -19 0 -47 -24 -113 -96 -71 -79 -87 -102 -87
-128 0 -29 -3 -32 -27 -29 -26 3 -28 0 -31 -34 -3 -34 -6 -38 -31 -38 -38 0
-191 -170 -191 -212 0 -23 -5 -28 -23 -28 -31 0 -47 -18 -47 -53 0 -24 -4 -28
-23 -25 -16 2 -33 -9 -59 -38 -32 -35 -37 -47 -40 -100 -3 -54 -5 -59 -28 -62
-14 -2 -29 -10 -33 -18 -4 -8 -19 -14 -32 -14 -34 0 -31 -16 5 -35 33 -17 41
-45 13 -45 -10 0 -33 9 -50 20 -25 15 -33 27 -33 48 0 16 -12 42 -29 62 l-28
34 -5 -299 c-3 -165 -5 -301 -4 -302 1 -1 32 5 69 13 54 13 71 21 79 40 11 23
16 24 106 24 l95 0 -6 33 c-3 17 -7 39 -9 47 -2 11 7 16 35 18 32 3 37 0 37
-17 0 -20 6 -21 105 -21 l105 0 0 164 c0 148 -2 165 -17 169 -16 4 -16 5 -1 6
14 1 18 13 20 64 l3 62 73 3 c78 3 90 15 55 54 -16 17 -4 18 340 18 330 0 381
-4 347 -25 -5 -3 -10 -15 -10 -25 0 -17 9 -19 68 -22 l67 -3 3 -60 c2 -33 9
-63 15 -67 9 -6 9 -8 0 -8 -10 0 -13 -40 -13 -165 l0 -165 79 0 c71 0 79 2 84
21 4 16 12 20 39 17 l33 -3 -3 -53 -4 -53 109 3 108 3 3 237 2 237 -27 3 c-27
3 -28 6 -31 64 -2 53 -7 67 -37 101 -27 32 -40 39 -59 36 -22 -5 -25 -2 -28
33 -3 34 -6 39 -28 39 -19 0 -25 6 -31 32 -10 51 -158 213 -194 213 -20 0 -24
5 -27 38 -3 32 -6 37 -28 37 -19 0 -25 6 -31 32 -4 20 -38 67 -94 130 -70 79
-92 97 -111 95 -20 -3 -24 1 -24 21 0 42 -9 54 -36 49 -21 -4 -24 -1 -24 26 0
23 -13 46 -51 89 -28 32 -53 59 -57 60 -4 0 -31 -25 -59 -58z m134 -245 c41
-12 53 -20 49 -31 -3 -8 -6 -21 -6 -29 0 -8 -9 -14 -20 -14 -19 0 -20 -7 -20
-155 0 -150 1 -155 21 -155 14 0 19 -5 17 -17 -3 -15 -17 -18 -88 -21 -110 -4
-152 4 -148 26 2 9 13 18 26 20 22 3 23 4 20 150 -3 142 -4 147 -24 150 -28 4
-41 62 -13 62 9 0 30 7 45 15 37 19 73 19 141 -1z"></path>
<path d="M2806 2538 c-11 -42 -7 -86 9 -92 8 -3 15 -13 15 -22 0 -10 -5 -14
-15 -10 -13 5 -15 -17 -15 -159 0 -159 1 -165 20 -165 20 0 20 5 18 232 -2
160 -6 232 -14 235 -6 2 -14 -6 -18 -19z"></path>
<path d="M3400 2320 c0 -198 2 -230 15 -230 13 0 15 24 15 160 0 100 -4 160
-10 160 -5 0 -10 7 -10 15 0 8 5 15 10 15 6 0 10 25 10 55 0 42 -3 55 -15 55
-13 0 -15 -32 -15 -230z"></path>
<path d="M2568 2053 c12 -2 32 -2 45 0 12 2 2 4 -23 4 -25 0 -35 -2 -22 -4z"></path>
<path d="M3613 2053 c15 -2 37 -2 50 0 12 2 0 4 -28 4 -27 0 -38 -2 -22 -4z"></path>
<path d="M3730 1980 c0 -81 12 -106 24 -49 12 61 7 129 -9 129 -12 0 -15 -16
-15 -80z"></path>
<path d="M2470 1975 c0 -60 2 -66 15 -55 19 16 17 111 -2 118 -10 3 -13 -14
-13 -63z"></path>
<path d="M3410 1980 c0 -33 4 -60 10 -60 6 0 10 27 10 60 0 33 -4 60 -10 60
-6 0 -10 -27 -10 -60z"></path>
<path d="M3687 2033 c-14 -13 -7 -100 8 -113 13 -11 15 -4 15 54 0 61 -6 77
-23 59z"></path>
<path d="M2550 2026 c0 -2 11 -11 25 -20 19 -13 30 -14 45 -6 33 18 23 30 -25
30 -25 0 -45 -2 -45 -4z"></path>
<path d="M3590 2015 c0 -19 11 -19 36 0 18 14 18 14 -8 15 -18 0 -28 -5 -28
-15z"></path>
<path d="M2520 1980 c0 -33 14 -38 43 -16 17 13 17 15 -5 30 -32 22 -38 20
-38 -14z"></path>
<path d="M2810 1974 c0 -21 4 -33 10 -29 6 3 10 19 10 36 0 16 -4 29 -10 29
-5 0 -10 -16 -10 -36z"></path>
<path d="M3628 1996 c-23 -17 -23 -21 7 -40 l25 -16 0 35 c0 38 -6 42 -32 21z"></path>
<path d="M2577 1952 c-38 -24 -33 -34 15 -30 46 3 58 17 30 35 -14 8 -24 7
-45 -5z"></path>
<path d="M3590 1945 c0 -8 9 -15 20 -15 11 0 20 2 20 5 0 2 -9 9 -20 15 -16 9
-20 8 -20 -5z"></path>
<path d="M2442 1915 c0 -16 2 -22 5 -12 2 9 2 23 0 30 -3 6 -5 -1 -5 -18z"></path>
<path d="M3613 1903 c15 -2 37 -2 50 0 12 2 0 4 -28 4 -27 0 -38 -2 -22 -4z"></path>
<path d="M2523 1893 c20 -2 54 -2 75 0 20 2 3 4 -38 4 -41 0 -58 -2 -37 -4z"></path>
<path d="M2435 1862 c-16 -17 5 -22 91 -22 72 0 95 3 91 13 -2 8 -31 12 -90
13 -48 0 -89 -1 -92 -4z"></path>
<path d="M3617 1863 c-18 -17 -1 -23 63 -23 56 0 70 3 70 15 0 12 -14 15 -63
15 -35 0 -67 -3 -70 -7z"></path>
<path d="M3400 1848 c0 -4 7 -8 15 -8 8 0 15 4 15 8 0 5 -7 9 -15 9 -8 0 -15
-4 -15 -9z"></path>
<path d="M2167 1128 c-10 -437 -9 -576 5 -584 6 -4 23 -8 37 -9 14 0 36 -4 49
-9 14 -4 22 -3 22 3 0 6 7 11 16 11 10 0 14 6 10 15 -8 22 7 18 22 -5 7 -11 8
-20 2 -20 -5 0 -7 -7 -4 -15 9 -22 22 -19 62 16 27 24 37 28 43 17 6 -9 9 -7
9 9 0 12 8 29 18 39 16 17 17 16 22 -11 3 -16 11 -30 19 -33 8 -3 11 0 7 7 -4
6 -2 11 4 11 7 0 14 -9 17 -20 7 -26 11 -25 35 5 22 28 42 24 33 -6 -7 -23 10
-26 19 -4 3 9 16 15 28 14 44 -4 58 1 52 16 -4 8 -2 15 4 15 12 0 24 -28 17
-40 -3 -4 4 -6 15 -3 11 3 20 12 20 21 0 21 48 -23 63 -58 10 -23 11 -20 17
30 6 66 16 83 40 75 27 -8 67 4 67 21 0 11 -29 14 -166 15 -91 1 -224 4 -296
8 l-130 6 -3 63 c-2 40 -7 62 -15 62 -8 0 -8 3 1 9 11 6 15 63 19 244 l6 235
-24 5 c-23 4 -23 4 -1 6 20 1 22 6 22 66 l0 65 -88 0 -89 0 -6 -292z"></path>
<path d="M3880 1093 c1 -175 1 -343 0 -374 l0 -56 -192 -7 c-111 -4 -198 -12
-205 -18 -7 -6 -13 -28 -13 -49 0 -39 12 -51 27 -26 7 12 13 12 38 1 17 -8 23
-13 13 -14 -22 0 -31 -15 -23 -39 5 -18 18 -19 205 -20 160 0 200 3 200 13 0
8 7 19 15 26 10 8 13 20 9 34 -4 12 -7 27 -7 34 0 6 -3 12 -7 12 -3 0 -7 23
-9 50 -1 38 2 52 14 56 19 8 21 80 3 87 -17 5 -17 152 0 169 9 9 12 74 12 225
l0 213 -40 0 -40 0 0 -317z"></path>
<path d="M2003 1393 c-9 -3 -13 -29 -13 -81 0 -42 -3 -107 -7 -144 l-6 -68
-133 0 c-112 0 -134 2 -134 15 0 8 6 15 14 15 14 0 26 67 26 156 l0 51 -35 -1
c-19 -1 -39 -6 -44 -11 -4 -6 -11 -144 -14 -307 -6 -259 -4 -296 8 -291 8 3
15 0 15 -7 0 -9 3 -10 13 -1 19 15 28 3 21 -25 -4 -15 -2 -24 5 -24 6 0 11 -9
11 -19 0 -11 5 -23 10 -26 6 -4 8 -15 5 -26 -5 -14 -2 -17 8 -13 8 3 17 -2 20
-10 4 -11 12 -13 25 -8 34 13 82 60 82 81 0 27 41 66 52 49 4 -7 8 -23 8 -35
0 -15 6 -23 17 -23 16 0 16 -1 0 -17 -16 -16 -15 -18 13 -29 17 -7 30 -20 30
-27 0 -8 6 -17 14 -20 21 -8 28 41 7 53 -15 9 -15 9 0 10 14 0 17 26 23 213 3
116 9 294 12 395 l7 182 -24 -1 c-13 0 -30 -3 -36 -6z"></path>
<path d="M1545 1278 c-8 -77 -4 -120 13 -126 9 -3 12 19 12 87 0 105 -15 129
-25 39z"></path>
<path d="M4070 1181 c0 -117 4 -168 15 -192 13 -32 14 -27 15 91 0 146 -9 260
-21 260 -5 0 -9 -71 -9 -159z"></path>
<path d="M4440 1016 c0 -339 3 -386 27 -386 9 0 12 6 8 19 -7 22 9 36 53 44
31 6 33 5 30 -20 -2 -14 3 -28 10 -30 17 -7 18 667 0 685 -7 7 -38 12 -70 12
l-58 0 0 -324z"></path>
<path d="M4677 1323 c-4 -3 -7 -102 -7 -220 0 -188 2 -213 16 -213 14 0 15 22
9 218 -4 119 -8 218 -10 220 -1 1 -5 -1 -8 -5z"></path>
<path d="M2602 1286 c-1 -12 -7 -16 -17 -12 -13 5 -15 -25 -15 -229 0 -150 4
-235 10 -235 6 0 10 -9 10 -21 0 -11 -4 -17 -10 -14 -6 4 -10 -15 -10 -49 0
-41 4 -56 14 -56 11 0 15 27 21 123 5 106 3 543 -3 493z"></path>
<path d="M3612 984 c3 -276 5 -319 18 -319 11 0 16 15 18 58 2 39 0 57 -7 52
-7 -3 -11 3 -11 15 0 12 5 18 10 15 7 -4 10 75 10 229 0 179 -3 235 -12 234
-7 -2 -12 2 -13 9 0 6 -3 15 -8 19 -4 4 -6 -136 -5 -312z"></path>
<path d="M1540 1059 c0 -17 4 -28 10 -24 6 3 10 17 10 31 0 13 -4 24 -10 24
-5 0 -10 -14 -10 -31z"></path>
<path d="M1546 1005 c4 -8 8 -15 10 -15 2 0 4 7 4 15 0 8 -4 15 -10 15 -5 0
-7 -7 -4 -15z"></path>
<path d="M1548 954 c-5 -4 -8 -16 -8 -28 0 -14 3 -17 11 -9 6 6 9 19 7 28 -1
9 -6 13 -10 9z"></path>
<path d="M1543 830 c0 -30 2 -43 4 -27 2 15 2 39 0 55 -2 15 -4 2 -4 -28z"></path>
<path d="M4080 761 c0 -28 5 -53 10 -56 6 -4 10 15 10 49 0 31 -4 56 -10 56
-5 0 -10 -22 -10 -49z"></path>
<path d="M1538 764 c-5 -4 -8 -28 -8 -53 0 -32 3 -42 11 -34 5 5 9 29 7 53 -2
23 -6 38 -10 34z"></path>
<path d="M1533 605 c0 -27 2 -38 4 -22 2 15 2 37 0 50 -2 12 -4 0 -4 -28z"></path>
<path d="M3282 641 c-9 -5 -1 -10 27 -15 22 -3 45 -14 50 -24 6 -9 11 -12 11
-7 0 6 9 -1 20 -15 l20 -25 0 25 c1 25 1 24 13 -4 l13 -30 13 31 c24 59 15 68
-74 71 -44 1 -86 -2 -93 -7z"></path>
<path d="M4087 603 c-11 -10 -8 -51 3 -58 6 -4 10 8 10 29 0 37 -2 41 -13 29z"></path>
</g>
</svg>