 <svg version="1.0" xmlns="http://www.w3.org/2000/svg" viewBox="0 0 700.000000 423.000000" preserveAspectRatio="xMidYMid meet" id="mask">

<g transform="translate(0.000000,423.000000) scale(0.100000,-0.100000)">
<path d="M2739 3403 c-206 -230 -443 -493 -526 -586 -177 -194 -179 -198 -116
-292 30 -46 40 -54 57 -49 12 4 25 13 29 20 4 8 19 14 32 14 21 0 24 6 31 58
9 74 59 142 99 135 22 -5 25 -2 25 21 0 44 16 64 45 59 22 -5 25 -2 25 26 0
26 16 49 83 124 61 67 90 91 104 89 17 -2 23 5 30 35 8 33 12 38 36 35 24 -2
27 0 27 30 0 27 15 50 89 133 74 83 94 99 115 97 22 -3 25 1 28 35 3 35 5 38
31 35 24 -2 27 0 27 30 1 26 13 46 55 93 l55 60 54 -60 c36 -39 56 -70 58 -90
2 -24 8 -30 28 -30 21 0 26 -6 30 -35 4 -29 9 -35 28 -35 34 -1 201 -189 202
-227 0 -22 5 -27 28 -30 22 -2 28 -9 32 -38 4 -28 9 -35 28 -35 33 -1 192
-180 192 -217 0 -22 5 -27 28 -30 22 -2 28 -9 32 -38 4 -29 9 -35 28 -34 14 0
37 -15 62 -42 37 -41 40 -47 40 -104 0 -57 1 -60 25 -60 23 0 24 -3 27 -66 3
-58 6 -68 25 -75 19 -7 24 0 58 99 61 173 77 138 -195 448 -323 370 -802 908
-811 912 -4 2 -175 -185 -380 -415z"></path>
<path d="M4061 3094 c-52 -20 -127 -89 -136 -127 -6 -22 -1 -34 26 -65 l34
-38 220 -7 c121 -4 236 -9 255 -13 l35 -6 -37 34 c-20 18 -53 61 -73 95 -36
63 -78 103 -127 122 -52 19 -150 22 -197 5z m185 -106 c32 -22 73 -82 64 -92
-10 -9 -310 7 -310 17 0 20 49 74 82 91 43 22 119 15 164 -16z"></path>
<path d="M1732 2472 c-180 -2 -203 -4 -198 -18 3 -9 6 -20 6 -25 0 -5 7 -9 16
-9 14 0 15 -28 9 -285 -8 -281 -7 -285 12 -285 16 0 21 9 27 46 10 76 7 173
-6 195 -10 17 -10 23 0 26 8 3 12 32 13 91 1 82 15 179 18 125 1 -16 7 -23 21
-23 14 0 20 7 21 23 0 21 1 21 11 -3 6 -16 8 -102 6 -232 l-5 -208 36 0 c20 1
61 7 91 15 l55 13 -77 1 -78 1 0 149 c0 82 3 163 6 180 l7 31 130 0 130 0 -6
-165 c-6 -143 -5 -165 8 -165 13 0 15 27 15 179 0 99 3 186 6 195 5 13 -9 16
-93 19 l-98 3 108 2 107 2 0 60 0 60 -34 0 c-19 0 -40 1 -48 3 -7 1 -105 1
-216 -1z"></path>
<path d="M1440 2462 c0 -12 34 -42 48 -42 7 0 12 11 12 25 0 21 -5 25 -30 25
-16 0 -30 -4 -30 -8z"></path>
<path d="M4158 2398 c-20 -48 -23 -94 -8 -103 6 -4 10 -72 10 -171 0 -139 2
-164 15 -164 13 0 15 23 15 145 l0 145 125 0 125 0 2 -177 c2 -143 6 -178 17
-178 11 0 13 36 12 195 -1 108 1 203 5 213 9 23 24 22 24 -3 0 -27 26 -25 35
3 l8 22 4 -22 c2 -13 10 -23 18 -23 7 0 16 10 20 23 11 31 23 -120 24 -305 1
-141 2 -148 21 -148 19 0 20 7 20 180 l0 180 115 0 115 0 0 -177 c0 -213 5
-253 31 -253 18 0 19 11 12 259 l-6 260 49 3 c37 2 50 7 52 21 3 16 -11 17
-183 17 l-186 0 3 23 c3 19 11 23 53 27 37 4 51 9 53 23 3 16 -14 17 -240 17
-134 0 -265 3 -293 6 l-50 6 -17 -44z"></path>
<path d="M2368 2015 c3 -78 1 -119 -7 -128 -6 -8 -8 -27 -5 -46 6 -27 10 -31
40 -31 31 0 34 3 34 30 l0 30 318 -2 317 -3 3 -27 c3 -25 8 -28 38 -28 31 0
34 2 34 30 l0 30 304 0 305 0 3 -27 c2 -23 9 -29 33 -31 l31 -3 -1 158 0 158
-28 3 c-22 3 -30 -1 -34 -17 -5 -20 -12 -21 -219 -23 -411 -5 -389 -6 -389 17
0 17 -7 20 -40 20 -33 0 -40 -3 -40 -20 0 -20 -7 -20 -315 -20 l-315 0 -3 23
c-3 18 -10 22 -36 22 l-33 0 5 -115z m1392 -36 c0 -64 -3 -79 -15 -79 -12 0
-15 15 -15 78 0 43 3 82 6 85 17 16 24 -10 24 -84z m-1300 71 c0 -5 -4 -10 -9
-10 -6 0 -13 5 -16 10 -3 6 1 10 9 10 9 0 16 -4 16 -10z m198 3 c-32 -2 -84
-2 -115 0 -32 2 -6 3 57 3 63 0 89 -1 58 -3z m290 0 c-32 -2 -84 -2 -115 0
-32 2 -6 3 57 3 63 0 89 -1 58 -3z m129 -74 c-5 -84 -9 -95 -26 -84 -12 7 -15
147 -4 158 3 4 13 7 21 7 12 0 14 -14 9 -81z m81 -1 c-2 -54 -7 -83 -15 -86
-10 -3 -13 18 -13 82 0 71 3 86 15 86 13 0 15 -14 13 -82z m242 72 c-20 -13
-187 -13 -195 0 -4 6 32 10 102 10 73 0 103 -3 93 -10z m243 3 c-29 -2 -78 -2
-110 0 -32 2 -8 3 52 3 61 0 87 -1 58 -3z m-1143 -73 c0 -54 -8 -70 -36 -70
-6 0 -5 126 2 133 3 3 12 3 20 0 10 -4 14 -23 14 -63z m240 -1 c0 -52 -3 -70
-12 -67 -27 9 -19 138 8 138 2 0 4 -32 4 -71z m48 -7 c-2 -33 -8 -57 -15 -60
-10 -3 -13 15 -13 68 0 64 2 71 15 60 12 -10 15 -28 13 -68z m242 7 c0 -52 -3
-70 -12 -67 -13 5 -24 99 -14 124 14 36 26 9 26 -57z m410 -5 c0 -64 -6 -74
-28 -52 -15 15 -16 100 0 116 20 20 28 2 28 -64z m38 64 c16 -16 16 -100 0
-116 -23 -23 -28 -12 -28 58 0 70 5 81 28 58z m237 -66 c-5 -46 -10 -59 -21
-55 -18 7 -19 104 -2 121 21 21 30 -4 23 -66z m-507 15 c4 -57 -18 -97 -29
-56 -4 13 -7 43 -8 67 -1 36 2 43 17 40 13 -2 18 -15 20 -51z m-548 38 c0 -2
-14 -12 -31 -20 -28 -15 -32 -15 -62 4 l-32 21 63 0 c34 0 62 -2 62 -5z m272
-15 c-40 -25 -40 -25 -77 0 l-30 20 70 0 70 0 -33 -20z m408 0 c-14 -11 -29
-20 -35 -20 -5 0 -21 9 -35 20 l-25 20 60 0 60 0 -25 -20z m280 0 c-31 -25
-38 -25 -75 0 l-30 20 65 0 65 0 -25 -20z m-1040 -29 c0 -8 -44 -41 -55 -41
-3 0 -5 18 -5 40 l0 41 30 -16 c17 -9 30 -19 30 -24z m107 -38 c-6 -6 -57 26
-57 36 0 3 12 14 28 23 l27 17 3 -36 c2 -19 1 -37 -1 -40z m162 16 c-34 -26
-39 -24 -39 22 l0 40 31 -22 31 -22 -23 -18z m127 -16 c-6 -7 -56 24 -56 35 0
4 12 14 28 22 27 16 27 16 30 -18 2 -19 1 -36 -2 -39z m410 0 c-6 -7 -56 24
-56 35 0 4 12 15 28 24 l27 17 3 -36 c2 -19 1 -37 -2 -40z m274 36 l0 -40 -31
18 -30 18 28 22 c15 13 29 23 31 23 1 0 2 -18 2 -41z m-394 15 l25 -17 -28
-18 c-15 -11 -31 -19 -35 -19 -10 0 -10 54 -1 63 9 10 10 9 39 -9z m279 0 c21
-16 20 -17 -27 -45 -16 -8 -18 -5 -18 26 0 38 13 44 45 19z m-900 -49 l30 -24
-70 0 -70 0 30 24 c17 14 35 25 40 25 6 0 24 -11 40 -25z m690 9 c38 -25 30
-34 -30 -34 -62 0 -68 7 -27 32 33 21 28 21 57 2z m305 -26 c0 -4 -25 -8 -55
-8 -61 0 -68 8 -28 32 26 15 30 15 55 0 16 -9 28 -20 28 -24z m-715 20 c41
-18 29 -28 -35 -28 -33 0 -60 2 -60 5 0 5 51 34 62 35 4 0 19 -5 33 -12z
m-479 -56 c-12 -11 -17 7 -9 34 l8 29 3 -28 c2 -16 1 -31 -2 -35z m269 8 c4
-6 -35 -10 -110 -10 -75 0 -114 4 -110 10 3 6 52 10 110 10 58 0 107 -4 110
-10z m285 0 c0 -6 -44 -10 -111 -10 -71 0 -108 4 -104 10 3 6 52 10 111 10 63
0 104 -4 104 -10z m410 0 c10 -7 -19 -10 -92 -10 -61 0 -109 4 -113 10 -8 13
185 13 205 0z m265 0 c-3 -6 -48 -10 -101 -10 -56 0 -94 4 -94 10 0 6 40 10
101 10 64 0 98 -4 94 -10z"></path>
<path d="M1020 1651 c0 -5 22 -17 50 -26 54 -18 90 -57 90 -97 0 -28 14 -48
52 -71 26 -16 27 -21 24 -77 -3 -59 -3 -60 22 -53 15 3 23 2 19 -4 -9 -14 32
-78 43 -67 5 5 12 42 16 82 6 58 10 72 24 72 30 0 49 -33 52 -90 3 -48 5 -55
23 -53 16 2 21 -4 20 -25 0 -16 6 -28 16 -30 18 -3 29 40 29 116 0 41 1 42 23
30 52 -30 54 -35 51 -106 -2 -37 -5 -110 -8 -163 -3 -64 0 -101 7 -108 8 -8 8
-11 -1 -11 -8 0 -13 -15 -13 -42 0 -67 -17 -340 -24 -365 -3 -12 -1 -25 5 -28
5 -3 10 -1 10 6 0 6 8 9 20 6 16 -4 20 0 20 20 0 17 7 27 21 30 14 4 19 12 16
24 -3 11 -1 16 5 13 7 -4 8 8 3 35 -4 23 -3 47 3 54 5 7 13 145 16 307 4 162
9 297 12 299 2 2 19 5 37 7 17 1 41 5 52 7 11 3 68 6 128 6 l107 1 0 25 c0 22
4 25 35 25 l35 0 0 -87 c0 -49 -5 -232 -10 -408 -7 -240 -6 -328 2 -352 7 -18
16 -33 21 -33 4 0 5 -5 1 -11 -3 -6 -1 -15 7 -19 21 -14 43 39 28 67 -7 13
-10 26 -6 29 3 3 10 -4 17 -15 6 -12 17 -21 25 -21 13 0 15 57 15 413 0 226 3
422 6 435 6 22 8 22 183 22 165 0 177 1 189 20 7 11 23 20 36 20 25 0 51 -22
39 -33 -3 -4 146 -7 332 -7 264 0 336 -3 327 -12 -9 -9 -12 -103 -12 -361 0
-321 1 -351 18 -363 9 -7 20 -14 25 -14 4 0 7 169 7 375 l0 375 147 0 c80 0
143 3 140 7 -12 11 15 33 40 33 16 0 27 -7 30 -20 5 -18 14 -20 87 -20 44 0
112 -3 150 -7 l69 -6 -8 -200 c-5 -143 -4 -197 4 -193 6 4 11 15 11 24 0 10 9
23 21 30 18 12 24 11 40 -7 11 -12 23 -21 26 -21 3 0 3 68 0 150 l-5 150 248
0 c204 0 250 -3 260 -15 15 -18 15 -758 0 -763 -6 -2 -10 -15 -10 -28 0 -21 4
-24 39 -24 40 0 63 16 43 29 -6 4 -12 57 -14 131 -2 69 -5 132 -8 140 -3 9 3
16 18 18 16 3 22 8 18 19 -4 9 -1 22 5 29 8 10 10 75 7 224 -4 187 -3 211 12
225 9 8 20 15 23 15 4 0 7 -177 7 -394 0 -341 -2 -395 -15 -400 -8 -3 -15 -16
-15 -29 0 -23 4 -25 63 -29 34 -3 67 -1 74 4 7 5 26 7 42 3 27 -6 31 -3 37 19
10 40 -1 58 -31 50 -18 -4 -25 -2 -25 9 0 8 -7 17 -15 21 -12 4 -15 -2 -15
-28 0 -32 -13 -46 -41 -46 -5 0 -9 63 -9 144 0 86 -4 147 -10 151 -18 11 -10
22 19 28 23 5 28 10 24 25 -2 11 0 23 6 26 6 4 11 16 11 27 0 11 7 19 16 19
13 0 14 3 5 14 -9 10 -8 16 4 26 8 7 15 19 15 26 0 8 4 14 10 14 5 0 7 6 4 13
-2 7 6 19 20 26 l25 14 -2 185 -2 186 32 21 c18 11 32 28 33 38 1 44 34 89 87
119 29 16 53 32 53 34 0 2 -920 4 -2045 4 -1238 0 -2045 -4 -2045 -9z m3545
-201 c-17 -19 -31 -20 -263 -20 -244 0 -245 0 -227 20 17 19 31 20 263 20 244
0 245 0 227 -20z m-2585 0 c0 -13 -270 -13 -290 0 -10 6 35 10 138 10 95 0
152 -4 152 -10z m2829 -162 c0 -51 -2 -88 -4 -83 -8 23 -11 175 -3 175 4 0 8
-42 7 -92z"></path>
<path d="M2920 1258 c0 -84 -3 -251 -7 -370 l-6 -218 26 0 27 0 0 370 c0 363
0 370 -20 370 -19 0 -20 -7 -20 -152z"></path>
<path d="M1260 1089 c0 -5 5 -7 10 -4 6 3 10 8 10 11 0 2 -4 4 -10 4 -5 0 -10
-5 -10 -11z"></path>
<path d="M1220 994 c0 -8 5 -12 10 -9 6 3 10 10 10 16 0 5 -4 9 -10 9 -5 0
-10 -7 -10 -16z"></path>
<path d="M1252 950 c0 -14 2 -19 5 -12 2 6 2 18 0 25 -3 6 -5 1 -5 -13z"></path>
<path d="M1440 945 c0 -9 10 -15 26 -15 31 0 28 22 -4 27 -14 2 -22 -2 -22
-12z"></path>
<path d="M1291 914 c0 -11 3 -14 6 -6 3 7 2 16 -1 19 -3 4 -6 -2 -5 -13z"></path>
<path d="M1235 850 c-3 -5 -1 -10 4 -10 6 0 11 5 11 10 0 6 -2 10 -4 10 -3 0
-8 -4 -11 -10z"></path>
<path d="M1427 853 c-4 -3 -7 -13 -7 -21 0 -12 3 -12 15 -2 8 7 15 16 15 21 0
11 -14 12 -23 2z"></path>
<path d="M1465 819 c-4 -6 -5 -12 -2 -15 2 -3 7 2 10 11 7 17 1 20 -8 4z"></path>
<path d="M4811 732 c0 -64 2 -72 11 -49 5 15 15 26 21 24 16 -5 47 24 47 44 0
19 -12 30 -52 47 l-28 12 1 -78z"></path>
<path d="M4052 788 c-21 -21 -7 -68 20 -68 4 0 8 18 8 40 0 41 -7 49 -28 28z"></path>
<path d="M1396 768 c-10 -15 -16 -33 -14 -39 2 -6 12 0 22 15 9 15 16 32 13
39 -2 6 -11 -1 -21 -15z"></path>
<path d="M1464 782 c-13 -8 -34 -46 -34 -61 0 -16 26 -13 39 3 15 18 11 68 -5
58z"></path>
<path d="M4917 783 c-4 -3 -7 -22 -7 -41 0 -27 3 -33 16 -28 9 3 18 6 20 6 2
0 4 16 4 35 0 33 -16 46 -33 28z"></path>
<path d="M3963 763 c-7 -18 5 -32 27 -30 29 2 27 43 -1 43 -12 0 -23 -6 -26
-13z"></path>
<path d="M1257 759 c6 -6 9 -18 6 -25 -3 -8 0 -14 6 -14 6 0 11 4 11 9 0 19
-12 41 -23 41 -8 0 -8 -3 0 -11z"></path>
<path d="M1231 738 c0 -7 4 -22 9 -33 6 -16 8 -14 7 13 0 17 -4 32 -9 32 -4 0
-8 -6 -7 -12z"></path>
<path d="M1195 728 c-3 -8 1 -32 8 -53 8 -22 12 -46 10 -52 -3 -7 0 -13 5 -13
6 0 13 8 17 19 7 22 -4 53 -16 45 -5 -3 -6 8 -3 24 6 30 -12 55 -21 30z"></path>
<path d="M1302 695 c0 -16 2 -22 5 -12 2 9 2 23 0 30 -3 6 -5 -1 -5 -18z"></path>
<path d="M1292 640 c0 -14 2 -19 5 -12 2 6 2 18 0 25 -3 6 -5 1 -5 -13z"></path>
<path d="M1241 604 c0 -11 3 -14 6 -6 3 7 2 16 -1 19 -3 4 -6 -2 -5 -13z"></path>
<path d="M4051 571 c-30 -23 -24 -50 17 -74 41 -24 48 -18 29 25 -9 18 -17 41
-19 50 -3 16 -5 16 -27 -1z"></path>
<path d="M3946 528 c-21 -49 -12 -63 18 -25 12 15 27 27 34 27 23 0 13 35 -11
36 -18 1 -27 -7 -41 -38z"></path>
<path d="M4920 528 c0 -23 3 -38 7 -35 3 4 12 2 20 -5 20 -16 27 -3 12 24 -7
12 -12 31 -10 41 1 10 -4 17 -13 17 -12 0 -16 -11 -16 -42z"></path>
<path d="M2025 531 c-3 -5 -1 -12 5 -16 5 -3 10 1 10 9 0 18 -6 21 -15 7z"></path>
</g>
</svg>