 <svg version="1.0" xmlns="http://www.w3.org/2000/svg" viewBox="0 0 700.000000 423.000000" preserveAspectRatio="xMidYMid meet" id="mask">

<g transform="translate(0.000000,423.000000) scale(0.100000,-0.100000)">
<path d="M6735 3664 c-143 -47 -435 -140 -650 -209 l-390 -123 -415 -47 c-228
-26 -441 -49 -472 -52 -32 -3 -58 -8 -58 -10 0 -2 7 -15 16 -28 14 -22 14 -25
1 -31 -29 -11 -42 -66 -42 -179 0 -60 2 -324 3 -586 l3 -476 162 -7 c248 -10
266 -10 274 -3 3 4 -36 7 -89 7 -52 0 -136 3 -186 6 l-92 7 0 443 c0 244 1
444 3 444 1 0 139 9 307 20 168 11 333 20 368 20 l62 0 3 -192 c1 -106 1 -272
-1 -368 -2 -106 1 -186 7 -202 7 -18 7 -28 1 -28 -14 0 -12 -54 2 -68 9 -9 10
-15 2 -20 -7 -4 -13 -26 -15 -49 -4 -40 -4 -41 31 -47 71 -12 107 -7 113 14 4
17 -3 21 -52 31 l-56 11 0 38 c0 21 3 34 6 28 4 -7 11 -3 18 10 7 13 25 23 51
27 31 5 44 13 50 31 12 31 26 30 42 -3 10 -21 24 -29 57 -36 32 -6 45 -14 50
-30 3 -12 8 185 11 438 l5 460 210 37 c965 170 925 161 925 184 0 21 -1 21
-177 -13 -257 -48 -937 -173 -946 -173 -21 0 44 93 112 161 61 61 95 85 171
123 165 81 333 120 510 120 132 0 211 -19 288 -66 18 -11 35 -18 38 -16 2 3 3
113 2 246 l-3 240 -260 -84z m-1398 -596 c43 -16 75 -38 128 -91 l70 -70 -30
-8 c-26 -7 -610 -50 -673 -49 -21 0 -22 1 -8 28 22 42 102 128 142 153 98 60
264 77 371 37z"></path>
<path d="M1052 3018 l3 -43 280 -42 c154 -22 397 -58 540 -79 l260 -38 32 32
c17 18 38 32 46 32 13 0 30 44 21 53 -2 2 -57 -3 -123 -11 l-119 -14 -451 76
c-248 42 -460 76 -471 76 -19 0 -21 -5 -18 -42z"></path>
<path d="M2383 2957 c-46 -5 -83 -14 -83 -19 0 -17 32 -73 60 -103 40 -43 43
-65 20 -127 -25 -68 -47 -81 -129 -76 l-61 3 0 -383 c0 -360 1 -383 18 -380
12 2 19 16 22 43 4 33 9 41 30 43 14 2 33 13 42 25 10 12 18 17 18 10 0 -6 -4
-15 -10 -18 -5 -3 -10 -30 -9 -58 l1 -52 10 38 c9 32 14 37 39 37 16 0 29 -4
29 -9 0 -6 32 -7 75 -4 85 7 125 -10 125 -51 0 -16 7 -26 22 -29 28 -8 34 -2
19 17 -9 10 -9 21 -3 33 6 11 10 226 11 530 l2 511 -70 16 c-38 9 -76 15 -83
15 -7 -1 -50 -6 -95 -12z m37 -507 l0 -100 -65 0 -65 0 0 93 c0 52 3 97 7 100
3 4 33 7 65 7 l58 0 0 -100z m0 -225 c0 -52 1 -98 3 -102 1 -5 -26 -9 -60 -11
l-63 -3 0 106 0 105 60 0 60 0 0 -95z"></path>
<path d="M2274 2918 c3 -13 6 -26 6 -30 0 -5 6 -8 14 -8 12 0 12 5 3 30 -13
35 -32 41 -23 8z"></path>
<path d="M1057 2813 c-10 -9 -9 -93 1 -93 4 0 79 -7 167 -15 223 -21 205 -23
205 30 0 51 16 45 -192 70 -140 17 -172 18 -181 8z"></path>
<path d="M1432 2118 c3 -43 3 -43 46 -46 36 -3 42 0 42 16 0 11 -12 31 -26 46
-15 14 -35 26 -46 26 -16 0 -19 -6 -16 -42z"></path>
<path d="M1185 1973 c8 -45 18 -58 39 -50 11 4 16 19 16 47 0 38 -1 40 -31 40
-31 0 -31 -1 -24 -37z"></path>
<path d="M5803 1923 c-45 -4 -50 -11 -33 -44 8 -14 21 -19 48 -19 20 0 128
-12 239 -27 177 -24 229 -26 212 -9 -3 3 -79 14 -169 26 -253 31 -240 28 -240
56 0 13 -3 23 -7 22 -5 -1 -27 -3 -50 -5z"></path>
<path d="M6344 1808 c-8 -12 -2 -13 291 -53 149 -20 287 -39 308 -42 29 -4 37
-2 37 10 0 19 4 19 -310 56 -314 38 -320 39 -326 29z"></path>
<path d="M1078 1763 c-25 -4 -28 -9 -28 -42 l0 -38 63 14 c34 7 72 16 85 18
29 7 28 21 -3 29 -14 4 -25 11 -25 16 0 10 -39 11 -92 3z"></path>
<path d="M1080 1554 l0 -46 33 7 c44 10 45 11 39 40 -5 29 -6 30 -44 39 -27 6
-28 5 -28 -40z"></path>
</g>
</svg>