 <svg version="1.0" xmlns="http://www.w3.org/2000/svg" viewBox="0 0 700.000000 423.000000" preserveAspectRatio="xMidYMid meet" id="mask">

<g transform="translate(0.000000,423.000000) scale(0.100000,-0.100000)">
<path d="M3404 3795 l-39 -34 79 -1 80 0 -34 35 c-19 19 -37 35 -40 35 -4 0
-24 -16 -46 -35z"></path>
<path d="M3642 3479 l3 -164 68 -3 67 -3 0 103 0 104 -52 50 c-97 92 -89 100
-86 -87z"></path>
<path d="M3188 3589 l-48 -41 0 -114 0 -114 50 0 50 0 0 155 c0 85 -1 155 -2
155 -2 0 -24 -18 -50 -41z"></path>
<path d="M3073 3493 c-21 -14 -23 -23 -23 -104 0 -93 1 -95 48 -83 21 6 22 11
22 105 0 106 -4 113 -47 82z"></path>
<path d="M3800 3396 l0 -94 27 -5 c16 -3 30 -4 33 -2 3 2 4 41 2 88 -3 79 -5
85 -28 96 -14 6 -27 11 -29 11 -3 0 -5 -42 -5 -94z"></path>
<path d="M2830 3286 c-91 -84 -189 -178 -218 -208 l-53 -55 128 -6 c70 -4 172
-7 226 -7 l97 0 0 125 c0 106 -2 125 -15 125 -13 0 -14 4 -5 20 6 11 10 52 8
90 l-3 70 -165 -154z"></path>
<path d="M3921 3344 c2 -44 -1 -86 -6 -94 -5 -8 -11 -67 -13 -131 l-4 -116
227 -7 c124 -4 228 -6 230 -4 3 2 -95 100 -216 218 l-221 213 3 -79z"></path>
<path d="M3095 3275 c-5 -2 -22 -6 -37 -9 l-28 -6 0 -134 0 -133 31 -7 c62
-12 59 -19 59 144 0 83 -3 150 -7 149 -5 0 -12 -2 -18 -4z"></path>
<path d="M3180 3125 l0 -155 275 0 275 0 0 155 0 155 -275 0 -275 0 0 -155z"></path>
<path d="M3785 3125 c-4 -80 -5 -148 -3 -151 3 -2 25 -1 50 2 l45 6 6 132 c3
72 3 134 -1 138 -4 4 -26 10 -48 14 l-41 6 -8 -147z"></path>
<path d="M2650 1954 c-135 -47 -278 -97 -318 -111 -40 -14 -72 -26 -70 -28 2
-1 298 -5 658 -8 360 -3 648 -2 640 2 -31 18 -632 231 -648 230 -9 0 -127 -38
-262 -85z m330 -75 l0 -39 -65 0 -65 0 0 40 0 39 58 3 c31 2 60 2 65 0 4 -2 7
-21 7 -43z"></path>
</g>
</svg>