 <svg version="1.0" xmlns="http://www.w3.org/2000/svg" id="mask" viewBox="0 0 700.000000 423.000000" preserveAspectRatio="xMidYMid meet">

<g transform="translate(0.000000,423.000000) scale(0.100000,-0.100000)">
<path d="M2316 3177 l-309 -252 61 -3 62 -3 206 168 c114 92 214 173 223 180
13 10 46 -10 204 -126 104 -76 212 -152 240 -168 l52 -31 115 6 115 7 -210
156 c-377 279 -433 319 -441 318 -5 0 -148 -114 -318 -252z"></path>
<path d="M4203 3013 l-71 -158 -38 -5 -39 -5 5 -237 5 -236 45 38 45 38 50
209 51 208 42 0 c24 0 42 5 42 11 0 20 -52 269 -59 282 -4 7 -37 -54 -78 -145z"></path>
<path d="M2435 3022 l-170 -138 -6 -60 c-4 -32 -7 -195 -8 -361 l-1 -303 208
0 c114 0 278 3 365 7 l157 6 0 276 c-1 273 -8 362 -29 369 -6 2 -11 25 -11 52
l0 48 -155 116 c-85 64 -161 119 -168 121 -6 2 -88 -58 -182 -133z m251 -163
c24 -8 84 -66 84 -80 0 -5 29 -9 65 -9 l65 0 -2 -227 -3 -228 -285 -6 c-157
-3 -288 -3 -293 1 -4 3 -4 106 0 228 l6 222 56 0 c53 0 56 2 95 46 58 65 131
83 212 53z"></path>
<path d="M4375 2484 c-341 -267 -631 -497 -645 -510 l-25 -24 43 0 42 0 0
-505 0 -505 126 0 126 0 -3 400 c-2 219 0 402 3 405 3 3 302 10 664 15 363 5
806 12 987 15 l327 6 0 -421 0 -420 133 0 132 0 -3 529 -4 530 54 3 53 3 -125
91 c-327 237 -1228 865 -1249 871 -10 2 -267 -193 -636 -483z m686 273 c46
-31 59 -74 52 -176 l-6 -82 -106 3 -106 3 -3 53 c-6 113 24 185 88 211 37 14
44 13 81 -12z m1093 -1049 c-3 -5 -2 -17 2 -26 4 -9 8 -31 10 -48 3 -30 0 -32
-34 -37 -20 -2 -40 -2 -44 0 -12 6 -10 71 2 78 6 3 10 15 10 25 0 11 5 31 12
45 l11 25 18 -27 c10 -15 15 -31 13 -35z m-2187 -76 c5 -48 5 -49 -23 -55 -16
-3 -32 -3 -36 0 -13 7 -9 122 4 143 12 19 13 18 31 -9 10 -16 20 -51 24 -79z"></path>
<path d="M3680 2820 c-96 -4 -286 -11 -422 -15 l-248 -7 0 -213 c0 -116 3
-254 7 -305 l6 -92 156 6 c86 3 274 9 419 12 l262 7 65 51 65 51 0 232 c0 127
-4 243 -10 257 -11 30 11 28 -300 16z m128 -247 l-3 -228 -160 -7 c-88 -4
-220 -8 -293 -10 l-132 -3 0 232 0 232 133 4 c72 1 205 4 295 5 l162 2 -2
-227z"></path>
<path d="M1660 2768 c-173 -4 -334 -11 -358 -14 -43 -5 -43 -6 -28 -29 14 -21
15 -59 9 -295 l-6 -271 294 6 c162 3 371 8 466 11 l171 6 4 77 c7 151 9 469 2
495 l-6 26 -117 -2 c-64 -1 -258 -5 -431 -10z m380 -232 c0 -124 -3 -227 -8
-230 -4 -2 -133 -6 -287 -7 l-280 -3 -3 44 c-2 25 -1 127 3 227 l7 183 192 3
c105 1 233 3 284 5 l92 2 0 -224z"></path>
<path d="M3285 1858 c-170 -5 -312 -11 -315 -14 -11 -12 -3 -560 9 -639 19
-118 16 -115 121 -115 l90 0 0 248 c0 214 8 471 15 480 1 1 127 5 279 9 259 6
276 7 276 25 0 21 28 20 -475 6z m-109 -425 c-10 -10 -19 5 -10 18 6 11 8 11
12 0 2 -7 1 -15 -2 -18z"></path>
<path d="M2360 1840 c-190 -4 -391 -8 -447 -9 -63 0 -103 -5 -103 -11 0 -7 40
-8 120 -4 l120 7 0 -266 0 -267 -63 0 c-55 0 -63 -2 -63 -19 0 -11 5 -17 13
-14 7 3 13 1 13 -5 0 -6 -6 -13 -12 -15 -8 -4 -7 -6 4 -6 11 -1 15 -7 11 -22
-5 -19 -3 -21 20 -15 22 5 27 3 27 -13 0 -23 69 -38 82 -18 5 8 8 7 8 -5 0
-22 18 -24 26 -3 11 27 23 6 14 -24 -8 -30 3 -51 26 -51 16 0 28 76 22 141 -3
28 -1 49 5 49 5 0 7 13 4 30 -4 17 -2 30 3 30 6 0 10 10 10 23 0 44 43 73 84
57 l26 -10 0 210 0 210 153 0 c209 0 427 11 421 22 -3 4 -44 7 -92 6 -48 -1
-242 -5 -432 -8z"></path>
<path d="M1408 1823 l-146 -4 -6 -102 c-3 -56 -7 -223 -8 -372 -3 -311 -8
-299 91 -242 64 38 65 38 134 -8 23 -14 30 -16 37 -6 5 9 10 10 14 2 11 -17
66 -14 66 4 0 8 -6 15 -14 15 -16 0 -46 27 -46 41 0 5 10 13 22 18 14 5 17 10
10 15 -17 10 -15 29 3 22 26 -10 44 4 39 30 -5 28 4 31 21 8 12 -17 44 -9 44
11 0 5 5 11 11 13 6 2 10 -4 8 -13 -2 -10 3 -20 10 -22 8 -3 12 6 12 28 l0 32
-135 -7 -135 -7 0 255 c0 141 -1 259 -2 264 -2 4 61 8 140 10 83 1 142 7 142
12 0 6 -34 9 -82 8 -46 -1 -149 -4 -230 -5z"></path>
<path d="M2438 1293 c-49 -2 -88 -8 -88 -13 0 -6 18 -10 39 -10 47 0 58 -12
37 -42 -11 -15 -16 -45 -16 -85 l0 -63 95 0 95 0 20 44 c11 25 20 49 20 54 0
6 7 12 15 16 8 3 15 17 15 31 0 19 -5 25 -22 25 -14 0 -18 4 -12 9 5 5 50 11
101 13 56 2 97 8 105 16 10 9 -21 12 -152 10 -91 -1 -204 -4 -252 -5z"></path>
<path d="M1886 1275 c-3 -9 0 -15 9 -15 9 0 12 6 9 15 -4 8 -7 15 -9 15 -2 0
-5 -7 -9 -15z"></path>
<path d="M2350 1225 c0 -28 4 -35 20 -35 16 0 20 7 20 35 0 28 -4 35 -20 35
-16 0 -20 -7 -20 -35z"></path>
<path d="M2710 1225 c0 -34 2 -36 28 -33 23 3 27 8 27 33 0 25 -4 30 -27 33
-26 3 -28 1 -28 -33z"></path>
<path d="M2810 1241 c-13 -25 -13 -58 1 -66 14 -9 16 -7 24 43 7 45 -6 58 -25
23z"></path>
<path d="M2201 1193 c0 -6 -4 -20 -7 -30 -5 -14 -4 -15 5 -7 7 7 11 20 8 30
-3 11 -5 14 -6 7z"></path>
<path d="M2235 1130 c-11 -18 17 -40 59 -47 37 -6 38 -5 34 23 -3 26 -7 29
-45 32 -23 2 -44 -2 -48 -8z"></path>
<path d="M2727 1110 c7 -27 22 -35 36 -20 9 9 7 15 -7 26 -27 19 -35 18 -29
-6z"></path>
<path d="M2365 1100 c-18 -19 -17 -20 3 -20 15 0 22 6 22 20 0 11 -2 20 -3 20
-2 0 -12 -9 -22 -20z"></path>
<path d="M2808 1093 c6 -2 18 -2 25 0 6 3 1 5 -13 5 -14 0 -19 -2 -12 -5z"></path>
</g>
</svg>