 <svg version="1.0" xmlns="http://www.w3.org/2000/svg" id="mask" viewBox="0 0 700.000000 423.000000" preserveAspectRatio="xMidYMid meet">

<g transform="translate(0.000000,423.000000) scale(0.100000,-0.100000)">
<path d="M2159 3204 c-239 -190 -443 -350 -454 -355 -11 -4 -159 -12 -329 -16
-233 -6 -310 -11 -314 -20 -3 -10 15 -13 67 -13 56 0 71 -3 71 -15 0 -8 9 -22
19 -32 18 -17 19 -30 11 -298 -4 -154 -6 -282 -4 -285 3 -2 16 -6 29 -7 l24
-4 3 263 c3 256 2 264 -19 307 -13 24 -23 44 -23 45 0 0 120 2 268 4 147 1
363 7 481 13 117 6 227 8 242 5 29 -5 29 -5 29 40 0 35 6 54 25 76 14 16 25
27 25 23 0 -4 16 8 35 27 52 50 95 88 100 88 3 0 17 10 31 23 74 62 86 76 79
89 -5 7 -5 10 0 6 4 -4 14 -3 21 3 17 14 15 15 203 -126 l159 -120 4 -50 3
-50 50 -7 c28 -3 109 -4 180 -2 255 7 471 15 510 19 22 2 95 5 161 6 100 3
124 0 137 -13 9 -8 13 -18 10 -21 -3 -4 -2 -14 2 -24 5 -10 8 -20 7 -23 0 -3
-4 -105 -7 -225 -6 -184 -10 -223 -24 -237 -41 -44 -378 -298 -393 -298 -10 0
-18 -6 -18 -14 0 -11 -21 -16 -82 -20 -152 -10 -1095 -31 -2553 -56 -352 -6
-655 -13 -672 -16 -18 -3 -33 -10 -33 -16 0 -7 121 -9 400 -7 220 2 400 1 400
-3 0 -4 -102 -9 -227 -11 -126 -2 121 -1 547 2 912 7 1537 7 1544 1 9 -9 9
-229 1 -502 l-8 -278 42 0 41 0 1 48 c1 26 2 200 3 387 l1 340 244 7 c135 5
247 12 250 17 4 5 44 12 91 16 104 9 138 24 60 26 -54 1 -54 1 -16 9 22 4 68
5 102 2 l62 -5 4 -36 c3 -20 3 -242 0 -494 -4 -416 -3 -457 12 -457 15 0 16
47 16 506 l0 506 -45 -4 c-25 -2 -45 0 -45 4 0 4 31 33 70 64 38 32 66 62 63
67 -3 6 -1 7 5 3 6 -3 26 9 46 28 20 18 36 31 36 28 0 -2 7 1 15 8 8 7 12 17
9 22 -3 5 2 8 12 6 10 -2 19 3 19 10 0 6 3 11 6 10 4 -2 15 6 25 17 11 12 15
14 9 6 -5 -8 27 13 73 47 45 35 82 69 82 77 0 8 5 15 11 15 5 0 7 -6 3 -12 -5
-9 -2 -9 9 1 9 7 17 21 17 30 0 12 2 13 9 3 6 -11 10 -11 19 0 5 7 12 18 14
23 1 6 7 9 12 7 12 -4 37 19 30 29 -3 5 1 6 9 3 8 -3 20 3 28 12 12 16 12 17
-1 9 -8 -4 -12 -4 -7 0 4 5 14 10 22 11 23 3 146 105 140 115 -4 5 0 6 8 3 8
-3 20 3 28 12 12 16 12 17 -1 9 -8 -4 -12 -4 -7 0 4 5 14 10 22 11 20 3 146
104 141 112 -2 4 8 16 23 26 l26 20 -20 -24 c-15 -18 -9 -16 23 9 23 18 42 35
42 38 0 4 -8 0 -18 -8 -10 -8 -7 -4 6 9 13 12 27 20 32 17 5 -3 12 0 16 6 5 8
3 9 -7 4 -11 -6 -11 -5 -3 4 6 7 20 14 30 15 11 2 17 5 14 8 -9 9 23 39 37 34
8 -3 12 -2 9 2 -3 5 22 32 55 61 l59 52 30 -21 c17 -12 27 -26 24 -32 -4 -7
-2 -8 4 -4 15 9 73 -34 65 -47 -3 -6 -1 -7 5 -3 13 8 204 -129 194 -139 -4 -5
-2 -5 4 -2 6 3 20 -3 32 -13 12 -11 24 -20 28 -20 4 0 32 -19 62 -42 31 -23
99 -71 151 -108 53 -36 182 -126 286 -200 105 -74 219 -154 255 -178 36 -25
99 -68 140 -97 120 -83 150 -103 162 -107 8 -3 8 -10 0 -25 -12 -22 -102 -50
-122 -38 -5 3 -10 17 -10 31 0 15 -6 24 -15 24 -18 0 -20 -187 -8 -738 6 -287
8 -322 22 -320 9 2 15 12 14 22 -1 14 4 16 21 12 32 -8 41 5 17 24 -18 14 -19
32 -23 465 l-3 450 60 18 c80 24 90 30 93 58 l2 24 -14 -25 -15 -25 -1 28 c0
20 5 27 20 27 10 0 24 9 30 20 9 16 8 20 -5 20 -14 0 -111 65 -375 250 -978
688 -1130 792 -1144 787 -7 -3 -216 -165 -465 -361 -249 -196 -457 -356 -462
-356 -5 0 -10 102 -12 233 -1 139 -6 223 -11 210 -10 -28 -26 -20 -26 13 0 15
6 24 16 24 10 0 14 6 10 15 -4 12 4 15 47 13 l52 -1 -45 -7 -45 -8 44 2 c48 1
45 -2 87 96 15 36 56 125 91 198 34 73 63 138 63 145 0 7 3 7 9 2 10 -11 44
-205 38 -212 -3 -2 -8 12 -11 32 -7 38 -30 55 -48 37 -8 -8 -4 -48 16 -142 14
-72 24 -136 21 -141 -4 -5 14 -9 39 -9 30 0 46 4 46 13 0 17 -89 469 -93 474
-2 2 -46 -88 -97 -199 -51 -112 -98 -212 -105 -224 -13 -20 -25 -21 -237 -28
-123 -3 -266 -9 -318 -12 l-95 -6 -280 206 c-154 113 -354 261 -444 329 -91
67 -168 123 -171 125 -3 1 -202 -153 -441 -344z m508 219 c33 -27 204 -154
381 -283 176 -129 321 -238 322 -242 0 -7 -227 -16 -267 -10 -12 2 -133 88
-270 193 -136 104 -253 188 -259 187 -7 -2 -54 -38 -105 -80 -291 -239 -405
-327 -432 -332 -16 -3 -71 -6 -121 -6 -88 0 -90 1 -69 18 113 90 133 103 169
106 21 2 40 9 42 15 2 6 10 11 18 11 8 0 14 7 14 15 0 8 4 15 10 15 11 0 47
29 97 78 19 17 37 32 41 32 4 0 27 18 51 40 23 22 47 40 52 40 5 0 9 6 9 14 0
7 9 16 21 19 12 3 18 10 14 16 -3 6 0 9 8 5 20 -7 33 16 16 27 -10 6 -7 8 11
7 18 -2 25 2 24 13 -1 11 5 15 16 12 10 -3 21 0 24 6 4 6 2 11 -3 11 -6 0 -11
4 -11 9 0 5 10 7 22 3 17 -4 20 -2 15 11 -4 11 8 29 40 57 25 22 49 40 53 40
4 0 34 -21 67 -47z m1720 -375 c-3 -8 -6 -5 -6 6 -1 11 2 17 5 13 3 -3 4 -12
1 -19z m10 -50 c-3 -8 -6 -5 -6 6 -1 11 2 17 5 13 3 -3 4 -12 1 -19z m-428
-132 c-2 -2 -130 -6 -284 -9 -157 -2 -214 -1 -130 2 192 9 420 12 414 7z
m-589 -16 c-14 -8 -270 -16 -295 -9 -5 2 49 6 120 9 72 3 144 7 160 8 22 1 26
-1 15 -8z m-1300 -38 c0 -5 -26 -7 -57 -5 -84 6 -88 11 -10 12 37 1 67 -3 67
-7z m-247 -9 c-56 -2 -151 -2 -210 0 -59 1 -13 3 102 3 116 0 164 -2 108 -3z
m-400 -10 c-34 -2 -93 -2 -130 0 -37 2 -9 3 62 3 72 0 102 -1 68 -3z m3222
-73 c-3 -5 -12 -10 -18 -10 -7 0 -6 4 3 10 19 12 23 12 15 0z m-3385 -20 c0
-5 -4 -10 -10 -10 -5 0 -10 5 -10 10 0 6 5 10 10 10 6 0 10 -4 10 -10z m3340
-14 c0 -3 -4 -8 -10 -11 -5 -3 -10 -1 -10 4 0 6 5 11 10 11 6 0 10 -2 10 -4z
m-460 -360 c0 -3 -4 -8 -10 -11 -5 -3 -10 -1 -10 4 0 6 5 11 10 11 6 0 10 -2
10 -4z m-40 -30 c0 -3 -4 -8 -10 -11 -5 -3 -10 -1 -10 4 0 6 5 11 10 11 6 0
10 -2 10 -4z m-1747 -403 c-34 -2 -93 -2 -130 0 -37 2 -9 3 62 3 72 0 102 -1
68 -3z m100 0 c-7 -2 -19 -2 -25 0 -7 3 -2 5 12 5 14 0 19 -2 13 -5z m-613
-13 c-140 -4 -383 -7 -540 -6 l-285 1 290 5 c160 3 403 6 540 6 l250 0 -255
-6z"></path>
<path d="M2013 2955 c0 -8 4 -12 9 -9 5 3 6 10 3 15 -9 13 -12 11 -12 -6z"></path>
<path d="M2523 2845 c-79 -48 -83 -62 -83 -314 l0 -221 133 0 c72 0 149 3 170
6 l37 7 0 221 0 221 -32 39 c-57 70 -148 87 -225 41z m148 -20 c6 -5 5 -12 -3
-23 -12 -13 -10 -14 9 -4 17 10 25 9 37 -4 25 -24 19 -34 -19 -34 -21 0 -38 6
-45 18 -10 15 -11 15 -6 0 4 -15 -4 -17 -70 -17 -40 0 -74 4 -74 8 0 4 9 16
20 26 11 10 20 14 20 10 0 -5 6 -2 13 7 18 24 87 31 118 13z m66 -188 l3 -87
-40 0 c-40 0 -40 0 -40 40 0 25 5 40 13 40 9 0 9 2 0 8 -6 4 -13 23 -16 42
l-4 35 -1 -37 -2 -38 -66 1 c-36 1 -68 -2 -71 -5 -4 -3 26 -6 65 -6 l72 0 0
-40 0 -40 -86 0 c-85 0 -86 0 -80 23 3 12 6 50 6 84 l0 62 108 4 c59 1 114 3
122 2 12 0 15 -18 17 -88z m2 -191 l0 -85 -32 -3 c-18 -2 -53 -1 -79 0 l-48 4
0 76 c0 96 -10 89 -13 -9 l-2 -74 -35 0 -35 0 -3 88 -2 87 124 0 125 0 0 -84z"></path>
<path d="M2560 2796 c0 -2 7 -9 15 -16 9 -7 15 -8 15 -2 0 5 -7 12 -15 16 -8
3 -15 4 -15 2z"></path>
<path d="M2605 2790 c-3 -5 -1 -10 4 -10 6 0 11 5 11 10 0 6 -2 10 -4 10 -3 0
-8 -4 -11 -10z"></path>
<path d="M2623 2443 c15 -2 39 -2 55 0 15 2 2 4 -28 4 -30 0 -43 -2 -27 -4z"></path>
<path d="M2980 2486 c0 -276 2 -316 15 -316 13 0 15 39 13 312 -2 238 -6 312
-15 316 -10 3 -13 -64 -13 -312z"></path>
<path d="M3502 2789 c-79 -4 -146 -9 -148 -11 -8 -9 -16 -435 -8 -441 5 -3 82
-3 172 0 l162 6 0 213 c0 215 -3 245 -24 243 -6 -1 -76 -6 -154 -10z m144 -55
c-3 -8 -6 -27 -6 -40 0 -19 -5 -24 -27 -25 l-28 -2 28 -4 c24 -4 27 -9 27 -42
0 -46 -5 -47 -152 -50 l-98 -1 0 83 c0 46 3 86 6 90 3 3 62 6 131 6 110 1 124
-1 119 -15z m-6 -264 l0 -90 -125 1 -125 0 0 40 c0 39 0 39 39 39 36 0 40 -3
44 -27 3 -24 4 -23 6 7 l1 35 -45 -3 -45 -4 0 41 0 40 73 3 c39 2 96 4 125 6
l52 2 0 -90z"></path>
<path d="M3472 2700 c0 -14 2 -19 5 -12 2 6 2 18 0 25 -3 6 -5 1 -5 -13z"></path>
<path d="M3550 2687 c0 -20 4 -37 10 -37 5 0 7 14 3 33 -8 45 -13 47 -13 4z"></path>
<path d="M3460 2660 c0 -5 5 -10 10 -10 6 0 10 5 10 10 0 6 -4 10 -10 10 -5 0
-10 -4 -10 -10z"></path>
<path d="M3472 2520 c0 -14 2 -19 5 -12 2 6 2 18 0 25 -3 6 -5 1 -5 -13z"></path>
<path d="M3561 2524 c0 -11 3 -14 6 -6 3 7 2 16 -1 19 -3 4 -6 -2 -5 -13z"></path>
<path d="M3558 2463 c6 -2 18 -2 25 0 6 3 1 5 -13 5 -14 0 -19 -2 -12 -5z"></path>
<path d="M2220 2465 c0 -203 4 -315 10 -315 6 0 10 112 10 315 0 203 -4 315
-10 315 -6 0 -10 -112 -10 -315z"></path>
<path d="M4951 2754 c-36 -26 -51 -74 -51 -170 l0 -87 68 6 c37 4 84 7 105 7
l37 0 0 95 c0 91 -1 95 -31 130 -25 28 -38 35 -68 35 -20 0 -47 -7 -60 -16z"></path>
<path d="M1703 2743 l-113 -4 0 -219 0 -220 159 0 158 0 7 61 c8 79 8 317 0
358 -6 30 -8 31 -53 29 -25 -1 -97 -4 -158 -5z m177 -116 l0 -84 -72 -6 c-40
-3 -95 -5 -123 -4 l-50 2 -2 82 c-2 96 -13 89 140 92 l107 1 0 -83z m-2 -194
l-3 -88 -30 0 c-29 0 -30 2 -36 50 l-6 50 -1 -52 -2 -52 -80 0 -80 0 0 90 0
89 120 0 121 0 -3 -87z"></path>
<path d="M6343 1993 c9 -2 25 -2 35 0 9 3 1 5 -18 5 -19 0 -27 -2 -17 -5z"></path>
<path d="M1725 1810 c-6 -17 -15 -20 -75 -20 l-69 0 -5 -52 c-3 -29 -8 -142
-11 -250 l-5 -198 80 0 c69 0 80 -2 80 -17 1 -17 2 -17 14 0 12 15 16 16 23 4
15 -25 41 -28 45 -4 2 13 10 22 21 22 10 0 22 6 26 13 7 11 9 11 14 -1 3 -7
15 -13 28 -12 31 2 37 28 33 165 -2 63 -4 158 -4 210 0 121 -18 109 -22 -15
l-3 -90 -47 -3 -48 -3 0 93 c0 98 7 122 37 124 53 3 63 5 63 13 0 5 -18 7 -41
4 -35 -5 -41 -3 -46 16 -8 30 -79 31 -88 1z m-45 -40 l48 0 1 -105 2 -105 -63
0 -64 0 1 110 c0 88 3 109 13 105 8 -3 35 -5 62 -5z m48 -290 c1 -36 -1 -83
-6 -105 l-8 -40 -49 0 -50 0 -3 102 c-4 114 -4 113 78 109 l35 -1 3 -65z m160
-37 l-3 -108 -40 3 c-22 2 -41 5 -43 7 -7 6 -12 152 -6 178 5 24 10 27 50 27
l45 0 -3 -107z"></path>
<path d="M2523 1813 l-81 -4 -1 -167 c-1 -92 -4 -206 -8 -254 l-6 -88 187 0
186 0 0 260 0 260 -97 -2 c-54 -1 -135 -4 -180 -5z m247 -138 l0 -105 -145 0
-145 0 0 105 0 105 145 0 145 0 0 -105z m-5 -225 l0 -105 -140 0 -140 0 -3
102 -3 102 118 4 c65 2 129 3 143 3 l25 -1 0 -105z"></path>
<path d="M3206 1808 c-2 -7 -7 -172 -10 -365 l-5 -353 187 0 c191 0 262 6 262
21 0 5 -62 9 -138 9 l-139 0 -6 233 c-4 127 -7 280 -7 340 l0 107 160 0 160 0
-1 -345 c-1 -190 1 -348 4 -352 7 -6 12 383 8 582 -1 61 -7 115 -12 120 -6 6
-102 11 -235 13 -179 3 -225 1 -228 -10z m132 -300 l-3 -283 -50 0 -50 0 -2
108 -3 107 33 2 32 1 -32 4 -31 4 -1 170 -1 169 55 0 55 0 -2 -282z m-57 -310
c0 -10 2 -10 6 0 2 6 16 12 29 12 24 0 25 -3 22 -52 -3 -46 -6 -53 -25 -56
-18 -3 -23 1 -23 21 0 21 -4 23 -30 19 -29 -4 -30 -3 -30 32 0 32 3 36 25 36
14 0 25 -6 26 -12z"></path>
<path d="M3275 1560 c-3 -5 -1 -10 4 -10 6 0 11 5 11 10 0 6 -2 10 -4 10 -3 0
-8 -4 -11 -10z"></path>
<path d="M3277 1320 c3 -11 7 -20 9 -20 2 0 4 9 4 20 0 11 -4 20 -9 20 -5 0
-7 -9 -4 -20z"></path>
<path d="M501 1750 c-5 -19 -11 -144 -12 -279 -2 -244 -2 -245 20 -253 12 -4
20 -12 16 -17 -3 -6 -12 -8 -20 -4 -8 3 -15 0 -15 -6 0 -7 7 -14 15 -17 8 -4
15 -10 15 -15 0 -5 -7 -9 -15 -9 -8 0 -15 -4 -15 -10 0 -5 9 -10 21 -10 11 0
29 -5 41 -11 11 -6 23 -8 26 -4 10 9 9 664 0 658 -5 -2 -8 1 -8 7 0 5 -13 9
-29 8 -24 -2 -31 -8 -40 -38z"></path>
<path d="M5410 1769 c-311 -4 -746 -11 -967 -14 l-403 -7 0 -383 c0 -441 4
-505 31 -505 18 0 19 17 19 410 l0 410 128 0 c70 0 488 5 930 11 441 6 804 10
806 8 2 -2 7 -192 11 -421 7 -391 9 -418 26 -418 26 0 31 86 27 530 -3 377 -3
385 -23 386 -11 1 -274 -2 -585 -7z"></path>
<path d="M1226 1494 c-4 -137 -8 -285 -9 -329 -1 -45 2 -82 8 -85 13 -6 29
625 16 648 -5 9 -11 -83 -15 -234z"></path>
<path d="M6091 1638 c-1 -37 0 -38 34 -38 34 0 35 1 34 38 l-1 37 -9 -33 c-12
-42 -41 -40 -50 3 -6 29 -7 29 -8 -7z"></path>
<path d="M968 1643 c-3 -11 -6 -67 -7 -124 -1 -57 -6 -180 -10 -274 -5 -93 -7
-173 -4 -177 2 -5 20 -8 40 -8 l36 0 -7 98 c-3 53 -9 186 -13 294 -3 109 -9
195 -14 193 -4 -3 -9 0 -11 7 -3 7 -7 3 -10 -9z"></path>
<path d="M3950 1621 c0 -16 -6 -32 -12 -34 -7 -3 -3 -6 10 -6 19 -1 22 4 22
34 0 19 -4 35 -10 35 -5 0 -10 -13 -10 -29z"></path>
<path d="M3900 1590 c0 -5 5 -10 11 -10 5 0 7 5 4 10 -3 6 -8 10 -11 10 -2 0
-4 -4 -4 -10z"></path>
</g>
</svg>