 <svg version="1.0" xmlns="http://www.w3.org/2000/svg" id="mask" viewBox="0 0 700.000000 423.000000" preserveAspectRatio="xMidYMid meet">

<g transform="translate(0.000000,423.000000) scale(0.100000,-0.100000)">
<path d="M1637 1588 c-4 -62 -7 -279 -7 -481 l0 -369 102 8 c122 8 153 19 153
54 0 19 10 30 44 49 25 14 40 26 33 29 -7 2 0 15 19 33 l30 28 26 -27 c14 -15
21 -20 14 -11 -12 18 4 40 24 33 7 -3 16 0 20 6 5 8 15 4 32 -12 13 -13 43
-30 66 -39 33 -13 43 -22 45 -44 2 -17 8 -25 16 -22 8 3 34 8 59 12 26 4 52
13 58 21 6 8 17 14 23 14 6 0 20 9 29 21 15 17 16 23 5 37 -24 30 -37 42 -45
41 -27 -5 -45 2 -39 16 3 9 -1 15 -11 15 -12 0 -14 7 -9 30 l6 30 -215 0 -215
0 0 320 0 320 -128 0 -129 0 -6 -112z"></path>
<path d="M2760 1676 c-1 -145 -12 -606 -15 -620 -2 -12 6 -29 21 -43 25 -23
25 -43 -1 -43 -14 0 -25 -21 -25 -47 0 -11 7 -14 24 -9 14 3 28 2 31 -4 3 -5
-1 -10 -9 -10 -20 0 -21 -24 -2 -39 14 -11 161 -23 171 -13 6 6 -11 36 -31 57
-13 13 -29 15 -68 11 l-51 -5 42 10 c34 8 47 18 73 60 l32 49 -4 325 c-2 178
-6 326 -8 328 -3 2 -44 7 -92 10 -85 5 -88 4 -88 -17z"></path>
<path d="M4280 1402 c0 -195 4 -302 11 -309 5 -5 21 -8 35 -5 32 6 35 57 4 65
-17 4 -20 11 -14 34 8 36 27 50 90 69 29 8 61 23 73 33 12 11 38 22 59 25 78
14 72 -3 72 202 l0 184 -165 0 -165 0 0 -298z"></path>
<path d="M4242 1478 c0 -117 3 -251 7 -298 6 -60 8 1 9 213 1 164 -3 297 -8
297 -5 0 -9 -96 -8 -212z"></path>
<path d="M5478 1373 l-3 -318 -294 -3 c-259 -2 -297 -4 -313 -19 -10 -9 -17
-22 -14 -29 3 -7 -1 -17 -8 -23 -15 -13 -9 -61 7 -61 6 0 24 -12 40 -27 28
-26 29 -27 23 -6 -6 18 -4 22 8 17 10 -4 16 -1 16 8 0 18 54 38 71 27 8 -5 25
-9 38 -9 18 0 22 -4 18 -20 -3 -13 0 -20 9 -20 8 0 14 -5 14 -11 0 -8 14 -10
41 -6 29 4 42 1 46 -9 8 -22 47 -17 62 9 8 12 14 36 12 53 -2 27 2 32 23 36
44 9 74 -2 86 -31 7 -19 18 -27 33 -27 18 1 22 -4 20 -29 -2 -25 0 -27 8 -12
12 21 42 22 60 1 12 -14 14 -14 25 1 11 15 13 15 22 -1 8 -15 13 -16 25 -6 12
10 18 10 30 -3 21 -21 66 -19 73 3 11 34 22 47 40 47 11 0 25 4 32 8 8 6 12 1
12 -14 0 -18 3 -19 15 -9 8 6 18 9 23 6 6 -3 10 21 11 57 0 34 3 203 7 376 3
173 3 325 -1 338 -5 23 -6 23 -160 23 l-155 0 -2 -317z"></path>
<path d="M5856 1665 c-10 -39 -6 -774 4 -780 5 -3 13 2 18 10 10 18 59 26 84
13 19 -9 14 -36 -11 -54 -13 -10 -12 -12 5 -17 10 -3 30 -4 44 -3 14 2 55 4
93 5 l67 1 0 49 c0 30 -5 51 -12 54 -11 4 -49 72 -91 164 -5 12 -7 42 -4 67 8
57 62 163 87 171 11 4 20 14 21 23 2 74 -3 281 -8 300 -5 22 -8 22 -148 22
l-143 0 -6 -25z"></path>
<path d="M1569 1553 c0 -65 -3 -238 -5 -385 -3 -182 -2 -268 6 -268 7 0 10
124 10 385 0 212 -2 385 -5 385 -3 0 -5 -53 -6 -117z"></path>
<path d="M2990 1626 c0 -9 5 -16 10 -16 6 0 10 4 10 9 0 6 -4 13 -10 16 -5 3
-10 -1 -10 -9z"></path>
<path d="M2980 1324 c0 -245 2 -275 15 -264 23 19 23 540 0 540 -13 0 -15 -37
-15 -276z"></path>
<path d="M2233 780 c-13 -35 -9 -39 35 -33 28 5 32 9 32 34 0 25 -4 29 -28 29
-22 0 -30 -7 -39 -30z"></path>
</g>
</svg>