 <svg version="1.0" xmlns="http://www.w3.org/2000/svg" id="mask" viewBox="0 0 700.000000 423.000000" preserveAspectRatio="xMidYMid meet">

<g transform="translate(0.000000,423.000000) scale(0.100000,-0.100000)">
<path d="M2070 4210 c30 -10 404 -123 830 -250 426 -127 783 -233 793 -236 15
-5 17 3 17 75 l0 80 -32 10 c-18 5 -252 84 -521 175 l-487 166 -328 -1 -327
-1 55 -18z"></path>
<path d="M0 2695 l0 -1395 43 0 c23 0 132 9 242 20 110 11 203 20 208 20 4 0
7 488 7 1085 l0 1085 23 -5 c12 -3 353 -59 757 -125 404 -66 741 -123 748
-125 9 -3 12 -141 12 -644 l0 -640 25 -27 c14 -15 25 -39 25 -53 0 -40 -28
-162 -40 -176 -6 -8 -10 -29 -8 -47 2 -28 7 -34 31 -36 27 -3 27 -4 27 -79 l0
-75 93 6 c50 4 124 11 162 16 39 5 131 12 205 15 169 8 183 11 170 35 -18 34
-11 73 20 105 18 19 31 45 36 73 l7 42 -72 0 c-53 0 -73 4 -77 14 -3 8 9 63
27 121 37 121 37 121 143 126 l68 4 51 -113 c58 -129 58 -126 -35 -137 l-57
-7 6 -46 c5 -34 14 -52 36 -71 26 -22 29 -29 24 -68 l-5 -44 112 7 c183 11
262 -16 321 -108 17 -26 39 -50 50 -52 11 -3 83 -12 160 -21 77 -8 152 -18
168 -21 l27 -6 0 986 c0 542 -3 986 -7 986 -3 0 -143 32 -311 71 l-305 72 -81
-12 c-73 -11 -90 -11 -166 7 -47 12 -265 60 -485 107 -220 48 -638 140 -930
206 -753 170 -1424 319 -1441 319 -12 0 -14 -199 -14 -1395z"></path>
</g>
</svg>