 <svg version="1.0" xmlns="http://www.w3.org/2000/svg" id="mask" viewBox="0 0 700.000000 423.000000" preserveAspectRatio="xMidYMid meet">

<g transform="translate(0.000000,423.000000) scale(0.100000,-0.100000)">
<path d="M4344 4118 c-43 -62 -138 -198 -212 -301 -110 -155 -133 -193 -128
-213 7 -28 -31 -74 -61 -74 -12 0 -122 -149 -349 -473 -182 -259 -336 -481
-341 -492 -6 -12 -13 -192 -17 -442 l-8 -423 76 0 76 0 0 298 0 299 177 11
c97 7 177 11 179 9 2 -1 5 -188 7 -414 3 -287 1 -423 -7 -448 l-11 -37 -90 6
c-49 4 -117 9 -150 12 l-61 6 -2 -54 c-1 -29 2 -59 6 -65 5 -9 80 -20 213 -33
112 -11 220 -23 241 -26 34 -5 36 -4 43 26 6 28 17 36 79 65 l71 32 -88 8
c-61 5 -90 12 -93 21 -2 8 -7 22 -10 32 -9 28 -4 866 6 876 7 7 690 49 1332
82 l138 7 2 -418 3 -419 70 -12 c39 -7 89 -16 113 -20 l42 -7 0 160 c0 88 3
288 7 445 l6 284 306 17 c168 10 316 17 329 17 l22 0 0 -540 0 -539 158 -174
157 -174 6 116 c4 64 10 484 14 933 l7 817 -478 357 c-264 197 -667 496 -896
666 l-417 308 -195 0 -195 0 -77 -112z m1027 -935 c1 -410 2 -384 -7 -435 -5
-28 -11 -38 -25 -38 -10 0 -332 -29 -715 -65 -383 -36 -705 -65 -715 -65 -13
0 -19 7 -19 23 0 13 -3 26 -6 30 -9 8 -4 611 5 620 4 4 248 55 542 113 294 57
620 122 724 143 105 22 195 39 202 40 10 1 13 -84 14 -366z"></path>
<path d="M3960 3575 c-10 -12 -10 -15 3 -15 8 0 17 7 21 15 3 8 2 15 -3 15 -5
0 -14 -7 -21 -15z"></path>
<path d="M3230 1575 l0 -35 75 0 75 0 0 35 0 35 -75 0 -75 0 0 -35z"></path>
<path d="M3230 1480 c0 -18 7 -20 75 -20 68 0 75 2 75 20 0 18 -7 20 -75 20
-68 0 -75 -2 -75 -20z"></path>
<path d="M3237 1354 c-15 -16 -5 -21 46 -23 28 -1 61 -3 72 -4 12 -1 20 4 20
13 0 12 -15 16 -65 18 -36 2 -69 0 -73 -4z"></path>
</g>
</svg>