 <svg version="1.0" xmlns="http://www.w3.org/2000/svg" id="mask" viewBox="0 0 700.000000 423.000000" preserveAspectRatio="xMidYMid meet">

<g transform="translate(0.000000,423.000000) scale(0.100000,-0.100000)">
<path d="M2940 3223 c-19 -3 -38 -8 -43 -12 -4 -4 -4 -103 -1 -219 l7 -212 53
0 c29 0 64 4 78 10 l26 10 0 215 0 215 -42 -2 c-24 0 -59 -3 -78 -5z"></path>
<path d="M2253 3173 l-63 -4 0 -214 0 -215 75 0 75 0 0 220 c0 170 -3 220 -12
218 -7 -1 -41 -3 -75 -5z"></path>
<path d="M1525 3111 l-50 -6 -8 -125 c-4 -69 -6 -163 -5 -210 l3 -85 78 -3 77
-3 0 183 c0 101 3 200 6 221 7 42 10 41 -101 28z"></path>
<path d="M843 3063 l-33 -4 0 -210 0 -211 68 7 c37 4 68 8 69 9 1 1 5 95 9
209 l7 207 -44 -2 c-24 0 -59 -3 -76 -5z"></path>
<path d="M4527 2513 l-57 -4 2 -382 3 -382 80 0 80 0 3 388 2 387 -27 -2 c-16
-1 -54 -3 -86 -5z"></path>
<path d="M6030 2259 c0 -11 4 -18 10 -14 5 3 7 12 3 20 -7 21 -13 19 -13 -6z"></path>
<path d="M6110 2230 c0 -14 39 -32 52 -24 7 5 5 11 -7 21 -22 15 -45 17 -45 3z"></path>
<path d="M6030 2075 c7 -9 15 -13 17 -11 7 7 -7 26 -19 26 -6 0 -6 -6 2 -15z"></path>
<path d="M6020 2030 c0 -5 5 -10 11 -10 5 0 7 5 4 10 -3 6 -8 10 -11 10 -2 0
-4 -4 -4 -10z"></path>
<path d="M6097 1921 c-4 -16 -11 -19 -36 -16 l-31 4 25 -27 c14 -15 25 -30 25
-34 0 -5 5 -8 10 -8 6 0 10 9 10 20 0 11 7 20 15 20 17 0 15 34 -2 51 -7 7
-12 4 -16 -10z"></path>
<path d="M2200 1650 c0 -120 3 -170 11 -170 8 0 10 -12 6 -35 l-6 -35 68 0 68
0 7 53 c3 28 6 121 6 205 l0 152 -80 0 -80 0 0 -170z"></path>
<path d="M900 1586 l0 -184 75 1 75 2 0 183 0 182 -75 0 -75 0 0 -184z"></path>
<path d="M2275 1351 c-3 -5 -1 -12 5 -16 12 -7 30 2 30 16 0 12 -27 12 -35 0z"></path>
<path d="M4457 1178 c-3 -18 -2 -246 1 -505 l5 -473 101 1 c84 1 96 3 74 12
-16 6 -28 14 -28 19 0 4 21 -2 46 -12 66 -29 171 -24 124 5 -5 3 -10 12 -10
18 0 7 7 3 15 -8 14 -17 17 -18 31 -3 15 14 14 18 -1 42 -23 35 -47 33 -94 -9
-55 -50 -63 -43 -12 9 42 42 86 63 97 45 3 -5 16 -9 29 -9 13 0 29 -8 34 -17
10 -17 10 -17 11 0 0 16 20 26 20 10 0 -5 4 -14 9 -22 8 -12 12 -12 24 -2 13
10 16 8 22 -8 7 -25 18 -26 34 -7 14 16 4 116 -11 116 -5 0 -8 6 -5 13 2 6 0
23 -5 35 -10 28 0 51 13 31 5 -8 9 -29 9 -46 0 -25 4 -33 18 -33 13 0 14 -2 3
-9 -22 -14 4 -82 30 -78 31 5 45 25 33 45 -12 19 -1 62 16 62 6 0 8 11 5 28
-6 26 -6 26 9 8 9 -11 16 -25 16 -30 0 -6 12 7 25 29 14 22 25 33 25 24 0 -9
7 -19 15 -23 12 -4 14 0 9 22 -5 23 -3 25 8 12 8 -10 27 -15 48 -14 19 2 43 3
53 3 15 1 17 6 12 32 -6 24 -4 30 6 26 8 -2 13 -10 12 -16 -2 -6 2 -11 8 -11
5 0 8 -4 4 -9 -9 -15 14 -24 29 -12 7 6 22 9 32 5 18 -5 18 -5 2 9 -10 8 -18
19 -18 26 0 12 23 15 34 4 4 -5 13 -8 19 -8 7 0 13 -12 15 -28 5 -38 41 -38
43 1 2 23 2 24 6 5 2 -13 11 -23 19 -23 8 0 14 -5 14 -12 0 -6 6 -4 13 6 13
17 15 17 47 -3 26 -15 37 -18 48 -9 10 9 15 9 22 -1 5 -10 9 -10 15 -2 5 8 11
9 19 2 9 -7 16 -5 25 8 8 11 21 16 32 14 25 -7 24 -19 -3 -26 -18 -5 -19 -9
-9 -21 7 -8 19 -12 27 -9 8 3 21 -1 30 -8 14 -11 20 -9 42 16 25 29 25 29 18
5 -17 -57 -19 -73 -7 -66 6 4 24 -2 39 -13 25 -18 32 -18 54 -7 15 8 30 10 35
6 4 -5 75 -11 157 -14 82 -3 152 -10 155 -15 4 -5 24 -11 46 -13 32 -2 39 -7
37 -20 -2 -13 4 -18 21 -18 23 0 24 3 26 67 0 38 -3 73 -7 80 -4 7 -5 39 -2
73 3 33 3 61 -1 62 -4 2 -4 35 0 73 5 39 4 72 0 75 -4 3 -4 11 0 18 4 7 6 23
4 36 -4 18 1 25 29 33 l33 11 -37 1 -36 1 5 43 c10 75 18 87 60 88 35 0 36 1
14 10 -14 5 -31 7 -38 5 -20 -8 -45 5 -35 18 5 6 9 28 8 48 -2 36 -1 37 44 44
l45 8 -60 7 c-33 4 -104 7 -159 8 -97 1 -98 1 -93 24 6 22 -4 50 -17 48 -38
-5 -47 0 -44 26 l3 26 -200 -2 c-110 -1 -202 -4 -204 -7 -2 -2 48 -4 112 -4
64 0 118 -4 121 -8 3 -5 -31 -17 -74 -27 -44 -10 -78 -20 -76 -23 3 -2 55 8
116 23 134 32 164 31 168 -7 3 -26 2 -26 -65 -33 -107 -10 -116 -14 -20 -9 81
4 88 3 85 -13 -3 -16 -21 -18 -188 -21 -190 -3 -255 2 -245 19 4 5 -1 9 -9 9
-22 0 -20 8 10 47 14 19 24 37 21 39 -3 3 -15 -11 -27 -30 -28 -46 -43 -46
-38 -1 4 38 -4 43 -59 37 -31 -4 -33 -6 -33 -46 l0 -41 -25 30 c-13 17 -24 36
-25 43 0 6 -4 12 -10 12 -15 0 -12 -8 15 -44 33 -43 32 -58 -2 -51 -16 3 -22
2 -13 -2 8 -5 16 -14 17 -20 2 -10 -22 -13 -95 -13 -53 0 -148 -3 -209 -7
-110 -6 -113 -5 -113 15 0 11 8 23 18 25 16 4 16 5 0 6 -12 1 -18 9 -18 25 0
27 32 38 87 29 20 -4 33 -1 33 5 0 7 28 13 68 15 37 2 -58 1 -212 -1 -186 -3
-309 -1 -370 8 -113 15 -128 19 -101 30 13 6 -4 9 -51 9 l-72 1 -5 -32z m523
-63 c0 -24 -2 -25 -82 -27 l-83 -2 83 -3 c71 -3 82 -6 82 -22 0 -16 -14 -19
-137 -24 -75 -4 -177 -7 -227 -7 -78 0 -88 2 -76 14 22 21 116 46 179 47 41 1
49 3 31 8 -19 6 -2 11 65 20 50 7 95 14 100 16 6 2 22 4 38 4 22 1 27 -3 27
-24z"></path>
<path d="M6297 1186 c-3 -8 1 -17 9 -20 24 -9 106 -7 100 3 -3 4 -21 7 -41 5
-20 -1 -41 4 -49 12 -12 11 -15 11 -19 0z"></path>
<path d="M5218 1133 c6 -2 18 -2 25 0 6 3 1 5 -13 5 -14 0 -19 -2 -12 -5z"></path>
<path d="M5268 1123 c6 -2 18 -2 25 0 6 3 1 5 -13 5 -14 0 -19 -2 -12 -5z"></path>
<path d="M6353 1123 c9 -2 25 -2 35 0 9 3 1 5 -18 5 -19 0 -27 -2 -17 -5z"></path>
<path d="M5318 1113 c6 -2 18 -2 25 0 6 3 1 5 -13 5 -14 0 -19 -2 -12 -5z"></path>
<path d="M5788 1113 c7 -3 16 -2 19 1 4 3 -2 6 -13 5 -11 0 -14 -3 -6 -6z"></path>
<path d="M5378 1103 c7 -3 16 -2 19 1 4 3 -2 6 -13 5 -11 0 -14 -3 -6 -6z"></path>
<path d="M5748 1103 c7 -3 16 -2 19 1 4 3 -2 6 -13 5 -11 0 -14 -3 -6 -6z"></path>
<path d="M5428 1093 c6 -2 18 -2 25 0 6 3 1 5 -13 5 -14 0 -19 -2 -12 -5z"></path>
<path d="M5698 1093 c7 -3 16 -2 19 1 4 3 -2 6 -13 5 -11 0 -14 -3 -6 -6z"></path>
<path d="M5863 1083 c15 -2 37 -2 50 0 12 2 0 4 -28 4 -27 0 -38 -2 -22 -4z"></path>
<path d="M5203 1073 c20 -2 54 -2 75 0 20 2 3 4 -38 4 -41 0 -58 -2 -37 -4z"></path>
<path d="M5753 1073 c9 -2 25 -2 35 0 9 3 1 5 -18 5 -19 0 -27 -2 -17 -5z"></path>
<path d="M5160 400 c0 -5 5 -10 11 -10 5 0 7 5 4 10 -3 6 -8 10 -11 10 -2 0
-4 -4 -4 -10z"></path>
<path d="M5095 370 c3 -5 8 -10 11 -10 2 0 4 5 4 10 0 6 -5 10 -11 10 -5 0 -7
-4 -4 -10z"></path>
<path d="M4830 270 c0 -13 28 -25 38 -16 3 4 0 11 -8 16 -20 13 -30 12 -30 0z"></path>
</g>
</svg>