 <svg version="1.0" xmlns="http://www.w3.org/2000/svg" id="mask" viewBox="0 0 700.000000 423.000000" preserveAspectRatio="xMidYMid meet">

<g transform="translate(0.000000,423.000000) scale(0.100000,-0.100000)">
<path d="M1755 3734 c-164 -77 -268 -127 -460 -219 -77 -37 -311 -146 -520
-242 -209 -97 -385 -182 -391 -189 -8 -9 -13 -158 -18 -461 -3 -247 -9 -501
-12 -567 l-7 -119 184 7 c297 10 1750 74 2310 101 284 14 562 25 617 25 l102
0 0 39 c0 22 -5 42 -12 44 -10 4 -10 6 0 6 9 1 12 125 12 585 l0 583 -92 27
c-51 15 -128 36 -170 46 -103 26 -350 94 -468 130 -52 16 -171 50 -265 75
-166 45 -291 82 -505 150 -167 52 -147 53 -305 -21z m1137 -503 c2 -6 34 -7
81 -2 43 4 80 4 82 0 3 -3 5 -102 5 -219 1 -160 -2 -215 -11 -221 -7 -4 -43
-10 -80 -14 -54 -6 -68 -10 -72 -26 -4 -13 -14 -19 -34 -19 -15 0 -118 -7
-228 -15 -260 -19 -295 -19 -295 0 0 12 -16 15 -80 15 -73 0 -80 2 -80 19 0
11 -5 23 -11 27 -8 4 -8 9 0 17 15 15 14 87 -1 87 -9 0 -9 3 0 12 16 16 16 88
0 89 -10 0 -10 2 0 6 7 3 12 23 12 49 0 28 -4 44 -12 44 -10 0 -10 2 -1 8 6 4
13 23 15 42 l3 35 85 13 c82 13 523 58 587 61 17 0 33 -3 35 -8z m-1264 -329
l-5 -217 -81 -3 c-74 -3 -82 -5 -82 -22 0 -16 -7 -20 -32 -21 -18 0 -132 -6
-253 -13 -194 -12 -221 -11 -232 2 -10 11 -26 14 -73 9 -37 -3 -62 -1 -66 5
-4 6 -6 40 -6 77 1 41 -3 68 -11 73 -9 6 -9 8 1 8 8 0 12 16 12 45 0 29 -4 45
-12 46 -10 0 -10 2 0 6 7 2 12 22 12 44 0 24 -5 39 -12 40 -10 0 -10 2 0 6 6
2 12 18 12 33 0 36 4 38 87 51 37 5 82 12 98 15 68 12 370 30 503 31 l144 1
-4 -216z"></path>
<path d="M3610 2966 c0 -168 2 -306 5 -306 3 0 16 6 28 14 12 8 41 25 64 38
240 135 441 254 437 259 -7 12 -369 188 -413 201 -29 9 -56 27 -82 57 l-39 44
0 -307z"></path>
<path d="M3794 2505 c-14 -25 -35 -50 -46 -56 -11 -6 -24 -25 -31 -42 l-10
-31 -18 41 c-9 22 -31 60 -48 83 l-30 42 -3 -236 -3 -236 45 0 c61 -1 39 -11
-95 -45 -118 -30 -148 -43 -85 -37 35 4 39 2 42 -22 4 -35 19 -34 39 4 l16 30
24 -35 c13 -19 28 -35 33 -35 5 0 3 -7 -4 -15 -11 -13 -11 -20 0 -39 11 -21 9
-28 -11 -55 -22 -30 -24 -31 -31 -11 -6 16 -15 21 -35 18 l-28 -3 -3 -218 -2
-217 177 5 c98 3 224 8 281 11 l103 6 -5 29 c-5 32 13 53 41 47 13 -2 20 -15
23 -43 5 -35 8 -40 40 -47 19 -4 63 -8 97 -10 35 -2 63 -6 63 -10 0 -5 4 -8 8
-8 5 0 7 13 4 30 -5 35 15 48 47 31 18 -10 20 -18 15 -85 -2 -41 -1 -77 3 -79
5 -3 328 6 718 19 391 13 722 23 738 24 18 0 27 5 27 16 0 8 -5 12 -10 9 -16
-10 -24 24 -12 48 20 42 23 60 10 68 -9 6 -9 11 1 23 12 14 9 16 -20 16 -26 0
-44 -10 -77 -40 -23 -22 -42 -48 -42 -59 0 -22 -22 -33 -47 -24 -25 9 -34 25
-21 40 6 8 8 17 4 21 -4 4 -14 -1 -21 -11 -13 -18 -13 -18 -19 0 -4 11 -17 19
-33 20 -105 7 -125 20 -82 55 13 11 17 17 9 15 -8 -2 -22 2 -31 10 -15 12 -17
10 -23 -18 -8 -40 -15 -33 -22 20 -4 36 -1 44 27 69 22 19 28 31 21 36 -7 4
-17 -3 -24 -19 -7 -15 -17 -24 -25 -21 -7 3 -13 1 -13 -4 0 -6 -4 -10 -10 -10
-5 0 -10 9 -10 19 0 25 -29 36 -44 15 -11 -14 -13 -14 -25 0 -7 9 -11 25 -8
35 5 21 -18 37 -28 21 -9 -14 -22 -12 -28 4 -3 8 3 23 14 35 11 12 15 21 10
21 -6 0 -8 7 -4 15 5 14 -10 15 -126 11 -260 -11 -707 -15 -741 -7 l-35 8 28
8 c21 6 27 13 27 36 0 16 -9 38 -19 48 -19 19 -19 19 0 24 16 4 19 12 15 34
-2 15 -5 34 -5 41 -1 6 -11 12 -23 13 -21 1 -21 2 4 12 24 9 27 15 23 45 -2
19 -12 40 -21 47 -15 11 -15 12 5 18 12 3 19 11 17 19 -2 7 -7 25 -10 40 -3
14 -14 29 -24 31 -14 4 -13 6 6 12 20 7 22 12 16 39 -3 17 -12 38 -18 46 -6 8
-13 29 -15 45 -5 52 -13 55 -150 56 -69 1 -115 4 -101 8 l24 7 -29 20 c-17 12
-38 24 -47 27 -10 4 -18 10 -18 15 0 6 -42 13 -94 17 -85 6 -94 9 -93 26 1 10
5 19 9 19 4 0 7 11 6 25 -2 23 -6 25 -50 25 -45 0 -48 -2 -74 -45z m1569
-1042 c-7 -2 -21 -2 -30 0 -10 3 -4 5 12 5 17 0 24 -2 18 -5z"></path>
<path d="M6740 2160 c0 -5 -3 -9 -7 -8 -5 1 -21 -4 -36 -10 -57 -24 -77 -25
-77 -7 0 14 -3 15 -15 5 -12 -10 -15 -10 -15 2 0 8 -7 15 -14 15 -11 0 -12 -5
-5 -18 5 -10 9 -20 9 -22 0 -9 -61 -30 -67 -23 -3 3 1 6 10 6 20 0 22 13 4 29
-11 8 -18 6 -32 -9 -16 -17 -17 -25 -7 -59 17 -54 15 -61 -13 -61 -28 0 -33
-15 -9 -24 9 -4 14 -13 10 -22 -4 -10 4 -19 26 -28 28 -12 35 -12 57 2 15 9
21 10 14 3 -8 -10 -5 -21 13 -48 30 -45 32 -68 5 -53 -11 5 -22 6 -25 1 -7
-11 4 -21 24 -21 10 0 23 -6 29 -14 7 -9 30 -14 56 -14 46 1 76 -16 97 -55 11
-21 -4 -47 -16 -28 -4 6 -14 11 -22 11 -12 0 -12 -4 3 -25 10 -13 24 -25 31
-25 6 0 12 -5 12 -11 0 -6 16 -1 36 12 20 12 57 26 82 31 53 9 47 5 56 41 4
19 3 26 -4 22 -14 -9 -25 22 -12 38 5 6 12 26 16 42 l7 30 -35 -34 c-20 -19
-36 -44 -37 -55 0 -21 -1 -21 -9 -1 -6 15 -1 27 17 47 24 25 24 28 9 43 -21
21 -20 24 14 65 34 39 36 46 16 66 -25 24 -27 18 -14 -35 1 -8 -7 -19 -18 -26
-12 -6 -29 -16 -37 -23 -15 -13 -43 -12 -65 2 -8 5 -18 4 -25 -3 -37 -37 -92
14 -69 64 11 24 6 31 -21 26 -19 -3 -18 33 2 59 11 16 21 34 21 40 0 7 15 10
38 9 28 -2 47 3 67 19 20 16 23 22 11 22 -9 0 -19 -7 -22 -15 -8 -20 -24 -19
-24 1 0 11 -5 14 -16 10 -12 -4 -15 -2 -10 9 3 8 1 15 -4 15 -6 0 -10 -4 -10
-10z m-110 -174 c0 -3 -4 -8 -10 -11 -5 -3 -10 -1 -10 4 0 6 5 11 10 11 6 0
10 -2 10 -4z"></path>
<path d="M6848 2103 c-6 -27 2 -53 17 -53 16 0 30 33 16 38 -6 2 -11 10 -11
18 0 20 -17 17 -22 -3z"></path>
<path d="M6971 2041 c-12 -8 -11 -15 7 -43 l22 -33 0 43 c0 43 -5 48 -29 33z"></path>
<path d="M3531 1876 c-19 -22 -10 -40 11 -24 11 8 15 18 9 26 -6 10 -10 10
-20 -2z"></path>
<path d="M2860 1844 c-69 -18 -149 -42 -178 -53 -57 -23 -97 -27 -86 -10 9 15
-218 0 -228 -15 -4 -6 -8 -89 -8 -184 l0 -172 268 6 c147 3 273 7 280 10 6 2
12 19 12 39 0 32 2 35 31 35 28 0 30 -2 28 -33 -3 -34 6 -57 21 -57 10 0 7
151 -4 168 -3 6 -1 12 5 14 8 3 8 15 -1 46 -10 31 -10 45 -2 55 8 10 8 24 1
51 -7 26 -7 42 0 49 10 10 4 66 -8 78 -3 4 -62 -8 -131 -27z"></path>
<path d="M6431 1866 c-8 -9 -11 -19 -7 -23 9 -9 29 13 24 27 -2 8 -8 7 -17 -4z"></path>
<path d="M6690 1721 c0 -5 5 -13 10 -16 6 -3 10 -2 10 4 0 5 -4 13 -10 16 -5
3 -10 2 -10 -4z"></path>
<path d="M679 1712 l-166 -2 -6 -98 c-9 -123 -9 -286 -1 -306 9 -24 22 -19 29
12 7 32 55 73 55 47 0 -16 11 -16 85 3 22 6 58 12 80 13 39 3 68 14 91 35 12
11 11 155 -2 175 -4 6 -1 15 6 19 10 6 11 20 4 57 l-9 48 -166 -3z"></path>
<path d="M5694 1668 c-7 -11 22 -21 36 -13 5 3 10 10 10 15 0 11 -40 9 -46 -2z"></path>
<path d="M5791 1673 c-1 -7 -9 -10 -18 -7 -16 5 -16 4 0 -6 21 -13 32 -8 24
12 -4 9 -6 9 -6 1z"></path>
<path d="M5923 1652 c-14 -2 -20 -8 -16 -18 3 -8 -1 -14 -11 -14 -21 0 -21
-16 0 -24 23 -9 24 -8 24 14 0 10 8 23 17 29 22 12 15 18 -14 13z"></path>
<path d="M6568 1637 c-15 -29 -1 -64 32 -81 26 -12 30 -12 30 0 0 8 -6 14 -14
14 -16 0 -42 28 -33 36 2 3 21 -9 42 -27 28 -25 39 -29 45 -19 5 7 17 11 30 7
14 -4 29 2 42 15 l21 21 -20 8 c-12 4 -24 12 -28 18 -3 6 -10 9 -15 6 -5 -3
-20 0 -32 7 -36 19 -88 16 -100 -5z"></path>
<path d="M5805 1630 c3 -5 8 -10 11 -10 2 0 4 5 4 10 0 6 -5 10 -11 10 -5 0
-7 -4 -4 -10z"></path>
<path d="M6845 1610 c-3 -5 -1 -10 4 -10 6 0 11 5 11 10 0 6 -2 10 -4 10 -3 0
-8 -4 -11 -10z"></path>
<path d="M5850 1600 c0 -5 5 -10 11 -10 5 0 7 5 4 10 -3 6 -8 10 -11 10 -2 0
-4 -4 -4 -10z"></path>
<path d="M5710 1592 c0 -16 32 -24 44 -11 8 9 8 10 -2 5 -7 -4 -19 -2 -27 4
-9 7 -15 8 -15 2z"></path>
<path d="M6820 1575 c0 -8 4 -15 10 -15 5 0 7 7 4 15 -4 8 -8 15 -10 15 -2 0
-4 -7 -4 -15z"></path>
<path d="M6870 1540 c-7 -5 3 -14 29 -27 22 -11 37 -15 33 -9 -3 6 -5 18 -4
26 3 16 -37 23 -58 10z"></path>
<path d="M5560 1510 c0 -16 2 -30 4 -30 2 0 6 14 8 30 3 17 1 30 -4 30 -4 0
-8 -13 -8 -30z"></path>
<path d="M5706 1521 c-3 -5 3 -11 13 -14 12 -3 22 1 25 9 6 16 -29 20 -38 5z"></path>
<path d="M2741 1228 c0 -78 3 -146 6 -151 2 -4 11 -3 19 4 11 9 14 43 14 150
0 132 -1 139 -20 139 -19 0 -20 -6 -19 -142z"></path>
<path d="M2810 1240 c0 -117 2 -133 20 -152 l20 -22 0 152 c0 145 -1 152 -20
152 -19 0 -20 -7 -20 -130z"></path>
<path d="M2873 1213 c2 -141 4 -158 20 -161 16 -3 17 10 17 157 0 153 -1 161
-19 161 -19 0 -20 -7 -18 -157z"></path>
<path d="M2470 1135 c1 -216 2 -225 21 -225 18 0 19 9 19 225 0 219 -1 225
-20 225 -20 0 -20 -6 -20 -225z"></path>
<path d="M2540 1175 c0 -102 4 -185 9 -185 24 0 29 35 29 198 1 164 0 172 -19
172 -18 0 -19 -9 -19 -185z"></path>
<path d="M2602 1198 c0 -90 3 -166 5 -170 2 -4 10 -5 18 -1 12 4 15 34 15 169
0 156 -1 164 -20 164 -18 0 -19 -7 -18 -162z"></path>
<path d="M2670 1210 c0 -82 4 -150 8 -150 5 0 15 6 24 13 14 10 16 31 11 150
-5 125 -7 137 -24 137 -18 0 -19 -10 -19 -150z"></path>
<path d="M4020 1134 l0 -225 23 3 c22 3 22 3 24 226 l2 222 -25 0 -24 0 0
-226z"></path>
<path d="M2980 1191 c0 -132 3 -160 15 -165 11 -4 15 1 15 19 0 14 -6 25 -12
25 -10 0 -10 2 -1 8 16 10 17 192 1 192 -9 0 -9 3 0 12 17 17 15 55 -3 62 -13
5 -15 -16 -15 -153z"></path>
<path d="M3750 1280 c0 -63 2 -70 20 -70 18 0 20 7 20 70 0 63 -2 70 -20 70
-18 0 -20 -7 -20 -70z"></path>
<path d="M3812 1283 c2 -54 6 -67 21 -69 15 -2 17 7 17 67 0 63 -2 69 -20 69
-19 0 -21 -5 -18 -67z"></path>
<path d="M3880 1303 c0 -65 9 -93 26 -86 10 4 14 23 14 69 0 57 -2 64 -20 64
-17 0 -20 -7 -20 -47z"></path>
<path d="M3950 1130 c0 -214 1 -220 20 -220 19 0 20 7 20 220 0 212 -1 220
-20 220 -18 0 -19 -8 -20 -220z"></path>
<path d="M3545 1173 c4 -93 11 -172 15 -177 21 -22 27 16 28 174 l1 170 -25 0
-26 0 7 -167z"></path>
<path d="M3612 1223 c3 -103 5 -118 21 -121 15 -3 17 8 17 117 0 115 -1 121
-20 121 -20 0 -21 -5 -18 -117z"></path>
<path d="M3682 1123 c3 -198 5 -218 21 -221 16 -3 17 12 17 217 0 215 -1 221
-20 221 -20 0 -20 -5 -18 -217z"></path>
<path d="M502 1230 c0 -19 2 -27 5 -17 2 9 2 25 0 35 -3 9 -5 1 -5 -18z"></path>
<path d="M3750 1051 c0 -145 1 -151 20 -151 20 0 20 5 18 147 -3 131 -5 148
-20 151 -17 3 -18 -9 -18 -147z"></path>
<path d="M3815 1168 c-3 -18 -3 -46 -1 -63 3 -16 5 -70 5 -118 1 -76 3 -88 17
-85 14 3 16 20 16 118 1 171 0 180 -17 180 -8 0 -16 -13 -20 -32z"></path>
<path d="M3890 1155 c0 -33 4 -45 15 -45 11 0 15 12 15 45 0 33 -4 45 -15 45
-11 0 -15 -12 -15 -45z"></path>
<path d="M6858 1120 c30 -28 28 -36 -10 -44 l-33 -7 30 -13 c27 -11 31 -11 42
11 14 28 8 50 -18 63 -29 16 -34 11 -11 -10z"></path>
<path d="M3890 1055 c0 -33 4 -45 15 -45 11 0 15 12 15 45 0 33 -4 45 -15 45
-11 0 -15 -12 -15 -45z"></path>
<path d="M3615 1078 c-9 -26 2 -73 19 -76 13 -3 16 5 16 42 0 35 -4 46 -15 46
-9 0 -18 -6 -20 -12z"></path>
<path d="M6870 1015 c0 -13 -7 -15 -37 -9 l-36 7 7 -329 c3 -181 9 -339 12
-352 6 -21 11 -23 80 -21 l74 2 -3 336 c-2 185 -6 342 -10 348 -4 6 -19 10
-33 8 -15 -1 -28 3 -31 11 -7 19 -23 18 -23 -1z"></path>
<path d="M3903 993 c-19 -7 -17 -83 2 -83 11 0 15 12 15 45 0 25 -1 45 -2 44
-2 0 -9 -3 -15 -6z m4 -65 c-3 -7 -5 -2 -5 12 0 14 2 19 5 13 2 -7 2 -19 0
-25z"></path>
<path d="M3640 973 c0 -15 -2 -16 -10 -3 -5 8 -10 10 -10 4 0 -6 7 -17 15 -24
13 -11 15 -8 15 14 0 14 -2 26 -5 26 -3 0 -5 -8 -5 -17z"></path>
<path d="M3550 916 c0 -9 5 -16 10 -16 6 0 10 4 10 9 0 6 -4 13 -10 16 -5 3
-10 -1 -10 -9z"></path>
</g>
</svg>