 <svg version="1.0" xmlns="http://www.w3.org/2000/svg" viewBox="0 0 700.000000 423.000000" preserveAspectRatio="xMidYMid meet" id="mask">

<g transform="translate(0.000000,423.000000) scale(0.100000,-0.100000)">
<path d="M0 2115 l0 -2115 870 0 870 0 0 2115 0 2115 -55 0 -55 0 0 -1564 0
-1565 26 -3 c47 -5 52 -30 16 -76 -18 -22 -32 -44 -32 -48 0 -5 -102 -49 -228
-98 -125 -49 -339 -133 -476 -188 -137 -54 -257 -97 -265 -96 -19 4 -39 80
-40 151 -1 45 1 49 29 58 l30 11 0 1709 0 1709 -345 0 -345 0 0 -2115z"></path>
</g>
</svg>