 <svg version="1.0" xmlns="http://www.w3.org/2000/svg" viewBox="0 0 700.000000 423.000000" preserveAspectRatio="xMidYMid meet" id="mask">

<g transform="translate(0.000000,423.000000) scale(0.100000,-0.100000)">
<path d="M1748 3823 c-3 -225 -3 -1176 0 -2116 l5 -1707 133 0 c121 0 134 2
134 18 0 37 -20 262 -31 350 -10 78 -14 92 -30 92 -27 0 -32 18 -8 25 17 6 20
12 15 37 -3 17 -6 34 -6 38 0 4 -10 10 -21 13 -20 5 -21 10 -15 53 7 56 25 79
75 95 56 19 1112 19 1134 0 20 -16 24 -120 6 -138 -14 -14 -58 -390 -59 -500
l0 -83 175 0 175 0 0 354 0 354 -31 7 -32 7 5 122 c3 68 8 128 12 134 4 7 35
12 77 12 l69 0 0 34 c0 19 9 84 21 143 14 71 19 126 15 160 -4 31 -2 54 4 58
5 3 10 20 10 36 0 17 7 38 16 47 11 10 13 17 5 20 -6 2 -11 24 -11 48 l0 44
40 0 c23 0 40 -5 40 -11 0 -8 14 -9 43 -5 35 5 47 3 58 -10 12 -15 12 -16 -8
-10 -32 10 -93 -3 -93 -20 0 -8 -6 -23 -12 -35 -11 -17 -10 -22 5 -30 10 -6
17 -22 17 -39 0 -16 4 -31 9 -34 4 -3 6 -36 3 -74 -3 -44 1 -92 11 -133 9 -35
19 -92 22 -127 l7 -62 192 2 191 3 7 100 c3 55 10 168 16 251 5 84 12 157 16
163 10 15 61 14 75 -3 6 -7 14 -47 17 -90 7 -74 6 -76 -16 -76 -21 0 -22 -3
-18 -54 5 -66 20 -86 62 -86 57 0 69 17 64 93 -3 47 -1 64 7 56 6 -6 10 -59
10 -127 l0 -117 -51 -1 c-28 0 -56 -4 -62 -8 -16 -10 -15 -91 1 -102 6 -5 100
-7 207 -4 l194 5 -44 37 c-45 39 -45 39 12 43 9 0 26 9 37 19 29 26 134 33
184 13 20 -9 37 -21 37 -26 0 -6 15 -11 33 -11 51 0 61 -12 32 -40 -30 -28
-32 -40 -6 -40 11 0 21 -4 23 -8 2 -5 42 -30 91 -56 l87 -48 0 -78 c0 -82 -5
-90 -51 -90 -18 0 -19 -12 -19 -355 l0 -355 156 0 157 0 -8 637 c-4 350 -4
1227 0 1950 l8 1313 116 0 116 0 110 113 c61 61 133 136 160 165 l49 52 -497
0 -497 0 0 -134 c0 -112 -3 -136 -17 -147 -26 -22 -306 -20 -355 3 l-38 17 0
130 0 131 -55 0 -55 0 0 -119 0 -119 -37 -14 c-26 -9 -91 -13 -198 -13 -139 0
-165 2 -189 18 l-28 19 7 90 c10 119 0 138 -67 138 l-48 0 0 -125 c0 -122 -1
-125 -25 -141 -62 -41 -318 -53 -372 -18 -22 14 -23 20 -23 149 l0 135 -839 0
-838 0 -5 -407z m2687 -48 c150 -26 242 -55 359 -114 l111 -56 3 -918 2 -917
-742 2 -743 3 0 915 0 915 100 50 c55 28 132 61 170 72 64 20 239 56 325 67
66 8 326 -4 415 -19z m-1459 -357 c14 -12 35 -43 48 -68 25 -47 23 -74 -8 -99
-14 -12 -12 -16 17 -35 32 -22 32 -22 35 -118 l3 -97 51 -3 52 -3 12 -48 c14
-54 13 -54 -56 -77 -48 -16 -90 -65 -90 -106 0 -13 -9 -28 -19 -34 -13 -6
-168 -10 -435 -10 l-414 0 -43 33 c-30 22 -46 44 -53 72 -10 32 -17 40 -43 46
-36 7 -153 94 -153 114 0 11 19 15 78 17 l77 3 3 149 c2 107 -1 152 -10 163
-17 21 18 49 75 58 23 4 45 12 49 18 11 18 88 14 102 -4 6 -9 30 -20 53 -23
76 -13 75 -11 73 -199 -1 -144 1 -167 15 -167 12 0 15 14 15 79 0 63 3 80 16
85 21 8 222 6 254 -3 24 -6 25 -11 28 -84 l3 -77 34 0 35 0 0 109 c0 117 2
121 56 121 34 0 30 16 -5 23 -17 4 -35 16 -41 27 -12 22 -11 27 35 133 l16 38
55 -5 c39 -3 62 -11 80 -28z m117 -1096 c21 -20 52 -50 69 -67 63 -62 78 -165
34 -247 -22 -41 -22 -46 -9 -73 31 -59 70 -438 69 -670 -1 -117 -2 -120 -24
-123 -18 -3 -22 -8 -16 -25 14 -46 15 -46 -109 -48 -46 -1 -73 -6 -83 -16 -12
-12 -23 -13 -56 -5 -22 6 -46 8 -53 6 -11 -5 -165 13 -171 19 -1 1 2 65 7 142
4 77 11 190 14 250 10 200 43 442 66 486 5 10 -1 33 -17 64 -32 64 -32 126 1
192 23 45 84 103 109 103 4 0 21 14 37 31 25 27 34 30 61 25 18 -3 49 -23 71
-44z"></path>
<path d="M4025 3649 c-110 -10 -241 -43 -362 -91 l-103 -41 0 -106 0 -106 272
0 273 0 3 -697 2 -698 74 0 73 0 6 108 c3 59 19 179 36 267 16 88 33 200 37
248 7 91 28 137 60 137 11 0 13 6 9 20 -9 28 3 58 26 65 10 4 19 15 19 26 0
10 7 19 15 19 8 0 15 -8 15 -19 0 -10 7 -24 15 -31 20 -16 19 -64 0 -80 -11
-9 -13 -16 -6 -23 7 -7 17 -5 31 8 17 16 20 16 20 2 0 -9 -8 -20 -17 -25 -15
-9 -14 -17 15 -91 48 -120 90 -307 109 -478 l17 -153 53 0 53 0 0 800 0 801
-73 35 c-99 46 -280 91 -424 103 -129 12 -132 12 -248 0z"></path>
<path d="M2899 2267 c-70 -47 -103 -156 -70 -234 13 -32 34 -41 116 -48 22 -2
54 -8 70 -13 27 -8 53 -4 105 15 8 4 20 5 27 4 35 -5 65 117 44 181 -10 31
-75 108 -90 108 -4 0 -11 -10 -16 -22 -22 -50 -103 -48 -134 2 l-18 30 -34
-23z"></path>
<path d="M5915 4065 l-170 -164 413 -1 412 0 0 165 0 165 -242 0 -243 -1 -170
-164z"></path>
</g>
</svg>