 <svg version="1.0" xmlns="http://www.w3.org/2000/svg" viewBox="0 0 700.000000 423.000000" preserveAspectRatio="xMidYMid meet" id="mask">

<g transform="translate(0.000000,423.000000) scale(0.100000,-0.100000)">
<path d="M690 2628 c1 -882 1 -1652 1 -1711 l-1 -108 -30 -10 c-27 -10 -30
-15 -29 -52 0 -23 6 -64 12 -92 10 -40 17 -51 34 -53 13 -2 232 79 487 179
l465 182 37 54 c30 44 34 56 24 68 -7 8 -23 15 -36 15 l-24 0 0 1565 0 1565
-130 0 c-71 0 -130 -4 -130 -8 0 -4 6 -14 13 -21 10 -11 9 -12 -3 -6 -8 4 -22
14 -31 22 -11 9 -34 13 -64 11 l-47 -3 75 -85 c42 -47 74 -87 71 -89 -7 -8
-113 80 -156 129 -52 60 -68 63 -68 13 0 -34 11 -49 114 -158 63 -66 112 -122
111 -123 -7 -8 -93 60 -150 117 -33 34 -63 61 -67 61 -4 0 -8 -20 -8 -44 0
-44 2 -47 115 -157 63 -62 113 -115 110 -117 -6 -7 -92 56 -154 113 -32 30
-61 55 -65 55 -3 0 -6 -22 -6 -50 l0 -49 114 -103 c63 -57 113 -104 111 -106
-8 -8 -53 25 -131 94 -46 41 -85 74 -88 74 -4 0 -6 -24 -6 -54 0 -60 4 -65
158 -191 39 -32 72 -63 72 -67 0 -12 -68 37 -150 106 -36 31 -68 56 -72 56 -5
0 -8 -15 -8 -34 0 -31 9 -41 114 -126 l115 -93 3 -86 c2 -47 2 -89 0 -93 -1
-4 -50 26 -108 67 -57 41 -107 75 -109 75 -21 0 11 -29 110 -100 63 -45 115
-87 115 -92 0 -18 -132 2 -163 24 -15 11 -30 18 -32 16 -8 -8 -17 -638 -11
-720 7 -77 10 -88 27 -88 16 0 17 4 9 26 -12 31 -3 46 40 64 18 8 30 20 30 31
0 11 5 19 10 19 6 0 10 -12 10 -26 0 -16 10 -34 25 -46 18 -14 24 -28 23 -53
-1 -19 -5 -35 -8 -35 -10 0 -18 -59 -13 -81 5 -17 7 -17 33 3 15 11 33 17 39
14 5 -4 15 2 20 13 8 15 7 20 -6 25 -26 11 -7 18 27 11 26 -6 31 -11 28 -30
-3 -15 0 -22 10 -21 9 1 16 -10 18 -28 2 -23 0 -27 -15 -23 -10 2 -26 0 -35
-5 -20 -11 -15 -52 11 -80 14 -16 14 -18 0 -24 -9 -3 -13 -12 -10 -20 3 -8 2
-30 -2 -50 -6 -34 -8 -36 -35 -31 -18 4 -30 2 -34 -6 -2 -7 -5 0 -5 15 -1 15
4 30 9 33 6 3 10 21 10 38 0 26 -6 35 -30 45 -17 8 -28 17 -25 22 3 4 -3 14
-11 21 -15 12 -14 14 7 20 23 7 23 7 -4 8 -24 1 -27 -2 -21 -24 4 -18 2 -25
-9 -25 -15 0 -33 -29 -19 -31 4 0 17 -2 29 -3 22 -3 63 -32 63 -46 0 -3 -18
-5 -40 -4 -41 2 -52 -8 -26 -23 8 -5 17 -24 19 -43 4 -42 15 -63 28 -55 9 6
-13 -57 -51 -142 -10 -24 -16 -43 -12 -43 3 0 1 -5 -6 -12 -18 -18 -15 -36 8
-43 11 -3 20 -13 20 -21 0 -8 11 -19 24 -24 39 -14 46 -37 29 -93 -13 -45 -12
-62 13 -225 34 -220 41 -334 22 -349 -40 -31 -236 -44 -348 -23 -46 9 -66 7
-146 -15 -50 -14 -94 -25 -98 -25 -3 0 -6 731 -6 1625 l0 1625 -66 0 -65 0 1
-1602z m808 -650 c23 -23 9 -88 -20 -88 -4 0 -8 7 -8 15 0 18 -5 19 -33 3 -20
-10 -21 -10 -8 5 10 13 11 20 2 31 -28 34 35 66 67 34z m-34 -94 c10 -25 7
-51 -7 -62 -16 -14 -80 41 -65 56 6 6 16 8 23 6 7 -3 16 -1 20 5 9 16 22 13
29 -5z"></path>
<path d="M3583 3303 c-22 -4 -23 -9 -23 -84 l0 -79 190 0 190 0 0 -615 0 -615
80 0 80 0 0 700 0 700 -247 -1 c-137 -1 -258 -4 -270 -6z"></path>
<path d="M1200 2290 l0 -94 -41 39 c-25 24 -39 32 -35 22 3 -10 6 -25 6 -33 0
-8 9 -14 20 -14 13 0 20 -7 20 -20 0 -11 -4 -20 -10 -20 -12 0 -13 -10 -1 -29
7 -11 14 -9 37 13 16 14 33 26 38 26 4 0 3 7 -4 15 -10 13 -9 19 5 35 11 13
25 18 37 14 10 -3 18 -1 18 5 0 6 -9 11 -19 11 -26 0 -34 28 -16 56 19 29 19
44 0 44 -8 0 -15 -5 -15 -11 0 -6 -9 -1 -20 12 l-19 24 -1 -95z"></path>
<path d="M1304 2299 c-3 -6 -1 -16 5 -22 8 -8 11 -5 11 11 0 24 -5 28 -16 11z"></path>
<path d="M1197 2122 c-3 -4 -3 -20 1 -37 4 -26 6 -27 13 -10 11 28 11 55 0 55
-6 0 -12 -3 -14 -8z"></path>
<path d="M1219 2008 c-1 -2 -3 -14 -5 -28 -2 -14 -6 -42 -10 -63 -4 -25 -1
-48 10 -71 19 -39 19 -46 7 -46 -5 0 -12 12 -14 28 -2 15 -5 -2 -6 -38 -1 -59
1 -66 19 -67 19 -2 20 4 18 138 0 77 -5 142 -10 145 -4 3 -9 4 -9 2z"></path>
<path d="M1260 1963 c0 -20 3 -21 26 -13 21 8 29 7 39 -7 11 -15 13 -15 23 4
10 18 8 22 -16 31 -45 16 -72 11 -72 -15z"></path>
<path d="M1283 1915 c-32 -20 -32 -21 -33 -102 0 -46 2 -83 4 -83 12 0 74 172
68 188 -7 17 -9 17 -39 -3z"></path>
<path d="M1156 1885 c9 -38 9 -38 21 -23 8 9 5 19 -9 33 -19 20 -20 20 -12
-10z"></path>
</g>
</svg>