 <svg version="1.0" xmlns="http://www.w3.org/2000/svg" viewBox="0 0 700.000000 423.000000" preserveAspectRatio="xMidYMid meet" id="mask">

<g transform="translate(0.000000,423.000000) scale(0.100000,-0.100000)">
<path d="M0 3940 c0 -286 0 -290 21 -290 15 0 19 -4 14 -19 -8 -25 7 -33 39
-21 26 10 26 11 20 77 -4 41 -15 82 -27 102 -22 37 -24 36 28 15 13 -5 15 22
15 210 l0 216 -55 0 -55 0 0 -290z"></path>
<path d="M270 4225 c0 -3 148 -173 330 -379 l330 -375 0 -195 c0 -108 3 -196
6 -196 3 0 18 12 33 26 22 20 27 34 25 60 -2 30 1 34 21 34 28 0 35 17 38 89
2 50 9 59 36 42 11 -7 11 -10 -3 -18 -17 -10 -34 -73 -19 -73 5 0 21 12 35 28
14 15 44 42 67 60 23 18 41 42 41 53 0 17 3 18 20 7 11 -7 20 -21 20 -30 0
-11 8 -18 20 -18 19 0 20 7 20 98 l0 99 -153 249 c-84 137 -180 293 -212 346
l-60 98 -297 0 c-164 0 -298 -2 -298 -5z"></path>
<path d="M4080 4073 l-145 -156 4 -206 c2 -113 5 -207 6 -209 3 -3 818 671
865 714 12 12 -32 14 -285 14 l-300 0 -145 -157z"></path>
<path d="M5492 3737 l-953 -492 7 -465 c3 -256 8 -467 10 -469 2 -2 28 0 59 4
38 4 55 11 55 21 0 8 9 14 20 14 11 0 20 -4 20 -10 0 -6 31 -10 73 -10 39 0
78 -4 85 -9 7 -4 25 -59 39 -121 29 -131 30 -130 -62 -130 -95 0 -135 -10
-135 -31 0 -15 7 -19 35 -19 19 0 35 -2 35 -5 0 -3 -9 -24 -20 -46 -24 -47
-19 -76 17 -90 48 -18 62 -12 65 29 3 32 6 37 28 37 18 0 26 -6 28 -22 3 -17
10 -23 28 -23 27 0 28 2 44 135 6 50 16 105 22 123 9 29 13 32 48 32 21 0 80
14 132 31 190 62 272 77 508 94 124 8 272 20 330 25 288 27 429 31 548 16 65
-8 148 -16 187 -18 l70 -3 25 133 c16 82 32 137 41 143 7 5 38 9 67 9 l52 0 0
805 0 805 -277 0 -278 -1 -953 -492z"></path>
<path d="M0 3478 l0 -79 28 3 c23 3 27 0 25 -19 -2 -16 6 -27 27 -38 l30 -16
0 41 c0 26 -4 39 -12 38 -7 -2 -13 4 -14 12 0 8 -2 20 -4 25 -1 6 -1 23 0 38
2 39 -23 75 -54 75 -26 0 -26 -1 -26 -80z"></path>
<path d="M0 3322 c0 -12 11 -33 24 -47 14 -15 22 -33 19 -41 -3 -9 2 -14 15
-14 21 0 46 -23 35 -33 -3 -4 -1 -7 4 -7 6 0 13 25 15 58 3 50 0 60 -22 82
-21 22 -25 23 -28 8 -4 -22 -20 -23 -44 -1 -17 15 -18 15 -18 -5z"></path>
<path d="M1238 3283 c7 -3 16 -2 19 1 4 3 -2 6 -13 5 -11 0 -14 -3 -6 -6z"></path>
<path d="M1145 3259 c-4 -6 -4 -13 -1 -16 8 -8 36 5 36 17 0 13 -27 13 -35 -1z"></path>
<path d="M1247 3263 c-12 -3 -16 -10 -12 -24 5 -14 -1 -22 -22 -31 -15 -6 -33
-10 -40 -9 -6 1 -13 -8 -15 -21 -2 -18 -15 -26 -65 -40 -51 -15 -64 -23 -69
-43 -3 -14 -13 -25 -21 -25 -8 0 -12 -4 -9 -9 9 -15 -5 -41 -21 -41 -24 0 -42
-31 -43 -72 0 -34 3 -38 25 -38 25 0 35 -23 15 -35 -15 -9 -12 -18 16 -49 24
-25 32 -28 75 -24 51 5 56 0 39 -33 -7 -13 -20 -19 -38 -18 -50 3 -80 -16
-115 -73 -17 -27 -17 -28 2 -28 11 0 33 11 49 25 17 14 38 24 49 23 40 -3 74
2 68 12 -3 6 -3 10 2 10 4 1 27 5 51 9 40 8 44 7 52 -15 6 -16 15 -22 25 -18
10 4 15 0 15 -10 0 -9 5 -16 10 -16 6 0 10 71 10 193 0 107 3 242 7 300 6 113
7 112 -40 100z m-199 -416 c8 -9 4 -15 -15 -24 -21 -10 -24 -10 -19 3 3 9 6
20 6 25 0 13 16 11 28 -4z"></path>
<path d="M0 2991 l0 -219 50 -7 c27 -4 54 -4 60 0 11 7 15 377 4 388 -3 3 -14
1 -24 -5 -14 -9 -22 -8 -35 5 -9 9 -21 17 -26 17 -6 0 -7 9 -4 20 5 14 2 20
-9 20 -14 0 -16 -27 -16 -219z"></path>
<path d="M930 2730 c0 -33 14 -39 28 -13 7 11 6 21 -3 30 -20 19 -25 16 -25
-17z"></path>
<path d="M13 2693 c-18 -7 -19 -1383 -2 -1383 9 0 273 83 336 105 10 3 10 11
-1 37 -8 18 -26 60 -40 93 l-25 60 -69 -3 -69 -4 -6 153 c-4 84 -7 213 -7 288
0 75 -3 207 -7 293 l-6 157 -36 3 c-45 4 -53 30 -17 54 21 13 29 14 41 4 13
-11 15 -4 15 54 0 62 -1 66 -30 81 -29 15 -54 18 -77 8z"></path>
<path d="M1075 2680 c-4 -6 5 -10 19 -10 14 0 26 5 26 10 0 6 -9 10 -19 10
-11 0 -23 -4 -26 -10z"></path>
<path d="M1140 2680 c0 -5 7 -10 15 -10 8 0 15 5 15 10 0 6 -7 10 -15 10 -8 0
-15 -4 -15 -10z"></path>
<path d="M1065 2644 c-11 -8 -28 -13 -37 -10 -10 2 -18 -1 -18 -9 0 -7 -9 -15
-21 -18 -15 -4 -23 0 -26 14 -3 10 -12 19 -19 19 -11 0 -14 -16 -14 -65 l0
-65 31 0 c25 0 29 3 24 19 -6 20 18 36 37 24 20 -12 58 -11 58 1 0 7 5 17 12
24 9 9 16 8 29 -4 12 -11 19 -12 24 -4 5 8 10 8 20 0 7 -6 35 -10 62 -8 41 3
48 6 51 26 2 15 -2 22 -12 22 -9 0 -16 6 -16 14 0 26 -20 28 -39 5 l-18 -22
-22 22 c-19 19 -25 20 -38 10 -12 -11 -17 -10 -24 4 -12 21 -18 21 -44 1z"></path>
<path d="M1183 2504 c-6 -16 -53 -19 -53 -3 0 7 -11 9 -32 4 -18 -3 -53 -9
-78 -12 -57 -7 -90 -40 -90 -89 0 -27 4 -34 19 -34 48 0 51 -6 51 -117 0 -97
2 -106 23 -123 l22 -18 -28 -11 c-16 -6 -32 -11 -36 -11 -13 0 -6 -152 7 -177
10 -18 10 -28 1 -45 -14 -26 -21 -98 -10 -98 16 0 61 50 61 67 0 10 -4 32 -9
50 -7 22 -6 33 2 36 8 3 7 9 -4 18 -24 20 -32 64 -15 78 8 7 37 11 68 9 52 -3
53 -3 56 -38 3 -23 -2 -38 -13 -46 -9 -7 -12 -15 -7 -18 5 -3 6 -23 2 -48 -9
-48 -2 -68 35 -92 22 -15 25 -23 25 -79 0 -82 7 -91 59 -82 l41 7 0 440 c0
379 -2 439 -14 435 -8 -3 -29 -2 -46 3 -24 7 -32 6 -37 -6z"></path>
<path d="M4550 1875 l0 -184 30 6 c26 5 30 3 30 -17 l0 -23 26 24 c45 42 46
52 12 99 l-32 43 27 46 26 47 -29 44 c-31 47 -27 60 18 60 15 0 22 6 22 20 0
18 -7 20 -65 20 l-65 0 0 -185z"></path>
<path d="M861 1701 c-12 -22 -5 -71 10 -71 20 0 29 38 15 65 -14 27 -14 27
-25 6z"></path>
<path d="M1083 1259 l-43 -30 0 -77 c0 -42 5 -112 12 -155 l12 -78 38 38 38
37 0 148 c0 81 -3 148 -7 148 -5 -1 -27 -14 -50 -31z"></path>
<path d="M445 1138 c-93 -5 -173 -13 -178 -17 -4 -4 -6 -243 -5 -531 l3 -524
275 288 c300 314 291 301 310 449 17 122 -11 182 -99 217 -38 15 -71 62 -71
103 0 24 -3 27 -32 25 -18 0 -109 -5 -203 -10z"></path>
<path d="M18 1113 c-17 -4 -18 -39 -18 -559 l0 -554 85 0 85 0 0 560 0 560
-67 -1 c-38 -1 -76 -3 -85 -6z"></path>
</g>
</svg>