 <svg version="1.0" xmlns="http://www.w3.org/2000/svg" viewBox="0 0 700.000000 423.000000" preserveAspectRatio="xMidYMid meet" id="mask">

<g transform="translate(0.000000,423.000000) scale(0.100000,-0.100000)">
<path d="M2545 4209 c-44 -10 -105 -26 -135 -36 l-55 -18 0 -190 0 -189 685
-78 c377 -42 695 -77 708 -77 22 -1 22 1 22 122 0 67 -3 145 -6 172 l-6 51
-87 51 c-171 101 -260 138 -441 184 -112 28 -121 29 -360 28 -199 -1 -260 -5
-325 -20z m562 -55 c162 -24 265 -57 433 -142 l155 -77 3 -118 3 -118 -63 6
c-35 3 -112 13 -173 20 -115 15 -611 73 -875 103 l-155 17 -3 123 -3 122 26
10 c41 15 185 52 240 60 88 13 304 11 412 -6z"></path>
<path d="M1604 3261 c-2 -2 -4 -368 -4 -813 0 -679 2 -808 14 -808 7 0 28 3
45 6 l31 6 0 764 c0 420 3 764 8 764 4 0 367 -25 807 -55 440 -30 1014 -69
1275 -86 261 -18 480 -36 485 -41 6 -6 12 -264 15 -715 l5 -707 27 -7 c15 -4
28 -6 30 -4 2 2 1 340 -2 751 l-5 748 -1310 97 c-1478 110 -1415 105 -1421
100z"></path>
<path d="M2555 1233 c-118 -4 -132 -8 -137 -38 -3 -14 -1 -25 5 -25 6 0 8 -29
5 -75 l-5 -75 58 0 c84 0 102 10 158 94 28 41 55 77 61 81 5 3 15 15 20 26 10
18 7 19 -32 17 -24 -1 -83 -3 -133 -5z"></path>
<path d="M1108 953 c-50 -52 -44 -31 -65 -247 -7 -83 -6 -82 77 19 l60 73 1
79 c2 77 -6 123 -20 123 -4 0 -27 -21 -53 -47z"></path>
<path d="M532 343 c-226 -238 -272 -291 -272 -314 l0 -29 118 0 c142 0 143 0
172 116 26 102 63 180 138 290 57 86 127 213 120 219 -2 2 -126 -125 -276
-282z"></path>
</g>
</svg>