 <svg version="1.0" xmlns="http://www.w3.org/2000/svg" id="mask" viewBox="0 0 700.000000 423.000000" preserveAspectRatio="xMidYMid meet">

<g transform="translate(0.000000,423.000000) scale(0.100000,-0.100000)">
<path d="M6768 4092 c-54 -1 -98 -5 -98 -9 0 -16 74 -243 79 -243 15 0 135
247 123 252 -4 2 -51 2 -104 0z"></path>
<path d="M6429 4064 c-12 -14 -10 -19 12 -38 15 -11 43 -43 63 -69 21 -29 55
-58 82 -72 l45 -23 -6 27 c-3 14 -16 62 -28 106 l-23 80 -65 3 c-52 2 -69 -1
-80 -14z"></path>
<path d="M6053 4063 l-73 -4 0 -69 c0 -38 4 -71 8 -74 4 -2 27 4 51 15 26 11
65 19 98 19 45 0 58 4 74 23 25 30 24 43 -6 72 -16 16 -34 24 -52 23 -15 -1
-61 -4 -100 -5z"></path>
<path d="M6898 3940 c-54 -54 -98 -100 -98 -104 0 -3 9 -6 20 -6 11 0 27 -11
36 -25 18 -28 34 -33 34 -9 0 18 27 12 78 -17 l32 -18 0 139 c0 77 -1 140 -2
139 -2 -1 -47 -45 -100 -99z"></path>
<path d="M6380 3947 c0 -8 9 -22 20 -32 24 -21 28 -1 6 28 -16 20 -26 22 -26
4z"></path>
<path d="M2565 3894 c-253 -12 -470 -23 -482 -23 l-23 -1 0 -1310 0 -1310 68
0 c37 0 72 4 77 9 6 5 23 11 40 13 28 3 30 1 37 -46 3 -27 12 -54 17 -59 8 -8
11 67 11 256 l0 268 128 -3 127 -3 5 -75 c5 -63 7 -70 14 -46 5 16 10 50 10
75 1 46 1 46 34 43 18 -2 40 3 49 10 14 11 10 14 -33 18 l-49 5 -3 298 -2 297
130 0 130 0 1 -272 c2 -326 2 -325 17 -340 8 -8 46 -11 118 -9 58 1 119 -1
135 -4 l29 -7 0 -293 c0 -162 -3 -295 -7 -297 -5 -2 -66 -1 -138 2 l-130 5 4
193 c3 172 2 192 -13 192 -14 0 -16 -21 -16 -196 l0 -195 -102 2 c-103 2 -103
2 -106 -23 l-3 -25 148 -7 c81 -4 167 -12 191 -18 52 -13 62 -33 62 -117 l0
-58 92 -7 c165 -11 176 -10 182 21 16 90 17 121 1 126 -13 6 -15 106 -15 922
l0 915 -70 0 -70 0 0 -215 0 -215 -135 0 -135 0 2 313 3 312 28 3 c37 4 35 22
-3 22 l-30 0 0 305 c0 168 3 305 6 305 3 0 33 -15 67 -32 43 -23 74 -50 110
-96 49 -62 52 -64 86 -58 20 3 55 6 79 6 l42 0 0 225 0 225 -127 -1 c-71 -1
-335 -12 -588 -25z m279 -234 l26 -10 -2 -302 -3 -303 -128 -3 -127 -3 2 303
3 303 45 12 c56 14 150 16 184 3z m-260 -327 c-4 -164 -7 -299 -8 -300 -1 -1
-57 -3 -126 -4 l-125 -2 -3 149 -3 149 36 71 c38 77 106 160 169 206 69 50 67
61 60 -269z m276 -628 l0 -315 -125 0 -125 0 0 310 0 309 68 4 c37 2 93 4 125
5 l57 2 0 -315z m-282 -7 l-3 -313 -127 -3 -128 -3 0 309 c0 170 3 312 7 315
3 4 62 7 130 7 l123 0 -2 -312z m-13 -688 l0 -295 -123 2 c-68 1 -125 3 -127
5 -1 1 -6 135 -10 296 l-7 293 133 -3 134 -3 0 -295z m583 3 l-3 -298 -132 -3
-133 -3 0 301 0 300 135 0 135 0 -2 -297z"></path>
<path d="M6094 3900 c-5 -5 -33 -20 -61 -35 -52 -26 -53 -27 -53 -71 0 -40 2
-44 24 -44 13 0 39 -2 57 -5 26 -4 29 -3 14 4 -22 10 97 5 178 -8 26 -5 47 -5
47 -1 0 12 -60 60 -75 60 -7 0 -18 14 -24 30 -11 33 -20 37 -40 18 -11 -11
-13 -9 -8 10 4 17 -1 26 -22 37 -16 8 -32 10 -37 5z"></path>
<path d="M6440 3862 c0 -5 9 -17 20 -27 22 -20 26 -9 6 18 -14 18 -26 22 -26
9z"></path>
<path d="M6310 3829 c0 -11 76 -101 91 -107 4 -2 9 4 12 12 4 10 -4 21 -23 33
-17 10 -32 29 -35 45 -5 19 -13 28 -26 28 -10 0 -19 -5 -19 -11z"></path>
<path d="M6860 3668 c0 -57 5 -110 10 -118 7 -10 10 21 10 97 0 64 -4 114 -10
118 -6 4 -10 -31 -10 -97z"></path>
<path d="M6148 3723 c7 -3 16 -2 19 1 4 3 -2 6 -13 5 -11 0 -14 -3 -6 -6z"></path>
<path d="M6235 3720 c11 -5 34 -9 50 -9 26 0 27 2 10 9 -11 5 -33 9 -50 9 -26
0 -27 -2 -10 -9z"></path>
<path d="M6041 3655 c-58 -67 -62 -77 -59 -161 4 -100 17 -105 78 -27 25 32
77 91 115 133 l70 75 -30 6 c-16 4 -55 7 -86 8 -53 1 -59 -1 -88 -34z"></path>
<path d="M6255 3637 c-27 -15 -58 -48 -95 -104 -30 -45 -63 -90 -72 -101 -10
-10 -18 -21 -18 -24 0 -5 126 -68 136 -68 2 0 4 30 4 68 0 76 19 126 76 203
40 54 31 61 -31 26z"></path>
<path d="M6522 3382 c2 -117 7 -213 12 -215 12 -3 7 405 -5 418 -6 6 -8 -67
-7 -203z"></path>
<path d="M6860 3440 c0 -5 5 -10 11 -10 5 0 7 5 4 10 -3 6 -8 10 -11 10 -2 0
-4 -4 -4 -10z"></path>
<path d="M6858 3273 l-3 -128 -123 -5 c-154 -6 -165 -25 -14 -25 68 0 119 5
140 14 l32 13 0 118 c0 91 -3 120 -15 130 -12 10 -15 -5 -17 -117z"></path>
<path d="M5980 3320 c0 -26 4 -30 38 -35 20 -3 68 -13 106 -21 88 -18 88 -18
84 8 -4 28 -122 78 -185 78 -41 0 -43 -1 -43 -30z"></path>
<path d="M5984 3256 c-3 -8 -4 -31 -2 -51 l3 -37 70 -4 c39 -2 87 -6 108 -9
36 -5 37 -5 37 28 0 39 -16 49 -114 72 -77 18 -95 19 -102 1z"></path>
<path d="M6305 3115 c34 -16 85 -19 85 -6 0 14 -27 21 -73 20 l-42 -1 30 -13z"></path>
<path d="M6535 3081 c-3 -5 -1 -12 5 -16 5 -3 10 1 10 9 0 18 -6 21 -15 7z"></path>
<path d="M6872 3081 c-10 -6 -10 -10 3 -21 13 -11 15 -9 15 9 0 24 0 24 -18
12z"></path>
<path d="M5987 3055 c5 -21 10 -25 27 -22 11 3 53 9 91 13 59 6 66 8 41 15
-16 5 -59 11 -96 15 l-68 6 5 -27z"></path>
<path d="M6517 3019 c7 -7 15 -10 18 -7 3 3 -2 9 -12 12 -14 6 -15 5 -6 -5z"></path>
<path d="M6140 2970 c0 -5 16 -10 35 -10 19 0 35 5 35 10 0 6 -16 10 -35 10
-19 0 -35 -4 -35 -10z"></path>
<path d="M6012 2963 c-18 -3 -23 -10 -19 -24 3 -10 1 -22 -4 -25 -5 -3 -9
-309 -9 -735 l0 -729 88 0 c48 0 97 -3 109 -6 22 -6 22 -4 25 102 l3 109 155
0 155 0 3 -117 c2 -96 5 -118 17 -118 12 0 15 21 15 115 l0 115 155 0 155 0 0
-136 c0 -104 3 -135 13 -132 8 3 13 44 17 139 l5 134 53 3 c37 2 52 7 52 18 0
10 -14 14 -55 14 l-55 0 0 325 0 325 55 0 55 0 0 40 0 40 -60 0 -60 0 0 155
c0 97 -4 155 -10 155 -6 0 -10 -58 -10 -155 l0 -155 -81 0 -80 0 3 -42 3 -43
75 0 75 0 3 -322 2 -323 -155 0 -155 0 0 303 c-1 242 -3 298 -13 282 -8 -14
-14 -105 -17 -300 l-5 -280 -159 -3 -159 -3 6 212 c4 117 7 261 7 321 l0 108
155 0 155 0 1 -27 c1 -18 7 -4 18 37 9 36 13 69 9 75 -4 5 -8 35 -8 68 0 36
-4 56 -10 52 -5 -3 -10 -31 -10 -61 l0 -54 -155 0 -155 0 0 33 -1 32 -26 -30
-26 -30 27 47 c26 46 26 49 26 252 l0 206 -29 0 c-16 0 -36 3 -45 6 -10 4 -21
-7 -35 -35 -12 -22 -28 -44 -38 -49 -14 -8 -15 -22 -10 -93 3 -46 9 -99 13
-116 4 -20 3 -33 -4 -33 -11 0 -38 108 -48 191 -4 40 -1 66 10 94 9 21 14 40
11 43 -2 3 3 11 13 18 18 14 11 16 -36 7z m91 -488 c5 -26 4 -25 -13 10 -11
22 -19 47 -19 55 0 21 25 -29 32 -65z"></path>
<path d="M6510 2946 c0 -17 5 -26 16 -26 10 0 14 7 12 22 -5 32 -28 35 -28 4z"></path>
<path d="M6510 2879 c0 -38 24 -35 28 4 2 19 -1 27 -12 27 -11 0 -16 -10 -16
-31z"></path>
<path d="M6521 2831 c-8 -6 -9 -11 -3 -15 6 -3 14 -1 17 5 9 14 2 20 -14 10z"></path>
<path d="M6520 2659 c0 -71 4 -108 10 -104 6 3 10 52 10 111 0 63 -4 104 -10
104 -6 0 -10 -44 -10 -111z"></path>
<path d="M6576 2398 c-9 -12 -16 -33 -16 -45 0 -22 4 -23 65 -23 70 0 70 0 59
59 -6 29 -9 31 -50 31 -33 0 -46 -5 -58 -22z"></path>
<path d="M2717 1714 c-16 -16 -5 -24 32 -24 22 0 43 5 46 10 3 6 -5 10 -19 10
-13 0 -31 2 -38 5 -8 3 -17 2 -21 -1z"></path>
<path d="M2583 1508 c-4 -7 -10 -101 -13 -208 l-5 -195 -127 -3 c-71 -1 -128
-6 -128 -10 0 -5 6 -15 13 -24 9 -12 41 -17 150 -21 l137 -6 0 29 c0 17 -5 30
-10 30 -7 0 -9 67 -4 210 4 116 4 210 1 210 -3 0 -9 -6 -14 -12z"></path>
<path d="M6867 1363 c-4 -3 -7 -15 -7 -25 0 -26 24 -17 28 10 3 21 -8 29 -21
15z"></path>
<path d="M6870 1270 c-8 -5 -12 -11 -9 -14 2 -3 11 -1 19 4 8 5 12 11 9 14 -2
3 -11 1 -19 -4z"></path>
<path d="M6873 1069 c-7 -7 -13 -23 -13 -36 0 -14 -7 -26 -17 -29 -62 -19 -58
-36 13 -50 33 -7 63 -20 71 -30 15 -20 15 -20 37 23 24 47 21 53 -28 53 l-45
0 -3 41 c-2 32 -5 38 -15 28z"></path>
<path d="M6650 1001 c0 -9 34 -21 63 -21 9 0 17 7 17 15 0 11 -11 15 -40 15
-22 0 -40 -4 -40 -9z"></path>
<path d="M6967 926 c-15 -32 -27 -73 -27 -90 0 -30 2 -29 31 24 21 38 29 65
27 90 l-3 35 -28 -59z"></path>
</g>
</svg>