 <svg version="1.0" xmlns="http://www.w3.org/2000/svg" viewBox="0 0 700.000000 423.000000" preserveAspectRatio="xMidYMid meet" id="mask">

<g transform="translate(0.000000,423.000000) scale(0.100000,-0.100000)">
<path d="M3173 3643 l-33 -4 0 -152 c0 -84 3 -169 6 -190 l7 -38 353 3 c194 2
355 6 359 10 4 4 9 90 12 192 l6 186 -339 -2 c-186 0 -354 -3 -371 -5z m605
-199 l-3 -139 -267 -3 -268 -2 0 145 0 145 263 2 c144 2 266 0 270 -3 4 -3 6
-68 5 -145z"></path>
<path d="M4355 3089 c-561 -3 -1430 -10 -1931 -14 l-911 -7 -7 -61 c-3 -33 -6
-228 -6 -433 0 -293 3 -374 13 -374 6 0 91 5 187 10 661 37 784 40 1860 40
958 0 1137 -2 1528 -21 244 -11 446 -18 449 -15 7 6 22 866 16 879 -2 4 -43 6
-91 5 -48 -1 -546 -5 -1107 -9z m241 -184 c5 -11 23 -15 72 -15 l65 0 -5 -290
c-3 -160 -8 -293 -10 -296 -10 -9 -349 -16 -470 -9 l-128 7 0 294 0 294 58 0
c32 0 62 4 68 10 5 5 56 11 114 13 58 1 133 4 168 5 48 2 64 -2 68 -13z m739
5 c3 -5 35 -10 71 -10 l64 0 0 -262 c0 -145 -3 -280 -6 -300 l-7 -38 -63 0
c-36 0 -64 -4 -64 -10 0 -6 -63 -10 -169 -10 -103 0 -172 4 -176 10 -3 6 -35
10 -71 10 l-64 0 2 297 3 297 61 -3 c48 -2 63 1 67 13 5 14 31 16 176 16 102
0 172 -4 176 -10z m-2580 -10 c3 -5 33 -10 66 -10 l59 0 0 -295 0 -295 -60 0
c-33 0 -60 -4 -60 -10 0 -6 -63 -10 -169 -10 -103 0 -172 4 -176 10 -3 6 -33
10 -66 10 l-59 0 0 290 0 290 54 0 c29 0 67 7 82 15 34 18 318 22 329 5z m960
0 c3 -5 33 -10 66 -10 l59 0 0 -295 0 -295 -64 0 c-36 0 -68 -5 -71 -10 -8
-13 -405 -13 -420 0 -6 5 -38 10 -70 12 l-60 3 0 290 0 290 60 3 c33 2 64 7
70 13 13 13 422 12 430 -1z m-1670 -9 c6 -6 35 -11 65 -13 30 -2 54 -6 53 -10
-2 -5 -3 -134 -3 -288 l0 -280 -60 0 c-33 0 -60 -4 -60 -10 0 -6 -63 -10 -170
-10 -107 0 -170 4 -170 10 0 6 -28 10 -65 10 l-65 0 2 288 3 287 60 3 c33 2
64 7 70 13 12 12 328 12 340 0z"></path>
<path d="M1144 1909 c-10 -17 4 -24 156 -74 80 -26 148 -50 151 -54 6 -5 18
-578 19 -858 l0 -111 43 0 c23 0 49 -1 57 -3 8 -2 14 2 13 9 -2 6 2 12 7 12 6
0 10 -7 10 -15 0 -15 25 -21 33 -7 4 6 -20 66 -42 102 -17 29 -44 95 -51 128
-7 29 -5 34 15 42 13 5 27 19 31 32 4 12 5 151 3 308 l-4 285 55 8 c30 5 96
11 145 15 l90 7 2 78 1 78 -91 -3 -92 -3 -6 -45 -6 -45 -1 48 -2 47 -79 0
c-44 0 -97 7 -121 15 -52 18 -325 22 -336 4z m543 -166 c-3 -10 -5 -2 -5 17 0
19 2 27 5 18 2 -10 2 -26 0 -35z"></path>
<path d="M5560 1905 c-19 -7 -74 -14 -122 -14 -47 -1 -93 -4 -102 -7 -13 -5
-16 -23 -16 -95 l0 -89 67 0 66 0 -6 -319 c-6 -274 -4 -320 8 -325 15 -6 11
-61 -6 -81 -5 -5 -9 -26 -9 -47 0 -30 -4 -38 -18 -38 -12 0 -27 -19 -45 -55
-29 -59 -40 -64 -87 -40 -16 8 -37 14 -47 13 -38 -4 -197 44 -275 83 -10 5
-46 9 -79 9 l-62 0 6 302 c4 166 7 348 7 405 l0 103 65 0 c37 0 65 4 65 10 0
6 28 10 65 10 l65 0 0 80 0 80 -400 0 -400 0 0 -64 c0 -101 -8 -96 151 -96
117 0 139 -2 139 -15 0 -12 14 -15 66 -15 l67 0 -5 -396 c-5 -384 -4 -395 15
-409 10 -7 25 -11 32 -8 30 11 42 -85 14 -103 -5 -3 -9 -16 -9 -30 l0 -24 133
-1 c72 0 141 -2 152 -4 36 -7 505 -8 512 -2 3 4 8 241 11 527 4 466 7 522 21
529 9 4 83 26 165 47 82 21 151 45 153 52 3 7 0 19 -7 27 -17 20 -298 20 -350
0z"></path>
<path d="M1907 1883 c-15 -14 -6 -41 14 -46 18 -5 20 -11 15 -34 -4 -15 -7
-36 -7 -45 0 -9 -8 -19 -17 -21 -9 -3 12 -5 49 -6 36 0 69 -5 75 -10 5 -6 36
-11 69 -13 l60 -3 3 -377 2 -378 38 0 c20 0 47 3 60 6 l22 6 0 374 0 374 59 0
c44 0 60 4 65 15 5 14 28 16 148 14 l143 -1 9 60 c5 34 6 68 3 76 -6 14 -53
16 -405 16 -219 0 -402 -3 -405 -7z"></path>
<path d="M2879 1888 c0 -2 -1 -261 -2 -576 l-2 -572 62 0 62 0 -2 63 c-1 34
-6 68 -10 75 -5 8 -2 12 10 13 13 0 10 4 -10 13 -25 11 -26 14 -13 26 22 17 3
40 -33 40 -25 1 -25 1 -7 15 11 8 34 15 52 15 19 0 34 6 38 15 3 9 0 15 -10
15 -8 0 -28 7 -45 15 -26 14 -28 18 -15 30 11 12 21 12 48 3 18 -6 37 -15 42
-19 6 -5 15 -9 20 -9 6 0 -4 14 -22 30 -18 17 -38 30 -43 30 -6 0 -7 5 -4 11
4 6 22 8 46 4 25 -4 39 -3 39 4 0 6 -9 11 -20 11 -11 0 -20 5 -20 11 0 7 10 9
28 5 15 -4 40 -10 55 -13 26 -5 26 -6 10 -19 -15 -11 -15 -13 -3 -14 38 0 40
16 40 327 l0 303 340 0 341 0 -3 -303 -3 -304 33 2 c36 3 72 29 73 54 0 9 6
-2 13 -24 13 -43 4 -75 -23 -75 -11 0 -11 -3 -1 -15 7 -8 20 -14 29 -13 11 2
17 -6 19 -24 2 -17 9 -28 18 -28 16 0 44 -23 44 -36 0 -3 -19 -4 -42 -1 l-43
6 23 -19 c12 -10 28 -20 34 -22 6 -2 9 -12 5 -21 -4 -10 -12 -14 -22 -11 -16
6 -21 -11 -6 -20 4 -3 6 -39 3 -81 l-5 -75 67 0 66 0 0 85 c0 72 -2 85 -16 85
-16 0 -17 27 -12 322 6 314 5 322 -13 300 l-18 -23 -14 23 c-28 43 -28 80 -3
121 21 34 24 36 29 18 8 -32 27 -25 27 10 0 17 7 37 15 46 12 12 15 33 13 92
l-3 76 -627 3 c-346 1 -628 1 -629 0z m95 -251 c27 -39 26 -43 -7 -114 -15
-34 -24 -29 -45 30 -19 51 -19 52 -1 79 10 14 19 32 19 39 0 15 3 13 34 -34z
m156 -447 c23 -23 19 -40 -11 -40 -14 0 -19 7 -19 30 0 35 3 37 30 10z"></path>
<path d="M2930 1568 c0 -18 18 -34 28 -24 3 4 -2 14 -11 23 -16 16 -17 16 -17
1z"></path>
<path d="M5110 1810 l0 -80 100 0 100 0 0 80 0 80 -100 0 -100 0 0 -80z"></path>
<path d="M1130 1586 c0 -8 5 -18 10 -21 6 -4 10 -82 10 -200 0 -189 1 -194 23
-212 23 -19 39 -71 17 -58 -9 5 -10 1 -5 -14 4 -15 2 -21 -8 -21 -8 0 -18 -7
-21 -16 -5 -14 -4 -15 9 -4 12 10 15 10 15 -4 0 -13 7 -17 33 -14 l32 3 0 153
0 152 77 0 c114 0 108 -8 108 141 l0 129 -150 0 c-124 0 -150 -3 -150 -14z"></path>
<path d="M4077 1572 c-21 -23 -21 -32 -3 -32 7 0 16 10 19 22 8 29 4 32 -16
10z"></path>
<path d="M3844 1109 c-3 -6 -1 -16 4 -21 13 -13 45 8 36 23 -7 12 -31 11 -40
-2z"></path>
<path d="M3145 1070 c12 -19 -15 -41 -35 -30 -11 6 -21 6 -24 1 -10 -15 55
-33 70 -20 19 16 18 59 -2 59 -8 0 -12 -5 -9 -10z"></path>
<path d="M3098 1003 c7 -3 16 -2 19 1 4 3 -2 6 -13 5 -11 0 -14 -3 -6 -6z"></path>
<path d="M2000 900 c-19 -4 -65 -19 -102 -33 -36 -14 -68 -23 -71 -21 -2 2
-21 -3 -41 -11 -20 -9 -41 -13 -46 -10 -4 3 -19 1 -32 -4 -21 -9 -20 -10 12
-10 19 0 54 4 77 9 36 8 47 7 78 -11 28 -17 38 -19 50 -9 8 6 19 9 25 5 5 -3
13 1 16 9 3 9 11 13 18 9 6 -4 16 -8 21 -9 6 -1 30 -5 56 -9 l45 -7 0 39 c0
21 4 46 8 56 7 15 3 17 -35 16 -24 -1 -60 -5 -79 -9z"></path>
<path d="M4300 801 c0 -71 0 -71 28 -71 29 0 28 -2 35 100 2 33 0 35 -30 38
l-33 3 0 -70z"></path>
<path d="M1670 849 c0 -5 5 -7 10 -4 6 3 10 8 10 11 0 2 -4 4 -10 4 -5 0 -10
-5 -10 -11z"></path>
<path d="M5300 830 c19 -13 30 -13 30 0 0 6 -10 10 -22 10 -19 0 -20 -2 -8
-10z"></path>
</g>
</svg>