 <svg version="1.0" xmlns="http://www.w3.org/2000/svg" id="mask" viewBox="0 0 700.000000 569.000000" preserveAspectRatio="xMidYMid meet">

<g transform="translate(0.000000,569.000000) scale(0.100000,-0.100000)">
<path d="M3110 4171 c0 -12 -19 -13 -111 -8 -89 5 -123 3 -168 -10 l-56 -17
33 -10 c19 -5 43 -22 54 -36 20 -27 21 -27 66 -14 25 8 79 14 120 14 58 0 80
4 95 18 10 9 39 24 63 32 24 8 45 20 46 25 2 6 -28 12 -70 15 -57 4 -72 2 -72
-9z"></path>
<path d="M775 4068 c-47 -17 -55 -23 -40 -28 11 -4 30 -19 43 -33 l23 -24 82
19 c73 18 94 18 199 9 64 -6 138 -11 165 -11 27 0 53 -4 59 -9 5 -5 95 -14
199 -20 105 -6 262 -16 350 -21 383 -25 452 -27 675 -23 221 4 235 5 242 24 4
10 14 19 23 19 8 0 15 4 15 8 0 5 -75 12 -167 15 -93 4 -247 11 -343 17 -96 5
-260 15 -365 20 -104 6 -217 13 -250 15 -261 20 -714 45 -790 44 -33 0 -86
-10 -120 -21z"></path>
<path d="M4761 4023 c37 -43 54 -51 124 -52 34 -1 59 5 80 19 17 11 38 20 48
20 9 0 17 5 17 10 0 6 -6 10 -14 10 -7 0 -19 7 -26 15 -10 12 -39 15 -137 15
l-125 0 33 -37z"></path>
<path d="M0 3421 l0 -39 138 -6 c75 -3 220 -8 322 -11 102 -3 226 -10 275 -15
50 -5 149 -14 220 -20 72 -6 145 -13 163 -15 19 -2 32 1 32 7 0 16 32 37 57
38 12 0 24 4 27 9 3 4 -34 11 -82 15 -48 4 -125 11 -172 16 -109 12 -336 26
-620 40 -124 6 -255 13 -292 15 l-68 5 0 -39z"></path>
<path d="M1380 3369 c0 -5 -6 -9 -14 -9 -8 0 -24 -13 -36 -30 l-21 -30 33 0
c18 0 121 -5 228 -10 694 -34 955 -46 1265 -60 132 -6 257 -12 279 -14 28 -2
43 2 54 15 9 11 22 19 29 19 7 0 13 8 13 19 0 21 -31 24 -410 41 -124 6 -315
15 -425 20 -110 5 -369 17 -575 25 -206 8 -385 17 -397 19 -13 2 -23 -1 -23
-5z"></path>
<path d="M0 2876 l0 -56 38 0 c99 -1 768 -30 926 -41 l179 -12 18 24 c23 29
23 29 0 55 -15 18 -32 23 -112 29 -52 3 -146 10 -209 15 -63 6 -236 14 -385
19 -148 6 -312 13 -362 16 l-93 6 0 -55z"></path>
</g>
</svg>