 <svg version="1.0" xmlns="http://www.w3.org/2000/svg" id="mask" viewBox="0 0 700.000000 456.000000" preserveAspectRatio="xMidYMid meet">

<g transform="translate(0.000000,456.000000) scale(0.100000,-0.100000)">
<path d="M2946 2830 c-551 -6 -670 -10 -677 -21 -5 -8 -9 -49 -9 -91 l0 -78
-262 0 c-145 0 -320 -3 -390 -7 l-128 -6 0 -109 0 -108 120 0 120 0 0 95 0 95
75 0 75 0 0 -95 0 -95 85 0 85 0 0 55 0 55 110 0 110 0 0 -79 c0 -58 4 -80 14
-84 15 -6 28 -67 14 -67 -5 0 -21 11 -36 25 -15 14 -30 25 -34 25 -16 0 -8
-18 15 -33 l22 -16 -27 2 c-16 1 -28 5 -28 9 0 4 -74 8 -165 8 -103 0 -165 -4
-165 -10 0 -6 -32 -10 -75 -10 -43 0 -75 4 -75 10 0 15 -67 12 -74 -2 -5 -10
-7 -10 -12 0 -9 19 -150 17 -158 -3 -5 -13 -80 -15 -590 -15 l-584 0 -6 -207
c-3 -115 -11 -356 -16 -538 -6 -181 -12 -401 -15 -487 l-6 -158 62 0 c51 0 62
-3 66 -19 4 -16 15 -18 114 -16 60 1 111 4 114 7 3 2 5 213 5 468 l1 463 917
-7 c504 -4 920 -10 924 -14 3 -4 11 -221 16 -482 l10 -475 -5 674 -5 674 146
-5 145 -5 66 -57 c61 -52 70 -56 116 -56 l49 0 0 50 0 50 178 -2 177 -3 3 -47
3 -48 40 0 41 0 -4 48 -3 47 175 0 175 0 5 -50 c5 -50 5 -50 40 -50 35 0 35 0
40 50 l5 50 175 0 175 0 3 -52 3 -53 185 0 184 0 0 49 c0 26 -3 75 -6 108 l-7
60 -136 6 c-75 3 -143 8 -152 12 -14 5 -17 37 -23 213 -4 114 -10 239 -12 277
-2 39 -4 73 -4 78 0 8 -309 7 -1314 -3z m1052 -114 c2 -3 7 -107 10 -231 l5
-225 -100 0 -100 0 -6 143 c-4 78 -7 184 -7 236 l0 94 96 -6 c54 -4 99 -9 102
-11z m-743 -148 c4 -84 5 -187 3 -228 l-3 -75 -102 -3 -103 -3 0 231 0 230 99
0 99 0 7 -152z m248 40 c4 -62 7 -166 7 -231 l0 -118 -102 3 -103 3 -3 228 -2
227 98 0 99 0 6 -112z m251 -45 c4 -87 8 -189 9 -228 l2 -70 -101 -3 -101 -3
-6 122 c-4 67 -7 171 -7 231 l0 108 99 0 99 0 6 -157z m-3276 -785 c-3 -51 -4
-53 -33 -53 -29 0 -30 2 -33 53 l-3 52 36 0 36 0 -3 -52z"></path>
<path d="M5600 2627 c0 -40 32 -564 35 -574 3 -9 56 -13 202 -15 l198 -3 3
-47 c3 -45 1 -48 -25 -54 -15 -4 -80 -21 -143 -38 l-115 -31 0 -45 0 -45 160
-5 160 -5 6 -125 c4 -69 8 -162 9 -207 3 -88 9 -106 37 -108 17 -1 18 8 11
159 -3 89 -9 189 -13 224 l-6 62 168 -2 c159 -3 168 -4 172 -23 4 -24 32 -59
49 -62 15 -4 16 9 0 25 -9 9 -9 12 0 12 6 0 15 -8 21 -17 5 -10 13 -14 18 -10
8 8 -15 31 -67 70 -16 11 -18 16 -7 13 11 -3 17 0 17 10 0 12 3 12 25 -2 14
-9 25 -22 25 -28 0 -7 10 -22 23 -34 l23 -22 -6 55 c-3 30 -11 60 -17 66 -8 8
-8 22 -1 47 12 43 1 184 -16 194 -8 6 -7 8 2 8 16 0 6 61 -12 72 -7 5 -7 8 3
8 11 0 11 3 1 15 -8 10 -9 15 -2 15 12 0 11 26 -9 295 -6 77 -12 141 -14 143
-1 2 -175 5 -386 8 -211 2 -417 6 -456 8 -52 3 -73 1 -73 -7z m194 -69 c3 -18
8 -103 11 -188 3 -85 9 -172 12 -192 l6 -38 -85 0 -84 0 -12 183 c-7 100 -12
201 -12 225 l0 42 80 0 79 0 5 -32z m227 -78 c4 -58 9 -158 13 -222 l5 -118
-84 0 -85 0 -1 68 c0 37 -4 135 -8 217 -5 83 -6 154 -4 158 3 4 39 7 81 5 l77
-3 6 -105z m215 80 c1 -14 7 -101 13 -195 6 -93 14 -182 17 -197 l6 -28 -85 0
-85 0 -6 73 c-12 127 -24 362 -19 370 3 4 39 7 81 5 74 -3 77 -4 78 -28z m227
-87 c4 -60 10 -159 13 -220 l7 -113 -81 0 -80 0 -6 63 c-3 34 -8 112 -11 172
-3 61 -8 131 -12 158 l-6 47 85 0 85 0 6 -107z m67 -275 c0 -13 -23 -5 -28 10
-2 7 2 10 12 6 9 -3 16 -11 16 -16z m-20 -138 c0 -5 -2 -10 -4 -10 -3 0 -8 5
-11 10 -3 6 -1 10 4 10 6 0 11 -4 11 -10z"></path>
<path d="M1480 2380 c0 -6 33 -10 80 -10 47 0 80 4 80 10 0 6 -33 10 -80 10
-47 0 -80 -4 -80 -10z"></path>
<path d="M1655 2380 c-4 -6 8 -10 29 -10 20 0 36 5 36 10 0 6 -13 10 -29 10
-17 0 -33 -4 -36 -10z"></path>
<path d="M1870 2380 c0 -6 35 -10 85 -10 50 0 85 4 85 10 0 6 -35 10 -85 10
-50 0 -85 -4 -85 -10z"></path>
<path d="M2128 2373 c12 -2 32 -2 45 0 12 2 2 4 -23 4 -25 0 -35 -2 -22 -4z"></path>
<path d="M2220 2363 c1 -12 51 -46 57 -39 3 3 -5 14 -18 25 -25 21 -39 26 -39
14z"></path>
<path d="M1480 2340 c0 -6 33 -10 80 -10 47 0 80 4 80 10 0 6 -33 10 -80 10
-47 0 -80 -4 -80 -10z"></path>
<path d="M1650 2340 c0 -5 16 -10 35 -10 19 0 35 5 35 10 0 6 -16 10 -35 10
-19 0 -35 -4 -35 -10z"></path>
<path d="M1870 2340 c0 -6 62 -10 165 -10 103 0 165 4 165 10 0 6 -62 10 -165
10 -103 0 -165 -4 -165 -10z"></path>
<path d="M3013 1858 c-2 -5 74 -8 170 -8 l174 0 7 -61 c3 -34 6 -183 6 -330 0
-263 0 -269 22 -289 23 -21 51 -29 30 -8 -17 17 -15 33 3 18 13 -11 13 -8 0
26 -15 38 -10 35 23 -13 10 -15 11 3 7 102 -2 66 -6 217 -7 335 l-3 215 175 0
175 0 5 -167 c5 -161 11 -202 25 -159 3 12 11 21 17 21 5 0 1 -16 -11 -36 -12
-19 -21 -49 -21 -66 l0 -32 30 29 c23 22 27 31 18 42 -14 18 -3 29 15 15 11
-10 13 19 9 173 l-5 185 175 0 175 0 7 -92 c3 -50 6 -146 6 -212 0 -67 3 -172
7 -233 5 -98 8 -113 23 -113 10 0 29 -9 44 -21 l26 -20 0 22 c0 21 1 22 16 7
12 -11 27 -14 58 -10 50 6 59 18 39 49 -14 22 -14 23 7 23 23 0 23 0 4 21 -25
27 -26 84 -2 105 24 22 23 52 -3 80 -16 17 -18 26 -10 42 7 14 6 24 -5 40 -20
29 -21 96 -1 117 10 9 17 21 17 26 0 5 9 9 20 9 22 0 27 19 9 37 -7 7 -6 12 5
16 9 4 16 2 16 -3 0 -18 67 -10 94 11 22 17 26 28 26 70 l0 49 -806 -2 c-443
-2 -808 -6 -811 -10z m423 -295 c-10 -10 -19 5 -10 18 6 11 8 11 12 0 2 -7 1
-15 -2 -18z m4 -157 c0 -3 -4 -8 -10 -11 -5 -3 -10 -1 -10 4 0 6 5 11 10 11 6
0 10 -2 10 -4z m-10 -51 c0 -8 -7 -15 -16 -15 -14 0 -14 3 -4 15 7 8 14 15 16
15 2 0 4 -7 4 -15z"></path>
<path d="M6550 1673 c0 -4 5 -15 10 -23 8 -13 10 -13 10 2 0 9 -4 20 -10 23
-5 3 -10 3 -10 -2z"></path>
<path d="M6491 1454 c0 -5 13 -19 29 -31 l28 -23 -11 24 c-7 14 -14 23 -16 20
-2 -2 -10 1 -18 7 -7 6 -13 8 -12 3z"></path>
<path d="M3847 1423 c-30 -23 -36 -34 -37 -65 0 -42 16 -50 30 -15 5 13 9 16
10 7 0 -12 3 -12 14 2 7 10 16 15 19 11 4 -3 7 15 7 40 0 26 -2 47 -3 47 -2 0
-20 -12 -40 -27z"></path>
<path d="M6472 1415 c1 -9 6 -15 9 -13 4 2 17 -6 29 -17 l23 -20 -13 21 c-7
12 -22 26 -32 33 -17 10 -19 10 -16 -4z"></path>
<path d="M3864 1328 c-10 -12 -13 -18 -6 -14 11 7 16 -4 13 -31 -1 -6 3 -14 9
-18 6 -4 10 11 10 39 0 25 -2 46 -3 46 -2 0 -12 -10 -23 -22z"></path>
<path d="M6492 1318 c-7 -7 -12 -18 -12 -25 0 -11 6 -10 30 2 17 9 30 20 30
25 0 14 -34 12 -48 -2z"></path>
<path d="M6530 1292 c-20 -6 -50 -33 -50 -44 0 -9 22 2 54 27 21 16 19 25 -4
17z"></path>
<path d="M3836 1264 c-4 -10 -1 -14 6 -12 15 5 23 28 10 28 -5 0 -13 -7 -16
-16z"></path>
<path d="M6500 1190 c0 -5 5 -10 10 -10 6 0 10 5 10 10 0 6 -4 10 -10 10 -5 0
-10 -4 -10 -10z"></path>
</g>
</svg>