 <svg version="1.0" xmlns="http://www.w3.org/2000/svg" id="mask" viewBox="0 0 700.000000 456.000000" preserveAspectRatio="xMidYMid meet">

<g transform="translate(0.000000,456.000000) scale(0.100000,-0.100000)">
<path d="M4275 3268 c-8 -26 -65 -245 -65 -252 0 -5 16 -6 35 -4 27 3 35 0 35
-12 1 -68 21 -583 26 -652 l6 -86 138 -7 138 -7 7 -87 c3 -47 7 -95 8 -106 2
-18 8 -19 87 -16 47 1 86 4 87 5 4 4 -16 606 -22 679 l-6 67 273 0 c150 0 283
3 294 6 20 5 22 1 28 -78 8 -99 23 -362 33 -545 l6 -133 125 0 125 0 -7 103
c-16 250 -27 419 -31 507 -3 52 -10 169 -16 260 -7 91 -14 210 -18 265 l-6
100 -638 3 c-505 2 -638 0 -642 -10z"></path>
<path d="M4770 1830 c0 -29 4 -40 15 -40 10 0 15 10 15 30 l0 30 289 0 290 0
5 -42 c6 -43 10 -154 21 -488 3 -96 8 -203 11 -237 5 -59 7 -63 31 -63 l26 0
-7 203 c-4 111 -10 249 -13 307 -4 58 -8 158 -10 223 l-5 117 -334 0 -334 0 0
-40z"></path>
<path d="M4780 1475 c0 -6 7 -20 15 -31 14 -18 14 -17 15 12 0 21 -5 31 -15
31 -8 0 -15 -5 -15 -12z"></path>
<path d="M4806 1225 c2 -30 -1 -57 -6 -60 -11 -7 -12 -136 0 -155 19 -31 23
-4 21 158 -1 61 -5 112 -10 112 -5 0 -7 -25 -5 -55z"></path>
</g>
</svg>