 <svg version="1.0" xmlns="http://www.w3.org/2000/svg" id="mask" viewBox="0 0 700.000000 456.000000" preserveAspectRatio="xMidYMid meet">

<g transform="translate(0.000000,456.000000) scale(0.100000,-0.100000)">
<path d="M4764 2588 c3 -112 9 -280 13 -374 l6 -171 -114 -6 c-63 -4 -187 -7
-276 -7 l-163 0 0 50 0 50 -180 0 -180 0 0 -50 0 -50 -40 0 -40 0 0 50 0 50
-178 0 -177 0 3 -45 4 -45 -41 0 -41 0 0 45 0 45 -180 0 -180 0 0 -45 0 -45
-47 0 -46 0 21 -23 c14 -14 22 -37 22 -58 1 -27 8 -39 37 -61 l36 -28 804 0
803 0 0 29 c0 33 17 41 93 41 l47 0 0 -35 0 -35 328 0 c303 0 333 2 387 20 43
15 84 20 162 20 96 0 103 -1 103 -20 0 -11 3 -20 6 -20 4 0 67 16 140 35 73
19 136 35 139 35 3 0 5 21 2 48 l-4 47 -325 3 -326 2 -6 118 c-6 112 -20 340
-32 540 l-6 92 -291 0 -290 0 7 -202z m556 145 c0 -21 3 -48 6 -60 l6 -23
-281 0 -281 0 0 60 0 60 275 0 275 0 0 -37z m-27 -119 l37 -7 0 -58 0 -59
-275 0 -275 0 0 65 0 65 238 0 c130 0 254 -3 275 -6z m45 -221 l3 -63 -276 0
-275 0 0 65 0 65 273 -2 272 -3 3 -62z m7 -144 c4 -33 6 -62 4 -63 -2 -2 -127
-6 -276 -9 l-273 -7 0 65 0 65 183 3 c100 1 221 3 269 5 l86 2 7 -61z m13
-156 l3 -53 -280 0 -281 0 0 55 0 55 278 -2 277 -3 3 -52z m-1150 -15 c3 -38
3 -38 -36 -38 -21 0 -94 -3 -160 -7 l-122 -6 0 40 c0 22 3 43 7 47 4 3 75 5
157 4 l151 -3 3 -37z m-868 -3 l0 -35 -155 0 -155 0 0 35 0 35 155 0 155 0 0
-35z m430 2 l0 -34 -112 -6 c-62 -4 -132 -7 -155 -7 l-43 0 0 40 0 40 155 0
155 0 0 -33z"></path>
<path d="M3052 2493 c3 -215 4 -228 22 -231 18 -4 19 4 14 212 l-6 216 68 0
68 0 7 -152 c4 -84 6 -166 5 -183 -4 -57 0 -95 10 -95 6 0 10 83 10 230 l0
230 -100 0 -100 0 2 -227z"></path>
<path d="M3300 2551 c0 -213 8 -291 28 -291 13 0 14 27 9 215 l-7 215 69 0 68
0 6 -127 c4 -71 7 -159 8 -198 0 -70 11 -117 21 -99 4 5 4 109 1 232 l-6 222
-99 0 -98 0 0 -169z"></path>
<path d="M3554 2643 c3 -42 6 -145 6 -230 0 -135 2 -153 16 -153 15 0 16 19
10 209 -6 156 -4 211 4 216 18 11 130 19 131 9 1 -5 5 -103 8 -218 4 -154 9
-210 19 -214 14 -4 17 153 5 346 l-6 112 -100 0 -100 0 7 -77z"></path>
<path d="M3800 2642 c0 -44 3 -147 7 -230 5 -118 9 -152 20 -152 11 0 12 39 6
220 l-6 220 71 0 c40 0 72 -1 73 -2 1 -2 4 -98 7 -215 7 -195 12 -237 28 -220
4 3 3 108 -1 232 l-7 225 -99 0 -99 0 0 -78z"></path>
<path d="M1720 2505 l0 -95 -297 -2 -298 -3 -1 -57 c-1 -32 2 -58 8 -58 5 0 6
5 2 12 -5 8 -1 9 14 5 12 -4 32 -10 45 -13 22 -6 22 -6 2 9 -19 16 -19 16 -1
17 10 0 41 -8 69 -17 37 -13 51 -15 54 -6 3 9 12 9 29 2 41 -15 64 -11 34 6
-22 13 -10 14 115 8 84 -3 143 -10 147 -17 5 -8 8 -7 8 2 0 7 14 12 35 12 19
0 35 -4 35 -10 0 -5 9 -10 20 -10 11 0 20 5 20 10 0 15 87 12 94 -2 5 -10 7
-10 12 0 4 9 48 12 170 12 90 0 164 -4 164 -8 0 -4 9 -8 20 -8 18 0 18 2 3 18
-27 30 -6 33 32 4 l35 -27 0 28 c0 17 -8 33 -20 41 -11 7 -20 18 -20 26 0 16
-43 26 -116 26 l-54 0 0 40 0 40 91 0 c68 0 90 3 87 13 -3 8 -37 13 -111 15
l-107 3 0 -56 0 -55 -85 0 -85 0 0 95 0 95 -75 0 -75 0 0 -95z m108 55 c21 0
22 -4 22 -75 l0 -75 -45 0 -45 0 0 81 c0 79 1 81 23 75 12 -3 32 -6 45 -6z
m-190 -177 c6 -20 -417 -18 -444 2 -17 13 6 14 210 12 173 -1 230 -5 234 -14z
m80 0 c2 -9 -8 -13 -32 -13 -34 0 -44 8 -29 24 11 11 56 2 61 -11z m130 0 c2
-9 -10 -13 -42 -13 -35 0 -46 4 -46 16 0 12 9 14 42 12 23 -2 43 -9 46 -15z
m188 7 c5 -5 45 -11 89 -13 44 -1 5 -4 -87 -5 -153 -2 -181 2 -161 21 10 11
148 8 159 -3z m-866 -10 c12 -8 11 -10 -7 -10 -13 0 -23 5 -23 10 0 13 11 13
30 0z m1095 -30 c10 -11 16 -23 12 -26 -7 -7 -57 25 -57 37 0 16 26 9 45 -11z
m-1020 -5 l30 -13 -30 -1 c-16 0 -41 6 -55 14 l-25 14 25 0 c14 0 39 -6 55
-14z m347 5 c27 0 48 -5 48 -11 0 -17 -345 -8 -362 10 -11 11 8 13 126 7 77
-3 161 -6 188 -6z m-422 -10 c12 -8 11 -10 -7 -10 -13 0 -23 5 -23 10 0 13 11
13 30 0z m548 -2 c-3 -7 -17 -13 -33 -13 -16 0 -30 6 -32 13 -3 8 7 12 32 12
25 0 35 -4 33 -12z m130 0 c-3 -7 -23 -14 -46 -16 -33 -2 -42 0 -42 12 0 12
11 16 46 16 32 0 44 -4 42 -12z m350 0 c-4 -10 -45 -13 -163 -13 -118 0 -159
3 -162 13 -4 9 33 12 162 12 129 0 166 -3 163 -12z m-888 -28 c0 -5 -6 -10
-14 -10 -8 0 -18 5 -21 10 -3 6 3 10 14 10 12 0 21 -4 21 -10z"></path>
<path d="M5636 2433 c4 -82 9 -150 12 -153 2 -3 2 59 -1 138 l-5 142 64 0 c77
0 71 18 78 -222 l6 -178 -64 0 -65 0 -4 58 -3 57 -2 -67 -2 -68 81 0 81 0 -6
133 c-4 72 -9 171 -12 220 l-6 87 -79 0 -79 0 6 -147z"></path>
<path d="M5854 2538 c3 -24 8 -113 11 -198 9 -216 2 -200 94 -200 l76 0 -7
137 c-3 76 -8 175 -10 220 l-3 83 -83 0 -83 0 5 -42z m150 -125 c3 -82 8 -172
11 -200 l5 -53 -64 0 -65 0 -5 33 c-3 17 -8 107 -11 200 l-7 167 65 0 65 0 6
-147z"></path>
<path d="M6075 2553 c1 -16 6 -80 9 -143 4 -63 9 -150 12 -192 l6 -78 79 0 79
0 0 38 c0 45 -20 324 -26 370 l-5 32 -79 0 -79 0 4 -27z m153 -140 c7 -82 12
-172 12 -200 l0 -53 -65 0 -65 0 -1 58 c0 31 -2 64 -4 73 -1 9 -6 73 -10 143
l-7 126 64 0 65 0 11 -147z"></path>
<path d="M6300 2518 c0 -35 5 -134 12 -220 l12 -158 79 0 79 0 -7 118 c-4 64
-11 159 -15 211 -5 52 -7 98 -4 103 3 4 -31 8 -75 8 l-81 0 0 -62z m133 35 c3
-5 8 -87 12 -183 3 -96 9 -183 11 -192 5 -16 -2 -18 -59 -18 l-64 0 -7 118
c-3 64 -9 154 -12 200 l-7 82 61 0 c33 0 63 -3 65 -7z"></path>
<path d="M3027 1843 c-12 -11 -8 -225 3 -218 6 3 10 48 10 101 l0 94 60 0 60
0 0 -130 c0 -71 3 -130 8 -130 4 0 18 3 31 7 l24 6 -6 119 c-4 86 -2 120 6
123 7 2 36 6 64 10 l53 6 2 -185 c2 -140 6 -183 15 -178 9 6 10 56 6 195 l-6
187 -162 0 c-89 0 -165 -3 -168 -7z"></path>
<path d="M3450 1689 c0 -142 2 -160 15 -149 12 10 15 40 15 146 l0 134 59 0
60 0 4 -142 c3 -79 8 -159 12 -179 4 -23 3 -39 -4 -43 -15 -10 -14 -76 2 -76
37 1 39 12 37 222 l-1 205 32 7 c17 3 44 6 60 6 29 0 29 0 29 -65 0 -51 3 -65
15 -65 17 0 19 24 9 108 l-7 52 -168 0 -169 0 0 -161z"></path>
<path d="M3887 1843 c-2 -5 -1 -149 1 -320 4 -273 6 -313 20 -313 13 0 14 35
11 303 l-4 302 56 3 56 3 7 -163 c9 -239 19 -395 24 -375 2 9 10 17 19 17 13
0 15 31 12 260 l-4 260 52 0 c28 0 54 -4 57 -8 6 -10 15 -256 17 -469 2 -159
2 -162 22 -152 19 11 20 18 14 128 -4 64 -10 209 -13 324 l-7 207 -168 0 c-92
0 -169 -3 -172 -7z"></path>
<path d="M5760 1755 c0 -13 22 -15 140 -15 l140 0 0 -60 0 -60 -140 0 c-133 0
-140 -1 -140 -20 0 -19 7 -20 145 -20 l145 0 0 -60 0 -60 -90 0 c-83 0 -90 -1
-90 -20 0 -11 6 -20 13 -21 6 0 48 -1 92 -2 80 -2 80 -2 83 -30 2 -16 8 -26
15 -24 9 3 11 50 9 173 -1 93 -5 184 -8 202 l-5 32 -154 0 c-131 0 -155 -2
-155 -15z"></path>
<path d="M6133 1614 c4 -87 7 -183 7 -211 0 -31 4 -53 11 -53 6 0 9 17 7 43
l-3 42 139 3 c93 2 143 -1 152 -9 10 -8 14 -8 14 -1 0 24 -44 32 -174 32
l-136 0 0 60 0 60 140 0 c77 0 140 3 140 8 0 4 -7 15 -14 25 -11 15 -31 17
-138 17 l-125 0 -6 51 c-4 29 -4 56 -1 60 3 5 68 9 145 9 135 0 140 -1 149
-22 8 -22 9 -22 9 5 1 27 0 27 -61 27 -35 0 -108 3 -162 7 l-99 6 6 -159z"></path>
<path d="M6441 1674 c0 -11 3 -14 6 -6 3 7 2 16 -1 19 -3 4 -6 -2 -5 -13z"></path>
<path d="M3194 1538 c-17 -19 -17 -21 -1 -15 9 4 17 2 17 -2 0 -5 -5 -11 -12
-13 -14 -5 -4 -38 12 -38 5 0 10 20 10 45 0 25 -2 45 -3 45 -2 0 -12 -10 -23
-22z"></path>
<path d="M3450 1420 c0 -29 4 -40 15 -40 16 0 20 35 9 64 -11 29 -24 16 -24
-24z"></path>
<path d="M6450 1335 c0 -15 4 -24 10 -20 6 3 10 12 10 20 0 8 -4 17 -10 20 -6
4 -10 -5 -10 -20z"></path>
<path d="M3212 1295 c0 -16 2 -22 5 -12 2 9 2 23 0 30 -3 6 -5 -1 -5 -18z"></path>
<path d="M3454 1304 c3 -9 6 -40 6 -70 0 -41 4 -54 15 -54 12 0 15 14 15 70 0
65 -2 70 -21 70 -15 0 -19 -4 -15 -16z"></path>
<path d="M3627 1302 c-12 -13 -17 -34 -16 -68 1 -27 4 -39 6 -26 3 14 12 22
24 22 16 0 19 7 19 45 0 49 -8 55 -33 27z"></path>
<path d="M6390 1285 c0 -9 9 -15 25 -15 16 0 25 6 25 15 0 9 -9 15 -25 15 -16
0 -25 -6 -25 -15z"></path>
<path d="M6455 1233 c3 -21 11 -42 17 -48 7 -7 9 0 4 24 -3 18 -6 40 -6 47 0
8 -5 14 -11 14 -8 0 -9 -13 -4 -37z"></path>
</g>
</svg>