 <svg version="1.0" xmlns="http://www.w3.org/2000/svg" viewBox="0 0 700.000000 423.000000" preserveAspectRatio="xMidYMid meet" id="mask">

<g transform="translate(0.000000,423.000000) scale(0.100000,-0.100000)">
<path d="M0 2415 l0 -1814 32 -5 c18 -3 77 -8 130 -12 110 -7 131 -18 104 -58
-8 -14 -25 -27 -36 -31 -18 -6 -20 -15 -20 -87 0 -78 1 -80 23 -74 12 3 49 11
82 17 33 7 61 13 63 14 1 1 -9 22 -23 47 -18 32 -31 84 -47 181 -11 76 -19
139 -17 141 10 9 288 -15 329 -28 25 -8 85 -33 134 -55 49 -23 93 -38 97 -34
4 4 9 40 10 78 2 76 14 131 30 140 5 4 43 -12 84 -34 l74 -41 3 38 3 37 53 0
52 -1 0 118 0 118 -52 -21 c-29 -11 -163 -61 -298 -111 -634 -232 -631 -231
-646 -206 -10 15 -7 997 7 2080 9 727 10 770 29 832 16 49 18 71 10 85 -5 11
-7 27 -4 36 6 14 8 14 23 1 16 -14 21 -14 57 5 47 24 92 21 178 -14 47 -19 64
-22 78 -14 11 8 14 15 8 21 -19 19 -10 28 21 24 20 -3 33 0 36 8 5 13 97 13
110 0 8 -8 41 36 48 67 4 14 13 28 21 31 8 3 14 12 14 20 0 22 58 50 74 37 9
-7 16 -7 23 0 16 16 108 -75 97 -93 -5 -7 -10 -29 -11 -48 -1 -19 -4 -56 -6
-83 -4 -43 -2 -48 20 -53 14 -4 23 -14 23 -25 0 -11 7 -22 15 -26 12 -4 14
-14 11 -39 -5 -27 -2 -36 14 -44 11 -6 18 -15 15 -21 -4 -5 11 -29 33 -54 28
-32 45 -66 61 -119 l22 -75 -7 -1061 -7 -1060 47 -21 c63 -28 206 -69 281 -80
33 -6 68 -12 78 -15 16 -5 17 6 17 140 0 120 -3 146 -14 146 -22 0 -29 19 -14
37 10 13 14 133 20 582 7 577 6 712 -7 744 -6 15 0 17 60 17 58 0 66 2 61 18
-22 75 -44 195 -39 209 3 10 15 31 26 46 15 22 18 39 14 75 l-5 47 85 0 c74 0
87 -3 102 -21 19 -24 105 -74 126 -74 12 0 11 9 -5 46 -11 25 -20 47 -20 48 0
2 32 9 70 16 88 17 112 7 139 -54 15 -31 28 -46 43 -48 20 -3 23 -8 20 -40 -3
-44 4 -50 88 -63 53 -9 64 -14 62 -28 -2 -9 1 -17 6 -17 12 0 12 -49 1 -56
-16 -10 -9 -24 11 -24 34 0 22 -27 -30 -71 -27 -23 -50 -47 -50 -53 0 -6 37
-21 82 -34 45 -12 84 -24 86 -27 2 -2 -8 -20 -23 -39 -21 -27 -26 -44 -23 -68
3 -18 1 -46 -4 -63 -17 -54 -19 -77 -28 -325 -14 -392 -13 -559 4 -576 23 -22
46 -17 46 10 0 14 10 30 25 40 32 21 45 20 45 -4 0 -18 7 -20 55 -20 30 0 55
5 55 10 0 6 6 10 14 10 11 0 15 99 20 587 3 324 9 706 12 851 l6 262 -75 0
-75 0 -116 85 -117 85 -139 0 -140 0 -638 371 c-350 205 -654 383 -674 395
l-38 24 -355 0 -355 0 0 -1815z m2540 726 c0 -12 7 -18 18 -17 15 1 17 -9 18
-84 0 -47 2 -87 3 -90 1 -3 3 -36 3 -73 1 -71 -12 -97 -38 -76 -9 7 -15 5 -22
-8 -10 -17 -11 -17 -32 2 -15 13 -20 28 -17 45 2 14 1 39 -3 55 -7 29 -8 29
-9 -8 0 -21 -5 -36 -10 -33 -5 3 -7 39 -6 78 2 40 4 86 4 101 1 44 21 21 21
-24 0 -40 15 -54 23 -21 3 9 5 40 6 67 1 28 4 62 7 78 6 30 34 37 34 8z"></path>
<path d="M2533 3015 c0 -22 2 -30 4 -17 2 12 2 30 0 40 -3 9 -5 -1 -4 -23z"></path>
<path d="M840 3796 c0 -18 50 -40 63 -27 5 5 7 16 4 24 -7 18 -67 21 -67 3z"></path>
<path d="M6495 3375 c-175 -92 -182 -94 -255 -97 l-75 -3 -6 -365 c-12 -661
-14 -1175 -6 -1188 6 -9 19 -6 52 14 25 14 48 23 53 20 5 -3 -13 -28 -40 -56
-27 -29 -48 -54 -45 -56 2 -2 25 5 51 17 72 32 78 17 8 -21 -63 -33 -70 -54
-19 -55 25 0 25 -2 6 -89 -11 -53 -11 -60 5 -72 17 -12 16 -13 -3 -23 -13 -8
-18 -17 -14 -29 5 -14 3 -14 -9 2 -9 12 -21 17 -32 13 -19 -7 -22 -39 -3 -36
20 3 77 -13 83 -23 10 -16 -18 -28 -68 -28 -27 0 -48 -4 -48 -9 0 -15 10 -18
79 -25 116 -12 132 -42 27 -53 -58 -6 -60 -23 -3 -23 15 0 49 -11 76 -24 l48
-25 24 52 c34 73 74 115 121 128 51 13 66 7 83 -36 30 -70 15 -218 -45 -450
-17 -66 -34 -154 -37 -196 l-6 -76 46 -26 c25 -15 60 -30 77 -33 l30 -6 0 148
c0 82 5 360 10 619 9 479 13 930 7 976 -2 14 -7 30 -11 37 -4 7 -4 21 -1 33 4
13 0 27 -11 40 -23 25 -14 32 59 44 59 10 62 11 65 40 7 86 11 95 42 95 21 0
30 -5 30 -16 0 -31 25 -7 40 39 14 43 18 47 48 47 22 0 32 -5 32 -15 0 -8 9
-15 20 -15 20 0 20 7 20 450 l0 450 -162 0 -163 -1 -180 -94z m-45 -284 c1
-61 2 -64 14 -42 13 23 14 23 19 5 5 -15 3 -135 -2 -193 -1 -8 -7 -11 -17 -7
-13 5 -15 2 -11 -15 3 -11 3 -27 0 -35 -9 -25 -30 -15 -39 19 l-8 32 -3 -32
c-5 -43 -25 -43 -22 0 3 32 -6 57 -20 57 -4 0 -12 -21 -18 -47 l-10 -48 -2 63
c0 34 0 63 1 65 1 1 -4 12 -10 24 -10 17 -9 22 5 27 13 6 15 19 10 86 -4 59
-1 84 9 97 23 30 34 -3 30 -89 -3 -70 -1 -78 15 -78 16 0 18 9 15 83 -2 45 1
93 6 107 9 24 10 24 24 6 9 -12 14 -45 14 -85z"></path>
<path d="M6440 3005 c0 -8 5 -15 10 -15 6 0 10 7 10 15 0 8 -4 15 -10 15 -5 0
-10 -7 -10 -15z"></path>
<path d="M6383 2948 c-1 -10 0 -18 2 -18 2 0 9 8 14 18 7 14 6 19 -3 19 -6 0
-13 -9 -13 -19z"></path>
<path d="M6441 2954 c0 -11 3 -14 6 -6 3 7 2 16 -1 19 -3 4 -6 -2 -5 -13z"></path>
<path d="M6351 2914 c0 -11 3 -14 6 -6 3 7 2 16 -1 19 -3 4 -6 -2 -5 -13z"></path>
<path d="M2586 1074 c-10 -27 -7 -56 7 -52 14 5 23 68 9 68 -6 0 -13 -7 -16
-16z"></path>
<path d="M2682 1045 c0 -16 2 -22 5 -12 2 9 2 23 0 30 -3 6 -5 -1 -5 -18z"></path>
<path d="M6143 871 c-18 -15 -23 -30 -23 -70 0 -50 1 -51 30 -51 l30 0 0 70
c0 39 -3 70 -7 70 -5 -1 -18 -9 -30 -19z"></path>
<path d="M6240 820 c0 -64 2 -71 23 -79 29 -11 35 5 36 87 l1 62 -30 0 -30 0
0 -70z"></path>
<path d="M6365 879 c-4 -6 -4 -31 0 -57 l8 -47 14 34 c20 48 1 108 -22 70z"></path>
<path d="M6481 874 c0 -11 3 -14 6 -6 3 7 2 16 -1 19 -3 4 -6 -2 -5 -13z"></path>
</g>
</svg>