 <svg version="1.0" xmlns="http://www.w3.org/2000/svg" viewBox="0 0 700.000000 423.000000" preserveAspectRatio="xMidYMid meet" id="mask">

<g transform="translate(0.000000,423.000000) scale(0.100000,-0.100000)">
<path d="M905 4117 c105 -62 409 -240 676 -395 l485 -282 140 0 139 0 108 -80
107 -80 81 0 82 0 -7 -447 c-14 -987 -17 -1381 -8 -1387 5 -3 4 -25 -3 -52 -8
-33 -9 -55 -1 -80 l11 -35 6 33 c8 50 16 58 58 58 l38 0 7 737 c6 526 5 738
-3 741 -6 2 -11 7 -11 11 0 4 718 6 1596 4 1241 -3 1600 -1 1611 9 11 9 16 9
23 -2 15 -24 0 -38 -38 -35 -20 1 -26 0 -13 -2 l24 -5 -6 -374 -7 -374 37 0
c46 0 77 -25 61 -49 -11 -18 1 -132 18 -175 5 -13 4 -17 -4 -13 -6 4 -13 -1
-15 -10 -3 -10 -5 1 -6 25 0 24 -6 53 -12 64 -8 16 -8 19 1 13 16 -10 2 57
-14 67 -26 18 -35 2 -13 -22 6 -8 2 -6 -11 5 -35 29 -42 8 -42 -126 0 -64 -3
-144 -6 -178 -7 -59 -6 -61 17 -61 13 -1 35 -7 49 -15 14 -8 28 -14 33 -15 4
0 8 46 9 103 1 86 2 93 7 43 5 -53 8 -57 20 -42 12 14 12 26 3 67 -14 60 -15
80 -3 61 7 -12 11 116 28 1081 l6 377 69 0 c67 0 74 2 257 95 l189 95 123 0
c168 0 199 6 199 36 l0 24 -162 0 -162 0 -186 -100 -187 -100 -73 0 -73 0 6
68 c4 37 7 102 7 145 l0 77 73 0 74 0 184 125 184 125 105 0 c58 0 129 3 158
6 l52 7 0 138 0 139 -182 0 c-101 0 -226 -3 -279 -6 l-96 -7 -171 -142 -170
-142 -159 -6 c-87 -4 -280 -7 -429 -7 -369 0 -604 -10 -604 -25 0 -7 10 -17
23 -23 l22 -11 -22 -7 c-30 -8 -29 -31 3 -77 21 -31 23 -41 13 -53 -9 -11 -9
-21 0 -40 6 -14 11 -41 11 -60 0 -27 -5 -37 -20 -41 -11 -3 -20 -14 -20 -24 0
-17 8 -19 64 -19 53 0 70 -4 93 -23 15 -13 36 -26 46 -30 15 -6 17 -23 17
-155 0 -82 -3 -197 -7 -255 l-6 -107 -724 0 -723 0 0 158 c0 203 10 352 23
352 6 0 24 12 40 28 25 24 37 27 112 31 l84 3 7 35 c4 19 2 38 -3 42 -19 12
-22 42 -9 84 15 47 17 107 4 107 -5 0 -6 5 -3 10 3 6 15 10 25 10 17 0 19 5
13 33 -3 17 -7 33 -8 35 -1 2 -260 -2 -576 -9 l-573 -11 -17 23 c-9 13 -57 76
-106 139 l-89 115 -155 3 -155 2 -69 70 -69 70 -320 0 -319 0 273 -205 273
-205 140 0 139 0 111 -106 c119 -113 136 -124 197 -124 71 0 70 2 70 -141 l0
-129 -71 0 -72 0 -107 85 -108 84 -153 7 -154 7 -550 335 c-302 184 -569 348
-592 364 -37 25 -50 28 -120 28 l-78 0 190 -113z m2604 -680 c18 -15 37 -27
42 -27 6 0 8 -100 7 -252 l-3 -253 -330 4 c-181 2 -331 5 -333 6 -1 1 0 113 4
249 6 220 9 246 24 246 9 0 27 11 40 25 21 22 32 25 124 28 56 2 167 3 247 2
143 -1 147 -2 178 -28z m2393 8 c16 -14 36 -25 44 -25 12 0 14 -39 12 -257
l-3 -258 -345 -6 c-190 -3 -348 -3 -351 0 -3 3 -4 122 -1 264 4 219 7 257 19
257 8 0 28 11 45 25 l30 25 260 0 260 0 30 -25z m175 -1347 c-3 -8 -6 -5 -6 6
-1 11 2 17 5 13 3 -3 4 -12 1 -19z"></path>
<path d="M4252 3790 c-12 -28 -22 -55 -22 -61 0 -6 -10 -25 -22 -41 -24 -35
-32 -88 -13 -88 8 0 11 -8 8 -19 -6 -22 13 -61 29 -61 6 0 8 11 5 26 -2 14 2
38 9 53 8 14 14 43 14 64 0 23 7 44 19 56 11 11 22 41 26 70 6 46 5 51 -12 51
-13 0 -26 -15 -41 -50z"></path>
<path d="M4364 3787 c3 -59 20 -103 31 -76 3 8 1 28 -5 43 -5 15 -10 41 -10
57 0 16 -4 29 -9 29 -5 0 -8 -24 -7 -53z"></path>
<path d="M4536 3807 c-8 -45 -2 -59 37 -82 44 -26 68 -56 62 -79 -2 -11 1 -39
8 -63 l11 -44 17 52 c17 51 17 52 -7 97 -14 26 -29 49 -34 52 -6 4 -16 26 -23
51 -10 36 -18 45 -39 47 -22 3 -26 -1 -32 -31z"></path>
<path d="M4616 3832 c-5 -8 33 -92 53 -115 6 -8 20 -17 31 -20 16 -4 17 -2 9
20 -5 14 -7 28 -4 32 2 5 -4 27 -15 50 -16 31 -26 41 -45 41 -13 0 -26 -3 -29
-8z"></path>
<path d="M4735 3830 c-12 -20 19 -65 48 -68 15 -2 27 1 27 7 0 6 -4 11 -10 11
-21 0 -9 20 15 26 14 3 25 12 25 20 0 17 -95 20 -105 4z"></path>
<path d="M4100 3790 c0 -44 14 -54 24 -16 3 13 9 31 12 40 4 12 0 16 -15 16
-18 0 -21 -6 -21 -40z"></path>
<path d="M4185 3819 c-4 -6 -5 -13 -2 -16 7 -7 27 6 27 18 0 12 -17 12 -25 -2z"></path>
<path d="M4220 3804 c-8 -16 -27 -42 -42 -58 -31 -33 -34 -46 -16 -64 14 -14
38 2 38 27 0 9 6 23 13 30 6 6 12 15 13 19 0 4 4 15 8 24 4 9 6 25 4 34 -2 13
-7 10 -18 -12z"></path>
<path d="M4136 3765 c-3 -8 -1 -15 4 -15 6 0 10 7 10 15 0 8 -2 15 -4 15 -2 0
-6 -7 -10 -15z"></path>
<path d="M4331 3768 c0 -7 4 -22 9 -33 7 -17 9 -15 9 13 1 17 -3 32 -9 32 -5
0 -10 -6 -9 -12z"></path>
<path d="M4799 3742 c-14 -9 -24 -23 -22 -29 3 -7 0 -13 -7 -13 -6 0 -8 -5 -5
-11 7 -10 65 46 65 63 0 11 -1 10 -31 -10z"></path>
<path d="M3970 3730 c0 -5 5 -10 10 -10 6 0 10 5 10 10 0 6 -4 10 -10 10 -5 0
-10 -4 -10 -10z"></path>
<path d="M4740 3731 c0 -5 5 -13 10 -16 6 -3 10 -2 10 4 0 5 -4 13 -10 16 -5
3 -10 2 -10 -4z"></path>
<path d="M4535 3719 c-8 -12 0 -22 20 -25 12 -2 12 2 5 17 -12 22 -16 23 -25
8z"></path>
<path d="M4110 3710 c-8 -5 -12 -11 -10 -14 3 -2 14 2 24 10 22 15 10 19 -14
4z"></path>
<path d="M4281 3707 c-7 -9 -11 -24 -9 -34 3 -16 5 -15 17 5 15 29 10 50 -8
29z"></path>
<path d="M4580 3702 c0 -5 7 -15 15 -22 8 -7 15 -8 15 -2 0 5 -7 15 -15 22 -8
7 -15 8 -15 2z"></path>
<path d="M3975 3691 c-3 -5 2 -22 10 -37 8 -16 15 -38 15 -48 0 -15 3 -17 11
-9 9 9 9 20 0 43 -6 18 -9 36 -6 40 3 4 -2 10 -10 14 -8 3 -17 1 -20 -3z"></path>
<path d="M4300 3682 c0 -4 5 -13 12 -20 8 -8 8 -15 -1 -26 -8 -10 -9 -21 -4
-31 9 -15 11 -15 22 -1 7 9 11 23 7 31 -3 9 -2 13 4 10 14 -9 12 19 -2 33 -14
14 -38 16 -38 4z"></path>
<path d="M4510 3675 c0 -9 6 -12 15 -9 8 4 15 7 15 9 0 2 -7 5 -15 9 -9 3 -15
0 -15 -9z"></path>
<path d="M4721 3648 c-26 -9 -20 -21 17 -33 15 -4 22 -2 22 7 0 26 -14 36 -39
26z"></path>
<path d="M4551 3620 c0 -33 1 -34 10 -11 6 16 6 28 -1 35 -7 7 -10 -1 -9 -24z"></path>
<path d="M4592 3630 c0 -14 2 -19 5 -12 2 6 2 18 0 25 -3 6 -5 1 -5 -13z"></path>
<path d="M4770 3626 c0 -8 5 -18 10 -21 6 -3 10 3 10 14 0 12 -4 21 -10 21 -5
0 -10 -6 -10 -14z"></path>
<path d="M4137 3623 c-10 -9 -9 -43 2 -43 5 0 11 6 14 13 6 17 -7 40 -16 30z"></path>
<path d="M4330 3569 c0 -5 5 -7 10 -4 6 3 10 8 10 11 0 2 -4 4 -10 4 -5 0 -10
-5 -10 -11z"></path>
<path d="M4760 3564 c0 -8 5 -12 10 -9 6 4 8 11 5 16 -9 14 -15 11 -15 -7z"></path>
<path d="M4526 3552 c-2 -4 -1 -14 5 -22 7 -12 9 -10 9 8 0 23 -5 28 -14 14z"></path>
<path d="M2883 2833 c9 -2 25 -2 35 0 9 3 1 5 -18 5 -19 0 -27 -2 -17 -5z"></path>
<path d="M2968 2833 c7 -3 16 -2 19 1 4 3 -2 6 -13 5 -11 0 -14 -3 -6 -6z"></path>
<path d="M3053 2833 c9 -2 25 -2 35 0 9 3 1 5 -18 5 -19 0 -27 -2 -17 -5z"></path>
<path d="M3187 2833 c18 -2 50 -2 70 0 21 2 7 4 -32 4 -38 0 -55 -2 -38 -4z"></path>
<path d="M3407 2833 c18 -2 50 -2 70 0 21 2 7 4 -32 4 -38 0 -55 -2 -38 -4z"></path>
<path d="M3563 2833 c23 -4 27 -9 27 -36 0 -18 -7 -356 -15 -752 -8 -396 -15
-751 -15 -788 l0 -69 -192 6 c-259 8 -261 8 -275 7 -7 -1 -13 -8 -13 -16 0 -8
-13 -21 -30 -30 -16 -9 -30 -21 -30 -27 0 -6 -6 -19 -14 -27 -18 -20 -5 -104
24 -166 11 -22 27 -69 36 -105 10 -39 24 -70 36 -79 17 -12 20 -22 16 -76 l-4
-63 111 -6 c60 -3 252 -11 425 -16 173 -5 359 -13 413 -16 l97 -6 0 25 c0 21
-5 25 -46 31 -26 3 -115 6 -199 6 -83 0 -155 3 -159 7 -4 5 84 17 196 28 l203
20 3 73 c2 49 -9 141 -33 284 -19 116 -35 237 -35 269 l0 58 -157 -5 -158 -5
-34 30 -34 30 9 619 9 619 39 36 c36 34 43 37 100 37 34 0 114 -5 179 -10 110
-8 120 -11 157 -40 l39 -31 -5 -207 c-2 -114 -7 -390 -10 -614 -4 -276 -10
-408 -17 -408 -6 0 -18 -7 -28 -16 -17 -15 -17 -17 2 -43 37 -51 99 -264 99
-343 0 -17 2 -29 5 -26 6 6 34 1354 35 1630 l0 156 -117 7 c-329 19 -298 22
216 24 294 0 532 -1 529 -4 -4 -5 -368 -34 -424 -35 l-21 0 -6 -652 c-4 -359
-10 -803 -14 -985 l-6 -333 64 0 c35 0 89 -7 119 -15 30 -8 58 -15 63 -15 4 0
7 27 7 60 0 67 7 60 -95 96 -64 23 -95 54 -95 96 0 22 -7 37 -20 46 -11 7 -20
21 -20 32 0 54 91 84 310 100 85 7 158 14 161 16 3 2 14 31 24 66 9 34 20 69
23 77 4 12 0 12 -16 -3 -20 -18 -33 -18 -154 -12 -196 11 -224 17 -260 57
l-32 34 3 200 c1 110 6 378 10 597 l8 396 29 35 c16 20 34 38 41 40 6 3 84 11
173 17 161 12 162 12 207 -12 l46 -23 -7 -435 c-3 -239 -9 -514 -12 -610 l-6
-175 38 -21 c34 -19 43 -20 74 -9 32 11 35 16 41 61 7 57 2 84 -15 84 -7 0
-22 10 -34 23 l-22 23 20 22 c11 12 20 26 20 33 0 6 8 9 18 7 18 -5 19 7 25
205 4 116 7 316 7 446 0 130 3 293 7 363 l6 127 31 4 c17 2 -365 4 -849 4
-484 0 -868 -2 -852 -4z"></path>
<path d="M5348 2833 c12 -2 32 -2 45 0 12 2 2 4 -23 4 -25 0 -35 -2 -22 -4z"></path>
<path d="M5527 2833 c18 -2 50 -2 70 0 21 2 7 4 -32 4 -38 0 -55 -2 -38 -4z"></path>
<path d="M5723 2833 c9 -2 25 -2 35 0 9 3 1 5 -18 5 -19 0 -27 -2 -17 -5z"></path>
<path d="M5823 2833 c15 -2 39 -2 55 0 15 2 2 4 -28 4 -30 0 -43 -2 -27 -4z"></path>
<path d="M5994 1576 c-3 -8 -4 -28 -2 -46 3 -28 5 -30 21 -18 13 10 16 21 11
46 -7 33 -21 42 -30 18z"></path>
<path d="M5990 1460 c0 -14 7 -20 22 -20 20 0 21 1 3 20 -10 11 -20 20 -22 20
-1 0 -3 -9 -3 -20z"></path>
<path d="M5990 1376 c0 -25 3 -26 50 -26 43 0 50 3 50 20 0 13 -7 20 -19 20
-10 0 -33 3 -50 6 -28 6 -31 4 -31 -20z"></path>
<path d="M5135 1358 c-19 -51 -45 -133 -45 -140 0 -4 11 -8 25 -8 17 0 25 6
25 18 0 9 9 32 20 50 11 18 20 41 20 52 0 24 -38 47 -45 28z"></path>
<path d="M5990 1292 c0 -15 7 -18 41 -16 22 1 43 4 46 7 13 13 -11 27 -48 27
-31 0 -39 -4 -39 -18z"></path>
<path d="M5990 1210 c0 -5 14 -10 30 -10 17 0 30 5 30 10 0 6 -13 10 -30 10
-16 0 -30 -4 -30 -10z"></path>
<path d="M2700 1057 c0 -33 2 -34 46 -41 76 -10 76 -10 72 32 l-3 37 -57 3
-58 3 0 -34z"></path>
<path d="M4879 853 c-1 -5 -1 -12 0 -17 1 -4 -4 -14 -10 -22 -9 -11 -9 -17 0
-28 8 -9 11 -41 10 -83 l-3 -68 58 -11 c80 -16 81 -24 3 -24 -65 0 -67 -1 -67
-25 0 -25 1 -25 79 -25 75 0 80 1 83 23 2 12 -2 42 -9 66 -17 57 -16 110 2
141 27 47 20 57 -48 69 -75 13 -97 14 -98 4z"></path>
<path d="M5870 811 c-33 -6 -35 -8 -38 -50 -3 -39 -1 -43 15 -36 10 4 37 10
61 12 50 7 54 11 46 52 -7 33 -13 35 -84 22z"></path>
<path d="M5788 790 c-4 -14 -8 -43 -7 -65 0 -36 1 -38 10 -15 6 13 9 42 7 65
-3 35 -4 37 -10 15z"></path>
<path d="M6043 784 c-14 -30 -9 -44 13 -44 9 0 14 11 14 35 0 42 -10 45 -27 9z"></path>
<path d="M5607 770 c57 -42 73 -71 73 -129 0 -44 2 -49 20 -44 18 5 20 14 20
104 l0 99 -77 0 -77 0 41 -30z"></path>
<path d="M6120 741 c0 -8 52 -23 59 -16 1 2 0 8 -4 14 -8 13 -55 15 -55 2z"></path>
<path d="M6242 723 c2 -10 14 -19 26 -21 19 -3 23 1 20 15 -2 10 -14 19 -26
21 -19 3 -23 -1 -20 -15z"></path>
<path d="M5090 621 c-6 -15 -8 -39 -5 -54 l7 -25 161 -4 c89 -2 165 -1 169 2
4 3 4 24 1 47 l-5 41 -127 6 c-69 4 -140 8 -158 10 -26 4 -33 0 -43 -23z"></path>
<path d="M5480 580 l0 -50 48 0 c42 0 51 4 71 30 14 20 20 38 16 50 -5 17 -16
20 -71 20 l-64 0 0 -50z"></path>
<path d="M5682 582 c-8 -5 -10 -16 -6 -28 14 -35 44 -41 44 -7 0 13 -2 13 -17
2 -15 -13 -15 -12 -5 8 18 34 13 43 -16 25z"></path>
<path d="M6499 476 c-2 -47 -2 -107 -1 -135 3 -44 8 -52 40 -74 21 -14 49 -28
65 -31 25 -6 27 -4 27 27 0 18 5 38 10 43 7 7 10 47 8 99 l-3 89 -35 9 c-19 5
-46 17 -60 26 -14 10 -30 21 -36 24 -9 5 -13 -18 -15 -77z"></path>
<path d="M5600 539 c0 -5 5 -7 10 -4 6 3 10 8 10 11 0 2 -4 4 -10 4 -5 0 -10
-5 -10 -11z"></path>
<path d="M6360 437 c0 -22 27 -57 43 -57 4 0 7 18 7 40 0 36 -2 40 -25 40 -20
0 -25 -5 -25 -23z"></path>
</g>
</svg>