 <svg version="1.0" xmlns="http://www.w3.org/2000/svg" id="mask" viewBox="0 0 700.000000 423.000000" preserveAspectRatio="xMidYMid meet">

<g transform="translate(0.000000,423.000000) scale(0.100000,-0.100000)">
<path d="M1848 4028 c-3 -196 -2 -204 20 -237 28 -43 28 -61 -4 -195 l-27
-110 21 -126 c12 -69 26 -174 32 -235 6 -60 18 -164 26 -230 8 -67 14 -145 14
-175 0 -31 5 -71 10 -90 6 -19 13 -59 16 -89 2 -30 9 -62 15 -72 12 -23 0 -49
-35 -77 -25 -19 -55 -102 -63 -177 -4 -37 20 -232 30 -242 3 -2 17 -1 31 3
l27 6 -7 113 c-8 133 -2 173 31 209 23 24 29 26 118 26 89 0 94 -1 120 -28 15
-15 31 -42 38 -59 10 -31 13 -32 72 -35 54 -3 62 -5 62 -23 0 -19 -8 -20 -125
-25 l-124 -5 -9 -32 c-7 -22 -5 -46 4 -77 11 -38 18 -46 37 -46 22 0 23 3 20
53 l-3 52 40 0 40 0 -2 -47 c-3 -45 -1 -48 22 -48 24 0 25 3 25 55 l0 55 65 0
c51 0 65 -3 65 -15 0 -9 -9 -15 -25 -15 -22 0 -25 -4 -25 -35 0 -19 1 -35 3
-35 1 0 34 -3 72 -6 39 -3 76 -7 84 -10 7 -2 101 5 210 16 197 21 310 37 280
39 -14 1 -15 9 -8 50 4 27 7 101 7 163 -1 124 29 343 83 593 4 22 9 76 10 120
2 69 3 62 10 -55 9 -134 53 -356 85 -425 7 -16 18 -41 24 -55 15 -37 30 -59
75 -105 51 -53 113 -98 124 -90 6 3 13 0 18 -7 9 -14 12 -15 115 -24 39 -3 74
-1 86 5 11 6 35 12 53 13 19 1 37 7 42 13 4 6 10 5 17 -5 5 -8 10 -10 10 -4 0
7 20 15 45 19 25 3 43 10 40 16 -4 5 0 9 7 10 7 0 23 2 36 3 13 2 22 -3 22
-11 0 -18 7 -16 32 7 12 10 25 17 30 14 4 -3 8 5 8 17 0 17 5 20 25 17 14 -3
25 -1 25 3 0 5 7 9 15 9 8 0 15 5 15 10 0 6 8 10 18 10 22 0 72 -22 72 -32 0
-5 7 -8 15 -8 8 0 23 -9 32 -20 13 -15 19 -17 26 -7 6 8 7 4 4 -10 -3 -14 0
-23 7 -23 14 0 72 -94 81 -133 4 -15 11 -25 15 -22 4 3 11 -11 15 -31 3 -20
15 -45 25 -57 11 -11 17 -24 14 -29 -3 -4 4 -8 14 -8 16 0 21 -10 26 -50 4
-30 11 -48 17 -44 6 4 9 -121 8 -370 l-1 -376 -22 -1 c-20 0 -20 -1 -1 -9 11
-5 23 -9 28 -9 4 -1 8 187 8 417 1 229 4 612 8 850 l6 432 -140 1 c-273 2
-954 25 -962 32 -2 2 2 142 8 311 10 257 10 310 -1 332 -11 20 -12 29 -2 44 7
11 12 27 12 35 0 8 6 15 13 15 8 0 9 3 1 8 -12 8 -13 40 -1 59 4 6 4 14 -1 16
-4 3 -7 58 -6 123 1 93 -2 113 -11 100 -16 -21 -20 -20 -22 5 -1 12 -9 29 -18
39 -15 17 -14 18 32 24 26 3 271 24 543 46 272 22 510 43 528 46 l32 5 0 79 0
80 -148 0 -147 0 0 -32 c0 -22 -4 -32 -13 -30 -10 2 -11 -7 -6 -33 6 -32 4
-35 -17 -36 l-24 -1 25 -8 c14 -4 18 -8 10 -9 -59 -4 -627 -54 -760 -66 -91
-9 -175 -20 -187 -25 -22 -9 -23 -15 -24 -132 0 -68 -4 -114 -8 -104 -6 15
-11 6 -24 -40 -15 -55 -26 -164 -46 -464 -8 -123 -8 -122 -10 95 -5 597 -28
829 -87 872 -23 17 -964 19 -964 2 0 -6 5 -7 10 -4 6 3 10 2 10 -3 0 -6 -6
-12 -14 -15 -19 -8 -13 -61 9 -84 17 -16 18 -17 12 0 -3 9 -2 17 4 17 5 0 12
-7 15 -15 4 -9 13 -14 22 -13 8 2 17 -2 19 -9 3 -7 -4 -10 -19 -6 -18 5 -21 3
-11 -7 7 -8 38 -14 75 -14 35 -1 70 -4 78 -6 8 -3 14 0 12 8 -1 7 8 12 20 12
16 0 19 -3 10 -9 -8 -4 9 -8 40 -8 108 0 183 -36 229 -110 18 -29 25 -32 87
-38 88 -10 127 -27 152 -67 21 -33 21 -46 4 -125 l-6 -33 56 0 c32 0 56 -4 56
-10 0 -7 -20 -9 -58 -4 -49 5 -60 4 -65 -10 -5 -12 -21 -16 -74 -16 -112 0
-113 -1 -113 -80 l0 -68 76 -4 c71 -3 78 -6 104 -35 33 -37 49 -111 31 -149
-10 -23 -9 -24 27 -25 69 -1 83 -18 16 -18 -45 -1 -63 -5 -68 -16 -4 -12 -25
-15 -96 -15 l-90 0 0 -81 0 -81 63 6 c73 8 109 -2 132 -38 24 -36 25 -119 2
-144 -17 -19 -17 -19 20 -26 21 -3 52 -6 68 -6 23 0 27 -3 15 -10 -8 -5 -36
-10 -62 -10 -26 0 -50 -4 -53 -10 -3 -5 -46 -10 -95 -10 l-89 0 -3 -92 -3 -93
-60 -6 c-32 -4 -61 -12 -63 -18 -4 -13 -38 -15 -46 -2 -3 4 -23 11 -45 15 -44
7 -51 18 -51 81 0 36 -5 48 -30 68 -16 14 -39 28 -50 32 -11 3 -20 10 -20 15
0 5 -6 7 -13 4 -8 -3 -20 10 -30 31 l-17 35 40 0 c22 0 40 5 40 10 0 6 -18 10
-41 10 -30 0 -45 6 -59 22 -24 30 -17 38 31 38 52 0 79 14 72 38 -2 11 5 37
16 58 21 39 25 89 11 134 -4 14 -8 21 -9 17 -1 -4 -20 3 -43 17 -24 13 -61 28
-83 32 -76 13 -112 33 -119 65 -3 16 -3 35 0 44 8 20 65 36 156 42 l76 5 6 52
c3 28 8 75 12 104 5 47 3 54 -18 71 -12 11 -69 34 -125 52 -56 18 -100 36 -98
39 2 4 -6 13 -17 21 -20 13 -85 67 -115 96 -11 9 -10 14 0 25 9 8 11 21 7 33
-4 11 -5 26 -3 33 3 6 1 12 -5 12 -5 0 -12 9 -15 20 -3 11 -1 20 4 20 13 0 11
17 -4 32 -8 7 -12 20 -9 30 2 10 0 30 -6 46 -6 18 -6 35 0 45 5 9 5 17 0 17
-5 0 -15 11 -22 25 -7 14 -22 25 -31 25 -17 0 -19 -15 -21 -202z m340 -1091
c3 -16 1 -17 -17 -7 -25 13 -28 33 -4 28 10 -2 19 -11 21 -21z"></path>
<path d="M2067 4216 c-4 -10 -5 -21 -2 -24 9 -9 17 6 13 25 -3 17 -4 17 -11
-1z"></path>
<path d="M1940 4090 c0 -5 5 -10 11 -10 5 0 7 5 4 10 -3 6 -8 10 -11 10 -2 0
-4 -4 -4 -10z"></path>
<path d="M2598 3650 c-15 -24 -28 -26 -28 -5 0 12 -14 15 -70 15 -70 0 -70 0
-70 -27 0 -16 -3 -52 -6 -80 l-7 -53 67 0 c40 0 66 4 66 11 0 6 7 17 15 25 13
14 15 13 15 -9 0 -16 7 -26 20 -30 19 -5 20 0 20 84 0 49 -2 89 -5 89 -3 0
-10 -9 -17 -20z"></path>
<path d="M2370 3621 c0 -22 -4 -43 -10 -46 -5 -3 -10 -34 -10 -67 l0 -62 20
22 c17 18 20 35 20 107 0 50 -4 85 -10 85 -5 0 -10 -18 -10 -39z"></path>
<path d="M2430 3163 l0 -78 95 -3 95 -3 0 79 0 80 -95 1 -95 2 0 -78z"></path>
<path d="M2368 3185 c-10 -62 -9 -113 1 -119 14 -9 19 33 12 99 -7 59 -7 60
-13 20z"></path>
<path d="M2355 3039 c-4 -6 -5 -12 -2 -15 2 -3 7 2 10 11 7 17 1 20 -8 4z"></path>
<path d="M2508 2823 c7 -3 16 -2 19 1 4 3 -2 6 -13 5 -11 0 -14 -3 -6 -6z"></path>
<path d="M2564 2821 c3 -4 -21 -11 -53 -14 -96 -10 -95 -9 -91 -134 0 -5 11
-6 23 -4 12 2 57 3 100 2 l77 -1 0 80 0 80 -31 0 c-16 0 -28 -4 -25 -9z"></path>
<path d="M2012 2255 c-17 -38 -4 -235 16 -235 8 0 12 -6 8 -15 -4 -11 1 -15
19 -15 24 0 25 3 25 64 0 36 4 76 9 89 15 40 51 67 88 67 39 0 44 19 13 50
-16 16 -33 20 -93 20 -69 0 -75 -2 -85 -25z"></path>
</g>
</svg>