 <svg version="1.0" xmlns="http://www.w3.org/2000/svg" id="mask" viewBox="0 0 700.000000 423.000000" preserveAspectRatio="xMidYMid meet">

<g transform="translate(0.000000,423.000000) scale(0.100000,-0.100000)">
<path d="M3890 1186 c0 -2 53 -14 118 -26 129 -24 185 -46 190 -72 2 -10 -2
-18 -7 -18 -6 0 -9 -17 -7 -37 2 -21 -1 -41 -6 -44 -5 -3 57 -19 139 -35 l148
-29 -3 -37 c-1 -20 2 -39 8 -43 6 -4 10 -56 10 -130 0 -70 4 -126 10 -130 5
-3 132 -30 282 -60 1710 -340 2194 -435 2218 -435 6 0 10 48 10 123 l0 123
-147 27 c-82 14 -272 49 -423 77 -151 27 -372 66 -490 86 -118 19 -352 60
-520 91 -168 31 -406 74 -530 97 l-225 41 -3 71 -3 70 -52 10 -52 9 -3 62 c-3
55 -5 62 -25 65 -17 2 -23 11 -25 40 -4 42 10 38 -191 68 -73 11 -136 18 -139
15 -3 -3 6 -5 19 -6 13 0 18 -3 12 -6 -7 -2 -73 5 -148 16 -136 21 -165 24
-165 17z"></path>
<path d="M4128 1173 c7 -3 16 -2 19 1 4 3 -2 6 -13 5 -11 0 -14 -3 -6 -6z"></path>
</g>
</svg>