 <svg version="1.0" xmlns="http://www.w3.org/2000/svg" viewBox="0 0 700.000000 700.000000" preserveAspectRatio="xMidYMid meet" id="mask">
<g transform="translate(0.000000,700.000000) scale(0.100000,-0.100000)">
<path d="M1970 5290 c-164 -19 -324 -94 -419 -196 -48 -51 -64 -77 -81 -130
-21 -70 -25 -114 -12 -129 12 -13 52 -128 52 -147 0 -9 -7 -18 -15 -22 -19 -7
-19 -31 1 -90 13 -38 24 -51 49 -62 24 -10 37 -26 54 -66 62 -145 381 -955
381 -965 0 -14 0 -14 -155 -38 -137 -21 -171 -35 -177 -69 -14 -70 8 -88 125
-100 32 -4 68 -13 80 -20 28 -18 92 -35 186 -50 l74 -11 174 -485 c95 -266
171 -490 169 -496 -5 -12 -135 -26 -239 -24 l-58 1 -16 -39 c-13 -34 -28 -46
-111 -93 l-97 -55 0 -49 0 -50 -75 -12 c-41 -6 -96 -14 -122 -18 -37 -5 -62
-18 -113 -58 -65 -52 -79 -79 -53 -105 7 -7 22 -12 33 -12 12 0 25 -3 28 -7 4
-3 -37 -52 -91 -107 -100 -103 -182 -220 -166 -236 5 -5 132 -25 282 -45 262
-34 276 -35 327 -20 48 13 996 436 1020 455 6 4 24 12 40 18 17 5 39 13 50 18
17 6 17 3 -6 -22 -29 -34 -74 -117 -83 -156 -5 -23 -2 -28 26 -37 60 -21 74
-15 98 40 12 28 25 47 29 43 5 -5 36 -173 70 -374 34 -201 66 -368 70 -373 11
-11 139 -37 185 -37 21 0 65 12 97 26 56 25 59 29 59 63 0 19 -21 152 -46 294
-25 143 -44 268 -42 279 2 17 71 46 389 169 l387 148 331 46 c183 26 337 45
344 42 8 -3 30 -108 61 -293 26 -159 50 -297 52 -306 5 -15 49 -32 194 -74 9
-2 39 -19 69 -38 46 -30 56 -33 82 -24 16 5 29 15 29 21 0 7 -29 183 -65 392
-36 209 -65 383 -65 387 0 3 14 9 30 13 23 5 29 11 26 23 -5 15 -46 210 -46
217 0 1 -20 0 -44 -2 -59 -7 -75 21 -23 40 5 1 0 41 -11 87 -18 77 -161 866
-165 915 -2 19 6 20 148 27 83 5 177 14 210 20 l60 13 3 58 c2 31 -1 57 -5 57
-4 0 -144 12 -312 26 l-303 25 -57 -22 c-31 -12 -62 -27 -69 -33 -17 -12 -11
-60 24 -196 13 -52 24 -107 24 -121 0 -14 6 -39 14 -55 28 -58 74 -170 91
-219 9 -27 31 -79 49 -115 60 -117 96 -219 96 -269 0 -71 -47 -156 -142 -256
-54 -57 -87 -85 -102 -85 -19 0 -29 -15 -61 -87 -21 -49 -48 -98 -61 -110 -29
-27 -31 -16 -5 29 10 18 31 69 46 114 l29 81 -29 37 c-32 42 -41 37 -51 -31
-3 -24 -10 -43 -14 -43 -4 0 -10 -7 -14 -15 -3 -8 0 -14 7 -12 17 3 20 -35 7
-82 -9 -36 -13 -39 -33 -32 -19 7 -21 15 -18 47 5 47 6 71 3 196 -2 88 -4 98
-24 109 -21 11 -21 11 -15 -72 3 -46 3 -100 -2 -119 -7 -32 -8 -28 -15 40 -5
41 -8 108 -7 148 1 75 -1 78 -43 62 -25 -9 -25 -9 -10 -52 15 -42 21 -134 10
-146 -3 -3 -6 13 -6 36 0 23 -8 66 -17 97 -14 46 -21 55 -40 55 l-24 0 5 -115
c5 -117 -7 -156 -20 -68 -5 38 -9 44 -15 28 -7 -19 -8 -19 -8 -1 -1 11 -12 38
-26 62 -17 29 -21 44 -13 46 17 6 -8 114 -33 139 -24 24 -44 25 -34 2 4 -10
11 -41 15 -70 5 -28 11 -57 15 -62 3 -6 2 -11 -3 -11 -12 0 -32 46 -32 76 0
47 -46 109 -86 116 -13 2 -18 -4 -19 -22 -4 -83 -3 -81 -30 -68 -14 6 -28 22
-31 35 -4 13 -10 23 -15 23 -4 0 -24 14 -43 31 -21 18 -40 28 -48 23 -6 -4
-44 -7 -84 -6 -42 2 -75 -2 -79 -8 -4 -6 -21 -10 -38 -9 -111 3 -307 -9 -340
-21 -48 -18 -58 -6 -44 54 8 35 6 55 -10 107 -18 58 -20 83 -15 254 2 105 9
195 13 201 5 6 33 15 62 18 80 11 99 27 95 84 l-3 47 -72 3 c-45 2 -75 8 -83
16 -13 17 -15 257 -1 301 5 17 19 52 30 79 19 43 20 51 7 58 -20 11 -63 155
-116 383 -50 218 -218 884 -226 896 -12 20 -282 139 -315 139 -11 0 -36 8 -57
19 -33 16 -143 45 -373 95 -71 16 -282 37 -339 34 -14 0 -54 -4 -90 -8z m-193
-1946 c8 -21 -13 -42 -28 -27 -13 13 -5 43 11 43 6 0 13 -7 17 -16z m3117
-125 c-3 -5 -10 -7 -15 -3 -5 3 -7 10 -3 15 3 5 10 7 15 3 5 -3 7 -10 3 -15z
m-1946 -192 c4 -22 -27 -35 -38 -16 -10 15 7 42 24 36 6 -2 12 -11 14 -20z
m1342 -595 c-7 -3 -16 2 -21 9 -16 25 -9 32 12 13 13 -12 16 -20 9 -22z
m-1077 -306 c6 -16 -16 -40 -26 -29 -4 3 -7 15 -7 25 0 21 25 24 33 4z m-1037
-21 c4 -8 3 -23 0 -32 -6 -15 -8 -15 -23 -1 -16 17 -12 48 7 48 6 0 13 -7 16
-15z m1534 -394 c0 -27 -19 -36 -37 -18 -18 18 -9 37 18 37 12 0 19 -7 19 -19z
m-1740 -272 c0 -24 -23 -21 -28 4 -2 10 3 17 12 17 10 0 16 -9 16 -21z"></path>
<path d="M4040 4521 c0 -5 9 -19 20 -32 22 -28 28 -6 6 24 -14 18 -26 22 -26
8z"></path>
<path d="M4105 2540 c3 -6 19 -17 36 -25 26 -14 29 -14 29 0 0 9 -12 20 -26
25 -33 13 -47 13 -39 0z"></path>
<path d="M4430 2402 c0 -25 16 -37 23 -18 3 8 -1 20 -9 26 -11 10 -14 9 -14
-8z"></path>
<path d="M4414 2326 c-4 -11 1 -25 15 -39 20 -21 21 -21 21 -2 0 11 -7 29 -15
39 -13 18 -15 18 -21 2z"></path>
<path d="M4680 2243 c0 -41 3 -54 10 -43 13 20 13 87 0 95 -6 4 -10 -16 -10
-52z"></path>
<path d="M4796 2110 c-22 -56 -19 -65 5 -11 11 24 18 46 15 48 -2 2 -11 -14
-20 -37z"></path>
</g>
</svg>