 <svg version="1.0" xmlns="http://www.w3.org/2000/svg" id="mask" viewBox="0 0 700.000000 700.000000" preserveAspectRatio="xMidYMid meet">

<g transform="translate(0.000000,700.000000) scale(0.100000,-0.100000)">
<path d="M2430 2758 c0 -263 2 -478 4 -478 3 0 16 4 30 10 19 7 26 17 26 35
l0 25 200 0 200 0 0 -24 c0 -25 16 -36 52 -36 21 0 21 1 17 470 l-4 470 -110
1 c-60 1 -179 2 -262 3 l-153 1 0 -477z m69 10 c0 -40 -3 -67 -6 -60 -2 6 -11
12 -19 12 -8 0 -14 5 -14 10 0 6 6 9 13 8 14 -3 11 65 -4 70 -9 4 11 31 24 32
4 0 7 -33 6 -72z m-19 -78 c0 -5 -5 -10 -11 -10 -5 0 -7 5 -4 10 3 6 8 10 11
10 2 0 4 -4 4 -10z"></path>
</g>
</svg>