 <svg version="1.0" xmlns="http://www.w3.org/2000/svg" id="mask" viewBox="0 0 700.000000 700.000000" preserveAspectRatio="xMidYMid meet">

<g transform="translate(0.000000,700.000000) scale(0.100000,-0.100000)">
<path d="M1034 5741 c-2 -2 -4 -163 -4 -358 l0 -353 -515 0 -515 0 0 -980 0
-980 253 -2 252 -3 3 -489 c2 -377 5 -492 15 -498 9 -6 9 -8 -1 -8 -20 0 -14
-168 6 -192 8 -9 11 -21 8 -27 -4 -5 2 -15 13 -20 25 -14 41 -14 41 -1 0 6 -6
10 -14 10 -8 0 -18 5 -22 11 -4 7 0 9 14 5 33 -11 72 3 72 26 0 11 7 27 16 35
14 15 14 17 -2 26 -12 7 -23 6 -36 -2 -20 -13 -24 -1 -6 17 9 9 8 15 -8 26
-17 13 -17 15 -2 21 9 4 25 1 35 -5 17 -11 17 -11 0 -6 -12 4 -17 2 -15 -6 3
-8 26 -14 59 -16 41 -1 50 0 37 8 -26 16 -22 29 6 24 20 -3 23 -1 19 15 -3 11
-11 17 -18 15 -7 -3 -16 -1 -20 5 -3 6 1 11 10 11 23 0 13 23 -11 26 -10 2
-32 5 -49 7 -42 6 -66 18 -59 29 4 5 10 5 17 0 7 -6 23 -10 37 -11 14 -1 42
-3 62 -4 31 -2 37 -5 32 -20 -4 -11 -1 -17 8 -15 7 2 12 -3 10 -11 -2 -9 4
-12 16 -9 15 4 18 0 17 -23 -2 -28 -1 -29 18 -12 19 17 19 17 13 -7 -7 -24 -6
-24 8 -6 19 23 20 48 4 64 -8 8 -8 15 2 26 7 9 10 23 6 31 -10 26 13 16 27
-12 l14 -26 12 36 c7 19 10 61 7 91 -2 31 0 58 5 61 10 7 12 -4 10 -50 -1 -21
1 -26 7 -17 7 11 10 11 15 -2 4 -9 3 -16 -2 -16 -13 0 -24 -72 -12 -79 5 -4 9
-13 9 -21 -2 -32 2 -50 13 -50 5 0 8 4 5 9 -4 5 -2 20 3 33 5 15 5 31 0 41 -6
9 -8 17 -5 17 13 0 26 -41 18 -57 -6 -12 -4 -27 8 -45 15 -25 18 -26 36 -14
16 13 21 12 37 -1 9 -9 17 -22 17 -30 0 -11 4 -11 20 -1 11 7 16 14 10 16 -13
5 -13 32 1 32 5 0 7 -6 3 -13 -5 -9 -4 -9 6 0 7 6 19 9 26 6 9 -3 19 7 28 28
l14 34 0 -48 c-1 -33 4 -53 16 -65 17 -16 17 -13 11 60 -4 43 -3 78 1 78 5 0
9 -17 10 -37 1 -52 11 -133 18 -140 9 -9 18 45 11 68 -4 12 -3 24 2 28 6 3 13
43 17 88 6 76 5 82 -11 76 -14 -5 -13 -1 4 16 21 20 29 62 25 131 0 8 3 17 7
20 4 3 18 49 30 102 12 54 27 101 33 104 7 4 8 2 4 -5 -4 -7 -17 -53 -28 -104
-11 -51 -22 -102 -25 -114 -5 -23 -3 -23 81 -23 l86 0 27 57 c33 69 32 67 37
62 3 -2 -6 -27 -20 -54 l-24 -50 39 -3 40 -3 6 -53 c4 -28 5 -66 2 -84 -6 -34
1 -40 22 -20 10 11 11 9 5 -7 -4 -11 -4 -17 0 -14 4 4 9 28 12 55 5 51 14 73
14 33 0 -22 3 -20 40 20 31 34 38 47 28 54 -10 6 -9 8 3 4 26 -8 111 110 102
142 -3 12 -1 21 6 21 6 0 11 -6 11 -12 1 -16 30 22 30 38 0 16 70 94 84 94 6
-1 2 -8 -9 -18 -31 -26 -67 -81 -62 -95 2 -6 -6 -19 -17 -28 -23 -18 -66 -86
-47 -75 6 4 11 4 11 0 0 -8 -49 -54 -55 -51 -8 4 -100 -119 -122 -164 -25 -51
-28 -63 -13 -54 15 9 12 -8 -5 -31 -17 -22 -19 -44 -5 -44 6 0 10 8 10 18 0
13 2 14 9 4 6 -10 11 -5 20 16 7 16 11 36 9 43 -1 8 1 14 6 14 4 0 18 19 30
43 l22 43 0 -34 c0 -23 -4 -33 -12 -30 -12 4 -37 -54 -29 -67 7 -12 -36 -56
-62 -64 -14 -5 -23 -15 -23 -27 0 -11 5 -17 10 -14 6 3 10 13 10 21 0 8 4 14
9 14 15 0 23 -18 11 -25 -5 -3 -10 -19 -10 -36 0 -24 4 -29 24 -29 24 0 65 50
70 86 1 9 8 19 15 23 7 5 13 14 14 22 2 8 10 25 20 39 9 13 17 30 17 36 0 14
38 49 46 41 3 -3 -4 -14 -15 -24 -12 -9 -21 -25 -21 -35 0 -9 -5 -20 -10 -23
-19 -12 -53 -89 -41 -93 18 -6 12 -20 -10 -24 -12 -2 -28 -13 -36 -24 -13 -20
-12 -22 17 -26 29 -4 33 -1 56 44 34 66 44 59 12 -9 -20 -42 -2 -48 25 -8 15
22 27 33 27 24 0 -9 -7 -22 -15 -29 -8 -7 -12 -16 -9 -21 9 -16 49 35 62 79 8
24 16 41 19 38 3 -3 2 -18 -2 -33 -5 -15 -7 -35 -6 -45 1 -9 -3 -19 -9 -23 -5
-3 -10 -10 -10 -16 0 -14 59 -7 64 8 3 7 10 13 15 13 6 0 8 -7 5 -15 -5 -12
14 -14 128 -14 l134 1 17 62 c9 33 21 90 26 126 5 36 19 91 31 123 l21 57 66
0 65 0 -3 473 -4 472 100 3 c87 2 102 5 118 23 9 12 17 19 17 16 0 -3 14 -1
30 4 38 14 38 24 -2 46 -38 20 -60 22 -70 8 -4 -6 -8 -2 -8 8 0 21 -14 22 -32
3 -12 -11 -18 -12 -39 -1 l-24 13 28 11 c33 13 67 14 67 4 0 -5 12 -9 26 -10
15 0 29 -5 33 -10 14 -22 71 -38 133 -38 38 0 68 -3 68 -7 0 -5 7 -8 15 -8 18
0 19 11 3 30 -7 8 -3 6 9 -4 16 -13 38 -18 79 -17 31 0 65 -4 76 -10 33 -18
35 1 3 24 -32 24 -65 31 -65 13 0 -6 -5 -4 -10 4 -5 9 -5 19 0 24 16 16 60 -4
100 -44 22 -22 42 -40 45 -40 11 0 4 49 -7 54 -10 5 -10 7 0 12 6 3 12 19 12
35 0 28 -1 29 -51 29 -54 0 -57 -10 -9 -30 16 -7 30 -17 30 -22 0 -6 -12 -3
-26 7 -14 9 -32 14 -39 11 -8 -3 -17 4 -20 15 -6 19 -8 19 -25 4 -16 -14 -19
-14 -33 0 -22 21 -175 23 -155 1 9 -9 19 -11 30 -5 25 14 29 11 16 -10 -7 -11
-16 -17 -20 -14 -5 2 -16 -1 -25 -9 -15 -11 -16 -11 -10 7 6 18 5 18 -12 -2
-15 -19 -21 -20 -30 -9 -8 10 -8 16 2 25 8 6 17 7 22 3 4 -4 6 0 3 8 -4 13
-46 16 -274 20 l-269 5 1 40 c1 22 2 96 3 165 1 69 6 132 11 140 8 13 181 15
1477 11 807 -2 1478 -7 1490 -12 l23 -9 0 -248 c0 -137 3 -485 7 -774 l6 -526
131 -6 c72 -3 339 -7 594 -9 l462 -3 0 923 0 923 -27 6 c-15 4 -337 4 -716 0
l-689 -6 8 580 c5 470 4 582 -6 595 -12 14 -103 15 -926 9 l-913 -7 -3 109 -3
109 -450 5 -450 5 -30 150 -31 150 -49 2 c-96 5 -1117 8 -1121 4z m892 -1091
l134 0 0 -520 0 -520 -195 0 -195 0 0 526 0 527 61 -7 c34 -3 122 -6 195 -6z
m1624 -259 c0 -66 3 -126 6 -135 5 -14 -10 -16 -132 -16 l-139 0 3 135 3 135
130 0 129 0 0 -119z m734 113 l46 -7 0 -114 c0 -112 0 -114 25 -123 14 -5 25
-12 25 -15 0 -3 -63 -5 -140 -5 l-140 0 0 135 0 135 69 0 c37 0 89 -3 115 -6z
m-3422 -2130 c-6 -35 -12 -29 -12 14 0 23 3 32 9 24 4 -7 6 -24 3 -38z m-175
-56 c-3 -7 -5 -2 -5 12 0 14 2 19 5 13 2 -7 2 -19 0 -25z m197 16 c-8 -3 -10
-36 -8 -99 2 -56 0 -95 -6 -95 -5 0 -7 7 -4 15 4 8 1 15 -5 15 -7 0 -8 8 -1
24 10 27 10 86 0 86 -4 0 -5 14 -2 30 3 20 10 30 21 29 9 0 11 -3 5 -5z m101
-24 c-8 -16 -15 -31 -14 -32 1 -2 -6 -16 -15 -33 -10 -16 -15 -22 -12 -12 4
11 9 30 13 45 5 22 31 62 40 62 2 0 -3 -13 -12 -30z m801 -42 c-16 -10 -76 -6
-69 4 3 6 14 7 25 5 11 -3 21 0 25 8 4 11 8 12 18 2 9 -9 10 -14 1 -19z
m-1046 -53 c0 -14 -4 -25 -9 -25 -4 0 -6 11 -3 25 2 14 6 25 8 25 2 0 4 -11 4
-25z m30 -57 c0 -19 -2 -20 -10 -8 -13 19 -13 30 0 30 6 0 10 -10 10 -22z m25
-28 c-27 -12 -43 -12 -25 0 8 5 22 9 30 9 10 0 8 -3 -5 -9z m325 -4 c0 -3 -4
-8 -10 -11 -5 -3 -10 -1 -10 4 0 6 5 11 10 11 6 0 10 -2 10 -4z m-295 -26 c-3
-5 -12 -10 -18 -10 -7 0 -6 4 3 10 19 12 23 12 15 0z m263 -54 c-8 -6 -13 -18
-10 -26 4 -11 0 -10 -16 3 -11 11 -25 16 -30 13 -13 -8 -35 20 -27 34 3 5 24
10 46 10 24 0 40 5 40 13 1 6 4 1 6 -12 3 -15 -1 -29 -9 -35z m-518 0 c0 -3
-4 -8 -10 -11 -5 -3 -10 -1 -10 4 0 6 5 11 10 11 6 0 10 -2 10 -4z m-4 -59
c-14 -19 -26 -39 -26 -45 0 -6 -4 -13 -9 -16 -4 -3 -8 8 -7 23 1 16 5 29 9 28
5 -1 14 7 20 18 13 22 29 36 35 30 2 -2 -8 -19 -22 -38z"></path>
<path d="M1015 2060 c-3 -5 -1 -10 4 -10 6 0 11 5 11 10 0 6 -2 10 -4 10 -3 0
-8 -4 -11 -10z"></path>
<path d="M3532 3403 c-185 -3 -193 -4 -187 -23 5 -17 2 -18 -35 -15 l-40 4 0
-40 c0 -23 4 -38 10 -34 5 3 7 12 3 20 -3 8 0 15 6 15 6 0 11 -4 11 -9 0 -5
11 -8 25 -5 18 3 25 0 25 -11 0 -14 -11 -19 -37 -16 -7 1 -13 -3 -13 -10 0 -6
-7 -9 -15 -5 -11 4 -15 -2 -15 -28 0 -30 3 -33 24 -29 13 3 27 0 30 -6 4 -6 0
-11 -10 -11 -9 0 -23 -8 -30 -17 -16 -21 -18 -69 -4 -78 6 -4 10 8 10 29 l0
36 48 1 c39 1 43 2 22 10 -26 9 -16 8 125 -9 39 -4 60 -12 60 -20 0 -17 26
-33 46 -26 9 2 19 -2 22 -10 9 -22 -7 -28 -29 -11 -10 8 -23 15 -27 15 -4 0
-7 -53 -6 -117 l1 -118 -79 -3 -80 -3 3 -45 c3 -39 1 -46 -21 -56 -40 -18 -50
-60 -48 -206 l2 -132 -30 -35 c-25 -28 -30 -41 -27 -77 l3 -43 800 -5 c738 -5
803 -6 827 -22 15 -10 65 -43 112 -73 l86 -55 0 640 0 640 -687 -2 c-379 -2
-775 -4 -881 -5z m-183 -177 c19 -23 -4 -28 -24 -6 -15 17 -16 20 -3 20 9 0
21 -6 27 -14z m321 -106 c0 -5 -9 -14 -19 -19 -14 -8 -20 -7 -24 4 -6 13 6 23
31 24 6 1 12 -3 12 -9z"></path>
<path d="M3270 3391 c0 -4 11 -6 25 -3 14 2 25 6 25 8 0 2 -11 4 -25 4 -14 0
-25 -4 -25 -9z"></path>
<path d="M2927 3272 c13 -9 26 -32 29 -50 4 -19 10 -30 13 -25 11 17 44 24 52
11 6 -10 11 -10 20 -1 10 10 7 14 -12 22 -31 11 -53 37 -44 51 3 6 -3 10 -16
10 -22 0 -22 -1 6 -30 16 -16 26 -32 24 -35 -3 -2 -21 11 -39 30 -19 19 -39
35 -44 35 -6 0 -1 -8 11 -18z"></path>
<path d="M2854 3271 c9 -14 -20 -21 -86 -21 -34 0 -58 -3 -55 -7 4 -3 58 -7
119 -8 62 -1 103 0 92 2 -12 2 -30 13 -40 24 -17 19 -40 27 -30 10z"></path>
<path d="M3035 3270 c3 -5 11 -10 16 -10 6 0 7 5 4 10 -3 6 -11 10 -16 10 -6
0 -7 -4 -4 -10z"></path>
<path d="M3080 3220 c0 -11 40 -34 47 -26 3 3 3 12 0 21 -7 16 -47 21 -47 5z"></path>
<path d="M3081 3175 c0 -5 3 -16 8 -23 6 -10 11 -9 22 4 12 16 12 17 -3 11 -9
-3 -19 -1 -22 6 -2 7 -5 8 -5 2z"></path>
<path d="M2960 3159 c0 -5 5 -7 10 -4 6 3 10 8 10 11 0 2 -4 4 -10 4 -5 0 -10
-5 -10 -11z"></path>
<path d="M2977 3142 c-22 -24 -21 -29 3 -35 17 -4 20 -2 15 14 -5 15 -1 19 14
19 26 0 26 -8 2 -39 -12 -16 -24 -22 -35 -18 -15 6 -16 -29 -16 -398 l0 -405
85 0 85 0 0 83 c0 51 -5 88 -12 95 -9 9 -9 12 0 12 9 0 12 74 12 305 0 168 -4
305 -8 305 -4 0 -13 -5 -19 -11 -8 -8 -13 -7 -19 2 -4 7 -3 14 4 17 8 2 7 8
-3 19 -13 13 -17 13 -31 -1 -23 -23 -37 -20 -23 6 10 18 8 24 -7 35 -23 17
-28 17 -47 -5z"></path>
<path d="M3275 3068 c-4 -10 -4 -26 0 -35 8 -17 8 -17 12 0 3 9 3 25 0 35 -4
16 -4 16 -12 0z"></path>
<path d="M3270 2990 c0 -5 5 -10 11 -10 5 0 7 5 4 10 -3 6 -8 10 -11 10 -2 0
-4 -4 -4 -10z"></path>
<path d="M3270 2683 c0 -272 0 -276 19 -259 18 16 20 33 20 164 1 203 1 204
16 198 24 -9 35 17 24 57 -8 28 -15 36 -37 39 -25 3 -27 6 -24 41 2 22 -1 37
-7 37 -8 0 -11 -86 -11 -277z"></path>
<path d="M3361 2863 c0 -10 4 -27 9 -38 7 -17 9 -15 9 12 1 17 -3 35 -9 38 -5
3 -10 -2 -9 -12z"></path>
<path d="M1575 2129 c-10 -15 3 -25 16 -12 7 7 7 13 1 17 -6 3 -14 1 -17 -5z"></path>
<path d="M1273 2070 c0 -25 2 -35 4 -22 2 12 2 32 0 45 -2 12 -4 2 -4 -23z"></path>
<path d="M1387 2012 c-33 -35 -37 -87 -7 -95 15 -4 27 9 59 59 l40 64 -32 0
c-23 0 -41 -8 -60 -28z"></path>
<path d="M1484 2023 c-5 -10 -20 -35 -33 -55 l-23 -38 25 0 c16 0 28 8 36 26
8 19 17 25 31 21 22 -6 25 -3 34 36 6 25 4 27 -26 27 -21 0 -37 -7 -44 -17z"></path>
<path d="M1296 1985 c-10 -27 -7 -67 5 -60 6 4 8 13 5 20 -2 7 1 18 7 24 8 8
8 14 0 22 -7 7 -12 6 -17 -6z"></path>
<path d="M1267 1978 c-15 -38 -16 -48 -6 -53 12 -8 22 18 17 47 -4 20 -5 20
-11 6z"></path>
<path d="M1330 1971 c0 -11 5 -23 10 -26 6 -4 10 5 10 19 0 14 -4 26 -10 26
-5 0 -10 -9 -10 -19z"></path>
<path d="M1560 1972 c0 -5 7 -13 16 -16 10 -4 14 -1 12 6 -5 15 -28 23 -28 10z"></path>
<path d="M740 1959 c0 -5 5 -7 10 -4 6 3 10 8 10 11 0 2 -4 4 -10 4 -5 0 -10
-5 -10 -11z"></path>
<path d="M1085 1960 c-3 -5 -11 -8 -18 -6 -7 1 -8 1 -4 -2 4 -2 2 -11 -5 -20
-7 -10 0 -6 15 7 15 14 27 26 27 28 0 7 -9 3 -15 -7z"></path>
<path d="M647 1867 c-6 -15 10 -37 26 -37 12 0 4 43 -9 47 -6 2 -14 -3 -17
-10z"></path>
<path d="M1057 1863 c-4 -3 -7 -11 -7 -17 0 -6 5 -5 12 2 6 6 9 14 7 17 -3 3
-9 2 -12 -2z"></path>
</g>
</svg>