 <svg version="1.0" xmlns="http://www.w3.org/2000/svg" id="mask" viewBox="0 0 700.000000 700.000000" preserveAspectRatio="xMidYMid meet">

<g transform="translate(0.000000,700.000000) scale(0.100000,-0.100000)">
<path d="M2258 3769 c-10 -6 -28 -346 -19 -355 2 -2 115 -4 251 -4 183 0 249
3 259 13 11 10 14 10 18 0 4 -10 50 -13 184 -13 l179 0 2 -82 c1 -46 1 -96 -1
-113 -1 -23 1 -27 11 -17 9 9 15 9 28 -3 15 -14 17 -12 16 18 -1 19 -10 47
-20 63 l-19 29 31 -30 c17 -16 32 -40 32 -52 0 -14 6 -23 15 -23 8 0 15 -5 15
-11 0 -5 4 -8 10 -4 5 3 7 12 3 20 -3 9 0 22 6 29 8 9 8 16 2 20 -5 4 -12 2
-16 -4 -3 -5 -11 -10 -17 -10 -6 0 -2 10 9 23 15 15 23 40 26 80 3 32 6 60 8
62 7 6 91 7 967 6 l872 -1 0 -647 c0 -357 -4 -654 -9 -662 -7 -11 -156 -12
-920 -6 l-911 8 0 135 c0 78 -4 132 -9 127 -12 -14 -41 -150 -41 -195 0 -21
-7 -57 -15 -80 -16 -45 -12 -58 25 -87 27 -21 94 -26 450 -31 453 -7 456 -7
1400 -1 l795 5 3 32 c3 30 6 32 42 32 35 0 39 -3 42 -27 2 -23 8 -28 31 -28
15 1 27 -3 27 -7 0 -4 57 -8 126 -8 111 0 369 -9 737 -25 l117 -5 0 70 0 70
-877 2 -878 3 -2 55 c-1 30 -2 402 -2 825 -1 466 -5 776 -11 785 -8 13 -188
16 -1486 20 -812 3 -1480 2 -1486 -1z m166 -221 c3 -41 36 -70 36 -32 0 13 3
14 14 5 7 -6 21 -8 30 -5 12 5 19 0 23 -15 3 -11 9 -18 15 -15 5 3 14 1 21 -4
7 -6 21 -12 32 -15 11 -2 2 -2 -20 0 -22 3 -55 6 -72 7 -18 0 -33 4 -33 8 0
13 -55 9 -68 -4 -9 -9 -12 -9 -12 1 0 7 -6 11 -15 8 -16 -7 -64 28 -53 38 3 4
15 2 24 -3 14 -8 22 -5 36 10 12 15 18 17 18 7 0 -12 2 -12 9 0 5 8 7 21 3 30
-3 9 -2 13 3 9 4 -4 9 -18 9 -30z m846 7 c9 -10 9 -15 1 -15 -16 0 -14 -25 3
-39 11 -10 20 -10 38 0 l23 12 -20 -21 c-11 -11 -22 -19 -25 -18 -11 2 -45
-30 -45 -44 0 -8 -8 -14 -18 -13 -12 0 -16 -4 -13 -13 3 -9 -1 -14 -13 -14
-17 0 -18 3 -8 24 7 13 15 23 18 20 3 -2 14 5 23 15 17 18 17 20 -1 24 -12 3
-9 5 10 6 32 1 36 16 5 19 -13 1 -30 -8 -40 -21 l-18 -22 0 22 c0 15 8 23 28
28 25 5 28 10 24 35 -5 32 8 39 28 15z m-552 -115 c6 0 12 -4 12 -8 0 -5 -22
-1 -49 7 -27 9 -44 19 -39 22 6 4 22 0 37 -7 14 -8 32 -14 39 -14z m622 1 c0
-6 -4 -13 -10 -16 -5 -3 -10 1 -10 9 0 9 5 16 10 16 6 0 10 -4 10 -9z m30 -1
c0 -5 -4 -10 -10 -10 -5 0 -10 5 -10 10 0 6 5 10 10 10 6 0 10 -4 10 -10z
m-120 -50 c-6 -4 -11 -18 -9 -31 3 -26 -19 -79 -33 -79 -11 0 -10 7 2 29 5 10
12 33 15 51 7 42 14 52 27 44 7 -4 6 -9 -2 -14z"></path>
<path d="M3256 3141 c-4 -7 -5 -15 -2 -18 9 -9 19 4 14 18 -4 11 -6 11 -12 0z"></path>
<path d="M3210 3105 c0 -18 17 -28 25 -15 4 6 11 7 17 4 6 -4 8 -2 5 3 -11 17
-47 23 -47 8z"></path>
<path d="M3140 3090 c0 -5 5 -10 11 -10 5 0 7 5 4 10 -3 6 -8 10 -11 10 -2 0
-4 -4 -4 -10z"></path>
<path d="M3130 2769 l-1 -301 32 7 c24 5 30 4 27 -6 -2 -7 -15 -16 -29 -19
l-24 -6 -3 -172 -2 -172 -440 0 c-261 0 -440 -4 -440 -9 0 -5 -3 -16 -6 -25
-6 -14 38 -16 445 -16 l451 0 0 -25 c0 -14 6 -25 13 -25 9 0 11 18 9 64 -3 45
1 73 13 95 15 30 60 182 72 246 5 27 7 28 14 10 4 -11 7 110 6 269 -2 296 -5
317 -40 282 -19 -20 -29 -9 -16 16 8 15 8 23 -1 32 -9 8 -14 8 -17 -1 -3 -7
-9 -13 -15 -13 -7 0 -7 5 1 13 8 11 7 18 -7 29 -42 36 -41 42 -42 -273z m118
-319 c3 -12 2 -12 -8 -3 -7 6 -19 9 -26 6 -8 -3 -14 0 -14 7 0 16 43 8 48 -10z"></path>
<path d="M3185 3050 c10 -11 22 -20 27 -20 15 0 9 28 -8 34 -30 11 -37 6 -19
-14z"></path>
<path d="M3255 3061 c-3 -5 -1 -12 5 -16 5 -3 10 1 10 9 0 18 -6 21 -15 7z"></path>
<path d="M3240 3018 c0 -18 18 -34 28 -24 3 4 -2 14 -11 23 -16 16 -17 16 -17
1z"></path>
<path d="M3192 2151 c-7 -19 -12 -46 -11 -60 1 -20 4 -16 15 19 17 54 14 90
-4 41z"></path>
<path d="M3186 2005 c4 -8 11 -15 16 -15 6 0 5 6 -2 15 -7 8 -14 15 -16 15 -2
0 -1 -7 2 -15z"></path>
</g>
</svg>