 <svg version="1.0" xmlns="http://www.w3.org/2000/svg" id="mask" viewBox="0 0 700.000000 700.000000" preserveAspectRatio="xMidYMid meet">

<g transform="translate(0.000000,700.000000) scale(0.100000,-0.100000)">
<path d="M1670 4130 l0 -520 190 0 190 0 0 520 0 520 -190 0 -190 0 0 -520z
m243 473 l107 -6 0 -467 0 -467 -67 -6 c-38 -4 -107 -7 -155 -7 l-88 0 0 473
c0 261 3 477 7 480 8 9 61 9 196 0z"></path>
<path d="M3290 4379 l0 -132 77 7 c42 3 100 6 130 6 l53 0 0 125 0 125 -130 0
-130 0 0 -131z m210 -4 c0 -83 -1 -85 -24 -85 -12 0 -51 -3 -85 -6 l-61 -7 0
92 0 91 85 0 85 0 0 -85z"></path>
<path d="M4100 4380 l0 -120 115 0 115 0 0 120 0 120 -115 0 -115 0 0 -120z
m199 4 c-2 -49 -8 -88 -14 -89 -5 -2 -45 -5 -87 -7 l-78 -3 0 87 0 87 68 4
c37 2 77 4 90 5 23 2 23 1 21 -84z"></path>
<path d="M3297 3163 c-15 -15 -4 -19 61 -21 37 -1 81 -5 97 -7 l30 -6 -25 15
c-36 20 -96 30 -104 17 -4 -6 -12 -11 -17 -11 -6 0 -7 5 -4 10 7 11 -28 14
-38 3z"></path>
<path d="M3484 3155 c26 -19 56 -19 56 0 0 11 -11 15 -37 15 -36 -1 -37 -2
-19 -15z"></path>
<path d="M3500 3036 l0 -86 -71 0 c-52 0 -70 -3 -67 -12 3 -9 34 -14 97 -16
l92 -3 -3 98 c-3 93 -4 98 -25 101 -22 3 -23 1 -23 -82z"></path>
<path d="M3305 3080 c4 -12 2 -20 -6 -20 -8 0 -9 -10 -5 -32 12 -60 26 -55 25
10 -1 34 -5 62 -11 62 -5 0 -6 -9 -3 -20z"></path>
<path d="M3290 2935 c0 -8 9 -15 20 -15 13 0 18 5 14 15 -4 8 -12 15 -20 15
-8 0 -14 -7 -14 -15z"></path>
<path d="M1301 2274 c0 -11 3 -14 6 -6 3 7 2 16 -1 19 -3 4 -6 -2 -5 -13z"></path>
<path d="M1287 2210 c-3 -10 1 -24 9 -31 11 -9 14 -6 14 20 0 34 -15 42 -23
11z"></path>
<path d="M1287 2153 c-12 -12 -7 -67 8 -87 20 -26 22 -20 17 42 -4 49 -10 61
-25 45z"></path>
<path d="M1370 2049 c0 -5 5 -7 10 -4 6 3 10 8 10 11 0 2 -4 4 -10 4 -5 0 -10
-5 -10 -11z"></path>
<path d="M1400 2056 c0 -2 18 -6 40 -8 22 -2 40 0 40 4 0 5 -18 8 -40 8 -22 0
-40 -2 -40 -4z"></path>
<path d="M1510 2053 c0 -5 11 -8 25 -8 14 0 25 3 25 8 0 4 -11 7 -25 7 -14 0
-25 -3 -25 -7z"></path>
</g>
</svg>