 <svg version="1.0" xmlns="http://www.w3.org/2000/svg" viewBox="0 0 700.000000 423.000000" preserveAspectRatio="xMidYMid meet" id="mask">

<g transform="translate(0.000000,423.000000) scale(0.100000,-0.100000)">
<path d="M0 2115 l0 -2115 316 0 c254 0 319 3 328 13 6 8 122 105 258 215
l247 202 105 0 106 0 0 158 c0 86 -5 468 -11 848 -13 748 -14 733 39 774 32
26 84 26 107 0 17 -19 18 -19 43 0 31 25 63 25 93 1 23 -18 24 -18 51 2 34 26
70 16 102 -26 20 -28 21 -41 27 -535 7 -499 18 -887 26 -866 4 12 63 6 63 -7
0 -5 -4 -9 -10 -9 -5 0 -10 -11 -10 -25 0 -28 24 -34 38 -10 4 9 21 17 36 19
15 2 32 9 37 17 8 12 11 11 20 -4 10 -18 11 -18 25 0 8 11 13 13 14 6 0 -7 5
-13 11 -13 7 0 8 7 4 18 -4 9 -9 26 -12 37 -4 18 -2 17 15 -4 11 -13 24 -21
31 -17 6 4 11 2 11 -5 0 -7 2 -10 5 -7 9 8 -17 58 -26 52 -5 -3 -9 2 -9 10 0
19 -30 22 -30 4 -1 -7 -10 -2 -21 12 -12 14 -23 24 -25 23 -12 -8 -15 -1 -4
12 10 12 10 15 -4 15 -25 0 -19 13 22 54 35 36 36 38 12 34 -14 -2 -34 -17
-46 -36 -21 -31 -23 -32 -26 -10 -5 34 14 66 44 77 33 12 38 26 7 16 -15 -5
-19 -4 -14 5 4 6 -1 18 -11 25 -18 14 -18 14 3 15 12 0 29 7 38 16 22 22 140
31 132 11 -3 -9 1 -14 10 -13 9 0 18 -5 20 -11 3 -8 -4 -13 -16 -13 -12 0 -21
-5 -21 -12 0 -6 3 -8 6 -5 9 8 44 -11 44 -24 0 -6 -9 -8 -19 -4 -50 15 -61 14
-67 -9 -3 -13 -4 -30 -3 -37 2 -8 -1 -25 -5 -38 -6 -17 -3 -28 9 -40 15 -15
16 -15 13 4 -2 16 2 20 22 18 24 -3 24 -2 4 6 -28 12 -40 31 -20 31 10 0 13 6
9 16 -4 10 -1 15 8 13 8 -1 22 1 32 6 11 4 28 2 43 -6 14 -7 36 -12 50 -11 21
2 23 -1 12 -17 -14 -23 -4 -53 16 -45 8 3 19 18 25 32 5 15 10 21 10 14 1 -8
9 -10 27 -6 25 6 25 5 19 -30 -9 -44 9 -49 40 -10 l21 27 -24 26 -24 26 22 3
c18 3 19 6 8 20 -10 12 -10 14 0 8 7 -4 12 -1 12 9 0 11 6 15 18 11 9 -3 39
-8 66 -10 39 -4 54 -11 78 -38 17 -19 27 -40 24 -50 -5 -21 1 -23 17 -5 8 8
12 50 11 122 -1 128 13 158 73 170 l35 6 -6 77 c-3 42 -8 343 -11 667 -3 325
-8 632 -11 684 l-7 93 84 -4 c70 -4 106 -13 214 -54 l130 -49 5 -140 5 -140
39 2 c26 2 46 -4 63 -17 34 -26 43 -25 43 5 0 28 8 32 24 10 6 -8 43 -22 81
-32 39 -9 74 -23 78 -30 4 -7 17 -13 28 -13 11 0 22 -7 25 -15 4 -8 12 -15 20
-15 10 0 14 -14 14 -50 0 -47 2 -50 25 -50 16 0 38 -13 60 -36 35 -36 45 -64
23 -64 -7 0 -3 -10 9 -22 20 -20 31 -21 126 -19 75 2 114 -2 140 -13 56 -23
145 -87 222 -160 80 -75 111 -84 143 -39 19 26 20 26 173 30 109 2 167 8 198
19 34 13 51 14 80 6 20 -6 63 -11 96 -10 33 0 83 -8 110 -17 29 -10 75 -17
110 -16 33 1 112 -3 175 -9 63 -6 167 -13 230 -15 174 -8 238 -20 445 -86 105
-34 226 -72 270 -84 220 -62 328 -127 645 -383 69 -56 128 -102 133 -102 4 0
7 347 7 771 l0 770 -1929 -7 -1930 -7 -5 24 c-6 25 -50 436 -116 1069 -22 212
-42 400 -45 418 l-6 32 -442 0 -442 0 64 -37 c109 -65 218 -208 237 -313 4
-19 12 -41 18 -49 16 -21 14 -284 -2 -346 -59 -220 -196 -375 -392 -446 -87
-31 -104 -34 -205 -34 -108 1 -185 14 -215 38 -8 7 -37 23 -64 37 -46 24 -136
111 -136 132 0 6 13 8 33 4 17 -3 73 -6 122 -7 71 0 108 5 175 26 47 15 92 33
101 41 8 8 23 14 31 14 22 0 183 159 193 190 4 13 13 30 21 37 29 29 54 124
56 211 2 111 -16 175 -71 246 -76 98 -139 146 -211 161 -19 4 -42 13 -50 21
-9 7 -31 14 -50 16 -43 3 -54 17 -33 40 15 17 -21 18 -845 18 l-862 0 0 -2115z
m3808 303 c-2 -18 2 -23 20 -22 12 0 22 -5 22 -13 0 -15 3 -15 53 -4 29 7 37
6 37 -5 0 -12 4 -12 20 -4 14 8 20 8 20 0 0 -6 4 -8 10 -5 5 3 20 -1 32 -9 19
-14 20 -16 5 -16 -10 0 -16 -4 -13 -9 4 -5 0 -12 -6 -14 -7 -3 1 -6 17 -7 l30
-2 -29 -7 c-24 -5 -32 -15 -47 -58 l-18 -53 23 0 c33 0 53 -25 36 -45 -10 -11
-10 -19 -2 -27 6 -6 8 -17 5 -24 -4 -11 -36 -14 -149 -14 -137 0 -144 1 -144
20 0 11 5 20 10 20 6 0 10 11 10 25 0 14 4 25 9 25 5 0 12 7 15 16 8 20 -30
94 -49 94 -34 0 -12 20 23 21 21 1 28 3 17 6 -27 7 -44 23 -23 23 16 0 33 54
22 72 -6 9 23 37 39 38 5 0 7 -10 5 -22z m-1488 -808 c0 -5 -2 -10 -4 -10 -3
0 -8 5 -11 10 -3 6 -1 10 4 10 6 0 11 -4 11 -10z m305 -280 c3 -5 1 -10 -4
-10 -6 0 -11 5 -11 10 0 6 2 10 4 10 3 0 8 -4 11 -10z m-257 -251 c17 1 32 -3
32 -9 0 -5 -5 -10 -11 -10 -6 0 -8 -9 -3 -22 6 -20 5 -21 -9 -10 -9 8 -21 11
-27 7 -5 -3 -10 -1 -10 5 0 6 -11 15 -25 22 -27 12 -23 34 4 22 9 -3 31 -6 49
-5z"></path>
<path d="M1741 4216 c-9 -11 -5 -16 21 -25 212 -78 334 -196 373 -364 21 -89
4 -208 -43 -297 -19 -36 -40 -72 -48 -81 -8 -8 -14 -18 -14 -22 0 -7 -83 -90
-121 -121 -34 -28 -156 -81 -224 -97 -33 -8 -106 -14 -162 -14 -57 0 -103 -3
-103 -6 0 -19 116 -104 188 -136 145 -66 440 -25 536 74 11 13 26 23 32 23 7
0 29 21 50 47 22 25 47 53 57 62 9 8 17 20 17 25 0 5 7 17 15 26 44 48 101
292 90 379 -3 20 -7 54 -10 76 -23 190 -140 366 -288 435 -63 29 -70 30 -210
30 -110 0 -147 -3 -156 -14z"></path>
<path d="M2488 978 c-10 -12 -18 -26 -18 -30 0 -4 -6 -8 -13 -8 -7 0 -23 -13
-35 -30 -26 -34 -27 -41 -8 -34 7 3 20 -2 29 -10 9 -9 20 -16 26 -16 5 0 13
-5 16 -11 5 -7 -7 -8 -38 -4 l-45 7 4 -34 c2 -18 13 -40 24 -50 11 -9 20 -26
20 -38 0 -16 4 -20 16 -16 12 4 15 2 10 -9 -12 -33 15 -12 58 44 35 46 42 61
33 71 -10 10 -8 12 5 7 12 -4 24 3 38 22 11 16 20 32 20 36 0 14 -28 33 -58
40 -47 10 -53 28 -8 23 41 -5 49 8 10 18 -17 4 -23 11 -19 21 3 11 1 13 -10
10 -8 -4 -17 -2 -20 3 -9 15 -18 12 -37 -12z"></path>
<path d="M2062 948 c-18 -18 -15 -35 8 -41 17 -4 20 0 20 24 0 31 -9 36 -28
17z"></path>
<path d="M2220 936 c0 -7 11 -21 25 -30 24 -16 25 -16 25 8 0 22 -16 36 -41
36 -5 0 -9 -6 -9 -14z"></path>
<path d="M2188 913 c7 -3 16 -2 19 1 4 3 -2 6 -13 5 -11 0 -14 -3 -6 -6z"></path>
<path d="M2285 901 c-3 -5 -1 -12 5 -16 5 -3 10 1 10 9 0 18 -6 21 -15 7z"></path>
<path d="M2180 876 c0 -9 6 -13 14 -10 8 3 17 1 21 -5 9 -15 22 -14 28 3 4 9
0 14 -11 14 -9 0 -25 3 -34 7 -13 5 -18 3 -18 -9z"></path>
<path d="M2145 860 c-9 -15 4 -50 20 -50 23 0 27 31 5 37 -11 3 -17 9 -14 14
3 5 3 9 0 9 -3 0 -8 -5 -11 -10z"></path>
<path d="M2130 806 c0 -9 5 -16 10 -16 6 0 10 4 10 9 0 6 -4 13 -10 16 -5 3
-10 -1 -10 -9z"></path>
<path d="M2359 781 c12 -8 12 -15 -2 -49 -20 -51 -13 -75 26 -90 27 -11 34
-10 45 5 6 9 12 26 12 38 0 24 -65 105 -83 105 -8 0 -7 -4 2 -9z"></path>
<path d="M2547 735 c-45 -65 -32 -73 39 -24 42 29 44 32 31 52 -7 11 -18 22
-23 24 -5 1 -26 -22 -47 -52z"></path>
<path d="M2280 756 c0 -7 7 -19 15 -26 13 -11 15 -8 15 14 0 16 -5 26 -15 26
-8 0 -15 -6 -15 -14z"></path>
<path d="M2330 739 c0 -11 5 -17 10 -14 6 3 10 13 10 21 0 8 -4 14 -10 14 -5
0 -10 -9 -10 -21z"></path>
<path d="M2595 703 l-40 -28 39 -3 c45 -4 48 -2 44 32 l-3 26 -40 -27z"></path>
<path d="M1843 698 c-13 -18 -16 -77 -8 -181 l7 -88 147 4 c152 5 211 13 211
29 0 5 8 7 18 4 10 -4 27 0 38 8 18 14 18 15 2 21 -10 4 -30 3 -45 -3 -63 -23
-65 -22 -14 6 l55 29 -44 32 c-48 35 -89 49 -99 34 -3 -5 -22 -21 -42 -36 -35
-27 -37 -27 -42 -7 -3 11 -1 22 4 25 12 8 -10 42 -27 42 -8 0 -14 -3 -14 -7 0
-7 -82 -63 -84 -58 0 2 -6 12 -12 23 -6 12 -7 34 -3 55 9 41 3 53 -22 47 -24
-6 -24 2 -1 19 15 12 15 13 1 14 -9 0 -21 -6 -26 -12z"></path>
<path d="M2495 660 c-3 -5 -3 -10 1 -10 4 0 -3 -11 -15 -24 -18 -19 -20 -24
-7 -29 10 -4 13 -1 9 9 -7 19 21 18 41 -1 12 -12 20 -13 35 -5 21 11 37 -2 26
-20 -3 -5 -4 -10 -2 -10 2 0 16 18 31 40 l26 39 -36 7 c-19 3 -51 4 -70 1 -20
-4 -32 -2 -29 4 4 5 4 9 1 9 -3 0 -8 -4 -11 -10z"></path>
<path d="M2446 644 c-12 -31 3 -34 22 -4 10 16 10 20 -2 20 -8 0 -17 -7 -20
-16z"></path>
<path d="M2350 611 c0 -39 21 -55 46 -36 23 17 11 43 -24 56 -19 7 -22 5 -22
-20z"></path>
<path d="M2300 610 c-17 -11 -8 -23 14 -18 9 2 12 8 8 15 -5 8 -13 9 -22 3z"></path>
<path d="M2244 579 c-3 -6 -1 -16 5 -22 8 -8 11 -5 11 11 0 24 -5 28 -16 11z"></path>
<path d="M2285 561 c-3 -5 -1 -12 5 -16 5 -3 10 1 10 9 0 18 -6 21 -15 7z"></path>
<path d="M2561 514 c0 -11 3 -14 6 -6 3 7 2 16 -1 19 -3 4 -6 -2 -5 -13z"></path>
</g>
</svg>