 <svg version="1.0" xmlns="http://www.w3.org/2000/svg" id="mask" viewBox="0 0 700.000000 423.000000" preserveAspectRatio="xMidYMid meet">

<g transform="translate(0.000000,423.000000) scale(0.100000,-0.100000)">
<path d="M3688 4156 c-75 -39 -139 -74 -143 -78 -3 -3 55 -41 130 -83 74 -43
137 -81 140 -85 3 -4 -2 -13 -10 -20 -8 -7 -15 -18 -15 -24 0 -7 -9 -22 -21
-34 l-20 -22 11 -696 c6 -383 9 -699 5 -702 -3 -4 -198 -9 -433 -12 -235 -3
-426 -8 -424 -12 1 -5 2 -43 2 -86 l0 -79 160 -6 c88 -4 232 -10 320 -14 l160
-6 0 36 0 37 70 0 70 0 0 -40 0 -40 73 0 c39 0 103 -3 140 -7 l69 -6 -6 234
c-3 129 -9 446 -12 704 l-6 471 829 222 c455 122 865 231 911 243 45 12 84 20
87 18 2 -3 8 -441 12 -974 l8 -970 420 -18 c231 -10 421 -19 422 -21 2 -1 5
-119 9 -262 l6 -259 139 -261 c103 -195 139 -271 139 -297 0 -20 -4 -39 -10
-42 -8 -5 -94 7 -157 22 l-23 5 0 -496 0 -496 130 0 130 0 0 1237 0 1236 -375
-6 -375 -7 0 787 c0 434 -3 832 -7 886 l-6 97 -1206 -1 -1206 -2 -137 -71z"></path>
<path d="M2355 3508 c-171 -83 -315 -155 -322 -161 -8 -9 -10 -156 -6 -574 l6
-563 45 0 45 0 -4 421 -4 421 220 68 c121 37 253 77 293 89 l72 22 0 202 c0
183 -2 203 -18 213 -15 10 -72 -15 -327 -138z"></path>
<path d="M2033 1948 c4 -133 7 -295 7 -360 l0 -119 33 -14 c18 -7 45 -17 59
-20 l27 -7 -5 154 c-7 238 -12 279 -35 285 -10 3 -19 13 -19 23 0 15 15 20 98
30 53 6 203 26 332 43 l235 32 3 43 c3 41 3 42 -30 43 -18 0 -163 10 -323 22
l-290 22 -4 25 c-4 31 -17 40 -60 40 l-34 0 6 -242z"></path>
</g>
</svg>