 <svg version="1.0" xmlns="http://www.w3.org/2000/svg" id="mask" viewBox="0 0 700.000000 423.000000" preserveAspectRatio="xMidYMid meet">

<g transform="translate(0.000000,423.000000) scale(0.100000,-0.100000)">
<path d="M3425 4091 c-46 -21 -560 -265 -713 -339 l-104 -50 44 -30 c36 -24
46 -28 54 -17 9 14 128 69 510 235 176 77 206 87 235 81 19 -5 94 -41 168 -81
73 -39 137 -68 141 -63 5 4 17 25 29 45 l20 37 -142 82 c-78 45 -156 90 -172
100 -29 17 -32 17 -70 0z"></path>
<path d="M5495 3995 c-148 -40 -533 -143 -855 -230 -322 -86 -609 -163 -638
-172 l-54 -15 6 -46 c3 -26 8 -395 12 -819 l7 -773 -28 0 c-17 0 -25 -5 -23
-12 3 -9 86 -21 254 -40 137 -15 263 -27 281 -27 l32 -1 3 58 c3 49 6 57 23
57 18 0 20 -8 23 -62 3 -58 5 -63 26 -63 13 0 38 -3 55 -6 l31 -6 0 85 0 86
-79 6 -78 7 -7 82 c-3 44 -6 142 -6 217 l0 136 46 7 c26 3 70 6 99 6 l53 0 6
-187 c3 -104 8 -245 12 -314 l6 -127 30 -6 c17 -3 47 -6 68 -6 36 0 38 1 45
43 4 23 7 50 6 60 -3 23 31 23 52 -1 10 -11 17 -38 18 -64 l2 -47 66 -5 c36
-4 93 -11 127 -16 67 -11 662 -70 707 -70 20 0 27 5 27 20 0 15 -7 20 -28 20
l-29 0 -6 548 c-4 301 -8 765 -8 1032 -1 267 -4 537 -8 601 l-6 116 -270 -72z
m-21 -552 c4 -98 8 -216 9 -263 l2 -85 -138 -18 c-76 -11 -140 -17 -142 -15
-6 6 -7 499 -1 505 6 6 212 50 242 52 21 1 22 -3 28 -176z m-301 -137 c5 -136
7 -250 5 -251 -5 -6 -248 -29 -252 -24 -3 2 -8 111 -12 241 l-7 237 24 6 c83
19 206 43 219 41 13 -1 16 -40 23 -250z m-498 -77 c4 -122 3 -225 -2 -229 -9
-9 -184 -30 -195 -23 -5 2 -8 102 -8 222 l0 218 78 15 c133 27 118 51 127
-203z m-241 125 c3 -26 6 -124 6 -219 l0 -173 -82 -8 c-46 -5 -87 -8 -92 -9
-5 0 -11 92 -14 212 l-4 211 58 12 c33 6 64 13 69 15 39 14 52 5 59 -41z
m1048 -544 c1 -137 2 -260 2 -272 1 -23 0 -23 -134 -23 l-135 0 -3 258 -2 257
22 1 c13 0 68 7 123 14 55 7 106 13 113 14 9 1 12 -56 14 -249z m-319 163 c3
-27 5 -140 4 -253 l-2 -205 -117 -3 -118 -3 -2 226 c-1 124 -2 233 -2 243 -1
14 14 19 94 28 150 18 137 21 143 -33z m-483 -243 l0 -230 -99 0 -99 0 -4 218
c-2 119 -3 218 -2 220 3 4 126 19 172 21 l32 1 0 -230z m-237 68 c4 -79 7
-180 7 -225 l0 -83 -95 0 -95 0 0 205 c0 113 -1 208 -2 213 -2 5 79 20 168 31
7 1 13 -48 17 -141z m1045 -576 c2 -255 2 -264 -17 -269 -17 -4 -21 -17 -27
-74 -9 -90 -35 -106 -124 -76 -34 12 -35 13 -45 87 -9 67 -13 75 -32 78 l-23
3 0 239 c0 131 -3 245 -6 254 -6 17 31 21 186 21 l85 0 3 -263z m-308 4 l0
-254 -97 4 c-154 8 -139 -8 -146 150 -9 176 -9 339 0 347 3 4 60 7 125 7 l118
0 0 -254z m-730 19 l0 -225 -42 0 c-24 0 -67 3 -95 6 l-53 7 0 213 0 213 73 4
c39 1 82 4 95 5 l22 2 0 -225z"></path>
<path d="M0 3286 c0 -9 25 -17 79 -26 64 -10 80 -16 84 -31 5 -18 1 -19 -46
-14 -29 3 -67 8 -84 11 l-33 5 0 -575 0 -575 38 -4 37 -4 -37 -1 c-36 -2 -38
-4 -38 -36 0 -33 1 -34 37 -30 32 4 422 29 1478 97 l180 12 3 33 c3 26 7 32
28 32 13 0 24 5 24 10 0 6 -13 10 -30 10 l-30 0 0 440 0 439 -32 6 c-53 9
-1038 140 -1168 155 -41 5 -165 20 -275 34 -235 30 -215 29 -215 12z m470
-226 c151 -16 291 -31 310 -32 l35 -3 3 -128 3 -127 -143 4 c-163 5 -150 0 25
-10 l117 -6 0 -129 c0 -71 -1 -130 -2 -130 -2 -1 -73 -5 -158 -9 l-155 -6 158
-2 157 -2 0 -130 0 -130 -57 0 c-32 0 -102 -3 -155 -7 l-98 -6 0 111 c0 63 -4
113 -10 117 -5 3 -10 15 -10 26 0 10 -3 19 -7 19 -5 0 -4 -58 1 -130 5 -72 7
-132 5 -135 -5 -5 -351 -27 -354 -23 -2 2 -4 66 -6 143 l-4 140 120 5 120 6
-120 4 -120 5 -3 153 -3 152 33 2 33 1 -32 4 -32 4 -3 140 c-2 78 -1 143 1
145 2 2 20 1 40 -1 20 -3 160 -19 311 -35z m745 -79 l40 -7 -4 -114 c-2 -63
-4 -115 -5 -116 -5 -3 -231 16 -242 20 -11 4 -14 32 -14 122 l0 116 93 -7 c50
-4 110 -10 132 -14z m190 -16 c113 -11 105 -1 105 -126 l0 -109 -116 7 c-94 5
-118 3 -126 -8 -8 -11 -9 -10 -4 4 3 10 6 71 6 134 l0 115 33 -5 c17 -3 64 -9
102 -12z m-217 -234 l63 -6 2 -115 2 -115 -126 -3 -127 -3 -4 113 c-2 62 -2
119 0 126 4 13 79 15 190 3z m225 -16 l97 -7 0 -109 0 -110 -117 3 -118 3 0
110 c0 61 2 114 3 118 2 4 11 6 20 3 10 -2 61 -7 115 -11z m-155 -356 l3 -116
-92 -6 c-51 -4 -109 -7 -131 -7 l-38 0 0 125 0 126 128 -3 127 -3 3 -116z
m252 1 l0 -110 -54 0 c-29 0 -81 -3 -115 -6 l-61 -7 0 117 0 116 115 0 115 0
0 -110z"></path>
<path d="M233 2793 c26 -2 67 -2 90 0 23 2 2 3 -48 3 -50 0 -68 -1 -42 -3z"></path>
<path d="M393 2783 c15 -2 39 -2 55 0 15 2 2 4 -28 4 -30 0 -43 -2 -27 -4z"></path>
<path d="M483 2545 c0 -27 2 -38 4 -22 2 15 2 37 0 50 -2 12 -4 0 -4 -28z"></path>
<path d="M2490 3161 c-102 -32 -227 -71 -279 -87 l-94 -28 7 -418 8 -418 -46
0 c-25 0 -46 -4 -46 -10 0 -5 20 -10 45 -10 43 0 45 -1 45 -29 0 -33 -29 -29
400 -61 146 -11 286 -23 313 -26 46 -7 47 -6 47 21 0 23 -3 26 -22 22 -13 -2
-34 -1 -48 3 -22 7 -20 8 15 9 40 2 91 29 69 38 -8 3 -10 37 -6 112 5 104 4
109 -17 116 -34 10 -41 -2 -41 -75 0 -38 -4 -71 -10 -75 -5 -3 -21 -3 -35 1
-21 5 -25 12 -25 44 0 67 -11 100 -33 100 -18 0 -19 -4 -13 -70 l7 -70 -38 0
c-67 1 -80 22 -88 138 l-8 102 57 0 c71 0 74 18 4 22 l-53 3 -5 114 c-3 71 -1
115 5 117 6 1 31 5 58 9 65 9 60 25 -7 18 l-53 -6 -5 114 c-3 77 -1 116 6 121
6 4 30 10 54 14 l42 6 0 99 c0 73 -3 99 -12 98 -7 0 -96 -26 -198 -58z m-15
-306 l0 -110 -35 0 -35 0 -3 107 c-3 104 -2 107 20 111 53 10 53 9 53 -108z
m-94 -15 c-1 -58 -3 -105 -4 -106 -1 -1 -21 -5 -44 -9 l-43 -7 0 105 0 105 38
10 c20 5 41 9 46 8 5 -1 8 -49 7 -106z m97 -229 l3 -112 -38 3 -38 3 -3 107
-3 107 28 4 c15 2 33 3 38 2 6 -1 11 -49 13 -114z m-90 -8 l-3 -108 -47 -3
-48 -3 0 104 c0 57 3 107 7 110 3 4 26 7 50 7 l44 0 -3 -107z m0 -235 l3 -108
-51 0 -50 0 0 104 c0 115 1 116 65 113 l30 -2 3 -107z m92 2 l0 -110 -34 0
c-31 0 -34 3 -40 38 -3 20 -6 70 -6 110 l0 72 40 0 40 0 0 -110z"></path>
<path d="M1590 1359 c-245 -54 -447 -104 -449 -110 -2 -6 -12 -19 -22 -27 -11
-9 -19 -26 -19 -37 0 -23 38 -65 59 -65 7 0 81 19 164 42 84 22 279 73 434
113 l283 72 51 -23 c28 -13 55 -24 60 -24 4 0 8 25 8 56 -1 56 -1 56 -43 73
-22 10 -50 21 -61 24 -11 3 -220 -39 -465 -94z"></path>
</g>
</svg>