 <svg version="1.0" xmlns="http://www.w3.org/2000/svg" viewBox="0 0 700.000000 423.000000" preserveAspectRatio="xMidYMid meet" id="mask">

<g transform="translate(0.000000,423.000000) scale(0.100000,-0.100000)">
<path d="M3880 1321 c0 -27 4 -31 36 -37 41 -8 57 4 52 37 -2 20 -10 24 -45
27 -42 3 -43 2 -43 -27z"></path>
<path d="M3997 1344 c-4 -4 -7 -20 -7 -36 0 -22 5 -28 21 -28 18 0 20 4 14 28
-8 31 -18 45 -28 36z"></path>
<path d="M4050 1321 c0 -36 12 -51 40 -51 32 0 34 3 44 43 6 26 5 27 -39 27
-38 0 -45 -3 -45 -19z"></path>
<path d="M3330 1315 c0 -10 11 -15 35 -15 26 0 33 3 29 15 -4 9 -19 15 -35 15
-19 0 -29 -5 -29 -15z"></path>
<path d="M4176 1304 c-8 -32 -9 -31 34 -36 33 -3 35 -1 38 30 3 31 2 32 -31
32 -29 0 -36 -4 -41 -26z"></path>
<path d="M4286 1308 c-11 -42 -7 -49 22 -46 23 3 27 8 27 33 0 39 -39 49 -49
13z"></path>
<path d="M3054 1308 c62 -7 91 -7 99 1 8 8 -17 11 -88 10 l-100 -2 89 -9z"></path>
<path d="M6394 1194 c-10 -16 -15 -17 -33 -6 -13 8 -36 10 -62 6 -36 -6 -40
-9 -37 -33 l3 -26 200 -13 c109 -7 205 -10 212 -8 8 3 13 22 13 46 l0 40 -47
0 c-27 0 -91 3 -143 6 -86 6 -96 4 -106 -12z"></path>
<path d="M5570 1191 c0 -9 35 -14 203 -26 82 -6 111 10 35 19 -103 13 -238 17
-238 7z"></path>
<path d="M5890 1171 c0 -16 256 -36 265 -20 9 14 -7 16 -137 23 -84 5 -128 4
-128 -3z"></path>
<path d="M6190 1150 c0 -5 9 -10 20 -10 11 0 20 5 20 10 0 6 -9 10 -20 10 -11
0 -20 -4 -20 -10z"></path>
<path d="M2760 985 c0 -52 1 -55 25 -55 24 0 25 3 25 55 0 52 -1 55 -25 55
-24 0 -25 -3 -25 -55z"></path>
<path d="M2550 954 l0 -57 53 7 c28 3 62 6 75 6 18 0 22 5 22 34 0 62 -5 66
-81 66 l-69 0 0 -56z"></path>
<path d="M2382 993 l-33 -4 3 -57 3 -57 60 4 c33 2 61 4 61 5 1 0 4 27 7 59
l5 57 -37 -2 c-20 0 -51 -3 -69 -5z"></path>
<path d="M2105 960 l-40 -5 0 -60 0 -60 40 4 c22 1 43 5 48 8 4 2 7 28 7 58 0
30 -3 55 -7 57 -5 2 -26 1 -48 -2z"></path>
<path d="M1928 942 c-33 -3 -38 -7 -38 -28 0 -21 4 -24 40 -24 26 0 43 5 46
14 10 26 -9 41 -48 38z"></path>
<path d="M1790 912 c0 -25 7 -31 30 -25 24 6 19 37 -8 41 -16 3 -22 -2 -22
-16z"></path>
<path d="M1655 913 c-78 -9 -95 -14 -95 -29 0 -14 11 -15 73 -9 39 4 74 9 76
11 6 5 -8 34 -16 33 -4 -1 -21 -4 -38 -6z"></path>
<path d="M1435 880 c-17 -7 -15 -9 13 -9 17 -1 32 4 32 9 0 12 -17 12 -45 0z"></path>
<path d="M1120 854 c-200 -21 -190 -17 -190 -69 0 -42 1 -44 33 -49 17 -2 61
-9 97 -14 61 -10 83 -9 168 4 l32 5 0 64 c0 35 -3 66 -7 68 -5 2 -64 -2 -133
-9z"></path>
<path d="M798 810 c-11 -28 -18 -140 -9 -140 5 0 13 24 16 53 7 58 3 113 -7
87z"></path>
<path d="M677 778 c-3 -13 -9 -47 -13 -77 -6 -49 -5 -54 10 -48 10 4 22 7 27
7 5 0 9 32 9 70 0 53 -3 70 -14 70 -8 0 -16 -10 -19 -22z"></path>
<path d="M371 769 c-35 -4 -70 -10 -76 -13 -11 -4 -41 -143 -33 -151 4 -5 299
33 304 38 2 1 6 33 10 70 l7 67 -74 -1 c-41 -1 -103 -5 -138 -10z"></path>
<path d="M83 738 l-83 -10 0 -79 c0 -65 3 -79 16 -79 31 0 159 22 165 28 4 4
10 40 13 80 7 66 6 72 -11 71 -10 -1 -55 -6 -100 -11z"></path>
</g>
</svg>