 <svg version="1.0" xmlns="http://www.w3.org/2000/svg" id="mask" viewBox="0 0 700.000000 428.000000" preserveAspectRatio="xMidYMid meet">

<g transform="translate(0.000000,428.000000) scale(0.100000,-0.100000)">
<path d="M5885 2730 c-66 -4 -169 -11 -229 -15 l-109 -8 6 -341 c3 -187 11
-471 17 -631 6 -159 14 -378 18 -485 l7 -195 25 -2 c14 -1 98 -7 187 -14 l162
-12 30 31 c17 17 31 37 31 46 0 19 36 40 56 32 9 -4 17 8 25 37 6 23 15 50 20
59 5 10 9 26 9 37 0 14 22 31 78 61 91 50 87 46 75 62 -21 27 -43 117 -46 184
l-2 69 45 0 c31 0 49 5 58 17 7 10 22 18 32 18 10 0 21 4 24 9 3 5 3 90 -1
188 l-6 179 -120 11 c-65 7 -121 14 -123 16 -3 2 -7 94 -11 204 l-6 200 126 8
127 7 0 28 c0 26 -14 37 -150 119 -167 102 -132 94 -355 81z"></path>
<path d="M5235 2690 c-66 -4 -163 -10 -215 -14 -52 -3 -171 -11 -265 -16 -93
-6 -240 -15 -325 -20 -85 -5 -234 -14 -330 -20 -96 -6 -204 -12 -240 -14 -36
-3 -119 -7 -185 -11 -66 -3 -183 -10 -260 -15 -77 -5 -229 -15 -338 -21 -172
-11 -197 -14 -195 -28 3 -12 14 -15 48 -13 72 4 392 21 685 37 149 8 340 19
425 25 85 5 259 14 385 20 l230 11 170 -43 170 -43 3 -229 2 -228 -23 6 c-13
3 -32 0 -41 -7 -17 -12 -17 -41 -9 -488 l8 -474 80 -6 c317 -26 387 -30 393
-25 3 3 4 180 1 394 -2 213 -3 577 -2 810 l1 422 -26 -2 c-15 0 -81 -4 -147
-8z"></path>
<path d="M43 2123 l-43 -4 0 -535 0 -534 34 0 c19 0 38 -5 41 -10 4 -6 11 -8
16 -4 6 3 63 -1 127 -11 64 -9 148 -21 185 -26 38 -5 72 -7 76 -5 4 3 24 1 44
-5 l37 -10 -3 -107 c-2 -59 -5 -111 -7 -117 -1 -5 -2 -38 -1 -71 l1 -61 98 19
c53 10 120 23 148 29 l51 10 7 317 c3 174 9 407 12 518 l7 201 129 7 c105 5
767 29 1078 39 l75 2 0 -402 -1 -401 36 -4 c37 -3 693 121 705 134 4 4 5 15 1
24 -5 13 -14 15 -42 9 -20 -3 -78 -13 -130 -20 -51 -8 -104 -17 -118 -21 l-26
-6 0 500 0 499 -112 7 c-62 3 -297 10 -523 16 -225 6 -564 15 -752 20 -322 9
-1058 11 -1150 3z"></path>
</g>
</svg>