 <svg version="1.0" xmlns="http://www.w3.org/2000/svg" id="mask" viewBox="0 0 700.000000 428.000000" preserveAspectRatio="xMidYMid meet">

<g transform="translate(0.000000,428.000000) scale(0.100000,-0.100000)">
<path d="M4493 2603 c-4 -1 -100 -7 -213 -13 -113 -6 -279 -15 -370 -20 -91
-5 -244 -14 -340 -20 -96 -5 -215 -12 -265 -15 -355 -21 -453 -26 -635 -35
-113 -5 -230 -11 -260 -12 -68 -4 -68 -3 -69 -169 l-1 -126 258 -7 c377 -10
526 -17 534 -24 3 -4 9 -23 13 -43 l7 -37 -75 -4 c-42 -2 -79 -6 -83 -10 -3
-4 -9 -208 -12 -454 l-5 -446 24 7 c27 9 149 9 157 0 4 -3 1 -20 -6 -37 -8
-23 -9 -34 -1 -39 15 -9 200 -22 207 -14 4 4 8 226 10 495 l3 489 52 6 c76 9
1517 11 1550 2 l27 -7 -2 227 -3 227 -175 43 c-137 33 -191 42 -247 40 -40 -1
-76 -3 -80 -4z"></path>
</g>
</svg>