 <svg version="1.0" xmlns="http://www.w3.org/2000/svg" viewBox="0 0 700.000000 423.000000" preserveAspectRatio="xMidYMid meet" id="mask">

<g transform="translate(0.000000,423.000000) scale(0.100000,-0.100000)">
<path d="M27 3443 l-27 -4 0 -1404 0 -1404 107 45 c588 246 1329 557 1331 559
1 1 3 68 3 148 l2 147 38 10 39 11 0 685 -1 686 -523 258 -523 258 -209 5
c-115 3 -221 3 -237 0z m861 -735 c78 -21 82 -24 82 -50 0 -27 -1 -28 -57 -27
-32 0 -92 10 -133 22 -68 20 -75 25 -78 50 -3 26 -2 27 50 27 29 0 90 -10 136
-22z m-105 -140 l387 -83 0 -105 c0 -58 -3 -162 -7 -232 l-6 -128 -405 0 -405
0 6 118 c4 64 10 206 13 315 5 133 10 197 18 197 6 0 185 -37 399 -82z m545
-1159 c-23 -15 -28 -10 -28 25 0 25 5 36 18 38 21 4 31 -50 10 -63z m-48 21
c0 -31 -22 -50 -59 -50 -16 0 -21 6 -21 29 0 23 6 32 28 39 44 17 52 14 52
-18z"></path>
<path d="M6628 3403 c-153 -3 -198 -6 -198 -16 0 -7 -14 -28 -31 -45 -18 -18
-24 -30 -15 -26 12 5 16 0 18 -17 2 -43 3 -48 11 -55 4 -4 7 -38 7 -76 0 -64
-2 -69 -25 -78 l-25 -10 0 -382 c0 -211 3 -481 7 -600 l6 -218 24 0 c14 0 23
-6 23 -15 0 -20 -34 -20 -515 10 -479 30 -433 29 -438 8 -3 -15 -6 -13 -14 7
-8 18 -7 29 1 39 8 10 12 141 14 437 l3 423 -25 7 c-16 4 -23 11 -19 20 3 8
-1 14 -10 14 -21 0 -16 48 11 90 12 19 20 41 17 47 -6 18 -68 -11 884 416 22
10 6 13 -99 15 l-125 3 -465 -233 -465 -233 -6 -42 c-3 -23 -11 -48 -17 -56
-9 -11 -12 -196 -10 -783 l3 -769 100 -42 c55 -23 106 -42 113 -42 8 -1 12 19
12 68 0 59 -3 69 -19 74 -15 3 -21 17 -26 53 -4 27 -8 55 -11 62 -2 8 -6 81
-8 164 l-4 150 42 -7 c56 -10 99 -13 259 -14 130 -1 137 -2 137 -21 0 -11 1
-20 3 -20 1 0 24 7 51 15 27 8 60 15 74 15 20 0 24 -4 20 -24 -6 -28 1 -31 97
-41 113 -12 360 -45 375 -50 16 -5 597 -85 618 -85 9 0 12 193 12 930 l0 930
-67 0 c-38 0 -77 2 -88 3 -11 2 -109 1 -217 0z"></path>
<path d="M5760 1121 c0 -78 1 -81 28 -94 66 -34 1074 -439 1079 -434 3 3 1 61
-3 128 l-9 122 -60 13 c-44 9 -907 297 -1019 340 -14 5 -16 -5 -16 -75z"></path>
</g>
</svg>