 <svg version="1.0" xmlns="http://www.w3.org/2000/svg" viewBox="0 0 700.000000 423.000000" preserveAspectRatio="xMidYMid meet" id="mask">

<g transform="translate(0.000000,423.000000) scale(0.100000,-0.100000)">
<path d="M5150 1250 c0 -29 5 -33 94 -74 140 -65 138 -65 134 -21 -3 37 -4 38
-94 75 -138 57 -134 57 -134 20z"></path>
<path d="M880 999 c-300 -126 -620 -261 -712 -300 l-168 -71 0 -65 c0 -48 3
-64 13 -60 6 3 311 143 677 312 366 169 684 315 708 326 38 17 42 22 42 54 0
19 -3 35 -7 34 -5 0 -253 -104 -553 -230z"></path>
<path d="M5760 987 l0 -43 546 -245 c301 -134 551 -246 556 -247 5 -2 8 25 6
64 l-3 67 -549 224 c-302 123 -551 223 -552 223 -2 0 -4 -19 -4 -43z"></path>
</g>
</svg>