 <svg version="1.0" xmlns="http://www.w3.org/2000/svg" id="mask" viewBox="0 0 700.000000 423.000000" preserveAspectRatio="xMidYMid meet">

<g transform="translate(0.000000,423.000000) scale(0.100000,-0.100000)">
<path d="M31 4008 l-31 -20 0 -1342 0 -1342 27 -16 c20 -11 40 -14 68 -9 l40
6 3 368 c2 322 0 367 -13 367 -8 0 -15 8 -15 19 0 16 14 19 123 30 182 18 167
10 167 86 0 58 -2 65 -20 65 -23 0 -27 25 -5 34 13 5 15 44 15 269 0 145 -3
372 -7 505 -6 222 -8 242 -24 242 -14 0 -19 12 -24 54 -8 63 -4 80 33 123 l27
32 935 -115 934 -114 38 37 c21 21 37 42 35 48 -10 25 13 128 32 146 16 15 19
27 14 56 -3 21 -7 40 -9 42 -4 4 -65 16 -1364 265 -503 97 -922 178 -931 180
-9 2 -31 -5 -48 -16z"></path>
<path d="M4255 3801 c-29 -6 -30 -7 -30 -69 1 -34 2 -195 3 -357 l2 -295 70 0
70 0 0 348 c0 325 -1 350 -18 365 -19 17 -44 19 -97 8z"></path>
<path d="M3899 3753 c-38 -3 -48 -9 -58 -29 -15 -33 -15 -33 13 -43 20 -8 24
-19 31 -83 5 -40 9 -84 9 -97 1 -14 14 -33 34 -48 l32 -26 2 122 c1 66 2 140
3 163 0 46 0 46 -66 41z"></path>
<path d="M2765 3573 c-162 -23 -252 -25 -327 -7 -27 6 -28 5 -28 -37 0 -33 5
-47 19 -56 17 -11 31 -68 35 -139 1 -6 21 -33 45 -59 l44 -48 221 14 221 14
-3 150 c-3 152 -12 196 -41 194 -9 -1 -92 -12 -186 -26z"></path>
<path d="M3797 3163 c-4 -3 -7 -30 -7 -60 l0 -53 48 0 c26 0 64 3 85 6 l37 7
0 53 0 54 -78 0 c-43 0 -82 -3 -85 -7z"></path>
</g>
</svg>