 <svg version="1.0" xmlns="http://www.w3.org/2000/svg" id="mask" viewBox="0 0 700.000000 423.000000" preserveAspectRatio="xMidYMid meet">

<g transform="translate(0.000000,423.000000) scale(0.100000,-0.100000)">
<path d="M364 3434 c-22 -29 -27 -45 -25 -82 3 -65 9 -82 32 -82 19 0 19 -13
19 -510 l0 -511 73 3 72 3 -3 528 c-2 290 0 527 5 527 13 0 632 -59 691 -65
l52 -6 0 -193 c0 -106 3 -315 7 -465 l6 -272 56 3 56 3 -2 453 -3 452 35 0
c20 0 100 -6 178 -14 78 -8 180 -18 227 -21 47 -3 92 -8 101 -11 14 -4 17 -35
23 -247 3 -133 9 -317 12 -409 6 -163 7 -168 28 -168 11 0 31 3 44 6 l22 6 0
401 0 400 75 -7 c67 -6 76 -5 81 11 3 10 12 31 20 47 8 16 13 30 12 31 -2 1
-176 23 -388 48 -212 26 -624 76 -917 112 -293 36 -539 65 -547 65 -8 0 -27
-16 -42 -36z"></path>
<path d="M2750 3235 c-91 -7 -173 -13 -182 -14 -16 -1 -16 -4 2 -43 24 -53 25
-94 4 -102 -9 -3 -33 -6 -55 -6 l-39 0 0 -226 c0 -176 3 -225 13 -221 14 5 67
-20 67 -32 0 -5 7 -8 16 -7 9 0 19 -5 21 -11 3 -9 -6 -13 -26 -13 -17 0 -31 4
-31 9 0 5 -9 11 -20 14 -19 5 -20 0 -20 -79 l0 -85 58 3 57 3 3 346 2 346 182
12 c100 6 185 14 190 17 4 3 8 27 8 55 l0 49 -42 -1 c-24 -1 -117 -8 -208 -14z"></path>
</g>
</svg>