 <svg version="1.0" xmlns="http://www.w3.org/2000/svg" id="mask" viewBox="0 0 700.000000 464.000000" preserveAspectRatio="xMidYMid meet">

<g transform="translate(0.000000,464.000000) scale(0.100000,-0.100000)">
<path d="M4536 3353 l-379 -3 6 -227 c4 -124 7 -304 7 -400 l0 -173 24 0 c13
0 35 9 49 20 14 11 32 20 40 20 18 0 166 47 188 59 9 5 36 15 60 21 64 17 118
43 119 58 0 8 -20 12 -68 12 l-69 0 -6 237 c-4 131 -3 241 2 246 4 4 48 7 97
5 l89 -3 6 -160 c4 -88 7 -200 8 -248 l1 -89 32 8 c18 3 46 12 63 20 29 12 85
31 175 59 125 39 140 46 135 69 -2 11 -6 120 -10 240 -4 159 -9 222 -18 228
-6 4 -48 7 -92 5 -44 -1 -251 -3 -459 -4z"></path>
<path d="M2260 2934 c-278 -7 -586 -17 -685 -21 l-180 -8 -3 -138 c-2 -88 1
-136 7 -133 5 4 61 13 123 22 62 9 130 18 151 21 l37 5 0 74 0 74 60 0 60 0 0
-60 c0 -53 2 -60 20 -60 18 0 20 7 20 60 0 50 3 60 18 60 9 0 34 3 55 6 l37 7
0 -62 c0 -54 2 -62 18 -59 13 2 18 15 20 61 l3 57 59 0 60 0 0 -45 c0 -30 4
-45 13 -45 7 0 85 9 173 21 87 11 186 23 218 25 33 3 66 9 75 13 9 5 47 12 85
16 38 4 97 13 130 19 l61 13 3 46 3 47 -68 -1 c-37 -1 -295 -8 -573 -15z"></path>
<path d="M5130 2795 c-184 -62 -328 -116 -320 -119 50 -17 110 -35 140 -41 19
-4 40 -11 45 -15 6 -4 82 -29 170 -55 88 -26 179 -53 203 -61 23 -8 49 -14 57
-14 10 0 15 -10 15 -29 0 -22 -9 -37 -35 -57 -30 -23 -40 -25 -68 -18 -26 8
-33 16 -37 43 -5 31 -10 36 -60 53 -30 10 -64 22 -75 25 -11 3 -92 28 -180 55
-88 28 -192 59 -231 70 l-72 21 -308 -103 -307 -103 6 -261 c4 -144 7 -321 7
-393 l0 -133 93 0 92 0 -3 157 c-4 217 18 292 115 394 65 69 98 91 185 125
150 58 333 10 457 -121 80 -85 102 -143 112 -305 4 -74 8 -156 9 -181 l0 -46
103 -9 102 -9 3 -122 3 -123 70 0 c64 0 70 2 65 18 -4 11 1 25 12 36 27 23 18
66 -13 66 -13 0 -25 7 -29 15 -3 8 -1 15 5 15 5 0 14 11 19 25 5 14 14 25 19
25 5 0 11 8 13 18 3 13 11 7 30 -24 15 -23 33 -44 39 -46 20 -7 0 -28 -27 -28
-21 0 -24 -4 -24 -40 0 -30 4 -40 16 -40 12 0 15 -6 11 -21 -6 -21 -4 -22 81
-15 48 3 278 6 512 6 234 0 508 3 609 7 l184 6 -6 184 -6 183 35 0 34 0 0 300
c0 290 -1 300 -19 300 -11 0 -23 -4 -26 -10 -3 -5 -15 -10 -26 -10 -10 0 -19
-5 -19 -11 0 -5 -4 -7 -10 -4 -5 3 -10 26 -10 49 l0 43 -77 23 c-132 39 -611
187 -1098 340 -126 40 -234 74 -240 76 -5 1 -161 -48 -345 -111z m365 14 c0
-15 -7 -25 -18 -27 -22 -4 -33 24 -17 43 18 21 35 13 35 -16z m11 -114 c8 -20
-13 -45 -32 -38 -14 5 -19 34 -7 46 11 12 33 7 39 -8z m10 -130 c8 -20 -13
-45 -32 -38 -8 3 -14 16 -14 29 0 17 6 24 20 24 11 0 23 -7 26 -15z m-806 -35
c0 -23 -24 -42 -44 -34 -21 8 -21 40 1 52 22 13 43 4 43 -18z m1757 -537 c7
-114 11 -209 9 -210 -2 -2 -36 -4 -77 -5 l-74 -2 -6 80 c-4 43 -9 139 -13 212
l-6 132 78 0 78 0 11 -207z m-744 60 c4 -75 7 -169 7 -209 l0 -72 -71 -7 c-38
-4 -72 -5 -74 -3 -6 5 -23 412 -18 421 2 4 37 7 77 7 l73 0 6 -137z m370 80
c3 -32 6 -96 6 -143 1 -47 4 -115 7 -152 l7 -68 -82 0 -81 0 0 38 c-1 80 -11
299 -15 340 l-5 42 79 0 78 0 6 -57z"></path>
<path d="M2903 2482 c-18 -23 -33 -45 -33 -49 0 -21 -22 -32 -41 -20 -15 9
-24 9 -41 -2 -16 -10 -23 -10 -26 -2 -5 15 -166 15 -194 0 -15 -8 -22 -8 -28
1 -6 9 -26 11 -76 5 -38 -4 -124 -7 -192 -6 -75 1 -131 -3 -143 -10 -17 -8
-23 -8 -29 1 -5 8 -15 10 -26 6 -10 -4 -95 -7 -188 -7 -98 0 -177 -4 -189 -10
-13 -8 -22 -8 -30 0 -17 17 -143 14 -180 -5 -21 -12 -32 -13 -35 -5 -5 14
-141 15 -178 1 -20 -8 -29 -8 -35 1 -5 8 -29 10 -85 5 -44 -4 -122 -7 -174 -6
-52 1 -107 -3 -122 -9 -18 -7 -28 -7 -28 -1 0 14 -130 13 -170 -1 -25 -9 -34
-9 -40 1 -6 9 -28 10 -91 4 l-84 -9 -7 -295 c-4 -162 -9 -328 -10 -367 l-4
-73 107 0 106 0 7 168 c3 92 9 226 13 298 l6 131 66 7 c36 3 179 6 316 6 138
0 435 4 660 10 226 5 526 11 668 14 l257 4 0 -309 0 -309 114 0 c62 0 134 -3
160 -6 l46 -7 -1 199 c-1 110 -5 309 -8 443 l-6 243 -32 -40z m-124 -375 c29
-29 -11 -88 -46 -68 -10 6 -15 11 -11 11 4 0 3 13 -1 28 -6 19 -4 34 5 47 8
10 14 30 14 44 1 22 3 20 15 -13 7 -21 18 -43 24 -49z m-2216 -6 c-2 -9 3 -23
11 -30 22 -18 20 -43 -4 -64 -43 -36 -81 25 -53 83 7 14 15 34 18 45 6 19 7
19 20 2 7 -10 11 -26 8 -36z"></path>
<path d="M4563 2216 c-65 -31 -128 -94 -155 -154 -27 -61 -31 -142 -21 -476 5
-183 12 -271 19 -273 7 -2 11 11 11 35 0 43 19 86 34 76 5 -3 7 -14 4 -24 -3
-10 1 -25 11 -34 9 -9 14 -25 11 -36 -3 -12 0 -20 6 -20 12 0 10 163 -8 643
l-7 187 160 0 160 0 6 -112 c3 -62 8 -239 12 -392 7 -341 1 -325 121 -326 45
0 87 -2 95 -5 15 -6 15 0 -1 430 -11 277 -19 320 -76 390 -19 22 -59 56 -91
75 -52 31 -65 34 -148 38 -80 3 -97 0 -143 -22z"></path>
<path d="M2050 2139 c-234 -4 -528 -10 -655 -13 -126 -3 -311 -6 -411 -6
l-181 0 -7 -407 c-4 -225 -9 -432 -12 -460 -6 -48 -5 -53 14 -53 20 0 20 6 21
223 0 122 3 315 7 429 l7 207 26 5 c20 4 1372 30 1604 31 45 0 47 1 47 28 0
20 -5 27 -17 25 -10 -1 -209 -5 -443 -9z"></path>
<path d="M4303 1268 c-49 -34 -42 -48 22 -48 l55 0 0 35 c0 30 -3 35 -23 35
-12 0 -37 -10 -54 -22z"></path>
<path d="M4100 1265 c0 -8 7 -15 15 -15 9 0 15 -9 15 -21 0 -17 4 -20 23 -15
12 3 32 6 45 6 13 0 22 6 22 15 0 10 -10 15 -30 15 -18 0 -33 6 -36 15 -4 8
-17 15 -30 15 -15 0 -24 -6 -24 -15z"></path>
<path d="M523 1263 c-100 -4 -103 -4 -103 -27 0 -22 3 -23 133 -29 72 -4 142
-10 155 -13 20 -6 22 -3 22 35 l0 41 -52 -2 c-29 -1 -99 -4 -155 -5z"></path>
<path d="M2738 1247 c12 -13 22 -29 22 -36 0 -8 12 -11 33 -9 28 3 32 7 35 36
l3 32 -57 0 -57 0 21 -23z"></path>
</g>
</svg>