 <svg version="1.0" xmlns="http://www.w3.org/2000/svg" id="mask" viewBox="0 0 700.000000 464.000000" preserveAspectRatio="xMidYMid meet">

<g transform="translate(0.000000,464.000000) scale(0.100000,-0.100000)">
<path d="M3400 3609 c-63 -22 -201 -70 -306 -106 l-191 -65 -6 -111 c-3 -61
-3 -245 0 -408 l6 -298 23 -5 c24 -6 42 -46 29 -65 -3 -6 -6 -203 -6 -438 1
-399 7 -610 19 -599 2 3 13 -5 23 -17 17 -21 18 -21 19 -3 0 20 0 20 15 0 13
-17 14 -17 15 -1 0 13 6 16 23 12 12 -3 32 -7 45 -8 33 -5 45 -27 24 -45 -15
-12 -13 -13 15 -8 22 4 33 1 37 -9 4 -11 -2 -15 -18 -15 -24 0 -51 -22 -39
-33 3 -4 0 -13 -7 -22 -11 -13 -7 -15 33 -15 31 0 49 -5 54 -15 11 -19 77 -9
70 10 -3 7 5 12 24 12 15 0 26 -5 22 -10 -11 -19 -15 -77 -4 -77 6 0 11 -6 11
-14 0 -9 20 -15 61 -20 112 -11 109 -13 103 42 -3 26 -13 58 -23 72 -25 36
-80 62 -118 56 -18 -3 -33 -1 -33 5 0 5 34 9 75 9 86 0 97 13 44 52 -19 15
-29 29 -26 40 5 16 -5 18 -104 18 -92 0 -111 3 -116 16 -10 26 14 230 37 319
43 170 134 300 244 351 46 21 60 23 95 15 130 -29 251 -173 300 -356 10 -38
26 -105 36 -148 13 -63 19 -76 30 -67 8 7 15 7 19 1 9 -14 -4 -41 -20 -41 -15
0 -13 -49 5 -93 15 -39 15 -41 -20 -68 l-30 -23 23 -9 c14 -6 18 -11 10 -14
-6 -3 -9 -9 -6 -15 3 -5 -2 -16 -12 -24 -18 -13 -18 -14 4 -20 22 -6 32 -34
12 -34 -5 0 -10 -9 -10 -21 0 -11 -5 -17 -10 -14 -6 4 -8 11 -5 16 4 5 2 9 -3
9 -6 0 -12 -7 -16 -15 -4 -10 5 -20 29 -29 19 -8 35 -20 35 -25 0 -6 7 -11 16
-11 10 0 14 6 10 15 -7 18 -2 19 27 3 21 -11 21 -10 7 7 -14 17 -13 18 3 12
14 -5 17 -1 18 26 l1 32 15 -35 15 -35 10 25 c11 25 14 1117 4 1127 -3 3 -26
-3 -52 -13 -35 -13 -49 -15 -52 -6 -2 7 -14 12 -27 12 -13 0 -26 3 -28 8 -7
12 11 52 24 52 7 0 35 11 63 24 28 13 68 27 89 31 20 4 40 11 43 16 3 5 14 9
26 9 20 0 20 2 14 383 -4 210 -9 419 -12 464 l-6 82 -46 15 c-119 38 -561 166
-573 166 -8 0 -66 -19 -129 -41z m150 -39 c13 -25 5 -40 -21 -40 -25 0 -35 25
-19 45 17 20 27 19 40 -5z m171 -520 l4 -275 -193 -3 -192 -2 2 277 3 278 180
5 c99 3 183 3 186 0 4 -3 9 -129 10 -280z m269 30 l0 -50 -45 0 c-43 0 -44 1
-51 35 -10 54 -1 65 51 65 l45 0 0 -50z m-832 -22 l-3 -43 -47 -3 -48 -3 0 45
0 46 51 0 50 0 -3 -42z m797 -1698 c3 -5 1 -10 -4 -10 -6 0 -11 5 -11 10 0 6
2 10 4 10 3 0 8 -4 11 -10z m-555 -40 c11 -7 5 -10 -22 -10 -21 0 -38 5 -38
10 0 13 40 13 60 0z m8 -41 c-2 -6 -8 -10 -13 -10 -5 0 -11 4 -13 10 -2 6 4
11 13 11 9 0 15 -5 13 -11z"></path>
<path d="M3900 1530 c-8 -5 -11 -12 -7 -16 4 -4 13 -2 19 4 15 15 7 24 -12 12z"></path>
<path d="M3700 1521 c0 -5 -9 -13 -21 -16 -15 -5 -18 -10 -10 -18 6 -6 11 -15
11 -21 0 -6 -5 -5 -12 2 -20 20 -40 15 -33 -9 5 -15 4 -19 -4 -14 -7 4 -18 1
-26 -5 -12 -10 -15 -9 -16 6 0 21 -26 -41 -39 -96 -5 -19 -6 -54 -3 -77 l6
-43 48 0 c51 0 60 8 34 30 -19 16 -19 30 -1 30 8 0 16 12 18 26 3 23 9 28 41
31 20 2 37 -1 37 -6 0 -5 9 -11 20 -14 25 -7 25 1 -1 29 l-20 22 30 22 c29 20
43 60 21 60 -5 0 -10 4 -10 9 0 5 9 7 20 4 14 -4 20 0 20 11 0 9 8 16 20 16
27 0 25 16 -2 24 -36 9 -128 7 -128 -3z"></path>
<path d="M2960 1469 c0 -18 2 -19 15 -9 15 12 12 30 -6 30 -5 0 -9 -10 -9 -21z"></path>
</g>
</svg>