 <svg version="1.0" xmlns="http://www.w3.org/2000/svg" id="mask" viewBox="0 0 700.000000 464.000000" preserveAspectRatio="xMidYMid meet">

<g transform="translate(0.000000,464.000000) scale(0.100000,-0.100000)">
<path d="M3347 3188 c-4 -79 -7 -205 -7 -280 l0 -138 149 0 c81 0 168 3 192 6
l44 6 -3 274 -3 274 -183 0 -183 0 -6 -142z m337 20 c8 -112 12 -395 6 -401
-3 -2 -71 -7 -152 -10 l-148 -6 0 250 0 249 144 0 144 0 6 -82z"></path>
<path d="M4640 2350 c-97 -10 -170 -47 -254 -132 -101 -102 -108 -123 -115
-368 l-6 -195 -97 -3 -98 -3 0 -157 c0 -169 8 -205 48 -210 23 -4 24 -3 22 85
0 23 5 45 11 49 9 5 10 -1 5 -22 -5 -24 -4 -26 5 -10 8 13 8 25 0 43 -9 20 -8
28 9 45 24 26 22 39 -8 53 -13 6 -22 19 -22 32 0 28 7 29 34 6 20 -17 20 -17
6 1 -14 18 -14 19 5 9 25 -14 65 -59 65 -74 0 -15 37 32 49 63 9 22 10 22 10
2 1 -12 -6 -27 -14 -34 -8 -7 -15 -17 -15 -22 0 -6 7 -5 15 2 8 7 15 9 15 4 0
-14 -13 -30 -35 -43 -18 -11 -16 -12 15 -8 l35 5 3 -69 c2 -37 -2 -77 -8 -89
-10 -19 -8 -20 31 -20 l41 0 -4 368 -3 367 29 53 c35 62 77 102 146 137 41 21
63 25 136 25 78 0 92 -3 146 -32 66 -35 121 -92 149 -153 19 -44 35 -277 41
-600 3 -157 7 -184 30 -185 14 0 6 109 -8 121 -28 23 1 29 147 29 l149 0 0
109 c0 60 -3 116 -6 125 -5 13 -24 16 -103 16 l-97 0 -12 186 c-10 172 -13
190 -40 247 -45 96 -110 161 -206 206 -89 43 -144 52 -246 41z m-476 -858
c-12 -9 -24 -26 -28 -36 -9 -27 -20 -12 -12 18 5 22 20 32 51 35 6 0 1 -7 -11
-17z m163 -4 c-3 -8 -6 -5 -6 6 -1 11 2 17 5 13 3 -3 4 -12 1 -19z"></path>
<path d="M2079 2256 c-2 -2 -186 -7 -409 -10 -223 -3 -540 -9 -706 -12 l-301
-7 -6 -126 c-4 -69 -7 -180 -7 -246 0 -66 -3 -144 -6 -172 l-7 -53 -114 0
c-113 0 -114 0 -123 -26 -6 -14 -10 -98 -10 -186 l0 -161 173 4 172 4 3 -36
c3 -30 6 -36 21 -32 27 7 29 45 37 516 l7 407 81 0 c157 1 1164 19 1394 26
l232 7 0 -442 c0 -294 3 -441 10 -441 15 0 32 50 26 75 -3 11 -1 26 3 34 7 11
11 10 20 -5 13 -24 14 -13 1 20 -5 14 -6 26 -2 26 8 0 10 12 16 85 2 22 4 45
5 52 1 10 46 12 55 2 2 -2 13 -33 24 -69 11 -36 25 -78 31 -95 6 -16 13 -51
16 -77 l6 -48 55 0 54 0 0 34 c0 28 -4 35 -22 38 -28 4 -40 58 -14 58 9 0 16
5 16 10 0 6 25 10 55 10 37 0 61 5 75 17 22 19 27 53 8 53 -9 0 -9 3 0 12 7 7
12 36 12 65 0 72 -11 76 -187 81 -98 3 -143 8 -144 16 0 6 0 143 1 304 l1 292
-274 0 c-150 0 -276 -2 -278 -4z"></path>
<path d="M3462 2208 c-108 -52 -198 -192 -236 -365 -7 -28 -5 -31 14 -26 16 4
18 8 9 19 -9 11 -9 13 2 9 11 -4 19 12 31 60 35 130 146 276 232 305 35 11 42
10 94 -16 117 -61 226 -268 248 -473 3 -35 13 -64 25 -77 11 -12 19 -27 17
-34 -2 -7 3 -15 10 -17 19 -7 14 21 -9 46 -14 15 -18 25 -11 30 13 8 9 98 -8
161 -37 142 -75 216 -154 298 -95 100 -174 124 -264 80z"></path>
<path d="M3215 1788 c-7 -19 -25 -177 -25 -215 l0 -33 117 0 116 0 -23 25
c-21 22 -32 25 -92 25 -62 0 -68 2 -68 21 0 15 -5 19 -15 15 -21 -8 -19 9 4
25 14 11 20 30 24 82 4 61 3 67 -14 67 -11 0 -22 -6 -24 -12z"></path>
<path d="M3577 1568 c-9 -32 -3 -33 26 -4 l26 26 -23 0 c-16 0 -26 -7 -29 -22z"></path>
<path d="M3670 1581 c0 -25 33 -41 86 -41 52 0 55 2 52 23 -3 20 -9 22 -70 25
-40 2 -68 -1 -68 -7z"></path>
<path d="M3898 1543 c7 -3 16 -2 19 1 4 3 -2 6 -13 5 -11 0 -14 -3 -6 -6z"></path>
<path d="M4190 1475 c-6 -8 -10 -19 -8 -25 2 -6 11 -2 20 9 10 11 13 23 9 26
-5 2 -14 -2 -21 -10z"></path>
</g>
</svg>