 <svg version="1.0" xmlns="http://www.w3.org/2000/svg" viewBox="0 0 700.000000 423.000000" preserveAspectRatio="xMidYMid meet" id="mask">

<g transform="translate(0.000000,423.000000) scale(0.100000,-0.100000)">
<path d="M1553 3983 c4 -137 7 -429 7 -651 l1 -403 47 6 47 5 -42 -17 c-61
-27 -62 -34 -2 -17 30 7 63 13 74 13 11 0 -13 -10 -52 -21 -40 -11 -73 -24
-73 -30 0 -5 8 -7 18 -4 47 14 111 25 142 25 23 -1 5 -7 -55 -21 -127 -28
-132 -41 -15 -35 l95 6 -80 -14 c-44 -7 -86 -14 -92 -14 -7 -1 -13 -5 -13 -11
0 -6 39 -11 93 -12 l92 -2 -80 -5 c-74 -6 -77 -7 -41 -14 27 -6 35 -11 26 -17
-9 -5 -2 -10 20 -15 24 -5 29 -10 19 -16 -11 -8 -8 -15 16 -35 l30 -25 -40 16
c-22 9 -55 25 -73 36 -71 41 -66 132 -58 -1006 l7 -1025 -200 0 c-110 0 -202
-4 -205 -8 -2 -4 2 -54 10 -111 8 -57 12 -112 9 -123 -6 -17 3 -18 187 -17
106 0 257 4 335 7 131 7 144 9 167 31 l26 24 0 1874 0 1873 -177 0 -176 0 6
-247z"></path>
<path d="M6095 3993 c-4 -131 -10 -962 -14 -1848 l-8 -1610 34 -35 33 -35 128
-6 c70 -3 263 -8 430 -11 l302 -5 0 129 0 128 -282 0 -281 0 7 1712 c4 942 9
1737 13 1766 l6 52 -180 0 -180 0 -8 -237z"></path>
<path d="M0 650 c0 -18 3 -30 7 -28 73 35 79 51 25 56 -30 3 -32 1 -32 -28z"></path>
<path d="M1037 552 c-43 -44 -48 -53 -45 -88 l3 -39 49 -3 c73 -5 74 -3 64 65
-5 32 -13 71 -16 86 l-7 28 -48 -49z"></path>
<path d="M448 473 c-163 -2 -288 -7 -288 -12 0 -5 -3 -16 -6 -25 -6 -14 32
-16 376 -16 l381 0 -3 28 -3 27 -85 0 c-47 1 -214 -1 -372 -2z"></path>
<path d="M0 445 c0 -22 4 -25 40 -25 36 0 40 3 40 25 0 23 -4 25 -40 25 -36 0
-40 -2 -40 -25z"></path>
</g>
</svg>