 <svg version="1.0" xmlns="http://www.w3.org/2000/svg" viewBox="0 0 700.000000 423.000000" preserveAspectRatio="xMidYMid meet" id="mask">
<g transform="translate(0.000000,423.000000) scale(0.100000,-0.100000)">
<path d="M4210 4056 l-495 -171 -3 -74 c-2 -41 1 -78 6 -83 8 -8 1585 463
1647 491 13 6 -105 9 -320 9 l-340 0 -495 -172z"></path>
<path d="M6540 3990 c-245 -59 -967 -232 -1605 -384 -638 -152 -1168 -279
-1178 -282 -16 -5 -17 -59 -15 -992 l3 -987 35 -3 c19 -2 113 -16 209 -32 201
-33 217 -42 215 -113 -1 -23 -3 -48 -5 -56 -5 -16 39 -27 136 -32 l60 -4 -1
52 -2 52 57 11 c152 31 150 31 153 53 3 19 14 24 98 37 l95 15 0 148 c0 146 0
147 23 147 19 0 21 -3 12 -19 -13 -25 -13 -258 0 -266 6 -3 19 -3 30 0 20 6
21 13 18 201 l-3 194 34 0 c27 0 31 -3 22 -14 -8 -9 -11 -70 -9 -197 l3 -184
375 -37 c1105 -108 1580 -157 1589 -162 5 -3 11 -97 15 -208 4 -112 9 -204 11
-206 2 -2 22 -6 44 -9 l41 -6 0 1697 c0 933 -3 1695 -7 1695 -5 -1 -208 -50
-453 -109z m-197 -2111 c4 -237 5 -434 3 -438 -4 -6 -1198 76 -1223 84 -10 3
-13 87 -13 375 0 203 3 370 8 371 4 0 275 9 602 18 327 10 600 19 606 20 7 1
13 -129 17 -430z"></path>
</g>
</svg>