<svg version="1.0" xmlns="http://www.w3.org/2000/svg" viewBox="0 0 700.000000 423.000000" preserveAspectRatio="xMidYMid meet" id="mask">
<g transform="translate(0.000000,423.000000) scale(0.100000,-0.100000)">
<path d="M2035 4219 c15 -7 1102 -334 1602 -482 40 -11 75 -18 78 -15 10 10
-7 160 -19 164 -6 2 -238 80 -515 174 l-504 170 -331 -1 c-215 0 -324 -4 -311
-10z"></path>
<path d="M0 2694 l0 -1405 32 5 c18 3 123 13 233 22 110 9 210 21 223 25 l23
9 -7 1075 -7 1075 24 -1 c13 0 357 -55 764 -122 l740 -122 6 -245 c3 -135 7
-426 8 -646 1 -350 3 -403 17 -414 31 -26 35 -47 23 -122 -6 -40 -17 -85 -25
-100 -8 -15 -14 -43 -14 -63 0 -32 2 -35 30 -35 l30 0 0 -75 0 -75 44 0 c24 0
106 6 182 14 77 8 198 18 269 21 72 4 133 9 136 11 4 2 2 24 -4 48 -10 44 -9
46 26 86 28 30 37 49 37 75 0 35 0 35 -44 35 -24 0 -58 3 -75 6 -36 7 -36 3
10 150 l29 91 53 7 c119 14 112 17 161 -88 25 -52 47 -104 51 -114 6 -22 3
-23 -93 -38 l-44 -6 7 -47 c4 -33 15 -54 37 -75 27 -26 29 -33 23 -74 -6 -37
-4 -44 8 -39 8 3 57 9 109 13 167 12 261 -22 318 -115 l30 -49 78 -6 c42 -4
119 -14 169 -22 51 -8 100 -14 108 -14 13 0 15 113 15 985 l0 985 -22 5 c-13
3 -155 36 -316 74 l-293 68 -67 -14 c-49 -10 -79 -11 -112 -4 -25 6 -272 59
-550 120 -278 60 -725 159 -995 221 -269 61 -683 153 -920 206 -237 52 -438
96 -447 98 -17 4 -18 -68 -18 -1400z"></path>
</g>
</svg>