 <svg version="1.0" xmlns="http://www.w3.org/2000/svg" id="mask" viewBox="0 0 700.000000 569.000000" preserveAspectRatio="xMidYMid meet">

<g transform="translate(0.000000,569.000000) scale(0.100000,-0.100000)">
<path d="M3750 4571 c-179 -87 -396 -192 -482 -234 l-158 -76 0 -34 c0 -42 10
-47 91 -47 74 0 81 -22 13 -39 -25 -7 -56 -23 -70 -38 -23 -24 -28 -26 -94
-20 -49 4 -86 1 -122 -10 -57 -16 -77 -35 -78 -71 0 -13 -6 -22 -12 -21 -22 4
-68 -24 -68 -40 0 -15 -31 -16 -317 -15 -175 1 -390 7 -478 13 -88 6 -236 16
-330 21 -250 15 -304 19 -365 30 -96 18 -318 28 -363 18 -23 -6 -59 -14 -79
-19 l-37 -9 75 -79 c66 -69 81 -80 122 -88 l47 -8 3 -47 3 -47 72 -26 c40 -15
108 -45 152 -66 44 -21 97 -45 117 -53 39 -15 42 -33 11 -64 -33 -33 -15 -37
247 -52 195 -10 359 -18 560 -25 74 -3 230 -10 345 -15 473 -22 567 -29 582
-41 8 -7 33 -14 56 -16 76 -6 127 -14 127 -21 -1 -23 -31 -42 -65 -42 -28 0
-38 -5 -42 -20 -3 -11 -11 -20 -18 -20 -7 0 -19 -9 -26 -19 -13 -19 -22 -19
-199 -11 -750 37 -991 49 -1343 64 -169 8 -311 16 -314 20 -3 3 0 12 7 21 7 9
10 18 7 21 -7 8 -159 -17 -174 -28 -11 -9 -53 -6 -323 23 -52 5 -203 14 -335
19 -132 5 -297 12 -367 16 l-128 7 0 -226 0 -225 83 -6 c45 -3 181 -8 302 -11
121 -3 276 -10 345 -15 69 -5 168 -12 220 -15 174 -12 200 -17 217 -46 15 -24
15 -28 -2 -50 -20 -27 22 -27 -405 0 -91 5 -291 13 -445 16 -154 4 -288 9
-297 11 -17 5 -18 -45 -18 -955 l0 -961 58 1 c31 1 68 4 82 9 22 6 23 8 7 15
-24 10 -21 28 4 22 12 -3 33 -1 47 4 18 7 27 6 33 -3 8 -12 18 -9 82 24 26 13
40 0 33 -33 -5 -28 -4 -29 29 -29 28 0 35 4 35 20 0 10 8 24 18 29 20 10 74 3
67 -9 -10 -17 16 -21 31 -6 21 21 110 22 130 1 10 -9 34 -15 65 -15 46 0 49 2
49 25 0 32 42 55 70 38 21 -14 90 3 90 22 0 20 50 38 66 24 23 -19 29 -3 32
98 l4 95 33 14 c44 18 49 28 25 49 -21 19 -27 55 -10 55 6 0 11 -8 12 -17 2
-28 16 154 17 230 1 64 0 68 -19 62 -16 -5 -20 -2 -20 14 0 33 24 25 68 -23
63 -68 74 -103 72 -231 -1 -60 -2 -116 -1 -124 1 -11 15 -12 70 -7 58 6 134 0
226 -19 20 -4 20 0 17 694 l-3 699 143 -4 c79 -2 259 -7 401 -10 l258 -6 -3
-469 c-3 -412 0 -508 14 -434 3 19 13 20 163 26 185 7 235 -1 235 -38 0 -23 0
-23 128 -23 70 0 151 3 180 6 51 7 52 8 52 39 0 44 11 46 213 38 175 -6 174
-6 168 -51 -2 -9 9 -12 36 -10 l38 3 3 409 2 409 308 -6 c169 -4 355 -7 415
-7 l107 0 0 -402 0 -401 152 6 c83 4 195 7 250 7 80 0 98 3 98 15 0 9 9 15 25
15 l26 0 -2 1110 -1 1109 -36 6 c-21 3 -50 8 -65 10 -28 5 -102 73 -91 84 3 3
62 5 130 3 l124 -3 0 34 c0 35 -1 35 -454 336 -250 165 -456 301 -458 300 -2
0 -149 -71 -328 -158z m373 -285 c109 -56 206 -158 255 -269 8 -19 12 -101 12
-270 0 -133 4 -248 9 -255 5 -8 54 -19 127 -27 65 -8 119 -15 120 -15 0 0 1
-55 2 -122 1 -68 2 -125 3 -128 1 -3 0 -9 -1 -15 -1 -5 -1 -81 0 -167 1 -136
-2 -160 -17 -177 -22 -26 -33 -27 -33 -1 0 18 -7 20 -69 20 -39 0 -71 -5 -73
-10 -4 -13 -951 8 -956 21 -2 5 -37 9 -78 9 -59 0 -74 -3 -74 -15 0 -8 -6 -15
-14 -15 -11 0 -13 9 -9 38 3 20 10 39 15 40 14 6 9 32 -7 32 -19 0 -20 29 0
36 12 5 15 43 15 240 0 229 -1 234 -21 234 -14 0 -19 5 -17 18 3 15 17 17 105
20 l101 3 3 267 4 268 42 65 c104 159 220 222 396 215 79 -3 97 -8 160 -40z
m-2279 -442 l89 -6 -7 -121 c-3 -66 -7 -122 -9 -123 -1 -2 -51 0 -110 3 l-107
6 0 122 c0 67 3 125 6 128 4 4 16 5 28 2 12 -2 61 -7 110 -11z m-305 -680 c2
-2 -19 -4 -48 -4 -32 0 -50 4 -46 10 5 9 83 4 94 -6z m466 -54 c-3 -5 -21 -10
-40 -10 -19 0 -37 5 -40 10 -4 6 12 10 40 10 28 0 44 -4 40 -10z m878 3 c-13
-2 -35 -2 -50 0 -16 2 -5 4 22 4 28 0 40 -2 28 -4z m-1313 -218 l0 -125 -25 0
-25 0 0 118 c0 65 3 122 7 125 3 4 15 7 25 7 16 0 18 -10 18 -125z m263 115
l87 0 0 -131 0 -132 -61 7 c-34 3 -84 6 -110 6 l-49 0 0 131 c0 131 0 131 23
125 12 -3 61 -6 110 -6z m394 -10 l44 0 -3 -122 -3 -123 -107 -3 -108 -3 0
108 c0 59 3 119 7 132 6 22 9 23 66 17 33 -3 80 -6 104 -6z m-1926 -411 c44
-15 94 -63 119 -114 19 -40 20 -59 18 -491 l-3 -449 -208 -3 -207 -2 0 460 0
460 29 47 c33 53 55 70 116 89 51 16 93 17 136 3z m599 -28 c14 -9 36 -39 50
-67 24 -47 25 -57 28 -274 2 -124 1 -325 -3 -447 l-7 -222 -125 -3 -124 -3 3
445 c3 444 3 445 27 498 27 61 76 104 106 96 11 -3 31 -13 45 -23z m2430 -46
c0 -14 5 -25 10 -25 6 0 10 7 10 15 0 9 6 12 16 8 10 -3 14 -13 10 -26 -3 -11
5 -35 20 -56 20 -31 23 -42 14 -67 -5 -16 -11 -47 -13 -69 -4 -39 -5 -40 -42
-40 -35 0 -38 3 -41 30 -2 17 -12 36 -24 44 -18 12 -20 24 -20 103 0 103 11
134 40 118 12 -6 20 -21 20 -35z m1361 -4 c8 -23 14 -27 36 -23 22 4 24 2 19
-16 -4 -12 1 -33 14 -54 16 -28 18 -40 10 -69 -6 -19 -11 -49 -12 -67 -1 -32
-3 -33 -37 -30 -33 3 -36 6 -39 36 -2 23 -8 32 -22 32 -10 0 -21 7 -24 16 -11
29 -7 179 6 192 20 20 38 14 49 -17z"></path>
<path d="M3367 3493 c-3 -5 -6 -117 -6 -249 -1 -193 2 -244 12 -253 8 -6 12
-22 9 -36 -4 -24 -2 -25 44 -25 63 0 94 9 94 26 0 10 -15 14 -57 14 l-58 0 -1
263 c-1 226 -4 262 -17 265 -8 2 -17 -1 -20 -5z"></path>
<path d="M3420 3239 l0 -260 23 3 c24 3 25 16 18 376 -2 133 -4 142 -22 142
-18 0 -19 -10 -19 -261z"></path>
<path d="M3476 3492 c-2 -4 -3 -55 -2 -112 2 -58 4 -171 5 -252 1 -141 2 -148
21 -148 19 0 20 7 20 260 0 251 -1 260 -19 260 -11 0 -22 -4 -25 -8z"></path>
<path d="M4401 3218 c-1 -166 3 -258 9 -258 12 0 12 452 0 490 -4 14 -8 -88
-9 -232z"></path>
<path d="M4430 3210 c0 -150 4 -250 9 -250 6 0 10 100 11 250 0 163 -3 250
-10 250 -6 0 -10 -87 -10 -250z"></path>
<path d="M4470 3315 c-1 -82 -4 -196 -6 -252 -2 -85 0 -103 11 -103 13 0 15
26 14 158 -1 86 -5 200 -9 252 l-7 95 -3 -150z"></path>
<path d="M4500 3206 c0 -150 4 -247 10 -251 6 -4 10 83 10 245 0 156 -4 250
-10 250 -6 0 -10 -91 -10 -244z"></path>
<path d="M4531 3200 c0 -155 3 -250 9 -250 6 0 10 95 10 250 0 155 -4 250 -10
250 -6 0 -9 -95 -9 -250z"></path>
<path d="M4567 3443 c-11 -11 -8 -493 3 -493 6 0 10 90 10 250 0 138 -1 250
-3 250 -2 0 -7 -3 -10 -7z"></path>
<path d="M4591 3185 c0 -135 4 -225 10 -225 5 0 9 90 9 225 0 133 -4 225 -9
225 -6 0 -10 -92 -10 -225z"></path>
<path d="M4624 3185 c0 -126 2 -177 3 -112 2 65 2 168 0 230 -1 62 -3 9 -3
-118z"></path>
<path d="M4397 2931 c-5 -19 -1 -21 52 -21 32 0 86 -3 120 -6 58 -7 61 -6 61
15 0 20 -4 21 -99 21 -55 0 -106 3 -114 6 -9 3 -16 -3 -20 -15z"></path>
<path d="M3320 2331 c0 -22 4 -42 9 -45 5 -3 8 4 8 17 -1 12 2 32 7 45 5 17 4
22 -8 22 -12 0 -16 -10 -16 -39z"></path>
<path d="M3365 2350 c1 -11 7 -26 13 -32 9 -9 12 -5 12 20 0 20 -5 32 -13 32
-8 0 -13 -9 -12 -20z"></path>
<path d="M4685 2360 c-8 -13 4 -50 16 -50 5 0 9 14 9 30 0 30 -13 40 -25 20z"></path>
<path d="M4730 2340 c0 -16 5 -30 10 -30 6 0 10 6 10 14 0 8 3 21 6 30 4 11 1
16 -10 16 -11 0 -16 -9 -16 -30z"></path>
<path d="M5068 1825 c-5 -5 -8 -18 -8 -30 0 -20 4 -21 100 -17 55 3 124 1 153
-2 l54 -7 6 -89 c7 -103 25 -150 73 -187 l34 -25 0 -274 0 -273 43 -5 c102
-12 227 -26 282 -30 85 -8 257 -24 379 -37 95 -10 106 -9 125 7 27 23 27 32
-1 36 -32 5 -35 28 -4 28 25 0 26 2 26 59 0 55 -2 59 -25 65 -14 4 -34 2 -45
-4 -20 -11 -63 0 -75 19 -7 12 2 14 57 11 28 -1 38 3 42 18 10 30 -12 71 -35
65 -28 -8 -23 6 5 17 19 7 25 18 28 46 4 44 24 56 37 22 8 -18 10 -10 10 40
l1 62 -31 0 c-20 0 -29 4 -26 13 2 7 15 11 30 9 27 -3 27 -3 27 57 0 52 -2 60
-20 63 -27 4 -26 23 0 22 18 -1 20 5 20 62 0 62 -1 64 -25 64 -16 0 -25 6 -25
15 0 9 9 15 24 15 19 0 25 6 28 28 4 35 32 36 36 1 2 -18 11 -29 25 -33 38
-10 46 -7 49 21 2 17 10 29 21 31 13 3 17 -3 17 -27 0 -29 3 -31 35 -31 30 0
35 3 35 24 0 15 7 26 19 29 16 4 20 -1 23 -27 3 -27 7 -31 33 -31 25 0 30 4
33 28 2 19 9 27 23 27 14 0 19 -7 19 -30 0 -28 3 -30 35 -30 32 0 35 2 35 30
0 23 4 30 20 30 15 0 20 -7 20 -29 0 -26 4 -29 35 -33 42 -5 45 -3 45 34 0 21
5 28 20 28 16 0 20 -7 20 -35 0 -33 2 -35 35 -35 l35 0 0 79 0 79 -232 6
c-128 4 -453 11 -723 16 -269 6 -598 13 -730 16 -132 4 -243 3 -247 -1z"></path>
<path d="M4607 1694 c-4 -4 -7 -101 -7 -215 0 -201 1 -209 20 -209 19 0 20 8
20 215 0 173 -3 215 -13 215 -8 0 -17 -3 -20 -6z"></path>
<path d="M4660 1546 c0 -84 -3 -181 -6 -215 -7 -58 -6 -61 15 -61 21 0 21 2
21 215 0 184 -2 215 -15 215 -13 0 -15 -24 -15 -154z"></path>
<path d="M4710 1486 c0 -211 0 -216 20 -216 20 0 20 5 18 212 -3 191 -5 213
-20 216 -15 3 -17 -15 -18 -212z"></path>
<path d="M4760 1486 c0 -209 1 -216 20 -216 19 0 20 6 17 212 -2 194 -4 213
-19 216 -17 3 -18 -12 -18 -212z"></path>
<path d="M4810 1490 c1 -202 1 -210 20 -210 19 0 20 8 20 210 0 203 -1 210
-20 210 -19 0 -20 -7 -20 -210z"></path>
<path d="M4870 1618 c0 -46 -3 -140 -7 -210 -6 -126 -6 -128 15 -128 22 0 22
2 22 210 0 180 -2 210 -15 210 -12 0 -15 -16 -15 -82z"></path>
<path d="M4920 1495 c-3 -115 -4 -212 -2 -214 10 -17 12 33 10 215 l-3 209 -5
-210z"></path>
<path d="M4390 1506 c1 -174 2 -184 20 -189 19 -5 20 1 20 116 0 167 -9 257
-26 257 -11 0 -14 -36 -14 -184z"></path>
<path d="M4440 1506 c0 -175 7 -236 29 -236 6 0 10 85 10 210 0 203 0 210 -19
210 -19 0 -20 -8 -20 -184z"></path>
<path d="M4497 1528 c-7 -203 -2 -258 24 -258 18 0 19 12 19 210 0 198 -1 210
-18 210 -17 0 -19 -13 -25 -162z"></path>
<path d="M4550 1480 c0 -173 2 -210 14 -210 23 0 25 22 26 225 0 188 -1 195
-20 195 -19 0 -20 -7 -20 -210z"></path>
<path d="M3470 1465 c0 -131 4 -215 10 -215 5 0 9 84 9 215 0 133 -3 215 -9
215 -6 0 -10 -82 -10 -215z"></path>
<path d="M3503 1463 c2 -204 3 -218 20 -218 18 0 19 15 24 218 l6 217 -27 0
-26 0 3 -217z"></path>
<path d="M2848 1653 c-16 -4 -18 -21 -18 -174 l0 -169 25 0 25 0 -1 175 c0 96
-4 174 -7 174 -4 -1 -15 -3 -24 -6z"></path>
<path d="M2891 1486 c-1 -179 0 -186 40 -186 5 0 9 77 9 180 l0 180 -24 0 -24
0 -1 -174z"></path>
<path d="M2950 1572 c0 -49 3 -130 6 -180 6 -81 9 -92 25 -92 18 0 19 12 19
180 l0 180 -25 0 c-25 0 -25 -1 -25 -88z"></path>
<path d="M3020 1481 c0 -176 0 -179 22 -184 12 -4 24 -5 26 -3 2 2 0 85 -4
185 -6 167 -8 181 -25 181 -18 0 -19 -11 -19 -179z"></path>
<path d="M3082 1478 c-1 -104 1 -188 6 -188 4 0 6 69 4 152 -4 230 -8 245 -10
36z"></path>
<path d="M2730 1485 c0 -140 2 -165 15 -165 18 0 21 70 4 87 -6 6 -7 13 -2 16
11 7 4 227 -8 227 -5 0 -9 -69 -9 -165z"></path>
<path d="M2772 1483 c3 -149 5 -166 20 -169 10 -1 21 2 24 7 3 5 2 81 -2 169
-6 148 -8 160 -26 160 -18 0 -18 -9 -16 -167z"></path>
<path d="M6379 1626 c0 -3 -1 -32 -1 -63 -1 -58 0 -58 31 -61 l31 -3 0 60 c0
46 -3 61 -14 61 -8 0 -21 3 -30 6 -9 3 -16 3 -17 0z"></path>
<path d="M3897 1614 c-8 -9 -10 -348 -1 -356 3 -3 14 -4 25 -1 18 5 19 14 16
182 -2 149 -4 176 -17 179 -9 1 -19 0 -23 -4z"></path>
<path d="M3957 1612 c-3 -4 -6 -85 -6 -180 -1 -163 0 -172 18 -172 26 0 33 62
29 230 -3 107 -5 125 -20 128 -9 2 -19 -1 -21 -6z"></path>
<path d="M4010 1440 c0 -170 1 -180 19 -180 18 0 19 10 20 163 2 170 -2 197
-25 197 -11 0 -14 -33 -14 -180z"></path>
<path d="M4066 1604 c-4 -9 -6 -90 -5 -180 l0 -164 26 0 c25 0 26 1 19 53 -3
28 -6 109 -6 180 0 102 -3 127 -14 127 -8 0 -17 -7 -20 -16z"></path>
<path d="M4120 1470 c0 -146 1 -150 19 -140 18 9 20 22 20 150 0 133 -1 140
-19 140 -19 0 -20 -7 -20 -150z"></path>
<path d="M4171 1480 c0 -132 2 -140 20 -140 18 0 19 8 19 140 0 133 -1 140
-20 140 -18 0 -19 -7 -19 -140z"></path>
<path d="M4230 1560 c-2 -227 -3 -216 20 -208 5 2 12 63 15 136 5 127 4 132
-15 132 -18 0 -20 -7 -20 -60z"></path>
<path d="M4281 1480 c-2 -135 -1 -140 19 -140 19 0 20 6 20 140 0 131 -1 140
-19 140 -18 0 -19 -10 -20 -140z"></path>
<path d="M4330 1480 c0 -118 3 -142 15 -147 9 -3 17 -4 19 -2 2 2 6 68 9 147
l7 142 -25 0 -25 0 0 -140z"></path>
<path d="M6480 1560 l0 -60 35 0 35 0 0 60 0 60 -35 0 -35 0 0 -60z"></path>
<path d="M6590 1555 l0 -65 35 0 35 0 0 65 0 65 -35 0 -35 0 0 -65z"></path>
<path d="M6707 1613 c-4 -3 -7 -33 -7 -65 l0 -58 35 0 35 0 0 65 c0 65 0 65
-28 65 -16 0 -32 -3 -35 -7z"></path>
<path d="M3560 1426 c0 -178 1 -186 20 -186 18 0 19 7 17 182 -2 165 -4 183
-19 186 -17 3 -18 -11 -18 -182z"></path>
<path d="M3619 1583 c-9 -24 -12 -320 -3 -335 2 -3 13 -4 24 -1 19 5 20 14 20
184 0 154 -2 179 -15 179 -9 0 -20 -12 -26 -27z"></path>
<path d="M3670 1430 c0 -168 1 -180 18 -180 17 0 19 14 26 171 3 94 4 175 1
180 -4 5 -15 9 -26 9 -18 0 -19 -8 -19 -180z"></path>
<path d="M3730 1430 c0 -173 1 -180 20 -180 19 0 20 7 20 180 0 173 -1 180
-20 180 -19 0 -20 -7 -20 -180z"></path>
<path d="M3790 1429 c0 -166 1 -180 18 -177 15 3 17 21 19 181 2 170 2 177
-17 177 -19 0 -20 -8 -20 -181z"></path>
<path d="M3846 1594 c-4 -9 -6 -90 -5 -180 0 -155 1 -164 20 -164 18 0 19 9
19 180 0 147 -3 180 -14 180 -8 0 -17 -7 -20 -16z"></path>
<path d="M6810 1550 c0 -57 1 -60 24 -60 13 0 31 -3 40 -6 14 -5 16 4 16 60
l0 66 -40 0 -40 0 0 -60z"></path>
<path d="M6930 1545 l0 -65 35 0 35 0 0 65 0 65 -35 0 -35 0 0 -65z"></path>
<path d="M1121 1446 c0 -90 4 -158 9 -161 6 -4 10 51 10 149 0 86 -4 157 -9
161 -6 3 -10 -55 -10 -149z"></path>
<path d="M1150 1510 c0 -32 4 -49 10 -45 6 3 10 24 10 45 0 21 -4 42 -10 45
-6 4 -10 -13 -10 -45z"></path>
<path d="M6378 1420 c4 -59 4 -60 33 -60 29 0 29 0 29 60 l0 60 -32 0 -33 0 3
-60z"></path>
<path d="M6484 1466 c-3 -7 -4 -35 -2 -62 3 -47 4 -49 36 -52 l32 -3 0 65 0
66 -30 0 c-17 0 -33 -6 -36 -14z"></path>
<path d="M6590 1410 l0 -60 37 0 c35 0 36 0 18 20 -10 11 -15 28 -12 40 3 11
2 18 -3 15 -4 -3 -11 6 -14 20 -12 46 -26 26 -26 -35z"></path>
<path d="M6630 1460 c0 -5 7 -10 15 -10 8 0 15 5 15 10 0 6 -7 10 -15 10 -8 0
-15 -4 -15 -10z"></path>
<path d="M6700 1406 l0 -66 34 0 34 0 -2 60 c0 33 -5 60 -11 60 -5 0 -20 3
-32 6 -22 6 -23 4 -23 -60z"></path>
<path d="M6819 1453 c-4 -43 -3 -65 4 -70 4 -2 3 -11 -4 -19 -6 -8 -9 -18 -5
-22 4 -4 13 1 20 10 12 16 14 15 34 -5 l22 -21 0 67 0 67 -35 0 c-19 0 -35 -3
-36 -7z"></path>
<path d="M6930 1419 c0 -22 4 -38 8 -35 4 2 14 1 22 -4 20 -13 40 7 40 40 0
28 -15 40 -51 40 -16 0 -19 -7 -19 -41z"></path>
<path d="M1150 1383 c0 -48 3 -63 10 -53 13 20 13 107 0 115 -6 4 -10 -19 -10
-62z"></path>
<path d="M1182 1420 c0 -14 2 -19 5 -12 2 6 2 18 0 25 -3 6 -5 1 -5 -13z"></path>
<path d="M6930 1340 c0 -5 7 -10 16 -10 8 0 12 5 9 10 -3 6 -10 10 -16 10 -5
0 -9 -4 -9 -10z"></path>
<path d="M6380 1281 l0 -49 30 14 c25 13 30 22 30 50 0 31 -3 34 -30 34 -29 0
-30 -1 -30 -49z"></path>
<path d="M6490 1291 c0 -29 0 -29 30 -15 17 9 30 22 30 30 0 9 -11 14 -30 14
-26 0 -30 -3 -30 -29z"></path>
<path d="M6590 1301 c0 -10 9 -21 20 -24 28 -7 36 -35 15 -51 -21 -15 -12 -36
16 -36 17 0 19 7 19 65 l0 65 -35 0 c-28 0 -35 -4 -35 -19z"></path>
<path d="M6711 1293 c31 -40 49 -43 49 -8 0 21 -5 25 -31 25 -29 0 -30 -2 -18
-17z"></path>
<path d="M2730 1285 c0 -9 6 -12 15 -9 8 4 15 10 15 15 0 5 -7 9 -15 9 -8 0
-15 -7 -15 -15z"></path>
<path d="M2770 1290 c0 -5 11 -10 25 -10 14 0 25 5 25 10 0 6 -11 10 -25 10
-14 0 -25 -4 -25 -10z"></path>
<path d="M3033 1273 c9 -2 23 -2 30 0 6 3 -1 5 -18 5 -16 0 -22 -2 -12 -5z"></path>
<path d="M3080 1270 c0 -5 5 -10 11 -10 5 0 7 5 4 10 -3 6 -8 10 -11 10 -2 0
-4 -4 -4 -10z"></path>
<path d="M6322 1170 c0 -14 2 -19 5 -12 2 6 2 18 0 25 -3 6 -5 1 -5 -13z"></path>
<path d="M6380 1120 c0 -49 3 -60 16 -60 13 0 15 7 9 36 -6 33 -5 35 14 29 18
-5 21 -2 21 24 0 28 -3 31 -30 31 l-30 0 0 -60z"></path>
<path d="M6620 1144 c0 -13 2 -24 4 -24 2 0 11 -3 20 -6 12 -5 16 1 16 23 0
22 -5 29 -20 30 -15 1 -20 -4 -20 -23z"></path>
<path d="M3440 1083 c0 -48 3 -64 10 -53 13 20 13 120 0 120 -6 0 -10 -29 -10
-67z"></path>
<path d="M4100 1087 c0 -26 4 -47 9 -47 8 0 3 79 -5 89 -2 2 -4 -17 -4 -42z"></path>
<path d="M3930 1080 c0 -22 5 -40 10 -40 6 0 10 18 10 40 0 22 -4 40 -10 40
-5 0 -10 -18 -10 -40z"></path>
<path d="M3960 1080 c0 -22 5 -40 10 -40 6 0 10 18 10 40 0 22 -4 40 -10 40
-5 0 -10 -18 -10 -40z"></path>
<path d="M3992 1090 c0 -19 2 -27 5 -17 2 9 2 25 0 35 -3 9 -5 1 -5 -18z"></path>
<path d="M4020 1091 c0 -17 5 -33 10 -36 6 -4 10 8 10 29 0 20 -4 36 -10 36
-5 0 -10 -13 -10 -29z"></path>
<path d="M4053 1080 c0 -25 2 -35 4 -22 2 12 2 32 0 45 -2 12 -4 2 -4 -23z"></path>
<path d="M4083 1080 c0 -25 2 -35 4 -22 2 12 2 32 0 45 -2 12 -4 2 -4 -23z"></path>
<path d="M3470 1073 c0 -28 3 -34 10 -23 13 20 13 60 0 60 -5 0 -10 -17 -10
-37z"></path>
<path d="M3500 1065 c0 -25 5 -45 10 -45 6 0 10 20 10 45 0 25 -4 45 -10 45
-5 0 -10 -20 -10 -45z"></path>
<path d="M3530 1065 c0 -44 14 -61 23 -27 4 16 5 16 6 0 2 -39 21 -15 21 27 0
49 -16 62 -23 18 l-4 -28 -2 28 c-2 46 -21 30 -21 -18z"></path>
<path d="M3590 1070 c0 -22 5 -40 10 -40 6 0 10 18 10 40 0 22 -4 40 -10 40
-5 0 -10 -18 -10 -40z"></path>
<path d="M3627 1089 c4 -13 8 -18 11 -10 2 7 -1 18 -6 23 -8 8 -9 4 -5 -13z"></path>
<path d="M3666 1097 c-5 -9 -5 -29 0 -45 7 -25 8 -26 11 -4 3 12 3 32 0 45 -3
19 -4 20 -11 4z"></path>
<path d="M3690 1070 c0 -22 5 -40 10 -40 6 0 10 18 10 40 0 22 -4 40 -10 40
-5 0 -10 -18 -10 -40z"></path>
<path d="M3720 1070 c0 -22 5 -40 10 -40 6 0 10 18 10 40 0 22 -4 40 -10 40
-5 0 -10 -18 -10 -40z"></path>
<path d="M3787 1076 c-5 -21 -6 -41 -3 -44 12 -11 17 7 14 44 l-3 39 -8 -39z"></path>
<path d="M3823 1070 c0 -25 2 -35 4 -22 2 12 2 32 0 45 -2 12 -4 2 -4 -23z"></path>
<path d="M3840 1076 c0 -19 5 -38 10 -41 6 -4 10 10 10 34 0 23 -4 41 -10 41
-5 0 -10 -15 -10 -34z"></path>
<path d="M3870 1075 c0 -46 14 -46 17 0 1 19 -3 35 -8 35 -5 0 -9 -16 -9 -35z"></path>
<path d="M3904 1075 c5 -51 16 -56 16 -7 0 23 -4 42 -10 42 -5 0 -8 -16 -6
-35z"></path>
<path d="M6310 1090 c-13 -9 -13 -11 0 -20 15 -10 25 0 18 20 -2 6 -8 6 -18 0z"></path>
<path d="M3408 1060 c-7 -24 -3 -38 8 -28 3 4 4 17 2 30 l-3 23 -7 -25z"></path>
<path d="M3750 1056 c0 -14 5 -26 10 -26 6 0 10 9 10 19 0 11 -4 23 -10 26 -6
4 -10 -5 -10 -19z"></path>
<path d="M3280 1046 c0 -14 5 -26 10 -26 6 0 10 9 10 19 0 11 -4 23 -10 26 -6
4 -10 -5 -10 -19z"></path>
<path d="M3310 1045 c0 -14 5 -25 10 -25 6 0 10 11 10 25 0 14 -4 25 -10 25
-5 0 -10 -11 -10 -25z"></path>
<path d="M3340 1045 c0 -14 5 -25 10 -25 6 0 10 11 10 25 0 14 -4 25 -10 25
-5 0 -10 -11 -10 -25z"></path>
<path d="M3370 1045 c0 -14 5 -25 10 -25 6 0 10 11 10 25 0 14 -4 25 -10 25
-5 0 -10 -11 -10 -25z"></path>
<path d="M3215 1050 c3 -5 8 -10 11 -10 2 0 4 5 4 10 0 6 -5 10 -11 10 -5 0
-7 -4 -4 -10z"></path>
<path d="M3250 1044 c0 -8 5 -12 10 -9 6 3 10 10 10 16 0 5 -4 9 -10 9 -5 0
-10 -7 -10 -16z"></path>
<path d="M6702 1051 c4 -13 18 -16 19 -4 0 4 -5 9 -11 12 -7 2 -11 -2 -8 -8z"></path>
<path d="M6977 1053 c-11 -10 -8 -20 8 -27 10 -4 15 1 15 14 0 20 -11 26 -23
13z"></path>
<path d="M6382 973 c3 -51 6 -58 25 -61 17 -3 21 1 17 11 -3 8 0 18 6 22 8 5
5 11 -7 21 -17 12 -17 13 0 14 22 0 22 5 -3 30 -33 33 -41 25 -38 -37z"></path>
<path d="M6935 965 c2 -33 11 -41 30 -25 24 20 19 50 -8 50 -18 0 -22 -5 -22
-25z"></path>
<path d="M6702 928 c3 -41 5 -43 38 -46 33 -3 34 -3 17 15 -9 11 -17 26 -17
34 0 16 -19 39 -33 39 -4 0 -7 -19 -5 -42z"></path>
<path d="M6874 926 c3 -14 2 -28 -4 -31 -15 -9 -12 -25 5 -25 11 0 15 11 15
40 0 23 -5 40 -11 40 -7 0 -9 -10 -5 -24z"></path>
<path d="M6991 943 c-1 -6 -4 -20 -7 -30 -5 -17 -5 -17 6 0 6 10 9 23 6 30 -3
9 -5 9 -5 0z"></path>
<path d="M6940 870 c0 -5 10 -10 23 -10 18 0 19 2 7 10 -19 13 -30 13 -30 0z"></path>
<path d="M6522 850 c-7 -11 -20 -21 -30 -21 -30 -2 71 -17 121 -18 37 -1 47 2
47 15 0 10 -6 14 -14 11 -9 -4 -17 2 -21 14 -9 28 -85 27 -103 -1z"></path>
<path d="M6730 826 l-34 -20 32 -10 c38 -11 45 -6 40 26 l-3 24 -35 -20z"></path>
<path d="M6820 785 l0 -65 41 0 41 0 -7 58 c-9 71 -10 72 -46 72 l-29 0 0 -65z"></path>
<path d="M6936 773 c2 -57 2 -58 33 -61 35 -4 41 12 10 28 l-20 11 20 18 c27
23 26 27 -4 35 -14 4 -25 11 -25 16 0 6 -3 10 -7 10 -5 0 -7 -26 -7 -57z"></path>
</g>
</svg>