 <svg version="1.0" xmlns="http://www.w3.org/2000/svg" id="mask" viewBox="0 0 700.000000 569.000000" preserveAspectRatio="xMidYMid meet">

<g transform="translate(0.000000,569.000000) scale(0.100000,-0.100000)">
<path d="M5063 1773 c-27 -3 -33 -9 -33 -27 0 -15 7 -26 20 -29 21 -5 27 -31
10 -42 -5 -3 -10 1 -10 9 0 9 -4 16 -10 16 -5 0 -10 -86 -12 -215 -2 -160 0
-215 9 -215 6 0 14 8 16 18 3 10 5 6 6 -11 1 -25 -2 -27 -20 -22 -15 5 -20 3
-17 -6 2 -7 27 -18 54 -24 42 -9 49 -14 52 -36 l3 -27 -218 -6 c-120 -3 -273
-8 -340 -11 l-122 -6 -3 83 -3 83 -70 18 c-76 19 -226 20 -244 2 -7 -7 -11
-66 -12 -147 l0 -136 -172 -6 c-95 -4 -272 -11 -395 -17 -276 -12 -323 -2
-398 79 -32 35 -32 37 -27 105 l6 70 -26 -7 c-15 -3 -59 1 -99 10 -55 13 -92
15 -153 9 -123 -12 -130 -12 -130 5 0 10 -15 17 -45 22 -78 11 -110 9 -110 -7
0 -8 -7 -15 -15 -15 -8 0 -15 9 -15 20 0 21 7 23 80 20 25 -2 58 -3 73 -4 l28
-1 0 195 0 195 -28 11 c-27 10 -346 5 -356 -6 -2 -3 -7 -17 -11 -32 -5 -24 -3
-28 14 -28 13 0 20 -7 20 -20 0 -22 -16 -27 -23 -7 -13 35 -17 -17 -15 -169 3
-145 5 -165 15 -141 7 16 17 26 22 23 15 -10 0 -45 -21 -52 -14 -4 -18 -13
-16 -32 2 -22 10 -28 43 -34 70 -15 178 -59 253 -105 72 -45 72 -45 72 -89 0
-30 4 -44 13 -43 32 4 45 -3 49 -26 4 -21 1 -25 -18 -25 -19 0 -24 -5 -24 -24
0 -14 -4 -28 -10 -31 -14 -9 -13 -332 1 -341 6 -3 9 -17 6 -30 -3 -19 1 -24
22 -26 21 -2 25 -8 23 -27 -3 -32 -5 -33 -36 -22 -26 10 -26 10 -26 -33 0 -25
-4 -46 -9 -48 -5 -1 -11 -12 -13 -23 -7 -45 237 -89 276 -49 21 20 20 23 -6
53 l-23 26 26 -22 c14 -13 29 -23 34 -23 5 0 17 -8 27 -17 14 -12 21 -14 30
-5 8 8 3 18 -21 37 -17 15 -31 30 -31 33 0 4 26 7 57 7 53 0 58 2 61 23 2 13
-4 35 -13 48 -9 14 -14 28 -12 31 3 2 10 -5 17 -16 6 -12 16 -19 21 -15 6 4 4
15 -6 31 -9 14 -14 27 -12 30 3 2 10 -5 17 -16 13 -25 45 -27 59 -4 8 15 12
16 34 4 27 -15 49 -7 81 28 11 12 24 21 30 21 5 0 -4 -15 -22 -33 -23 -23 -32
-42 -32 -66 0 -18 4 -30 10 -26 5 3 7 11 4 18 -2 7 12 30 32 52 21 22 34 32
31 23 -4 -10 -10 -25 -13 -33 -9 -21 13 -19 26 2 9 14 10 11 5 -17 -4 -29 -3
-31 5 -13 5 13 17 23 27 23 9 0 32 14 50 32 18 18 33 27 33 21 0 -6 -44 -55
-97 -108 l-98 -97 55 6 c30 4 72 8 94 9 32 2 41 7 54 33 10 22 26 36 53 44 22
7 39 17 39 22 0 4 3 7 8 6 4 -1 24 4 45 11 30 10 37 18 38 39 2 24 2 24 6 5 5
-28 1 -28 97 -3 82 22 126 18 174 -16 22 -15 24 -15 29 4 3 13 11 18 19 15 17
-6 18 9 2 25 -9 9 -9 15 0 24 9 9 12 8 12 -5 0 -9 5 -17 10 -17 6 0 10 -6 10
-14 0 -8 7 -17 16 -20 22 -8 26 -8 19 4 -3 5 1 10 9 10 9 0 16 8 16 19 0 14 6
17 25 13 15 -2 25 0 25 7 0 6 4 11 10 11 5 0 7 -14 4 -32 -3 -18 -2 -29 3 -23
4 6 18 16 31 23 30 16 31 -7 1 -34 -11 -10 -25 -26 -30 -36 -9 -16 -7 -16 26
-2 48 20 44 11 -10 -20 -59 -35 -57 -55 3 -47 8 1 19 -5 26 -14 7 -10 32 -19
60 -22 55 -7 154 -61 173 -96 7 -12 12 -35 13 -50 0 -24 3 -27 20 -22 29 9 24
-2 -8 -19 -36 -18 -132 -105 -132 -118 0 -7 44 -8 128 -4 70 3 395 5 722 5
530 -1 1244 11 1678 27 l152 6 0 184 c0 139 -3 186 -12 189 -93 32 -135 52
-158 74 -25 24 -28 35 -38 145 -6 65 -13 120 -15 122 -4 4 -190 24 -452 49
-702 66 -828 79 -846 91 -6 3 -9 122 -9 277 l1 271 -25 15 c-45 27 -67 83 -73
185 l-6 94 -36 6 c-38 6 -214 5 -268 -1z"></path>
<path d="M3113 1750 c-17 -7 -23 -18 -23 -40 l0 -30 125 0 125 0 1 -117 c0
-65 2 -158 4 -208 l3 -90 52 -8 c28 -5 55 -6 58 -2 4 4 8 117 10 251 l4 244
-89 0 c-48 0 -124 2 -168 5 -44 3 -90 1 -102 -5z"></path>
<path d="M3143 1478 l2 -193 24 -3 24 -4 -6 144 c-4 78 -7 167 -7 196 0 45 -3
52 -19 52 -19 0 -20 -8 -18 -192z"></path>
<path d="M3200 1476 c0 -188 1 -196 20 -196 19 0 19 7 17 192 -2 175 -4 193
-19 196 -17 3 -18 -11 -18 -192z"></path>
<path d="M3255 1660 c-3 -5 -2 -95 1 -200 6 -158 10 -190 22 -190 12 0 14 10
8 53 -3 28 -6 118 -6 200 0 133 -6 168 -25 137z"></path>
<path d="M3094 1568 c3 -50 6 -133 6 -185 0 -77 3 -93 15 -93 13 0 15 26 14
185 -1 180 -1 185 -21 185 -20 0 -21 -4 -14 -92z"></path>
<path d="M3302 1610 c0 -14 2 -19 5 -12 2 6 2 18 0 25 -3 6 -5 1 -5 -13z"></path>
<path d="M3301 1420 c0 -103 3 -150 9 -140 11 17 11 221 0 265 -5 18 -8 -32
-9 -125z"></path>
<path d="M1075 1252 c-16 -10 -32 -18 -34 -20 -3 -1 -8 -50 -12 -109 -9 -120
-8 -118 -94 -159 -40 -18 -79 -25 -190 -33 -168 -13 -583 -31 -677 -31 l-68 0
0 -266 0 -267 26 -23 c31 -30 34 -30 34 -1 0 22 16 55 22 47 2 -3 8 -18 13
-34 6 -16 15 -28 20 -25 11 4 11 13 0 44 -7 20 -7 20 10 0 14 -17 17 -18 26
-5 9 12 10 10 6 -8 -3 -15 0 -22 9 -22 8 0 14 10 14 21 0 13 21 42 50 70 49
47 51 48 59 27 6 -15 5 -24 -3 -26 -39 -12 -41 -14 -21 -22 18 -8 17 -9 -7 -9
-31 -1 -35 -16 -13 -45 15 -20 15 -20 15 0 0 13 7 20 20 20 11 0 20 -4 20 -8
0 -4 7 -5 15 -2 8 4 15 18 15 33 l1 26 15 -27 c15 -28 56 -39 68 -19 8 12 130
59 231 88 59 17 135 27 285 38 113 8 214 16 225 17 11 1 43 -2 71 -6 43 -6 58
-15 97 -54 27 -29 50 -64 58 -89 7 -24 22 -50 35 -58 13 -8 31 -30 40 -48 24
-46 49 -67 82 -67 l29 0 5 478 c3 262 3 493 1 513 l-5 35 -111 15 c-85 12
-137 13 -216 6 -91 -7 -105 -7 -113 7 -11 19 -14 19 -53 -2z"></path>
<path d="M3150 1229 c0 -24 4 -38 10 -34 6 3 10 22 10 41 0 19 -4 34 -10 34
-5 0 -10 -18 -10 -41z"></path>
<path d="M3183 1225 c0 -22 2 -30 4 -17 2 12 2 30 0 40 -3 9 -5 -1 -4 -23z"></path>
<path d="M3220 1225 c0 -19 5 -35 10 -35 6 0 10 16 10 35 0 19 -4 35 -10 35
-5 0 -10 -16 -10 -35z"></path>
<path d="M3260 1225 c0 -24 5 -35 15 -35 10 0 15 11 15 35 0 24 -5 35 -15 35
-10 0 -15 -11 -15 -35z"></path>
<path d="M3351 1200 l1 -55 10 44 c7 30 6 47 -1 54 -8 8 -11 -4 -10 -43z"></path>
<path d="M3380 1201 c0 -28 5 -51 10 -51 6 0 10 20 10 44 0 25 -4 48 -10 51
-6 4 -10 -13 -10 -44z"></path>
<path d="M3410 1188 c0 -28 2 -49 4 -47 8 9 13 99 5 99 -5 0 -9 -23 -9 -52z"></path>
<path d="M3440 1195 c0 -25 5 -45 10 -45 6 0 10 20 10 45 0 25 -4 45 -10 45
-5 0 -10 -20 -10 -45z"></path>
<path d="M2278 1209 c-16 -9 -18 -26 -18 -124 0 -63 3 -115 6 -115 3 0 14 5
25 11 20 10 20 10 0 28 -29 25 -26 35 7 28 l27 -6 -3 95 c-3 97 -8 105 -44 83z"></path>
<path d="M2340 1121 l0 -89 33 3 32 2 3 80 c3 77 2 81 -20 87 -47 12 -48 11
-48 -83z"></path>
<path d="M2197 1164 c-26 -17 -37 -30 -33 -40 3 -9 6 -99 6 -200 0 -169 1
-184 18 -184 30 0 45 16 37 39 -3 12 -11 19 -16 16 -5 -4 -9 -2 -9 3 0 5 8 12
19 15 16 4 18 13 15 73 -2 38 -4 79 -4 92 0 13 -6 22 -15 22 -21 0 -19 17 3
24 15 5 18 19 21 86 1 44 1 80 -1 79 -2 0 -20 -11 -41 -25z"></path>
<path d="M2430 1109 l0 -80 33 3 32 3 0 64 c0 63 -1 65 -32 78 l-33 13 0 -81z"></path>
<path d="M3220 1170 c0 -5 5 -10 11 -10 5 0 7 5 4 10 -3 6 -8 10 -11 10 -2 0
-4 -4 -4 -10z"></path>
<path d="M3250 1169 c0 -5 5 -7 10 -4 6 3 10 8 10 11 0 2 -4 4 -10 4 -5 0 -10
-5 -10 -11z"></path>
<path d="M3310 1171 c0 -6 5 -13 10 -16 6 -3 10 1 10 9 0 9 -4 16 -10 16 -5 0
-10 -4 -10 -9z"></path>
<path d="M2510 1096 c0 -30 5 -58 11 -62 6 -3 10 1 9 12 -4 35 0 44 19 44 31
0 37 21 11 42 -39 32 -50 24 -50 -36z"></path>
<path d="M2665 720 c0 -195 1 -275 2 -178 2 98 2 258 0 355 -1 98 -2 18 -2
-177z"></path>
<path d="M2109 1003 c-1 -27 -1 -56 0 -65 3 -28 -19 -62 -32 -49 -6 6 -17 11
-24 11 -16 0 -18 -82 -3 -110 7 -13 7 -21 0 -25 -5 -3 -10 -15 -10 -26 0 -16
7 -19 40 -19 l40 0 0 165 c0 91 -2 165 -5 165 -3 0 -6 -21 -6 -47z"></path>
<path d="M2351 1003 c11 -13 11 -17 2 -20 -15 -5 -18 -33 -4 -33 12 0 16 8 25
43 5 23 3 27 -15 27 -19 0 -20 -2 -8 -17z"></path>
<path d="M2435 1000 c-3 -5 3 -10 14 -10 11 0 23 5 26 10 3 6 -3 10 -14 10
-11 0 -23 -4 -26 -10z"></path>
<path d="M2012 921 c-16 -50 -16 -188 0 -197 8 -5 9 3 5 29 -3 19 -3 37 0 40
6 6 16 167 10 167 -2 0 -9 -17 -15 -39z"></path>
<path d="M2275 950 c-3 -5 1 -10 9 -10 9 0 16 5 16 10 0 6 -4 10 -9 10 -6 0
-13 -4 -16 -10z"></path>
<path d="M2380 900 c0 -5 5 -10 11 -10 5 0 7 5 4 10 -3 6 -8 10 -11 10 -2 0
-4 -4 -4 -10z"></path>
<path d="M2262 822 c3 -55 4 -58 26 -54 30 6 37 20 19 40 -9 9 -19 29 -22 45
-12 47 -25 29 -23 -31z"></path>
<path d="M2370 854 c0 -8 5 -12 10 -9 6 4 8 11 5 16 -9 14 -15 11 -15 -7z"></path>
<path d="M2532 820 c-1 -14 -5 -34 -8 -45 -4 -16 0 -21 15 -21 12 0 21 4 21 8
0 4 -4 8 -9 8 -6 0 -12 17 -14 38 -2 22 -4 27 -5 12z"></path>
<path d="M2340 781 c0 -10 7 -21 15 -25 16 -6 19 3 9 28 -8 22 -24 20 -24 -3z"></path>
<path d="M2391 781 c-10 -6 -10 -10 -1 -16 13 -8 24 -1 19 14 -3 6 -10 7 -18
2z"></path>
<path d="M220 319 c0 -5 5 -7 10 -4 6 3 10 8 10 11 0 2 -4 4 -10 4 -5 0 -10
-5 -10 -11z"></path>
<path d="M286 295 c-4 -14 -11 -25 -16 -25 -6 0 -10 -4 -10 -10 0 -5 8 -7 18
-3 15 6 15 4 -2 -15 -21 -24 -16 -28 15 -11 15 7 24 7 35 -2 11 -9 14 -8 14 5
0 10 -4 14 -10 11 -9 -6 -14 14 -11 43 1 6 -3 12 -9 12 -6 0 -8 5 -5 10 3 6 2
10 -3 10 -6 0 -13 -11 -16 -25z"></path>
<path d="M186 215 c-3 -9 0 -25 7 -35 10 -17 23 -20 78 -20 36 0 68 3 71 6 10
9 -4 44 -15 37 -19 -12 -102 -3 -113 12 -14 19 -20 19 -28 0z"></path>
</g>
</svg>