<svg version="1.0" xmlns="http://www.w3.org/2000/svg" viewBox="0 0 700.000000 423.000000" preserveAspectRatio="xMidYMid meet" id="mask">
<g transform="translate(0.000000,423.000000) scale(0.100000,-0.100000)">
<path d="M1568 2784 c-5 -4 -8 -114 -8 -245 0 -131 3 -240 8 -242 4 -3 40 -8
80 -12 l72 -7 0 251 0 251 -29 0 c-15 0 -48 3 -72 6 -24 3 -47 2 -51 -2z"></path>
<path d="M2336 2723 c-3 -4 -6 -111 -6 -238 l0 -232 38 -7 c20 -3 54 -6 75 -6
l37 0 0 235 c0 180 -3 237 -12 239 -25 8 -126 14 -132 9z"></path>
<path d="M2890 2465 l0 -235 39 0 c21 0 53 -3 70 -6 l31 -6 0 234 0 235 -46 7
c-26 3 -57 6 -70 6 l-24 0 0 -235z"></path>
<path d="M3574 2636 c-2 -6 -3 -108 -2 -226 l3 -215 63 -3 62 -3 0 221 c0 168
-3 222 -12 225 -36 11 -110 12 -114 1z"></path>
<path d="M1568 1784 c-5 -4 -8 -90 -8 -191 l0 -183 80 0 80 0 0 185 0 185 -37
0 c-21 0 -54 3 -73 6 -19 3 -38 2 -42 -2z"></path>
<path d="M2332 1583 l3 -178 73 -3 72 -3 0 181 0 180 -75 0 -75 0 2 -177z"></path>
<path d="M2990 1511 c0 -191 2 -231 15 -241 8 -7 15 -19 15 -26 0 -16 17 -19
22 -3 2 5 22 13 44 16 33 4 45 1 69 -19 26 -23 27 -27 17 -58 -26 -74 -37 -70
203 -70 l215 0 0 308 0 309 -182 6 c-99 4 -234 7 -300 7 l-118 0 0 -229z m55
169 c5 -8 11 -7 21 1 24 20 35 -3 32 -62 l-3 -54 -40 0 -40 0 -3 49 c-2 27 -1
55 2 62 6 17 22 18 31 4z m333 -63 c3 -55 2 -57 -23 -57 -14 0 -25 6 -26 13 0
10 -2 10 -6 0 -6 -16 -45 -17 -60 -2 -8 8 -13 8 -17 0 -4 -6 -16 -11 -27 -11
-17 0 -19 7 -19 59 l0 59 88 -1 87 -2 3 -58z m167 -2 l0 -60 -35 0 -35 0 -3
62 -3 62 38 -3 38 -2 0 -59z m-138 -202 c-3 -10 -5 -4 -5 12 0 17 2 24 5 18 2
-7 2 -21 0 -30z"></path>
<path d="M3240 1620 c0 -11 5 -20 10 -20 6 0 10 9 10 20 0 11 -4 20 -10 20 -5
0 -10 -9 -10 -20z"></path>
<path d="M3500 1615 c0 -19 5 -35 10 -35 6 0 10 16 10 35 0 19 -4 35 -10 35
-5 0 -10 -16 -10 -35z"></path>
<path d="M1590 1320 c0 -25 4 -30 25 -30 21 0 25 5 25 30 0 25 -4 30 -25 30
-21 0 -25 -5 -25 -30z"></path>
<path d="M1650 1320 c0 -23 4 -30 20 -30 16 0 20 7 20 30 0 23 -4 30 -20 30
-16 0 -20 -7 -20 -30z"></path>
<path d="M1712 1320 c0 -19 2 -27 5 -17 2 9 2 25 0 35 -3 9 -5 1 -5 -18z"></path>
<path d="M2334 1336 c-8 -20 -1 -47 11 -49 6 -1 11 13 13 31 3 32 -14 45 -24
18z"></path>
<path d="M2380 1321 c0 -16 5 -33 11 -36 14 -9 16 -5 21 30 2 22 -1 31 -14 33
-14 3 -18 -3 -18 -27z"></path>
</g>
</svg>