<svg version="1.0" xmlns="http://www.w3.org/2000/svg" viewBox="0 0 700.000000 423.000000" preserveAspectRatio="xMidYMid meet" id="mask">
<g transform="translate(0.000000,423.000000) scale(0.100000,-0.100000)">
<path d="M3029 3174 c-162 -152 -295 -280 -297 -285 -6 -16 65 -10 78 6 8 10
27 15 52 13 34 -2 44 4 91 48 210 202 348 325 356 319 6 -3 96 -107 201 -231
l190 -224 0 -95 0 -94 38 -3 37 -3 5 -275 5 -275 35 -1 35 -1 -3 259 c-3 207
-1 259 10 263 7 3 261 -15 565 -39 l552 -44 118 44 c65 24 124 44 131 44 6 0
12 5 12 10 0 6 -8 10 -17 10 -32 0 -1187 101 -1210 106 -13 2 -23 11 -23 18 0
14 -20 17 -175 32 -65 6 -105 23 -105 46 0 15 31 9 90 -18 32 -14 67 -24 78
-22 18 2 -7 37 -155 213 -295 353 -383 455 -392 455 -4 0 -140 -124 -302 -276z"></path>
<path d="M3240 3081 c0 -123 -1 -121 88 -121 l42 0 0 109 0 109 -31 6 c-17 3
-47 6 -65 6 l-34 0 0 -109z"></path>
<path d="M1431 2936 c-9 -11 -6 -19 20 -36 23 -17 27 -25 18 -31 -7 -4 -19 -3
-26 2 -30 26 -44 -21 -17 -59 13 -18 25 -22 73 -22 31 0 129 -7 217 -15 87 -8
274 -24 414 -35 474 -37 535 -42 575 -49 l40 -7 5 -279 5 -280 22 -3 23 -3 2
288 3 288 48 3 c42 3 47 6 47 27 0 14 9 42 21 64 11 23 19 46 17 53 -3 9 -47
17 -134 24 -113 10 -131 9 -147 -4 -16 -14 -49 -13 -358 13 -245 21 -342 26
-347 18 -9 -15 -72 -9 -82 7 -5 9 -72 19 -207 31 -109 10 -203 18 -209 19 -6
0 -17 -6 -23 -14z"></path>
<path d="M1250 2896 c0 -15 18 -31 26 -23 7 7 -7 37 -17 37 -5 0 -9 -6 -9 -14z"></path>
<path d="M1090 2850 c0 -5 5 -10 11 -10 5 0 7 5 4 10 -3 6 -8 10 -11 10 -2 0
-4 -4 -4 -10z"></path>
<path d="M1250 2830 c0 -5 5 -10 10 -10 6 0 10 5 10 10 0 6 -4 10 -10 10 -5 0
-10 -4 -10 -10z"></path>
<path d="M1300 2810 c0 -5 5 -10 10 -10 6 0 10 5 10 10 0 6 -4 10 -10 10 -5 0
-10 -4 -10 -10z"></path>
<path d="M1190 2776 c0 -17 26 -39 40 -34 6 2 4 12 -5 26 -18 25 -35 29 -35 8z"></path>
<path d="M3032 2708 c3 -22 8 -23 218 -40 118 -9 239 -19 268 -21 49 -5 52 -4
52 18 0 22 -4 23 -97 30 -54 4 -111 13 -127 21 -34 16 -58 18 -71 5 -6 -6 -43
-6 -90 -1 -44 5 -97 9 -118 9 -34 1 -38 -1 -35 -21z"></path>
<path d="M1194 2679 c3 -18 2 -37 -4 -44 -5 -6 -11 -58 -13 -116 l-3 -104 -2
126 c-1 89 -6 131 -16 145 -14 18 -15 18 -21 -6 -3 -14 -4 -122 -3 -240 3
-183 5 -215 18 -215 11 0 16 17 21 70 l5 70 2 -72 2 -73 30 0 30 0 0 206 c0
212 -10 284 -38 284 -11 0 -13 -8 -8 -31z"></path>
<path d="M4969 2334 c-255 -190 -471 -352 -479 -360 -12 -12 -9 -14 29 -14 30
0 52 7 75 25 18 14 46 25 61 25 22 0 108 59 364 253 184 138 340 255 347 260
8 5 85 -60 226 -189 117 -109 259 -239 315 -291 l102 -94 -3 -82 c-4 -131 -6
-127 80 -127 l74 0 1 -102 c1 -57 0 -196 -1 -310 -2 -186 0 -209 15 -214 24
-9 49 19 38 42 -4 11 -7 142 -5 291 l3 273 29 15 c18 9 30 23 30 35 0 16 7 20
33 20 35 1 98 29 104 46 5 15 -67 24 -193 24 l-104 0 -40 36 c-22 20 -40 41
-40 46 0 16 67 0 142 -33 58 -25 118 -38 118 -25 0 6 -26 30 -482 454 -202
188 -369 342 -371 342 -2 0 -212 -156 -468 -346z m1271 -563 c0 -10 -30 -24
-37 -17 -3 3 -2 9 2 15 8 13 35 15 35 2z"></path>
<path d="M5320 2325 l0 -115 60 0 60 0 0 109 c0 122 1 121 -76 121 l-44 0 0
-115z"></path>
<path d="M1722 2258 c3 -23 5 -23 303 -39 165 -9 303 -14 308 -12 4 2 7 13 7
23 0 16 -11 19 -72 24 -110 9 -434 26 -495 26 -51 0 -54 -2 -51 -22z"></path>
<path d="M3030 2201 c0 -21 35 -25 290 -36 69 -3 153 -8 188 -11 60 -5 62 -5
62 18 l0 24 -227 12 c-307 17 -313 16 -313 -7z"></path>
<path d="M896 2031 c-3 -5 5 -25 19 -45 14 -20 25 -50 25 -65 0 -34 8 -41 85
-71 33 -13 66 -28 72 -33 9 -7 13 -79 15 -278 2 -169 7 -270 13 -272 6 -1 11
98 13 278 l3 280 -23 19 -23 18 25 -3 c16 -3 27 -13 31 -29 4 -14 7 -150 8
-302 1 -269 2 -278 21 -288 12 -6 25 -22 30 -36 17 -45 30 -26 30 45 0 73 6
101 22 101 5 0 9 -50 8 -117 -1 -151 -2 -145 11 -141 8 3 11 45 10 131 -2 122
-1 127 18 127 20 0 21 -6 21 -95 0 -57 4 -95 10 -95 6 0 10 38 10 95 0 90 1
95 21 95 20 0 21 -5 18 -82 -2 -50 0 -83 6 -83 6 0 11 37 13 83 2 63 6 82 17
82 11 0 15 -19 17 -77 2 -44 7 -78 13 -78 6 0 11 34 13 78 2 59 6 77 17 77 12
0 15 -19 15 -96 0 -72 3 -95 13 -91 9 3 11 28 8 95 l-3 92 27 0 27 0 -3 -82
c-3 -50 0 -84 6 -86 6 -1 12 33 15 80 4 69 8 83 23 86 15 3 17 -5 17 -58 0
-45 3 -61 13 -58 7 3 13 27 15 62 4 72 26 72 30 -1 l3 -50 67 1 c84 1 102 -6
102 -39 0 -14 5 -25 10 -25 6 0 10 14 10 31 0 24 4 30 18 27 15 -3 17 -13 13
-76 -2 -59 0 -72 12 -72 10 0 15 9 14 28 -3 79 3 122 18 122 11 0 15 -11 15
-40 0 -22 5 -40 10 -40 6 0 10 18 10 41 0 33 3 40 18 37 12 -2 18 -14 20 -41
4 -50 22 -48 22 3 0 29 4 40 15 40 10 0 15 -10 15 -30 0 -16 5 -30 10 -30 6 0
10 14 10 30 0 20 5 30 15 30 11 0 15 -12 15 -45 0 -45 12 -60 24 -29 3 9 6 29
6 45 0 19 5 29 15 29 11 0 15 -12 15 -45 0 -25 5 -45 10 -45 6 0 10 20 10 45
0 33 4 45 15 45 9 0 15 -9 15 -25 0 -14 5 -25 10 -25 6 0 10 11 10 25 0 27 24
45 50 38 23 -6 35 14 20 32 -16 19 -9 60 10 60 10 0 16 -13 18 -42 4 -55 20
-56 24 -1 4 57 28 64 28 8 0 -33 6 -46 28 -64 15 -13 32 -24 37 -25 6 -1 12
24 15 56 6 69 30 87 30 22 0 -51 17 -42 22 11 6 71 23 34 26 -57 1 -51 7 -93
12 -93 5 0 11 42 12 93 4 113 22 123 26 15 2 -43 7 -78 12 -78 5 0 10 35 12
78 4 102 22 96 26 -10 4 -118 22 -125 22 -10 0 75 3 92 15 92 10 0 15 -11 16
-32 1 -18 2 -54 3 -80 2 -79 21 -54 24 32 3 89 19 109 24 30 4 -65 22 -65 26
0 3 56 19 68 24 18 4 -46 28 -49 28 -4 0 42 17 49 22 9 4 -37 21 -35 29 3 6
27 7 27 8 4 2 -38 17 -58 33 -42 6 6 20 12 30 12 17 0 18 15 18 226 l0 226
293 -7 c160 -4 295 -9 300 -12 4 -2 7 -139 7 -304 l0 -299 -32 -1 c-18 -1
-116 -4 -218 -8 -155 -5 -185 -8 -185 -21 0 -9 8 -14 20 -12 11 1 120 2 243 2
l222 -1 0 344 0 344 -122 6 c-66 4 -164 7 -217 7 -129 0 -294 12 -284 20 13
11 816 -19 828 -31 6 -6 10 -124 10 -345 0 -306 1 -334 17 -334 9 0 20 10 24
23 4 12 15 33 25 46 15 19 19 41 19 103 0 50 4 77 10 73 6 -3 10 -37 10 -76 0
-39 4 -69 10 -69 6 0 10 30 10 70 0 40 4 70 10 70 6 0 10 -25 10 -55 0 -30 5
-55 10 -55 6 0 10 24 10 54 0 30 4 58 10 61 6 4 10 -13 10 -44 0 -39 4 -51 15
-51 11 0 15 12 15 51 0 31 4 48 10 44 5 -3 10 -31 10 -61 0 -30 5 -54 10 -54
6 0 10 25 10 55 0 30 5 55 10 55 6 0 10 -21 10 -47 0 -27 5 -55 10 -63 7 -11
10 3 10 48 0 34 4 62 10 62 6 0 10 -20 10 -44 0 -46 19 -76 21 -34 2 45 7 93
10 113 4 19 -3 20 -126 25 l-130 5 -3 164 c-1 103 1 168 8 175 5 5 10 17 10
26 0 13 26 15 202 15 112 0 219 2 238 5 l35 5 3 -367 c1 -203 5 -368 7 -368 3
0 17 7 30 16 l25 16 0 354 0 354 94 0 95 0 3 28 c2 20 9 28 28 30 31 5 60 30
60 52 0 14 -14 18 -83 23 -135 11 -299 8 -353 -7 -43 -11 -118 -11 -505 5
-250 10 -976 38 -1614 63 -638 25 -1197 48 -1242 51 -45 3 -84 1 -87 -4z m159
-131 c16 -16 26 -32 24 -34 -9 -9 -110 44 -104 54 12 19 52 10 80 -20z m1037
-65 c496 -16 796 -29 803 -36 6 -6 11 -89 13 -206 l4 -195 -829 7 c-455 4
-831 9 -835 12 -5 2 -8 90 -8 195 0 181 1 190 20 195 11 3 20 13 20 22 0 16 8
31 16 31 2 0 360 -11 796 -25z m-237 -515 c0 -13 -6 -25 -12 -27 -9 -3 -13 6
-13 27 0 21 4 30 13 28 6 -3 12 -15 12 -28z m60 0 c0 -27 -22 -39 -31 -16 -8
22 3 49 19 43 6 -2 12 -14 12 -27z m50 0 c0 -13 -6 -25 -12 -27 -9 -3 -13 6
-13 27 0 21 4 30 13 28 6 -3 12 -15 12 -28z m60 0 c0 -13 -6 -25 -12 -27 -16
-6 -27 21 -19 43 9 23 31 11 31 -16z m55 0 c0 -10 -5 -22 -10 -25 -13 -8 -24
20 -16 41 8 20 26 9 26 -16z m50 0 c0 -20 -5 -30 -15 -30 -15 0 -21 40 -8 53
14 15 23 6 23 -23z m58 -3 c2 -19 -1 -27 -12 -27 -11 0 -16 10 -16 31 0 38 24
35 28 -4z m52 -3 c0 -15 -6 -24 -15 -24 -15 0 -21 40 -9 53 12 11 24 -3 24
-29z m55 6 c0 -27 -22 -39 -31 -16 -8 22 3 49 19 43 6 -2 12 -14 12 -27z
m-565 -10 c0 -10 -4 -22 -10 -25 -6 -4 -10 7 -10 25 0 18 4 29 10 25 6 -3 10
-15 10 -25z m67 -7 c-3 -10 -5 -4 -5 12 0 17 2 24 5 18 2 -7 2 -21 0 -30z"></path>
<path d="M1720 1807 c0 -24 1 -24 123 -31 67 -3 160 -6 207 -5 47 0 129 -3
182 -7 86 -6 98 -5 104 10 4 10 3 21 -2 26 -5 5 -101 11 -214 14 -113 4 -249
9 -302 12 l-98 6 0 -25z"></path>
<path d="M5345 1670 c-5 -8 -110 -9 -336 -4 l-329 7 0 -274 c0 -269 3 -299 32
-299 4 0 8 117 8 259 0 143 3 262 8 264 9 5 1222 -22 1240 -28 9 -3 12 -71 12
-295 0 -272 1 -291 18 -288 16 3 17 27 20 311 2 250 0 308 -11 313 -8 3 -142
8 -300 12 -205 5 -290 11 -299 20 -15 15 -54 16 -63 2z"></path>
<path d="M2520 1205 c0 -25 5 -45 10 -45 6 0 10 20 10 45 0 25 -4 45 -10 45
-5 0 -10 -20 -10 -45z"></path>
<path d="M2770 1210 c0 -5 5 -10 10 -10 6 0 10 5 10 10 0 6 -4 10 -10 10 -5 0
-10 -4 -10 -10z"></path>
<path d="M4176 1195 c4 -8 8 -15 10 -15 2 0 4 7 4 15 0 8 -4 15 -10 15 -5 0
-7 -7 -4 -15z"></path>
<path d="M2155 1121 c-6 -11 9 -23 19 -14 9 9 7 23 -3 23 -6 0 -12 -4 -16 -9z"></path>
<path d="M2210 1110 c0 -5 5 -10 10 -10 6 0 10 5 10 10 0 6 -4 10 -10 10 -5 0
-10 -4 -10 -10z"></path>
</g>
</svg>