<svg version="1.0" xmlns="http://www.w3.org/2000/svg" viewBox="0 0 700.000000 423.000000" preserveAspectRatio="xMidYMid meet" id="mask">
<g transform="translate(0.000000,423.000000) scale(0.100000,-0.100000)">
<path d="M151 4226 c2 -2 436 -279 964 -615 l960 -611 884 3 883 2 57 160 56
160 672 3 673 2 632 441 c348 243 637 446 643 450 5 5 -94 9 -230 9 l-240 -1
-435 -359 -434 -360 -698 0 -697 0 -10 -37 c-5 -21 -21 -92 -36 -158 -14 -66
-31 -137 -36 -157 l-10 -38 -807 0 -807 0 -742 555 -742 555 -252 0 c-139 0
-250 -2 -248 -4z"></path>
<path d="M1845 3735 l500 -494 528 -1 527 0 0 28 c-1 15 -11 126 -24 247 -13
121 -21 223 -19 228 2 4 262 7 576 7 315 0 683 3 820 7 l247 6 173 196 c96
108 188 213 206 234 l33 37 -173 0 -174 -1 -60 -86 c-33 -48 -71 -99 -83 -115
l-24 -28 -859 0 c-821 0 -859 -1 -859 -18 0 -10 22 -143 50 -296 27 -154 47
-283 44 -287 -3 -5 -196 -9 -429 -9 l-425 0 -95 113 c-53 61 -212 250 -353
419 l-257 307 -185 0 -185 0 500 -494z"></path>
<path d="M6770 3843 c-118 -64 -465 -251 -770 -415 -305 -165 -561 -305 -567
-310 -10 -8 -13 -91 -13 -350 l0 -340 33 6 c478 86 1538 276 1542 276 3 0 5
46 5 101 l0 102 -35 -6 -35 -6 0 139 0 138 35 12 c31 10 35 15 35 46 0 34 0
35 -35 28 l-35 -6 0 140 0 140 35 12 35 12 0 199 c0 109 -3 199 -7 199 -5 0
-105 -53 -223 -117z m70 -487 l0 -134 -131 -46 c-72 -25 -135 -46 -140 -46 -5
0 -9 56 -9 124 l0 123 128 56 c70 30 133 56 140 56 9 1 12 -32 12 -133z m-350
-135 l0 -118 -88 -32 c-130 -46 -123 -51 -120 80 l3 111 90 38 c50 21 96 39
103 39 9 1 12 -29 12 -118z m-270 -99 c0 -53 -4 -102 -8 -108 -4 -6 -43 -23
-86 -37 -62 -21 -82 -24 -88 -14 -10 15 -10 168 0 184 9 15 164 83 174 77 4
-3 8 -49 8 -102z m618 -118 l-3 -128 -133 -32 c-97 -23 -135 -28 -138 -20 -3
7 -3 64 -2 126 l3 114 130 42 c72 23 134 38 138 34 4 -3 6 -65 5 -136z m-860
15 l-3 -94 -60 -22 c-33 -12 -63 -22 -67 -22 -5 -1 -8 42 -8 94 l0 96 63 28
c34 16 66 25 70 21 4 -4 6 -49 5 -101z m-188 -63 c0 -93 -1 -95 -73 -119 -58
-20 -59 -18 -55 84 l3 74 45 22 c77 38 80 35 80 -61z m698 -43 l-3 -118 -80
-22 c-134 -36 -126 -42 -123 89 l3 111 80 28 c132 45 126 50 123 -88z m-270
-70 c2 -72 -1 -103 -10 -110 -19 -15 -155 -46 -167 -38 -12 7 -15 174 -3 191
8 12 151 64 167 60 6 -2 11 -47 13 -103z m-240 -70 l-3 -98 -35 -11 c-19 -6
-50 -14 -68 -17 l-33 -7 3 97 3 96 50 18 c88 31 86 33 83 -78z m-190 -55 l-3
-92 -50 -13 c-74 -19 -76 -16 -73 79 l3 83 50 17 c79 27 76 29 73 -74z"></path>
<path d="M2 3410 l3 -42 119 -44 c66 -24 125 -44 133 -44 17 0 18 111 1 128
-7 7 -35 12 -64 12 -48 0 -135 13 -177 26 -16 5 -18 0 -15 -36z"></path>
<path d="M2 3164 l3 -67 115 -33 c155 -45 150 -46 150 20 0 31 -5 58 -12 63
-15 12 -227 83 -246 83 -10 0 -12 -17 -10 -66z"></path>
<path d="M892 3058 l3 -63 80 0 80 0 3 43 c3 41 2 43 -40 62 -24 11 -62 20
-86 20 l-43 0 3 -62z"></path>
<path d="M3876 2911 l-56 -128 0 -912 0 -911 -610 0 -609 0 -23 -23 c-35 -35
-78 -88 -78 -95 0 -4 298 -9 663 -10 608 -3 663 -5 680 -21 25 -24 68 -190 76
-294 4 -48 13 -93 19 -99 9 -9 12 297 12 1305 0 739 -4 1317 -9 1317 -4 0 -34
-58 -65 -129z m20 -1401 c8 0 14 -4 14 -10 0 -12 -20 -13 -39 -1 -8 5 -10 14
-5 22 6 10 9 10 12 1 2 -7 10 -12 18 -12z"></path>
<path d="M725 3000 c3 -5 17 -10 31 -10 13 0 24 5 24 10 0 6 -14 10 -31 10
-17 0 -28 -4 -24 -10z"></path>
<path d="M0 2189 c0 -545 3 -689 13 -689 24 0 237 39 247 45 13 8 14 1261 1
1269 -5 4 -66 19 -135 35 l-126 28 0 -688z"></path>
<path d="M720 2780 c0 -20 7 -20 300 -20 l300 0 0 -25 c0 -24 -2 -25 -77 -25
-43 0 -177 -2 -298 -3 l-220 -2 1 -490 c1 -474 2 -490 20 -487 46 7 394 14
409 8 14 -5 15 -9 5 -21 -11 -13 -46 -15 -224 -14 l-211 1 -3 -41 c-2 -23 1
-41 7 -41 31 0 439 72 453 80 10 6 40 10 68 10 27 0 50 4 50 10 0 5 13 7 30 4
l30 -6 0 541 0 541 -320 0 c-313 0 -320 0 -320 -20z m70 -115 c0 -7 6 -16 13
-18 7 -4 6 -6 -5 -6 -10 -1 -15 -8 -13 -18 2 -10 4 -21 4 -25 1 -5 17 -8 36
-8 19 0 35 -4 35 -10 0 -5 -16 -10 -35 -10 -19 0 -35 -3 -36 -7 -1 -14 -1
-108 0 -121 1 -10 27 -12 114 -10 l112 3 2 -99 2 -99 -115 7 -114 7 -1 -23 c0
-13 0 -92 1 -177 1 -122 -2 -152 -12 -149 -10 4 -13 58 -13 254 1 161 -3 252
-10 257 -7 5 -7 9 0 15 7 4 10 55 10 127 -1 66 1 123 3 128 5 11 22 -2 22 -18z
m225 -110 l0 -90 -65 0 -65 0 -2 80 c-1 44 0 86 2 93 3 9 23 12 67 10 l63 -3
0 -90z m165 20 c9 -116 9 -116 -69 -113 l-66 3 0 85 c-1 47 1 89 3 93 2 4 31
7 65 5 l62 -3 5 -70z m140 -20 l0 -95 -54 0 c-63 0 -63 1 -58 118 l4 72 54 0
54 0 0 -95z m0 -214 c0 -54 -2 -100 -4 -102 -3 -3 -29 -2 -58 1 l-53 5 2 70
c1 39 2 82 2 97 1 25 5 27 49 30 26 2 50 2 55 0 4 -2 7 -47 7 -101z m-142 84
c2 -13 4 -156 3 -172 -1 -9 -21 -13 -65 -13 -53 0 -65 3 -69 18 -4 14 -2 155
2 172 2 10 128 5 129 -5z m133 -315 c0 -47 0 -90 0 -97 -1 -7 -23 -10 -68 -9
l-68 2 0 92 -1 91 61 4 c33 1 64 3 68 2 5 0 8 -39 8 -85z m-327 -15 l-1 -90
-68 0 -69 0 -1 80 c-1 44 0 86 3 93 3 9 23 12 71 10 l66 -3 -1 -90z m163 3
l-2 -93 -67 -3 -68 -3 -1 28 c-1 27 -1 140 0 156 1 4 32 7 71 7 l69 0 -2 -92z
m-161 -173 c3 -100 4 -105 14 -105 6 0 8 28 5 73 -2 40 -1 78 4 85 5 9 28 12
71 10 l63 -3 3 -78 c1 -43 5 -82 9 -85 14 -14 24 27 22 93 l-2 70 68 3 67 3 1
-53 c1 -29 2 -78 3 -109 l1 -56 -70 3 c-58 2 -69 5 -67 18 2 9 -4 16 -12 16
-8 0 -16 -7 -18 -16 -2 -13 -17 -17 -72 -18 -61 -2 -70 1 -74 18 -5 19 -6 19
-12 1 -6 -16 -17 -19 -75 -20 -57 0 -69 2 -73 17 -2 10 -9 18 -16 18 -6 0 -5
4 3 9 10 7 14 27 13 68 -2 104 -2 104 76 101 l67 -3 1 -60z m-182 -60 c4 -11
-1 -15 -19 -15 -18 0 -23 4 -19 15 4 8 12 15 19 15 7 0 15 -7 19 -15z"></path>
<path d="M789 2398 c-6 -114 4 -144 46 -133 11 2 26 5 33 5 8 0 12 21 12 70
l0 70 -45 0 c-29 0 -45 -4 -46 -12z"></path>
<path d="M2830 2256 c0 -298 3 -571 6 -605 l7 -61 342 0 342 0 7 61 c3 34 6
307 6 605 l0 544 -355 0 -355 0 0 -544z m678 482 c-4 -31 -38 -35 -285 -32
-109 1 -233 3 -275 3 -76 1 -78 2 -78 26 l0 25 321 0 320 0 -3 -22z m-80 -76
c7 -34 7 -194 -1 -199 -4 -2 -4 -10 0 -16 4 -6 8 -149 9 -317 1 -168 2 -308 3
-312 1 -5 15 -8 31 -8 47 0 35 -17 -16 -24 -60 -8 -502 -8 -543 0 -43 9 -39
21 9 29 l41 7 -4 70 c-2 42 -8 73 -16 77 -15 10 18 21 62 21 15 0 27 4 27 9 0
6 -16 7 -35 4 -39 -6 -38 -12 -37 115 0 59 -1 62 -24 62 -13 0 -24 4 -24 10 0
8 156 4 187 -5 9 -3 11 -32 9 -105 -3 -74 0 -100 9 -100 9 0 12 27 11 103 l-1
102 139 5 c135 5 139 6 142 28 4 21 0 22 -54 22 l-59 0 2 103 2 102 56 -3 c48
-3 57 -1 57 13 0 13 -9 16 -56 13 l-57 -3 -1 90 -1 90 55 5 c34 3 55 10 56 18
1 6 2 15 3 19 2 10 15 -6 19 -25z m-321 -106 l1 -94 -69 0 c-78 1 -71 -10 -71
108 0 33 1 65 1 70 1 6 31 10 69 10 l68 0 1 -94z m166 29 c-1 -33 -2 -75 -2
-92 l-1 -33 -70 0 -70 0 1 95 1 96 71 -3 71 -3 -1 -60z m-167 -243 l1 -102
-69 0 c-37 0 -68 3 -69 8 -1 17 -1 149 0 169 1 20 7 22 59 26 31 1 62 2 67 2
6 -1 10 -44 11 -103z m161 94 c7 -6 8 -168 1 -172 -5 -3 -6 -10 -3 -15 4 -5
-23 -9 -63 -9 l-69 0 -2 95 c-1 52 0 99 3 103 4 7 125 4 133 -2z m-317 -176
c0 -5 -16 -10 -36 -10 -19 0 -33 4 -30 8 7 12 66 14 66 2z m520 0 c0 -5 -4
-10 -10 -10 -5 0 -10 5 -10 10 0 6 5 10 10 10 6 0 10 -4 10 -10z m0 -64 c0 -3
-4 -8 -10 -11 -5 -3 -10 -1 -10 4 0 6 5 11 10 11 6 0 10 -2 10 -4z m-530 -166
c0 -5 -4 -10 -10 -10 -5 0 -10 5 -10 10 0 6 5 10 10 10 6 0 10 -4 10 -10z
m-10 -146 c0 -10 -6 -14 -15 -10 -8 3 -15 1 -15 -4 0 -19 -16 -10 -17 10 -1
15 4 20 23 20 15 0 24 -6 24 -16z m570 12 c0 -3 -4 -8 -10 -11 -5 -3 -10 -1
-10 4 0 6 5 11 10 11 6 0 10 -2 10 -4z m-160 -155 c148 -2 161 -4 130 -15 -29
-11 -32 -14 -15 -18 11 -3 -8 -6 -42 -7 -40 -1 -63 3 -67 12 -5 10 -7 10 -12
0 -4 -10 -60 -13 -229 -13 -206 0 -223 1 -221 18 2 26 78 30 456 23z"></path>
<path d="M3269 2143 c-1 -21 -1 -62 1 -90 l2 -53 -39 -1 -38 -1 36 -7 c20 -4
70 -4 110 -1 l74 7 -63 2 -64 1 2 53 c4 86 1 127 -10 127 -5 0 -11 -17 -11
-37z"></path>
<path d="M3106 1899 c3 -67 13 -107 15 -63 0 10 2 45 4 77 2 42 0 57 -10 57
-10 0 -13 -17 -9 -71z"></path>
<path d="M3268 1918 c-4 -67 2 -128 12 -128 11 0 16 59 12 128 -5 67 -19 67
-24 0z"></path>
<path d="M2900 1720 c0 -5 5 -10 11 -10 5 0 7 5 4 10 -3 6 -8 10 -11 10 -2 0
-4 -4 -4 -10z"></path>
</g>
</svg>