 <svg version="1.0" xmlns="http://www.w3.org/2000/svg" viewBox="0 0 700.000000 423.000000" preserveAspectRatio="xMidYMid meet" id="mask">

<g transform="translate(0.000000,423.000000) scale(0.100000,-0.100000)">
<path d="M0 3931 l0 -299 48 -6 c65 -9 433 -44 1317 -126 l750 -70 150 23
c138 20 150 24 153 44 2 17 -3 23 -27 28 -40 8 -40 25 -1 25 l30 0 1 63 c0 53
-2 222 -5 337 -1 30 -5 35 -29 38 -19 2 -27 9 -27 23 0 18 6 20 67 17 54 -2
68 -6 71 -20 2 -12 -6 -19 -31 -23 l-34 -7 2 -206 c2 -114 3 -210 4 -214 1 -4
11 -10 23 -14 l23 -7 -23 -8 c-13 -5 -22 -17 -22 -29 0 -11 2 -20 5 -20 16 0
423 62 440 67 11 3 23 11 28 17 5 8 9 8 15 0 5 -9 79 -1 272 28 146 22 267 42
269 44 2 2 4 18 5 36 1 18 6 36 11 41 7 4 6 10 0 15 -7 4 -11 51 -12 112 0 58
-1 169 -2 248 l-1 142 -1735 0 -1735 0 0 -299z m2953 222 c31 -5 38 -9 35 -27
-2 -14 -11 -22 -30 -24 -31 -4 -37 -22 -33 -104 1 -32 -2 -58 -6 -58 -5 0 -9
30 -9 68 0 77 -5 86 -42 96 -35 8 -39 43 -5 49 36 7 50 7 90 0z m-2365 -40
c44 -11 16 -28 -51 -31 -97 -4 -187 25 -129 42 19 5 143 -2 180 -11z m2339
-275 l-2 -82 43 3 c52 3 104 -7 96 -20 -3 -5 -36 -9 -75 -9 -55 0 -69 -3 -69
-15 0 -8 -3 -15 -7 -15 -5 0 -7 49 -5 110 2 60 7 110 12 110 5 0 8 -37 7 -82z
m2 -220 c1 -16 -3 -28 -9 -28 -6 0 -10 24 -9 53 1 41 3 47 9 27 4 -14 8 -37 9
-52z"></path>
<path d="M3491 3935 c2 -262 5 -295 19 -295 16 0 1045 155 1560 235 157 24
321 49 365 55 144 21 1146 175 1355 210 63 10 136 21 163 25 44 6 47 8 47 36
l0 29 -1755 0 -1756 0 2 -295z m1433 157 c5 -3 1 -11 -9 -19 -23 -16 -181 -18
-190 -2 -11 17 3 24 63 30 55 6 118 2 136 -9z"></path>
</g>
</svg>