 <svg version="1.0" xmlns="http://www.w3.org/2000/svg" viewBox="0 0 700.000000 423.000000" preserveAspectRatio="xMidYMid meet" id="mask">

<g transform="translate(0.000000,423.000000) scale(0.100000,-0.100000)">
<path d="M6960 4163 c-205 -34 -1274 -198 -2912 -447 -302 -45 -550 -85 -554
-88 -3 -3 -4 -55 -3 -114 0 -60 1 -131 0 -157 l-2 -49 38 6 c21 3 90 10 153
16 63 6 284 28 490 50 206 21 498 51 647 66 l273 28 -22 20 -22 21 44 7 c50 8
1067 113 1195 124 68 5 107 1 248 -26 92 -18 167 -36 167 -40 0 -4 -13 -25
-29 -47 -15 -21 -32 -57 -36 -79 -13 -71 -22 -745 -24 -1711 l-1 -951 73 -12
c39 -7 127 -22 195 -34 l122 -23 0 1724 c0 947 -3 1722 -7 1722 -5 -1 -19 -4
-33 -6z"></path>
<path d="M0 3420 l0 -208 73 -6 c39 -3 236 -15 437 -26 448 -25 1102 -60 1112
-60 4 0 9 -244 11 -542 l2 -543 0 570 0 570 -23 32 c-12 17 -19 34 -15 36 5 2
58 10 118 17 93 11 143 10 330 -4 292 -22 308 -24 298 -45 -4 -9 -9 -74 -10
-146 -1 -87 1 -121 7 -102 5 16 6 35 3 43 -4 10 4 14 30 14 26 0 36 5 40 20 3
12 1 18 -5 14 -6 -4 -5 3 2 15 10 21 16 388 6 399 -3 2 -72 -6 -154 -18 -170
-25 -49 -32 -1032 60 -785 73 -1161 109 -1197 114 l-33 5 0 -209z"></path>
<path d="M3186 3589 c-137 -22 -252 -42 -255 -45 -3 -3 -5 -61 -6 -129 l0
-125 25 1 c14 0 77 6 140 13 84 10 144 11 223 4 155 -14 155 -14 159 74 2 40
1 112 0 161 -3 73 -7 87 -20 86 -10 -1 -129 -19 -266 -40z"></path>
<path d="M2645 3507 c-110 -16 -202 -31 -204 -33 -3 -2 0 -347 3 -421 1 -18 7
-23 26 -23 32 0 46 -10 47 -35 1 -11 4 -40 8 -65 5 -33 4 -41 -4 -30 -9 12
-11 9 -11 -14 l0 -28 104 4 c58 2 107 6 110 8 2 3 1 76 -4 164 l-7 158 -32 25
c-17 13 -31 28 -31 32 0 4 55 13 121 19 67 7 125 15 130 18 5 3 9 61 9 130 l0
124 -32 -1 c-18 -1 -123 -15 -233 -32z"></path>
<path d="M2471 2986 c-15 -18 -17 -40 -6 -91 l8 -40 12 65 c13 66 8 92 -14 66z"></path>
<path d="M2360 2970 c0 -11 2 -20 5 -20 2 0 9 9 15 20 9 16 8 20 -5 20 -8 0
-15 -9 -15 -20z"></path>
<path d="M2388 2940 c-12 -39 -10 -76 3 -63 6 6 9 28 7 49 -3 35 -4 36 -10 14z"></path>
<path d="M2352 2895 c0 -16 2 -22 5 -12 2 9 2 23 0 30 -3 6 -5 -1 -5 -18z"></path>
<path d="M2331 2458 l-1 -418 24 0 c13 0 30 9 37 21 9 13 27 22 49 24 19 1 34
5 33 9 -2 3 -3 157 -3 341 l0 335 -60 0 -60 0 -1 33 c0 17 -4 41 -9 52 -5 12
-9 -155 -9 -397z"></path>
<path d="M2370 2823 c0 -13 5 -23 10 -23 13 0 13 11 0 30 -8 12 -10 11 -10 -7z"></path>
<path d="M2420 2814 c0 -9 7 -14 17 -12 24 4 27 23 3 25 -12 1 -20 -4 -20 -13z"></path>
<path d="M1143 1963 c-30 -4 -33 -7 -33 -38 0 -45 16 -79 43 -90 16 -7 23 -21
27 -50 4 -35 9 -40 33 -43 l27 -3 0 115 0 116 -32 -2 c-18 0 -48 -3 -65 -5z"></path>
<path d="M978 1953 c-39 -2 -68 -8 -68 -15 0 -14 136 -6 152 10 9 9 9 12 -2
10 -8 -1 -45 -3 -82 -5z"></path>
<path d="M428 1913 c-16 -2 -28 -7 -28 -10 0 -3 16 -40 34 -82 19 -42 41 -94
48 -116 13 -40 14 -40 58 -37 81 6 82 7 77 70 -7 76 -21 154 -30 170 -8 12
-95 15 -159 5z"></path>
</g>
</svg>