 <svg version="1.0" xmlns="http://www.w3.org/2000/svg" id="mask" viewBox="0 0 700.000000 423.000000" preserveAspectRatio="xMidYMid meet">

<g transform="translate(0.000000,423.000000) scale(0.100000,-0.100000)">
<path d="M0 2625 c0 -1041 3 -1605 10 -1605 11 0 274 61 543 126 l188 46 -7
32 c-3 17 -7 33 -7 36 -4 19 16 113 29 140 12 23 15 47 11 87 -7 66 -15 61
177 97 77 15 142 29 145 31 2 3 -9 122 -25 265 -23 215 -26 262 -15 269 11 7
11 32 -2 147 -8 77 -14 140 -12 142 2 2 96 6 211 9 187 6 208 5 219 -11 12
-15 30 -16 185 -10 l172 7 -5 24 c-8 42 23 46 317 38 251 -7 269 -9 273 -26 5
-17 16 -19 129 -19 116 0 124 1 124 19 0 11 9 22 19 26 11 3 106 7 211 8 182
2 192 1 208 -18 17 -20 22 -21 214 -12 109 5 205 6 214 3 14 -5 16 -27 12
-181 l-3 -174 25 -6 c14 -4 77 -14 141 -24 l116 -17 10 725 c6 504 6 729 -2
737 -5 6 -257 108 -560 227 -302 118 -694 272 -871 341 l-320 126 -1037 0
-1037 0 0 -1605z m1017 1293 l441 -112 6 -66 c9 -97 29 -630 25 -634 -4 -3
-852 103 -856 108 -3 3 -73 766 -73 795 0 11 3 21 8 21 4 1 206 -50 449 -112z
m952 -258 c115 -28 244 -60 287 -73 l79 -22 6 -145 c11 -237 14 -408 9 -414
-5 -4 -451 44 -551 60 l-36 5 -7 202 c-3 111 -9 255 -12 320 -5 83 -4 117 4
117 7 0 106 -23 221 -50z m787 -197 l191 -47 6 -230 c3 -127 3 -234 -1 -237
-8 -8 -388 23 -397 32 -3 4 -10 87 -15 185 -5 99 -12 216 -15 262 -6 81 -6 82
17 82 13 0 109 -21 214 -47z m864 -22 c0 -34 -6 -40 -31 -34 -14 4 -19 14 -19
38 0 29 2 32 25 27 19 -3 25 -10 25 -31z m-351 -105 c74 -20 138 -39 142 -43
5 -5 6 -97 2 -206 l-6 -197 -29 0 c-32 0 -206 17 -255 26 l-33 5 0 223 c0 122
3 226 7 229 4 4 14 5 22 3 9 -3 76 -21 150 -40z m146 -791 c0 -29 -2 -30 -45
-30 -44 0 -45 1 -48 33 l-3 33 48 -3 c46 -3 48 -4 48 -33z"></path>
<path d="M1218 1823 c7 -3 16 -2 19 1 4 3 -2 6 -13 5 -11 0 -14 -3 -6 -6z"></path>
<path d="M1124 1812 c5 -8 76 -4 76 4 0 2 -18 4 -41 4 -22 0 -38 -4 -35 -8z"></path>
<path d="M1187 1780 c-27 -5 -51 -11 -54 -14 -3 -2 -2 -34 2 -71 l7 -66 52 3
51 3 0 77 c0 43 -2 77 -5 77 -3 -1 -27 -5 -53 -9z"></path>
</g>
</svg>