 <svg version="1.0" xmlns="http://www.w3.org/2000/svg" id="mask" viewBox="0 0 700.000000 423.000000" preserveAspectRatio="xMidYMid meet">

<g transform="translate(0.000000,423.000000) scale(0.100000,-0.100000)">
<path d="M2340 2172 c0 -6 4 -22 10 -36 9 -26 9 -26 -40 -26 -28 0 -50 -2 -50
-5 0 -3 9 -16 21 -28 18 -20 20 -30 14 -89 -7 -77 9 -95 19 -23 7 44 8 45 46
45 41 0 50 -11 50 -61 0 -26 3 -29 34 -29 38 0 57 -16 32 -26 -31 -12 -18 -41
22 -48 58 -9 161 -7 227 5 33 6 103 11 155 10 116 -2 132 6 107 49 -16 27 -16
30 -2 30 14 0 15 15 13 113 l-3 112 -285 1 c-157 0 -304 4 -327 8 -28 5 -43 4
-43 -2z"></path>
<path d="M3640 2079 c0 -55 4 -109 10 -119 7 -13 6 -21 -5 -30 -8 -7 -15 -23
-15 -36 0 -24 -2 -24 -92 -24 -197 0 -530 -14 -511 -21 11 -4 42 -10 69 -14
27 -4 68 -16 92 -26 24 -11 58 -22 75 -26 53 -10 57 -18 57 -114 0 -78 4 -99
31 -164 l31 -74 187 2 186 2 600 -107 600 -106 663 -356 663 -357 351 -79
c194 -44 355 -80 360 -80 4 0 8 15 8 34 l0 34 -77 17 c-152 33 -138 24 -138
88 0 31 3 58 5 61 3 2 46 -4 95 -14 50 -11 96 -19 103 -20 9 0 12 158 12 759
l0 758 -342 8 c-189 4 -485 17 -658 29 -342 24 -373 22 -345 -20 13 -20 14
-49 9 -179 -4 -91 -3 -155 2 -155 5 0 15 -4 23 -9 11 -7 9 -14 -9 -39 -16 -21
-21 -40 -18 -61 4 -27 1 -31 -18 -31 -43 0 -617 148 -625 161 -5 8 -9 22 -9
33 0 10 -11 29 -25 42 -25 23 -25 23 -44 3 -11 -12 -16 -29 -13 -44 4 -23 1
-25 -34 -25 -22 0 -82 5 -135 10 -80 8 -479 36 -942 66 -83 5 -97 9 -92 22 3
9 -5 26 -21 43 -23 24 -24 28 -9 36 12 7 17 32 22 116 l6 107 -41 0 -42 0 0
-101z m718 -655 c6 -2 12 -15 12 -29 0 -19 -5 -25 -22 -25 -50 0 -68 11 -68
41 0 27 2 28 33 23 17 -3 38 -7 45 -10z m2272 -799 c62 -14 115 -25 117 -25 5
0 3 -106 -2 -112 -3 -3 -62 6 -130 21 l-125 26 0 35 c0 42 10 80 20 80 4 0 58
-11 120 -25z"></path>
<path d="M2120 2131 c0 -56 8 -71 39 -71 22 0 61 29 61 45 0 3 -21 5 -46 5
-45 0 -46 0 -39 30 4 19 3 30 -4 30 -6 0 -11 -18 -11 -39z"></path>
<path d="M4940 2016 l0 -134 26 -6 c15 -4 31 -3 37 3 6 6 12 69 15 141 l5 130
-42 0 -41 0 0 -134z"></path>
<path d="M790 2121 l-45 -6 2 -170 c3 -192 7 -222 27 -206 7 6 46 20 87 30
l74 19 -4 38 c-1 21 -9 50 -16 64 -13 27 -39 129 -50 198 -4 23 -12 41 -18 40
-7 0 -32 -4 -57 -7z"></path>
<path d="M570 2113 c-36 -2 -80 -5 -98 -8 l-32 -6 15 -30 c9 -16 14 -33 11
-38 -3 -4 -38 -11 -78 -15 -39 -3 -74 -8 -76 -10 -2 -3 15 -22 38 -43 l43 -38
-7 -70 c-13 -126 -13 -120 13 -123 16 -3 30 3 38 14 28 38 168 59 193 29 7 -9
10 -18 6 -22 -3 -3 8 -15 25 -25 34 -21 31 -38 -8 -38 l-26 0 6 -127 c4 -71 7
-173 8 -228 0 -55 3 -93 6 -85 3 8 11 18 17 22 8 5 7 8 -2 8 -9 0 -11 36 -7
162 4 141 8 166 26 197 20 34 21 49 20 244 -1 114 -4 214 -7 222 -4 9 -17 14
-33 13 -14 -1 -55 -3 -91 -5z"></path>
<path d="M88 2013 l-88 -4 0 -843 0 -844 93 34 c50 19 111 41 134 50 l43 16 0
121 c0 91 -4 130 -16 152 -13 26 -15 72 -11 334 3 220 7 306 15 309 7 2 12 11
12 20 0 15 2 15 10 2 8 -13 10 -13 10 1 0 23 39 37 124 45 79 7 86 12 86 72 0
13 4 20 10 17 6 -4 8 -9 6 -13 -2 -4 0 -25 4 -47 6 -32 8 -23 9 48 l1 89 -27
-6 c-56 -11 -255 -37 -258 -34 -2 2 -4 91 -6 198 -2 198 5 250 35 250 7 0 16
9 19 20 6 22 20 21 -205 13z"></path>
<path d="M2315 1870 c-4 -6 5 -10 19 -10 14 0 26 5 26 10 0 6 -9 10 -19 10
-11 0 -23 -4 -26 -10z"></path>
<path d="M2830 1823 c0 -10 129 -25 139 -16 10 8 -11 14 -73 20 -42 4 -66 2
-66 -4z"></path>
<path d="M3006 1811 c-7 -11 10 -17 78 -26 57 -8 56 9 -1 19 -21 4 -45 9 -55
12 -9 3 -19 0 -22 -5z"></path>
<path d="M3170 1777 c0 -2 25 -29 55 -60 54 -55 55 -56 55 -28 0 30 -17 50
-67 75 -31 16 -43 19 -43 13z"></path>
<path d="M572 1500 c0 -47 3 -94 7 -104 4 -11 6 20 4 70 -6 121 -11 137 -11
34z"></path>
</g>
</svg>