 <svg version="1.0" xmlns="http://www.w3.org/2000/svg" id="mask" viewBox="0 0 700.000000 423.000000" preserveAspectRatio="xMidYMid meet">

<g transform="translate(0.000000,423.000000) scale(0.100000,-0.100000)">
<path d="M0 3119 l0 -1112 68 6 c37 4 82 7 101 7 l34 0 -6 99 -7 98 53 7 c120
14 123 13 158 -55 l30 -61 127 7 c70 4 130 9 133 11 4 2 9 16 12 31 5 25 16
32 114 66 59 22 145 48 191 59 l82 21 0 397 c0 277 3 399 11 402 12 4 808
-127 815 -135 3 -2 5 -158 4 -344 0 -264 2 -342 12 -350 7 -6 43 -20 81 -32
37 -13 67 -26 67 -31 0 -15 31 -40 49 -40 11 0 25 15 36 40 l18 40 59 0 c56 0
59 -1 74 -34 16 -33 18 -33 98 -40 44 -3 195 -6 335 -6 l253 0 -3 508 -4 507
315 -4 c173 -2 318 -5 323 -8 4 -2 7 -227 7 -499 l0 -494 39 0 39 0 8 108 c4
59 4 281 1 494 l-6 388 22 5 c12 3 128 26 257 51 129 25 394 76 588 115 195
38 355 69 358 69 2 0 4 -281 4 -624 l0 -623 32 -7 c17 -3 33 -5 35 -3 2 2 6
296 10 654 l6 650 186 108 c102 60 248 146 323 191 107 64 141 79 151 70 12
-9 13 -145 7 -851 -4 -462 -6 -841 -4 -843 10 -15 893 -59 1222 -61 l82 -1 0
1080 0 1080 -680 0 -680 0 -332 -248 -333 -249 -610 -158 c-335 -88 -632 -161
-660 -162 -27 -2 -286 3 -574 10 -335 9 -535 11 -555 5 -27 -8 -133 22 -796
226 -639 197 -832 260 -1172 388 -326 122 -408 156 -408 170 0 16 -11 18 -100
18 l-100 0 0 -1111z m6188 -396 l-3 -268 -110 -6 c-60 -4 -156 -10 -212 -13
l-103 -7 0 168 c0 92 3 198 6 234 l7 67 56 11 c31 6 119 27 196 45 77 19 146
35 153 35 10 1 12 -56 10 -266z m-5593 -43 c138 -11 260 -23 273 -25 22 -5 22
-8 22 -146 l0 -140 -187 6 c-104 3 -248 8 -322 11 l-134 6 7 76 c3 41 6 113 6
159 l0 84 43 -5 c23 -3 155 -15 292 -26z"></path>
<path d="M1031 2257 c-50 -10 -71 -27 -71 -55 0 -23 25 -32 88 -32 l42 0 0 44
c0 25 -3 47 -7 49 -5 2 -28 0 -52 -6z"></path>
<path d="M1926 2242 c-3 -3 -6 -13 -6 -22 0 -12 11 -19 38 -24 50 -8 72 -8 72
2 0 10 -97 52 -104 44z"></path>
<path d="M856 2204 c-116 -50 -137 -81 -51 -76 l54 4 -6 30 -6 30 44 -3 c38
-3 44 -1 44 15 0 28 -13 28 -79 0z"></path>
</g>
</svg>