 <svg version="1.0" xmlns="http://www.w3.org/2000/svg" id="mask" viewBox="0 0 700.000000 423.000000" preserveAspectRatio="xMidYMid meet">

<g transform="translate(0.000000,423.000000) scale(0.100000,-0.100000)">
<path d="M2 3033 l3 -318 153 -21 c84 -12 159 -25 167 -28 13 -5 15 -56 15
-356 0 -304 2 -350 15 -350 21 0 18 -11 -10 -39 -19 -17 -25 -33 -25 -66 l0
-42 -52 -7 c-29 -3 -80 -6 -114 -6 -34 0 -82 -3 -108 -6 l-46 -7 0 -654 c0
-619 1 -654 18 -649 13 4 604 156 607 156 0 0 -1 240 -3 532 l-3 533 -25 37
c-21 33 -24 49 -24 132 0 57 4 97 11 102 6 3 42 9 81 13 l71 6 -2 585 c-1 321
-3 586 -5 587 -4 4 -704 183 -716 183 -7 0 -9 -98 -8 -317z"></path>
<path d="M6795 3086 l-190 -184 -7 -583 c-3 -321 -6 -747 -7 -946 l-1 -362
101 -123 c55 -68 147 -167 205 -221 l104 -99 0 1351 c0 743 -3 1351 -7 1351
-5 -1 -93 -83 -198 -184z m80 -841 c0 -203 -3 -377 -6 -385 -6 -14 -20 -15
-110 -5 l-104 10 -3 35 c-2 19 -10 42 -18 51 -8 9 -12 23 -8 32 3 9 9 133 12
274 l7 258 95 52 c52 28 104 51 115 50 20 -2 20 -9 20 -372z"></path>
<path d="M2422 2436 c-1 -177 -5 -351 -8 -388 l-6 -68 26 0 26 0 0 199 c0 110
4 202 9 205 5 3 89 -5 187 -19 99 -14 180 -25 182 -25 1 0 3 -84 4 -187 l1
-188 10 185 c5 102 11 186 12 188 1 1 66 -5 143 -14 l141 -17 3 -176 c2 -97 0
-180 -4 -186 -5 -5 -8 -19 -8 -32 0 -23 -2 -23 -115 -25 -63 -1 -125 -2 -137
-2 -19 -1 -24 5 -26 32 -2 17 -7 32 -12 32 -10 0 -20 -25 -20 -50 0 -16 -14
-18 -135 -25 -105 -5 -135 -10 -135 -21 0 -9 -12 -14 -35 -14 l-35 0 0 -350
c0 -274 3 -350 13 -350 6 1 71 18 143 38 92 26 140 46 164 66 31 25 39 27 84
21 35 -4 75 0 143 16 l93 23 0 48 c0 45 3 50 40 76 l40 27 -2 120 c-2 81 1
123 9 130 8 7 13 134 18 431 l7 421 -219 52 c-120 29 -303 74 -408 100 l-190
47 -3 -320z"></path>
<path d="M3160 1344 c0 -9 7 -14 17 -12 25 5 28 28 4 28 -12 0 -21 -6 -21 -16z"></path>
</g>
</svg>