 <svg version="1.0" xmlns="http://www.w3.org/2000/svg" id="mask" viewBox="0 0 700.000000 423.000000" preserveAspectRatio="xMidYMid meet">

<g transform="translate(0.000000,423.000000) scale(0.100000,-0.100000)">
<path d="M4625 3402 c-401 -79 -732 -145 -733 -147 -7 -6 -7 -663 -1 -669 3
-3 334 24 735 62 l729 67 3 30 c2 17 8 36 14 43 7 8 7 16 -1 25 -7 9 -12 128
-13 373 l-3 359 -730 -143z m622 -198 c-5 -5 -165 -34 -184 -34 -10 0 -13 25
-13 89 l0 90 53 10 c28 6 72 15 97 19 l45 8 3 -89 c1 -49 1 -91 -1 -93z m-209
49 l-3 -88 -90 -12 c-49 -6 -93 -9 -97 -7 -14 9 -9 152 5 161 16 10 112 30
155 32 l33 1 -3 -87z m-276 -47 l-3 -84 -32 -5 c-18 -3 -58 -9 -89 -13 l-58
-6 0 84 0 85 63 10 c34 6 76 11 92 12 l30 1 -3 -84z m-192 -30 l0 -83 -52 -7
c-29 -4 -68 -9 -85 -12 l-33 -6 0 80 0 81 58 11 c31 6 62 13 67 15 41 14 45 7
45 -79z m-250 -40 l0 -84 -67 -8 c-38 -4 -72 -8 -78 -9 -5 0 -13 23 -16 50
l-6 50 -1 -51 c-2 -59 -3 -60 -91 -70 l-61 -7 0 77 c0 86 -9 79 115 96 57 8
192 34 203 39 1 0 2 -37 2 -83z m930 -40 c0 -95 5 -90 -90 -101 -30 -3 -67 -8
-82 -11 l-28 -6 0 90 0 90 68 9 c37 6 82 11 100 12 l32 1 0 -84z m-210 -35 l0
-88 -62 -7 c-35 -4 -78 -9 -95 -13 l-33 -5 0 90 0 89 73 10 c129 18 117 26
117 -76z m-280 -35 c0 -95 9 -87 -118 -102 l-63 -7 3 84 3 84 70 11 c115 19
105 25 105 -70z m-190 -30 l0 -84 -57 -6 c-32 -4 -70 -9 -85 -12 l-28 -6 0 85
0 85 68 9 c112 17 102 24 102 -71z m-250 -36 c0 -57 -4 -80 -12 -81 -10 0 -10
-2 0 -6 8 -3 12 -30 12 -83 l0 -79 -42 -6 c-24 -3 -59 -6 -78 -8 l-35 -2 -2
157 c-1 111 2 160 10 165 12 7 79 19 125 22 21 1 22 -2 22 -79z m-170 -20 c0
-57 -4 -80 -12 -81 -10 0 -10 -2 0 -6 8 -3 12 -30 12 -83 l0 -78 -37 -6 c-21
-3 -54 -7 -73 -8 l-35 -3 0 75 0 75 60 12 60 12 -63 -5 -63 -6 3 78 3 79 65
11 c36 6 68 12 73 13 4 0 7 -35 7 -79z m1100 -39 c0 -50 -3 -92 -8 -94 -4 -3
-49 -8 -100 -12 l-93 -8 3 89 3 89 85 11 c47 6 91 12 98 13 9 1 12 -23 12 -88z
m-210 -30 l0 -88 -61 -7 c-34 -3 -77 -6 -95 -6 l-34 0 0 84 0 84 68 9 c37 6
79 11 95 12 l27 1 0 -89z m-282 -33 l-3 -83 -40 -7 c-22 -4 -62 -7 -88 -7
l-48 -1 3 83 3 82 40 6 c22 3 62 7 88 8 l48 1 -3 -82z m-188 -23 c0 -74 -2
-85 -17 -86 -10 0 -48 -3 -85 -8 l-68 -7 0 82 0 83 48 6 c26 3 54 8 62 9 59
13 60 12 60 -79z"></path>
<path d="M4243 2863 c9 -2 23 -2 30 0 6 3 -1 5 -18 5 -16 0 -22 -2 -12 -5z"></path>
<path d="M0 2605 c0 -87 3 -105 15 -105 13 0 15 -20 15 -120 0 -100 -2 -120
-15 -120 -8 0 -15 -7 -15 -15 0 -8 7 -15 15 -15 12 0 15 -19 15 -110 0 -91 -3
-110 -15 -110 -12 0 -15 -19 -15 -109 l0 -109 38 4 c20 2 89 6 154 10 126 6
127 7 128 72 0 13 11 34 24 47 20 20 22 26 10 33 -12 7 -15 67 -21 359 l-6
350 -151 22 c-83 11 -157 21 -163 21 -10 0 -13 -28 -13 -105z"></path>
<path d="M6733 2559 l-93 -50 -2 -267 c0 -147 0 -274 1 -282 1 -8 6 -33 9 -55
l7 -40 103 -8 c57 -5 105 -7 107 -5 6 6 7 122 6 441 l-1 317 -22 0 c-13 0 -65
-23 -115 -51z m85 -336 c-3 -197 -3 -198 -25 -201 l-23 -3 0 195 c0 205 -1
198 43 205 4 0 6 -88 5 -196z"></path>
<path d="M5888 2441 c-152 -9 -279 -19 -281 -21 -2 -3 -7 -204 -11 -446 l-6
-441 37 -7 c21 -3 50 -6 66 -6 24 0 27 4 27 33 0 54 8 58 96 55 l79 -3 3 -47
c4 -61 22 -63 22 -3 l0 45 85 0 85 0 0 -43 c0 -38 5 -48 48 -90 26 -26 53 -47
58 -47 6 0 23 -9 38 -21 l26 -20 0 540 0 541 -47 -1 c-27 -1 -173 -9 -325 -18z
m220 -229 l3 -112 -34 0 c-19 0 -62 -3 -96 -6 l-61 -7 0 116 0 116 83 3 c45 2
87 3 92 3 6 -1 11 -48 13 -113z m-208 -1 l0 -108 -37 -7 c-21 -3 -59 -6 -85
-6 l-48 0 0 110 0 109 68 4 c37 2 75 4 85 5 15 2 17 -9 17 -107z m0 -241 l0
-110 -85 0 -85 0 0 110 0 110 85 0 85 0 0 -110z m200 0 l0 -110 -90 0 -90 0 0
110 0 110 90 0 90 0 0 -110z m-200 -234 c0 -58 -3 -107 -7 -109 -5 -2 -45 -2
-90 1 l-83 4 0 104 0 104 90 0 90 0 0 -104z m198 -8 l-3 -111 -85 2 c-47 1
-87 5 -90 9 -3 4 -4 53 -2 110 l3 102 90 0 90 0 -3 -112z"></path>
<path d="M4571 2369 c-371 -22 -676 -40 -677 -42 -9 -9 -18 -856 -10 -884 11
-36 17 -38 139 -49 65 -5 78 -4 75 7 -2 8 -10 35 -17 62 -13 44 -15 47 -47 47
l-34 0 0 80 0 80 70 0 70 0 0 -80 c0 -57 -4 -80 -12 -81 -26 -2 38 -17 72 -17
l35 1 -35 6 -35 6 -3 83 -3 83 71 -2 c56 -1 73 -5 80 -19 9 -16 58 -40 83 -40
5 0 7 11 5 25 l-5 25 88 0 c83 0 88 -1 92 -22 4 -20 4 -20 6 -3 1 19 7 20 84
16 45 -2 84 -6 87 -10 11 -14 60 -41 75 -41 8 0 15 9 15 20 0 19 7 20 95 20
l95 0 0 -30 c0 -16 5 -30 10 -30 6 0 10 14 10 31 0 28 3 31 23 25 12 -3 56 -6
97 -6 68 0 76 -2 85 -22 8 -18 21 -24 58 -28 l47 -6 0 418 0 418 -57 -1 c-32
-1 -361 -19 -732 -40z m679 -178 l0 -98 -90 -7 c-49 -4 -94 -5 -100 -1 -6 3
-10 47 -10 100 l0 94 33 4 c17 2 62 5 100 5 l67 2 0 -99z m-212 -8 l-4 -98
-92 -3 -92 -3 0 101 0 100 96 0 95 0 -3 -97z m-286 -8 l3 -95 -26 0 c-14 0
-54 -3 -88 -6 l-61 -7 0 96 0 96 48 4 c26 2 64 4 84 5 l37 2 3 -95z m-182 -5
c0 -88 -1 -90 -24 -90 -12 0 -51 -3 -85 -6 l-61 -7 0 91 c0 104 -6 98 108 101
l62 1 0 -90z m-420 -14 l0 -84 -71 -4 c-39 -2 -73 -1 -75 1 -2 2 -4 39 -4 82
0 88 -3 85 98 88 l52 1 0 -84z m160 -1 l0 -85 -75 0 -75 0 0 78 c0 43 3 82 7
85 3 4 37 7 75 7 l68 0 0 -85z m720 -185 l0 -101 -92 3 -93 3 -3 92 -3 92 68
4 c37 2 80 4 96 5 l27 2 0 -100z m218 -2 l3 -98 -101 0 -100 0 0 100 0 101 98
-3 97 -3 3 -97z m-688 -3 l0 -95 -80 0 -80 0 0 95 0 95 80 0 80 0 0 -95z m192
4 c2 -50 1 -93 -1 -95 -2 -2 -42 -4 -88 -4 l-83 0 0 95 0 95 84 0 85 0 3 -91z
m-602 -4 l0 -85 -75 0 -75 0 0 85 0 85 75 0 75 0 0 -85z m160 1 l0 -84 -67 -4
c-38 -3 -71 -3 -75 -1 -5 2 -8 42 -8 89 l0 84 75 0 75 0 0 -84z m-160 -191 l0
-85 -75 0 -75 0 0 85 0 85 75 0 75 0 0 -85z m160 -6 c0 -90 0 -91 -22 -85 -13
3 -47 6 -75 6 l-53 0 0 85 0 85 75 0 75 0 0 -91z m258 -1 l-3 -93 -85 4 c-47
2 -85 4 -85 5 0 0 1 40 3 89 l3 87 85 0 85 0 -3 -92z m182 -3 l0 -95 -85 0
-85 0 0 95 0 95 85 0 85 0 0 -95z m280 -11 l0 -94 -95 0 -95 0 0 93 c0 52 2
96 4 98 2 2 45 3 95 1 l91 -3 0 -95z m213 89 c3 -5 3 -50 0 -100 l-6 -93 -71
0 c-120 0 -116 -3 -116 106 l0 94 94 0 c52 0 97 -3 99 -7z"></path>
<path d="M2460 2308 c0 -40 3 -130 7 -200 l6 -128 44 0 43 0 0 -55 0 -54 123
5 c67 3 127 7 134 9 6 2 13 16 15 32 2 17 9 28 18 28 11 0 14 -8 12 -28 l-3
-29 135 4 c74 1 138 7 143 11 4 5 8 97 8 205 l0 197 -135 16 c-74 9 -138 14
-142 12 -5 -2 -8 -85 -8 -183 0 -108 -4 -181 -10 -185 -7 -4 -10 58 -10 179 0
102 -4 187 -8 190 -12 7 -296 46 -337 46 l-35 0 0 -72z m135 -118 l0 -65 -30
0 -30 0 -3 68 -3 68 33 -3 33 -3 0 -65z m103 -2 l-3 -63 -42 -3 -43 -3 0 65 0
66 45 0 46 0 -3 -62z m252 -13 c0 -48 -2 -55 -20 -55 -18 0 -20 7 -20 55 0 48
2 55 20 55 18 0 20 -7 20 -55z m80 -10 l0 -55 -35 0 -35 0 0 55 0 55 35 0 35
0 0 -55z m-432 -112 c-3 -57 -3 -58 -33 -58 -30 0 -30 1 -33 58 l-3 57 36 0
36 0 -3 -57z m102 2 l0 -55 -45 0 -45 0 0 55 0 55 45 0 45 0 0 -55z m330 6 c0
-14 3 -36 6 -48 6 -21 3 -23 -35 -23 l-41 0 0 48 c0 27 2 51 5 54 3 2 18 3 35
0 25 -3 30 -9 30 -31z m-80 -21 c0 -43 -3 -50 -20 -50 -17 0 -20 7 -20 50 0
43 3 50 20 50 17 0 20 -7 20 -50z"></path>
<path d="M3545 2305 c-88 -7 -161 -13 -162 -14 -2 0 -3 -134 -3 -296 l0 -295
35 0 c19 0 35 -1 35 -2 0 -2 -7 -38 -15 -81 -8 -43 -15 -100 -15 -127 l0 -47
103 -7 c56 -4 125 -9 153 -12 l51 -6 6 39 c4 21 7 224 7 451 0 386 -1 412 -17
411 -10 -1 -90 -7 -178 -14z m135 -165 l0 -79 -95 0 -95 0 0 74 c0 85 -5 82
113 83 l77 1 0 -79z m0 -169 l0 -79 -37 -4 c-21 -3 -39 -5 -40 -4 -2 1 -5 144
-4 159 1 4 19 7 41 7 l40 0 0 -79z m-100 -11 l0 -80 -45 0 -45 0 0 80 0 80 45
0 45 0 0 -80z m0 -170 l0 -80 -45 0 -45 0 0 80 0 80 45 0 45 0 0 -80z m100 -1
l0 -80 -42 3 c-24 2 -42 6 -40 11 1 4 2 39 2 77 l0 70 40 0 40 0 0 -81z m-98
-168 l-4 -69 -36 -6 c-20 -3 -40 -2 -45 3 -5 5 -6 39 -2 75 l7 66 42 0 41 0
-3 -69z m98 -7 l0 -75 -42 3 c-24 2 -42 6 -40 11 1 4 2 36 2 72 l0 65 40 0 40
0 0 -76z"></path>
<path d="M3380 1574 c0 -45 24 -42 28 4 2 24 -1 32 -12 32 -12 0 -16 -10 -16
-36z"></path>
<path d="M5260 1499 c0 -11 5 -17 10 -14 6 3 10 13 10 21 0 8 -4 14 -10 14 -5
0 -10 -9 -10 -21z"></path>
<path d="M3380 1486 c0 -8 5 -18 10 -21 6 -3 10 3 10 14 0 12 -4 21 -10 21 -5
0 -10 -6 -10 -14z"></path>
<path d="M3230 1316 c0 -13 12 -16 77 -16 95 0 88 17 -10 27 -58 5 -67 4 -67
-11z"></path>
<path d="M3173 1313 c-7 -2 -13 -16 -13 -30 0 -20 4 -24 23 -21 16 2 23 11 25
31 3 27 -6 32 -35 20z"></path>
<path d="M3432 1261 l3 -45 230 -27 c127 -15 247 -30 268 -32 35 -5 37 -3 37
22 0 14 -11 38 -24 52 -29 31 -29 31 -484 72 l-33 3 3 -45z m368 -47 c0 -24
-3 -26 -32 -20 -38 8 -42 11 -35 31 4 9 19 15 37 15 26 0 30 -4 30 -26z"></path>
<path d="M3023 1277 c-64 -16 -83 -25 -87 -41 -3 -11 -1 -25 5 -32 7 -8 7 -14
-1 -19 -19 -12 -10 -25 18 -25 15 0 60 10 100 21 l72 22 0 48 c0 56 6 55 -107
26z"></path>
<path d="M3230 1270 c0 -6 29 -10 65 -10 36 0 67 0 70 0 3 0 5 3 5 8 0 4 -31
8 -70 9 -40 2 -70 -2 -70 -7z"></path>
<path d="M3160 1230 c0 -5 7 -7 15 -4 8 4 15 8 15 10 0 2 -7 4 -15 4 -8 0 -15
-4 -15 -10z"></path>
<path d="M3320 1236 c0 -2 14 -6 30 -8 17 -3 30 -1 30 4 0 4 -13 8 -30 8 -16
0 -30 -2 -30 -4z"></path>
<path d="M2635 1174 c-137 -39 -149 -43 -144 -48 2 -2 62 8 132 23 91 19 132
32 138 44 12 21 17 22 -126 -19z"></path>
<path d="M505 608 c-60 -16 -199 -52 -307 -80 l-198 -51 0 -113 c0 -63 3 -114
8 -114 4 0 144 43 312 94 260 80 305 96 303 112 -1 10 4 29 12 44 14 27 6 114
-11 129 -5 4 -58 -6 -119 -21z"></path>
</g>
</svg>