 <svg version="1.0" xmlns="http://www.w3.org/2000/svg" viewBox="0 0 700.000000 423.000000" preserveAspectRatio="xMidYMid meet" id="mask">

<g transform="translate(0.000000,423.000000) scale(0.100000,-0.100000)">
<path d="M2753 3452 c-394 -198 -413 -208 -413 -234 l0 -28 853 2 852 3 3 25
c3 24 -20 37 -402 233 -222 114 -407 207 -410 207 -3 0 -6 -45 -6 -100 l0
-100 -25 0 -25 0 0 100 c0 55 -3 100 -7 99 -5 0 -194 -93 -420 -207z"></path>
<path d="M4196 3089 c-200 -101 -315 -164 -309 -170 5 -5 88 -49 184 -97 96
-49 208 -107 249 -129 257 -137 330 -173 356 -176 16 -2 30 -6 32 -10 5 -13
-28 -66 -48 -77 -11 -6 -20 -14 -20 -18 0 -4 353 -9 785 -11 651 -2 785 0 785
11 0 7 -163 97 -372 205 -585 301 -1218 623 -1223 623 -3 0 -5 -10 -5 -22 0
-12 -4 -35 -10 -52 -5 -17 -16 -65 -23 -106 -13 -74 -14 -75 -45 -78 l-32 -3
0 116 c0 64 5 125 10 136 6 10 9 19 8 18 -2 0 -146 -72 -322 -160z"></path>
<path d="M2337 3123 c-4 -3 -7 -114 -7 -245 l0 -238 128 0 127 0 123 60 122
59 0 185 0 186 -243 0 c-134 0 -247 -3 -250 -7z"></path>
<path d="M3420 3088 c1 -37 2 -41 13 -27 7 10 30 24 50 33 35 14 42 14 78 0
21 -9 39 -20 39 -24 0 -4 19 -17 43 -29 l42 -23 110 56 110 55 -242 1 -243 0
0 -42z"></path>
<path d="M1650 2720 c0 -93 2 -170 4 -170 6 0 567 130 589 136 15 5 17 19 17
105 l0 99 -305 0 -305 0 0 -170z"></path>
<path d="M3060 2662 l-455 -227 93 -3 c71 -2 120 3 205 22 420 94 805 94 1226
1 102 -22 299 -39 284 -24 -9 9 -861 446 -883 452 -8 3 -220 -97 -470 -221z"></path>
<path d="M3946 2315 l-16 -25 -441 0 -441 0 6 -22 c3 -13 6 -222 6 -465 l0
-443 55 0 55 0 0 425 0 425 273 0 274 0 6 -272 c4 -149 7 -342 7 -429 l0 -158
103 -3 c56 -2 110 -7 120 -12 16 -8 17 19 17 498 0 278 -2 506 -4 506 -2 0
-11 -11 -20 -25z m-92 -331 c9 -23 7 -97 -3 -112 -10 -17 -76 -12 -75 6 1 6 2
37 3 67 l1 55 34 0 c22 0 36 -6 40 -16z"></path>
<path d="M4070 1820 l0 -500 60 0 60 0 0 34 c0 19 6 36 13 38 9 4 13 97 15
412 2 353 1 409 -13 428 -8 13 -15 32 -15 44 0 17 -9 24 -44 33 -25 6 -52 11
-60 11 -14 0 -16 -54 -16 -500z"></path>
<path d="M5762 1823 l3 -498 216 -3 216 -2 6 112 c4 62 7 287 7 501 l0 387
-225 0 -226 0 3 -497z"></path>
<path d="M4480 2258 c-19 -21 -20 -33 -20 -420 0 -246 4 -406 10 -418 6 -11
15 -29 20 -40 6 -11 10 -36 10 -55 0 -50 18 -44 22 8 7 102 -3 947 -12 947 -5
0 -18 -10 -30 -22z"></path>
<path d="M1714 2163 l-391 -3 -7 -53 c-3 -28 -6 -229 -6 -444 l0 -393 150 0
150 0 0 360 0 360 485 0 485 0 0 90 0 90 -237 -2 c-131 -2 -414 -4 -629 -5z
m-246 -325 c7 -7 12 -34 12 -60 l0 -48 -37 0 -38 0 -3 50 c-1 28 0 55 3 60 9
14 49 12 63 -2z"></path>
<path d="M2812 2083 l3 -88 78 0 c42 0 77 3 77 8 0 4 0 43 0 87 l0 80 -80 0
-81 0 3 -87z"></path>
</g>
</svg>