 <svg version="1.0" xmlns="http://www.w3.org/2000/svg" viewBox="0 0 700.000000 423.000000" preserveAspectRatio="xMidYMid meet" id="mask">

<g transform="translate(0.000000,423.000000) scale(0.100000,-0.100000)">
<path d="M2675 3528 c-353 -178 -534 -264 -563 -267 l-44 -6 27 -40 c15 -22
28 -46 29 -53 2 -7 7 -17 12 -20 6 -4 34 -38 63 -77 l53 -70 -411 -3 c-241 -1
-411 -6 -411 -11 0 -5 7 -16 15 -25 8 -8 15 -27 15 -41 0 -20 4 -26 15 -21 8
3 15 1 15 -5 0 -5 11 -14 25 -19 14 -5 25 -17 25 -25 0 -9 11 -26 25 -39 24
-22 25 -28 25 -145 l0 -121 25 0 25 0 2 178 3 177 310 0 310 0 3 -133 3 -133
27 3 27 3 3 248 2 247 250 0 250 0 2 -184 3 -184 43 21 c26 12 39 23 32 27 -6
4 -10 20 -8 36 3 26 7 29 45 32 33 2 42 -1 46 -15 4 -17 5 -17 6 0 1 13 10 17
44 17 64 1 90 20 91 66 l1 39 53 3 c44 3 52 0 52 -14 0 -16 1 -16 13 -2 6 9
23 19 37 21 21 4 20 5 -7 6 -30 1 -33 4 -33 35 0 32 1 34 47 39 57 6 63 3 63
-28 0 -23 2 -24 25 -13 21 9 25 18 25 54 l0 43 263 3 262 3 45 27 45 28 -848
0 -848 0 3 26 c3 22 48 48 425 239 l422 214 3 -102 c3 -94 4 -102 23 -102 18
0 20 8 25 101 l5 101 410 -211 c254 -131 410 -217 411 -226 1 -8 2 -19 2 -23
2 -9 142 64 142 73 0 7 -983 510 -996 510 -5 0 -243 -118 -529 -262z m435
-494 l0 -34 -55 0 -55 0 0 34 c0 34 1 35 48 38 61 4 62 3 62 -38z m-120 1 l0
-35 -55 0 -55 0 0 35 0 35 55 0 55 0 0 -35z m250 0 l0 -35 -55 0 -55 0 0 35 0
35 55 0 55 0 0 -35z m-250 -86 l0 -40 -52 3 c-47 3 -53 6 -56 26 -6 43 4 52
58 52 l50 0 0 -41z m115 1 l0 -35 -50 0 c-45 0 -50 2 -53 23 -6 44 4 53 55 50
48 -3 48 -3 48 -38z"></path>
<path d="M4143 3212 c-227 -114 -413 -209 -413 -212 0 -9 123 -70 139 -70 8 0
156 72 329 160 286 145 349 173 314 138 -8 -8 -12 -53 -12 -131 l0 -118 33 3
32 3 12 80 c20 139 25 165 35 171 4 3 284 -135 621 -308 906 -463 981 -502
979 -513 -1 -7 -276 -11 -794 -12 l-793 -2 31 27 c28 24 54 61 54 76 0 3 -23
6 -50 6 -58 0 -59 1 -708 336 -227 118 -418 214 -426 214 -7 0 -255 -120 -552
-267 -533 -264 -540 -267 -596 -264 -32 1 -58 -1 -58 -6 1 -17 26 -52 58 -78
23 -19 32 -35 32 -56 0 -22 6 -32 24 -39 73 -27 28 -30 -522 -30 -307 0 -749
-3 -981 -7 l-422 -6 21 -21 c11 -12 35 -26 53 -32 26 -9 31 -15 29 -36 -3 -22
1 -26 35 -32 71 -13 113 -27 113 -37 0 -5 9 -20 20 -32 20 -21 21 -31 18 -425
-3 -377 -4 -404 -21 -417 -12 -9 -17 -23 -15 -42 3 -28 3 -28 83 -31 44 -2
110 2 148 8 60 11 67 14 67 35 0 12 -7 36 -15 51 -12 24 -15 91 -15 404 0 206
4 381 8 388 7 10 29 7 108 -11 l99 -24 3 -392 2 -391 30 0 30 0 0 443 0 444
188 6 c103 4 388 7 635 7 l447 0 0 -80 c0 -44 1 -83 3 -87 1 -5 -216 -10 -483
-13 l-485 -5 -1 -404 c0 -223 1 -415 4 -428 4 -23 7 -23 133 -23 l129 0 0
-115 c0 -63 2 -115 4 -115 3 0 17 5 31 10 l27 10 -3 503 -3 502 324 0 325 0 0
-267 c0 -200 -3 -270 -12 -280 -7 -6 -13 -31 -13 -55 l0 -43 125 0 c116 0 175
11 175 32 0 4 16 8 35 8 31 0 35 -3 36 -27 2 -43 -2 -67 -13 -80 -17 -21 0
-83 22 -83 10 0 21 3 23 7 2 5 0 53 -3 108 -4 67 -3 102 4 107 6 4 31 8 55 8
l44 0 -6 308 c-4 169 -7 379 -7 468 l0 161 -73 -5 c-57 -3 -75 -1 -85 11 -11
13 -1 18 78 36 156 36 314 52 520 52 229 0 437 -19 468 -44 9 -7 12 -123 12
-517 0 -562 -5 -520 66 -520 l34 0 0 511 c0 481 1 510 18 505 9 -3 36 -10 60
-16 35 -9 42 -15 42 -35 0 -13 6 -25 13 -28 16 -5 18 -837 1 -858 -6 -8 -14
-30 -17 -50 -5 -32 -2 -38 19 -48 15 -6 81 -11 159 -11 l135 0 0 44 c0 25 -4
48 -10 51 -5 3 -10 15 -10 26 0 10 -4 19 -10 19 -7 0 -10 145 -10 414 l0 415
27 20 c14 12 27 20 29 18 2 -2 4 -220 4 -485 l1 -482 105 0 c86 0 104 3 104
15 0 20 19 19 43 -2 19 -18 20 -17 15 14 -2 18 0 34 5 36 17 5 -4 57 -24 57
-17 0 -19 8 -19 85 0 83 0 85 24 85 14 0 28 5 31 10 4 6 -7 10 -24 10 l-31 0
0 85 0 85 60 0 60 0 0 -85 c0 -74 -2 -85 -17 -85 -17 -1 -17 -1 0 -11 10 -6
17 -22 17 -39 0 -16 4 -31 9 -34 9 -6 8 -25 -5 -78 -3 -15 -3 -40 1 -55 7 -28
7 -28 16 -5 4 12 6 28 3 36 -3 8 2 29 12 47 l17 34 10 -25 11 -25 3 30 c4 30
42 91 43 67 0 -7 5 -10 10 -7 6 3 10 15 10 26 0 16 7 19 54 19 l53 0 6 -77 c2
-43 3 -81 0 -85 -2 -5 -29 -8 -59 -8 -41 0 -54 4 -54 15 0 8 -4 15 -9 15 -12
0 -1 -83 12 -92 7 -4 6 -12 -2 -22 -7 -8 -10 -20 -6 -26 4 -7 131 -10 381 -10
l374 0 0 28 c0 15 0 240 0 500 l-1 472 226 0 225 0 0 -500 0 -500 40 0 40 0 0
405 c0 263 3 405 10 405 6 0 10 14 10 30 0 19 5 30 14 30 8 0 16 10 18 22 3
20 14 25 88 41 62 14 92 16 112 9 27 -10 27 -9 30 36 3 41 6 46 31 53 27 7 56
34 57 52 0 4 -22 7 -48 6 -52 -3 33 -45 -1758 872 -149 77 -277 139 -285 138
-8 0 -200 -93 -426 -207z m-166 -552 c244 -124 443 -228 443 -232 0 -19 -156
-6 -284 22 -204 46 -322 61 -531 67 -237 7 -398 -6 -630 -52 -131 -25 -207
-35 -279 -35 -55 0 -97 2 -94 5 13 13 914 454 923 452 6 -1 209 -103 452 -227z
m763 -515 l0 -95 -70 0 -70 0 0 95 0 95 70 0 70 0 0 -95z m130 0 l0 -95 -60 0
-60 0 0 95 0 95 60 0 60 0 0 -95z m260 0 l0 -95 -65 0 -65 0 0 95 0 95 65 0
65 0 0 -95z m128 -2 l3 -93 -56 0 -55 0 0 96 0 95 53 -3 52 -3 3 -92z m267 2
l0 -90 -67 -3 -68 -3 0 96 0 96 68 -3 67 -3 0 -90z m118 88 c2 -5 2 -48 -1
-96 l-5 -88 -46 3 -46 3 -3 79 c-2 44 -1 85 2 93 6 14 91 19 99 6z m-2665
-155 l3 -88 -86 0 -85 0 0 90 0 91 83 -3 82 -3 3 -87z m1760 -135 l3 -93 -71
0 -70 0 0 95 0 96 68 -3 67 -3 3 -92z m132 2 l0 -95 -60 0 -60 0 0 88 c0 49 3
92 7 95 3 4 30 7 60 7 l53 0 0 -95z m260 0 l0 -95 -65 0 -65 0 0 95 0 95 65 0
65 0 0 -95z m112 85 c17 0 19 -7 16 -87 l-3 -88 -52 -3 -53 -3 0 89 c0 49 3
92 7 96 5 4 21 5 37 2 16 -3 37 -6 48 -6z m281 2 c3 -4 3 -46 0 -95 l-6 -87
-63 0 -64 0 0 95 0 95 64 0 c36 0 67 -3 69 -8z m123 -3 c3 -6 3 -49 -1 -95
l-7 -84 -49 0 -49 0 0 88 c0 49 3 92 7 95 11 11 91 8 99 -4z m-2798 -157 c3
-47 1 -52 -17 -52 -19 0 -21 6 -21 56 0 47 3 55 18 52 13 -2 18 -15 20 -56z
m72 3 c0 -54 0 -55 -30 -55 -30 0 -30 1 -30 55 0 54 0 55 30 55 30 0 30 -1 30
-55z m-1173 -67 l-2 -113 -30 0 c-29 0 -30 2 -33 53 -3 51 -2 52 25 53 28 1
28 1 3 8 -22 6 -25 13 -28 59 l-3 52 35 0 35 0 -2 -112z m73 64 c0 -57 -2 -61
-35 -54 -23 4 -25 9 -25 53 0 48 1 49 30 49 29 0 30 -1 30 -48z m1030 -117 c0
-48 -2 -55 -20 -55 -18 0 -20 7 -20 55 0 48 2 55 20 55 18 0 20 -7 20 -55z
m70 0 c0 -54 0 -55 -30 -55 -30 0 -30 1 -30 55 0 54 0 55 30 55 30 0 30 -1 30
-55z m2193 48 c3 -5 8 -45 12 -90 l7 -83 -61 0 -61 0 0 83 c0 46 3 87 7 90 9
9 91 9 96 0z m405 -85 l3 -88 -61 0 -60 0 0 90 0 91 58 -3 57 -3 3 -87z m132
2 l0 -90 -60 0 -60 0 0 90 0 90 60 0 60 0 0 -90z m-3830 25 c0 -54 0 -55 -30
-55 -30 0 -30 1 -30 55 0 54 0 55 30 55 30 0 30 -1 30 -55z m2908 -32 l-3 -88
-34 -3 c-19 -2 -44 -1 -57 2 -23 6 -24 11 -24 85 0 43 3 81 7 84 3 4 31 7 60
7 l54 0 -3 -87z m522 2 l0 -85 -55 0 -55 0 0 85 0 85 55 0 55 0 0 -85z m-2400
-80 c0 -48 -2 -55 -20 -55 -18 0 -20 7 -20 55 0 48 2 55 20 55 18 0 20 -7 20
-55z m70 0 c0 -54 0 -55 -30 -55 -30 0 -30 1 -30 55 0 54 0 55 30 55 30 0 30
-1 30 -55z m-1172 -7 c-3 -51 -4 -53 -33 -53 -29 0 -30 2 -33 53 l-3 52 36 0
36 0 -3 -52z m72 -3 c0 -54 0 -55 -30 -55 -30 0 -30 1 -30 55 0 54 0 55 30 55
30 0 30 -1 30 -55z m3438 -97 l3 -88 -61 0 -60 0 0 84 c0 94 1 95 75 93 l40
-2 3 -87z m260 0 l3 -88 -61 0 -60 0 0 90 0 91 58 -3 57 -3 3 -87z m130 0 l3
-88 -61 0 -60 0 0 83 c0 46 3 87 7 91 4 4 30 6 58 4 l50 -3 3 -87z m-918 -3
l0 -85 -60 0 -60 0 0 85 0 85 60 0 60 0 0 -85z m-1882 -13 c3 -47 1 -52 -17
-52 -18 0 -21 6 -21 48 0 27 3 52 7 56 16 16 28 -4 31 -52z m72 3 c0 -54 0
-55 -30 -55 -29 0 -30 1 -30 48 0 55 4 62 37 62 21 0 23 -4 23 -55z m-1172 -7
c-3 -47 -6 -53 -27 -56 -30 -5 -41 12 -41 66 0 42 0 42 36 42 l35 0 -3 -52z
m72 -3 c0 -54 0 -55 -30 -55 -30 0 -30 1 -30 55 0 54 0 55 30 55 30 0 30 -1
30 -55z m1028 -94 c2 -23 0 -32 -9 -29 -14 5 -30 53 -21 63 13 13 27 -3 30
-34z m72 -18 c5 -50 5 -52 -22 -55 -36 -6 -38 -3 -38 52 0 54 2 57 32 55 20
-1 24 -9 28 -52z m-1170 -8 c0 -54 0 -55 -30 -55 -30 0 -30 1 -30 55 0 54 0
55 30 55 30 0 30 -1 30 -55z m70 0 c0 -54 0 -55 -30 -55 -30 0 -30 1 -30 55 0
54 0 55 30 55 30 0 30 -1 30 -55z m-70 -120 c0 -54 0 -55 -30 -55 -30 0 -30 1
-30 55 0 54 0 55 30 55 30 0 30 -1 30 -55z m70 0 c0 -54 0 -55 -30 -55 -30 0
-30 1 -30 55 0 54 0 55 30 55 30 0 30 -1 30 -55z"></path>
<path d="M3177 2203 c-9 -8 -9 -1061 0 -1182 6 -86 7 -92 27 -89 l21 3 3 608
2 607 220 0 220 0 0 -610 0 -610 25 0 25 0 0 640 0 640 -268 0 c-148 0 -272
-3 -275 -7z"></path>
<path d="M4937 1453 c-4 -3 -7 -11 -7 -17 0 -6 5 -5 12 2 6 6 9 14 7 17 -3 3
-9 2 -12 -2z"></path>
</g>
</svg>