 <svg version="1.0" xmlns="http://www.w3.org/2000/svg" viewBox="0 0 700.000000 467.000000" preserveAspectRatio="xMidYMid meet" id="mask">
<g transform="translate(0.000000,467.000000) scale(0.100000,-0.100000)">
<path d="M3772 2341 c-35 -9 -60 -27 -51 -36 8 -7 62 -7 209 0 100 5 165 3
252 -9 124 -16 285 -52 304 -68 15 -11 7 -42 -14 -61 -13 -12 -450 -106 -511
-111 -8 -1 -16 11 -18 28 -8 54 -15 59 -91 60 -56 1 -76 6 -101 23 -33 25 -36
24 -47 -27 -5 -24 -24 -50 -61 -85 -48 -43 -56 -47 -64 -33 -9 17 -37 14 -50
-4 -3 -5 -143 -12 -310 -15 l-305 -6 -26 31 c-23 28 -30 30 -82 29 -31 -1 -56
-4 -56 -7 0 -3 -26 -5 -57 -4 -94 3 -390 -25 -496 -47 -54 -11 -141 -36 -195
-56 -94 -35 -212 -55 -212 -35 0 14 106 57 193 77 42 10 77 23 77 28 0 5 -10
7 -22 4 -13 -3 -61 -13 -108 -22 -231 -43 -257 -50 -343 -92 -149 -75 -265
-180 -335 -304 -38 -67 -39 -80 -10 -148 20 -50 21 -53 4 -88 -21 -43 -9 -63
26 -46 33 16 225 24 276 11 26 -6 53 -22 70 -42 45 -52 89 -60 274 -52 190 8
247 17 265 42 31 43 24 45 -184 42 -195 -3 -199 -3 -243 22 -39 22 -45 30 -46
60 -1 46 20 97 43 103 10 3 52 16 93 28 41 12 107 25 145 29 64 7 73 5 106
-16 25 -17 47 -48 73 -99 21 -41 42 -73 47 -69 5 3 23 31 39 62 17 31 35 64
40 72 5 8 19 41 31 73 11 31 26 57 34 57 10 0 9 -8 -5 -37 -27 -58 -34 -86
-20 -81 6 2 20 28 30 57 27 76 107 161 196 208 88 46 150 50 250 15 130 -46
165 -82 209 -217 7 -22 16 -54 20 -72 7 -34 -12 -187 -26 -215 -5 -9 -5 -19 0
-22 16 -11 585 42 901 84 80 10 231 26 335 36 231 20 311 34 307 53 -10 44 -1
156 17 225 25 95 78 177 146 226 42 29 58 35 115 38 105 6 171 -37 221 -146
18 -39 23 -68 25 -165 1 -65 4 -120 7 -123 11 -12 66 57 77 97 31 114 43 192
44 289 1 95 -2 110 -26 160 -15 31 -41 69 -58 85 -31 30 -32 30 -138 28 -104
-3 -111 -2 -274 50 -92 28 -168 55 -168 59 0 4 18 13 40 19 33 10 43 9 65 -5
23 -15 26 -15 32 -1 5 14 23 16 122 14 68 -2 115 1 114 7 -6 20 -213 14 -408
-12 -25 -3 -88 5 -165 21 -106 23 -155 28 -320 31 -107 2 -210 -1 -228 -5z
m858 -201 c11 -7 8 -10 -16 -10 -17 0 -72 -7 -122 -16 -120 -20 -147 -14 -52
13 80 23 166 29 190 13z m-2196 -226 c24 -9 19 -21 -11 -28 -16 -4 -80 -38
-143 -75 -119 -71 -147 -83 -240 -102 -182 -37 -243 -40 -208 -12 7 6 60 36
118 67 203 107 421 174 484 150z m639 -46 c69 -47 261 -234 274 -267 13 -31
13 -36 -5 -54 -15 -14 -27 -18 -47 -13 -14 4 -90 66 -168 139 -78 73 -161 147
-184 166 -23 19 -40 38 -37 42 3 5 35 9 71 9 50 0 72 -5 96 -22z m-1597 -173
c17 6 18 6 1 -5 -9 -6 -22 -8 -27 -5 -6 3 -10 1 -10 -6 0 -7 -3 -10 -6 -6 -4
3 -3 14 0 24 5 13 9 14 15 5 4 -7 16 -10 27 -7z m2957 -48 c-51 -87 -105 -155
-128 -159 -32 -7 -42 7 -15 22 11 6 45 44 76 85 31 41 60 72 65 69 5 -3 6 -11
2 -17z m-2971 -102 c111 0 150 -3 160 -14 10 -11 10 -14 0 -18 -27 -10 -42
-36 -42 -73 0 -21 -5 -42 -11 -46 -15 -9 -167 -5 -204 4 -30 8 -35 15 -58 72
-8 19 -19 48 -26 64 -11 27 -11 28 11 20 13 -4 89 -8 170 -9z"></path>
<path d="M5010 2315 c0 -11 -12 -15 -47 -15 -35 0 -44 -3 -33 -10 8 -5 29 -10
46 -10 18 0 38 -8 49 -20 25 -27 29 -19 14 29 -12 40 -29 55 -29 26z"></path>
<path d="M2340 1261 c-8 -5 -37 -12 -65 -15 -78 -11 -135 -27 -135 -39 0 -13
226 8 235 23 9 14 -20 39 -35 31z"></path>
</g>
</svg>