 <svg version="1.0" xmlns="http://www.w3.org/2000/svg" id="mask" viewBox="0 0 700.000000 423.000000" preserveAspectRatio="xMidYMid meet">

<g transform="translate(0.000000,423.000000) scale(0.100000,-0.100000)">
<path d="M1876 4048 c-3 -13 -6 -71 -6 -130 0 -80 3 -108 13 -108 6 0 232 -16
500 -35 268 -19 497 -35 507 -35 19 0 20 7 20 119 l0 119 -57 6 c-32 4 -242
22 -468 41 -225 19 -431 37 -456 40 -42 5 -47 3 -53 -17z"></path>
<path d="M1800 3075 l0 -525 50 0 50 0 0 75 0 75 245 0 c213 0 246 -2 252 -16
3 -8 2 -124 -3 -257 l-9 -242 -222 -3 c-194 -2 -221 -4 -216 -18 3 -8 -2 -23
-12 -34 -16 -18 -16 -20 -1 -35 12 -13 14 -21 5 -36 -7 -14 -7 -30 -1 -48 6
-16 6 -34 1 -44 -6 -10 -5 -25 3 -42 9 -19 9 -28 0 -37 -18 -18 15 -48 51 -48
22 0 28 4 23 15 -5 13 5 14 63 9 66 -6 68 -6 74 17 5 16 1 28 -9 35 -8 7 -17
28 -21 47 l-5 34 47 7 47 8 -5 44 c-4 43 -4 44 23 44 23 0 27 -4 23 -20 -7
-27 4 -82 21 -106 13 -18 14 -16 13 16 -2 30 1 35 21 34 17 0 24 7 30 30 7 23
14 30 28 28 27 -5 43 -22 20 -22 -12 0 -16 -5 -12 -16 3 -9 6 -18 6 -20 0 -2
7 -4 15 -4 9 0 15 -9 15 -25 0 -15 9 -31 24 -40 21 -14 24 -22 19 -51 -5 -30
-3 -34 15 -34 26 0 37 16 16 24 -13 5 -15 18 -8 84 4 42 7 149 7 237 0 88 4
162 8 165 16 11 290 3 301 -8 7 -7 11 -32 9 -57 -1 -28 4 -54 15 -69 12 -20
15 -44 12 -114 l-3 -88 60 14 c33 7 62 16 65 18 2 3 6 331 8 730 4 608 2 724
-9 724 -8 0 -255 16 -549 35 -294 19 -550 35 -567 35 l-33 0 0 -525z m503 159
l47 -6 -2 -236 -3 -237 -200 3 c-110 2 -204 7 -209 12 -4 4 -5 115 -1 245 l8
237 156 -6 c86 -4 177 -9 204 -12z"></path>
<path d="M1797 2128 c-4 -79 -7 -174 -7 -211 0 -76 9 -86 63 -70 29 8 32 13
29 42 -2 18 2 39 9 47 9 11 9 18 1 26 -15 15 -15 55 0 60 7 3 6 12 -6 30 -16
24 -16 27 0 42 15 16 15 18 -1 36 -14 15 -14 22 -5 40 9 18 9 28 0 46 -11 19
-11 26 0 39 11 13 7 15 -32 15 l-45 0 -6 -142z"></path>
<path d="M2850 1979 c-25 -11 -40 -23 -34 -27 7 -4 15 -21 18 -39 8 -34 28
-47 57 -38 18 6 18 8 2 31 -13 20 -14 32 -5 60 5 18 9 34 9 34 -1 0 -22 -10
-47 -21z"></path>
<path d="M2937 1963 c-11 -10 -8 -43 3 -43 6 0 10 11 10 25 0 26 -2 29 -13 18z"></path>
<path d="M1795 1505 c-4 -69 -5 -128 -3 -131 5 -5 28 177 28 221 0 13 -4 26
-9 29 -5 3 -12 -50 -16 -119z"></path>
<path d="M1904 1564 c4 -10 17 -54 28 -96 l21 -78 91 1 c50 1 101 4 114 7 21
7 21 8 -10 21 -18 8 -37 19 -43 23 -5 5 -23 19 -39 33 -16 13 -41 27 -55 30
-14 4 -28 10 -31 13 -3 4 -23 20 -44 36 -32 24 -38 26 -32 10z"></path>
</g>
</svg>