 <svg version="1.0" xmlns="http://www.w3.org/2000/svg" id="mask" viewBox="0 0 700.000000 423.000000" preserveAspectRatio="xMidYMid meet">

<g transform="translate(0.000000,423.000000) scale(0.100000,-0.100000)">
<path d="M0 4185 c0 -39 3 -45 20 -45 12 0 34 -10 50 -21 24 -19 51 -23 194
-32 151 -10 167 -9 184 6 17 16 31 16 143 7 68 -6 124 -12 125 -13 1 -1 11
-21 23 -44 32 -65 78 -111 122 -124 l39 -12 0 -104 c0 -71 -4 -111 -14 -126
-22 -34 -31 -889 -11 -921 11 -16 16 -56 18 -130 l2 -108 -50 -20 c-61 -24
-78 -39 -108 -103 l-24 -49 -128 3 c-71 1 -140 8 -154 13 -15 6 -97 11 -188
11 -134 0 -166 -3 -187 -17 -14 -9 -32 -16 -41 -16 -13 0 -15 -20 -15 -135 l0
-135 503 5 c276 3 646 8 823 11 l321 6 6 586 c4 322 7 803 7 1069 l0 483 -830
0 -830 0 0 -45z"></path>
<path d="M3230 3728 c0 -277 -3 -756 -7 -1065 l-6 -563 182 0 181 0 -6 25 c-5
19 -2 25 10 25 24 0 19 25 -7 43 -16 10 -63 18 -143 22 -65 4 -121 9 -124 11
-5 2 31 312 42 373 2 11 26 13 109 12 88 -2 107 1 112 13 8 21 57 21 57 1 0
-12 19 -15 113 -15 l113 0 17 -167 c25 -245 35 -219 -80 -227 -91 -7 -153 -25
-153 -45 0 -5 9 -11 20 -14 13 -3 20 -14 20 -29 0 -19 5 -24 23 -24 20 1 22
-4 25 -60 3 -54 6 -63 25 -68 39 -10 102 -6 121 9 11 8 35 15 53 15 26 0 36 6
47 29 8 15 26 35 40 44 22 15 28 15 53 2 15 -8 38 -15 50 -15 12 0 24 -4 27
-9 3 -5 22 -12 42 -15 19 -4 42 -10 50 -13 8 -3 14 1 14 11 0 40 53 143 90
177 l40 37 1 168 c1 93 4 183 8 199 6 29 8 30 81 36 117 9 172 35 318 151 40
32 115 78 166 104 82 41 104 47 182 53 97 8 190 -1 268 -24 48 -13 121 -53
259 -137 53 -33 163 -69 249 -81 l36 -5 35 72 c19 40 40 90 47 112 7 21 17 45
22 51 14 17 16 82 24 726 l7 557 -1426 0 -1427 0 0 -502z m1081 -588 c3 -129
2 -239 -1 -243 -7 -8 -330 -41 -336 -34 -8 7 -23 462 -16 469 9 8 288 47 322
45 l25 -2 6 -235z m-17 -332 c3 -13 7 -123 11 -246 4 -175 3 -223 -7 -227 -7
-3 -87 -2 -178 2 l-165 8 -6 230 c-4 127 -5 232 -2 235 5 5 158 15 280 18 58
2 63 0 67 -20z"></path>
<path d="M6097 3673 c-3 -307 -2 -562 2 -568 4 -5 8 -30 9 -55 2 -52 27 -175
71 -345 17 -66 31 -121 31 -122 0 -2 9 -3 19 -3 24 0 33 -32 36 -130 2 -41 4
-79 5 -85 5 -23 -2 -36 -26 -47 -23 -11 -25 -16 -19 -54 4 -30 2 -45 -7 -51
-9 -5 -2 -10 22 -14 l35 -6 -42 -2 -43 -1 0 -193 0 -193 313 -23 c171 -12 354
-25 405 -28 l92 -6 0 121 c0 80 -4 123 -12 128 -6 4 -86 11 -177 15 -91 4
-192 11 -224 15 l-59 7 4 321 c3 281 1 321 -12 317 -33 -8 -128 -3 -149 9 -20
10 -22 18 -19 68 l3 57 -33 -1 -33 -1 7 66 c5 36 7 81 6 100 -2 23 28 111 90
270 l92 236 4 378 4 377 -194 0 -195 0 -6 -557z"></path>
<path d="M6511 3869 c1 -349 9 -483 29 -503 7 -7 10 54 10 171 0 137 3 182 13
186 7 2 102 19 212 37 110 18 203 36 206 39 4 3 10 102 14 219 l7 212 -246 0
-247 0 2 -361z"></path>
<path d="M0 3496 l0 -86 110 0 110 0 0 80 0 80 -49 0 c-26 0 -76 3 -110 6
l-61 7 0 -87z"></path>
<path d="M260 3481 l0 -80 220 -1 220 -1 0 74 0 74 -97 6 c-54 4 -153 7 -220
7 l-123 0 0 -79z"></path>
<path d="M6418 3247 c-37 -94 -70 -180 -74 -189 -5 -16 1 -18 54 -18 33 0 72
3 88 6 l29 6 -8 106 c-4 59 -11 142 -15 184 l-7 78 -67 -173z"></path>
<path d="M6530 3180 c3 -66 10 -123 14 -127 4 -4 6 45 4 109 -1 64 -7 122 -13
127 -7 7 -8 -30 -5 -109z"></path>
<path d="M0 2906 l0 -365 258 -3 c225 -3 260 -5 282 -20 43 -31 75 -23 108 25
17 23 42 53 56 66 29 28 33 53 11 71 -13 11 -15 56 -15 295 l0 282 -217 6
c-120 4 -278 7 -350 7 l-133 0 0 -364z"></path>
<path d="M6080 3079 c0 -5 5 -7 10 -4 6 3 10 8 10 11 0 2 -4 4 -10 4 -5 0 -10
-5 -10 -11z"></path>
<path d="M6070 3040 c0 -5 7 -10 16 -10 8 0 12 5 9 10 -3 6 -10 10 -16 10 -5
0 -9 -4 -9 -10z"></path>
<path d="M6362 2984 c4 -21 22 -23 26 -1 2 10 -3 17 -13 17 -10 0 -15 -6 -13
-16z"></path>
<path d="M6430 2984 c0 -8 5 -12 10 -9 6 4 8 11 5 16 -9 14 -15 11 -15 -7z"></path>
<path d="M6480 2985 c0 -8 7 -15 15 -15 8 0 15 7 15 15 0 8 -7 15 -15 15 -8 0
-15 -7 -15 -15z"></path>
<path d="M6090 2949 c1 -46 37 -231 47 -238 5 -3 14 -22 20 -41 8 -25 11 -29
12 -13 1 12 -3 33 -9 48 -5 14 -12 36 -14 48 -3 12 -14 64 -25 116 -20 95 -31
124 -31 80z"></path>
<path d="M6022 2830 c-23 -54 -42 -103 -42 -109 0 -12 50 -14 100 -5 30 6 31
9 25 38 -4 17 -8 40 -10 51 -9 54 -23 116 -26 120 -2 2 -23 -41 -47 -95z"></path>
<path d="M3611 2124 c0 -11 3 -14 6 -6 3 7 2 16 -1 19 -3 4 -6 -2 -5 -13z"></path>
<path d="M3630 2125 c0 -8 5 -15 10 -15 6 0 10 7 10 15 0 8 -4 15 -10 15 -5 0
-10 -7 -10 -15z"></path>
<path d="M3612 2050 c0 -14 2 -19 5 -12 2 6 2 18 0 25 -3 6 -5 1 -5 -13z"></path>
<path d="M3631 2044 c0 -11 3 -14 6 -6 3 7 2 16 -1 19 -3 4 -6 -2 -5 -13z"></path>
<path d="M3630 1981 c0 -12 5 -21 10 -21 6 0 10 6 10 14 0 8 -4 18 -10 21 -5
3 -10 -3 -10 -14z"></path>
<path d="M3611 1974 c0 -11 3 -14 6 -6 3 7 2 16 -1 19 -3 4 -6 -2 -5 -13z"></path>
<path d="M3343 1923 l-123 -4 0 -180 0 -181 38 7 c20 3 64 7 97 9 34 1 75 10
94 20 18 10 44 16 58 13 19 -4 31 4 59 41 33 43 34 48 34 133 0 72 -3 89 -15
89 -22 0 -19 47 3 53 18 5 -42 5 -245 0z"></path>
<path d="M3611 1894 c0 -11 3 -14 6 -6 3 7 2 16 -1 19 -3 4 -6 -2 -5 -13z"></path>
<path d="M3630 1895 c0 -8 5 -15 10 -15 6 0 10 7 10 15 0 8 -4 15 -10 15 -5 0
-10 -7 -10 -15z"></path>
<path d="M775 1890 c-189 -3 -280 -8 -260 -14 60 -17 113 -56 148 -108 l35
-53 118 1 c66 1 139 7 164 14 94 26 201 -12 282 -97 70 -75 80 -101 76 -194
-3 -76 -2 -80 17 -74 45 13 95 16 186 8 l96 -8 7 74 c3 41 6 161 6 268 l0 193
-292 -2 c-161 -2 -423 -5 -583 -8z"></path>
<path d="M0 1775 c0 -58 4 -105 9 -105 5 0 23 -12 40 -26 17 -14 31 -21 31
-15 0 6 10 36 21 67 24 64 85 136 138 164 l36 19 -137 1 -138 0 0 -105z"></path>
<path d="M3640 1831 c0 -21 -3 -54 -7 -72 -6 -31 -5 -33 11 -20 9 8 26 27 37
42 17 24 18 32 7 51 -7 13 -11 26 -10 31 1 4 -7 7 -18 7 -17 0 -20 -7 -20 -39z"></path>
<path d="M6238 1528 c-17 -17 -21 -30 -15 -44 1 -3 30 -7 64 -8 33 -1 67 -7
75 -13 7 -6 24 -10 38 -8 21 1 25 7 28 37 l3 35 -88 9 c-78 9 -89 8 -105 -8z"></path>
<path d="M6622 1464 c4 -35 1 -42 -31 -71 l-36 -31 23 -24 c29 -32 28 -62 -4
-87 -17 -13 -28 -33 -31 -58 -5 -37 -4 -38 36 -50 56 -18 88 -16 96 5 5 14 10
11 25 -18 17 -32 17 -36 3 -47 -9 -7 -13 -16 -9 -20 3 -4 21 11 39 33 66 81
113 109 255 150 9 2 12 34 12 112 l0 108 -137 12 c-76 7 -162 15 -192 19 l-53
6 4 -39z"></path>
<path d="M6201 1195 l-2 -65 34 0 c45 0 50 8 27 41 -11 15 -23 41 -26 58 -12
56 -31 36 -33 -34z"></path>
<path d="M6457 478 c-14 -45 -25 -84 -23 -86 2 -2 16 33 31 78 15 45 25 83 23
85 -2 3 -16 -32 -31 -77z"></path>
<path d="M6391 274 c0 -11 3 -14 6 -6 3 7 2 16 -1 19 -3 4 -6 -2 -5 -13z"></path>
<path d="M6367 228 c-13 -14 -21 -45 -27 -106 -5 -47 -8 -88 -6 -89 2 -2 15
44 30 103 15 59 25 107 24 109 -2 1 -11 -7 -21 -17z"></path>
<path d="M6256 118 c-3 -13 -6 -40 -6 -60 0 -31 4 -38 20 -38 17 0 20 7 20 44
0 70 -21 103 -34 54z"></path>
</g>
</svg>