 <svg version="1.0" xmlns="http://www.w3.org/2000/svg" id="mask" viewBox="0 0 700.000000 423.000000" preserveAspectRatio="xMidYMid meet">

<g transform="translate(0.000000,423.000000) scale(0.100000,-0.100000)">
<path d="M1667 3968 c-4 -145 -8 -558 -8 -918 -1 -360 -4 -725 -8 -810 l-6
-155 -220 -2 c-121 -1 -491 -5 -823 -9 l-603 -6 2 -90 2 -90 491 6 c270 3 641
9 824 12 l332 6 0 -274 0 -273 65 3 c64 4 64 4 69 35 3 18 8 520 11 1117 4
597 8 1086 9 1088 3 2 223 -11 861 -53 132 -9 252 -19 268 -23 l28 -7 -1 -993
0 -993 117 6 c65 4 121 10 125 14 4 4 9 90 10 191 l3 185 40 -4 c77 -6 312 10
312 23 -1 33 5 46 21 47 13 0 12 2 -5 9 -27 11 -26 47 2 63 16 10 -20 13 -175
17 l-195 5 4 1068 4 1067 -775 0 -775 0 -6 -262z m169 70 c0 -84 1 -189 3
-233 4 -73 3 -80 -15 -80 -16 0 -19 7 -19 43 5 419 5 422 19 422 11 0 13 -30
12 -152z m549 -8 c270 -23 500 -43 513 -46 20 -4 22 -10 22 -68 0 -35 -3 -90
-6 -123 l-7 -60 -46 4 c-25 2 -259 19 -520 38 -260 19 -474 35 -475 37 -1 2 0
60 2 131 3 86 8 127 16 127 6 0 232 -18 501 -40z"></path>
<path d="M0 3763 c0 -95 1 -174 3 -174 1 -1 51 -4 112 -8 l110 -6 0 -85 0 -85
-112 3 -113 3 0 -55 0 -54 63 -6 c146 -13 427 -21 590 -17 l47 1 0 39 c0 74 7
71 -179 71 -91 0 -190 3 -218 6 l-53 7 0 85 0 85 219 -6 c249 -7 237 -11 227
75 -4 33 0 55 19 93 l24 50 -22 17 c-12 10 -28 18 -34 18 -7 0 -13 4 -13 9 0
6 -14 30 -31 55 -33 50 -54 56 -105 32 -25 -11 -59 -12 -224 0 -107 7 -221 15
-252 17 l-58 3 0 -173z m557 71 c-3 -3 -12 -4 -19 -1 -8 3 -5 6 6 6 11 1 17
-2 13 -5z"></path>
<path d="M3658 2080 c28 -12 30 -50 2 -57 -11 -3 -20 -9 -20 -13 0 -4 9 -10
20 -13 25 -7 26 -31 1 -56 -19 -19 -19 -19 0 -24 10 -3 20 -15 20 -26 2 -30 3
-34 16 -56 6 -11 13 -18 15 -15 2 3 30 35 62 73 l58 67 -38 0 c-59 0 -79 9
-98 41 -17 28 -17 29 5 29 16 0 19 4 14 18 -4 9 -8 23 -8 30 0 7 -14 12 -36
11 -32 0 -33 -1 -13 -9z"></path>
<path d="M6172 1766 c-10 -23 -9 -26 8 -26 11 0 35 -8 55 -17 34 -16 35 -18
35 -73 0 -53 2 -57 23 -56 12 1 27 -1 32 -5 6 -3 31 -9 58 -11 43 -5 48 -4 53
18 6 22 11 24 69 24 83 0 115 -12 115 -44 0 -22 5 -24 78 -34 l77 -11 -77 4
c-43 3 -78 1 -78 -3 0 -10 136 -29 273 -38 67 -5 97 -4 97 4 0 6 -17 13 -37
15 l-38 4 36 1 c41 2 48 13 42 60 -4 26 -10 32 -32 33 -25 1 -25 2 4 8 29 6
30 8 30 61 l0 55 -280 22 c-154 11 -336 24 -405 28 l-126 8 -12 -27z m696
-243 c-10 -2 -28 -2 -40 0 -13 2 -5 4 17 4 22 1 32 -1 23 -4z"></path>
<path d="M6315 1563 c14 -14 115 -25 115 -13 0 6 -13 10 -29 10 -16 0 -44 3
-62 6 -23 5 -31 3 -24 -3z"></path>
</g>
</svg>