 <svg version="1.0" xmlns="http://www.w3.org/2000/svg" viewBox="0 0 700.000000 423.000000" preserveAspectRatio="xMidYMid meet" id="mask">

<g transform="translate(0.000000,423.000000) scale(0.100000,-0.100000)">
<path d="M2997 4013 c91 -848 134 -1244 139 -1280 l6 -43 45 0 c30 0 51 6 65
20 19 18 36 20 140 20 112 0 118 -1 118 -21 l0 -20 1503 6 c826 3 1611 8 1745
11 l242 6 0 759 0 759 -953 0 -954 0 -21 -102 c-12 -57 -65 -306 -119 -554
l-96 -451 -321 -6 c-177 -4 -411 -7 -520 -7 l-199 0 6 393 c4 215 10 467 14
560 l6 167 -434 0 -435 0 23 -217z"></path>
</g>
</svg>