 <svg version="1.0" xmlns="http://www.w3.org/2000/svg" viewBox="0 0 700.000000 423.000000" preserveAspectRatio="xMidYMid meet" id="mask">

<g transform="translate(0.000000,423.000000) scale(0.100000,-0.100000)">
<path d="M3840 4183 c0 -27 -5 -274 -11 -551 -7 -302 -9 -506 -3 -510 5 -4
238 -5 519 -2 l509 5 59 270 c118 548 177 829 172 833 -2 3 -105 0 -227 -7
-123 -6 -379 -11 -569 -11 l-346 0 -11 -62 -10 -63 1 73 2 72 -42 0 -43 0 0
-47z m1050 -80 c0 -5 -45 -102 -100 -218 l-99 -210 -183 -6 c-101 -4 -270 -7
-375 -8 -163 -1 -193 1 -193 14 0 8 14 105 30 217 17 111 30 203 30 205 0 3
227 6 663 11 125 1 227 -1 227 -5z m-83 -523 l-42 -215 -433 -3 -432 -2 0 104
0 103 46 7 c26 3 142 6 258 6 116 0 282 3 369 7 l159 6 56 114 c32 63 58 108
59 101 2 -7 -17 -110 -40 -228z"></path>
<path d="M2620 615 c-13 -16 -7 -45 10 -45 5 0 10 14 10 30 0 34 -3 36 -20 15z"></path>
<path d="M2575 500 c3 -5 8 -10 11 -10 2 0 4 5 4 10 0 6 -5 10 -11 10 -5 0 -7
-4 -4 -10z"></path>
<path d="M920 239 c-129 -105 -246 -201 -260 -215 l-25 -24 206 0 206 0 64 60
64 60 98 0 c74 0 98 3 95 13 -3 6 -15 14 -29 15 -56 8 -86 79 -54 128 13 20
22 24 41 20 33 -9 49 27 40 88 l-7 46 -102 0 -102 -1 -235 -190z"></path>
<path d="M1842 356 c2 -52 8 -80 21 -93 21 -24 22 -55 1 -94 -28 -56 -21 -59
147 -59 l151 0 -6 23 c-4 12 -9 59 -13 105 -6 78 -7 82 -27 76 -20 -6 -20 -6
-5 12 9 11 19 31 23 47 5 23 3 27 -15 27 -18 0 -19 2 -9 15 11 13 -4 15 -130
15 l-142 0 4 -74z"></path>
<path d="M1635 130 c-3 -5 1 -10 9 -10 9 0 16 5 16 10 0 6 -4 10 -9 10 -6 0
-13 -4 -16 -10z"></path>
</g>
</svg>