 <svg version="1.0" xmlns="http://www.w3.org/2000/svg" viewBox="0 0 700.000000 423.000000" preserveAspectRatio="xMidYMid meet" id="mask">

<g transform="translate(0.000000,423.000000) scale(0.100000,-0.100000)">
<path d="M5595 3996 c-221 -132 -390 -239 -390 -247 0 -8 4 -322 9 -699 5
-376 11 -716 15 -754 l6 -70 148 211 c82 117 155 217 162 223 10 8 81 8 265
-1 l251 -13 394 -390 393 -391 -8 -355 c-5 -195 -11 -446 -15 -557 l-6 -201
40 -23 40 -22 -5 -96 c-3 -53 -9 -140 -15 -194 -13 -142 -13 -144 19 -155 15
-6 44 -17 65 -26 l37 -16 0 2005 0 2005 -507 -1 -508 -1 -390 -232z"></path>
<path d="M6857 627 c-4 -10 -6 -51 -6 -90 l2 -72 8 75 c10 82 8 118 -4 87z"></path>
<path d="M6817 563 c-2 -32 -1 -62 4 -67 5 -6 9 18 9 57 0 37 -2 67 -4 67 -2
0 -6 -26 -9 -57z"></path>
<path d="M6811 445 c1 -40 1 -40 11 -12 7 21 7 32 -1 40 -8 8 -11 0 -10 -28z"></path>
<path d="M6843 345 c0 -33 2 -45 4 -27 2 18 2 45 0 60 -2 15 -4 0 -4 -33z"></path>
<path d="M6813 345 c0 -27 2 -38 4 -22 2 15 2 37 0 50 -2 12 -4 0 -4 -28z"></path>
</g>
</svg>