 <svg version="1.0" xmlns="http://www.w3.org/2000/svg" viewBox="0 0 700.000000 423.000000" preserveAspectRatio="xMidYMid meet" id="mask">

<g transform="translate(0.000000,423.000000) scale(0.100000,-0.100000)">
<path d="M2820 3365 l0 -866 758 3 c1138 4 1231 6 1208 23 -11 8 -16 21 -13
30 4 9 1 15 -7 15 -8 0 -17 7 -20 16 -5 13 -1 15 18 10 16 -4 32 1 50 15 20
16 30 18 40 10 22 -19 26 0 6 29 -12 17 -17 35 -13 50 6 21 7 20 18 -11 6 -19
16 -33 23 -31 7 1 15 -12 19 -29 4 -20 8 -26 14 -18 4 7 5 17 2 22 -3 4 3 15
13 22 18 13 18 15 -4 30 -17 13 -20 20 -12 30 6 7 10 17 9 21 -8 47 14 53 26
7 3 -16 20 -41 37 -56 25 -23 28 -31 17 -38 -8 -5 -20 -9 -26 -9 -7 0 -13 -12
-13 -26 0 -14 4 -23 10 -19 6 4 8 10 5 15 -3 5 8 5 25 0 29 -8 43 3 18 13 -19
8 12 28 34 23 12 -3 18 6 23 40 7 52 16 55 34 12 12 -32 13 -33 22 -10 5 13
14 20 19 17 8 -5 8 -11 0 -20 -8 -10 -7 -14 2 -18 8 -3 4 -9 -12 -15 -14 -6
-18 -11 -10 -12 10 0 7 -7 -10 -20 -20 -16 -22 -20 -7 -20 10 0 17 -8 17 -21
0 -15 -5 -19 -19 -14 -20 6 -30 -15 -23 -48 3 -17 33 -17 535 -15 l532 3 418
40 417 40 0 822 0 823 -715 0 -715 0 0 -31 c0 -59 13 -69 89 -69 37 0 82 -5
100 -11 l31 -11 -2 -212 -3 -211 -88 -5 c-98 -6 -108 -12 -127 -80 -6 -20 -10
-197 -10 -418 0 -336 -2 -383 -15 -389 -9 -3 -19 -2 -23 2 -4 3 -9 192 -12
419 -4 342 -8 416 -20 432 -8 10 -16 21 -18 24 -2 3 -40 7 -85 10 l-82 5 -3
206 -2 207 32 11 c17 6 62 14 99 17 73 7 79 13 79 77 l0 27 -244 0 -243 0 33
-97 c56 -165 69 -239 69 -423 0 -185 -14 -293 -56 -421 -114 -355 -366 -577
-629 -556 -264 20 -503 309 -576 694 -38 203 -11 525 60 716 l33 87 -259 0
-259 0 7 -37 c3 -21 9 -41 13 -44 3 -4 44 -12 91 -18 57 -8 90 -17 100 -29 13
-14 15 -50 12 -219 l-3 -203 -78 0 c-68 0 -80 -3 -99 -23 -13 -13 -27 -39 -32
-58 -6 -19 -10 -194 -10 -406 0 -204 -3 -378 -6 -387 -3 -9 -12 -16 -19 -16
-7 0 -16 7 -19 16 -3 9 -6 190 -6 402 0 486 7 463 -152 478 l-68 6 0 204 0
204 26 11 c15 5 61 14 103 20 42 6 77 12 78 13 1 1 5 21 9 44 l7 42 -287 0
-286 0 0 -865z"></path>
<path d="M5101 2644 c0 -11 3 -14 6 -6 3 7 2 16 -1 19 -3 4 -6 -2 -5 -13z"></path>
<path d="M4810 2591 c0 -6 5 -13 10 -16 6 -3 10 1 10 9 0 9 -4 16 -10 16 -5 0
-10 -4 -10 -9z"></path>
<path d="M4810 2550 c0 -5 5 -10 10 -10 6 0 10 5 10 10 0 6 -4 10 -10 10 -5 0
-10 -4 -10 -10z"></path>
<path d="M4950 2520 c0 -5 5 -10 10 -10 6 0 10 5 10 10 0 6 -4 10 -10 10 -5 0
-10 -4 -10 -10z"></path>
</g>
</svg>