 <svg version="1.0" xmlns="http://www.w3.org/2000/svg" id="mask" viewBox="0 0 700.000000 423.000000" preserveAspectRatio="xMidYMid meet">

<g transform="translate(0.000000,423.000000) scale(0.100000,-0.100000)">
<path d="M3190 4159 c-52 -38 -187 -136 -300 -218 l-205 -148 -3 -132 c-2
-119 -1 -132 15 -137 10 -3 41 -16 69 -30 28 -13 67 -24 87 -24 21 0 37 -4 37
-9 0 -5 6 -9 13 -8 37 1 58 -4 52 -13 -17 -27 81 4 210 65 77 37 168 77 203
90 59 23 64 23 105 9 23 -8 101 -24 172 -36 196 -30 227 -36 264 -47 19 -6 37
-9 39 -6 3 2 18 -3 35 -12 22 -11 45 -14 86 -9 l56 6 -32 -21 c-18 -11 -33
-24 -33 -29 0 -4 -11 -18 -24 -31 -31 -31 -123 -193 -138 -242 -6 -20 -17 -42
-25 -48 -10 -9 -13 -107 -13 -519 l0 -508 93 -6 c93 -6 519 -15 792 -17 l150
-1 -3 68 c-3 46 -9 72 -18 77 -17 10 -19 53 -3 63 8 4 6 10 -7 17 -13 7 -19 7
-22 -1 -5 -15 -52 -16 -52 -1 0 8 -5 8 -15 -1 -13 -11 -15 -8 -15 13 0 17 8
30 23 38 12 6 30 21 40 33 13 15 20 17 24 8 2 -6 9 -10 14 -6 5 3 9 1 9 -5 0
-6 6 -8 14 -5 7 3 21 -2 30 -11 18 -18 21 -35 6 -35 -6 0 -10 -50 -10 -130 l0
-130 25 0 c23 0 25 3 25 49 0 27 -7 67 -15 90 -8 22 -10 41 -5 41 15 0 12 38
-2 43 -10 3 -10 8 1 21 8 10 14 33 13 51 -3 40 10 51 30 27 25 -29 27 -58 5
-77 -18 -16 -19 -25 -13 -123 3 -58 8 -108 11 -111 3 -3 261 -8 573 -12 312
-4 764 -10 1005 -14 l437 -7 0 1091 0 1091 -352 0 -353 0 -55 -30 c-158 -86
-299 -141 -480 -189 -160 -43 -397 -114 -435 -132 -22 -10 -223 -59 -242 -59
-6 0 -24 -5 -40 -11 -15 -7 -35 -13 -43 -14 -8 -1 -26 -5 -40 -10 -14 -4 -23
-5 -20 -2 8 9 304 118 470 174 58 19 112 41 120 48 8 7 21 10 28 8 6 -3 12 0
12 5 0 5 21 17 48 27 26 10 67 30 92 44 25 15 62 36 82 46 21 11 37 24 35 30
-1 5 9 21 23 35 l25 25 -220 3 c-209 2 -222 2 -259 -19 -71 -40 -206 -36 -206
6 0 13 -122 15 -952 15 l-953 -1 -95 -70z m1157 -310 c34 -29 0 -62 -82 -80
-42 -9 -58 -9 -80 2 -37 18 -41 33 -14 58 40 37 141 48 176 20z"></path>
</g>
</svg>