 <svg version="1.0" xmlns="http://www.w3.org/2000/svg" viewBox="0 0 700.000000 423.000000" preserveAspectRatio="xMidYMid meet" id="mask">

<g transform="translate(0.000000,423.000000) scale(0.100000,-0.100000)">
<path d="M3690 2695 l0 -1535 41 0 41 0 -6 543 c-3 298 -9 584 -12 635 l-5 92
35 0 c32 0 36 3 36 25 0 14 9 34 21 46 11 11 18 23 15 26 -3 4 -1 12 5 19 6 8
9 21 5 29 -4 11 1 15 22 14 17 -1 20 -3 10 -6 -20 -5 -24 -28 -8 -38 6 -4 8
-10 5 -15 -3 -5 3 -18 15 -30 11 -11 20 -31 20 -45 l0 -25 208 2 207 3 5 75
c4 59 8 75 22 78 20 4 37 -73 19 -91 -6 -6 -11 -21 -11 -34 l0 -23 169 0 c103
0 172 4 176 10 3 6 16 10 28 10 12 0 27 8 34 19 11 17 78 37 116 33 10 -1 17
5 17 16 1 16 2 16 14 -1 8 -11 17 -14 20 -8 4 5 1 13 -6 17 -20 13 34 23 57
11 29 -15 64 -15 58 0 -5 12 1 14 25 12 4 0 6 -6 5 -12 -4 -20 55 -40 98 -34
21 3 42 1 45 -4 3 -5 -1 -9 -8 -9 -7 0 3 -8 22 -17 19 -10 39 -23 43 -30 5 -7
27 -13 52 -13 l44 0 3 67 c3 67 4 68 33 73 21 4 29 11 27 23 -2 12 4 17 23 17
18 0 25 -5 25 -19 0 -15 8 -21 33 -23 24 -2 32 -8 33 -23 1 -11 2 -42 3 -68
l1 -48 123 3 122 3 5 65 c5 70 13 90 35 90 19 0 35 -32 35 -69 0 -39 -27 -42
-33 -3 -3 15 -4 2 -3 -28 l1 -55 110 0 110 0 3 143 3 142 -291 0 -290 0 0 179
c0 171 -1 179 -19 174 -12 -3 -28 4 -41 17 -19 19 -20 24 -7 43 8 12 26 23 41
25 l26 3 0 185 0 184 283 0 c155 0 287 4 294 8 9 6 13 92 13 342 l2 335 -1201
3 -1201 2 0 -1535z m990 655 l0 -180 24 -10 c13 -5 27 -14 31 -19 11 -19 -6
-52 -31 -61 l-24 -10 0 -175 0 -175 -320 0 -320 0 0 180 c0 151 -2 179 -14
174 -8 -3 -23 3 -34 14 -28 28 -18 61 19 69 l29 6 0 178 c0 161 2 178 18 182
9 3 153 5 320 6 l302 1 0 -180z m433 69 c24 -11 47 -47 47 -74 0 -7 -11 -27
-25 -43 -29 -34 -30 -58 -12 -199 7 -51 9 -101 5 -112 -10 -27 -46 -37 -66
-18 -13 14 -14 31 -2 154 12 129 12 138 -5 148 -60 34 -73 88 -30 130 26 27
51 31 88 14z"></path>
<path d="M5090 2500 c0 -5 5 -10 10 -10 6 0 10 5 10 10 0 6 -4 10 -10 10 -5 0
-10 -4 -10 -10z"></path>
</g>
</svg>