 <svg version="1.0" xmlns="http://www.w3.org/2000/svg" viewBox="0 0 700.000000 423.000000" preserveAspectRatio="xMidYMid meet" id="mask">

<g transform="translate(0.000000,423.000000) scale(0.100000,-0.100000)">
<path d="M0 2950 c0 -1352 -1 -1323 42 -1258 14 21 24 22 170 26 l155 4 12
197 c7 108 16 203 20 211 6 11 34 17 110 21 57 4 106 10 111 15 4 5 20 30 34
56 l26 46 -20 44 c-11 24 -20 51 -20 61 0 16 -16 17 -204 17 l-203 0 -6 78
c-7 76 -11 832 -5 837 2 1 166 6 365 9 l362 7 5 -178 c7 -245 20 -460 29 -469
4 -4 7 10 7 31 0 55 21 219 30 228 4 4 5 -16 3 -45 -6 -102 -8 -207 -4 -202 3
3 20 53 38 112 41 130 72 174 37 51 -34 -116 -24 -121 16 -8 18 52 40 101 48
109 13 13 14 13 7 -5 -4 -11 -20 -58 -35 -105 -32 -96 -19 -86 41 32 21 42 43
79 49 83 12 8 13 -8 1 -21 -13 -13 -62 -126 -52 -120 5 3 27 37 50 75 23 38
51 77 62 87 12 11 3 -11 -21 -50 -23 -37 -40 -72 -38 -78 2 -6 32 22 67 61 35
39 66 69 69 67 3 -3 -12 -24 -32 -46 -20 -22 -36 -42 -36 -45 0 -3 24 7 53 21
28 15 70 28 92 30 l40 4 -63 -36 c-34 -19 -62 -37 -62 -39 0 -3 35 12 78 31
88 41 134 55 82 25 -42 -24 -34 -27 16 -6 l36 15 -6 477 c-3 263 -6 556 -6
651 l0 172 -775 0 -775 0 0 -1280z"></path>
<path d="M3040 2625 l0 -1605 325 0 325 0 0 1605 0 1605 -35 0 -35 0 0 -90 0
-90 -217 0 c-120 0 -235 -3 -255 -6 l-38 -7 0 97 0 96 -35 0 -35 0 0 -1605z
m580 1010 l0 -275 -253 0 -254 0 -6 267 c-3 147 -4 270 -1 275 3 4 120 8 260
8 l254 0 0 -275z m-2 -687 l-3 -273 -252 -3 -253 -2 0 275 0 275 255 0 255 0
-2 -272z m0 -700 l-3 -283 -130 -3 c-71 -2 -185 0 -252 3 l-123 7 0 279 0 279
255 0 255 0 -2 -282z m-8 -708 l0 -280 -128 0 c-71 0 -184 3 -250 7 l-122 6 0
274 0 273 250 0 250 0 0 -280z"></path>
<path d="M6457 3908 c-4 -178 -10 -969 -13 -1759 l-7 -1436 39 -6 c21 -4 148
-7 282 -7 l242 0 0 1765 0 1765 -269 0 -268 0 -6 -322z"></path>
<path d="M1530 2890 c-8 -5 -10 -10 -5 -10 6 0 17 5 25 10 8 5 11 10 5 10 -5
0 -17 -5 -25 -10z"></path>
<path d="M1510 2860 c-12 -8 -12 -10 5 -10 11 0 27 5 35 10 12 8 12 10 -5 10
-11 0 -27 -5 -35 -10z"></path>
<path d="M1515 2830 c-18 -8 -17 -9 7 -9 15 -1 30 4 33 9 7 12 -12 12 -40 0z"></path>
<path d="M1500 2800 c-34 -7 -34 -7 13 -9 26 0 47 4 47 9 0 11 -8 11 -60 0z"></path>
<path d="M1247 2774 c-19 -6 -144 -91 -235 -160 l-51 -39 0 -87 -1 -88 -79 0
-79 0 -53 -67 c-49 -63 -108 -158 -109 -175 0 -5 7 -8 15 -8 29 0 44 -70 33
-160 -3 -23 1 -25 40 -28 34 -3 42 -7 42 -23 0 -10 -4 -19 -10 -19 -5 0 -10
-4 -10 -10 0 -5 15 -10 34 -10 18 0 47 -3 63 -6 l29 -6 -4 -94 -4 -94 148 0
c82 0 159 -3 172 -6 21 -6 32 -34 12 -34 -6 0 -10 -81 -10 -224 0 -138 -6
-269 -15 -338 -15 -123 -21 -233 -17 -345 l2 -73 200 0 200 0 -2 1031 -3 1032
-40 15 c-40 14 -233 26 -268 16z"></path>
<path d="M1130 2731 c-19 -11 -46 -31 -60 -46 -21 -23 -14 -20 39 14 36 23 67
44 70 46 10 11 -16 3 -49 -14z"></path>
<path d="M660 2388 c1 -7 7 -35 14 -63 10 -37 16 -45 21 -32 11 28 -4 107 -21
107 -8 0 -14 -6 -14 -12z"></path>
<path d="M710 2360 c0 -18 4 -29 10 -25 6 3 10 15 10 25 0 10 -4 22 -10 25 -6
4 -10 -7 -10 -25z"></path>
<path d="M440 2093 c0 -3 11 -18 25 -35 14 -16 25 -38 25 -48 0 -25 25 -32 43
-12 17 20 50 83 45 87 -6 5 -138 13 -138 8z"></path>
<path d="M602 2088 c-22 -29 -51 -97 -43 -103 11 -6 15 -1 30 48 7 20 19 44
28 52 8 8 10 15 5 15 -5 0 -14 -6 -20 -12z"></path>
<path d="M530 1780 c-12 -8 -9 -10 13 -10 16 0 26 4 22 10 -8 12 -16 12 -35 0z"></path>
<path d="M1053 1269 c-29 -18 -32 -26 -37 -82 -17 -208 -23 -323 -17 -327 14
-9 20 -66 11 -105 -10 -44 -2 -55 41 -55 l26 0 6 258 c4 141 9 274 11 295 5
43 2 44 -41 16z"></path>
<path d="M251 1223 l-84 -4 6 -97 c4 -53 7 -132 7 -174 l0 -78 36 0 c27 0 48
9 78 33 53 43 64 47 118 37 24 -5 124 -10 221 -11 170 -3 177 -2 200 19 30 29
57 29 57 0 0 -14 4 -18 9 -13 8 8 14 137 12 263 l-1 32 -287 -2 c-159 -1 -326
-4 -372 -5z"></path>
<path d="M0 950 l0 -270 30 0 c25 0 30 4 30 23 0 12 7 33 17 46 14 21 15 46 9
220 -9 250 -9 251 -52 251 l-34 0 0 -270z"></path>
</g>
</svg>