 <svg version="1.0" xmlns="http://www.w3.org/2000/svg" viewBox="0 0 700.000000 423.000000" preserveAspectRatio="xMidYMid meet" id="mask">

<g transform="translate(0.000000,423.000000) scale(0.100000,-0.100000)">
<path d="M0 3216 c0 -34 2 -36 25 -30 14 3 31 1 39 -5 10 -9 15 -8 19 1 7 19
-10 58 -25 58 -7 0 -23 3 -35 6 -21 6 -23 3 -23 -30z"></path>
<path d="M98 3193 c-5 -33 0 -45 36 -89 40 -50 44 -52 121 -68 92 -18 182 -60
240 -109 46 -40 101 -114 91 -124 -3 -3 -57 -1 -118 5 -62 6 -115 9 -117 6
-13 -13 26 -24 124 -34 61 -7 113 -14 118 -17 4 -2 7 -165 7 -362 l0 -358 38
-7 c20 -3 53 -6 73 -6 20 0 41 -6 46 -12 10 -13 1 -392 -12 -520 l-8 -67 39
-10 c150 -39 170 -42 216 -36 l48 7 0 602 c0 332 3 731 7 889 l6 285 -43 12
c-47 13 -59 11 -226 -26 l-111 -24 -282 50 c-155 27 -283 50 -285 50 -2 0 -6
-17 -8 -37z"></path>
<path d="M0 3145 c0 -8 2 -15 4 -15 2 0 6 7 10 15 3 8 1 15 -4 15 -6 0 -10 -7
-10 -15z"></path>
<path d="M16 3105 c-20 -46 -20 -66 -2 -59 12 5 29 82 20 93 -2 2 -10 -14 -18
-34z"></path>
<path d="M70 3137 c0 -20 42 -87 55 -87 8 0 15 3 15 8 -1 10 -70 89 -70 79z"></path>
<path d="M50 3088 c0 -28 4 -38 16 -38 11 0 14 6 8 23 -14 47 -23 53 -24 15z"></path>
<path d="M2 2843 c2 -9 9 -18 15 -21 19 -6 16 25 -3 32 -11 4 -14 1 -12 -11z"></path>
<path d="M50 2835 c0 -10 10 -15 34 -15 38 0 55 14 30 24 -29 11 -64 6 -64 -9z"></path>
<path d="M146 2833 c-11 -11 -6 -23 9 -23 8 0 15 4 15 9 0 13 -16 22 -24 14z"></path>
<path d="M190 2820 c0 -5 5 -10 11 -10 5 0 7 5 4 10 -3 6 -8 10 -11 10 -2 0
-4 -4 -4 -10z"></path>
<path d="M239 2816 c16 -19 65 -22 59 -3 -3 6 -20 13 -38 15 -30 3 -32 2 -21
-12z"></path>
<path d="M215 1934 c-11 -2 -64 -6 -117 -9 -93 -7 -98 -8 -98 -30 0 -20 6 -23
54 -28 34 -3 72 0 102 9 26 8 71 14 101 14 50 0 53 1 53 25 0 22 -4 25 -37 24
-21 -1 -47 -3 -58 -5z"></path>
<path d="M1750 1708 c0 -26 3 -48 8 -48 4 0 151 -20 327 -45 176 -25 323 -45
328 -45 4 0 7 18 7 40 l0 40 45 0 45 0 0 -44 0 -43 69 5 c89 6 147 -4 131 -23
-13 -15 -21 -14 255 -49 105 -14 243 -25 310 -25 66 -1 134 -2 150 -3 17 -1
38 2 48 6 10 5 17 4 17 -2 0 -6 -15 -16 -32 -22 -31 -12 -20 -14 142 -36 205
-27 203 -27 195 -14 -3 6 -19 10 -36 10 -24 0 -29 4 -29 25 0 20 11 30 58 54
31 17 55 30 52 31 -35 3 -537 58 -780 85 -244 27 -1119 128 -1282 148 -27 3
-28 2 -28 -45z"></path>
<path d="M1833 1504 c3 -3 45 -15 94 -27 104 -26 102 -23 158 -217 20 -68 37
-125 38 -127 2 -1 27 5 56 14 52 15 88 13 197 -13 l21 -5 -18 83 c-10 46 -23
98 -28 117 -11 35 -2 65 21 74 34 12 -27 28 -254 66 -242 40 -297 47 -285 35z"></path>
<path d="M696 1455 c-3 -8 -1 -15 4 -15 6 0 10 7 10 15 0 8 -2 15 -4 15 -2 0
-6 -7 -10 -15z"></path>
<path d="M453 1421 c-59 -6 -83 -15 -71 -26 3 -3 50 3 104 13 98 20 86 24 -33
13z"></path>
<path d="M2680 1339 c0 -27 4 -39 14 -39 47 0 74 -64 146 -347 6 -24 14 -43
18 -43 5 0 45 14 90 30 46 17 91 30 101 30 33 0 425 -170 444 -193 15 -17 18
-35 16 -92 -1 -38 -2 -111 -1 -161 l2 -92 88 -24 87 -24 6 96 c4 52 7 222 8
376 1 239 -1 283 -14 294 -8 7 -15 22 -15 34 0 15 -11 26 -38 38 -20 9 -205
42 -417 73 -209 32 -415 63 -457 70 l-78 12 0 -38z"></path>
<path d="M2337 827 c-37 -17 -66 -35 -64 -41 3 -10 79 -38 136 -51 l32 -7 -3
63 c-4 77 -8 79 -101 36z"></path>
<path d="M3290 565 c-95 -39 -103 -44 -80 -53 47 -18 200 -55 205 -50 7 7 -6
148 -14 147 -3 0 -53 -20 -111 -44z"></path>
</g>
</svg>