 <svg version="1.0" xmlns="http://www.w3.org/2000/svg" viewBox="0 0 700.000000 423.000000" preserveAspectRatio="xMidYMid meet" id="mask">

<g transform="translate(0.000000,423.000000) scale(0.100000,-0.100000)">
<path d="M6970 3848 c-14 -6 -311 -108 -660 -228 -457 -156 -657 -220 -715
-229 -89 -12 -522 -63 -1245 -147 -261 -30 -519 -59 -572 -66 -68 -7 -98 -15
-98 -24 0 -7 4 -16 10 -19 5 -3 211 17 457 45 246 29 507 53 578 55 72 2 324
26 560 53 l430 50 270 87 c560 180 1009 326 1013 329 1 2 2 26 0 54 -3 48 -4
49 -28 40z"></path>
<path d="M6583 3338 c-260 -24 -508 -131 -624 -270 -46 -55 -85 -117 -77 -123
8 -6 1106 200 1116 210 3 3 3 7 0 10 -3 4 -916 -169 -1005 -190 -40 -9 -26 15
55 95 141 141 347 218 609 227 126 5 149 3 215 -17 40 -12 84 -28 96 -37 25
-16 39 -12 27 8 -11 17 -122 65 -180 77 -79 17 -133 19 -232 10z"></path>
<path d="M0 3288 c0 -17 3 -19 12 -10 9 9 20 5 47 -16 32 -24 69 -33 326 -78
l290 -52 105 25 c67 16 137 26 195 27 81 1 147 17 132 33 -3 3 -43 13 -88 23
l-83 19 -140 -34 -140 -34 -290 55 c-159 30 -300 53 -313 49 -13 -3 -23 -1
-23 5 0 5 -7 10 -15 10 -9 0 -15 -9 -15 -22z"></path>
<path d="M1 3256 c12 -10 60 -16 54 -6 -3 5 -18 10 -32 10 -15 0 -24 -2 -22
-4z"></path>
<path d="M3403 3132 c-106 -14 -193 -29 -193 -33 0 -19 80 -19 232 0 91 12
168 21 171 21 4 0 7 9 7 20 0 11 -6 19 -12 19 -7 -1 -100 -13 -205 -27z"></path>
<path d="M3661 3144 c0 -11 3 -14 6 -6 3 7 2 16 -1 19 -3 4 -6 -2 -5 -13z"></path>
<path d="M1050 3096 c0 -30 -48 -19 500 -110 l445 -74 115 13 c63 8 118 14
123 15 4 0 7 9 7 20 0 24 -9 24 -145 5 l-100 -14 -310 55 c-482 85 -588 104
-612 109 -19 5 -23 1 -23 -19z"></path>
<path d="M6855 3079 c-55 -11 -291 -53 -525 -94 -234 -41 -435 -77 -447 -80
l-23 -5 0 -470 c0 -280 4 -471 9 -475 5 -3 7 -21 4 -40 -5 -30 -3 -35 13 -35
11 0 100 -11 199 -25 98 -13 183 -21 187 -19 4 3 8 11 8 19 0 15 -15 18 -210
41 -74 9 -136 17 -136 17 -1 1 -4 215 -6 475 -5 473 -5 474 16 483 12 4 98 20
191 34 94 14 182 28 198 31 l27 6 0 -466 c0 -424 1 -466 16 -466 13 0 15 -7
10 -31 -3 -17 -1 -39 5 -50 7 -15 6 -21 -6 -25 -8 -3 -15 -13 -15 -21 0 -8 -9
-17 -20 -20 -38 -10 -19 -37 30 -45 120 -18 581 -70 585 -66 3 3 -5 14 -18 25
-19 18 -52 24 -217 42 -107 12 -205 24 -217 26 l-23 5 0 555 c0 305 1 555 3
555 1 1 115 20 252 43 l250 43 3 27 c4 33 -1 33 -143 6z"></path>
<path d="M5124 3080 c-70 -10 -161 -53 -207 -98 -43 -41 -102 -121 -94 -128 5
-5 688 43 694 49 9 10 -71 97 -114 125 -74 47 -181 67 -279 52z m219 -53 c60
-27 127 -82 127 -103 0 -8 -10 -14 -22 -14 -13 0 -149 -9 -302 -20 -154 -11
-282 -18 -284 -15 -10 9 82 107 123 131 98 57 259 66 358 21z"></path>
<path d="M50 3036 c0 -10 9 -16 21 -16 24 0 21 23 -4 28 -10 2 -17 -3 -17 -12z"></path>
<path d="M112 3038 c3 -7 17 -15 33 -16 25 -3 27 -2 16 12 -16 19 -55 22 -49
4z"></path>
<path d="M0 3030 c0 -5 7 -10 15 -10 8 0 15 5 15 10 0 6 -7 10 -15 10 -8 0
-15 -4 -15 -10z"></path>
<path d="M200 3026 c8 -8 42 -22 75 -31 33 -9 77 -26 99 -37 41 -21 146 -114
146 -130 0 -5 -20 -7 -45 -4 -25 3 -66 9 -91 12 -28 3 -44 2 -40 -4 3 -5 36
-13 73 -16 38 -4 92 -9 121 -13 l54 -6 -15 29 c-24 46 -118 129 -183 162 -57
28 -141 52 -187 52 -18 0 -19 -2 -7 -14z"></path>
<path d="M2392 3005 c-51 -7 -96 -15 -99 -18 -3 -4 -3 -13 1 -22 5 -14 16 -15
73 -8 85 10 145 10 206 -1 43 -8 47 -7 47 12 0 19 -25 29 -120 47 -8 1 -57 -3
-108 -10z"></path>
<path d="M2271 2964 c0 -11 3 -14 6 -6 3 7 2 16 -1 19 -3 4 -6 -2 -5 -13z"></path>
<path d="M5145 2836 l-330 -21 -3 -437 -2 -436 72 -6 c40 -3 122 -8 181 -11
104 -6 109 -6 103 13 -4 11 0 24 9 32 21 18 19 53 -5 70 -26 19 -25 30 1 30
16 0 20 5 16 20 -3 13 0 20 9 20 12 0 14 56 14 349 l0 349 98 6 c53 4 120 8
147 9 l50 2 5 -358 c3 -228 9 -357 15 -357 6 0 10 131 10 373 l0 372 -30 1
c-16 1 -178 -8 -360 -20z m-27 -463 l2 -422 -132 6 c-73 3 -134 6 -134 7 -1 0
-3 186 -5 411 l-4 410 70 6 c39 3 99 5 135 5 l65 -1 3 -422z"></path>
<path d="M225 2840 c3 -5 23 -10 43 -10 28 0 33 3 22 10 -20 13 -73 13 -65 0z"></path>
<path d="M0 2805 c0 -8 7 -15 15 -15 8 0 15 7 15 15 0 8 -7 15 -15 15 -8 0
-15 -7 -15 -15z"></path>
<path d="M50 2806 c0 -16 48 -28 57 -14 3 6 -1 14 -8 19 -21 13 -49 11 -49 -5z"></path>
<path d="M128 2800 c-6 -17 4 -130 11 -130 4 0 11 15 16 33 7 21 15 31 26 29
24 -4 31 25 13 54 -16 24 -59 34 -66 14z"></path>
<path d="M212 2788 c2 -6 10 -14 16 -16 7 -2 10 2 6 12 -7 18 -28 22 -22 4z"></path>
<path d="M256 2786 c7 -19 48 -22 42 -3 -3 6 -14 13 -26 15 -16 3 -20 -1 -16
-12z"></path>
<path d="M330 2781 c0 -6 4 -13 10 -16 6 -3 7 1 4 9 -7 18 -14 21 -14 7z"></path>
<path d="M370 2775 c0 -12 62 -25 126 -25 l34 0 0 -212 c0 -117 3 -277 7 -355
l6 -143 29 0 28 0 -2 363 -3 362 -75 7 c-41 4 -92 9 -112 12 -27 3 -38 0 -38
-9z"></path>
<path d="M1054 2667 c3 -29 6 -175 6 -324 l0 -273 33 0 34 0 6 113 c4 61 7
191 7 288 l0 177 88 -5 c48 -3 90 -8 94 -12 4 -3 8 -127 10 -276 l3 -270 -83
-3 -83 -3 3 -32 c3 -30 5 -32 38 -29 19 2 42 10 51 18 12 10 117 33 162 34 4
0 6 138 5 308 l-3 307 -140 12 c-77 6 -162 14 -189 17 l-49 5 7 -52z"></path>
<path d="M140 2660 c-1 -3 -4 -26 -6 -52 -4 -38 -2 -48 10 -48 8 0 17 6 19 13
4 9 6 9 6 0 1 -17 31 -4 31 13 0 8 -9 13 -22 11 -19 -2 -24 4 -29 33 -4 19 -7
33 -9 30z"></path>
<path d="M221 2592 c-1 -18 -11 -28 -41 -39 -39 -16 -51 -35 -29 -49 6 -3 27
9 46 28 26 26 34 41 30 59 l-4 24 -2 -23z"></path>
<path d="M202 2522 c-40 -33 -40 -42 -2 -42 32 0 44 15 38 49 -3 19 -5 19 -36
-7z"></path>
<path d="M148 2459 c-20 -11 -25 -43 -5 -35 6 2 29 10 50 17 20 7 37 16 37 21
0 11 -61 10 -82 -3z"></path>
<path d="M173 2422 l-43 -16 -2 -221 -3 -220 -62 -3 c-56 -3 -63 -5 -63 -23 0
-19 5 -20 48 -15 26 3 95 8 154 12 74 4 108 10 112 19 7 20 -5 26 -41 19 l-33
-6 0 236 c0 183 -3 236 -12 235 -7 -1 -32 -9 -55 -17z"></path>
<path d="M6361 1964 c0 -11 3 -14 6 -6 3 7 2 16 -1 19 -3 4 -6 -2 -5 -13z"></path>
<path d="M1100 1511 c-20 -5 -26 -14 -28 -45 l-3 -39 38 6 c21 4 44 7 51 7 13
0 16 37 6 64 -6 17 -23 19 -64 7z"></path>
<path d="M688 1411 c-1 -17 -2 -38 -2 -48 -1 -9 5 -18 12 -20 8 -3 12 9 12 41
0 51 -19 74 -22 27z"></path>
<path d="M505 1408 c-60 -11 -111 -21 -112 -22 -8 -7 32 -86 43 -86 7 0 46 7
86 15 130 27 119 21 116 67 -2 23 -7 42 -13 44 -5 1 -59 -7 -120 -18z"></path>
<path d="M740 1375 c0 -43 1 -45 38 -54 147 -39 169 -42 210 -36 69 10 72 13
72 61 l0 45 -62 -7 c-48 -4 -83 -1 -145 15 -113 29 -113 29 -113 -24z"></path>
</g>
</svg>