 <svg version="1.0" xmlns="http://www.w3.org/2000/svg" id="mask" viewBox="0 0 700.000000 423.000000" preserveAspectRatio="xMidYMid meet">

<g transform="translate(0.000000,423.000000) scale(0.100000,-0.100000)">
<path d="M4690 4221 c-8 -5 -195 -70 -415 -146 -220 -76 -437 -151 -482 -167
l-83 -30 7 -76 c3 -43 6 -78 7 -79 2 -2 1623 490 1648 500 7 3 -140 6 -327 6
-187 0 -347 -3 -355 -8z"></path>
<path d="M5440 3724 c-833 -199 -1557 -373 -1607 -384 l-93 -22 0 -983 0 -984
33 -5 c304 -48 402 -67 416 -81 12 -11 16 -33 14 -79 l-1 -64 91 -9 92 -8 5
55 5 55 103 18 c93 17 102 21 102 41 0 21 7 24 83 35 46 7 89 16 96 20 9 6 12
45 9 155 l-3 146 25 0 25 0 -3 -149 -4 -149 26 5 26 5 0 182 c0 125 -4 186
-12 194 -9 9 -8 13 5 17 27 11 63 1 57 -15 -3 -8 -6 -97 -8 -197 l-3 -182 43
-5 c24 -4 160 -18 303 -32 1251 -124 1627 -162 1631 -167 3 -3 8 -98 11 -210
l6 -205 30 -6 c16 -3 36 -6 43 -6 12 0 14 263 14 1690 l0 1690 -22 -1 c-13 -1
-705 -165 -1538 -365z m908 -1857 l2 -439 -62 6 c-35 4 -277 22 -538 42 -261
19 -512 37 -557 41 l-82 6 -3 371 c-2 204 -1 374 2 377 5 7 1032 37 1165 35
l70 -1 3 -438z"></path>
</g>
</svg>