 <svg version="1.0" xmlns="http://www.w3.org/2000/svg" id="mask" viewBox="0 0 700.000000 423.000000" preserveAspectRatio="xMidYMid meet">

<g transform="translate(0.000000,423.000000) scale(0.100000,-0.100000)">
<path d="M0 4165 c0 -44 4 -67 12 -69 7 -2 330 -74 718 -160 388 -86 795 -177
905 -202 110 -25 456 -101 770 -170 l570 -124 67 13 68 14 315 -73 314 -74
353 85 c194 46 911 217 1593 380 682 163 1257 300 1278 306 l37 10 0 64 0 65
-796 0 -795 0 -838 -255 c-461 -140 -846 -255 -857 -255 -11 0 -404 115 -873
255 l-852 255 -994 0 -995 0 0 -65z"></path>
</g>
</svg>