 <svg version="1.0" xmlns="http://www.w3.org/2000/svg" viewBox="0 0 700.000000 423.000000" preserveAspectRatio="xMidYMid meet" id="mask">

<g transform="translate(0.000000,423.000000) scale(0.100000,-0.100000)">
<path d="M1020 3068 l0 -35 551 -7 c303 -4 555 -4 560 1 5 5 6 18 3 29 -6 21
-10 21 -432 28 -235 3 -484 9 -554 12 l-128 7 0 -35z"></path>
<path d="M1020 2424 c-2 -51 1 -668 3 -670 1 -1 253 -5 560 -9 l557 -7 0 341
0 341 -348 0 c-192 0 -444 3 -560 7 -125 3 -212 2 -212 -3z"></path>
<path d="M1020 770 l0 -110 205 0 c186 0 227 5 196 24 -4 3 -14 26 -21 51 -14
50 -27 65 -36 41 -3 -9 -12 -16 -20 -16 -8 0 -14 -8 -14 -17 0 -13 -3 -14 -11
-6 -13 13 -39 6 -54 -14 -7 -9 -15 -10 -25 -3 -9 6 -10 10 -3 10 6 0 24 11 40
24 15 13 48 35 73 49 24 13 46 31 48 38 3 8 1 11 -3 7 -4 -4 -20 1 -35 12 -25
18 -45 20 -184 20 l-156 0 0 -110z"></path>
<path d="M1370 870 c0 -5 12 -10 26 -10 14 0 23 4 19 10 -3 6 -15 10 -26 10
-10 0 -19 -4 -19 -10z"></path>
<path d="M1435 860 c3 -5 8 -10 11 -10 2 0 4 5 4 10 0 6 -5 10 -11 10 -5 0 -7
-4 -4 -10z"></path>
<path d="M1705 860 c-11 -5 -33 -9 -50 -10 -16 -1 -24 -4 -17 -7 6 -2 12 -11
12 -19 0 -8 10 -14 24 -14 50 0 56 -7 41 -55 -7 -24 -23 -57 -35 -74 l-22 -31
244 2 243 3 3 108 3 107 -145 0 c-125 0 -145 -2 -140 -15 4 -9 0 -15 -9 -15
-21 0 -31 17 -15 23 8 3 6 6 -4 6 -10 1 -18 -5 -18 -13 0 -12 -6 -13 -32 -4
-56 17 -62 17 -83 8z"></path>
<path d="M1490 842 c0 -4 9 -8 20 -8 11 0 20 4 20 8 0 4 -9 8 -20 8 -11 0 -20
-4 -20 -8z"></path>
</g>
</svg>