 <svg version="1.0" xmlns="http://www.w3.org/2000/svg" viewBox="0 0 700.000000 423.000000" preserveAspectRatio="xMidYMid meet" id="mask">

<g transform="translate(0.000000,423.000000) scale(0.100000,-0.100000)">
<path d="M630 2075 l0 -1024 21 -12 c19 -10 20 -9 14 13 -4 12 -11 28 -16 34
-14 17 0 24 27 14 16 -6 24 -6 24 1 0 6 8 9 18 7 9 -2 22 5 29 17 7 11 12 14
13 8 0 -7 9 -13 20 -13 15 0 20 -7 20 -25 0 -28 3 -29 32 -14 24 13 41 -5 32
-33 -4 -13 0 -18 15 -18 l21 0 0 893 c0 490 -3 956 -7 1035 l-6 142 -129 0
-128 0 0 -1025z"></path>
<path d="M2247 2423 c3 -819 10 -1108 28 -1093 19 16 135 22 135 7 0 -8 3 -8
9 1 11 17 80 5 88 -15 5 -11 9 -11 24 3 18 16 19 47 19 821 0 529 -3 803 -10
803 -6 0 -10 28 -10 65 l0 65 -142 0 -143 0 2 -657z"></path>
<path d="M2597 2944 c-4 -4 -7 -283 -7 -621 l0 -613 115 0 115 0 0 -89 c0 -89
9 -113 33 -92 7 5 32 9 55 8 l42 -3 0 223 0 223 -75 0 c-71 0 -76 2 -85 24 -5
14 -19 26 -32 28 -20 3 -25 12 -34 63 -6 33 -14 72 -17 88 -7 27 -7 27 40 27
36 0 118 28 375 130 180 72 335 130 344 130 15 0 633 -248 678 -272 11 -6 48
-10 83 -9 55 1 63 -1 63 -17 0 -19 -72 -86 -152 -141 l-48 -32 0 -59 c0 -33 2
-60 4 -60 3 0 65 29 137 65 73 36 139 63 145 61 7 -3 254 114 549 259 l535
264 0 119 0 119 -262 6 c-145 4 -388 7 -540 7 l-278 0 0 69 0 68 -297 6 c-164
4 -507 9 -763 12 -256 3 -521 8 -590 11 -69 3 -129 2 -133 -2z m1421 -79 c9
-3 12 -42 12 -150 l0 -145 -153 0 c-85 0 -357 3 -605 7 l-452 6 0 149 0 149
593 -6 c325 -4 598 -8 605 -10z m1072 -132 c0 -5 5 -39 11 -78 5 -38 7 -87 4
-107 l-7 -38 -124 0 -124 0 0 115 0 115 120 0 c66 0 120 -3 120 -7z"></path>
<path d="M3030 1777 c0 -213 3 -308 11 -313 8 -4 9 0 4 15 -4 12 -2 21 4 21 6
0 12 -23 12 -52 l1 -53 8 48 c13 77 21 68 14 -16 -5 -55 -4 -77 5 -77 6 0 11
-8 11 -18 0 -19 47 -82 61 -82 5 0 9 106 9 235 l0 235 255 0 255 0 0 -256 c0
-167 3 -253 10 -249 6 3 10 19 10 34 0 16 8 35 18 42 14 11 15 11 5 -1 -15
-17 -17 -50 -3 -50 6 0 10 7 10 15 0 8 5 15 10 15 6 0 10 6 10 14 0 8 7 16 15
20 10 3 15 -1 15 -11 0 -9 3 -13 7 -9 4 4 6 25 4 47 -3 51 8 119 20 119 5 0
10 -35 10 -77 1 -75 2 -76 9 -30 9 52 20 73 20 41 1 -13 7 -7 21 19 32 60 31
43 -1 -25 -28 -59 -39 -108 -23 -108 3 0 15 8 25 17 18 16 18 16 12 0 -3 -10
-1 -17 5 -17 12 0 28 -33 41 -85 6 -24 8 -18 9 32 1 34 -3 65 -9 68 -5 3 -10
11 -10 16 0 6 5 7 10 4 7 -4 10 110 10 334 l0 340 -57 3 c-52 3 -58 5 -61 26
-2 13 4 32 14 43 17 19 14 19 -123 19 -77 0 -262 3 -411 7 l-272 6 0 -306z
m730 -387 c0 -16 3 -35 6 -44 4 -11 -1 -14 -23 -13 -25 2 -28 7 -31 41 -3 40
10 59 35 49 7 -3 13 -18 13 -33z"></path>
<path d="M4030 1910 c0 -43 3 -58 13 -55 14 6 11 115 -4 115 -5 0 -9 -27 -9
-60z"></path>
<path d="M4585 1811 c-6 -6 -7 -55 -3 -123 3 -62 7 -195 7 -295 1 -184 5 -201
36 -170 9 9 10 19 3 30 -7 13 -5 15 7 11 8 -4 15 -1 15 6 0 10 3 10 15 0 12
-10 15 -10 15 3 0 8 7 17 15 21 8 3 15 0 15 -6 0 -7 9 -2 21 11 20 21 22 21
40 5 25 -23 33 -14 16 19 -17 33 -13 114 8 136 8 10 15 23 15 29 0 7 3 11 8
11 4 -1 12 0 17 1 29 8 105 4 105 -6 0 -6 12 -9 30 -6 33 5 35 1 19 -30 -9
-18 -8 -19 10 -13 12 3 21 3 20 -2 -1 -4 2 -19 7 -32 15 -48 23 9 23 177 l1
162 975 -7 975 -6 0 35 0 35 -622 6 c-912 10 -1782 9 -1793 -2z"></path>
<path d="M4345 1729 c-67 -29 -74 -30 -195 -27 l-125 3 -1 -70 -1 -70 4 63 4
62 125 0 125 0 -3 -117 -3 -118 -123 0 -122 0 0 -92 0 -93 120 0 120 0 0 -116
0 -115 -120 3 c-93 2 -121 0 -125 -10 -3 -8 -5 -47 -5 -87 0 -56 4 -78 17 -90
16 -16 18 -16 35 5 10 12 18 17 18 11 0 -6 5 -11 11 -11 6 0 8 7 5 16 -5 12
-2 15 10 10 8 -3 18 -6 20 -6 3 0 2 -6 -2 -12 -4 -7 2 -5 13 5 18 16 21 16 27
2 5 -13 9 -12 28 7 l23 23 3 -32 c3 -28 6 -31 29 -27 22 4 25 2 20 -16 -6 -24
1 -26 18 -3 13 17 40 9 29 -9 -4 -7 4 -8 22 -4 20 5 36 1 49 -10 17 -13 17
-15 3 -10 -10 3 -18 1 -18 -5 0 -6 10 -9 23 -7 28 4 62 -25 53 -47 -3 -9 -2
-13 4 -10 14 9 12 -9 -2 -23 -23 -23 3 -25 27 -2 l25 23 0 -41 c0 -22 5 -44
11 -47 6 -5 9 10 8 43 -2 42 -6 52 -26 61 -25 12 -23 31 4 31 13 0 13 3 3 15
-10 12 -10 15 4 15 15 0 16 41 14 478 l-3 477 -55 2 c-43 2 -70 -4 -125 -28z"></path>
<path d="M3037 1413 c-11 -10 -8 -51 3 -58 6 -4 10 8 10 29 0 37 -2 41 -13 29z"></path>
<path d="M2902 1386 c-18 -7 -29 -16 -25 -20 10 -10 -36 -45 -62 -47 -16 -1
-17 -2 -3 -6 9 -2 15 -10 12 -18 -8 -21 15 -28 33 -10 9 10 26 15 40 12 12 -2
23 0 23 4 0 5 7 9 15 9 11 0 15 12 15 45 0 25 -3 44 -7 44 -5 -1 -23 -7 -41
-13z"></path>
<path d="M2590 1326 c0 -16 27 -29 35 -16 3 5 -4 14 -15 20 -16 8 -20 8 -20
-4z"></path>
<path d="M3866 1253 c-12 -12 -5 -23 14 -23 11 0 20 4 20 9 0 11 -26 22 -34
14z"></path>
<path d="M4952 1217 c-8 -10 -6 -13 9 -14 19 -2 26 11 10 21 -5 3 -14 0 -19
-7z"></path>
<path d="M2380 1210 c-8 -5 -27 -10 -42 -10 -16 0 -28 -5 -28 -11 0 -5 -5 -7
-10 -4 -23 15 -40 -17 -40 -76 0 -49 3 -59 17 -59 13 0 14 3 5 12 -22 22 -13
31 25 25 27 -5 33 -3 25 5 -20 20 -13 38 13 38 17 0 25 6 25 18 0 14 2 15 10
2 9 -13 11 -13 20 0 5 8 10 11 10 5 0 -5 5 -17 10 -25 8 -13 11 -12 25 5 8 11
20 28 26 38 10 17 8 18 -22 12 -27 -6 -31 -5 -26 9 5 14 3 15 -13 6 -16 -9
-18 -8 -14 5 7 17 5 18 -16 5z"></path>
<path d="M5008 1187 c4 -28 6 -29 18 -12 18 25 18 32 -4 37 -15 4 -17 0 -14
-25z"></path>
<path d="M3686 1184 c-8 -21 -8 -21 8 -21 8 0 11 8 8 19 -5 22 -8 23 -16 2z"></path>
<path d="M4597 1193 c-4 -3 -7 -11 -7 -17 0 -6 5 -5 12 2 6 6 9 14 7 17 -3 3
-9 2 -12 -2z"></path>
<path d="M3741 1164 c0 -11 3 -14 6 -6 3 7 2 16 -1 19 -3 4 -6 -2 -5 -13z"></path>
<path d="M4759 1175 c-1 -3 -3 -9 -4 -15 -1 -5 -3 -13 -4 -16 0 -4 -8 -1 -16
6 -12 10 -15 9 -16 -6 0 -18 -1 -18 -9 1 -7 17 -9 17 -9 3 -1 -20 -21 -25 -21
-6 0 6 -9 3 -21 -8 -12 -10 -22 -17 -23 -15 0 2 -11 1 -23 -3 -22 -7 -23 -12
-23 -117 0 -90 3 -109 15 -109 8 0 15 4 15 10 0 12 29 2 52 -18 24 -20 27 -9
30 118 l3 105 77 0 c69 0 79 2 93 23 15 21 15 22 -6 22 -12 0 -30 -7 -39 -15
-15 -14 -19 -13 -43 9 -14 13 -23 27 -20 30 4 3 3 6 0 6 -4 0 -8 -2 -8 -5z"></path>
<path d="M4856 1172 c-3 -5 1 -9 9 -9 8 0 12 4 9 9 -3 4 -7 8 -9 8 -2 0 -6 -4
-9 -8z"></path>
<path d="M4976 1153 c9 -38 14 -42 14 -10 0 14 -5 29 -10 32 -7 4 -8 -3 -4
-22z"></path>
<path d="M2490 1170 c-1 -3 -4 -19 -6 -37 -4 -24 -1 -33 14 -37 11 -4 27 -4
36 0 18 7 22 34 5 34 -6 0 -9 7 -5 15 3 9 0 15 -9 15 -8 0 -15 -6 -16 -12 0
-7 -4 -4 -9 7 -5 11 -9 18 -10 15z"></path>
<path d="M4905 1150 c-3 -5 -1 -10 4 -10 6 0 11 5 11 10 0 6 -2 10 -4 10 -3 0
-8 -4 -11 -10z"></path>
<path d="M5029 1158 c-6 -11 -3 -58 3 -58 4 0 8 14 8 30 0 25 -6 38 -11 28z"></path>
<path d="M3916 1135 c-3 -9 0 -15 9 -15 8 0 15 7 15 15 0 8 -4 15 -9 15 -5 0
-11 -7 -15 -15z"></path>
<path d="M4891 1121 c-8 -6 -9 -11 -3 -15 6 -3 14 -1 17 5 9 14 2 20 -14 10z"></path>
<path d="M4926 1122 c-13 -12 -4 -22 20 -22 15 0 24 5 22 12 -4 12 -33 20 -42
10z"></path>
<path d="M2865 1110 c-11 -4 -23 -6 -27 -3 -8 4 -10 -3 -12 -47 -1 -23 -6 -25
-56 -30 l-55 -5 -3 -53 c-3 -59 9 -83 40 -77 14 3 18 0 14 -10 -8 -22 12 -18
26 5 19 30 31 24 24 -11 -5 -27 -4 -30 9 -19 13 11 13 7 -1 -26 l-16 -39 21
19 c22 20 26 15 22 -26 -3 -32 18 -28 59 12 l41 39 -7 113 c-4 62 -11 122 -15
133 -7 14 -8 6 -6 -27 1 -25 0 -44 -3 -41 -3 3 -11 -12 -18 -34 -11 -35 -12
-31 -6 44 3 44 2 83 -3 86 -4 2 -17 1 -28 -3z"></path>
<path d="M3887 1076 c-4 -10 -7 -25 -6 -34 0 -11 4 -9 10 7 5 13 8 29 6 35 -2
5 -6 2 -10 -8z"></path>
<path d="M3680 951 l0 -111 -255 0 -255 0 -1 73 c-1 39 -4 63 -6 53 -3 -10
-14 -34 -24 -53 -20 -35 -25 -68 -11 -76 4 -3 139 -8 300 -12 224 -5 296 -4
307 5 17 14 19 48 5 85 -9 23 -13 25 -25 15 -13 -11 -15 -4 -15 53 0 36 -4 69
-10 72 -6 4 -10 -33 -10 -104z"></path>
<path d="M2520 1035 c-10 -13 -9 -15 9 -15 12 0 21 6 21 15 0 8 -4 15 -9 15
-5 0 -14 -7 -21 -15z"></path>
<path d="M2261 1014 c0 -11 3 -14 6 -6 3 7 2 16 -1 19 -3 4 -6 -2 -5 -13z"></path>
<path d="M2590 937 l0 -94 36 -11 c29 -9 35 -8 30 3 -3 8 -1 17 3 19 4 3 9 35
9 72 1 58 -1 67 -19 71 -12 3 -18 11 -15 19 4 10 -3 14 -19 14 -25 0 -25 -1
-25 -93z"></path>
<path d="M3886 979 c-21 -63 -32 -145 -20 -151 5 -3 24 -3 42 -1 31 5 32 6 32
57 0 59 -15 93 -25 61 -4 -11 -10 -29 -15 -40 -13 -30 -12 3 1 65 15 68 6 74
-15 9z"></path>
<path d="M876 991 c-8 -13 5 -71 15 -71 5 0 9 18 9 40 0 37 -11 52 -24 31z"></path>
<path d="M2260 953 c0 -25 0 -26 20 -8 11 10 20 19 20 20 0 2 -9 5 -20 8 -16
4 -20 0 -20 -20z"></path>
<path d="M2510 950 c0 -5 4 -10 8 -10 5 0 13 -12 19 -27 11 -28 11 -28 12 10
1 31 -2 37 -19 37 -11 0 -20 -4 -20 -10z"></path>
<path d="M630 790 l0 -130 50 0 c47 0 50 2 46 23 -3 12 -10 55 -16 95 -9 53
-16 72 -27 72 -11 0 -14 9 -11 35 4 31 1 35 -19 35 -23 0 -23 -1 -23 -130z"></path>
<path d="M2260 776 c0 -98 1 -105 21 -111 12 -4 24 -3 28 2 4 4 3 54 -2 111
-8 90 -11 102 -28 102 -17 0 -19 -9 -19 -104z"></path>
<path d="M2533 868 c-7 -8 -9 -18 -5 -23 4 -4 -2 -6 -13 -3 -30 7 -45 -15 -52
-75 l-6 -52 22 19 c31 28 28 -3 -3 -33 -13 -13 -26 -31 -29 -42 -4 -16 0 -19
33 -19 35 0 38 3 54 44 21 55 20 210 -1 184z"></path>
<path d="M887 721 c-4 -35 -5 -67 -2 -69 12 -12 16 10 13 69 l-3 64 -8 -64z"></path>
<path d="M4650 610 c-12 -8 -12 -10 5 -11 11 0 14 -3 8 -6 -17 -6 -16 -23 1
-23 13 0 26 20 26 41 0 12 -21 11 -40 -1z"></path>
</g>
</svg>