 <svg version="1.0" xmlns="http://www.w3.org/2000/svg" viewBox="0 0 700.000000 423.000000" preserveAspectRatio="xMidYMid meet" id="mask">

<g transform="translate(0.000000,423.000000) scale(0.100000,-0.100000)">
<path d="M240 3186 c0 -9 6 -18 13 -21 6 -2 478 -8 1047 -14 569 -6 1147 -14
1283 -17 l249 -6 -4 23 -3 24 -230 6 c-126 4 -708 10 -1292 14 -995 8 -1063 7
-1063 -9z"></path>
<path d="M900 1885 l0 -1235 55 0 55 0 0 103 c0 56 4 107 8 114 5 9 67 13 212
17 220 4 240 6 240 18 0 5 11 1 25 -8 24 -16 25 -15 25 6 0 13 5 20 13 17 6
-2 11 -12 11 -21 -2 -14 5 -16 41 -13 46 5 85 22 85 37 0 6 -128 10 -322 10
-177 0 -322 1 -324 2 -1 2 -4 340 -6 752 l-4 748 561 -7 c308 -4 561 -9 563
-10 2 -2 4 -337 5 -746 l2 -744 -215 0 c-198 0 -218 -2 -247 -20 l-31 -20 81
-2 c45 -1 157 -2 250 -2 l167 -1 0 -115 0 -115 55 0 56 0 -3 255 c-2 195 -6
258 -16 264 -7 4 -10 15 -6 24 3 10 1 17 -5 17 -6 0 -11 5 -11 10 0 6 7 10 15
10 8 0 15 5 15 10 0 6 -6 10 -12 10 -9 0 -8 4 2 10 13 9 13 11 0 20 -10 6 -11
10 -2 10 9 0 12 135 12 643 0 353 -3 760 -7 905 l-6 262 -50 0 -49 0 3 -312 4
-313 -560 0 -560 0 -3 309 c-1 208 -6 314 -13 323 -7 7 -32 13 -60 13 l-49 0
0 -1235z"></path>
<path d="M2856 3015 c-11 -8 -17 -17 -14 -20 5 -6 1250 -24 1656 -25 191 0
202 1 202 19 0 18 -20 19 -527 25 -291 3 -701 8 -913 10 -324 4 -388 3 -404
-9z"></path>
<path d="M4594 2856 c-10 -8 -17 -17 -14 -20 5 -4 947 -26 1133 -26 42 0 57 4
57 14 0 20 -95 25 -645 32 -264 3 -487 7 -496 10 -8 2 -24 -2 -35 -10z"></path>
<path d="M2820 2605 c0 -9 6 -17 13 -19 6 -3 279 -7 605 -10 571 -6 592 -5
592 13 0 16 -12 19 -107 24 -58 4 -330 7 -605 7 -440 0 -498 -2 -498 -15z"></path>
<path d="M2780 2126 l0 -24 568 -6 c312 -3 633 -7 715 -9 146 -3 147 -3 147
19 0 21 -4 22 -162 28 -90 3 -412 8 -715 10 l-553 5 0 -23z"></path>
<path d="M4300 1881 c-20 -10 -30 -22 -30 -37 0 -22 2 -22 33 -10 25 9 202 11
842 5 446 -4 1045 -7 1333 -8 l522 -1 0 24 0 24 -452 6 c-249 4 -850 8 -1335
9 -748 2 -887 0 -913 -12z"></path>
<path d="M4118 1797 c-61 -29 -88 -47 -88 -59 0 -10 3 -18 6 -18 3 0 43 16 90
36 72 31 84 40 84 60 0 13 -1 24 -2 23 -2 0 -42 -20 -90 -42z"></path>
</g>
</svg>