 <svg version="1.0" xmlns="http://www.w3.org/2000/svg" viewBox="0 0 700.000000 423.000000" preserveAspectRatio="xMidYMid meet" id="svg1">

<g transform="translate(0.000000,423.000000) scale(0.100000,-0.100000)">
<path d="M5010 3290 c-316 -49 -584 -90 -595 -92 -19 -3 -20 -13 -25 -263 l-5
-260 -45 -6 c-25 -4 -93 -10 -152 -14 l-108 -7 0 -90 c0 -80 2 -89 18 -86 14
3 17 14 17 61 0 50 2 57 20 57 11 0 29 3 41 6 19 5 20 2 16 -55 -4 -58 -3 -61
18 -61 20 0 22 4 18 65 -3 70 0 75 67 75 30 0 30 0 27 -53 -3 -49 -2 -54 22
-65 26 -11 26 -11 26 31 0 23 5 49 10 57 7 10 10 -6 10 -56 l0 -71 -92 -7
c-50 -3 -119 -6 -154 -6 l-62 0 -4 -57 c-5 -69 -3 -74 18 -45 17 25 56 29 74
7 8 -9 11 -30 7 -55 -4 -30 -2 -40 9 -40 9 0 14 11 14 28 0 19 10 35 37 56
l36 29 -6 -56 -6 -57 38 0 c43 0 71 26 74 71 4 51 17 31 17 -25 l0 -54 -72 -7
c-40 -3 -106 -5 -147 -3 -63 3 -75 6 -77 21 -3 23 -12 33 -21 23 -4 -4 -3 -14
2 -22 6 -9 8 -57 5 -112 -4 -53 -3 -101 2 -106 11 -14 17 10 21 89 l4 70 68 0
69 0 3 -55 c1 -30 5 -70 7 -87 l5 -33 -88 0 -88 0 -7 -86 c-5 -57 -4 -90 3
-97 8 -8 11 3 11 35 0 59 16 70 35 25 11 -28 19 -34 35 -30 13 3 20 14 20 29
0 23 4 24 59 24 52 0 59 2 65 23 9 35 7 77 -4 77 -7 0 -10 25 -8 68 l3 67 45
0 45 0 3 -57 3 -58 172 0 c95 0 385 -3 645 -7 l472 -6 0 647 c0 720 2 697 -64
695 -17 -1 -290 -41 -606 -89z m342 -887 c3 -142 3 -261 1 -265 -2 -5 -174 -8
-382 -8 l-378 0 -6 83 c-12 148 -8 387 6 392 9 3 544 42 733 54 21 1 21 -2 26
-256z m-966 -9 c-4 -9 -9 -15 -11 -12 -3 3 -3 13 1 22 4 9 9 15 11 12 3 -3 3
-13 -1 -22z m-29 -40 c-3 -3 -12 -4 -19 -1 -8 3 -5 6 6 6 11 1 17 -2 13 -5z"></path>
<path d="M6055 2801 l-330 -26 -3 -107 -3 -108 26 0 c18 0 25 5 25 19 0 26 23
44 38 29 7 -7 12 -20 12 -31 0 -12 6 -17 18 -15 19 4 19 4 21 82 1 49 4 55 24
58 15 2 23 11 25 29 l3 26 142 10 c78 6 145 8 150 6 4 -2 7 -47 7 -99 0 -85 2
-94 19 -94 10 0 23 6 29 13 11 13 10 125 -1 144 -8 13 1 43 13 43 14 0 31 -28
21 -34 -5 -4 -10 -38 -10 -77 0 -55 3 -71 16 -76 34 -13 48 11 46 76 0 34 -4
65 -7 68 -14 14 -5 43 13 43 22 0 34 -23 20 -37 -6 -6 -9 -41 -7 -79 l3 -69
33 -3 32 -3 0 120 c0 119 0 121 -22 120 -13 -1 -171 -13 -353 -28z"></path>
<path d="M6040 2540 c-173 -10 -316 -18 -317 -19 -2 0 -3 -53 -3 -116 l0 -115
49 0 48 0 5 80 c3 45 9 85 14 90 5 4 92 10 194 12 179 3 185 2 185 -17 0 -18
6 -20 48 -17 l47 4 0 -71 0 -71 60 0 60 0 0 130 0 130 -37 -1 c-21 -1 -180
-10 -353 -19z"></path>
<path d="M5862 2273 l-143 -4 3 -117 3 -117 44 -3 c43 -3 43 -3 27 20 -25 35
-20 92 12 137 15 22 30 40 33 41 4 0 19 -19 35 -41 30 -44 38 -109 15 -132
-18 -18 -12 -37 12 -37 33 0 36 6 24 51 -8 33 -6 52 9 100 10 32 23 59 29 59
6 0 19 -27 29 -59 15 -48 17 -67 8 -100 -5 -23 -6 -44 -1 -46 4 -3 51 -5 104
-4 71 2 95 6 95 15 0 8 -11 16 -25 20 -14 3 -25 11 -25 18 0 6 -9 17 -20 24
-30 19 -23 44 17 56 17 5 31 -2 62 -32 44 -42 50 -59 26 -68 -24 -10 -18 -36
8 -32 19 3 22 10 25 56 3 51 22 75 22 27 0 -14 5 -25 10 -25 6 0 10 9 10 19 0
19 17 38 26 29 4 -5 12 -59 13 -90 1 -14 10 -18 41 -18 l40 0 0 130 0 130
-212 -2 c-117 -1 -277 -4 -356 -5z"></path>
<path d="M5722 1893 l3 -118 61 -3 61 -3 6 38 c7 40 -4 55 -38 50 -15 -1 -21
5 -23 26 -4 30 21 67 43 67 7 0 15 10 18 22 6 20 7 20 31 4 15 -9 26 -14 26
-11 0 3 9 1 21 -5 11 -7 18 -17 16 -25 -7 -16 20 -56 36 -54 34 4 37 -1 31
-43 -4 -24 -11 -48 -15 -54 -14 -18 1 -24 57 -24 37 0 54 4 58 15 3 8 14 15
25 15 13 0 18 5 15 14 -4 9 7 15 38 19 53 7 144 -11 130 -25 -18 -18 24 -48
68 -48 l40 0 0 123 0 124 -217 6 c-120 4 -280 7 -356 7 l-138 0 3 -117z"></path>
<path d="M5885 1841 c-3 -5 -1 -12 5 -16 5 -3 10 -17 10 -31 0 -21 5 -24 35
-24 33 0 35 2 25 20 -6 12 -8 30 -5 40 5 17 2 20 -29 20 -19 0 -37 -4 -41 -9z"></path>
</g>
</svg>