 <svg version="1.0" xmlns="http://www.w3.org/2000/svg" viewBox="0 0 700.000000 423.000000" preserveAspectRatio="xMidYMid meet" id="mask">
<g transform="translate(0.000000,423.000000) scale(0.100000,-0.100000)">
<path d="M670 3682 c-140 -65 -348 -160 -462 -212 l-208 -95 0 -57 c0 -32 3
-58 6 -58 3 0 221 90 484 200 264 110 487 200 495 200 9 0 77 -18 153 -39 143
-42 1177 -334 1840 -521 l383 -109 482 70 c608 87 547 75 547 104 0 14 7 26
18 29 9 3 291 46 626 97 503 76 610 89 617 78 5 -8 14 -21 19 -29 7 -13 95 -3
669 79 l661 95 0 54 c0 51 -1 54 -22 49 -13 -3 -295 -47 -627 -98 -650 -99
-603 -96 -636 -45 -9 14 -66 6 -495 -64 -267 -43 -577 -94 -690 -111 -113 -18
-207 -34 -209 -36 -2 -1 4 -12 14 -23 10 -11 16 -22 13 -25 -2 -3 -224 -39
-492 -80 l-487 -75 -1212 370 c-667 204 -1217 370 -1222 370 -6 0 -125 -53
-265 -118z"></path>
<path d="M6050 2885 c-201 -19 -366 -34 -367 -34 -2 -1 -4 -182 -5 -403 l-3
-403 -795 2 -795 2 0 93 0 93 153 3 c205 3 202 22 -3 22 l-155 0 0 89 c0 104
-5 101 131 101 111 0 181 10 176 24 -4 11 -78 11 -230 0 l-78 -6 3 88 3 89
145 12 c80 6 148 12 153 12 4 1 7 17 7 37 l0 35 -52 -5 c-29 -3 -107 -10 -173
-16 -66 -6 -139 -13 -162 -16 l-43 -5 0 -644 c0 -354 -4 -646 -9 -649 -4 -3
-56 0 -115 7 -59 7 -109 11 -111 8 -3 -2 -5 -17 -5 -32 0 -31 0 -31 179 -50
103 -11 115 -10 126 5 15 20 25 21 25 1 0 -9 9 -15 25 -15 16 0 25 6 25 15 0
8 7 15 15 15 8 0 15 -7 15 -15 0 -16 46 -39 60 -30 4 2 1 24 -8 48 -15 41 -14
46 6 88 38 77 101 97 177 56 56 -31 83 -83 69 -134 -6 -21 -13 -45 -15 -53 -3
-10 8 -16 41 -21 25 -3 48 -5 52 -3 4 3 7 115 7 251 1 136 3 249 6 251 5 5
745 -24 893 -34 l82 -6 0 -309 c0 -288 -1 -309 -17 -309 -28 0 -296 29 -423
45 -160 21 -160 21 -160 -15 0 -25 4 -30 33 -35 33 -5 739 -95 749 -95 4 0 19
21 35 46 l28 46 66 -7 c61 -5 66 -4 77 17 6 13 12 69 14 125 2 57 8 107 14
113 8 8 63 6 188 -4 210 -19 266 -20 266 -5 0 6 29 41 65 78 58 61 65 72 65
108 0 35 -3 42 -25 47 -23 6 -24 9 -14 28 30 56 39 222 39 756 l0 532 -42 -1
c-24 -1 -207 -16 -408 -34z m378 -174 c2 -84 -1 -112 -10 -116 -14 -4 -584
-35 -655 -35 l-43 0 0 105 c0 58 3 105 8 106 88 9 680 56 687 54 6 -1 11 -49
13 -114z m0 -283 l-3 -123 -340 -7 c-187 -4 -346 -5 -352 -3 -9 3 -13 35 -13
115 0 81 3 110 13 111 86 7 499 26 585 28 l113 1 -3 -122z m-3 -278 l0 -125
-345 4 c-240 2 -347 7 -353 15 -4 6 -6 58 -5 116 l3 105 225 5 c124 3 281 6
350 5 l125 0 0 -125z m-2095 -134 c6 -8 24 -16 38 -18 27 -3 27 -4 27 -83 l0
-80 -140 -2 c-77 -1 -147 3 -157 8 -15 8 -18 23 -18 93 0 45 3 86 7 89 3 4 57
7 118 7 86 0 115 -3 125 -14z m2088 -22 c10 -3 12 -32 10 -121 l-3 -118 -60
-8 c-36 -5 -110 -3 -185 4 -69 7 -172 13 -230 14 -58 1 -133 6 -167 10 l-63 8
0 107 c0 59 3 109 6 113 7 6 670 -2 692 -9z m-2320 -535 c2 -18 -3 -29 -14
-33 -24 -9 -42 10 -36 40 6 35 46 30 50 -7z"></path>
<path d="M1912 2859 l3 -44 80 -12 c44 -7 110 -18 148 -24 l67 -11 0 -113 c0
-63 -3 -116 -7 -118 -7 -4 -44 -1 -220 18 l-53 5 0 -49 0 -49 78 -6 c42 -4
102 -10 132 -14 l55 -7 0 -195 0 -195 -45 -2 c-163 -9 -210 -15 -210 -29 0
-11 26 -14 140 -14 l140 0 0 -156 c0 -139 2 -155 16 -150 9 3 27 9 40 12 23 6
24 8 26 153 l3 146 175 0 175 0 3 -127 3 -128 29 0 29 0 3 133 3 132 133 5
c180 7 177 24 -5 28 l-142 3 2 172 2 172 90 -5 c50 -2 113 -4 140 -5 48 0 50
1 53 29 2 16 0 32 -5 36 -4 4 -37 11 -73 14 -140 12 -195 18 -202 22 -3 2 -6
49 -6 105 l-1 101 42 -7 c81 -13 230 -35 239 -35 17 0 8 59 -9 64 -10 3 -164
30 -343 61 -592 101 -675 115 -703 121 -28 6 -28 5 -25 -37z m518 -124 c54 -7
172 -25 197 -31 21 -4 22 -9 22 -104 0 -55 -4 -102 -9 -105 -6 -3 -54 -1 -107
5 -54 6 -127 14 -163 16 -36 3 -70 7 -77 9 -9 3 -12 34 -12 102 0 135 -1 132
62 121 28 -4 68 -10 87 -13z m75 -319 l130 -11 2 -176 2 -176 -102 -5 c-56 -3
-136 -5 -177 -4 l-75 1 -2 180 c-2 99 -1 186 2 193 5 14 41 14 220 -2z"></path>
<path d="M2400 2675 c0 -32 -2 -35 -30 -35 -38 0 -40 -18 -2 -22 23 -3 27 -8
30 -40 4 -48 22 -50 22 -3 0 33 2 35 35 35 44 0 46 18 3 22 -30 3 -33 6 -36
41 -4 47 -22 49 -22 2z"></path>
<path d="M2520 2610 c0 -82 14 -109 22 -42 6 48 -2 122 -13 122 -5 0 -9 -36
-9 -80z"></path>
<path d="M2580 2600 c0 -5 9 -10 20 -10 11 0 20 5 20 10 0 6 -9 10 -20 10 -11
0 -20 -4 -20 -10z"></path>
<path d="M2390 2235 c0 -8 7 -15 15 -15 8 0 15 7 15 15 0 8 -7 15 -15 15 -8 0
-15 -7 -15 -15z"></path>
<path d="M2478 2243 c-21 -2 -38 -8 -38 -12 0 -11 75 -19 123 -13 40 5 52 22
15 22 -13 0 -32 2 -43 4 -11 2 -37 1 -57 -1z"></path>
<path d="M2050 2732 c0 -21 -5 -43 -12 -50 -9 -9 -9 -15 0 -24 7 -7 12 -29 12
-50 0 -21 4 -38 9 -38 11 0 18 79 13 148 -5 60 -22 71 -22 14z"></path>
<path d="M218 2677 l-218 -41 0 -728 c0 -400 2 -728 4 -728 1 0 16 5 32 10 25
9 54 2 193 -45 90 -30 168 -52 172 -49 13 7 11 184 -1 184 -7 0 -10 210 -10
609 l0 609 29 7 c28 6 29 7 36 97 4 50 9 97 12 104 7 19 0 18 -249 -29z m50
-779 c2 -547 1 -588 -15 -588 -9 0 -43 7 -75 16 l-58 17 0 563 0 564 23 5 c35
7 80 12 102 11 20 -1 20 -9 23 -588z m-188 -92 c0 -3 -4 -8 -10 -11 -5 -3 -10
-1 -10 4 0 6 5 11 10 11 6 0 10 -2 10 -4z"></path>
<path d="M1935 2680 c3 -5 19 -10 36 -10 16 0 29 5 29 10 0 6 -16 10 -36 10
-21 0 -33 -4 -29 -10z"></path>
<path d="M2110 2660 c0 -5 11 -10 25 -10 14 0 25 5 25 10 0 6 -11 10 -25 10
-14 0 -25 -4 -25 -10z"></path>
<path d="M2750 2580 c0 -5 9 -10 20 -10 11 0 20 5 20 10 0 6 -9 10 -20 10 -11
0 -20 -4 -20 -10z"></path>
<path d="M2800 2575 c0 -8 7 -15 15 -15 8 0 15 7 15 15 0 8 -7 15 -15 15 -8 0
-15 -7 -15 -15z"></path>
<path d="M2840 2570 c0 -5 7 -10 15 -10 8 0 15 5 15 10 0 6 -7 10 -15 10 -8 0
-15 -4 -15 -10z"></path>
<path d="M2900 2566 c0 -17 27 -29 35 -16 4 6 3 15 0 20 -9 15 -35 12 -35 -4z"></path>
<path d="M2800 2300 c0 -27 5 -50 10 -50 6 0 10 23 10 50 0 28 -4 50 -10 50
-5 0 -10 -22 -10 -50z"></path>
<path d="M2900 2289 l0 -62 -55 6 c-44 4 -55 3 -55 -9 0 -15 5 -17 68 -14 l42
2 0 -66 c0 -84 18 -87 22 -3 3 62 3 62 36 65 17 2 32 7 32 12 0 5 -15 10 -32
12 -33 3 -33 4 -36 61 -4 76 -22 73 -22 -4z"></path>
<path d="M2040 2245 c0 -8 7 -15 15 -15 8 0 15 7 15 15 0 8 -7 15 -15 15 -8 0
-15 -7 -15 -15z"></path>
<path d="M2090 2240 c0 -5 20 -10 45 -10 25 0 45 5 45 10 0 6 -20 10 -45 10
-25 0 -45 -4 -45 -10z"></path>
<path d="M2750 2220 c0 -5 7 -10 15 -10 8 0 15 5 15 10 0 6 -7 10 -15 10 -8 0
-15 -4 -15 -10z"></path>
<path d="M2800 2140 c0 -27 5 -50 10 -50 6 0 10 23 10 50 0 28 -4 50 -10 50
-5 0 -10 -22 -10 -50z"></path>
<path d="M1957 1584 c-10 -11 -9 -74 2 -74 14 0 26 23 26 49 0 24 -15 37 -28
25z"></path>
<path d="M2090 1561 c0 -32 22 -56 45 -47 9 3 15 18 15 41 0 32 -2 35 -30 35
-26 0 -30 -3 -30 -29z"></path>
<path d="M4289 1438 c0 -2 -3 -16 -5 -31 -4 -25 -2 -28 18 -25 29 4 33 51 6
56 -10 2 -18 2 -19 0z"></path>
<path d="M4360 1377 c-12 -25 -22 -33 -48 -35 -19 -2 -44 4 -58 13 -13 8 -24
11 -24 6 0 -16 43 -41 70 -41 30 0 76 36 85 68 10 33 -8 26 -25 -11z"></path>
<path d="M645 1062 c-10 -11 -4 -90 8 -99 12 -10 164 -63 180 -63 4 0 7 24 7
53 l0 53 -95 30 c-52 17 -97 29 -100 26z"></path>
</g>
</svg>