 <svg version="1.0" xmlns="http://www.w3.org/2000/svg" id="mask" viewBox="0 0 700.000000 423.000000" preserveAspectRatio="xMidYMid meet">

<g transform="translate(0.000000,423.000000) scale(0.100000,-0.100000)">
<path d="M6120 3949 c-124 -10 -504 -39 -845 -64 -341 -25 -998 -75 -1460
-110 -462 -36 -1181 -90 -1599 -120 -417 -30 -760 -56 -763 -58 -4 -4 18
-1529 22 -1534 1 -2 39 2 84 9 96 13 97 14 131 149 23 89 30 214 17 288 l-8
43 28 -6 c15 -3 62 -9 104 -12 l77 -7 7 167 c4 92 5 187 2 212 l-5 44 39 0
c28 0 39 -4 39 -15 0 -13 33 -15 237 -15 254 0 980 16 1201 26 103 5 132 9
128 19 -6 16 23 24 58 18 20 -4 25 -10 21 -27 -2 -11 -7 -219 -10 -461 l-6
-440 37 -25 c20 -13 43 -34 51 -47 20 -30 28 -29 117 11 l76 35 0 90 0 91 40
0 c35 0 40 3 40 23 0 44 49 121 114 179 42 38 67 68 71 88 4 17 13 30 21 30 9
0 13 4 10 8 -3 5 -73 12 -156 15 -83 3 -154 8 -158 11 -4 2 -6 103 -4 224 l3
221 47 8 c64 10 448 10 545 0 l77 -9 0 -235 0 -235 -150 3 c-82 2 -150 1 -150
-3 0 -5 5 -8 10 -8 6 0 10 -10 10 -22 0 -14 27 -47 81 -98 74 -70 82 -80 98
-140 l18 -65 109 -6 c60 -4 112 -7 117 -8 4 0 7 -158 7 -350 l0 -348 214 -13
c194 -12 216 -11 231 3 9 9 23 13 32 10 11 -4 14 -3 9 5 -4 8 0 12 11 12 11 0
28 7 39 15 19 14 19 15 -3 21 -37 10 -27 27 11 21 28 -4 34 -3 29 9 -3 8 1 14
10 14 8 0 17 6 20 13 3 9 7 9 18 1 12 -10 129 -15 129 -6 0 1 -11 7 -25 12
-42 16 -28 28 29 25 62 -4 70 5 60 64 -3 20 -2 31 3 26 10 -14 83 -36 83 -25
0 4 -14 13 -30 20 -49 20 -49 34 -1 27 l43 -5 -23 24 c-26 28 -20 41 11 24 20
-11 21 -10 11 9 -16 28 -14 33 10 26 18 -6 20 -4 14 14 -4 15 -2 21 8 21 8 0
18 7 21 16 8 22 26 7 26 -22 0 -28 7 -29 34 -9 26 19 40 19 32 -1 -4 -10 -2
-13 6 -8 7 5 9 0 6 -14 -4 -16 -2 -19 10 -14 12 4 10 -3 -7 -29 -14 -21 -7
-16 21 16 69 81 108 118 115 111 4 -3 -7 -21 -24 -39 -36 -38 -52 -107 -25
-108 14 0 13 -3 -5 -16 -28 -19 -29 -33 -4 -33 11 0 28 -3 38 -7 15 -6 13 -8
-11 -13 -41 -7 -45 -29 -7 -36 34 -7 42 -24 12 -24 -31 0 -55 -12 -41 -20 10
-6 48 3 135 32 36 13 139 10 143 -3 2 -5 15 -6 29 -3 18 5 24 3 19 -4 -4 -6 3
-16 15 -22 25 -14 19 -22 -29 -35 -21 -6 -37 -17 -37 -25 0 -8 -11 -24 -24
-35 l-23 -21 41 4 c54 5 52 -11 -3 -32 -24 -9 -52 -26 -62 -38 l-19 -22 30 21
c41 27 89 43 115 36 16 -4 18 -8 9 -19 -9 -11 -6 -14 19 -14 17 0 34 -5 37
-10 4 -6 15 -8 26 -5 13 4 19 2 19 -8 0 -11 25 -16 111 -21 61 -4 114 -4 118
-1 9 9 14 1155 5 1155 -4 0 -17 -9 -29 -20 -35 -33 -57 -17 -53 39 2 38 7 47
24 49 11 2 27 -4 34 -13 7 -8 16 -15 21 -15 5 0 9 303 9 695 l0 695 -87 -1
c-49 -1 -189 -10 -313 -20z m162 -160 c4 -78 10 -114 19 -120 12 -8 11 -12 -4
-23 -16 -12 -17 -58 -15 -757 l3 -744 33 -3 c18 -2 36 -10 39 -18 8 -20 -15
-44 -43 -44 -19 0 -24 -5 -24 -24 0 -14 -4 -28 -10 -31 -5 -3 -10 -17 -10 -30
0 -13 -4 -26 -9 -29 -9 -6 -1084 28 -1320 41 -146 9 -145 8 -156 75 -4 27 -13
41 -33 50 -15 7 -28 21 -30 31 -3 14 4 17 37 17 l40 0 -5 248 c-2 136 -6 449
-8 696 -3 254 -9 452 -14 455 -5 3 -12 54 -14 114 -6 104 -5 107 16 108 11 0
334 22 716 48 382 27 716 49 741 50 l46 1 5 -111z"></path>
<path d="M2490 2908 c-261 -4 -481 -10 -487 -13 -8 -2 -13 -23 -13 -50 l0 -45
378 0 c208 0 562 3 785 7 l407 6 0 54 0 53 -297 -2 c-164 0 -512 -5 -773 -10z"></path>
<path d="M2578 2773 c-26 -6 -24 -59 1 -66 11 -2 21 -15 23 -28 5 -37 41 -37
55 1 6 16 18 30 27 30 12 0 16 10 16 35 l0 35 -52 -1 c-29 -1 -61 -3 -70 -6z"></path>
<path d="M2738 2773 c-26 -7 -24 -59 2 -66 14 -3 20 -14 20 -31 0 -22 4 -26
30 -26 25 0 30 4 30 24 0 18 6 25 23 28 18 2 22 9 22 38 l0 35 -55 2 c-30 0
-63 -1 -72 -4z"></path>
<path d="M2890 2741 c0 -30 4 -40 20 -44 12 -3 20 -14 20 -26 0 -17 6 -21 30
-21 25 0 30 4 30 25 0 18 5 25 20 25 17 0 20 7 20 40 l0 40 -70 0 -70 0 0 -39z"></path>
<path d="M3050 2740 c0 -36 3 -40 25 -40 20 0 25 -5 25 -25 0 -22 4 -25 35
-25 l35 0 0 65 0 65 -60 0 -60 0 0 -40z"></path>
<path d="M3188 2656 c-1 -70 -2 -134 -2 -143 -1 -14 10 -19 49 -25 27 -4 50
-6 51 -5 1 1 3 67 5 147 l4 145 -52 3 -53 3 -2 -125z"></path>
<path d="M3320 2651 c0 -71 -3 -136 -6 -145 -5 -13 2 -16 37 -16 24 0 49 4 56
8 7 4 14 59 18 145 l8 137 -57 0 -56 0 0 -129z"></path>
<path d="M3448 2648 c-2 -73 -3 -134 -3 -135 1 -1 25 0 53 4 l52 6 0 128 0
129 -49 0 -49 0 -4 -132z"></path>
<path d="M1990 2685 c0 -47 3 -85 8 -85 4 0 17 -3 30 -6 22 -6 22 -5 22 85 l0
91 -30 0 -30 0 0 -85z"></path>
<path d="M2076 2709 c-11 -113 -9 -127 23 -144 54 -27 61 -15 61 101 l0 104
-39 0 -38 0 -7 -61z"></path>
<path d="M2180 2669 l0 -101 37 7 c21 4 41 9 45 11 5 3 8 45 8 95 l0 89 -45 0
-45 0 0 -101z"></path>
<path d="M2290 2710 c0 -57 1 -60 25 -60 18 0 25 5 25 20 0 12 9 24 22 29 15
5 21 16 22 39 1 32 0 32 -46 32 l-48 0 0 -60z"></path>
<path d="M2406 2754 c-12 -32 -6 -54 14 -54 11 0 21 -4 21 -10 1 -5 2 -15 3
-22 0 -7 12 -12 26 -12 19 -1 26 5 28 23 2 13 12 26 23 28 13 4 19 14 19 34 0
29 0 29 -64 29 -49 0 -65 -4 -70 -16z"></path>
<path d="M2447 2633 c-4 -3 -7 -15 -7 -25 0 -11 -7 -18 -20 -18 -13 0 -20 -7
-20 -20 0 -22 7 -23 88 -14 53 7 68 22 32 31 -13 3 -20 14 -20 29 0 18 -5 24
-23 24 -13 0 -27 -3 -30 -7z"></path>
<path d="M2290 2595 c0 -38 20 -55 64 -55 21 0 26 5 26 24 0 15 -7 26 -20 29
-11 3 -20 12 -20 21 0 10 -9 16 -25 16 -22 0 -25 -4 -25 -35z"></path>
<path d="M2600 2611 c0 -10 -9 -21 -20 -24 -11 -3 -20 -14 -20 -25 0 -19 0
-19 40 0 45 23 70 18 70 -12 0 -11 7 -20 15 -20 26 0 18 45 -10 58 -14 6 -25
18 -25 27 0 9 -9 15 -25 15 -18 0 -25 -5 -25 -19z"></path>
<path d="M2760 2615 c0 -9 -11 -20 -24 -25 -18 -7 -22 -14 -19 -34 6 -29 45
-46 104 -46 38 0 39 1 39 34 0 25 -5 35 -20 39 -12 3 -20 14 -20 26 0 17 -6
21 -30 21 -20 0 -30 -5 -30 -15z"></path>
<path d="M2928 2608 c-2 -15 -11 -24 -25 -26 -19 -3 -23 -10 -23 -38 0 -27 4
-34 19 -34 11 0 23 -4 26 -10 8 -14 46 -13 78 3 34 15 39 71 7 80 -12 3 -20
14 -20 26 0 17 -6 21 -29 21 -23 0 -30 -5 -33 -22z"></path>
<path d="M3098 2608 c-2 -15 -11 -24 -25 -26 -18 -3 -23 -10 -23 -35 0 -26 6
-35 29 -45 16 -7 41 -10 55 -6 25 6 26 10 26 70 l0 64 -29 0 c-23 0 -30 -5
-33 -22z"></path>
<path d="M3930 2145 c0 -38 19 -48 27 -15 3 11 9 20 14 20 5 0 9 7 9 15 0 9
-9 15 -25 15 -22 0 -25 -4 -25 -35z"></path>
<path d="M4478 2153 c6 -2 12 -15 12 -28 0 -31 16 -41 23 -14 3 11 15 23 26
26 38 10 22 23 -26 22 -27 0 -42 -3 -35 -6z"></path>
<path d="M4580 2151 c0 -5 10 -11 23 -13 14 -2 23 -11 25 -25 6 -38 32 -28 32
12 0 34 -1 35 -40 35 -22 0 -40 -4 -40 -9z"></path>
<path d="M3930 2081 c0 -5 4 -21 10 -35 7 -20 16 -26 40 -26 35 0 41 17 8 22
-15 2 -24 11 -26 26 -3 21 -32 33 -32 13z"></path>
<path d="M4501 2043 c-1 -18 2 -33 7 -33 4 0 17 -3 30 -6 13 -4 22 -2 22 5 0
6 -8 11 -18 11 -10 0 -23 12 -29 28 l-11 27 -1 -32z"></path>
<path d="M4637 2063 c-4 -3 -7 -15 -7 -25 0 -11 -7 -18 -20 -18 -11 0 -20 -4
-20 -10 0 -5 16 -10 35 -10 33 0 35 2 35 35 0 33 -8 43 -23 28z"></path>
<path d="M4618 1876 l-38 -33 0 -134 c0 -74 3 -151 6 -171 6 -35 9 -38 40 -38
l34 0 0 205 c0 113 -1 205 -2 205 -2 -1 -20 -16 -40 -34z"></path>
<path d="M3753 1859 c33 -130 47 -202 47 -246 l0 -53 50 0 50 0 0 155 0 155
-37 0 c-21 0 -56 3 -77 7 -37 6 -39 5 -33 -18z"></path>
<path d="M3942 1713 l3 -158 33 -3 33 -3 -3 158 -3 158 -33 3 -33 3 3 -158z"></path>
<path d="M4027 1753 c-12 -182 -10 -200 16 -207 12 -3 39 -6 60 -6 l37 0 0
160 0 160 -53 0 -54 0 -6 -107z"></path>
<path d="M4160 1700 c0 -100 4 -160 10 -160 6 0 10 60 10 160 0 100 -4 160
-10 160 -6 0 -10 -60 -10 -160z"></path>
<path d="M4199 1843 c-1 -5 -2 -77 -3 -160 l-1 -153 49 0 49 0 -7 61 c-3 34
-6 106 -6 160 l0 99 -40 0 c-22 0 -41 -3 -41 -7z"></path>
<path d="M4302 1688 l3 -163 63 -3 62 -3 0 98 c0 54 -3 128 -7 166 l-6 67 -59
0 -58 0 2 -162z"></path>
<path d="M4440 1741 c0 -59 3 -136 6 -170 l7 -61 43 0 44 0 0 164 0 163 -37 7
c-66 10 -63 15 -63 -103z"></path>
<path d="M5540 1682 c0 -6 9 -12 20 -15 11 -3 20 -3 20 -1 0 2 -9 8 -20 14
-11 6 -20 7 -20 2z"></path>
<path d="M5465 1570 c3 -5 11 -10 16 -10 6 0 7 5 4 10 -3 6 -11 10 -16 10 -6
0 -7 -4 -4 -10z"></path>
</g>
</svg>