 <svg version="1.0" xmlns="http://www.w3.org/2000/svg" id="mask" viewBox="0 0 700.000000 423.000000" preserveAspectRatio="xMidYMid meet">

<g transform="translate(0.000000,423.000000) scale(0.100000,-0.100000)">
<path d="M3686 2784 c-3 -9 -6 -112 -6 -230 l0 -214 58 0 59 0 5 198 c3 108 4
212 1 230 -5 31 -6 32 -58 32 -39 0 -54 -4 -59 -16z"></path>
<path d="M3248 2783 l-28 -4 0 -225 0 -224 60 0 60 0 0 230 0 230 -32 -1 c-18
-1 -45 -4 -60 -6z"></path>
<path d="M2780 2545 l0 -225 60 0 60 0 0 225 0 225 -60 0 -60 0 0 -225z"></path>
<path d="M1958 2753 l-38 -4 0 -226 0 -226 52 7 c29 4 55 9 57 12 3 2 7 103 9
224 l5 220 -24 -2 c-13 -1 -41 -3 -61 -5z"></path>
<path d="M2320 2529 l0 -231 31 6 c17 3 44 6 60 6 l29 0 0 225 0 225 -60 0
-60 0 0 -231z"></path>
<path d="M1513 2743 l-43 -4 0 -158 c0 -87 -3 -186 -6 -220 l-7 -61 60 0 61 0
7 183 c4 100 5 200 3 222 -3 43 -5 44 -75 38z"></path>
<path d="M2368 1812 l-58 -3 0 -204 c0 -125 4 -206 10 -210 6 -3 10 -17 10
-31 0 -13 5 -24 10 -24 6 0 10 -11 10 -25 0 -22 4 -25 38 -25 l39 0 6 258 c3
141 3 259 -1 262 -4 3 -33 4 -64 2z"></path>
<path d="M2810 1560 c0 -249 1 -260 19 -260 15 0 21 10 26 39 4 22 13 45 21
52 11 9 14 47 14 183 0 94 -3 188 -6 209 -6 34 -9 37 -40 37 l-34 0 0 -260z"></path>
<path d="M1440 1552 c0 -142 2 -261 4 -263 2 -2 29 -2 60 -1 l56 4 -2 256 -3
257 -57 3 -58 3 0 -259z"></path>
<path d="M1930 1550 l0 -260 55 0 c30 0 55 1 55 3 0 1 3 118 7 260 l6 257 -61
0 -62 0 0 -260z"></path>
<path d="M3360 1600 c0 -156 2 -188 14 -184 10 4 13 -6 10 -48 -4 -70 -6 -71
-14 -18 -5 28 -7 -5 -6 -90 l1 -135 148 -3 147 -3 2 258 c1 142 2 293 3 336
l1 77 -153 0 -153 0 0 -190z m30 -151 c0 -5 -4 -9 -10 -9 -5 0 -10 7 -10 16 0
8 5 12 10 9 6 -3 10 -10 10 -16z"></path>
</g>
</svg>