 <svg version="1.0" xmlns="http://www.w3.org/2000/svg" viewBox="0 0 700.000000 423.000000" preserveAspectRatio="xMidYMid meet" id="mask">

<g transform="translate(0.000000,423.000000) scale(0.100000,-0.100000)">
<path d="M4103 2014 l-3 -437 219 8 c147 4 257 3 337 -5 115 -12 254 -44 311
-73 18 -9 80 -17 166 -21 140 -7 198 -16 387 -61 58 -13 137 -31 175 -40 117
-25 248 -96 526 -285 88 -61 170 -110 180 -110 15 0 19 -7 19 -33 0 -50 18
-66 85 -77 33 -5 66 -10 73 -10 16 0 15 47 -4 159 -14 80 -14 95 -2 107 17 17
131 38 301 54 l127 13 0 623 0 624 -1447 0 -1448 0 -2 -436z m562 155 c-6 -27
-6 -27 44 -23 43 4 50 2 45 -11 -5 -11 -2 -14 10 -9 9 3 23 1 31 -6 9 -7 15
-8 15 -2 0 5 9 8 20 5 19 -5 20 -14 20 -154 l0 -149 -37 1 c-21 0 -146 8 -278
17 l-240 17 -6 90 c-4 50 -7 120 -8 158 l-1 67 85 0 c47 0 85 -4 85 -9 0 -5
20 -19 45 -31 25 -12 45 -28 45 -36 0 -8 9 -14 20 -14 11 0 20 -7 20 -15 0 -8
5 -15 10 -15 6 0 10 -23 10 -51 0 -34 6 -58 19 -74 18 -24 18 -24 39 -5 12 11
31 20 42 20 23 0 22 16 -6 75 -13 27 -13 31 3 42 15 12 14 13 -9 13 -31 0 -44
15 -29 33 7 10 1 21 -23 42 -36 31 -32 50 11 50 20 0 23 -4 18 -26z m263 -261
c-2 -13 -7 -23 -13 -23 -5 0 -11 10 -13 23 -2 15 2 22 13 22 11 0 15 -7 13
-22z m82 -8 c0 -5 -4 -10 -10 -10 -5 0 -10 5 -10 10 0 6 5 10 10 10 6 0 10 -4
10 -10z"></path>
<path d="M4690 2090 c0 -5 5 -10 10 -10 6 0 10 5 10 10 0 6 -4 10 -10 10 -5 0
-10 -4 -10 -10z"></path>
</g>
</svg>