 <svg version="1.0" xmlns="http://www.w3.org/2000/svg" viewBox="0 0 700.000000 423.000000" preserveAspectRatio="xMidYMid meet" id="mask">

<g transform="translate(0.000000,423.000000) scale(0.100000,-0.100000)">
<path d="M0 3505 c1 -614 3 -723 15 -719 17 7 55 -30 55 -54 0 -25 -19 -42
-47 -42 l-23 0 0 -928 0 -929 27 4 c16 1 92 12 171 23 79 11 148 20 154 20 7
0 9 180 7 560 l-4 559 22 23 c20 20 27 21 53 11 17 -7 32 -7 36 -2 8 13 58 11
72 -3 9 -9 16 -7 32 7 18 17 21 17 45 1 14 -9 30 -28 35 -42 6 -14 10 -182 10
-390 0 -352 1 -364 19 -364 15 0 19 -6 16 -25 -1 -14 1 -25 6 -25 5 0 6 -7 3
-15 -8 -19 3 -19 22 0 8 8 20 12 27 9 7 -2 17 4 24 14 17 28 -5 68 -35 64 -19
-3 -22 1 -22 28 0 23 5 33 20 37 11 3 20 12 20 19 0 10 13 14 48 13 26 0 41
-3 34 -6 -17 -7 -15 -23 3 -23 8 0 15 -4 15 -10 0 -5 -7 -10 -16 -10 -25 0
-10 -25 17 -28 13 -2 21 -1 17 3 -3 3 0 18 7 32 7 14 11 31 8 39 -5 13 31 12
101 -5 39 -9 50 -36 12 -29 -14 3 -26 1 -26 -4 0 -5 -8 -7 -18 -4 -11 4 -22
-2 -30 -15 -11 -17 -11 -24 1 -37 16 -19 12 -37 -15 -66 -10 -11 -16 -26 -14
-33 3 -7 -3 -17 -12 -22 -13 -7 -14 -13 -6 -21 15 -15 43 -6 72 21 27 24 20
44 -9 28 -34 -18 -35 0 -2 31 17 16 34 26 37 23 3 -4 6 1 6 10 0 12 9 17 30
17 17 0 30 -4 30 -10 0 -5 7 -10 15 -10 8 0 15 -4 15 -10 0 -5 11 -10 24 -10
13 0 30 -10 39 -22 l16 -23 -6 22 c-3 15 -1 23 7 23 14 0 60 46 60 61 0 22 18
6 35 -31 10 -23 26 -45 34 -50 15 -9 15 -11 0 -22 -9 -7 -14 -19 -12 -25 5
-15 -13 -18 -21 -4 -6 9 -49 7 -67 -5 -8 -4 -9 -3 -5 4 5 8 -1 13 -16 14 -115
9 -134 3 -102 -33 10 -11 12 -19 6 -19 -7 0 -12 -7 -12 -16 0 -14 2 -15 17 -3
11 9 9 3 -5 -15 -12 -16 -22 -39 -22 -53 0 -21 2 -22 21 -12 12 6 19 7 15 1
-9 -15 18 -63 34 -59 8 1 15 11 15 22 0 13 6 19 17 17 9 -1 19 2 23 8 10 16
25 12 25 -6 0 -11 6 -15 18 -12 12 4 23 -4 34 -22 l16 -28 -51 2 -50 3 34 -16
c28 -13 33 -21 31 -43 -3 -22 2 -29 23 -34 14 -3 29 -4 32 -1 3 4 6 48 7 99
l1 93 28 3 c20 3 27 9 27 25 0 18 -2 19 -10 7 -8 -12 -10 -11 -10 7 0 25 43
63 71 63 17 0 19 9 19 94 0 80 3 95 17 101 10 3 71 9 136 12 l119 6 -6 33 c-7
34 -7 150 -2 444 2 96 4 206 5 243 1 52 5 69 17 74 20 8 36 -15 29 -43 -6 -25
22 -56 29 -33 13 40 14 42 15 16 1 -35 -23 -45 -51 -21 -20 18 -21 18 -15 1 4
-9 9 -84 12 -165 3 -81 10 -191 16 -244 6 -62 7 -104 0 -115 -5 -10 -11 -70
-12 -133 -3 -97 0 -123 16 -163 17 -41 23 -47 42 -42 13 3 39 -1 58 -10 l36
-14 -1 532 c-1 293 -1 574 -1 625 l1 92 1008 -2 1007 -3 -4 -357 -3 -357 50
-51 c41 -41 59 -52 102 -60 29 -6 54 -10 56 -10 2 0 4 196 4 435 l0 435 44 0
c33 0 52 6 70 23 l25 23 -385 434 c-211 239 -556 629 -767 867 l-382 431 -384
1 -383 1 6 -27 c4 -19 3 -23 -2 -14 -8 11 -10 11 -15 0 -4 -8 -4 -2 -1 14 l6
27 -177 0 -177 0 4 -39 c2 -28 0 -37 -9 -34 -7 3 -13 20 -13 39 l0 34 -780 0
-780 0 0 -725z m1946 613 c0 -28 -3 -43 -8 -36 -5 9 -8 6 -8 -10 0 -13 3 -21
8 -19 4 3 7 -18 8 -46 0 -29 -1 -46 -4 -39 -2 7 -7 10 -10 8 -4 -2 -7 40 -7
93 0 59 4 98 10 98 5 0 10 -22 11 -49z m-359 -14 c2 -5 -5 -10 -16 -10 -11 0
-17 5 -14 14 6 14 25 12 30 -4z m-7 -68 c0 -19 -4 -38 -10 -41 -6 -4 -9 10 -8
34 2 50 18 55 18 7z m25 -107 c4 -13 1 -27 -10 -39 -12 -13 -15 -30 -12 -62 3
-29 0 -47 -10 -56 -12 -12 -13 -10 -7 12 8 33 -16 35 -64 6 -44 -27 -72 -76
-72 -128 0 -69 37 -139 54 -99 2 6 4 1 3 -12 -3 -36 44 -66 104 -66 43 0 53 4
85 36 23 24 41 54 50 85 9 37 13 42 13 21 1 -15 -9 -47 -21 -70 -12 -23 -22
-46 -23 -51 0 -5 -9 -10 -19 -12 -26 -4 -36 -22 -36 -66 0 -21 -4 -38 -9 -38
-5 0 -7 18 -4 40 l6 40 -36 0 c-19 0 -43 3 -52 7 -15 5 -17 0 -14 -40 5 -64
-7 -60 -15 5 -4 30 -14 57 -24 64 -15 11 -18 9 -23 -19 l-6 -32 -2 38 c0 21
-10 55 -21 77 -52 102 -2 226 99 246 26 5 31 11 31 34 0 15 -7 33 -15 40 -18
15 -20 51 -3 68 15 15 44 -1 53 -29z m340 -18 c1 -22 -3 -37 -7 -35 -4 3 -8
-4 -8 -16 0 -12 4 -19 8 -16 4 2 8 -13 7 -35 0 -21 -3 -39 -7 -39 -5 0 -8 -9
-8 -21 0 -11 3 -18 8 -15 4 2 7 -13 7 -34 0 -21 -3 -36 -7 -34 -5 3 -8 -4 -8
-16 0 -12 3 -19 8 -17 4 3 7 -14 7 -38 0 -24 -3 -41 -7 -38 -5 2 -8 -5 -8 -17
0 -12 3 -19 8 -16 4 2 7 -13 7 -35 0 -21 -3 -39 -7 -39 -5 0 -8 -7 -8 -15 0
-8 3 -15 8 -15 4 0 7 -18 7 -39 1 -22 -3 -37 -7 -35 -4 3 -8 -4 -8 -15 0 -12
4 -21 9 -21 5 0 7 -9 4 -19 -3 -10 0 -28 6 -40 10 -17 9 -20 -4 -15 -11 4 -15
0 -15 -16 0 -15 5 -20 14 -17 10 4 13 1 9 -8 -3 -8 -6 -34 -8 -57 -1 -24 -8
-93 -15 -155 -11 -99 -11 -113 3 -127 9 -9 18 -24 21 -34 4 -11 15 -17 32 -17
14 1 47 -2 72 -6 29 -4 49 -3 53 4 4 6 15 7 25 2 18 -8 18 -8 -1 -13 -11 -2
-24 -8 -29 -13 -6 -5 -19 -9 -30 -9 -15 0 -17 -3 -9 -11 6 -6 9 -18 6 -26 -3
-8 0 -25 7 -38 15 -28 6 -59 -15 -51 -10 4 -15 -1 -15 -15 0 -11 -13 -34 -29
-50 -25 -24 -38 -29 -78 -29 -27 0 -58 7 -70 15 -25 17 -50 94 -35 104 5 3 9
20 8 36 -1 24 -5 29 -21 27 -11 -2 -27 -12 -37 -23 -9 -10 -18 -19 -21 -19
-10 0 7 45 22 56 13 10 12 13 -5 22 -10 5 -40 13 -66 17 -41 6 -47 5 -53 -14
-6 -19 -14 -21 -73 -21 -107 0 -106 0 -120 88 -7 43 -12 92 -12 110 0 29 -3
32 -30 32 -27 0 -29 2 -25 31 2 17 8 36 14 43 6 7 6 18 1 25 -4 8 -6 21 -2 29
3 10 1 13 -6 8 -8 -5 -11 5 -8 31 3 39 18 76 42 103 7 9 15 47 17 90 l3 75 2
-77 c1 -43 5 -78 10 -78 4 0 15 15 26 33 11 18 21 27 23 20 3 -7 10 -13 16
-13 7 0 25 -21 40 -46 20 -34 31 -44 39 -36 8 8 16 5 30 -11 11 -12 21 -17 24
-12 6 15 76 6 71 -9 -3 -7 4 -29 14 -50 l18 -38 -25 5 -25 4 22 -23 c21 -22
21 -25 5 -48 -20 -31 -20 -36 -2 -36 18 0 32 -58 17 -73 -7 -7 -16 -3 -29 13
-30 37 -48 21 -55 -48 -4 -34 -8 -66 -9 -73 -2 -8 22 -17 66 -25 60 -12 71
-11 90 2 20 16 20 16 -11 10 -18 -3 -33 -2 -33 3 0 10 68 24 90 19 31 -7 49
272 47 735 -1 252 1 387 8 387 6 0 10 -18 10 -39z m-307 -115 c15 -8 36 -25
47 -37 l20 -24 -25 21 c-14 12 -38 29 -55 37 -16 9 -26 16 -22 17 4 0 20 -6
35 -14z m89 -128 c-3 -8 -6 -5 -6 6 -1 11 2 17 5 13 3 -3 4 -12 1 -19z m-77
-43 c0 -5 -5 -3 -10 5 -5 8 -10 20 -10 25 0 6 5 3 10 -5 5 -8 10 -19 10 -25z
m19 -60 c0 -5 -4 -3 -9 5 -5 8 -9 22 -9 30 0 16 17 -16 18 -35z m18 -167 c-2
-13 -4 -3 -4 22 0 25 2 35 4 23 2 -13 2 -33 0 -45z m-140 -70 c-3 -8 -6 -5 -6
6 -1 11 2 17 5 13 3 -3 4 -12 1 -19z m140 -40 c-2 -13 -4 -3 -4 22 0 25 2 35
4 23 2 -13 2 -33 0 -45z m1048 21 c36 -22 29 -25 -11 -4 -16 8 -47 15 -69 15
l-40 0 38 -27 c20 -14 37 -31 37 -36 0 -6 -12 1 -27 15 -16 14 -37 28 -48 32
l-20 7 20 15 c24 18 77 11 120 -17z m-1098 -36 c-3 -10 -5 -2 -5 17 0 19 2 27
5 18 2 -10 2 -26 0 -35z m1163 -18 c13 -14 21 -25 18 -25 -2 0 -15 11 -28 25
-13 14 -21 25 -18 25 2 0 15 -11 28 -25z m-1644 -40 c-15 -25 -31 -43 -37 -40
-14 9 -11 25 4 25 8 0 22 16 32 35 11 19 21 32 23 30 3 -2 -8 -25 -22 -50z
m1562 0 c-3 -3 -9 2 -12 12 -6 14 -5 15 5 6 7 -7 10 -15 7 -18z m140 -50 c-3
-3 -9 2 -12 12 -6 14 -5 15 5 6 7 -7 10 -15 7 -18z m-98 -11 c0 -8 -4 -12 -10
-9 -5 3 -10 13 -10 21 0 8 5 12 10 9 6 -3 10 -13 10 -21z m130 -69 c0 -5 -5
-3 -10 5 -5 8 -10 20 -10 25 0 6 5 3 10 -5 5 -8 10 -19 10 -25z m-933 -17 c-3
-8 -6 -5 -6 6 -1 11 2 17 5 13 3 -3 4 -12 1 -19z m940 -95 c-3 -10 -5 -2 -5
17 0 19 2 27 5 18 2 -10 2 -26 0 -35z m-6 -50 c-12 -20 -14 -14 -5 12 4 9 9
14 11 11 3 -2 0 -13 -6 -23z m-147 -8 c-6 -16 -24 -21 -24 -7 0 11 11 22 21
22 5 0 6 -7 3 -15z m-2717 -27 c-3 -8 -6 -5 -6 6 -1 11 2 17 5 13 3 -3 4 -12
1 -19z m1020 -10 c-3 -7 -5 -2 -5 12 0 14 2 19 5 13 2 -7 2 -19 0 -25z m1667
-2 c-3 -8 -13 -17 -22 -21 -13 -5 -13 -2 3 15 21 24 26 25 19 6z m-333 -53
c18 -9 28 -18 21 -21 -7 -2 -19 2 -27 8 -25 21 -17 -3 20 -57 84 -126 252
-149 358 -49 15 14 32 26 37 26 5 0 16 13 25 29 8 17 20 33 26 36 20 13 -19
-50 -52 -83 -77 -79 -195 -104 -291 -63 -49 21 -122 97 -144 150 -20 49 -21
48 27 24z m489 -3 c0 -5 -4 -10 -10 -10 -5 0 -10 5 -10 10 0 6 5 10 10 10 6 0
10 -4 10 -10z m-245 -19 c-6 -5 -21 -12 -35 -15 l-25 -7 25 15 c28 17 50 21
35 7z m-135 -17 c0 -2 -9 -4 -20 -4 -11 0 -20 4 -20 9 0 5 9 7 20 4 11 -3 20
-7 20 -9z m-1525 -31 c-12 -11 -15 -25 -11 -46 5 -25 4 -28 -9 -17 -27 23 -15
80 17 80 18 0 18 -1 3 -17z m-92 -111 c9 -8 17 -22 17 -31 0 -10 -5 -7 -13 9
-23 46 -88 29 -72 -19 8 -25 31 -34 56 -21 10 6 19 8 19 6 0 -3 -9 -10 -21
-16 -16 -9 -26 -8 -45 5 -30 19 -31 48 -2 74 21 21 29 20 61 -7z m-748 -46
c10 -30 -3 -61 -26 -61 -15 0 -25 55 -15 82 9 21 29 11 41 -21z m445 0 c0 -3
-4 -8 -10 -11 -5 -3 -10 -1 -10 4 0 6 5 11 10 11 6 0 10 -2 10 -4z m-47 -13
c-7 -2 -21 -2 -30 0 -10 3 -4 5 12 5 17 0 24 -2 18 -5z m-123 -13 c0 -5 -4
-10 -9 -10 -6 0 -13 5 -16 10 -3 6 1 10 9 10 9 0 16 -4 16 -10z m53 3 c-7 -2
-21 -2 -30 0 -10 3 -4 5 12 5 17 0 24 -2 18 -5z m274 -31 c-20 -22 -22 -53 -5
-70 9 -9 9 -12 1 -12 -18 0 -42 40 -36 59 10 26 24 41 41 41 13 0 13 -2 -1
-18z m-457 -87 c0 -25 -24 -55 -42 -55 -20 0 -48 33 -48 56 0 13 10 30 21 38
19 13 24 13 45 -1 14 -9 24 -25 24 -38z m308 -5 c-10 -16 -10 -24 0 -40 6 -11
12 -22 12 -26 0 -12 -44 2 -53 18 -15 23 6 68 33 68 18 0 19 -2 8 -20z m-176
-7 c22 -20 23 -46 2 -67 -26 -26 -34 -18 -34 34 0 54 4 59 32 33z m1448 -913
c0 -5 -4 -10 -10 -10 -5 0 -10 5 -10 10 0 6 5 10 10 10 6 0 10 -4 10 -10z
m-50 -120 c0 -5 -5 -10 -11 -10 -5 0 -7 5 -4 10 3 6 8 10 11 10 2 0 4 -4 4
-10z m-680 -125 c0 -8 -4 -15 -10 -15 -5 0 -10 -7 -10 -15 0 -20 -6 -19 -30 5
-26 26 -18 40 21 40 19 0 29 -5 29 -15z m49 -162 c-1 -5 -1 -17 0 -28 1 -16 3
-17 10 -6 17 27 50 23 66 -9 20 -38 19 -40 -11 -40 -14 0 -33 -4 -43 -10 -13
-6 -27 -5 -45 3 -29 14 -33 22 -12 30 9 4 12 14 9 27 -4 13 0 26 8 31 17 11
19 11 18 2z"></path>
<path d="M1554 3935 c-9 -23 4 -47 23 -43 26 5 28 35 3 48 -16 9 -21 8 -26 -5z"></path>
<path d="M1703 1900 c0 -47 2 -66 4 -42 2 23 2 61 0 85 -2 23 -4 4 -4 -43z"></path>
<path d="M1703 1740 c0 -36 2 -50 4 -32 2 17 2 47 0 65 -2 17 -4 3 -4 -33z"></path>
<path d="M1700 1576 c0 -8 5 -18 10 -21 6 -3 10 3 10 14 0 12 -4 21 -10 21 -5
0 -10 -6 -10 -14z"></path>
<path d="M1690 1468 c0 -68 10 -128 21 -128 5 0 9 41 9 90 0 73 -3 90 -15 90
-11 0 -15 -12 -15 -52z"></path>
<path d="M810 1266 c0 -9 7 -12 20 -9 11 3 17 9 14 14 -8 14 -34 10 -34 -5z"></path>
<path d="M790 1231 c0 -6 5 -13 10 -16 6 -3 10 1 10 9 0 9 -4 16 -10 16 -5 0
-10 -4 -10 -9z"></path>
<path d="M840 1220 c0 -5 5 -10 10 -10 6 0 10 5 10 10 0 6 -4 10 -10 10 -5 0
-10 -4 -10 -10z"></path>
<path d="M870 1200 c0 -19 1 -19 20 -3 11 10 20 19 20 20 0 2 -9 3 -20 3 -13
0 -20 -7 -20 -20z"></path>
<path d="M790 1111 c0 -11 31 -24 39 -16 3 3 -1 10 -9 15 -19 12 -30 12 -30 1z"></path>
<path d="M940 1110 c0 -5 5 -10 10 -10 6 0 10 5 10 10 0 6 -4 10 -10 10 -5 0
-10 -4 -10 -10z"></path>
<path d="M1871 1104 c0 -11 3 -14 6 -6 3 7 2 16 -1 19 -3 4 -6 -2 -5 -13z"></path>
<path d="M694 1093 c-15 -3 -24 -14 -28 -35 -7 -37 -8 -123 -1 -130 3 -2 35
-1 72 4 66 9 103 30 103 58 0 6 5 8 10 5 19 -12 10 14 -13 37 -12 13 -18 20
-13 16 6 -5 16 -8 24 -8 11 0 12 3 3 13 -6 8 -7 18 -3 22 4 5 2 5 -5 1 -7 -4
-25 -1 -40 7 -28 14 -71 18 -109 10z"></path>
<path d="M952 1070 c-26 -35 -28 -48 -5 -29 10 8 14 9 10 2 -8 -12 8 -26 33
-29 8 -1 22 -3 30 -5 8 -2 14 1 15 8 0 6 3 15 8 19 4 4 7 20 7 36 0 26 -2 28
-20 18 -11 -6 -18 -15 -15 -21 11 -17 -7 -9 -25 11 -16 19 -17 19 -38 -10z"></path>
<path d="M896 1025 c4 -8 10 -15 15 -15 4 0 6 7 3 15 -4 8 -10 15 -15 15 -4 0
-6 -7 -3 -15z"></path>
<path d="M1670 955 c-85 -13 -163 -24 -172 -24 -11 -1 -18 -9 -18 -21 0 -16 5
-19 23 -15 12 3 83 14 157 25 173 26 180 27 180 45 0 8 -3 15 -7 14 -5 0 -78
-11 -163 -24z"></path>
</g>
</svg>