 <svg version="1.0" xmlns="http://www.w3.org/2000/svg" viewBox="0 0 700.000000 423.000000" preserveAspectRatio="xMidYMid meet" id="mask">

<g transform="translate(0.000000,423.000000) scale(0.100000,-0.100000)">
<path d="M763 933 c-14 -3 -23 -12 -23 -22 0 -24 47 -16 61 10 10 20 8 21 -38
12z"></path>
<path d="M707 923 c-4 -3 -7 -11 -7 -17 0 -6 5 -5 12 2 6 6 9 14 7 17 -3 3 -9
2 -12 -2z"></path>
<path d="M660 911 c0 -6 5 -13 10 -16 6 -3 10 1 10 9 0 9 -4 16 -10 16 -5 0
-10 -4 -10 -9z"></path>
<path d="M6450 877 c0 -4 7 -21 15 -37 8 -16 12 -31 7 -33 -4 -2 -44 -1 -89 2
-76 6 -82 5 -87 -14 -9 -32 -7 -73 4 -80 9 -5 272 -55 292 -55 14 0 10 188 -4
197 -20 12 -138 30 -138 20z"></path>
<path d="M280 869 c-30 -5 -106 -16 -168 -25 l-112 -16 0 -105 c0 -95 2 -104
18 -99 9 3 80 15 157 26 196 29 185 25 185 60 0 17 -4 30 -10 30 -5 0 -10 15
-10 34 0 19 5 38 10 41 15 9 12 65 -2 64 -7 -1 -38 -5 -68 -10z"></path>
<path d="M822 848 c-7 -7 -12 -32 -12 -56 0 -36 3 -43 17 -40 14 3 17 12 14
53 -3 58 -4 58 -19 43z"></path>
<path d="M1225 793 c-3 -21 -10 -60 -15 -86 -14 -67 -14 -65 26 -82 67 -28 68
-27 61 86 -5 103 -12 119 -49 119 -12 0 -19 -11 -23 -37z"></path>
<path d="M725 801 c3 -5 -11 -22 -30 -37 -20 -15 -34 -29 -31 -31 2 -3 29 -2
60 2 55 7 74 26 40 39 -13 5 -14 9 -4 21 11 13 8 15 -14 15 -15 0 -25 -4 -21
-9z"></path>
<path d="M1430 754 c0 -8 5 -12 10 -9 6 4 8 11 5 16 -9 14 -15 11 -15 -7z"></path>
<path d="M480 720 c0 -23 38 -28 58 -8 20 20 14 28 -23 28 -28 0 -35 -4 -35
-20z"></path>
<path d="M590 730 c0 -5 7 -10 16 -10 8 0 12 5 9 10 -3 6 -10 10 -16 10 -5 0
-9 -4 -9 -10z"></path>
<path d="M400 700 c0 -5 7 -10 15 -10 8 0 15 5 15 10 0 6 -7 10 -15 10 -8 0
-15 -4 -15 -10z"></path>
</g>
</svg>