 <svg version="1.0" xmlns="http://www.w3.org/2000/svg" viewBox="0 0 700.000000 423.000000" preserveAspectRatio="xMidYMid meet" id="mask">
<g transform="translate(0.000000,423.000000) scale(0.100000,-0.100000)">
<path d="M0 2115 l0 -2115 111 0 112 0 -4 778 -4 777 75 0 c41 0 124 -4 184
-8 l109 -9 -7 914 c-4 502 -8 914 -9 914 -1 1 -63 3 -137 5 l-135 4 0 -690 0
-689 -38 -9 c-22 -5 -42 -6 -47 -1 -4 5 -11 468 -15 1029 -7 1009 -7 1020 12
1000 11 -11 167 -172 347 -357 346 -357 339 -348 292 -388 -9 -7 -16 -28 -16
-49 0 -20 -4 -41 -10 -47 -7 -7 -7 -114 0 -319 5 -171 10 -542 10 -825 0 -283
3 -653 7 -823 l6 -307 43 0 c35 0 44 4 50 22 3 12 3 550 -1 1195 -4 707 -4
1173 2 1173 5 0 38 -32 73 -72 l65 -72 3 -686 c1 -377 4 -691 7 -697 2 -7 12
-10 21 -6 14 5 15 55 8 587 -4 320 -7 592 -8 606 l-1 25 559 -4 559 -4 -7 74
c-5 55 -12 79 -28 96 -18 19 -20 28 -12 55 l10 33 519 -4 c286 -2 525 -7 531
-12 15 -12 52 17 56 44 3 21 4 20 18 -8 9 -18 27 -33 45 -38 116 -35 168 -72
180 -127 7 -33 -17 -98 -40 -106 -48 -19 14 -24 293 -24 l308 0 194 66 195 66
149 -6 c82 -3 151 -8 154 -11 3 -3 -1 -17 -9 -32 -11 -22 -14 -123 -17 -497
l-4 -469 -211 4 -212 4 0 -125 0 -124 370 -63 c204 -34 375 -62 382 -62 7 -1
11 18 11 49 1 54 5 51 -81 65 -29 5 -37 3 -37 -10 0 -22 -37 -18 -43 5 -3 14
-14 20 -31 20 -14 0 -26 5 -26 12 0 6 -8 20 -17 31 -16 17 -16 19 -2 28 14 7
17 83 23 686 6 499 11 681 19 689 15 14 636 234 660 234 12 0 17 -8 17 -30 l0
-29 397 134 397 135 277 0 c175 0 280 -4 284 -10 3 -6 -10 -36 -29 -68 -29
-47 -36 -67 -36 -110 0 -29 -4 -60 -10 -70 -5 -10 -13 -313 -18 -749 -7 -595
-11 -734 -22 -748 -12 -15 -36 -16 -236 -9 l-222 7 -7 -44 c-4 -24 -5 -64 -3
-89 3 -43 5 -45 38 -50 27 -4 36 -10 38 -27 2 -16 12 -24 37 -29 19 -3 38 -3
44 1 6 3 11 39 11 81 0 73 0 74 26 74 l26 0 -3 -82 -4 -83 42 -6 c24 -3 46 -8
49 -12 4 -4 2 -60 -4 -124 -6 -65 -8 -121 -4 -125 4 -4 63 -16 132 -28 69 -11
135 -23 148 -25 21 -5 22 -9 22 -116 0 -102 -2 -111 -20 -116 -19 -5 -20 -14
-20 -283 0 -152 -3 -412 -7 -578 l-6 -302 51 0 52 0 0 2115 0 2115 -430 0
-431 0 -107 -51 c-59 -29 -483 -232 -942 -451 l-835 -400 -485 6 c-267 3 -960
11 -1540 17 -580 6 -1064 12 -1075 14 -13 3 -123 151 -324 435 l-304 430 -263
0 -264 0 0 -2115z"></path>
<path d="M610 3048 l0 -283 83 -32 c45 -18 86 -33 90 -33 4 0 7 108 7 239 0
235 0 240 -22 264 -30 31 -144 127 -152 127 -3 0 -6 -127 -6 -282z"></path>
<path d="M1699 2826 c-2 -2 -3 -54 -1 -115 l3 -111 27 0 c26 0 27 1 24 55 l-4
55 87 0 87 0 -4 -57 -3 -58 44 -3 c42 -3 43 -2 36 20 -4 13 -8 43 -9 68 l-1
45 79 3 79 3 -5 -71 -5 -71 26 3 26 3 0 115 0 115 -241 3 c-132 1 -242 0 -245
-2z"></path>
<path d="M3190 2701 c0 -99 3 -121 15 -121 10 0 15 16 17 63 l3 62 80 0 80 0
3 -63 c3 -62 3 -63 30 -60 25 3 27 8 32 53 l5 50 78 3 77 3 0 -56 c0 -48 2
-55 20 -55 19 0 20 7 20 115 l0 115 -147 0 c-82 0 -185 3 -230 7 l-83 6 0
-122z"></path>
<path d="M1700 2455 c0 -99 1 -105 20 -105 17 0 19 4 13 28 -14 54 -10 67 20
70 22 3 30 -1 34 -17 4 -15 15 -21 47 -23 38 -3 41 -5 38 -30 -2 -20 2 -28 13
-28 11 0 15 8 13 28 -2 22 1 28 21 30 32 5 46 -11 32 -37 -11 -20 -9 -21 29
-21 45 0 46 1 24 35 -31 48 5 125 58 125 75 0 111 -85 60 -142 -13 -16 -13
-18 1 -24 9 -3 26 -4 39 -2 22 3 23 6 23 108 l0 105 -242 3 -243 2 0 -105z"></path>
<path d="M3190 2445 c0 -63 4 -105 10 -105 6 0 10 35 10 85 0 73 3 86 19 95
41 22 51 4 51 -91 0 -53 4 -89 10 -89 6 0 10 35 10 85 0 99 5 105 90 96 l55
-6 3 -87 c1 -49 7 -88 12 -88 6 0 10 7 10 15 0 12 15 15 75 15 69 0 76 -2 84
-22 15 -39 22 0 19 103 l-3 94 -227 3 -228 2 0 -105z"></path>
<path d="M1800 2360 c0 -5 5 -10 10 -10 6 0 10 5 10 10 0 6 -4 10 -10 10 -5 0
-10 -4 -10 -10z"></path>
<path d="M1705 2318 c-3 -8 -4 -59 -3 -114 3 -88 5 -99 22 -102 15 -3 17 0 10
14 -4 11 -8 46 -9 79 l0 60 60 0 60 0 3 -59 c2 -32 -2 -64 -7 -69 -19 -19 -12
-27 24 -27 34 0 46 12 25 25 -5 3 -10 22 -10 41 l0 34 61 0 62 0 -6 -50 -6
-50 35 0 c31 0 34 2 24 19 -5 11 -10 40 -10 66 l0 46 58 -3 57 -3 3 -48 c2
-29 -2 -55 -9 -64 -11 -13 -9 -14 11 -11 25 3 25 5 28 111 l3 107 -188 0
c-103 0 -212 3 -240 6 -41 5 -54 4 -58 -8z"></path>
<path d="M3190 2200 l0 -110 25 0 c25 0 33 14 15 25 -5 3 -10 26 -10 51 0 41
2 44 28 44 15 0 38 -3 50 -7 21 -5 23 -11 20 -42 -3 -20 -8 -44 -12 -53 -7
-15 -3 -18 28 -18 41 0 42 2 20 35 -8 13 -14 34 -12 47 3 21 8 23 81 26 l77 3
0 -40 c0 -22 -4 -43 -10 -46 -23 -14 -7 -25 36 -25 40 0 45 2 38 18 -4 9 -8
35 -8 57 l-1 40 45 5 45 5 0 45 0 45 -227 3 -228 2 0 -110z"></path>
<path d="M1700 1970 l0 -110 33 0 c23 0 40 8 55 25 30 34 74 34 100 -2 17 -23
27 -27 73 -28 l54 0 1 70 c2 123 0 117 37 113 29 -3 32 -7 35 -38 2 -19 8 -39
13 -44 5 -6 9 -25 9 -42 0 -39 24 -66 54 -62 20 3 21 8 21 113 l0 110 -242 3
-243 2 0 -110z"></path>
<path d="M3190 1960 l0 -110 25 0 c23 0 25 4 26 48 1 70 11 95 39 102 62 15
73 1 87 -107 5 -40 6 -41 49 -48 51 -7 68 0 61 26 -4 13 6 32 28 56 l33 36 30
-30 c17 -16 32 -43 34 -59 2 -21 8 -29 23 -29 19 0 20 7 20 110 l0 110 -227 3
-228 2 0 -110z"></path>
<path d="M5564 1998 c-3 -5 -5 -51 -4 -101 4 -152 5 -147 -34 -147 -34 0 -317
35 -368 46 -28 6 -28 5 -28 -45 0 -53 17 -78 28 -40 l6 24 6 -25 c5 -22 14
-26 75 -36 78 -13 85 -12 85 17 0 10 5 19 10 19 6 0 10 -11 10 -24 0 -15 7
-27 18 -30 13 -4 648 -110 712 -119 11 -1 15 7 15 30 1 18 6 38 13 45 7 7 12
19 12 28 0 21 23 70 33 70 4 0 7 -6 7 -13 0 -22 25 -67 35 -64 6 2 11 19 13
38 1 19 5 53 8 77 5 41 6 42 43 42 38 0 38 0 45 46 3 26 6 64 6 85 l0 38 -52
5 c-29 3 -179 13 -333 21 -154 8 -297 17 -317 19 -21 2 -41 0 -44 -6z"></path>
<path d="M2040 1980 c0 -11 5 -20 10 -20 6 0 10 9 10 20 0 11 -4 20 -10 20 -5
0 -10 -9 -10 -20z"></path>
<path d="M556 524 c-23 -34 -17 -68 12 -72 20 -3 22 0 22 47 0 57 -9 64 -34
25z"></path>
</g>
</svg>