 <svg version="1.0" xmlns="http://www.w3.org/2000/svg" viewBox="0 0 700.000000 423.000000" preserveAspectRatio="xMidYMid meet" id="mask">
<g transform="translate(0.000000,423.000000) scale(0.100000,-0.100000)">
<path d="M700 4224 c0 -4 109 -181 241 -394 l242 -388 221 -6 c122 -3 469 -8
771 -11 547 -5 805 -9 1615 -21 l425 -6 800 413 799 414 -632 3 -632 2 -286
-221 -287 -222 -541 7 c-891 11 -1850 26 -1854 30 -2 2 -24 94 -49 205 l-46
201 -394 0 c-216 0 -393 -3 -393 -6z m553 -275 c28 -7 37 -15 35 -27 -6 -33
-198 -25 -198 8 0 27 95 38 163 19z m3496 -48 c36 -23 -38 -51 -136 -51 -48 0
-63 3 -63 14 0 19 11 25 62 35 58 12 120 13 137 2z m-3349 -271 c23 -15 -6
-30 -60 -30 -59 0 -90 9 -90 26 0 11 17 14 68 14 37 0 74 -5 82 -10z m987 -13
c14 -15 -22 -27 -84 -27 -62 0 -88 14 -62 32 16 10 134 6 146 -5z m970 -11
c21 -21 -50 -37 -115 -27 -45 8 -48 23 -7 33 34 7 113 4 122 -6z m884 -6 c22
0 25 -15 5 -23 -56 -22 -176 -14 -153 10 9 9 97 22 115 17 8 -2 22 -4 33 -4z"></path>
<path d="M1590 4225 c0 -12 52 -300 55 -306 3 -3 262 -9 577 -13 852 -10 1217
-15 1474 -22 l231 -5 194 161 c107 89 201 169 209 176 12 12 -189 14 -1363 14
-757 0 -1377 -2 -1377 -5z m1358 -217 c4 -19 -29 -32 -58 -23 -22 7 -27 30 -7
39 24 10 62 1 65 -16z"></path>
</g>
</svg>