 <svg version="1.0" xmlns="http://www.w3.org/2000/svg" viewBox="0 0 700.000000 423.000000" preserveAspectRatio="xMidYMid meet" id="mask">

<g transform="translate(0.000000,423.000000) scale(0.100000,-0.100000)">
<path d="M5223 3372 l-532 -347 -1 -82 c0 -94 3 -96 65 -58 22 14 43 25 47 25
4 0 6 -244 5 -542 l-2 -543 118 -20 c69 -12 121 -26 126 -33 11 -18 14 -4 42
195 12 89 26 168 30 175 6 9 39 14 111 15 57 1 142 4 190 7 84 5 88 4 93 -17
3 -12 -10 -199 -30 -416 -20 -217 -35 -408 -33 -425 3 -28 8 -31 151 -84 82
-29 151 -52 153 -49 9 9 17 2547 8 2547 -5 0 -249 -157 -541 -348z"></path>
<path d="M5185 2040 c-10 -16 -18 -153 -9 -147 6 3 57 2 114 -3 58 -5 108 -6
112 -2 4 4 8 41 10 82 l3 74 -113 2 c-62 1 -114 -2 -117 -6z"></path>
<path d="M5156 1769 c-3 -17 -6 -51 -6 -74 l0 -42 107 -17 c58 -9 107 -15 109
-13 5 5 22 142 17 146 -4 5 -164 29 -199 30 -16 1 -23 -7 -28 -30z"></path>
<path d="M4800 1591 l0 -80 53 -19 c96 -36 158 -54 164 -49 2 3 9 41 14 84 5
43 11 93 14 111 l6 32 -126 0 -125 0 0 -79z"></path>
<path d="M5136 1551 c-3 -9 -6 -47 -8 -86 l-3 -70 100 -36 100 -37 7 26 c4 14
9 58 10 96 l3 71 -102 26 c-92 24 -103 25 -107 10z"></path>
</g>
</svg>