 <svg version="1.0" xmlns="http://www.w3.org/2000/svg" viewBox="0 0 700.000000 423.000000" preserveAspectRatio="xMidYMid meet" id="mask">

<g transform="translate(0.000000,423.000000) scale(0.100000,-0.100000)">
<path d="M0 1325 c0 -481 2 -875 5 -875 6 0 1008 500 1014 506 14 13 0 413
-29 779 -18 231 -34 421 -34 422 -1 1 -172 9 -381 17 -209 9 -424 18 -477 21
l-98 6 0 -876z"></path>
<path d="M1394 2113 c3 -16 13 -92 22 -170 20 -163 8 -151 124 -132 67 11 69
13 72 43 l3 31 115 9 c63 4 116 10 118 11 2 2 -2 12 -9 24 -7 11 -10 23 -6 27
4 4 40 10 80 13 60 5 72 9 71 24 0 9 -1 46 -2 82 l-2 65 -296 0 -296 0 6 -27z"></path>
<path d="M1066 2042 c-5 -8 10 -161 15 -167 3 -2 36 0 74 5 39 5 95 9 125 10
l56 0 -4 68 c-2 37 -5 72 -7 79 -4 12 -252 17 -259 5z"></path>
<path d="M1205 1784 c-49 -8 -95 -16 -101 -18 -7 -3 -7 -28 0 -81 9 -76 10
-77 35 -71 14 4 68 12 119 18 103 14 96 6 86 107 -8 70 3 67 -139 45z"></path>
<path d="M1445 1637 c4 -18 12 -84 18 -146 l12 -114 185 2 c102 1 188 5 191 9
4 4 12 54 18 112 7 58 14 120 18 138 l5 32 -226 0 -227 0 6 -33z"></path>
<path d="M1222 1525 c-46 -13 -86 -25 -88 -28 -4 -4 16 -209 21 -215 4 -4 198
69 209 78 4 5 5 49 1 99 -7 90 -7 91 -34 90 -14 0 -64 -11 -109 -24z"></path>
<path d="M1150 1040 c0 -13 11 -13 30 0 12 8 11 10 -7 10 -13 0 -23 -4 -23
-10z"></path>
</g>
</svg>