<?xml version="1.0" encoding="utf-8"?>
<!-- Generator: Adobe Illustrator 21.0.2, SVG Export Plug-In . SVG Version: 6.00 Build 0)  -->
<svg version="1.1" id="Layer_1" xmlns="http://www.w3.org/2000/svg" xmlns:xlink="http://www.w3.org/1999/xlink"
	 viewBox="0 0 555.8 485.1" xml:space="preserve">
<style type="text/css">
	.st0{fill:#7C109A;}
	.st1{fill:#E17000;}
	.st2{fill:#FFB612;}
	.st3{fill:#69BE28;}
	.st4{fill:#B71234;}
	.st5{fill:#00B9E4;}
	.st6{fill:#E9994A;}
	.st7{fill:#D2492A;}
	.st8{fill:#009581;}
	.st9{fill:#BED600;}
</style>
<g>
	<polygon class="st0" points="321.6,173.6 305.3,223.9 348.1,210 	"/>
	<polygon class="st1" points="278.8,142.5 321.6,128.6 321.6,51.6 236,51.6 236,128.6 	"/>
	<polygon class="st2" points="236,173.6 236,128.6 162.7,104.8 136.2,186.2 209.5,210 	"/>
	<polygon class="st3" points="252.3,223.9 209.5,210 164.3,272.3 233.6,322.6 278.8,260.3 	"/>
	<polygon class="st4" points="321.6,173.6 348.1,210 421.2,186.2 395,104.8 321.6,128.6 	"/>
	<polygon class="st5" points="305.3,223.9 278.8,260.3 324,322.6 393.3,272.3 348.1,210 	"/>
	<polygon class="st6" points="236,128.6 236,173.6 278.8,142.5 	"/>
	<polygon class="st7" points="278.8,142.5 321.6,173.6 321.6,128.6 	"/>
	<polygon class="st8" points="252.3,223.9 278.8,260.3 305.3,223.9 	"/>
	<polygon class="st9" points="209.5,210 252.3,223.9 236,173.6 	"/>
	<polygon class="st0" points="321.6,173.6 305.3,223.9 348.1,210 	"/>
	<polygon class="st1" points="278.8,142.5 321.6,128.6 321.6,51.6 236,51.6 236,128.6 	"/>
	<polygon class="st2" points="236,173.6 236,128.6 162.7,104.8 136.2,186.2 209.5,210 	"/>
	<polygon class="st3" points="252.3,223.9 209.5,210 164.3,272.3 233.6,322.6 278.8,260.3 	"/>
	<polygon class="st4" points="321.6,173.6 348.1,210 421.2,186.2 395,104.8 321.6,128.6 	"/>
	<polygon class="st5" points="305.3,223.9 278.8,260.3 324,322.6 393.3,272.3 348.1,210 	"/>
	<polygon class="st6" points="236,128.6 236,173.6 278.8,142.5 	"/>
	<polygon class="st7" points="278.8,142.5 321.6,173.6 321.6,128.6 	"/>
	<polygon class="st8" points="252.3,223.9 278.8,260.3 305.3,223.9 	"/>
	<polygon class="st9" points="209.5,210 252.3,223.9 236,173.6 	"/>
</g>
</svg>
