 <svg version="1.0" xmlns="http://www.w3.org/2000/svg" id="mask" viewBox="0 0 700.000000 423.000000" preserveAspectRatio="xMidYMid meet">

<g transform="translate(0.000000,423.000000) scale(0.100000,-0.100000)">
<path d="M2 4220 c2 -5 167 -99 368 -208 l365 -197 -3 -985 c-2 -542 -5 -986
-6 -987 -3 -3 -350 -79 -611 -135 l-110 -23 -3 -113 c-2 -78 1 -112 9 -112 6
0 190 52 409 115 220 63 401 115 404 115 4 0 6 34 6 75 0 60 3 75 15 75 8 0
15 7 15 16 0 11 -6 14 -20 9 -20 -6 -20 -3 -14 937 5 770 9 945 20 954 11 9
11 13 0 25 -10 10 -13 34 -9 91 6 77 6 77 39 88 19 6 36 15 39 20 3 4 -79 62
-180 129 l-186 121 -275 0 c-179 0 -274 -4 -272 -10z"></path>
<path d="M4735 4029 l-170 -200 -677 1 c-407 0 -678 -3 -678 -9 0 -5 13 -23
30 -41 l30 -32 0 -1424 0 -1424 -310 0 -310 0 0 -112 0 -111 218 6 c119 4 292
7 384 7 l167 0 13 43 c6 23 18 46 25 50 10 6 13 44 13 147 0 118 -2 140 -15
140 -12 0 -15 13 -15 60 0 47 3 60 15 60 13 0 15 57 15 450 0 399 -2 450 -15
450 -13 0 -15 11 -13 63 2 43 7 61 16 59 9 -1 12 94 12 453 0 398 -2 455 -15
455 -12 0 -15 13 -15 60 0 47 3 60 15 60 13 0 15 24 15 155 l0 155 466 0 467
0 -7 -995 c-4 -546 -6 -998 -3 -1002 3 -4 109 -7 236 -5 l231 3 0 249 c0 215
-2 250 -15 251 -8 1 -21 2 -27 3 -9 1 -14 24 -16 69 l-3 67 31 6 30 7 0 467
c0 258 -3 475 -6 484 -4 10 -18 16 -36 16 l-29 0 3 68 3 67 34 3 34 3 -6 137
c-3 75 -9 147 -12 159 -6 18 0 25 37 44 23 12 59 35 79 50 20 16 40 29 43 29
3 0 6 -490 6 -1090 l0 -1090 50 0 50 0 0 946 c0 848 -2 947 -16 961 -9 10 -13
25 -10 37 4 15 -3 28 -27 48 l-32 27 -6 218 -6 218 36 33 c30 27 33 34 21 42
-8 5 -23 10 -32 10 -9 0 -20 5 -24 11 -6 10 16 32 110 111 20 17 16 17 -99 17
l-120 0 -170 -200z"></path>
</g>
</svg>