 <svg version="1.0" xmlns="http://www.w3.org/2000/svg" id="mask" viewBox="0 0 700.000000 423.000000" preserveAspectRatio="xMidYMid meet">

<g transform="translate(0.000000,423.000000) scale(0.100000,-0.100000)">
<path d="M5655 4224 c-11 -2 -193 -10 -405 -19 -429 -17 -1112 -52 -1235 -63
l-80 -7 0 -324 0 -325 60 3 60 2 62 -58 61 -58 20 -265 c11 -146 19 -266 18
-267 -1 -1 -100 -5 -221 -9 l-220 -7 -80 40 -80 41 9 278 c4 154 9 280 10 281
1 1 62 5 137 9 l136 7 7 320 c3 177 3 324 -1 328 -5 3 -129 1 -278 -7 -148 -7
-284 -13 -301 -13 l-30 -1 -2 -320 -1 -320 40 0 c30 0 65 -14 143 -57 l103
-58 7 -235 c4 -129 9 -250 13 -267 l5 -33 -151 0 -151 0 1 -917 c1 -505 5
-895 9 -867 9 61 23 89 55 110 33 21 32 31 -9 74 -19 19 -37 49 -41 67 -5 28
-3 32 17 35 22 3 23 6 26 130 3 148 -4 141 122 136 l75 -3 3 -132 c1 -73 7
-133 12 -133 5 0 10 17 12 38 l3 37 90 0 90 0 3 -122 c2 -115 4 -123 22 -123
16 0 20 -7 20 -35 0 -26 -9 -45 -35 -74 -40 -44 -45 -80 -14 -99 29 -19 49
-73 49 -134 0 -56 -15 -88 -57 -121 -32 -26 -29 -43 15 -82 36 -34 38 -35 128
-35 l91 0 6 263 c4 144 7 331 7 415 l0 152 -42 0 c-24 0 -73 3 -110 7 l-68 6
0 33 c0 28 4 33 33 40 17 4 159 7 314 5 l281 -3 -15 44 c-17 49 -14 102 13
206 l18 72 58 0 58 0 0 -34 c0 -18 7 -53 15 -76 19 -54 19 -116 0 -169 l-14
-41 84 0 c47 0 85 2 85 4 0 2 -7 23 -15 46 -20 56 -19 130 2 182 10 24 18 70
18 105 l0 63 36 0 36 0 6 122 c4 66 7 248 7 402 0 155 3 298 6 319 l7 37 210
0 210 0 77 74 c43 40 114 99 158 130 54 38 91 73 113 107 38 59 145 150 214
180 27 12 77 24 112 27 62 5 63 5 63 35 0 28 -1 29 -35 23 -19 -3 -52 -8 -72
-12 l-38 -5 35 20 c19 11 52 20 73 21 45 0 50 19 5 22 -80 3 -172 -22 -189
-53 -8 -16 -13 -18 -24 -9 -11 9 -36 3 -115 -29 -78 -33 -104 -39 -119 -31
-11 5 -29 10 -40 10 -30 0 -26 19 24 117 25 48 45 90 45 93 -1 3 -42 -38 -91
-90 -86 -90 -91 -93 -85 -61 3 19 16 61 29 94 32 87 82 135 186 175 46 19 100
44 120 58 21 13 62 33 91 43 51 18 57 24 93 88 22 40 53 79 73 92 33 23 34 25
34 96 l0 72 98 7 c93 7 98 9 98 29 -1 34 40 35 74 2 l28 -27 31 46 c34 50 65
70 151 97 l55 18 -40 0 c-39 0 -144 -21 -163 -33 -6 -3 -13 3 -17 14 -6 20
-14 20 -313 19 -169 -1 -316 -3 -327 -5z"></path>
<path d="M6904 4211 c20 -22 66 -34 66 -17 0 21 -23 36 -54 36 -28 0 -28 -1
-12 -19z"></path>
<path d="M6634 4209 c-3 -6 2 -35 12 -65 l18 -54 52 0 c91 0 173 12 178 26 7
17 -46 45 -135 72 -94 30 -117 33 -125 21z"></path>
<path d="M6520 4114 c-17 -17 -31 -23 -47 -19 -12 3 -25 1 -28 -5 -4 -6 16
-10 54 -10 65 0 73 5 64 38 -7 28 -14 28 -43 -4z"></path>
<path d="M3035 4099 c-88 -5 -450 -25 -805 -44 -355 -19 -721 -37 -815 -40
-93 -3 -185 -8 -203 -11 l-33 -5 6 -797 c3 -438 8 -1023 11 -1299 l6 -503 27
0 c44 0 71 11 71 29 0 13 10 17 41 18 36 2 39 0 34 -18 -6 -17 -3 -20 12 -16
41 12 278 29 337 25 81 -7 118 -25 130 -63 5 -17 18 -49 30 -73 16 -33 27 -42
46 -42 14 0 49 -3 78 -6 l52 -7 -2 1311 -3 1312 40 4 c22 3 261 15 530 26 270
11 527 23 573 27 l82 6 0 88 0 89 -42 -1 c-24 -1 -115 -6 -203 -10z"></path>
<path d="M5946 3790 l-26 -40 30 0 c28 0 30 2 30 40 0 22 -2 40 -4 40 -2 0
-15 -18 -30 -40z"></path>
<path d="M5944 3671 c-46 -28 -82 -80 -114 -163 -15 -40 -31 -81 -35 -92 -7
-16 -4 -18 21 -12 16 3 59 7 97 8 l67 3 0 72 c0 40 -4 73 -9 73 -5 0 -32 -25
-60 -57 -41 -46 -52 -53 -57 -39 -4 11 1 28 15 44 42 53 112 163 109 172 -2 6
-17 1 -34 -9z"></path>
<path d="M5672 3428 c-28 -46 -49 -84 -47 -86 1 -1 20 4 42 13 38 15 40 18 52
82 6 36 10 67 8 70 -3 2 -27 -33 -55 -79z"></path>
<path d="M5822 3251 c-29 -10 -55 -21 -58 -24 -3 -3 -8 -33 -11 -66 l-6 -60
39 11 c22 5 61 19 87 29 26 11 61 19 77 19 30 0 30 1 30 55 l0 55 -52 0 c-29
-1 -77 -9 -106 -19z"></path>
<path d="M5697 3143 c-13 -21 -29 -48 -36 -61 -12 -23 -12 -23 16 -8 22 11 32
26 40 60 6 25 9 46 7 46 -2 0 -14 -17 -27 -37z"></path>
<path d="M5763 3070 c-18 -11 -35 -30 -38 -42 -32 -144 -32 -145 8 -115 37 29
131 76 200 102 41 15 47 21 47 46 l0 29 -92 0 c-75 0 -99 -4 -125 -20z"></path>
<path d="M5641 2963 c-23 -27 -64 -92 -92 -145 -40 -76 -56 -98 -73 -98 -14
-1 -44 -29 -91 -88 l-70 -86 -6 -381 c-4 -209 -8 -448 -8 -532 l-1 -152 68 -3
67 -3 3 -35 c5 -50 -15 -60 -125 -60 l-93 0 0 -154 0 -153 233 4 c127 3 235 8
238 12 3 3 18 38 33 76 74 190 110 265 130 271 11 4 43 9 71 13 l50 6 3 728 2
728 -22 -7 c-13 -4 -68 -28 -123 -54 -113 -53 -144 -82 -230 -213 -65 -101
-111 -192 -140 -276 -23 -68 -30 -77 -55 -61 -12 7 -13 14 -3 37 45 110 121
316 127 344 8 40 59 122 94 150 21 16 30 37 42 100 9 43 15 79 14 79 -1 0 -21
-21 -43 -47z"></path>
<path d="M4134 1351 c-2 -2 -4 -179 -4 -393 0 -335 2 -388 15 -388 11 0 12 5
5 26 -13 33 -13 115 0 151 6 15 27 42 45 60 44 41 44 66 -1 107 -22 20 -39 47
-44 72 -14 57 -12 62 13 66 21 3 22 7 24 118 4 173 -4 161 111 158 l97 -3 3
-137 3 -138 29 0 c25 0 30 -4 30 -24 0 -38 -18 -76 -55 -118 -19 -21 -35 -45
-35 -53 0 -8 16 -33 36 -54 57 -63 67 -147 28 -223 l-15 -28 131 0 130 0 0
228 c0 125 4 232 8 238 13 21 84 33 262 44 96 6 175 12 176 13 1 1 3 61 5 132
l4 130 -245 7 c-318 9 -751 14 -756 9z"></path>
<path d="M3563 1211 c-32 -27 -31 -61 2 -61 23 0 25 4 25 40 0 22 -1 40 -2 40
-2 -1 -13 -9 -25 -19z"></path>
<path d="M3610 980 c0 -5 -16 -27 -35 -49 -19 -21 -35 -47 -35 -57 1 -13 5
-10 14 11 7 17 25 40 40 52 22 20 36 53 21 53 -3 0 -5 -4 -5 -10z"></path>
<path d="M3320 885 l0 -55 -140 0 -140 0 0 -115 0 -115 181 0 181 0 -41 46
c-33 38 -41 54 -41 86 0 49 24 101 60 131 30 26 26 43 -17 65 -37 20 -43 15
-43 -43z"></path>
<path d="M3566 634 c-33 -38 -36 -44 -19 -44 31 0 73 38 73 66 0 33 -9 29 -54
-22z"></path>
</g>
</svg>