 <svg version="1.0" xmlns="http://www.w3.org/2000/svg" viewBox="0 0 700.000000 423.000000" preserveAspectRatio="xMidYMid meet" id="mask">

<g transform="translate(0.000000,423.000000) scale(0.100000,-0.100000)">
<path d="M1472 2823 c3 -653 4 -718 19 -721 10 -2 19 6 22 18 5 19 11 21 54
18 l48 -3 7 45 c10 68 19 100 29 100 5 0 9 -11 9 -25 0 -14 5 -25 10 -25 6 0
10 11 10 24 0 31 15 42 25 18 4 -9 9 -56 12 -104 4 -64 9 -88 19 -88 10 0 12
11 7 45 -5 38 -3 45 11 45 9 0 16 8 16 18 0 33 33 50 89 44 39 -3 56 -1 70 12
10 9 34 18 52 19 29 2 35 -2 37 -21 l4 -24 24 23 c18 17 21 25 12 31 -8 5 0 8
20 8 24 0 31 4 26 13 -5 8 -2 8 9 -2 15 -12 17 -11 17 2 0 9 -5 19 -12 23 -7
5 -4 10 10 15 18 7 22 17 22 51 1 42 1 43 15 18 8 -14 14 -41 15 -62 0 -32 2
-36 23 -31 21 4 22 4 2 -11 -18 -15 -16 -16 33 -14 28 1 56 -2 62 -8 6 -6 -4
-8 -29 -6 -63 6 -56 -14 9 -27 33 -7 59 -15 56 -19 -2 -4 19 -7 47 -8 29 0 98
-1 155 -3 l103 -3 -2 -61 c-2 -50 0 -61 14 -63 9 -1 17 4 17 12 0 10 15 14 60
14 47 0 60 -3 60 -15 0 -24 27 -18 34 8 3 12 6 219 6 460 l0 437 33 0 c17 0
129 -11 247 -25 118 -14 221 -25 228 -25 10 0 11 -117 6 -610 l-7 -611 109 3
109 3 3 110 c2 80 7 114 18 126 11 12 12 22 5 42 -8 20 -7 30 3 39 7 7 10 22
8 35 -2 13 1 23 7 23 6 0 11 -4 11 -10 0 -5 7 -7 15 -4 8 4 15 1 15 -5 0 -6
-4 -11 -10 -11 -5 0 -10 -4 -10 -10 0 -5 7 -10 15 -10 18 0 42 80 26 89 -12 8
-9 28 8 60 7 12 11 32 8 42 -3 10 -1 19 5 19 5 0 6 5 3 10 -9 14 8 13 23 -2 6
-6 31 -12 54 -12 38 -1 43 -4 41 -23 -2 -14 7 -30 24 -43 25 -19 26 -21 7 -26
-15 -4 -20 -14 -19 -37 0 -23 4 -31 15 -28 8 2 40 2 70 1 30 -1 61 -3 68 -3
15 0 15 -10 0 -25 -9 -9 -7 -12 11 -12 12 0 19 4 16 10 -10 17 7 11 20 -7 13
-18 35 -10 35 13 0 11 15 14 65 14 49 0 65 -3 65 -14 0 -9 10 -13 25 -12 22 1
25 5 24 36 0 19 5 329 12 688 6 359 10 655 7 657 -2 3 -137 -53 -299 -124
l-295 -129 -565 84 c-310 46 -579 86 -596 89 -32 6 -33 5 -33 -30 0 -19 5 -35
10 -35 16 0 12 -22 -7 -35 -15 -11 -15 -13 3 -22 10 -6 89 -21 174 -33 85 -12
161 -27 169 -33 9 -8 12 -30 9 -80 -6 -107 -9 -108 -199 -85 -85 11 -224 27
-309 36 -145 17 -156 20 -167 42 -10 21 -21 26 -71 32 -8 1 -18 13 -24 27
l-10 26 -9 -22 c-12 -33 -23 -28 -15 7 3 18 2 29 -3 25 -6 -3 -17 5 -25 17
-16 22 -16 22 -16 -15 0 -45 -20 -50 -21 -4 0 17 -3 26 -6 20 -2 -7 -11 -13
-20 -13 -12 0 -14 12 -11 59 2 40 -2 63 -12 75 -12 16 -12 19 3 28 14 7 16 17
11 45 -5 29 -3 39 11 50 11 7 16 13 12 13 -12 0 -420 60 -445 65 l-22 5 2
-717z m2074 -688 c9 -39 0 -30 -15 15 -6 19 -7 30 -2 25 5 -6 13 -23 17 -40z"></path>
<path d="M1976 3444 c-3 -8 -6 -25 -6 -36 0 -16 3 -18 14 -9 20 17 30 -2 22
-43 -5 -23 -2 -37 8 -45 20 -17 36 -6 36 24 0 13 5 27 11 30 6 4 8 13 5 21 -3
8 1 17 9 20 21 8 19 32 -2 37 -60 17 -91 17 -97 1z"></path>
<path d="M2270 3402 c0 -5 7 -12 15 -16 8 -3 15 -10 15 -16 0 -6 7 -18 15 -26
8 -9 15 -26 15 -40 0 -28 7 -30 38 -8 22 15 22 17 5 29 -17 13 -17 14 1 28 25
18 14 47 -17 47 -14 0 -39 3 -56 6 -18 4 -31 2 -31 -4z"></path>
<path d="M2410 3370 c0 -11 5 -20 10 -20 6 0 10 9 10 20 0 11 -4 20 -10 20 -5
0 -10 -9 -10 -20z"></path>
<path d="M2061 3306 c-8 -10 -9 -16 -1 -21 5 -3 13 1 16 10 9 22 -1 29 -15 11z"></path>
<path d="M2300 3310 c0 -5 5 -10 10 -10 6 0 10 5 10 10 0 6 -4 10 -10 10 -5 0
-10 -4 -10 -10z"></path>
<path d="M2111 3190 c0 -14 4 -32 9 -40 8 -12 10 -12 9 5 0 11 -4 29 -9 40 -8
18 -9 18 -9 -5z"></path>
<path d="M2071 3174 c0 -11 3 -14 6 -6 3 7 2 16 -1 19 -3 4 -6 -2 -5 -13z"></path>
<path d="M2055 2240 c-3 -5 3 -10 14 -10 11 0 23 5 26 10 3 6 -3 10 -14 10
-11 0 -23 -4 -26 -10z"></path>
<path d="M2236 2215 c4 -9 19 -15 35 -15 19 0 29 5 29 15 0 10 -11 15 -35 15
-26 0 -33 -3 -29 -15z"></path>
<path d="M3682 2170 c13 -20 28 -27 28 -12 0 10 -22 32 -32 32 -5 0 -3 -9 4
-20z"></path>
<path d="M2084 2140 c3 -18 6 -36 6 -41 0 -5 7 -9 16 -9 24 0 15 74 -10 78
-16 4 -18 0 -12 -28z"></path>
<path d="M1840 2135 c0 -28 24 -34 34 -9 10 26 7 34 -14 34 -15 0 -20 -7 -20
-25z"></path>
<path d="M2500 2133 c1 -25 2 -26 14 -10 8 11 27 17 52 18 31 0 35 2 19 9 -11
5 -35 9 -52 9 -30 1 -33 -2 -33 -26z"></path>
<path d="M2000 2140 c0 -5 11 -9 24 -8 14 1 22 6 20 10 -7 12 -44 10 -44 -2z"></path>
<path d="M2240 2127 c0 -15 4 -27 8 -27 10 0 9 36 -1 46 -4 4 -7 -5 -7 -19z"></path>
<path d="M2330 2131 c0 -13 13 -16 70 -16 47 0 70 4 70 12 0 17 -29 24 -89 22
-39 -2 -51 -6 -51 -18z"></path>
<path d="M3670 2070 c0 -5 5 -10 10 -10 6 0 10 5 10 10 0 6 -4 10 -10 10 -5 0
-10 -4 -10 -10z"></path>
<path d="M3800 2070 c0 -5 5 -10 11 -10 5 0 7 5 4 10 -3 6 -8 10 -11 10 -2 0
-4 -4 -4 -10z"></path>
<path d="M2767 1994 c-5 -5 1 -83 9 -121 3 -15 12 -23 24 -23 18 0 20 7 20 65
0 36 1 68 3 71 2 8 -49 15 -56 8z"></path>
<path d="M2176 1914 c-6 -48 -7 -267 -1 -249 2 6 6 45 10 88 5 57 10 77 21 77
11 0 14 16 14 65 0 57 -2 65 -19 65 -14 0 -20 -10 -25 -46z"></path>
<path d="M2568 1953 c7 -3 16 -2 19 1 4 3 -2 6 -13 5 -11 0 -14 -3 -6 -6z"></path>
<path d="M2679 1958 c-1 -2 -9 -67 -18 -145 l-17 -143 33 0 33 0 0 145 c0 122
-2 145 -15 145 -8 0 -16 -1 -16 -2z"></path>
<path d="M2250 1894 c0 -59 24 -55 28 4 2 33 0 42 -12 42 -12 0 -16 -11 -16
-46z"></path>
<path d="M1923 1880 l-11 -30 74 0 74 0 0 30 0 30 -63 0 c-60 0 -63 -1 -74
-30z"></path>
<path d="M2090 1880 c0 -39 35 -43 42 -5 6 29 2 35 -24 35 -13 0 -18 -8 -18
-30z"></path>
<path d="M2324 1895 c-12 -30 4 -48 37 -41 18 3 52 6 76 6 40 0 44 2 41 23 -3
20 -9 22 -76 25 -58 2 -73 0 -78 -13z"></path>
<path d="M2510 1880 c0 -28 2 -30 40 -30 38 0 40 2 40 30 0 28 -2 30 -40 30
-38 0 -40 -2 -40 -30z"></path>
<path d="M2790 1722 c0 -38 7 -55 19 -47 10 5 0 85 -10 85 -5 0 -9 -17 -9 -38z"></path>
<path d="M2368 1713 c-43 -4 -48 -6 -48 -29 0 -24 1 -25 73 -22 70 3 72 4 75
31 4 30 10 28 -100 20z"></path>
<path d="M1860 1684 c-6 -14 -10 -27 -10 -30 0 -2 45 -4 100 -4 l100 0 0 30 0
30 -90 0 c-88 0 -91 -1 -100 -26z"></path>
</g>
</svg>